# Blender 3.6.9
# www.blender.org
mtllib TankOBJ.mtl
o Cap
v -1.169447 1.373225 -0.213053
v -1.331063 1.639560 -0.213053
v -1.038374 1.447494 -0.150651
v -1.199990 1.713828 -0.150651
v -0.984082 1.478256 0.000000
v -1.145698 1.744591 0.000000
v -1.038374 1.447494 0.150651
v -1.199990 1.713828 0.150651
v -1.169447 1.373225 0.213053
v -1.331063 1.639560 0.213053
v -1.300519 1.298957 0.150651
v -1.462135 1.565292 0.150651
v -1.354811 1.268195 0.000000
v -1.516427 1.534529 0.000000
v -1.300519 1.298957 -0.150651
v -1.462135 1.565292 -0.150651
v -1.128227 1.784613 -0.234236
v -1.332022 1.669139 -0.331260
v -1.043813 1.832444 0.000000
v -1.128227 1.784613 0.234236
v -1.332022 1.669139 0.331260
v -1.535817 1.553665 0.234236
v -1.620232 1.505834 0.000000
v -1.535817 1.553665 -0.234236
v -1.229129 1.893416 -0.200085
v -1.403211 1.794778 -0.282963
v -1.157022 1.934273 0.000000
v -1.229129 1.893416 0.200085
v -1.403211 1.794778 0.282963
v -1.577294 1.696140 0.200085
v -1.649401 1.655283 0.000000
v -1.577294 1.696140 -0.200085
v -1.199416 1.910252 -0.234236
v -1.403211 1.794778 -0.331260
v -1.115002 1.958082 0.000000
v -1.199416 1.910252 0.234236
v -1.403211 1.794778 0.331260
v -1.607007 1.679304 0.234236
v -1.691421 1.631473 0.000000
v -1.607006 1.679304 -0.234236
v -1.239865 1.836221 -0.162549
v -1.381289 1.756088 -0.229879
v -1.181285 1.869414 0.000000
v -1.239865 1.836221 0.162549
v -1.381289 1.756088 0.229879
v -1.522713 1.675954 0.162549
v -1.581293 1.642762 0.000000
v -1.522713 1.675954 -0.162549
v -1.207207 1.854726 -0.200085
v -1.381289 1.756088 -0.282963
v -1.135100 1.895583 0.000000
v -1.207207 1.854726 0.200085
v -1.381289 1.756088 0.282963
v -1.555371 1.657450 0.200085
v -1.627478 1.616593 0.000000
v -1.555371 1.657450 -0.200085
v -1.327966 1.851552 -0.093455
v -1.409276 1.805481 -0.132166
v -1.294286 1.870636 0.000000
v -1.327966 1.851552 0.093456
v -1.409276 1.805481 0.132166
v -1.490586 1.759409 0.093456
v -1.524266 1.740326 0.000000
v -1.490586 1.759409 -0.093455
v -1.267852 1.885614 -0.162549
v -1.409276 1.805481 -0.229879
v -1.209272 1.918807 0.000000
v -1.267852 1.885614 0.162549
v -1.409276 1.805481 0.229879
v -1.550700 1.725347 0.162549
v -1.609280 1.692155 0.000000
v -1.550700 1.725347 -0.162549
v -1.315369 1.829320 -0.093455
v -1.396679 1.783249 -0.132166
v -1.281689 1.848404 0.000000
v -1.315369 1.829320 0.093456
v -1.396679 1.783249 0.132166
v -1.477989 1.737177 0.093456
v -1.511668 1.718094 0.000000
v -1.477989 1.737177 -0.093455
vn 0.3273 0.1986 -0.9238
vn 0.7899 0.4793 -0.3825
vn 0.7899 0.4793 0.3825
vn 0.3273 0.1986 0.9238
vn -0.3273 -0.1986 0.9238
vn -0.7899 -0.4793 0.3825
vn 0.2651 -0.9590 -0.1003
vn -0.7899 -0.4793 -0.3825
vn -0.3273 -0.1986 -0.9238
vn 0.4930 -0.8700 -0.0000
vn -0.3329 -0.1887 -0.9239
vn 0.6509 -0.7549 -0.0804
vn 0.3966 -0.8898 0.2259
vn 0.3966 -0.8898 -0.2259
vn 0.5549 -0.8060 -0.2062
vn 0.6509 -0.7549 0.0804
vn 0.2651 -0.9590 0.1003
vn 0.5549 -0.8060 0.2062
vn 0.8038 0.4555 -0.3827
vn -0.8038 -0.4555 0.3827
vn 0.3329 0.1887 0.9239
vn -0.8038 -0.4555 -0.3827
vn -0.3330 -0.1887 0.9239
vn 0.8038 0.4555 0.3827
vn 0.3330 0.1887 -0.9239
vn -0.4930 0.8700 -0.0000
vn -0.3330 -0.1887 -0.9239
vn 0.3330 0.1887 0.9239
vt 0.189263 0.931355
vt 0.189263 0.742427
vt 0.288118 0.745159
vt 0.288118 0.934086
vt 0.358023 0.746931
vt 0.358023 0.935858
vt 0.986364 0.257763
vt 0.981145 0.446619
vt 0.911217 0.446459
vt 0.916436 0.257603
vt 0.812324 0.446459
vt 0.817543 0.257603
vt 0.742397 0.446619
vt 0.747616 0.257763
vt 0.189263 0.981175
vt 0.000386 0.983337
vt 0.000000 0.913409
vt 0.188877 0.911247
vt 0.128636 0.063126
vt 0.058713 0.133057
vt 0.000000 0.108739
vt 0.108718 0.000009
vt 0.000000 0.814516
vt 0.188877 0.812355
vt 0.000386 0.744589
vt 0.189263 0.742427
vt 0.742397 0.516542
vt 0.812319 0.446619
vt 0.911211 0.446619
vt 0.981142 0.516542
vt 0.981147 0.615427
vt 0.911225 0.685350
vt 0.812333 0.685350
vt 0.742402 0.615427
vt 0.087826 0.633702
vt 0.087577 0.742427
vt 0.000000 0.742427
vt 0.000249 0.633702
vt 0.297444 0.231934
vt 0.297444 0.133043
vt 0.371185 0.108718
vt 0.371185 0.262477
vt 0.058713 0.231948
vt 0.128636 0.301871
vt 0.108718 0.371216
vt 0.000000 0.262498
vt 0.227521 0.063120
vt 0.262468 0.000000
vt 0.227521 0.301865
vt 0.262468 0.371207
vt 0.492954 0.688305
vt 0.492741 0.595432
vt 0.519710 0.595432
vt 0.519923 0.688305
vt 0.634680 0.525176
vt 0.635032 0.633903
vt 0.547456 0.633702
vt 0.547104 0.524976
vt 0.175652 0.479941
vt 0.175652 0.633702
vt 0.088075 0.633702
vt 0.088075 0.479941
vt 0.087577 0.371216
vt 0.087826 0.479941
vt 0.000249 0.479941
vt 0.000000 0.371216
vt 0.635032 0.371416
vt 0.547456 0.371216
vt 0.175403 0.371216
vt 0.087826 0.371216
vt 0.175403 0.742427
vt 0.087826 0.742427
vt 0.622462 0.027061
vt 0.491120 0.027061
vt 0.479911 -0.000000
vt 0.633671 -0.000000
vt 0.398246 0.119934
vt 0.371185 0.108725
vt 0.398246 0.251277
vt 0.371185 0.262486
vt 0.491120 0.344150
vt 0.479911 0.371211
vt 0.622462 0.344150
vt 0.633671 0.371211
vt 0.715336 0.251277
vt 0.742397 0.262486
vt 0.715336 0.119934
vt 0.742397 0.108725
vt 0.704236 0.446666
vt 0.704236 0.553369
vt 0.669807 0.553369
vt 0.669807 0.446666
vt 0.492741 0.464089
vt 0.492954 0.371216
vt 0.519923 0.371216
vt 0.519710 0.464089
vt 0.835271 0.712318
vt 0.742397 0.712619
vt 0.742458 0.685651
vt 0.835333 0.685350
vt 0.547104 0.595432
vt 0.546892 0.688305
vt 0.519923 0.688305
vt 0.520135 0.595432
vt 0.966613 0.712619
vt 0.966675 0.685651
vt 0.546892 0.371216
vt 0.547104 0.464089
vt 0.520135 0.464089
vt 0.519923 0.371216
vt 0.462998 0.583112
vt 0.462998 0.476409
vt 0.492741 0.464089
vt 0.492741 0.595432
vt 0.387548 0.400959
vt 0.399868 0.371216
vt 0.280845 0.400959
vt 0.268525 0.371216
vt 0.205395 0.476409
vt 0.175652 0.464089
vt 0.205395 0.583112
vt 0.175652 0.595432
vt 0.280845 0.658562
vt 0.268525 0.688305
vt 0.387548 0.658562
vt 0.399868 0.688305
vt 0.540802 0.785806
vt 0.540901 0.742427
vt 0.556398 0.742427
vt 0.556299 0.785806
vt 0.704063 0.628819
vt 0.669634 0.628819
vt 0.392452 0.849208
vt 0.392697 0.924659
vt 0.358268 0.924580
vt 0.358023 0.849129
vt 0.669634 0.446666
vt 0.669634 0.553369
vt 0.635204 0.553369
vt 0.635204 0.446666
vt 0.704063 0.371216
vt 0.669634 0.371216
vt 0.392697 0.742506
vt 0.358268 0.742427
vt 0.669461 0.371216
vt 0.635032 0.371216
vt 0.669461 0.628819
vt 0.635032 0.628819
vt 0.901872 0.054749
vt 0.840525 0.054749
vt 0.817847 -0.000000
vt 0.924550 -0.000000
vt 0.797146 0.098128
vt 0.742397 0.075450
vt 0.797146 0.159475
vt 0.742397 0.182153
vt 0.840525 0.202854
vt 0.817847 0.257603
vt 0.901872 0.202854
vt 0.924550 0.257603
vt 0.945251 0.159475
vt 1.000000 0.182153
vt 0.945251 0.098128
vt 1.000000 0.075450
vt 0.540802 0.785806
vt 0.540802 0.847153
vt 0.497423 0.890532
vt 0.436076 0.890532
vt 0.392697 0.847153
vt 0.392697 0.785806
vt 0.436076 0.742427
vt 0.497423 0.742427
vt 0.785776 0.712619
vt 0.847123 0.712619
vt 0.847123 0.728116
vt 0.785776 0.728116
vt 0.556398 0.847154
vt 0.556539 0.785806
vt 0.572035 0.785842
vt 0.571895 0.847189
vt 0.540901 0.890532
vt 0.540802 0.847153
vt 0.556299 0.847153
vt 0.556398 0.890532
vt 0.742397 0.712718
vt 0.742397 0.728215
vt 0.890502 0.712718
vt 0.890502 0.728215
vt 0.556398 0.742427
vt 0.571895 0.742462
s 0
usemtl Deckel.002
f 1/1/1 2/2/1 4/3/1 3/4/1
f 3/4/2 4/3/2 6/5/2 5/6/2
f 5/7/3 6/8/3 8/9/3 7/10/3
f 7/10/4 8/9/4 10/11/4 9/12/4
f 9/12/5 10/11/5 12/13/5 11/14/5
f 11/15/6 12/16/6 14/17/6 13/18/6
f 16/19/7 14/20/7 23/21/7 24/22/7
f 13/18/8 14/17/8 16/23/8 15/24/8
f 15/24/9 16/23/9 2/25/9 1/26/9
f 1/27/10 3/28/10 5/29/10 7/30/10 9/31/10 11/32/10 13/33/10 15/34/10
f 18/35/11 24/36/11 40/37/11 34/38/11
f 6/39/12 4/40/12 17/41/12 19/42/12
f 12/43/13 10/44/13 21/45/13 22/46/13
f 2/47/14 16/19/14 24/22/14 18/48/14
f 4/40/15 2/47/15 18/48/15 17/41/15
f 8/49/16 6/39/16 19/42/16 20/50/16
f 14/20/17 12/43/17 22/46/17 23/21/17
f 10/44/18 8/49/18 20/50/18 21/45/18
f 31/51/19 30/52/19 54/53/19 55/54/19
f 23/55/20 22/56/20 38/57/20 39/58/20
f 21/59/21 20/60/21 36/61/21 37/62/21
f 19/63/19 17/64/19 33/65/19 35/66/19
f 24/67/22 23/55/22 39/58/22 40/68/22
f 22/69/23 21/59/23 37/62/23 38/70/23
f 20/60/24 19/71/24 35/72/24 36/61/24
f 17/64/25 18/35/25 34/38/25 33/65/25
f 26/73/26 25/74/26 33/75/26 34/76/26
f 25/74/26 27/77/26 35/78/26 33/75/26
f 27/77/26 28/79/26 36/80/26 35/78/26
f 28/79/26 29/81/26 37/82/26 36/80/26
f 29/81/26 30/83/26 38/84/26 37/82/26
f 30/83/26 31/85/26 39/86/26 38/84/26
f 31/85/26 32/87/26 40/88/26 39/86/26
f 32/87/26 26/73/26 34/76/26 40/88/26
f 41/89/25 42/90/25 66/91/25 65/92/25
f 29/93/27 28/94/27 52/95/27 53/96/27
f 27/97/20 25/98/20 49/99/20 51/100/20
f 32/101/24 31/102/24 55/103/24 56/104/24
f 30/52/25 29/93/25 53/96/25 54/53/25
f 28/105/22 27/97/22 51/100/22 52/106/22
f 25/107/23 26/108/23 50/109/23 49/110/23
f 26/108/28 32/101/28 56/104/28 50/109/28
f 42/111/26 41/112/26 49/113/26 50/114/26
f 41/112/26 43/115/26 51/116/26 49/113/26
f 43/115/26 44/117/26 52/118/26 51/116/26
f 44/117/26 45/119/26 53/120/26 52/118/26
f 45/119/26 46/121/26 54/122/26 53/120/26
f 46/121/26 47/123/26 55/124/26 54/122/26
f 47/123/26 48/125/26 56/126/26 55/124/26
f 48/125/26 42/111/26 50/114/26 56/126/26
f 64/127/24 63/128/24 79/129/24 80/130/24
f 42/90/27 48/131/27 72/132/27 66/91/27
f 47/133/20 46/134/20 70/135/20 71/136/20
f 45/137/28 44/138/28 68/139/28 69/140/28
f 43/141/19 41/89/19 65/92/19 67/142/19
f 48/143/22 47/133/22 71/136/22 72/144/22
f 46/145/23 45/137/23 69/140/23 70/146/23
f 44/138/24 43/147/24 67/148/24 68/139/24
f 58/149/26 57/150/26 65/151/26 66/152/26
f 57/150/26 59/153/26 67/154/26 65/151/26
f 59/153/26 60/155/26 68/156/26 67/154/26
f 60/155/26 61/157/26 69/158/26 68/156/26
f 61/157/26 62/159/26 70/160/26 69/158/26
f 62/159/26 63/161/26 71/162/26 70/160/26
f 63/161/26 64/163/26 72/164/26 71/162/26
f 64/163/26 58/149/26 66/152/26 72/164/26
f 73/165/26 74/166/26 80/167/26 79/168/26 78/169/26 77/170/26 76/171/26 75/172/26
f 62/173/25 61/174/25 77/175/25 78/176/25
f 60/177/22 59/178/22 75/179/22 76/180/22
f 57/181/23 58/182/23 74/183/23 73/184/23
f 58/182/21 64/127/21 80/130/21 74/183/21
f 63/185/19 62/173/19 78/176/19 79/186/19
f 61/174/27 60/187/27 76/188/27 77/175/27
f 59/178/20 57/189/20 73/190/20 75/179/20
o GasolineTank
v 1.128958 2.169113 0.580715
v 1.128958 2.169113 -0.419372
v 1.128958 2.169113 0.003958
v 1.128958 2.169113 -0.119996
v 1.128958 2.169113 0.110114
v 1.128958 2.169113 0.415266
v 1.095533 2.248681 -0.419372
v 1.095533 2.248681 -0.119996
v 1.095533 2.248681 0.110114
v -0.630966 -0.941127 -0.632569
v -0.581276 -0.990816 -0.632569
v 1.095533 2.248681 0.415266
v 1.059627 2.320956 -0.419372
v 1.059627 2.320956 -0.119996
v 1.059627 2.320956 0.110114
v -0.581276 0.271116 -0.632569
v 1.059627 2.320956 0.415266
v -0.630966 0.221426 -0.632569
v 0.903645 2.352510 -0.419372
v 0.903645 2.352510 -0.099510
v 0.903645 2.352510 0.091952
v 0.581276 -0.990816 -0.632569
v 0.630966 -0.941127 -0.632569
v 0.903645 2.352510 0.415266
v -0.288686 2.139832 -0.419372
v -0.288686 2.139832 -0.099510
v 0.630966 0.221426 -0.632569
v -0.288686 2.139832 0.091952
v -0.288686 2.139832 0.415266
v 0.581276 0.271116 -0.632569
v -0.355868 2.055032 -0.419372
v -0.355868 2.055032 -0.100100
v -0.368949 2.068114 0.092474
v -0.368949 2.068114 0.415266
v -0.407910 1.951886 -0.419372
v -0.407910 1.951886 -0.089216
v -0.407910 1.951886 0.082826
v -0.407910 1.951886 0.415266
v -0.560591 1.635849 -0.419372
v -0.560591 1.635849 -0.089216
v -0.560591 1.635849 0.082825
v -0.560591 1.635848 0.415266
v 1.591048 -2.308795 -0.653506
v 1.633381 -2.441832 -0.388214
v 1.591048 -2.308795 0.653506
v 1.633381 -2.441832 0.388214
v -1.591048 1.217102 -0.653506
v -1.724084 1.149144 -0.495763
v -1.198113 0.888114 -0.632569
v -1.609189 1.349246 -0.497210
v -1.591048 -2.308795 -0.653506
v -1.633381 -2.441832 -0.388214
v -1.724084 1.149144 0.495763
v -1.591048 1.217102 0.653506
v -1.609189 1.349246 0.559627
v -1.591048 -2.308795 0.653506
v -1.247964 0.838262 -0.632569
v -1.633381 -2.441832 0.388214
v -1.247964 -1.557963 -0.632569
v 0.862042 -2.441832 -0.388214
v 0.862042 -2.308795 -0.653506
v -0.000000 -2.441832 -0.388214
v -0.000000 -2.308795 -0.653506
v -0.891786 -2.308795 -0.653506
v -0.891786 -2.441832 -0.388214
v -0.000000 1.768001 0.570049
v -1.198113 -1.607814 -0.632569
v -0.000000 1.626038 0.653506
v -0.891786 1.625719 0.653506
v -0.891786 1.768001 0.562181
v -0.891786 -2.441832 0.388214
v 1.198113 0.888114 -0.632569
v -0.891786 -2.308795 0.653506
v 0.000000 -2.441832 0.388214
v 1.247964 0.838262 -0.632569
v 0.000000 -2.308795 0.653506
v 0.862042 -2.308795 0.653506
v 0.862042 -2.441832 0.388214
v -0.891786 1.768001 -0.497268
v -0.891786 1.625719 -0.653506
v 0.000000 1.768001 -0.497446
v 1.247964 -1.557963 -0.632569
v 0.000000 1.626038 -0.653506
v 1.591048 2.223586 -0.653506
v 1.198113 -1.607814 -0.632569
v 1.547070 2.347042 -0.498232
v 1.724084 2.289334 -0.495763
v 1.591048 2.223585 0.653506
v 1.724084 2.289334 0.495763
v 1.545188 2.346241 0.604719
v 0.862042 1.913452 -0.653506
v 0.862042 2.055527 -0.497759
v 0.862042 2.055527 0.583860
v 0.862042 1.913452 0.653506
v 1.457169 2.308784 -0.419372
v -0.630966 -0.941127 0.632569
v 1.518423 2.334851 0.597420
v -0.581276 -0.990816 0.632569
v 1.388538 2.279578 0.580715
v 1.518423 2.334851 0.003958
v 1.388564 2.279589 0.003958
v -0.581276 0.271116 0.632569
v 1.385798 2.278412 -0.419372
v -0.630966 0.221426 0.632569
v 1.457169 2.308784 -0.338286
v 1.457169 2.308784 -0.198942
v 1.388274 2.279466 -0.119996
v 0.581276 -0.990816 0.632569
v 1.388265 2.279462 0.110113
v 0.630966 -0.941127 0.632569
v 1.457169 2.308784 0.189057
v 1.457169 2.308784 0.336333
v 1.388243 2.279452 0.415266
v 1.343909 2.374647 -0.419372
v 0.630966 0.221426 0.632569
v 1.413653 2.410018 -0.338791
v 0.581276 0.271116 0.632569
v 1.413653 2.410018 -0.198943
v 1.345868 2.375640 -0.119996
v 1.345850 2.375631 0.110113
v 1.413653 2.410018 0.189057
v 1.413653 2.410018 0.336333
v 1.345830 2.375621 0.415266
v 1.294772 2.467047 -0.419372
v 1.362608 2.509193 -0.339165
v 1.362608 2.509193 -0.198944
v 1.296369 2.468040 -0.119996
v 1.296342 2.468023 0.110113
v 1.362608 2.509193 0.189059
v 1.362608 2.509193 0.336333
v 1.296323 2.468011 0.415266
v 0.939038 2.582117 -0.419372
v 0.948860 2.645830 -0.339437
v 0.948860 2.645830 -0.178458
v 0.939216 2.583268 -0.099510
v -1.198113 0.888114 0.632569
v 0.939210 2.583231 0.091952
v 0.948860 2.645830 0.170897
v 0.948860 2.645830 0.336333
v 0.939211 2.583237 0.415266
v -0.361453 2.360990 -0.419372
v -0.381444 2.421749 -0.339629
v -0.381444 2.421749 -0.178458
v -1.247964 0.838262 0.632569
v -0.361745 2.361879 -0.099510
v -1.247964 -1.557963 0.632569
v -0.361727 2.361824 0.091952
v -0.381444 2.421749 0.170896
v -0.381444 2.421749 0.336333
v -0.361728 2.361828 0.415266
v -0.489639 2.270161 -0.419372
v -0.522996 2.323805 -0.339756
v -0.522996 2.323804 -0.179048
v -1.198113 -1.607814 0.632569
v -0.490054 2.270827 -0.100100
v -0.490734 2.270256 0.092474
v -0.522996 2.323804 0.171420
v 1.198113 0.888114 0.632569
v -0.522996 2.323804 0.336333
v -0.490736 2.270258 0.415266
v -0.598602 2.044011 -0.419372
v 1.247964 0.838262 0.632569
v -0.648039 2.067894 -0.339828
v -0.648038 2.067894 -0.168164
v -0.599129 2.044265 -0.089216
v -0.599420 2.044406 0.082826
v -0.648038 2.067894 0.161771
v 1.247964 -1.557963 0.632569
v -0.648039 2.067894 0.336333
v -0.599430 2.044410 0.415266
v -0.800719 1.751857 -0.339852
v 1.198113 -1.607814 0.632569
v -0.750878 1.727778 -0.419372
v -0.751385 1.728023 -0.089216
v -0.800719 1.751856 -0.168163
v -0.800719 1.751856 0.161770
v -0.751665 1.728158 0.082825
v -0.751674 1.728162 0.415266
v -0.800719 1.751856 0.336333
v -0.891786 -2.441832 -0.495763
v -1.724084 -2.441832 -0.495763
v 0.862042 -2.441832 0.495763
v 1.724084 -2.441832 0.495763
v 1.724084 -2.441832 -0.495763
v 0.862042 -2.441832 -0.495763
v -0.000000 -2.441832 -0.495763
v -1.724084 -2.441832 0.495763
v -0.891786 -2.441832 0.495763
v 0.000000 -2.441832 0.495763
v -0.891786 -2.348184 -0.388214
v -1.633381 -2.348184 -0.388214
v 0.862042 -2.348184 0.388214
v 1.633381 -2.348184 0.388214
v 1.633381 -2.348184 -0.388214
v 0.862042 -2.348184 -0.388214
v -0.000000 -2.348184 -0.388214
v -1.633381 -2.348184 0.388214
v -0.891786 -2.348184 0.388214
v 0.000000 -2.348184 0.388214
v 1.263968 0.822259 0.653506
v 1.182109 0.904117 0.653506
v 1.264483 0.943400 0.653506
v 1.303251 0.904633 0.653506
v 0.862042 0.583982 0.653506
v 0.862042 -1.140103 0.653506
v 0.862042 -1.303751 0.653506
v 0.862042 0.420346 0.653506
v 1.303251 -1.624333 0.653506
v 1.264483 -1.663101 0.653506
v 1.263968 -1.541960 0.653506
v 1.182109 -1.623818 0.653506
v -1.303251 0.904633 0.653506
v -1.264483 0.943400 0.653506
v -1.263968 0.822259 0.653506
v -1.182109 0.904117 0.653506
v -0.891786 -1.333427 0.653506
v -0.891786 -1.169783 0.653506
v -0.891786 0.450146 0.653506
v -0.891786 0.613794 0.653506
v -1.303251 -1.624333 0.653506
v -1.182109 -1.623818 0.653506
v -1.264483 -1.663101 0.653506
v -1.263968 -1.541960 0.653506
v -0.891786 0.613794 -0.653506
v -0.891786 0.450146 -0.653506
v -0.647016 -0.925077 -0.653506
v -0.647016 0.205376 -0.653506
v -0.565226 0.287166 -0.653506
v -0.891786 -1.333427 -0.653506
v -0.891786 -1.169783 -0.653506
v -0.565226 -1.006866 -0.653506
v -0.000000 -1.006866 -0.653506
v 0.000000 0.287166 -0.653506
v 0.565226 -1.006866 -0.653506
v 0.647016 -0.925077 -0.653506
v 0.862042 -1.303751 -0.653506
v 0.862042 -1.140103 -0.653506
v 0.862042 0.420346 -0.653506
v 0.647016 0.205376 -0.653506
v 0.565226 0.287166 -0.653506
v 0.862042 0.583982 -0.653506
v -1.303251 0.904633 -0.653506
v -1.264483 0.943400 -0.653506
v -1.263968 0.822259 -0.653506
v -1.182109 0.904117 -0.653506
v -1.303251 -1.624333 -0.653506
v -1.264483 -1.663101 -0.653506
v -1.182109 -1.623818 -0.653506
v -1.263968 -1.541960 -0.653506
v 0.647016 -0.925077 0.653506
v 0.647016 0.205376 0.653506
v 0.565226 0.287166 0.653506
v 0.565226 -1.006866 0.653506
v 0.000000 -1.006866 0.653506
v -0.000000 0.287166 0.653506
v -0.565226 0.287166 0.653506
v -0.565226 -1.006866 0.653506
v -0.647016 -0.925077 0.653506
v -0.647016 0.205376 0.653506
v 1.303251 0.904633 -0.653506
v 1.264483 0.943400 -0.653506
v 1.263968 0.822259 -0.653506
v 1.182109 0.904117 -0.653506
v 1.182109 -1.623818 -0.653506
v 1.303251 -1.624333 -0.653506
v 1.264483 -1.663101 -0.653506
v 1.263968 -1.541960 -0.653506
vn -0.0000 -0.0000 -1.0000
vn -0.5041 0.8636 -0.0000
vn -0.6625 0.6908 -0.2897
vn -0.6916 0.7223 -0.0000
vn -0.0000 -0.0000 1.0000
vn -0.1031 0.2235 0.9692
vn -0.0841 0.2173 0.9725
vn -0.0783 -0.0783 0.9939
vn -0.0783 0.0783 0.9939
vn 1.0000 -0.0000 -0.0000
vn -1.0000 -0.0000 -0.0000
vn -0.9606 0.2780 -0.0000
vn -0.9284 0.2184 -0.3006
vn -0.3543 0.9351 -0.0000
vn -0.1603 0.9871 -0.0000
vn -0.1615 0.9869 -0.0000
vn -0.3548 0.9349 -0.0000
vn 0.0783 0.0783 0.9939
vn 0.0783 -0.0783 0.9939
vn 0.0783 -0.0783 -0.9939
vn 0.0783 0.0783 -0.9939
vn -0.0000 1.0000 -0.0000
vn -0.0356 0.2343 0.9715
vn -0.3916 0.9201 -0.0000
vn 0.9045 0.4265 -0.0000
vn 0.9044 0.4266 -0.0000
vn 0.8891 0.4576 -0.0000
vn 0.9187 0.3949 -0.0000
vn -0.9092 -0.4163 -0.0000
vn -0.8956 -0.4449 -0.0000
vn -0.9220 -0.3873 -0.0000
vn -0.1983 -0.9801 -0.0000
vn -0.0115 -0.9999 -0.0000
vn -0.0044 -1.0000 -0.0000
vn 0.0722 0.9974 -0.0000
vn 0.0759 0.9971 -0.0000
vn -0.3766 0.9264 -0.0000
vn -0.3763 0.9265 -0.0000
vn 0.0345 -0.0248 -0.9991
vn 0.0214 -0.0154 -0.9997
vn 0.0242 -0.0174 0.9996
vn 0.0388 -0.0280 0.9989
vn 0.3136 0.9496 -0.0000
vn 0.0304 -0.0219 0.9993
vn 0.0350 -0.0253 0.9991
vn -0.0020 -0.0009 1.0000
vn -0.0024 -0.0011 1.0000
vn 0.0311 -0.0224 -0.9993
vn 0.0269 -0.0194 -0.9994
vn -0.0020 -0.0009 -1.0000
vn -0.0017 -0.0008 -1.0000
vn 0.0727 0.9974 -0.0000
vn 0.0760 0.9971 -0.0000
vn -0.0035 -1.0000 -0.0000
vn 0.0220 0.0243 -0.9995
vn 0.0119 0.0140 -0.9998
vn -0.7584 0.6518 -0.0000
vn -0.7602 0.6497 -0.0000
vn 0.1756 -0.9845 -0.0000
vn -0.3764 0.9265 -0.0000
vn 0.0181 0.0192 -0.9997
vn 0.0189 0.0201 -0.9996
vn 0.0137 0.0159 0.9998
vn 0.0255 0.0278 0.9993
vn -0.8995 0.4370 -0.0000
vn 0.6663 -0.7457 -0.0000
vn 0.8351 -0.5501 -0.0000
vn 0.8384 -0.5450 -0.0000
vn -0.7600 0.6499 -0.0000
vn 0.7838 -0.6210 -0.0000
vn 0.8441 -0.5361 -0.0000
vn 0.8426 -0.5385 -0.0000
vn 0.8966 -0.4428 -0.0000
vn 0.8968 -0.4425 -0.0000
vn 0.9004 -0.4350 -0.0000
vn -0.9004 0.4350 -0.0000
vn 0.0214 0.0226 0.9995
vn 0.0215 0.0227 0.9995
vn 0.9261 -0.3772 -0.0000
vn 0.9255 -0.3787 -0.0000
vn -0.4350 -0.9004 -0.0000
vn -0.6777 0.4010 -0.6165
vn -0.7784 0.0781 0.6229
vn -0.7863 0.1458 0.6004
vn -0.7899 0.2794 0.5459
vn 0.2652 0.7899 -0.5529
vn 0.5627 0.4785 0.6740
vn -0.0000 -0.7644 -0.6447
vn 0.7644 -0.0000 -0.6447
vn -0.7644 -0.0000 0.6447
vn 0.7644 -0.0000 0.6447
vn -0.7644 -0.0000 -0.6447
vn -0.1317 0.5278 0.8391
vn -0.3045 0.5189 0.7987
vn -0.1746 0.5271 0.8316
vn 0.3067 0.9518 0.0006
vn -0.0000 -0.7644 0.6447
vn -0.2743 0.7103 -0.6483
vn -0.2998 0.7042 -0.6436
vn -0.2651 0.7124 -0.6498
vn -0.1738 0.3769 0.9098
vn -0.1697 0.4141 0.8943
vn -0.0899 0.4956 0.8639
vn -0.1773 0.7276 -0.6627
vn -0.2225 0.7207 -0.6566
vn -0.1284 0.7333 -0.6677
vn -0.1119 0.7348 -0.6690
vn -0.0783 0.0783 -0.9939
vn -0.0783 -0.0783 -0.9939
vn 0.6475 0.3074 -0.6973
vn 0.6619 0.2845 -0.6935
vn 0.6478 0.3070 -0.6972
vn 0.6630 0.2886 0.6908
vn 0.6486 0.3111 0.6947
vn 0.6488 0.3107 0.6946
vn 0.6631 0.2887 -0.6906
vn 0.6490 0.3107 -0.6945
vn 0.6487 0.3112 -0.6945
vn 0.6632 0.2887 0.6905
vn 0.6488 0.3112 0.6944
vn 0.6491 0.3107 0.6943
vn 0.6343 0.3329 0.6977
vn 0.6342 0.3329 -0.6978
vn 0.6341 0.3328 0.6980
vn 0.6330 0.3296 -0.7005
vn 0.2456 0.7516 0.6122
vn 0.0643 0.7789 0.6238
vn 0.0523 0.7798 0.6239
vn 0.2739 0.7382 0.6165
vn 0.0820 0.7740 0.6278
vn 0.0638 0.7759 0.6277
vn 0.0799 0.7744 -0.6276
vn 0.2707 0.7396 -0.6162
vn 0.0625 0.7761 -0.6275
vn 0.0644 0.7772 -0.6259
vn 0.2454 0.7497 -0.6146
vn 0.0524 0.7781 -0.6259
vn -0.3021 0.7216 -0.6229
vn -0.2932 0.7253 -0.6228
vn -0.3013 0.7220 0.6229
vn -0.2921 0.7257 0.6229
vn -0.2914 0.7248 -0.6243
vn -0.3006 0.7210 -0.6243
vn -0.3023 0.7219 0.6225
vn -0.2934 0.7256 0.6225
vn -0.5855 0.5420 -0.6028
vn -0.6239 0.5058 -0.5958
vn -0.6296 0.4986 0.5958
vn -0.5922 0.5348 0.6028
vn -0.5913 0.5333 -0.6050
vn -0.6270 0.4985 -0.5987
vn -0.6215 0.5072 0.5971
vn -0.5849 0.5420 0.6034
vn -0.7389 0.3687 -0.5640
vn -0.7389 0.3685 -0.5640
vn -0.7443 0.3600 0.5625
vn -0.7419 0.3591 -0.5662
vn -0.7420 0.3591 -0.5662
vn -0.7368 0.3690 0.5665
vn -0.7367 0.3692 0.5665
vn -0.7410 0.3574 0.5685
vn -0.7424 0.3580 -0.5663
vn -0.7424 0.3580 0.5662
vn -0.7403 0.3571 -0.5697
vn -0.0000 -0.2425 0.9701
vn -0.0000 -1.0000 -0.0000
vn -0.4796 0.4797 -0.7347
vn -0.5574 0.3962 -0.7296
vn -0.5532 0.4010 -0.7302
vn -0.3963 0.5576 -0.7294
vn -0.4800 0.4799 -0.7344
vn -0.4012 0.5534 -0.7300
vn 0.4797 0.4796 -0.7348
vn 0.3961 0.5574 -0.7296
vn 0.4010 0.5532 -0.7302
vn 0.5575 0.3963 -0.7295
vn 0.4799 0.4800 -0.7344
vn 0.5534 0.4011 -0.7300
vn -0.4797 -0.4796 -0.7347
vn -0.3962 -0.5574 -0.7296
vn -0.4010 -0.5532 -0.7302
vn 0.7936 -0.0000 -0.6084
vn -0.0000 0.7936 -0.6084
vn -0.7936 -0.0000 -0.6084
vn -0.0000 -0.7936 -0.6084
vn 0.0818 0.0818 -0.9933
vn 0.3963 -0.5575 -0.7294
vn 0.4800 -0.4799 -0.7344
vn 0.4011 -0.5534 -0.7300
vn -0.0818 -0.0818 -0.9933
vn 0.0818 -0.0818 -0.9933
vn 0.4796 -0.4797 -0.7348
vn 0.5574 -0.3961 -0.7296
vn 0.5532 -0.4010 -0.7302
vn -0.0818 0.0818 -0.9933
vn -0.5575 -0.3963 -0.7295
vn -0.4799 -0.4799 -0.7344
vn -0.5533 -0.4011 -0.7300
vn 0.6322 -0.3015 -0.7137
vn -0.3015 0.6322 -0.7137
vn 0.3015 -0.6322 -0.7137
vn -0.3015 -0.6322 -0.7137
vn 0.6322 0.3015 -0.7137
vn 0.3015 0.6322 -0.7137
vn -0.6322 -0.3015 -0.7137
vn -0.6322 0.3015 -0.7137
vn -0.5532 0.4010 0.7302
vn -0.5574 0.3962 0.7296
vn -0.4796 0.4797 0.7347
vn -0.4800 0.4799 0.7344
vn -0.3963 0.5576 0.7294
vn -0.4012 0.5534 0.7300
vn 0.4010 0.5532 0.7302
vn 0.3961 0.5574 0.7296
vn 0.4797 0.4796 0.7348
vn 0.4799 0.4800 0.7344
vn 0.5575 0.3963 0.7295
vn 0.5534 0.4011 0.7300
vn -0.4010 -0.5532 0.7302
vn -0.3962 -0.5574 0.7296
vn -0.4797 -0.4796 0.7347
vn 0.7936 -0.0000 0.6084
vn -0.0000 0.7936 0.6084
vn -0.7936 -0.0000 0.6084
vn -0.0000 -0.7936 0.6084
vn 0.0818 0.0818 0.9933
vn 0.4800 -0.4799 0.7344
vn 0.3963 -0.5575 0.7294
vn 0.4011 -0.5534 0.7300
vn -0.0818 -0.0818 0.9933
vn 0.0818 -0.0818 0.9933
vn 0.5532 -0.4010 0.7302
vn 0.5574 -0.3961 0.7296
vn 0.4796 -0.4797 0.7348
vn -0.0818 0.0818 0.9933
vn -0.4799 -0.4799 0.7344
vn -0.5575 -0.3963 0.7295
vn -0.5533 -0.4011 0.7300
vn 0.6322 -0.3015 0.7137
vn -0.3015 0.6322 0.7137
vn 0.3015 -0.6322 0.7137
vn -0.3015 -0.6322 0.7137
vn 0.6322 0.3015 0.7137
vn 0.3015 0.6322 0.7137
vn -0.6322 -0.3015 0.7137
vn -0.6322 0.3015 0.7137
vt 0.876903 0.544509
vt 0.876903 0.637175
vt 0.865652 0.637175
vt 0.865652 0.544509
vt 0.846870 0.864506
vt 0.846875 0.960448
vt 0.719910 0.960466
vt 0.719591 0.864523
vt 0.103445 0.438451
vt 0.103445 0.559119
vt 0.015866 0.559100
vt 0.015866 0.014933
vt 0.103445 0.052187
vt 0.103445 0.211806
vt 0.064994 0.173361
vt 0.055098 0.168643
vt 0.050441 0.173296
vt 0.055160 0.183187
vt 0.103445 0.231452
vt 0.103445 0.418803
vt 0.055160 0.467041
vt 0.050441 0.476929
vt 0.055098 0.481585
vt 0.064994 0.476871
vt 0.419347 0.568376
vt 0.419347 0.000000
vt 0.538467 0.000000
vt 0.538467 0.568376
vt 0.576369 1.000000
vt 0.576369 0.569302
vt 0.695488 0.569302
vt 0.695488 1.000000
vt 0.846900 0.651802
vt 0.846877 0.760688
vt 0.718630 0.760706
vt 0.716956 0.651819
vt 0.314142 0.208272
vt 0.314142 0.086778
vt 0.398148 0.135856
vt 0.398148 0.559183
vt 0.314142 0.559165
vt 0.314142 0.442060
vt 0.349020 0.476932
vt 0.358916 0.481651
vt 0.363573 0.476998
vt 0.358854 0.467107
vt 0.314142 0.422412
vt 0.314142 0.227920
vt 0.358854 0.183253
vt 0.363573 0.173364
vt 0.358916 0.168709
vt 0.349020 0.173423
vt 0.641425 0.213057
vt 0.670831 0.242463
vt 0.670831 0.378272
vt 0.641425 0.407671
vt 0.680657 0.232637
vt 0.641425 0.193396
vt 0.641425 0.071826
vt 0.748562 0.071788
vt 0.748562 0.232637
vt 0.748562 0.388098
vt 0.748562 0.544509
vt 0.641425 0.544509
vt 0.641425 0.427331
vt 0.680657 0.388098
vt 0.852125 0.544509
vt 0.816466 0.388098
vt 0.852125 0.423765
vt 0.826292 0.242463
vt 0.852125 0.216637
vt 0.852125 0.404105
vt 0.826292 0.378272
vt 0.852125 0.037259
vt 0.852125 0.196978
vt 0.816466 0.232637
vt 0.557418 0.544509
vt 0.557418 0.120917
vt 0.606546 0.158518
vt 0.596650 0.153798
vt 0.591993 0.158456
vt 0.596712 0.168352
vt 0.596712 0.452383
vt 0.591993 0.462279
vt 0.596650 0.466937
vt 0.606546 0.462218
vt 0.129278 0.392992
vt 0.129278 0.257268
vt 0.139103 0.247450
vt 0.207007 0.086717
vt 0.207007 0.247465
vt 0.207007 0.402829
vt 0.207007 0.559142
vt 0.139103 0.402814
vt 0.786615 0.583866
vt 0.786620 0.617366
vt 0.773867 0.617368
vt 0.773862 0.583906
vt 0.274911 0.247480
vt 0.274911 0.402844
vt 0.284736 0.257302
vt 0.284736 0.393026
vt 0.837478 0.617359
vt 0.837472 0.575006
vt 0.846945 0.563404
vt 0.737202 0.583914
vt 0.737206 0.617373
vt 0.717330 0.617376
vt 0.717325 0.583879
vt 0.801507 0.583902
vt 0.801511 0.617364
vt 0.714439 0.563665
vt 0.715316 0.567119
vt 0.746684 0.575019
vt 0.827731 0.575008
vt 0.810990 0.575010
vt 0.786613 0.567109
vt 0.764377 0.575016
vt 0.324503 0.845241
vt 0.307702 0.845241
vt 0.307657 0.833282
vt 0.324503 0.833282
vt 0.324503 0.857440
vt 0.307763 0.857440
vt 0.476378 0.611075
vt 0.479621 0.577375
vt 0.492165 0.578750
vt 0.486696 0.612023
vt 0.376243 0.861308
vt 0.376243 0.825342
vt 0.384664 0.825342
vt 0.384664 0.861308
vt 0.307657 0.845241
vt 0.289964 0.845241
vt 0.289964 0.833282
vt 0.307657 0.833282
vt 0.382837 0.698846
vt 0.382837 0.735506
vt 0.373524 0.735506
vt 0.373524 0.698846
vt 0.473111 0.577354
vt 0.476378 0.611051
vt 0.466053 0.612004
vt 0.460560 0.578736
vt 0.307657 0.857440
vt 0.289964 0.857440
vt 0.366931 0.861308
vt 0.366931 0.825342
vt 0.960873 0.553808
vt 0.964108 0.587186
vt 0.953783 0.588138
vt 0.948333 0.555127
vt 0.250300 0.601880
vt 0.253563 0.568186
vt 0.266107 0.569569
vt 0.260618 0.602834
vt 0.362894 0.953909
vt 0.326234 0.953909
vt 0.326234 0.934991
vt 0.365076 0.934991
vt 0.949190 0.044115
vt 0.968530 0.044112
vt 0.968575 0.205629
vt 0.949212 0.205632
vt 0.278474 0.571902
vt 0.270190 0.604336
vt 0.456475 0.613504
vt 0.448185 0.581067
vt 0.504535 0.581074
vt 0.496270 0.613519
vt 0.944205 0.589638
vt 0.935970 0.557416
vt 0.951644 0.000002
vt 0.968490 0.000000
vt 0.365104 0.735506
vt 0.365104 0.698846
vt 0.505442 0.630256
vt 0.530569 0.617825
vt 0.552332 0.774865
vt 0.524268 0.774537
vt 0.422071 0.617822
vt 0.447218 0.630239
vt 0.428471 0.774530
vt 0.400397 0.774871
vt 0.335715 0.559185
vt 0.353408 0.559183
vt 0.355597 0.603295
vt 0.335722 0.603298
vt 0.978133 0.385569
vt 0.942167 0.385569
vt 0.939705 0.366651
vt 0.978133 0.366651
vt 0.304571 0.608653
vt 0.279440 0.621066
vt 0.934949 0.606367
vt 0.909924 0.594010
vt 0.433785 0.786319
vt 0.406223 0.792962
vt 0.298177 0.765359
vt 0.326234 0.765705
vt 0.320411 0.783795
vt 0.292866 0.777147
vt 0.916200 0.750658
vt 0.888232 0.750998
vt 0.968593 0.225014
vt 0.949286 0.225017
vt 0.326234 0.793357
vt 0.365076 0.793357
vt 0.355620 0.764812
vt 0.335745 0.764814
vt 0.939705 0.225017
vt 0.978133 0.225017
vt 0.445691 0.794988
vt 0.428166 0.813583
vt 0.298481 0.804410
vt 0.280967 0.785811
vt 0.546557 0.792860
vt 0.516996 0.785303
vt 0.923486 0.761421
vt 0.894002 0.768968
vt 0.261092 0.833282
vt 0.280399 0.833282
vt 0.280408 0.864839
vt 0.259784 0.864839
vt 0.326234 0.784200
vt 0.365013 0.784200
vt 0.355560 0.784197
vt 0.335747 0.784200
vt 0.516316 0.842456
vt 0.554744 0.842456
vt 0.554673 0.852586
vt 0.516316 0.852586
vt 0.516316 0.864932
vt 0.555980 0.864932
vt 0.555980 0.902766
vt 0.516316 0.902766
vt 0.485860 0.874014
vt 0.506832 0.874014
vt 0.506832 0.912973
vt 0.485860 0.912973
vt 0.524525 0.813564
vt 0.507027 0.795006
vt 0.933421 0.771113
vt 0.915972 0.789629
vt 0.280411 0.903799
vt 0.259784 0.903799
vt 0.401556 0.842460
vt 0.440335 0.842460
vt 0.440335 0.856390
vt 0.400397 0.856390
vt 0.485860 0.842456
vt 0.505673 0.842456
vt 0.366931 0.776195
vt 0.366931 0.755223
vt 0.372971 0.745739
vt 0.396497 0.745739
vt 0.396498 0.785678
vt 0.372970 0.785678
vt 0.267774 0.833282
vt 0.250300 0.814726
vt 0.476378 0.823907
vt 0.458893 0.842460
vt 0.493837 0.842457
vt 0.476378 0.823939
vt 0.964108 0.800033
vt 0.946695 0.818510
vt 0.366931 0.815857
vt 0.366931 0.795231
vt 0.373068 0.785678
vt 0.396498 0.825342
vt 0.373005 0.825342
vt 0.440335 0.894224
vt 0.400396 0.894224
vt 0.714439 0.560233
vt 0.695662 0.544509
vt 0.557418 0.560233
vt 0.568696 0.544509
vt 0.865598 0.561945
vt 0.846645 0.544509
vt 0.000000 0.006364
vt 0.021411 0.000000
vt 0.138070 0.659024
vt 0.138070 0.559183
vt 0.157021 0.574269
vt 0.157021 0.658151
vt 0.400396 0.552278
vt 0.400396 0.007783
vt 0.557418 0.983125
vt 0.557418 0.007783
vt 0.557418 0.552278
vt 0.714439 0.983125
vt 0.314209 0.069307
vt 0.400396 0.119592
vt 0.727526 0.544525
vt 0.018951 0.869410
vt 0.018951 0.972819
vt 0.000000 0.955987
vt 0.000000 0.868537
vt 0.865611 0.656015
vt 0.138071 0.972819
vt 0.138071 0.869410
vt 0.157021 0.868537
vt 0.157021 0.955987
vt 0.138070 0.766001
vt 0.157021 0.765128
vt 0.103497 0.034833
vt 0.207069 0.069318
vt 0.018951 0.559183
vt 0.018951 0.659024
vt 0.000000 0.658151
vt 0.000000 0.574269
vt 0.018951 0.766001
vt 0.000000 0.765128
vt 0.865640 0.868725
vt 0.865652 0.962255
vt 0.865625 0.764898
vt 0.939705 0.000000
vt 0.939705 0.544509
vt 0.890577 0.462217
vt 0.900473 0.466937
vt 0.905130 0.462279
vt 0.900411 0.452383
vt 0.900411 0.168352
vt 0.905130 0.158456
vt 0.900473 0.153798
vt 0.890577 0.158518
vt 0.837473 0.584216
vt 0.946811 0.545834
vt 0.959983 0.544509
vt 0.254768 0.559183
vt 0.267932 0.560510
vt 0.459081 0.569700
vt 0.472252 0.568376
vt 0.480820 0.568376
vt 0.493984 0.569694
vt 0.507185 0.571951
vt 0.445873 0.571963
vt 0.281131 0.562774
vt 0.933604 0.548096
vt 0.326240 0.606279
vt 0.326234 0.568125
vt 0.939705 0.047095
vt 0.942161 0.008936
vt 0.362894 0.568118
vt 0.365082 0.606274
vt 0.978127 0.009146
vt 0.978133 0.047145
vt 0.365104 0.764293
vt 0.326262 0.764299
vt 0.978155 0.205103
vt 0.939728 0.205116
vt 0.365043 0.782029
vt 0.326264 0.782034
vt 0.978157 0.222721
vt 0.939801 0.222755
vt 0.515157 0.848656
vt 0.516316 0.876495
vt 0.476378 0.876494
vt 0.476378 0.848656
vt 0.289964 0.839486
vt 0.289964 0.867362
vt 0.250300 0.867336
vt 0.251607 0.839409
vt 0.250300 0.906317
vt 0.516316 0.915477
vt 0.476378 0.915476
vt 0.289964 0.906343
vt 0.396516 0.602034
vt 0.396516 0.568501
vt 0.396516 0.559183
vt 0.125150 0.659024
vt 0.125150 0.570064
vt 0.031872 0.869410
vt 0.031872 0.961938
vt 0.125150 0.961938
vt 0.125150 0.869410
vt 0.125150 0.766001
vt 0.031872 0.570064
vt 0.031872 0.659024
vt 0.031872 0.766001
vt 0.157021 0.559183
vt 0.250300 0.559183
vt 0.250300 0.648143
vt 0.250300 0.755120
vt 0.250300 0.858529
vt 0.250300 0.951057
vt 0.157022 0.951058
vt 0.157022 0.858529
vt 0.157022 0.755120
vt 0.157022 0.648143
vt 0.396498 0.652461
vt 0.396498 0.745739
vt 0.385266 0.745739
vt 0.385266 0.652461
vt 0.876903 0.847875
vt 0.876903 0.936968
vt 0.865652 0.936968
vt 0.865652 0.847875
vt 0.876968 0.637174
vt 0.876988 0.544509
vt 0.888232 0.544509
vt 0.888211 0.637174
vt 0.396516 0.559183
vt 0.396516 0.652461
vt 0.385266 0.652461
vt 0.385266 0.559183
vt 0.876903 0.740739
vt 0.865652 0.740739
vt 0.876945 0.740736
vt 0.888189 0.740736
vt 0.876903 0.936962
vt 0.876922 0.847871
vt 0.888166 0.847871
vt 0.888146 0.936962
vt 0.824371 0.240535
vt 0.898495 0.166430
vt 0.604630 0.460295
vt 0.678735 0.386171
vt 0.818401 0.386171
vt 0.892506 0.460295
vt 0.598642 0.166430
vt 0.672766 0.240535
vt 0.678735 0.234565
vt 0.604630 0.160441
vt 0.672766 0.380201
vt 0.818401 0.234565
vt 0.824371 0.380201
vt 0.365104 0.561097
vt 0.367619 0.559183
vt 0.367619 0.698846
vt 0.365104 0.696903
vt 0.382731 0.693129
vt 0.380216 0.694522
vt 0.380196 0.559183
vt 0.382712 0.561527
vt 0.382721 0.627328
vt 0.380196 0.696582
vt 0.377681 0.698618
vt 0.377681 0.559183
vt 0.380196 0.560997
vt 0.370135 0.698641
vt 0.370135 0.559183
vt 0.372650 0.561003
vt 0.372650 0.628806
vt 0.372650 0.696610
vt 0.598642 0.454306
vt 0.892506 0.160441
vt 0.898495 0.454306
vt 0.057098 0.181177
vt 0.131221 0.255252
vt 0.276854 0.400828
vt 0.350958 0.474922
vt 0.063087 0.474860
vt 0.137191 0.400798
vt 0.282824 0.255285
vt 0.356947 0.181242
vt 0.350958 0.175256
vt 0.276854 0.249318
vt 0.282824 0.394864
vt 0.131221 0.394831
vt 0.137191 0.249288
vt 0.370135 0.696903
vt 0.367619 0.698846
vt 0.367619 0.559183
vt 0.370135 0.561097
vt 0.382731 0.561528
vt 0.385246 0.559183
vt 0.385265 0.694522
vt 0.382750 0.693130
vt 0.382740 0.627329
vt 0.375165 0.560997
vt 0.375165 0.696582
vt 0.375165 0.559183
vt 0.375165 0.698641
vt 0.372650 0.696610
vt 0.372650 0.628806
vt 0.372650 0.561003
vt 0.356947 0.468938
vt 0.063087 0.175193
vt 0.057098 0.468873
s 1
usemtl Material.003
f 126/191/29 158/192/29 272/193/29 273/194/29
f 159/195/30 130/196/31 135/197/32 150/198/30
f 286/199/33 157/200/33 125/201/33 168/202/34 174/203/35 284/204/33 281/205/33 282/206/36 283/207/36 280/208/33 287/209/33 285/210/33 290/211/33 288/212/37 289/213/37 291/214/33
f 264/215/38 167/216/38 169/217/38 263/218/38
f 267/219/39 133/220/40 128/221/41 261/222/39
f 172/223/42 161/224/43 146/225/44 173/226/45
f 299/227/33 149/228/33 134/229/33 136/230/33 153/231/33 296/232/33 301/233/33 302/234/46 300/235/46 303/236/33 297/237/33 298/238/33 294/239/33 292/240/47 293/241/47 295/242/33
f 305/243/29 307/244/29 306/245/29 310/246/29
f 308/247/29 304/248/29 160/249/29 163/250/29 313/251/29
f 312/252/29 143/253/29 144/254/29 309/255/29 311/256/29
f 141/257/29 143/253/29 312/252/29 314/258/29 316/259/29
f 319/260/29 318/261/29 317/262/29 315/263/29
f 313/251/29 163/250/29 171/264/29 321/265/29 320/266/29
f 309/255/29 144/254/29 131/267/29 127/268/29 160/249/29 304/248/29 325/269/29 323/270/48 322/271/48 324/272/29 305/243/29 310/246/29 329/273/29 326/274/49 327/275/49 328/276/29
f 161/224/43 159/195/50 150/198/50 146/225/44
f 330/277/33 285/210/33 287/209/33 331/278/33
f 332/279/33 284/204/33 174/203/35 148/280/51 335/281/33
f 334/282/33 156/283/33 157/200/33 286/199/33 333/284/33
f 181/285/52 83/286/52 85/287/52 189/288/52
f 336/289/33 335/281/33 148/280/51 149/228/33 299/227/33
f 337/290/33 296/232/33 153/231/33 156/283/33 334/282/33
f 339/291/33 298/238/33 297/237/33 338/292/33
f 172/223/42 82/293/52 175/294/52 166/295/52
f 193/296/52 86/297/52 81/298/52 179/299/52
f 187/300/52 84/301/52 83/286/52 181/285/52
f 81/298/52 86/297/52 85/287/52 83/286/52 84/301/52 82/293/52 172/223/42 173/226/45
f 179/299/52 81/298/52 173/226/45 170/302/52 177/303/52
f 192/304/52 177/303/52 170/302/52 166/295/52 175/294/52 185/305/52 186/306/52 180/307/52 191/308/52
f 198/309/53 196/310/54 205/311/55 206/312/55
f 186/313/56 185/314/56 196/310/54 198/309/53
f 84/315/33 187/316/33 199/317/33 88/318/33
f 87/319/57 88/320/57 94/321/58 93/322/58
f 202/323/53 201/324/53 209/325/55 210/326/55
f 85/327/59 86/328/59 92/329/57 89/330/57
f 189/331/29 85/332/29 89/333/29 200/334/29
f 192/335/56 191/336/56 201/324/53 202/323/53
f 82/337/59 84/338/59 88/320/57 87/319/57
f 183/339/29 82/340/29 87/341/29 194/342/29
f 86/343/33 193/344/33 203/345/33 92/346/33
f 95/347/60 97/348/60 104/349/61 101/350/62
f 214/351/63 213/352/64 222/353/65 223/354/66
f 92/346/33 203/345/33 211/355/33 97/356/33
f 200/334/29 89/333/29 95/357/67 208/358/68
f 88/318/33 199/317/33 207/359/69 94/360/70
f 194/342/29 87/341/29 93/361/29 204/362/29
f 206/363/71 205/364/71 213/352/64 214/351/63
f 89/330/57 92/329/57 97/365/58 95/366/58
f 100/367/72 215/368/73 225/369/74 106/370/75
f 217/371/76 101/372/77 108/373/78 227/374/79
f 210/375/71 209/376/71 218/377/80 219/378/81
f 93/379/60 94/380/60 100/381/82 99/382/61
f 97/356/33 211/355/33 220/383/33 104/384/33
f 208/358/68 95/357/67 101/372/77 217/371/76
f 94/360/70 207/359/69 215/368/73 100/367/72
f 204/362/29 93/361/29 99/385/29 212/386/29
f 227/374/79 108/373/78 113/387/83 236/388/84
f 109/389/33 230/390/33 240/391/33 114/392/33
f 212/386/29 99/385/29 105/393/29 221/394/29
f 223/354/66 222/353/65 232/395/85 233/396/86
f 101/350/62 104/349/61 109/397/87 108/398/87
f 219/378/81 218/377/80 228/399/88 229/400/65
f 99/382/61 100/381/82 106/401/87 105/402/87
f 104/384/33 220/383/33 230/390/33 109/389/33
f 236/388/84 113/387/83 117/403/89 246/404/90
f 114/392/33 240/391/33 250/405/33 118/406/33
f 106/370/75 225/369/74 235/407/91 112/408/92
f 221/394/29 105/393/29 111/409/29 231/410/29
f 233/411/86 232/412/85 243/413/93 244/414/93
f 108/398/94 109/397/94 114/415/95 113/416/96
f 229/400/65 228/399/88 237/417/97 239/418/85
f 105/419/98 106/420/98 112/421/99 111/422/100
f 115/423/101 116/424/102 120/425/103 119/426/103
f 249/427/93 247/428/93 256/429/104 259/430/104
f 112/408/92 235/407/91 245/431/105 116/432/106
f 231/410/29 111/409/29 115/433/29 241/434/29
f 244/414/93 243/413/93 251/435/104 255/436/104
f 113/437/96 114/438/95 118/439/107 117/440/108
f 239/441/85 237/442/97 247/428/93 249/427/93
f 111/422/100 112/421/99 116/424/102 115/423/101
f 259/443/109 256/444/109 257/445/109 121/446/109 122/447/109 258/448/109
f 118/406/33 250/405/33 258/449/33 122/450/33
f 246/404/90 117/403/89 121/451/29 257/452/29
f 116/432/106 245/431/105 254/453/33 120/454/33
f 241/434/29 115/433/29 119/455/29 253/456/29
f 255/457/109 251/458/109 253/459/109 119/447/109 120/460/109 254/461/109
f 117/440/108 118/439/107 122/462/103 121/463/103
f 127/464/110 128/221/41 130/465/31
f 133/220/111 134/466/112 135/467/113
f 164/468/114 166/295/114 167/469/114
f 168/202/115 169/470/115 170/471/115
f 260/472/116 261/473/116 131/474/116 144/475/116
f 167/216/117 264/215/117 123/476/117 164/477/117
f 136/478/118 134/466/112 133/220/111 267/219/118
f 168/479/119 125/480/119 263/218/119 169/217/119
f 127/464/110 131/481/120 261/222/120 128/221/41
f 150/482/121 135/483/122 134/229/122 149/228/123
f 166/295/124 170/302/124 169/484/124 167/469/124
f 262/485/125 263/486/125 125/487/125 157/488/125
f 135/467/32 130/465/31 128/221/41 133/220/40
f 172/223/126 166/295/127 164/468/127 171/489/128
f 264/490/116 265/491/116 141/492/116 123/493/116
f 265/491/116 266/494/116 143/495/116 141/492/116
f 266/494/116 260/472/116 144/475/116 143/495/116
f 170/471/129 173/496/130 174/203/35 168/202/34
f 173/496/130 146/497/131 148/280/51 174/203/35
f 146/497/131 150/482/121 149/228/123 148/280/51
f 267/498/125 268/499/125 153/500/125 136/501/125
f 268/499/125 269/502/125 156/503/125 153/500/125
f 269/502/125 262/485/125 157/488/125 156/503/125
f 130/196/31 159/195/132 160/504/133 127/505/110
f 159/195/132 161/224/134 163/506/135 160/504/133
f 161/224/134 172/223/126 171/489/128 163/506/135
f 171/264/29 164/507/29 123/508/29 141/257/29 316/259/29 344/509/29 346/510/136 345/511/136 347/512/29 317/262/29 318/261/29 342/513/29 340/514/137 341/515/137 343/516/29 321/265/29
f 193/296/52 179/299/52 177/303/52 192/304/52
f 187/300/52 181/285/52 180/307/52 186/306/52
f 183/517/52 185/305/52 175/294/52
f 181/285/52 189/288/52 191/308/52 180/307/52
f 196/518/138 185/519/139 183/339/139 194/342/140
f 192/520/141 202/521/142 203/345/143 193/344/141
f 189/331/144 200/334/145 201/522/146 191/523/144
f 186/524/147 198/525/148 199/317/149 187/316/147
f 198/525/148 206/526/150 207/359/150 199/317/149
f 209/527/151 201/522/146 200/334/145 208/358/151
f 211/355/152 203/345/143 202/521/142 210/528/152
f 205/529/153 196/518/138 194/342/140 204/362/153
f 210/375/154 219/378/155 220/530/156 211/531/154
f 206/363/157 214/351/158 215/532/159 207/533/157
f 218/377/160 209/376/161 208/534/161 217/535/162
f 213/352/163 205/364/164 204/536/164 212/537/165
f 217/535/162 227/538/166 228/399/167 218/377/160
f 230/539/168 220/530/156 219/378/155 229/400/169
f 222/353/170 213/352/163 212/537/165 221/540/171
f 225/541/172 215/532/159 214/351/158 223/354/173
f 237/417/174 228/399/167 227/538/166 236/542/175
f 240/543/176 230/539/168 229/400/169 239/418/177
f 232/395/178 222/353/170 221/540/171 231/544/179
f 235/545/180 225/541/172 223/354/173 233/396/181
f 247/428/182 237/442/174 236/546/175 246/547/183
f 250/548/184 240/549/176 239/441/177 249/427/184
f 243/413/185 232/412/178 231/550/179 241/551/186
f 245/552/187 235/553/180 233/411/181 244/414/188
f 244/414/188 255/436/189 254/554/189 245/552/187
f 256/429/190 247/428/182 246/547/183 257/555/190
f 258/556/191 250/548/184 249/427/184 259/430/191
f 251/435/192 243/413/185 241/551/186 253/557/192
f 82/558/193 183/559/193 175/560/193
f 145/561/194 132/562/194 261/473/194 260/472/194
f 158/563/194 126/564/194 263/486/194 262/485/194
f 124/565/194 140/566/194 265/491/194 264/490/194
f 140/566/194 142/567/194 266/494/194 265/491/194
f 142/567/194 145/561/194 260/472/194 266/494/194
f 138/568/194 151/569/194 268/499/194 267/498/194
f 151/569/194 154/570/194 269/502/194 268/499/194
f 154/570/194 158/563/194 262/485/194 269/502/194
f 126/564/194 124/565/194 264/490/194 263/486/194
f 132/562/194 138/568/194 267/498/194 261/473/194
f 277/571/194 271/572/194 270/573/194 276/574/194 275/575/194 274/576/194 273/577/194 272/578/194 279/579/194 278/580/194
f 124/581/39 126/582/39 273/583/39 274/584/39
f 151/585/29 138/586/29 277/587/29 278/588/29
f 140/589/33 124/590/33 274/591/33 275/592/33
f 138/593/38 132/594/38 271/595/38 277/596/38
f 154/597/29 151/585/29 278/588/29 279/598/29
f 142/599/33 140/589/33 275/592/33 276/600/33
f 132/601/33 145/602/33 270/603/33 271/604/33
f 158/192/29 154/597/29 279/598/29 272/193/29
f 145/602/33 142/599/33 276/600/33 270/603/33
f 107/605/195 155/606/196 342/513/197 318/261/195 319/260/195
f 147/607/198 91/608/199 311/256/199 309/255/199 328/276/200
f 314/258/201 102/609/201 165/610/202 344/509/203 316/259/201
f 137/611/204 98/612/205 307/244/205 305/243/205 324/272/206
f 96/613/207 129/614/208 325/269/209 304/248/207 308/247/207
f 91/608/29 90/615/29 98/612/29 96/613/29 110/616/29 107/605/29 103/617/29 102/609/29
f 307/618/210 98/619/210 90/620/210 306/621/210
f 311/622/211 91/623/211 102/624/211 314/625/211 312/626/211
f 315/627/212 103/628/212 107/629/212 319/630/212
f 110/631/213 96/632/213 308/633/213 313/634/213 320/635/213
f 91/608/29 147/607/214 139/636/214 90/615/29
f 152/637/215 110/616/216 320/266/216 321/265/216 343/516/217
f 110/616/29 152/637/218 155/606/218 107/605/29
f 98/612/29 137/611/219 129/614/219 96/613/29
f 90/615/220 139/636/221 329/273/222 310/246/220 306/245/220
f 103/617/29 162/638/223 165/610/223 102/609/29
f 162/638/224 103/617/225 315/263/225 317/262/225 347/512/226
f 139/636/221 326/274/227 329/273/222
f 328/276/200 327/275/228 147/607/198
f 152/637/215 343/516/217 341/515/229
f 129/614/208 323/270/230 325/269/209
f 324/272/206 322/271/231 137/611/204
f 344/509/203 165/610/202 346/510/232
f 347/512/226 345/511/233 162/638/224
f 155/606/196 340/514/234 342/513/197
f 129/614/219 137/611/219 322/271/48 323/270/48
f 326/274/49 139/636/214 147/607/214 327/275/49
f 346/510/136 165/610/223 162/638/223 345/511/136
f 340/514/137 155/606/218 152/637/218 341/515/137
f 280/208/235 242/639/236 195/640/237 331/278/237 287/209/237
f 337/290/238 178/641/238 234/642/239 301/233/240 296/232/238
f 291/214/241 252/643/242 188/644/243 333/284/243 286/199/243
f 339/291/244 184/645/244 224/646/245 294/239/246 298/238/244
f 295/242/247 216/647/248 182/648/249 336/289/249 299/227/249
f 184/645/33 176/649/33 178/641/33 188/644/33 190/650/33 195/640/33 197/651/33 182/648/33
f 338/652/250 176/653/250 184/654/250 339/655/250
f 333/656/251 188/657/251 178/658/251 337/659/251 334/660/251
f 331/661/252 195/629/252 190/628/252 330/662/252
f 182/663/253 197/664/253 332/665/253 335/666/253 336/667/253
f 178/641/33 176/649/33 226/668/254 234/642/254
f 332/279/255 197/651/255 238/669/256 281/205/257 284/204/255
f 197/651/33 195/640/33 242/639/258 238/669/258
f 184/645/33 182/648/33 216/647/259 224/646/259
f 303/236/260 226/668/261 176/649/262 338/292/262 297/237/262
f 190/650/33 188/644/33 252/643/263 248/670/263
f 330/277/264 190/650/264 248/670/265 290/211/266 285/210/264
f 300/235/267 226/668/261 303/236/260
f 301/233/240 234/642/239 302/234/268
f 238/669/256 282/206/269 281/205/257
f 216/647/248 295/242/247 293/241/270
f 294/239/246 224/646/245 292/240/271
f 252/643/242 291/214/241 289/213/272
f 290/211/266 248/670/265 288/212/273
f 242/639/236 280/208/235 283/207/274
f 224/646/259 216/647/259 293/241/47 292/240/47
f 302/234/46 234/642/254 226/668/254 300/235/46
f 248/670/263 252/643/263 289/213/37 288/212/37
f 282/206/36 238/669/258 242/639/258 283/207/36
