<?xml version="1.0" encoding="UTF-8" standalone="no" ?>
<COLLADA xmlns="http://www.collada.org/2005/11/COLLADASchema" version="1.4.1">
    <asset>
        <contributor>
            <authoring_tool>SketchUp 15.0.1</authoring_tool>
        </contributor>
        <created>2020-01-30T22:09:44Z</created>
        <modified>2020-01-30T22:09:44Z</modified>
        <unit meter="0.0254" name="inch" />
        <up_axis>Z_UP</up_axis>
    </asset>
    <library_cameras>
        <camera id="ID1" name="skp_camera_Last_Saved_SketchUp_View">
            <optics>
                <technique_common>
                    <perspective>
                        <yfov>30</yfov>
                        <aspect_ratio>0.7</aspect_ratio>
                        <znear>1</znear>
                        <zfar>1000</zfar>
                    </perspective>
                </technique_common>
            </optics>
        </camera>
    </library_cameras>
    <library_visual_scenes>
        <visual_scene id="ID2">
            <node name="SketchUp">
                <node name="skp_camera_Last_Saved_SketchUp_View">
                    <matrix>0.9762705 0.01058322 0.2162959 38.45653 0.2165547 -0.0477112 -0.9751039 -146.5919 5.20417e-18 0.9988051 -0.04887089 46.323 0 0 0 1</matrix>
                    <instance_camera url="#ID1" />
                </node>
                <node id="ID3" name="instance_0">
                    <matrix>0.2 0 0 0 0 0.2 0 -1.531492 0 0 0.2 2.273737e-14 0 0 0 1</matrix>
                    <instance_node url="#ID4" />
                </node>
                <node id="ID29" name="instance_1">
                    <matrix>-0.2 3.663093e-13 0 1.546141e-12 -3.663093e-13 -0.2 0 1.531492 0 0 0.2 2.273737e-14 0 0 0 1</matrix>
                    <instance_node url="#ID4" />
                </node>
                <node id="ID30" name="instance_2">
                    <matrix>1.224606e-17 0.2 0 -1.531492 -0.2 1.224606e-17 0 2.842171e-15 0 0 0.2 2.273737e-14 0 0 0 1</matrix>
                    <instance_node url="#ID31" />
                </node>
                <node id="ID48" name="instance_3">
                    <matrix>-3.664502e-13 -0.2 2.40221e-17 1.531492 0.2 -3.664502e-13 -2.626995e-17 -4.371259e-12 2.626995e-17 2.40221e-17 0.2 2.273737e-14 0 0 0 1</matrix>
                    <instance_node url="#ID4" />
                </node>
                <node id="ID49" name="instance_4">
                    <matrix>0.4890738 0 -0.1039558 1.72955 0 0.5 0 -13.12537 0.1039558 0 0.4890738 49.03127 0 0 0 1</matrix>
                    <instance_node url="#ID50" />
                </node>
            </node>
        </visual_scene>
    </library_visual_scenes>
    <library_nodes>
        <node id="ID4" name="Flag_Quarter">
            <instance_geometry url="#ID5">
                <bind_material>
                    <technique_common>
                        <instance_material symbol="Material2" target="#ID6">
                            <bind_vertex_input semantic="UVSET0" input_semantic="TEXCOORD" input_set="0" />
                        </instance_material>
                        <instance_material symbol="Material3" target="#ID13">
                            <bind_vertex_input semantic="UVSET0" input_semantic="TEXCOORD" input_set="0" />
                        </instance_material>
                        <instance_material symbol="Material4" target="#ID14">
                            <bind_vertex_input semantic="UVSET0" input_semantic="TEXCOORD" input_set="0" />
                        </instance_material>
                    </technique_common>
                </bind_material>
            </instance_geometry>
            <instance_geometry url="#ID19">
                <bind_material>
                    <technique_common>
                        <instance_material symbol="Material2" target="#ID6">
                            <bind_vertex_input semantic="UVSET0" input_semantic="TEXCOORD" input_set="0" />
                        </instance_material>
                        <instance_material symbol="Material3" target="#ID14">
                            <bind_vertex_input semantic="UVSET0" input_semantic="TEXCOORD" input_set="0" />
                        </instance_material>
                        <instance_material symbol="Material4" target="#ID24">
                            <bind_vertex_input semantic="UVSET0" input_semantic="TEXCOORD" input_set="0" />
                        </instance_material>
                    </technique_common>
                </bind_material>
            </instance_geometry>
        </node>
        <node id="ID31" name="Flag_Quarter">
            <instance_geometry url="#ID32">
                <bind_material>
                    <technique_common>
                        <instance_material symbol="Material2" target="#ID6">
                            <bind_vertex_input semantic="UVSET0" input_semantic="TEXCOORD" input_set="0" />
                        </instance_material>
                        <instance_material symbol="Material3" target="#ID24">
                            <bind_vertex_input semantic="UVSET0" input_semantic="TEXCOORD" input_set="0" />
                        </instance_material>
                    </technique_common>
                </bind_material>
            </instance_geometry>
            <instance_geometry url="#ID40">
                <bind_material>
                    <technique_common>
                        <instance_material symbol="Material2" target="#ID6">
                            <bind_vertex_input semantic="UVSET0" input_semantic="TEXCOORD" input_set="0" />
                        </instance_material>
                        <instance_material symbol="Material3" target="#ID24">
                            <bind_vertex_input semantic="UVSET0" input_semantic="TEXCOORD" input_set="0" />
                        </instance_material>
                    </technique_common>
                </bind_material>
            </instance_geometry>
        </node>
        <node id="ID50" name="Liberian_Flag_waving_in_wind_for_ship_models">
            <instance_geometry url="#ID51">
                <bind_material>
                    <technique_common>
                        <instance_material symbol="Material2" target="#ID52">
                            <bind_vertex_input semantic="UVSET0" input_semantic="TEXCOORD" input_set="0" />
                        </instance_material>
                        <instance_material symbol="Material3" target="#ID62">
                            <bind_vertex_input semantic="UVSET0" input_semantic="TEXCOORD" input_set="0" />
                        </instance_material>
                    </technique_common>
                </bind_material>
            </instance_geometry>
        </node>
    </library_nodes>
    <library_geometries>
        <geometry id="ID5">
            <mesh>
                <source id="ID8">
                    <float_array id="ID16" count="324">1.794247 3.333191 543.6589 0.005252969 2.953336 545.1783 0.005252969 3.333191 543.6589 1.951588 2.953336 545.1783 1.951588 2.953336 545.1783 1.794247 3.333191 543.6589 0.005252969 2.953336 545.1783 0.005252969 3.333191 543.6589 1.951588 2.953336 545.1783 0.005252969 2.953336 545.1783 0.005252969 3.333191 543.6589 1.794247 3.333191 543.6589 1.794247 3.333191 546.6977 0.005252969 3.333191 546.6977 0.005252969 3.333191 546.6977 1.794247 3.333191 546.6977 1.794247 3.333191 546.6977 0.005252969 3.333191 546.6977 0.005252969 3.994266 542.1395 1.520421 3.994266 542.1395 0.005252969 3.994266 542.1395 1.520421 3.994266 542.1395 0.005252969 3.994266 542.1395 1.520421 3.994266 542.1395 4.704122 5.70587 545.1783 4.324267 5.863211 543.6589 4.704122 5.70587 545.1783 4.324267 5.863211 543.6589 4.704122 5.70587 545.1783 4.324267 5.863211 543.6589 1.520421 3.994266 548.2171 0.005252969 3.994266 548.2171 0.005252969 3.994266 548.2171 1.520421 3.994266 548.2171 0.005252969 3.994266 548.2171 1.520421 3.994266 548.2171 4.324267 5.863211 546.6977 4.324267 5.863211 546.6977 4.324267 5.863211 546.6977 0.8910566 5.513686 540.9999 0.005252969 5.513686 540.9999 0.8910566 5.513686 540.9999 0.005252969 5.513686 540.9999 0.005252969 5.513686 540.9999 0.8910566 5.513686 540.9999 3.663192 6.137037 542.1395 3.663192 6.137037 542.1395 3.663192 6.137037 542.1395 4.704122 7.652205 545.1783 4.324267 7.652205 543.6589 4.324267 7.652205 543.6589 4.704122 7.652205 545.1783 4.324267 7.652205 543.6589 4.704122 7.652205 545.1783 0.005252969 5.513686 549.3567 0.8910566 5.513686 549.3567 0.8910566 5.513686 549.3567 0.005252969 5.513686 549.3567 0.005252969 5.513686 549.3567 0.8910566 5.513686 549.3567 3.663192 6.137037 548.2171 3.663192 6.137037 548.2171 3.663192 6.137037 548.2171 4.324267 7.652205 546.6977 4.324267 7.652205 546.6977 4.324267 7.652205 546.6977 0.005252969 6.653251 540.62 0.4190334 6.653251 540.62 0.4190334 6.653251 540.62 0.005252969 6.653251 540.62 0.005252969 6.653251 540.62 0.4190334 6.653251 540.62 2.143772 6.766401 540.9999 2.143772 6.766401 540.9999 2.143772 6.766401 540.9999 3.663192 7.652205 542.1395 3.663192 7.652205 542.1395 3.663192 7.652205 542.1395 0.005252969 6.653251 549.7366 0.4190334 6.653251 549.7366 0.4190334 6.653251 549.7366 0.005252969 6.653251 549.7366 0.005252969 6.653251 549.7366 0.4190334 6.653251 549.7366 2.143772 6.766401 549.3567 2.143772 6.766401 549.3567 2.143772 6.766401 549.3567 3.663192 7.652205 548.2171 3.663192 7.652205 548.2171 3.663192 7.652205 548.2171 1.004207 7.238424 540.62 1.004207 7.238424 540.62 1.004207 7.238424 540.62 2.143772 7.652205 540.9999 2.143772 7.652205 540.9999 2.143772 7.652205 540.9999 1.004207 7.238424 549.7366 1.004207 7.238424 549.7366 1.004207 7.238424 549.7366 2.143772 7.652205 549.3567 2.143772 7.652205 549.3567 2.143772 7.652205 549.3567 1.004207 7.652205 540.62 1.004207 7.652205 540.62 1.004207 7.652205 540.62 1.004207 7.652205 549.7366 1.004207 7.652205 549.7366 1.004207 7.652205 549.7366</float_array>
                    <technique_common>
                        <accessor count="108" source="#ID16" stride="3">
                            <param name="X" type="float" />
                            <param name="Y" type="float" />
                            <param name="Z" type="float" />
                        </accessor>
                    </technique_common>
                </source>
                <source id="ID9">
                    <float_array id="ID17" count="324">0.3601329 -0.8694378 -0.3382044 -3.47542e-12 -1 -4.855735e-14 -3.269616e-12 -0.9467916 -0.3218472 0.3826834 -0.9238795 -1.034185e-13 -0.3826834 0.9238795 1.034185e-13 -0.3601329 0.8694378 0.3382044 3.47542e-12 1 4.855735e-14 3.269616e-12 0.9467916 0.3218472 0 0 0 0 0 0 0 0 0 0 0 0 0.3601329 -0.8694378 0.3382044 -3.464326e-12 -0.9467916 0.3218472 3.464326e-12 0.9467916 -0.3218472 -0.3601329 0.8694378 -0.3382044 0 0 0 0 0 0 -2.919551e-12 -0.7845427 -0.6200748 0.3013638 -0.7275566 -0.6163127 2.919551e-12 0.7845427 0.6200748 -0.3013638 0.7275566 0.6163127 0 0 0 0 0 0 0.9238795 -0.3826834 -1.79253e-13 0.8694378 -0.3601329 -0.3382044 -0.9238795 0.3826834 1.79253e-13 -0.8694378 0.3601329 0.3382044 0 0 0 0 0 0 0.3013638 -0.7275566 0.6163127 -3.007261e-12 -0.7845427 0.6200748 3.007261e-12 0.7845427 -0.6200748 -0.3013638 0.7275566 -0.6163127 0 0 0 0 0 0 0.8694378 -0.3601329 0.3382044 -0.8694378 0.3601329 -0.3382044 0 0 0 0.1786501 -0.4312995 -0.8843443 -2.120887e-12 -0.4641067 -0.8857793 -0.1786501 0.4312995 0.8843443 2.120887e-12 0.4641067 0.8857793 0 0 0 0 0 0 0.7275566 -0.3013638 -0.6163127 -0.7275566 0.3013638 0.6163127 0 0 0 1 -3.452254e-12 -1.892389e-13 0.9467916 -3.430595e-12 -0.3218472 -0.9467916 3.430595e-12 0.3218472 -1 3.452254e-12 1.892389e-13 0 0 0 0 0 0 -2.032545e-12 -0.4641067 0.8857793 0.1786501 -0.4312995 0.8843443 -0.1786501 0.4312995 -0.8843443 2.032545e-12 0.4641067 -0.8857793 0 0 0 0 0 0 0.7275566 -0.3013638 0.6163127 -0.7275566 0.3013638 -0.6163127 0 0 0 0.9467916 -3.297184e-12 0.3218472 -0.9467916 3.297184e-12 -0.3218472 0 0 0 -1.791247e-12 -0.3162278 -0.9486833 0.1126312 -0.2719157 -0.9557071 -0.1126312 0.2719157 0.9557071 1.791247e-12 0.3162278 0.9486833 0 0 0 0 0 0 0.4312995 -0.1786501 -0.8843443 -0.4312995 0.1786501 0.8843443 0 0 0 0.7845427 -3.019299e-12 -0.6200748 -0.7845427 3.019299e-12 0.6200748 0 0 0 -1.626991e-12 -0.3162278 0.9486833 0.1126312 -0.2719157 0.9557071 -0.1126312 0.2719157 -0.9557071 1.626991e-12 0.3162278 -0.9486833 0 0 0 0 0 0 0.4312995 -0.1786501 0.8843443 -0.4312995 0.1786501 -0.8843443 0 0 0 0.7845427 -2.72918e-12 0.6200748 -0.7845427 2.72918e-12 -0.6200748 0 0 0 0.2719157 -0.1126312 -0.9557071 -0.2719157 0.1126312 0.9557071 0 0 0 0.4641067 -1.512717e-12 -0.8857793 -0.4641067 1.512717e-12 0.8857793 0 0 0 0.2719157 -0.1126312 0.9557071 -0.2719157 0.1126312 -0.9557071 0 0 0 0.4641067 -1.603697e-12 0.8857793 -0.4641067 1.603697e-12 -0.8857793 0 0 0 0.3162278 -6.412383e-13 -0.9486833 -0.3162278 6.412383e-13 0.9486833 0 0 0 0.3162278 -1.107228e-12 0.9486833 -0.3162278 1.107228e-12 -0.9486833 0 0 0</float_array>
                    <technique_common>
                        <accessor count="108" source="#ID17" stride="3">
                            <param name="X" type="float" />
                            <param name="Y" type="float" />
                            <param name="Z" type="float" />
                        </accessor>
                    </technique_common>
                </source>
                <source id="ID10">
                    <Name_array id="ID18" count="0" />
                    <technique_common>
                        <accessor count="0" source="#ID18" stride="1">
                            <param name="skp_material" type="Name" />
                        </accessor>
                    </technique_common>
                </source>
                <vertices id="ID11">
                    <input semantic="POSITION" source="#ID8" />
                    <input semantic="NORMAL" source="#ID9" />
                </vertices>
                <triangles count="48" material="Material2">
                    <input offset="0" semantic="VERTEX" source="#ID11" />
                    <p>0 1 2 1 0 3 12 1 3 1 12 13 0 18 19 18 0 2 24 0 25 0 24 3 30 13 12 13 30 31 36 3 24 3 36 12 39 18 40 18 39 19 25 19 45 19 25 0 25 48 24 48 25 49 30 54 31 54 30 55 60 12 36 12 60 30 48 36 24 36 48 63 66 39 40 39 66 67 72 19 39 19 72 45 45 49 25 49 45 75 55 78 54 78 55 79 30 84 55 84 30 60 63 60 36 60 63 87 90 39 67 39 90 72 93 45 72 45 93 75 55 96 79 96 55 84 60 99 84 99 60 87 102 72 90 72 102 93 84 105 96 105 84 99</p>
                </triangles>
                <triangles count="48" material="Material3">
                    <input offset="0" semantic="VERTEX" source="#ID11" />
                    <p>4 5 6 7 6 5 14 15 6 4 6 15 7 5 20 21 20 5 4 26 5 27 5 26 32 33 14 15 14 33 15 37 4 26 4 37 21 41 20 42 20 41 5 27 21 46 21 27 50 27 51 26 51 27 56 33 57 32 57 33 33 61 15 37 15 61 64 51 37 26 37 51 68 69 41 42 41 69 46 73 21 41 21 73 76 46 50 27 50 46 80 56 81 57 81 56 61 33 85 56 85 33 88 64 61 37 61 64 73 91 41 68 41 91 76 94 46 73 46 94 85 56 97 80 97 56 88 61 100 85 100 61 94 103 73 91 73 103 100 85 106 97 106 85</p>
                </triangles>
                <lines count="59" material="Material4">
                    <input offset="0" semantic="VERTEX" source="#ID11" />
                    <p>8 9 10 9 10 11 11 8 16 17 17 9 16 8 10 22 23 22 23 11 8 28 11 29 29 28 34 35 17 34 35 16 38 28 38 16 22 43 44 43 44 23 47 23 47 29 29 52 53 52 53 28 58 59 58 34 59 35 35 62 62 38 65 53 65 38 43 70 71 70 71 44 74 44 74 47 77 47 77 52 82 83 82 58 83 59 59 86 62 86 65 89 62 89 92 71 74 92 95 74 95 77 83 98 98 86 89 101 86 101 104 92 95 104 101 107 98 107</p>
                </lines>
            </mesh>
        </geometry>
        <geometry id="ID19">
            <mesh>
                <source id="ID20">
                    <float_array id="ID26" count="258">0.6888302 5.994475 540 0 3.5 3.5 1.722075 3.5 3.5 0 5.994475 540 0 5.994475 540 0.6888302 5.994475 540 0 3.5 3.5 1.722075 3.5 3.5 0 5.994475 540 0.6888302 5.994475 540 0 3.5 3.5 1.722075 3.5 3.5 0.6888302 5.994475 540 6.536993e-12 7.034001 540 0 5.994475 540 0.4408503 7.216608 540 0.6234564 7.657458 540 1.662983 7.657458 540 1.662983 6.968628 540 1.662983 6.968628 540 0.6888302 5.994475 540 1.662983 7.657458 540 0.6234564 7.657458 540 0.4408503 7.216608 540 6.536993e-12 7.034001 540 0 5.994475 540 0.4408503 7.216608 540 6.536993e-12 7.034001 540 1.662983 6.968628 540 1.662983 7.657458 540 0.6234564 7.657458 540 3.171823 0 3.5 0 3.5 3.5 0 5.911716e-12 3.5 1.722075 3.5 3.5 4.157458 5.935382 3.5 7.657458 4.485635 3.5 4.157458 7.521294 3.5 4.157458 7.657458 3.5 7.657458 7.657458 3.5 7.657458 7.657458 3.5 7.657458 4.485635 3.5 4.157458 7.657458 3.5 4.157458 7.521294 3.5 4.157458 5.935382 3.5 3.171823 0 3.5 1.722075 3.5 3.5 0 3.5 3.5 0 5.911716e-12 3.5 0 5.911716e-12 3.5 3.171823 0 3.5 7.657458 4.485635 3.5 7.657458 7.657458 3.5 4.157458 7.657458 3.5 4.157458 7.521294 3.5 4.157458 5.935382 3.5 1.662983 6.968628 540 4.157458 5.935382 3.5 1.662983 6.968628 540 4.157458 5.935382 3.5 4.157458 7.521294 3.5 1.662983 7.657458 540 4.157458 7.657458 3.5 4.157458 7.657458 3.5 4.157458 7.521294 3.5 1.662983 7.657458 540 3.171823 0 3.5 0 5.911716e-12 0 3.171823 0 0 0 5.911716e-12 3.5 0 5.911716e-12 3.5 3.171823 0 3.5 0 5.911716e-12 0 3.171823 0 0 0 5.911716e-12 0 3.171823 0 0 7.657458 4.485635 3.5 7.657458 4.485635 0 7.657458 4.485635 3.5 7.657458 4.485635 0 7.657458 4.485635 0 7.657458 7.657458 0 7.657458 7.657458 3.5 7.657458 7.657458 3.5 7.657458 7.657458 0 7.657458 7.657458 0</float_array>
                    <technique_common>
                        <accessor count="86" source="#ID26" stride="3">
                            <param name="X" type="float" />
                            <param name="Y" type="float" />
                            <param name="Z" type="float" />
                        </accessor>
                    </technique_common>
                </source>
                <source id="ID21">
                    <float_array id="ID27" count="258">0.3826786 -0.9238678 0.005032555 -1.835298e-12 -0.9999892 0.004649483 0.3826786 -0.9238678 0.005032555 -1.835298e-12 -0.9999892 0.004649483 1.835298e-12 0.9999892 -0.004649483 -0.3826786 0.9238678 -0.005032555 1.835298e-12 0.9999892 -0.004649483 -0.3826786 0.9238678 -0.005032555 0 0 0 0 0 0 0 0 0 0 0 0 6.682634e-13 -6.682634e-13 1 6.682634e-13 -6.682634e-13 1 6.682634e-13 -6.682634e-13 1 6.682634e-13 -6.682634e-13 1 6.682634e-13 -6.682634e-13 1 6.682634e-13 -6.682634e-13 1 6.682634e-13 -6.682634e-13 1 -6.682634e-13 6.682634e-13 -1 -6.682634e-13 6.682634e-13 -1 -6.682634e-13 6.682634e-13 -1 -6.682634e-13 6.682634e-13 -1 -6.682634e-13 6.682634e-13 -1 -6.682634e-13 6.682634e-13 -1 -6.682634e-13 6.682634e-13 -1 0 0 0 0 0 0 0 0 0 0 0 0 0 0 0 6.005525e-17 -6.567487e-17 1 6.005525e-17 -6.567487e-17 1 6.005525e-17 -6.567487e-17 1 6.005525e-17 -6.567487e-17 1 6.005525e-17 -6.567487e-17 1 6.005525e-17 -6.567487e-17 1 6.005525e-17 -6.567487e-17 1 6.005525e-17 -6.567487e-17 1 6.005525e-17 -6.567487e-17 1 -6.005525e-17 6.567487e-17 -1 -6.005525e-17 6.567487e-17 -1 -6.005525e-17 6.567487e-17 -1 -6.005525e-17 6.567487e-17 -1 -6.005525e-17 6.567487e-17 -1 -6.005525e-17 6.567487e-17 -1 -6.005525e-17 6.567487e-17 -1 -6.005525e-17 6.567487e-17 -1 -6.005525e-17 6.567487e-17 -1 0 0 0 0 0 0 0 0 0 0 0 0 0 0 0 0 0 0 0 0 0 0.9238678 -0.3826786 0.005032555 0.9238678 -0.3826786 0.005032555 -0.9238678 0.3826786 -0.005032555 -0.9238678 0.3826786 -0.005032555 0.9999892 -1.784186e-12 0.004649483 0.9999892 -1.784186e-12 0.004649483 0.9999892 -1.784186e-12 0.004649483 -0.9999892 1.784186e-12 -0.004649483 -0.9999892 1.784186e-12 -0.004649483 -0.9999892 1.784186e-12 -0.004649483 0.3826834 -0.9238795 0 -1.836941e-12 -1 0 0.3826834 -0.9238795 0 -1.836941e-12 -1 0 1.836941e-12 1 -0 -0.3826834 0.9238795 -0 1.836941e-12 1 -0 -0.3826834 0.9238795 -0 0 0 0 0 0 0 0.9238795 -0.3826834 4.394777e-15 0.9238795 -0.3826834 4.394777e-15 -0.9238795 0.3826834 -4.394777e-15 -0.9238795 0.3826834 -4.394777e-15 0 0 0 1 -1.819019e-12 8.120488e-15 1 -1.819019e-12 8.120488e-15 -1 1.819019e-12 -8.120488e-15 -1 1.819019e-12 -8.120488e-15 0 0 0</float_array>
                    <technique_common>
                        <accessor count="86" source="#ID27" stride="3">
                            <param name="X" type="float" />
                            <param name="Y" type="float" />
                            <param name="Z" type="float" />
                        </accessor>
                    </technique_common>
                </source>
                <source id="ID22">
                    <Name_array id="ID28" count="0" />
                    <technique_common>
                        <accessor count="0" source="#ID28" stride="1">
                            <param name="skp_material" type="Name" />
                        </accessor>
                    </technique_common>
                </source>
                <vertices id="ID23">
                    <input semantic="POSITION" source="#ID20" />
                    <input semantic="NORMAL" source="#ID21" />
                </vertices>
                <triangles count="50" material="Material2">
                    <input offset="0" semantic="VERTEX" source="#ID23" />
                    <p>0 1 2 1 0 3 4 5 6 7 6 5 12 13 14 13 12 15 15 12 16 16 12 17 17 12 18 19 20 21 21 20 22 22 20 23 23 20 24 25 24 20 31 32 33 32 31 34 34 31 35 35 31 36 35 36 37 37 36 38 38 36 39 40 41 42 42 41 43 43 41 44 41 45 44 44 45 46 46 45 47 48 47 45 56 2 57 2 56 0 5 58 7 59 7 58 60 56 57 56 60 61 61 60 62 63 64 65 65 64 58 59 58 64 66 67 68 67 66 69 70 71 72 73 72 71 76 68 77 68 76 66 71 78 73 79 73 78 81 76 77 76 81 82 83 84 78 79 78 84</p>
                </triangles>
                <lines count="17" material="Material4">
                    <input offset="0" semantic="VERTEX" source="#ID23" />
                    <p>8 9 10 11 11 9 9 28 28 29 50 49 51 50 52 51 54 53 55 54 11 55 55 28 75 74 75 50 80 75 80 51 85 80</p>
                </lines>
                <lines count="10" material="Material3">
                    <input offset="0" semantic="VERTEX" source="#ID23" />
                    <p>10 8 26 27 8 27 29 30 30 26 49 10 52 53 53 29 74 49 85 52</p>
                </lines>
            </mesh>
        </geometry>
        <geometry id="ID32">
            <mesh>
                <source id="ID33">
                    <float_array id="ID37" count="324">1.794247 3.333191 543.6589 0.005252969 2.953336 545.1783 0.005252969 3.333191 543.6589 1.951588 2.953336 545.1783 1.951588 2.953336 545.1783 1.794247 3.333191 543.6589 0.005252969 2.953336 545.1783 0.005252969 3.333191 543.6589 1.951588 2.953336 545.1783 0.005252969 2.953336 545.1783 0.005252969 3.333191 543.6589 1.794247 3.333191 543.6589 1.794247 3.333191 546.6977 0.005252969 3.333191 546.6977 0.005252969 3.333191 546.6977 1.794247 3.333191 546.6977 1.794247 3.333191 546.6977 0.005252969 3.333191 546.6977 0.005252969 3.994266 542.1395 1.520421 3.994266 542.1395 0.005252969 3.994266 542.1395 1.520421 3.994266 542.1395 0.005252969 3.994266 542.1395 1.520421 3.994266 542.1395 4.704122 5.70587 545.1783 4.324267 5.863211 543.6589 4.704122 5.70587 545.1783 4.324267 5.863211 543.6589 4.704122 5.70587 545.1783 4.324267 5.863211 543.6589 1.520421 3.994266 548.2171 0.005252969 3.994266 548.2171 0.005252969 3.994266 548.2171 1.520421 3.994266 548.2171 0.005252969 3.994266 548.2171 1.520421 3.994266 548.2171 4.324267 5.863211 546.6977 4.324267 5.863211 546.6977 4.324267 5.863211 546.6977 0.8910566 5.513686 540.9999 0.005252969 5.513686 540.9999 0.8910566 5.513686 540.9999 0.005252969 5.513686 540.9999 0.005252969 5.513686 540.9999 0.8910566 5.513686 540.9999 3.663192 6.137037 542.1395 3.663192 6.137037 542.1395 3.663192 6.137037 542.1395 4.704122 7.652205 545.1783 4.324267 7.652205 543.6589 4.324267 7.652205 543.6589 4.704122 7.652205 545.1783 4.324267 7.652205 543.6589 4.704122 7.652205 545.1783 0.005252969 5.513686 549.3567 0.8910566 5.513686 549.3567 0.8910566 5.513686 549.3567 0.005252969 5.513686 549.3567 0.005252969 5.513686 549.3567 0.8910566 5.513686 549.3567 3.663192 6.137037 548.2171 3.663192 6.137037 548.2171 3.663192 6.137037 548.2171 4.324267 7.652205 546.6977 4.324267 7.652205 546.6977 4.324267 7.652205 546.6977 0.005252969 6.653251 540.62 0.4190334 6.653251 540.62 0.4190334 6.653251 540.62 0.005252969 6.653251 540.62 0.005252969 6.653251 540.62 0.4190334 6.653251 540.62 2.143772 6.766401 540.9999 2.143772 6.766401 540.9999 2.143772 6.766401 540.9999 3.663192 7.652205 542.1395 3.663192 7.652205 542.1395 3.663192 7.652205 542.1395 0.005252969 6.653251 549.7366 0.4190334 6.653251 549.7366 0.4190334 6.653251 549.7366 0.005252969 6.653251 549.7366 0.005252969 6.653251 549.7366 0.4190334 6.653251 549.7366 2.143772 6.766401 549.3567 2.143772 6.766401 549.3567 2.143772 6.766401 549.3567 3.663192 7.652205 548.2171 3.663192 7.652205 548.2171 3.663192 7.652205 548.2171 1.004207 7.238424 540.62 1.004207 7.238424 540.62 1.004207 7.238424 540.62 2.143772 7.652205 540.9999 2.143772 7.652205 540.9999 2.143772 7.652205 540.9999 1.004207 7.238424 549.7366 1.004207 7.238424 549.7366 1.004207 7.238424 549.7366 2.143772 7.652205 549.3567 2.143772 7.652205 549.3567 2.143772 7.652205 549.3567 1.004207 7.652205 540.62 1.004207 7.652205 540.62 1.004207 7.652205 540.62 1.004207 7.652205 549.7366 1.004207 7.652205 549.7366 1.004207 7.652205 549.7366</float_array>
                    <technique_common>
                        <accessor count="108" source="#ID37" stride="3">
                            <param name="X" type="float" />
                            <param name="Y" type="float" />
                            <param name="Z" type="float" />
                        </accessor>
                    </technique_common>
                </source>
                <source id="ID34">
                    <float_array id="ID38" count="324">0.3601329 -0.8694378 -0.3382044 -3.47542e-12 -1 -4.855735e-14 -3.269616e-12 -0.9467916 -0.3218472 0.3826834 -0.9238795 -1.034185e-13 -0.3826834 0.9238795 1.034185e-13 -0.3601329 0.8694378 0.3382044 3.47542e-12 1 4.855735e-14 3.269616e-12 0.9467916 0.3218472 0 0 0 0 0 0 0 0 0 0 0 0 0.3601329 -0.8694378 0.3382044 -3.464326e-12 -0.9467916 0.3218472 3.464326e-12 0.9467916 -0.3218472 -0.3601329 0.8694378 -0.3382044 0 0 0 0 0 0 -2.919551e-12 -0.7845427 -0.6200748 0.3013638 -0.7275566 -0.6163127 2.919551e-12 0.7845427 0.6200748 -0.3013638 0.7275566 0.6163127 0 0 0 0 0 0 0.9238795 -0.3826834 -1.79253e-13 0.8694378 -0.3601329 -0.3382044 -0.9238795 0.3826834 1.79253e-13 -0.8694378 0.3601329 0.3382044 0 0 0 0 0 0 0.3013638 -0.7275566 0.6163127 -3.007261e-12 -0.7845427 0.6200748 3.007261e-12 0.7845427 -0.6200748 -0.3013638 0.7275566 -0.6163127 0 0 0 0 0 0 0.8694378 -0.3601329 0.3382044 -0.8694378 0.3601329 -0.3382044 0 0 0 0.1786501 -0.4312995 -0.8843443 -2.120887e-12 -0.4641067 -0.8857793 -0.1786501 0.4312995 0.8843443 2.120887e-12 0.4641067 0.8857793 0 0 0 0 0 0 0.7275566 -0.3013638 -0.6163127 -0.7275566 0.3013638 0.6163127 0 0 0 1 -3.452254e-12 -1.892389e-13 0.9467916 -3.430595e-12 -0.3218472 -0.9467916 3.430595e-12 0.3218472 -1 3.452254e-12 1.892389e-13 0 0 0 0 0 0 -2.032545e-12 -0.4641067 0.8857793 0.1786501 -0.4312995 0.8843443 -0.1786501 0.4312995 -0.8843443 2.032545e-12 0.4641067 -0.8857793 0 0 0 0 0 0 0.7275566 -0.3013638 0.6163127 -0.7275566 0.3013638 -0.6163127 0 0 0 0.9467916 -3.297184e-12 0.3218472 -0.9467916 3.297184e-12 -0.3218472 0 0 0 -1.791247e-12 -0.3162278 -0.9486833 0.1126312 -0.2719157 -0.9557071 -0.1126312 0.2719157 0.9557071 1.791247e-12 0.3162278 0.9486833 0 0 0 0 0 0 0.4312995 -0.1786501 -0.8843443 -0.4312995 0.1786501 0.8843443 0 0 0 0.7845427 -3.019299e-12 -0.6200748 -0.7845427 3.019299e-12 0.6200748 0 0 0 -1.626991e-12 -0.3162278 0.9486833 0.1126312 -0.2719157 0.9557071 -0.1126312 0.2719157 -0.9557071 1.626991e-12 0.3162278 -0.9486833 0 0 0 0 0 0 0.4312995 -0.1786501 0.8843443 -0.4312995 0.1786501 -0.8843443 0 0 0 0.7845427 -2.72918e-12 0.6200748 -0.7845427 2.72918e-12 -0.6200748 0 0 0 0.2719157 -0.1126312 -0.9557071 -0.2719157 0.1126312 0.9557071 0 0 0 0.4641067 -1.512717e-12 -0.8857793 -0.4641067 1.512717e-12 0.8857793 0 0 0 0.2719157 -0.1126312 0.9557071 -0.2719157 0.1126312 -0.9557071 0 0 0 0.4641067 -1.603697e-12 0.8857793 -0.4641067 1.603697e-12 -0.8857793 0 0 0 0.3162278 -6.412383e-13 -0.9486833 -0.3162278 6.412383e-13 0.9486833 0 0 0 0.3162278 -1.107228e-12 0.9486833 -0.3162278 1.107228e-12 -0.9486833 0 0 0</float_array>
                    <technique_common>
                        <accessor count="108" source="#ID38" stride="3">
                            <param name="X" type="float" />
                            <param name="Y" type="float" />
                            <param name="Z" type="float" />
                        </accessor>
                    </technique_common>
                </source>
                <source id="ID35">
                    <Name_array id="ID39" count="0" />
                    <technique_common>
                        <accessor count="0" source="#ID39" stride="1">
                            <param name="skp_material" type="Name" />
                        </accessor>
                    </technique_common>
                </source>
                <vertices id="ID36">
                    <input semantic="POSITION" source="#ID33" />
                    <input semantic="NORMAL" source="#ID34" />
                </vertices>
                <triangles count="96" material="Material2">
                    <input offset="0" semantic="VERTEX" source="#ID36" />
                    <p>0 1 2 1 0 3 4 5 6 7 6 5 12 1 3 1 12 13 14 15 6 4 6 15 0 18 19 18 0 2 7 5 20 21 20 5 24 0 25 0 24 3 4 26 5 27 5 26 30 13 12 13 30 31 32 33 14 15 14 33 36 3 24 3 36 12 15 37 4 26 4 37 39 18 40 18 39 19 21 41 20 42 20 41 25 19 45 19 25 0 5 27 21 46 21 27 25 48 24 48 25 49 50 27 51 26 51 27 30 54 31 54 30 55 56 33 57 32 57 33 60 12 36 12 60 30 33 61 15 37 15 61 48 36 24 36 48 63 64 51 37 26 37 51 66 39 40 39 66 67 68 69 41 42 41 69 72 19 39 19 72 45 46 73 21 41 21 73 45 49 25 49 45 75 76 46 50 27 50 46 55 78 54 78 55 79 80 56 81 57 81 56 30 84 55 84 30 60 61 33 85 56 85 33 63 60 36 60 63 87 88 64 61 37 61 64 90 39 67 39 90 72 73 91 41 68 41 91 93 45 72 45 93 75 76 94 46 73 46 94 55 96 79 96 55 84 85 56 97 80 97 56 60 99 84 99 60 87 88 61 100 85 100 61 102 72 90 72 102 93 94 103 73 91 73 103 84 105 96 105 84 99 100 85 106 97 106 85</p>
                </triangles>
                <lines count="59" material="Material3">
                    <input offset="0" semantic="VERTEX" source="#ID36" />
                    <p>8 9 10 9 10 11 11 8 16 17 17 9 16 8 10 22 23 22 23 11 8 28 11 29 29 28 34 35 17 34 35 16 38 28 38 16 22 43 44 43 44 23 47 23 47 29 29 52 53 52 53 28 58 59 58 34 59 35 35 62 62 38 65 53 65 38 43 70 71 70 71 44 74 44 74 47 77 47 77 52 82 83 82 58 83 59 59 86 62 86 65 89 62 89 92 71 74 92 95 74 95 77 83 98 98 86 89 101 86 101 104 92 95 104 101 107 98 107</p>
                </lines>
            </mesh>
        </geometry>
        <geometry id="ID40">
            <mesh>
                <source id="ID41">
                    <float_array id="ID45" count="258">0.6888302 5.994475 540 0 3.5 3.5 1.722075 3.5 3.5 0 5.994475 540 0 5.994475 540 0.6888302 5.994475 540 0 3.5 3.5 1.722075 3.5 3.5 0 5.994475 540 0.6888302 5.994475 540 0 3.5 3.5 1.722075 3.5 3.5 0.6888302 5.994475 540 6.536993e-12 7.034001 540 0 5.994475 540 0.4408503 7.216608 540 0.6234564 7.657458 540 1.662983 7.657458 540 1.662983 6.968628 540 1.662983 6.968628 540 0.6888302 5.994475 540 1.662983 7.657458 540 0.6234564 7.657458 540 0.4408503 7.216608 540 6.536993e-12 7.034001 540 0 5.994475 540 0.4408503 7.216608 540 6.536993e-12 7.034001 540 1.662983 6.968628 540 1.662983 7.657458 540 0.6234564 7.657458 540 3.171823 0 3.5 0 3.5 3.5 0 5.911716e-12 3.5 1.722075 3.5 3.5 4.157458 5.935382 3.5 7.657458 4.485635 3.5 4.157458 7.521294 3.5 4.157458 7.657458 3.5 7.657458 7.657458 3.5 7.657458 7.657458 3.5 7.657458 4.485635 3.5 4.157458 7.657458 3.5 4.157458 7.521294 3.5 4.157458 5.935382 3.5 3.171823 0 3.5 1.722075 3.5 3.5 0 3.5 3.5 0 5.911716e-12 3.5 0 5.911716e-12 3.5 3.171823 0 3.5 7.657458 4.485635 3.5 7.657458 7.657458 3.5 4.157458 7.657458 3.5 4.157458 7.521294 3.5 4.157458 5.935382 3.5 1.662983 6.968628 540 4.157458 5.935382 3.5 1.662983 6.968628 540 4.157458 5.935382 3.5 4.157458 7.521294 3.5 1.662983 7.657458 540 4.157458 7.657458 3.5 4.157458 7.657458 3.5 4.157458 7.521294 3.5 1.662983 7.657458 540 3.171823 0 3.5 0 5.911716e-12 0 3.171823 0 0 0 5.911716e-12 3.5 0 5.911716e-12 3.5 3.171823 0 3.5 0 5.911716e-12 0 3.171823 0 0 0 5.911716e-12 0 3.171823 0 0 7.657458 4.485635 3.5 7.657458 4.485635 0 7.657458 4.485635 3.5 7.657458 4.485635 0 7.657458 4.485635 0 7.657458 7.657458 0 7.657458 7.657458 3.5 7.657458 7.657458 3.5 7.657458 7.657458 0 7.657458 7.657458 0</float_array>
                    <technique_common>
                        <accessor count="86" source="#ID45" stride="3">
                            <param name="X" type="float" />
                            <param name="Y" type="float" />
                            <param name="Z" type="float" />
                        </accessor>
                    </technique_common>
                </source>
                <source id="ID42">
                    <float_array id="ID46" count="258">0.3826786 -0.9238678 0.005032555 -1.835298e-12 -0.9999892 0.004649483 0.3826786 -0.9238678 0.005032555 -1.835298e-12 -0.9999892 0.004649483 1.835298e-12 0.9999892 -0.004649483 -0.3826786 0.9238678 -0.005032555 1.835298e-12 0.9999892 -0.004649483 -0.3826786 0.9238678 -0.005032555 0 0 0 0 0 0 0 0 0 0 0 0 6.682634e-13 -6.682634e-13 1 6.682634e-13 -6.682634e-13 1 6.682634e-13 -6.682634e-13 1 6.682634e-13 -6.682634e-13 1 6.682634e-13 -6.682634e-13 1 6.682634e-13 -6.682634e-13 1 6.682634e-13 -6.682634e-13 1 -6.682634e-13 6.682634e-13 -1 -6.682634e-13 6.682634e-13 -1 -6.682634e-13 6.682634e-13 -1 -6.682634e-13 6.682634e-13 -1 -6.682634e-13 6.682634e-13 -1 -6.682634e-13 6.682634e-13 -1 -6.682634e-13 6.682634e-13 -1 0 0 0 0 0 0 0 0 0 0 0 0 0 0 0 6.005525e-17 -6.567487e-17 1 6.005525e-17 -6.567487e-17 1 6.005525e-17 -6.567487e-17 1 6.005525e-17 -6.567487e-17 1 6.005525e-17 -6.567487e-17 1 6.005525e-17 -6.567487e-17 1 6.005525e-17 -6.567487e-17 1 6.005525e-17 -6.567487e-17 1 6.005525e-17 -6.567487e-17 1 -6.005525e-17 6.567487e-17 -1 -6.005525e-17 6.567487e-17 -1 -6.005525e-17 6.567487e-17 -1 -6.005525e-17 6.567487e-17 -1 -6.005525e-17 6.567487e-17 -1 -6.005525e-17 6.567487e-17 -1 -6.005525e-17 6.567487e-17 -1 -6.005525e-17 6.567487e-17 -1 -6.005525e-17 6.567487e-17 -1 0 0 0 0 0 0 0 0 0 0 0 0 0 0 0 0 0 0 0 0 0 0.9238678 -0.3826786 0.005032555 0.9238678 -0.3826786 0.005032555 -0.9238678 0.3826786 -0.005032555 -0.9238678 0.3826786 -0.005032555 0.9999892 -1.784186e-12 0.004649483 0.9999892 -1.784186e-12 0.004649483 0.9999892 -1.784186e-12 0.004649483 -0.9999892 1.784186e-12 -0.004649483 -0.9999892 1.784186e-12 -0.004649483 -0.9999892 1.784186e-12 -0.004649483 0.3826834 -0.9238795 0 -1.836941e-12 -1 0 0.3826834 -0.9238795 0 -1.836941e-12 -1 0 1.836941e-12 1 -0 -0.3826834 0.9238795 -0 1.836941e-12 1 -0 -0.3826834 0.9238795 -0 0 0 0 0 0 0 0.9238795 -0.3826834 4.394777e-15 0.9238795 -0.3826834 4.394777e-15 -0.9238795 0.3826834 -4.394777e-15 -0.9238795 0.3826834 -4.394777e-15 0 0 0 1 -1.819019e-12 8.120488e-15 1 -1.819019e-12 8.120488e-15 -1 1.819019e-12 -8.120488e-15 -1 1.819019e-12 -8.120488e-15 0 0 0</float_array>
                    <technique_common>
                        <accessor count="86" source="#ID46" stride="3">
                            <param name="X" type="float" />
                            <param name="Y" type="float" />
                            <param name="Z" type="float" />
                        </accessor>
                    </technique_common>
                </source>
                <source id="ID43">
                    <Name_array id="ID47" count="0" />
                    <technique_common>
                        <accessor count="0" source="#ID47" stride="1">
                            <param name="skp_material" type="Name" />
                        </accessor>
                    </technique_common>
                </source>
                <vertices id="ID44">
                    <input semantic="POSITION" source="#ID41" />
                    <input semantic="NORMAL" source="#ID42" />
                </vertices>
                <triangles count="50" material="Material2">
                    <input offset="0" semantic="VERTEX" source="#ID44" />
                    <p>0 1 2 1 0 3 4 5 6 7 6 5 12 13 14 13 12 15 15 12 16 16 12 17 17 12 18 19 20 21 21 20 22 22 20 23 23 20 24 25 24 20 31 32 33 32 31 34 34 31 35 35 31 36 35 36 37 37 36 38 38 36 39 40 41 42 42 41 43 43 41 44 41 45 44 44 45 46 46 45 47 48 47 45 56 2 57 2 56 0 5 58 7 59 7 58 60 56 57 56 60 61 61 60 62 63 64 65 65 64 58 59 58 64 66 67 68 67 66 69 70 71 72 73 72 71 76 68 77 68 76 66 71 78 73 79 73 78 81 76 77 76 81 82 83 84 78 79 78 84</p>
                </triangles>
                <lines count="27" material="Material3">
                    <input offset="0" semantic="VERTEX" source="#ID44" />
                    <p>8 9 10 8 10 11 11 9 26 27 8 27 9 28 28 29 29 30 30 26 49 10 50 49 51 50 52 51 52 53 54 53 55 54 11 55 55 28 53 29 74 49 75 74 75 50 80 75 80 51 85 80 85 52</p>
                </lines>
            </mesh>
        </geometry>
        <geometry id="ID51">
            <mesh>
                <source id="ID57">
                    <float_array id="ID64" count="909">34.02062 58.58214 26.92753 41.1662 58.78571 54.90053 34.96603 58.78571 25.73107 40.01832 58.58214 55.14452 43.15153 58.78571 64.24082 42.20612 58.58214 65.43728 42.20612 58.58214 65.43728 40.01832 58.58214 55.14452 43.15153 58.78571 64.24082 41.1662 58.78571 54.90053 34.02062 58.58214 26.92753 34.96603 58.78571 25.73107 41.1662 58.78571 54.90053 34.96603 58.78571 25.73107 34.02062 58.58214 26.92753 40.01832 58.58214 55.14452 42.20612 58.58214 65.43728 43.15153 58.78571 64.24082 33.15377 58.24467 28.15287 38.93975 58.24467 55.37377 41.33927 58.24467 66.66262 41.33927 58.24467 66.66262 38.93975 58.24467 55.37377 33.15377 58.24467 28.15287 33.15377 58.24467 28.15287 38.93975 58.24467 55.37377 41.33927 58.24467 66.66262 32.37461 57.77686 29.39418 37.94183 57.77686 55.58589 40.56011 57.77686 67.90393 40.56011 57.77686 67.90393 37.94183 57.77686 55.58589 32.37461 57.77686 29.39418 32.37461 57.77686 29.39418 37.94183 57.77686 55.58589 40.56011 57.77686 67.90393 31.69136 57.18364 30.63838 37.03508 57.18364 55.77862 39.87686 57.18364 69.14813 39.87686 57.18364 69.14813 37.03508 57.18364 55.77862 31.69136 57.18364 30.63838 31.69136 57.18364 30.63838 37.03508 57.18364 55.77862 39.87686 57.18364 69.14813 31.11121 56.47127 31.87237 36.22906 56.47127 55.94995 39.29671 56.47127 70.38212 39.29671 56.47127 70.38212 36.22906 56.47127 55.94995 31.11121 56.47127 31.87237 31.11121 56.47127 31.87237 36.22906 56.47127 55.94995 39.29671 56.47127 70.38212 35.53225 55.64724 56.09806 38.82578 55.64724 71.59289 30.64028 55.64724 33.08314 30.64028 55.64724 33.08314 35.53225 55.64724 56.09806 38.82578 55.64724 71.59289 30.64028 55.64724 33.08314 35.53225 55.64724 56.09806 38.82578 55.64724 71.59289 34.952 54.72023 56.2214 38.46902 54.72023 72.76769 30.28352 54.72023 34.25794 30.28352 54.72023 34.25794 34.952 54.72023 56.2214 38.46902 54.72023 72.76769 30.28352 54.72023 34.25794 34.952 54.72023 56.2214 38.46902 54.72023 72.76769 34.49442 53.70002 56.31866 38.2302 53.70002 73.89415 30.0447 53.70002 35.3844 30.0447 53.70002 35.3844 34.49442 53.70002 56.31866 38.2302 53.70002 73.89415 30.0447 53.70002 35.3844 34.49442 53.70002 56.31866 38.2302 53.70002 73.89415 34.16432 52.59735 56.38882 38.11183 52.59735 74.9604 29.92633 52.59735 36.45065 29.92633 52.59735 36.45065 34.16432 52.59735 56.38882 38.11183 52.59735 74.9604 29.92633 52.59735 36.45065 34.16432 52.59735 56.38882 38.11183 52.59735 74.9604 33.96519 51.42383 56.43115 38.11515 51.42383 75.9552 29.92965 51.42383 37.44545 29.92965 51.42383 37.44545 33.96519 51.42383 56.43115 38.11515 51.42383 75.9552 29.92965 51.42383 37.44545 33.96519 51.42383 56.43115 38.11515 51.42383 75.9552 33.89912 50.19184 56.44519 38.24014 50.19184 76.86807 30.05464 50.19184 38.35832 30.05464 50.19184 38.35832 33.89912 50.19184 56.44519 38.24014 50.19184 76.86807 30.05464 50.19184 38.35832 33.89912 50.19184 56.44519 38.24014 50.19184 76.86807 38.24014 50.19184 76.86807 33.61417 48.72572 56.50576 38.21355 48.72572 78.14418 30.02805 48.72572 39.63444 30.05464 50.19184 38.35832 33.89912 50.19184 56.44519 33.89912 50.19184 56.44519 38.24014 50.19184 76.86807 30.05464 50.19184 38.35832 30.02805 48.72572 39.63444 33.61417 48.72572 56.50576 38.21355 48.72572 78.14418 30.02805 48.72572 39.63444 33.61417 48.72572 56.50576 38.21355 48.72572 78.14418 33.20006 47.33067 56.59378 38.06678 47.33067 79.48991 29.88128 47.33067 40.98016 29.88128 47.33067 40.98016 33.20006 47.33067 56.59378 38.06678 47.33067 79.48991 29.88128 47.33067 40.98016 33.20006 47.33067 56.59378 38.06678 47.33067 79.48991 32.65948 46.01569 56.70869 37.80077 46.01569 80.89658 29.61528 46.01569 42.38683 29.61528 46.01569 42.38683 32.65948 46.01569 56.70869 37.80077 46.01569 80.89658 29.61528 46.01569 42.38683 32.65948 46.01569 56.70869 37.80077 46.01569 80.89658 31.9959 44.78923 56.84973 37.41724 44.78923 82.35514 29.23174 44.78923 43.84539 29.23174 44.78923 43.84539 31.9959 44.78923 56.84973 37.41724 44.78923 82.35514 29.23174 44.78923 43.84539 31.9959 44.78923 56.84973 37.41724 44.78923 82.35514 31.2136 43.6592 57.01602 36.91865 43.6592 83.85618 28.73315 43.6592 45.34643 28.73315 43.6592 45.34643 31.2136 43.6592 57.01602 36.91865 43.6592 83.85618 28.73315 43.6592 45.34643 31.2136 43.6592 57.01602 36.91865 43.6592 83.85618 30.31762 42.63288 57.20646 36.30822 42.63288 85.39004 28.12272 42.63288 46.88029 28.12272 42.63288 46.88029 30.31762 42.63288 57.20646 36.30822 42.63288 85.39004 28.12272 42.63288 46.88029 30.31762 42.63288 57.20646 36.30822 42.63288 85.39004 27.40438 41.71689 48.43708 29.31373 41.71689 57.41985 35.58988 41.71689 86.94683 35.58988 41.71689 86.94683 29.31373 41.71689 57.41985 27.40438 41.71689 48.43708 27.40438 41.71689 48.43708 29.31373 41.71689 57.41985 35.58988 41.71689 86.94683 26.58276 40.91711 50.00679 28.2084 40.91711 57.65479 34.76826 40.91711 88.51654 34.76826 40.91711 88.51654 28.2084 40.91711 57.65479 26.58276 40.91711 50.00679 26.58276 40.91711 50.00679 28.2084 40.91711 57.65479 34.76826 40.91711 88.51654 25.66315 40.23871 51.57929 27.00874 40.23871 57.90979 33.84865 40.23871 90.08904 33.84865 40.23871 90.08904 27.00874 40.23871 57.90979 25.66315 40.23871 51.57929 25.66315 40.23871 51.57929 27.00874 40.23871 57.90979 33.84865 40.23871 90.08904 24.65147 39.68605 53.14446 25.72249 39.68605 58.18319 32.83697 39.68605 91.6542 32.83697 39.68605 91.6542 25.72249 39.68605 58.18319 24.65147 39.68605 53.14446 24.65147 39.68605 53.14446 25.72249 39.68605 58.18319 32.83697 39.68605 91.6542 23.55424 39.26269 54.69221 24.35793 39.26269 58.47324 31.73974 39.26269 93.20196 31.73974 39.26269 93.20196 24.35793 39.26269 58.47324 23.55424 39.26269 54.69221 23.55424 39.26269 54.69221 24.35793 39.26269 58.47324 31.73974 39.26269 93.20196 22.37854 38.97137 56.21258 22.92385 38.97137 58.77806 30.56404 38.97137 94.72232 30.56404 38.97137 94.72232 22.92385 38.97137 58.77806 22.37854 38.97137 56.21258 22.37854 38.97137 56.21258 22.92385 38.97137 58.77806 30.56404 38.97137 94.72232 20.93149 38.68729 58.02046 22.92385 38.97137 58.77806 22.37854 38.97137 56.21258 21.17168 38.68729 59.15049 30.56404 38.97137 94.72232 29.11699 38.68729 96.53021 29.11699 38.68729 96.53021 21.17168 38.68729 59.15049 30.56404 38.97137 94.72232 22.92385 38.97137 58.77806 20.93149 38.68729 58.02046 22.37854 38.97137 56.21258 20.93149 38.68729 58.02046 21.17168 38.68729 59.15049 29.11699 38.68729 96.53021 19.58207 38.23193 59.86839 27.76757 38.23193 98.37814 27.76757 38.23193 98.37814 19.58207 38.23193 59.86839 19.58207 38.23193 59.86839 27.76757 38.23193 98.37814 18.34033 37.60868 61.74262 26.52583 37.60868 100.2524 26.52583 37.60868 100.2524 18.34033 37.60868 61.74262 18.34033 37.60868 61.74262 26.52583 37.60868 100.2524 17.2155 36.82218 63.62921 25.401 36.82218 102.139 25.401 36.82218 102.139 17.2155 36.82218 63.62921 17.2155 36.82218 63.62921 25.401 36.82218 102.139 16.21593 35.87826 65.51415 24.40143 35.87826 104.0239 24.40143 35.87826 104.0239 16.21593 35.87826 65.51415 16.21593 35.87826 65.51415 24.40143 35.87826 104.0239 15.34906 34.78395 67.3834 23.53456 34.78395 105.8932 23.53456 34.78395 105.8932 15.34906 34.78395 67.3834 15.34906 34.78395 67.3834 23.53456 34.78395 105.8932 14.62134 33.54738 69.22309 22.80684 33.54738 107.7328 14.62134 33.54738 69.22309 22.80684 33.54738 107.7328 14.62134 33.54738 69.22309 22.80684 33.54738 107.7328 14.03818 32.17776 71.01951 22.22368 32.17776 109.5293 14.03818 32.17776 71.01951 22.22368 32.17776 109.5293 14.03818 32.17776 71.01951 22.22368 32.17776 109.5293 13.60391 30.68526 72.75932 21.78941 30.68526 111.2691 13.60391 30.68526 72.75932 21.78941 30.68526 111.2691 13.60391 30.68526 72.75932 21.78941 30.68526 111.2691 13.32176 29.08098 74.42958 21.50726 29.08098 112.9393 13.32176 29.08098 74.42958 21.50726 29.08098 112.9393 13.32176 29.08098 74.42958 21.50726 29.08098 112.9393 13.19383 27.37685 76.01788 21.37933 27.37685 114.5276 13.19383 27.37685 76.01788 21.37933 27.37685 114.5276 13.19383 27.37685 76.01788 21.37933 27.37685 114.5276 13.22108 25.58554 77.51239 21.40658 25.58554 116.0221 13.22108 25.58554 77.51239 21.40658 25.58554 116.0221 13.22108 25.58554 77.51239 21.40658 25.58554 116.0221</float_array>
                    <technique_common>
                        <accessor count="303" source="#ID64" stride="3">
                            <param name="X" type="float" />
                            <param name="Y" type="float" />
                            <param name="Z" type="float" />
                        </accessor>
                    </technique_common>
                </source>
                <source id="ID58">
                    <float_array id="ID65" count="909">-0.2000103 0.978871 0.0425135 -0.1671893 0.9852841 0.03553719 -0.1671893 0.9852841 0.03553719 -0.2271669 0.9726581 0.04828581 -0.1671893 0.9852841 0.03553719 -0.253497 0.9658343 0.05388245 0.253497 -0.9658343 -0.05388245 0.2271669 -0.9726581 -0.04828581 0.1671893 -0.9852841 -0.03553719 0.1671893 -0.9852841 -0.03553719 0.2000103 -0.978871 -0.0425135 0.1671893 -0.9852841 -0.03553719 0 0 0 0 0 0 0 0 0 0 0 0 0 0 0 0 0 0 -0.3187103 0.9454282 0.06774396 -0.3477456 0.9346708 0.07391562 -0.3758998 0.9232093 0.07989997 0.3758998 -0.9232093 -0.07989997 0.3477456 -0.9346708 -0.07391562 0.3187103 -0.9454282 -0.06774396 0 0 0 0 0 0 0 0 0 -0.4390409 0.8936075 0.09332102 -0.4686035 0.8777754 0.09960475 -0.4972486 0.8611462 0.1056935 0.4972486 -0.8611462 -0.1056935 0.4686035 -0.8777754 -0.09960475 0.4390409 -0.8936075 -0.09332102 0 0 0 0 0 0 0 0 0 -0.5565699 0.8223348 0.1183026 -0.5849749 0.8014636 0.1243403 -0.612451 0.7797158 0.1301805 0.612451 -0.7797158 -0.1301805 0.5849749 -0.8014636 -0.1243403 0.5565699 -0.8223348 -0.1183026 0 0 0 0 0 0 0 0 0 -0.6661266 0.7322757 0.1415896 -0.6916548 0.7071068 0.1470158 -0.7162737 0.6810083 0.1522487 0.7162737 -0.6810083 -0.1522487 0.6916548 -0.7071068 -0.1470158 0.6661266 -0.7322757 -0.1415896 0 0 0 0 0 0 0 0 0 -0.7839497 0.5980436 0.1666336 -0.8043648 0.569004 0.170973 -0.7626772 0.6261335 0.162112 0.7626772 -0.6261335 -0.162112 0.7839497 -0.5980436 -0.1666336 0.8043648 -0.569004 -0.170973 0 0 0 0 0 0 0 0 0 -0.8585939 0.4790724 0.1824998 -0.87408 0.4488493 0.1857914 -0.8423281 0.5083574 0.1790424 0.8423281 -0.5083574 -0.1790424 0.8585939 -0.4790724 -0.1824998 0.87408 -0.4488493 -0.1857914 0 0 0 0 0 0 0 0 0 -0.914246 0.3555145 0.194329 -0.9247684 0.3258304 0.1965656 -0.9030349 0.3842976 0.191946 0.9030349 -0.3842976 -0.191946 0.914246 -0.3555145 -0.194329 0.9247684 -0.3258304 -0.1965656 0 0 0 0 0 0 0 0 0 -0.9514031 0.2322419 0.202227 -0.9574803 0.2044786 0.2035187 -0.9447285 0.2591603 0.2008082 0.9447285 -0.2591603 -0.2008082 0.9514031 -0.2322419 -0.202227 0.9574803 -0.2044786 -0.2035187 0 0 0 0 0 0 0 0 0 -0.9718797 0.1130259 0.2065794 -0.9743453 0.08808756 0.2071035 -0.9688991 0.1371888 0.2059459 0.9688991 -0.1371888 -0.2059459 0.9718797 -0.1130259 -0.2065794 0.9743453 -0.08808756 -0.2071035 0 0 0 0 0 0 0 0 0 -0.976681 0.05474057 0.2076 -0.976681 0.05474057 0.2076 -0.976681 0.05474057 0.2076 0.976681 -0.05474057 -0.2076 0.976681 -0.05474057 -0.2076 0.976681 -0.05474057 -0.2076 0 0 0 0 0 0 0 0 0 -0.9593908 0.1948947 0.2039248 -0.9488439 0.2429386 0.201683 -0.9433841 0.2642293 0.2005225 -0.9539334 0.2211276 0.2027648 -0.9593908 0.1948947 0.2039248 -0.9593908 0.1948947 0.2039248 0.9593908 -0.1948947 -0.2039248 0.9593908 -0.1948947 -0.2039248 0.9593908 -0.1948947 -0.2039248 0.9539334 -0.2211276 -0.2027648 0.9488439 -0.2429386 -0.201683 0.9433841 -0.2642293 -0.2005225 0 0 0 0 0 0 0 0 0 -0.9200962 0.3393735 0.1955725 -0.9118729 0.3618285 0.1938246 -0.9279055 0.3163713 0.1972324 0.9279055 -0.3163713 -0.1972324 0.9200962 -0.3393735 -0.1955725 0.9118729 -0.3618285 -0.1938246 0 0 0 0 0 0 0 0 0 -0.8801066 0.4363672 0.1870724 -0.8688404 0.4593589 0.1846777 -0.8909145 0.4128079 0.1893697 0.8909145 -0.4128079 -0.1893697 0.8801066 -0.4363672 -0.1870724 0.8688404 -0.4593589 -0.1846777 0 0 0 0 0 0 0 0 0 -0.8284394 0.5316769 0.1760902 -0.8140439 0.5544303 0.1730304 -0.8423356 0.5083443 0.179044 0.8423356 -0.5083443 -0.179044 0.8284394 -0.5316769 -0.1760902 0.8140439 -0.5544303 -0.1730304 0 0 0 0 0 0 0 0 0 -0.7653038 0.6227748 0.1626704 -0.7479435 0.6444423 0.1589803 -0.7821311 0.6005271 0.1662471 0.7821311 -0.6005271 -0.1662471 0.7653038 -0.6227748 -0.1626704 0.7479435 -0.6444423 -0.1589803 0 0 0 0 0 0 0 0 0 -0.6916548 0.7071068 0.1470158 -0.6717622 0.7268751 0.1427875 -0.7109911 0.6867697 0.1511258 0.7109911 -0.6867697 -0.1511258 0.6916548 -0.7071068 -0.1470158 0.6717622 -0.7268751 -0.1427875 0 0 0 0 0 0 0 0 0 -0.6303597 0.764653 0.1339871 -0.6091656 0.7824012 0.1294822 -0.5874042 0.7996044 0.1248566 0.5874042 -0.7996044 -0.1248566 0.6091656 -0.7824012 -0.1294822 0.6303597 -0.764653 -0.1339871 0 0 0 0 0 0 0 0 0 -0.5423147 0.8322302 0.1152725 -0.5200585 0.8469473 0.1105418 -0.4972358 0.8611539 0.1056907 0.4972358 -0.8611539 -0.1056907 0.5200585 -0.8469473 -0.1105418 0.5423147 -0.8322302 -0.1152725 0 0 0 0 0 0 0 0 0 -0.4493208 0.8882508 0.09550608 -0.4268315 0.8997687 0.09072584 -0.4037871 0.9108181 0.0858276 0.4037871 -0.9108181 -0.0858276 0.4268315 -0.8997687 -0.09072584 0.4493208 -0.8882508 -0.09550608 0 0 0 0 0 0 0 0 0 -0.3539217 0.9322447 0.07522838 -0.3319574 0.9406517 0.07055973 -0.3094578 0.9486354 0.06577729 0.3094578 -0.9486354 -0.06577729 0.3319574 -0.9406517 -0.07055973 0.3539217 -0.9322447 -0.07522838 0 0 0 0 0 0 0 0 0 -0.2584553 0.9644599 0.05493636 -0.2376298 0.9700417 0.05050977 -0.2162954 0.9752449 0.04597501 0.2162954 -0.9752449 -0.04597501 0.2376298 -0.9700417 -0.05050977 0.2584553 -0.9644599 -0.05493636 0 0 0 0 0 0 0 0 0 -0.1906358 0.9808242 0.04052088 -0.1906358 0.9808242 0.04052088 -0.1906358 0.9808242 0.04052088 0.1906358 -0.9808242 -0.04052088 0.1906358 -0.9808242 -0.04052088 0.1906358 -0.9808242 -0.04052088 0 0 0 0 0 0 0 0 0 -0.1807881 0.9827711 0.03842769 -0.1532062 0.9876575 0.03256498 -0.1532062 0.9876575 0.03256498 -0.2031313 0.9781991 0.04317688 -0.1532062 0.9876575 0.03256498 -0.2249 0.9732085 0.04780398 0.2249 -0.9732085 -0.04780398 0.2031313 -0.9781991 -0.04317688 0.1532062 -0.9876575 -0.03256498 0.1532062 -0.9876575 -0.03256498 0.1807881 -0.9827711 -0.03842769 0.1532062 -0.9876575 -0.03256498 0 0 0 0 0 0 0 0 0 -0.279933 0.9581738 0.05950159 -0.3270869 0.9424333 0.06952447 0.3270869 -0.9424333 -0.06952447 0.279933 -0.9581738 -0.05950159 0 0 0 0 0 0 -0.3810619 0.9209947 0.0809972 -0.4298549 0.8982631 0.09136847 0.4298549 -0.8982631 -0.09136847 0.3810619 -0.9209947 -0.0809972 0 0 0 0 0 0 -0.4817959 0.8702788 0.1024089 -0.5304078 0.8402124 0.1127417 0.5304078 -0.8402124 -0.1127417 0.4817959 -0.8702788 -0.1024089 0 0 0 0 0 0 -0.5792388 0.8058062 0.123121 -0.6256157 0.7687143 0.1329787 0.6256157 -0.7687143 -0.1329787 0.5792388 -0.8058062 -0.123121 0 0 0 0 0 0 -0.6702624 0.7283206 0.1424687 -0.7124051 0.6852365 0.1514264 0.7124051 -0.6852365 -0.1514264 0.6702624 -0.7283206 -0.1424687 0 0 0 0 0 0 -0.751916 0.6395923 0.1598247 -0.7881974 0.5921793 0.1675365 0.751916 -0.6395923 -0.1598247 0.7881974 -0.5921793 -0.1675365 0 0 0 0 0 0 -0.8218517 0.5422574 0.17469 -0.8512611 0.4925595 0.1809411 0.8218517 -0.5422574 -0.17469 0.8512611 -0.4925595 -0.1809411 0 0 0 0 0 0 -0.8786339 0.4394581 0.1867594 -0.9008688 0.389575 0.1914856 0.8786339 -0.4394581 -0.1867594 0.9008688 -0.389575 -0.1914856 0 0 0 0 0 0 -0.9218389 0.3343942 0.1959429 -0.9372354 0.2861868 0.1992155 0.9218389 -0.3343942 -0.1959429 0.9372354 -0.2861868 -0.1992155 0 0 0 0 0 0 -0.9519415 0.2299244 0.2023414 -0.9612952 0.184827 0.2043296 0.9519415 -0.2299244 -0.2023414 0.9612952 -0.184827 -0.2043296 0 0 0 0 0 0 -0.9660748 0.1566289 0.2053455 -0.9660748 0.1566289 0.2053455 0.9660748 -0.1566289 -0.2053455 0.9660748 -0.1566289 -0.2053455 0 0 0 0 0 0</float_array>
                    <technique_common>
                        <accessor count="303" source="#ID65" stride="3">
                            <param name="X" type="float" />
                            <param name="Y" type="float" />
                            <param name="Z" type="float" />
                        </accessor>
                    </technique_common>
                </source>
                <source id="ID59">
                    <Name_array id="ID67" count="0" />
                    <technique_common>
                        <accessor count="0" source="#ID67" stride="1">
                            <param name="skp_material" type="Name" />
                        </accessor>
                    </technique_common>
                </source>
                <source id="ID61">
                    <float_array id="ID66" count="264">-7.161067 -18.16303 -6.880638 -17.3133 -7.182395 -18.16171 -6.869164 -17.34232 -6.784014 -17.04163 -6.762686 -17.04295 -7.13908 -18.16361 -6.857482 -17.37187 -6.740699 -17.04353 -7.116666 -18.16344 -6.845714 -17.40163 -6.718285 -17.04336 -7.09406 -18.16252 -6.833985 -17.4313 -6.695679 -17.04244 -7.0715 -18.16086 -6.822419 -17.46055 -6.673119 -17.04079 -6.811136 -17.48909 -6.650843 -17.03841 -7.049224 -18.15849 -6.800257 -17.51661 -6.629087 -17.03535 -7.027468 -18.15543 -6.629087 -17.03535 -6.789895 -17.54281 -6.608078 -17.03162 -7.006459 -18.1517 -6.800257 -17.51661 -7.027468 -18.15543 -6.608078 -17.03162 -6.78016 -17.56743 -6.588038 -17.02727 -6.98642 -18.14735 -7.006459 -18.1517 -6.789895 -17.54281 -6.588038 -17.02727 -6.771155 -17.59021 -6.56918 -17.02234 -6.967561 -18.14242 -6.78016 -17.56743 -6.98642 -18.14735 -6.56918 -17.02234 -6.762973 -17.6109 -6.5517 -17.01689 -6.950081 -18.13697 -6.771155 -17.59021 -6.967561 -18.14242 -6.5517 -17.01689 -6.7514 -17.64018 -6.527552 -17.01081 -6.925933 -18.13089 -6.950081 -18.13697 -6.762973 -17.6109 -6.527552 -17.01081 -6.739115 -17.67125 -6.502256 -17.0053 -6.900637 -18.12538 -6.925933 -18.13089 -6.7514 -17.64018 -6.726198 -17.70392 -6.475975 -17.0004 -6.874357 -18.12048 -6.712731 -17.73798 -6.448879 -16.99614 -6.84726 -18.11622 -6.448879 -16.99614 -6.698801 -17.77321 -6.421142 -16.99255 -6.819523 -18.11263 -6.712731 -17.73798 -6.84726 -18.11622 -6.421142 -16.99255 -6.684499 -17.80938 -6.392942 -16.98965 -6.791323 -18.10973 -6.698801 -17.77321 -6.819523 -18.11263 -6.762842 -18.10754 -6.669916 -17.84627 -6.364461 -16.98746 -6.734264 -18.10607 -6.655146 -17.88362 -6.335883 -16.98599 -6.705773 -18.10534 -6.655146 -17.88362 -6.734264 -18.10607 -6.640284 -17.92121 -6.335883 -16.98599 -6.307392 -16.98526 -6.677552 -18.10535 -6.640284 -17.92121 -6.705773 -18.10534 -6.625427 -17.95879 -6.307392 -16.98526 -6.279171 -16.98527 -6.649783 -18.10609 -6.610669 -17.99612 -6.251402 -16.98601 -6.622646 -18.10757 -6.596106 -18.03295 -6.224265 -16.98749 -6.590446 -18.1097 -6.578756 -18.07683 -6.192065 -16.98962 -6.557348 -18.11089 -6.578756 -18.07683 -6.590446 -18.1097 -6.192065 -16.98962 -6.158967 -16.99081 -6.523597 -18.11113 -6.158967 -16.99081 -6.557348 -18.11089 -6.125216 -16.99105 -6.489446 -18.11042 -6.091065 -16.99034 -6.455148 -18.10876 -6.056766 -16.98868 -6.420957 -18.10616 -6.022576 -16.98608 -6.387128 -18.10265 -5.988747 -16.98257 -6.353913 -18.09825 -5.955532 -16.97817 -6.321558 -18.09299 -5.923177 -16.97291 -6.290305 -18.08691 -5.891924 -16.96683 -6.260385 -18.08006 -5.862004 -16.95998 -6.232021 -18.07249 -5.83364 -16.95241</float_array>
                    <technique_common>
                        <accessor count="132" source="#ID66" stride="2">
                            <param name="S" type="float" />
                            <param name="T" type="float" />
                        </accessor>
                    </technique_common>
                </source>
                <vertices id="ID60">
                    <input semantic="POSITION" source="#ID57" />
                    <input semantic="NORMAL" source="#ID58" />
                </vertices>
                <triangles count="238" material="Material2">
                    <input offset="0" semantic="VERTEX" source="#ID60" />
                    <input offset="1" semantic="TEXCOORD" source="#ID61" />
                    <p>0 0 1 1 2 2 1 1 0 0 3 3 1 1 3 3 4 4 4 4 3 3 5 5 6 5 7 3 8 4 8 4 7 3 9 1 7 3 10 0 9 1 11 2 9 1 10 0 18 6 3 3 0 0 3 3 18 6 19 7 3 3 19 7 5 5 5 5 19 7 20 8 21 8 22 7 6 5 6 5 22 7 7 3 22 7 23 6 7 3 10 0 7 3 23 6 27 9 19 7 18 6 19 7 27 9 28 10 19 7 28 10 20 8 20 8 28 10 29 11 30 11 31 10 21 8 21 8 31 10 22 7 31 10 32 9 22 7 23 6 22 7 32 9 36 12 28 10 27 9 28 10 36 12 37 13 28 10 37 13 29 11 29 11 37 13 38 14 39 14 40 13 30 11 30 11 40 13 31 10 40 13 41 12 31 10 32 9 31 10 41 12 45 15 37 13 36 12 37 13 45 15 46 16 37 13 46 16 38 14 38 14 46 16 47 17 48 17 49 16 39 14 39 14 49 16 40 13 49 16 50 15 40 13 41 12 40 13 50 15 47 17 54 18 55 19 54 18 47 17 56 20 56 20 47 17 45 15 45 15 47 17 46 16 49 16 48 17 50 15 50 15 48 17 57 20 57 20 48 17 58 18 59 19 58 18 48 17 55 19 63 21 64 22 63 21 55 19 65 23 65 23 55 19 54 18 65 23 54 18 56 20 57 20 58 18 66 23 58 18 59 19 66 23 66 23 59 19 67 21 68 22 67 21 59 19 64 24 72 25 73 26 72 25 64 24 74 27 74 27 64 24 63 28 74 27 63 28 65 29 66 29 67 28 75 27 67 28 68 24 75 27 75 27 68 24 76 25 77 26 76 25 68 24 73 30 81 31 82 32 81 31 73 30 83 33 83 33 73 30 74 34 74 34 73 30 72 35 76 35 77 30 75 34 75 34 77 30 84 33 84 33 77 30 85 31 86 32 85 31 77 30 82 36 90 37 91 38 90 37 82 36 92 39 92 39 82 36 81 40 92 39 81 40 83 41 84 41 85 40 93 39 85 40 86 36 93 39 93 39 86 36 94 37 95 38 94 37 86 36 91 42 99 43 100 44 99 43 91 42 101 45 101 45 91 42 90 46 101 45 90 46 92 47 93 47 94 46 102 45 94 46 95 42 102 45 102 45 95 42 103 43 104 44 103 43 95 42 108 48 109 49 110 50 109 49 108 48 111 51 111 51 108 48 112 52 112 52 108 48 113 53 114 53 115 48 116 52 116 52 115 48 117 51 117 51 115 48 118 49 119 50 118 49 115 48 110 54 123 55 124 56 123 55 110 54 125 57 125 57 110 54 111 58 111 58 110 54 109 59 118 59 119 54 117 58 117 58 119 54 126 57 126 57 119 54 127 55 128 56 127 55 119 54 124 56 132 60 133 61 132 60 124 56 134 62 134 62 124 56 125 57 125 57 124 56 123 55 127 55 128 56 126 57 126 57 128 56 135 62 135 62 128 56 136 60 137 61 136 60 128 56 133 61 141 63 142 64 141 63 133 61 143 65 143 65 133 61 134 62 134 62 133 61 132 60 136 60 137 61 135 62 135 62 137 61 144 65 144 65 137 61 145 63 146 64 145 63 137 61 142 66 150 67 151 68 150 67 142 66 152 69 152 69 142 66 141 70 152 69 141 70 143 71 144 71 145 70 153 69 145 70 146 66 153 69 153 69 146 66 154 67 155 68 154 67 146 66 151 72 159 73 160 74 159 73 151 72 161 75 161 75 151 72 150 76 161 75 150 76 152 77 153 77 154 76 162 75 154 76 155 72 162 75 162 75 155 72 163 73 164 74 163 73 155 72 168 78 159 73 161 75 159 73 168 78 169 79 159 73 169 79 160 74 160 74 169 79 170 80 171 80 172 79 164 74 164 74 172 79 163 73 172 79 173 78 163 73 162 75 163 73 173 78 177 81 169 79 168 78 169 79 177 81 178 82 169 79 178 82 170 80 170 80 178 82 179 83 180 83 181 82 171 80 171 80 181 82 172 79 181 82 182 81 172 79 173 78 172 79 182 81 186 84 178 85 177 86 178 85 186 84 187 87 178 85 187 87 179 88 179 88 187 87 188 89 189 89 190 87 180 88 180 88 190 87 181 85 190 87 191 84 181 85 182 86 181 85 191 84 195 90 187 91 186 92 187 91 195 90 196 93 187 91 196 93 188 94 188 94 196 93 197 95 198 95 199 93 189 94 189 94 199 93 190 91 199 93 200 90 190 91 191 92 190 91 200 90 204 96 196 93 195 90 196 93 204 96 205 97 196 93 205 97 197 95 197 95 205 97 206 98 207 98 208 97 198 95 198 95 208 97 199 93 208 97 209 96 199 93 200 90 199 93 209 96 213 99 205 97 204 96 205 97 213 99 214 100 205 97 214 100 206 98 206 98 214 100 215 101 216 101 217 100 207 98 207 98 217 100 208 97 217 100 218 99 208 97 209 96 208 97 218 99 222 102 223 100 224 99 223 100 222 102 225 103 223 100 225 103 226 101 226 101 225 103 227 104 228 104 229 103 230 101 230 101 229 103 231 100 229 103 232 102 231 100 233 99 231 100 232 102 237 105 225 106 222 107 225 106 237 105 227 108 227 108 237 105 238 109 239 109 240 105 228 108 228 108 240 105 229 106 232 107 229 106 240 105 243 110 238 111 237 112 238 111 243 110 244 113 245 113 246 110 239 111 240 112 239 111 246 110 249 114 244 113 243 110 244 113 249 114 250 115 251 115 252 114 245 113 246 110 245 113 252 114 255 116 250 115 249 114 250 115 255 116 256 117 257 117 258 116 251 115 252 114 251 115 258 116 261 118 256 117 255 116 256 117 261 118 262 119 263 119 264 118 257 117 258 116 257 117 264 118 262 119 267 120 268 121 267 120 262 119 261 118 264 118 263 119 269 120 270 121 269 120 263 119 268 121 273 122 274 123 273 122 268 121 267 120 269 120 270 121 275 122 276 123 275 122 270 121 274 123 279 124 280 125 279 124 274 123 273 122 275 122 276 123 281 124 282 125 281 124 276 123 280 125 285 126 286 127 285 126 280 125 279 124 281 124 282 125 287 126 288 127 287 126 282 125 286 127 291 128 292 129 291 128 286 127 285 126 287 126 288 127 293 128 294 129 293 128 288 127 292 129 297 130 298 131 297 130 292 129 291 128 293 128 294 129 299 130 300 131 299 130 294 129</p>
                </triangles>
                <lines count="131" material="Material3">
                    <input offset="0" semantic="VERTEX" source="#ID60" />
                    <p>12 13 13 14 15 14 16 15 17 16 17 12 14 24 25 24 26 25 16 26 24 33 34 33 35 34 26 35 33 42 43 42 44 43 35 44 42 51 52 51 53 52 44 53 51 60 61 60 62 61 53 62 60 69 70 69 71 70 62 71 69 78 79 78 80 79 71 80 78 87 88 87 89 88 80 89 87 96 96 97 97 98 89 98 96 105 106 105 107 106 98 107 105 120 121 120 122 121 107 122 120 129 130 129 131 130 122 131 129 138 139 138 140 139 131 140 138 147 148 147 149 148 140 149 147 156 157 156 158 157 149 158 156 165 166 165 167 166 158 167 165 174 175 174 176 175 167 176 174 183 184 183 185 184 176 185 183 192 193 192 194 193 185 194 192 201 202 201 203 202 194 203 201 210 211 210 212 211 203 212 210 219 220 219 221 220 212 221 219 234 235 234 236 235 221 236 234 241 242 241 236 242 241 247 248 247 242 248 247 253 254 253 248 254 253 259 260 259 254 260 259 265 266 265 260 266 265 271 272 271 266 272 271 277 278 277 272 278 277 283 284 283 278 284 283 289 290 289 284 290 289 295 296 295 290 296 295 301 301 302 296 302</p>
                </lines>
            </mesh>
        </geometry>
    </library_geometries>
    <library_materials>
        <material id="ID6" name="__Gainsboro_">
            <instance_effect url="#ID7" />
        </material>
        <material id="ID13" name="material">
            <instance_effect url="#ID12" />
        </material>
        <material id="ID14" name="edge_color000255">
            <instance_effect url="#ID15" />
        </material>
        <material id="ID24" name="edge_color219219219255">
            <instance_effect url="#ID25" />
        </material>
        <material id="ID52" name="Liberian_Flag_skewed_1">
            <instance_effect url="#ID53" />
        </material>
        <material id="ID62" name="edge_color251320255">
            <instance_effect url="#ID63" />
        </material>
    </library_materials>
    <library_effects>
        <effect id="ID7">
            <profile_COMMON>
                <technique sid="COMMON">
                    <lambert>
                        <diffuse>
                            <color>0.8588235 0.8588235 0.8588235 1</color>
                        </diffuse>
                    </lambert>
                </technique>
            </profile_COMMON>
        </effect>
        <effect id="ID12">
            <profile_COMMON>
                <technique sid="COMMON">
                    <lambert>
                        <diffuse>
                            <color>0.6431373 0.6980392 0.7333333 1</color>
                        </diffuse>
                    </lambert>
                </technique>
            </profile_COMMON>
        </effect>
        <effect id="ID15">
            <profile_COMMON>
                <technique sid="COMMON">
                    <constant>
                        <transparent opaque="A_ONE">
                            <color>0 0 0 1</color>
                        </transparent>
                        <transparency>
                            <float>1</float>
                        </transparency>
                    </constant>
                </technique>
            </profile_COMMON>
        </effect>
        <effect id="ID25">
            <profile_COMMON>
                <technique sid="COMMON">
                    <constant>
                        <transparent opaque="A_ONE">
                            <color>0.8588235 0.8588235 0.8588235 1</color>
                        </transparent>
                        <transparency>
                            <float>1</float>
                        </transparency>
                    </constant>
                </technique>
            </profile_COMMON>
        </effect>
        <effect id="ID53">
            <profile_COMMON>
                <newparam sid="ID55">
                    <surface type="2D">
                        <init_from>ID54</init_from>
                    </surface>
                </newparam>
                <newparam sid="ID56">
                    <sampler2D>
                        <source>ID55</source>
                    </sampler2D>
                </newparam>
                <technique sid="COMMON">
                    <lambert>
                        <diffuse>
                            <texture texture="ID56" texcoord="UVSET0" />
                        </diffuse>
                    </lambert>
                </technique>
            </profile_COMMON>
        </effect>
        <effect id="ID63">
            <profile_COMMON>
                <technique sid="COMMON">
                    <constant>
                        <transparent opaque="A_ONE">
                            <color>0.9843137 0.1254902 0 1</color>
                        </transparent>
                        <transparency>
                            <float>1</float>
                        </transparency>
                    </constant>
                </technique>
            </profile_COMMON>
        </effect>
    </library_effects>
    <library_images>
        <image id="ID54">
            <init_from>model/Liberian_Flag_skewed_1.jpg</init_from>
        </image>
    </library_images>
    <scene>
        <instance_visual_scene url="#ID2" />
    </scene>
</COLLADA>
