# Made in Blockbench 4.9.4
mtllib SCIFI-PistolClip.mtl

o cuboid
v -0.031454829953460384 0.06459404323148114 0.018749999999999926
v -0.031454829953460384 0.06459404323148114 -0.018749999999999954
v -0.01632635463075882 0.040986073933640996 -0.03749999999999998
v -0.01632635463075882 0.040986073933640996 0.03749999999999995
v 0.04335094084258789 0.024277345687267235 -0.028124999999999983
v 0.022229842176960224 0.04966041088950683 -0.027343749999999976
v 0.022229842176960224 0.04966041088950683 0.02734374999999994
v 0.04335094084258789 0.024277345687267235 0.02812499999999995
vt 0.3953125 0.9375
vt 0.3859375 0.9375
vt 0.38125 0.921875
vt 0.4 0.921875
vt 0.32734375 0.6340640625
vt 0.3271484375 0.64231875
vt 0.3134765625 0.64231875
vt 0.31328125 0.6340640625
vt 0.3271484375 0.64231875
vt 0.325 0.65625
vt 0.315625 0.65625
vt 0.3134765625 0.64231875
vt 0.4 0.96875
vt 0.38125 0.96875
vt 0.38359375 0.953125
vt 0.39765625 0.953125
vt 0.05219651629195593 0.625
vt 0.0567959262834341 0.640625
vt 0.04296590641301237 0.6378977062955842
vt 0.0369540737165659 0.625
vt 0.5242447871533096 0.9392949801295782
vt 0.5269720808577255 0.953125
vt 0.5199029191422745 0.9485255900085219
vt 0.5199029191422745 0.9332831474331318
vn -0.8419575275266932 -0.5395438090101097 0
vn 0.7686895606001541 0.6396220441982452 0
vn 0.26799743584305075 0.963419625283578 0
vn -0.26961624190710204 -0.962967851020942 0
vn 0.056566010722429026 0.6429137537933961 -0.7638469687144372
vn 0.05656601072242915 0.6429137537933961 0.7638469687144372
usemtl m_f139901a-1e8d-ab72-65af-d1247c8c78b2
f 1/1/1 2/2/1 3/3/1 4/4/1
f 5/5/2 6/6/2 7/7/2 8/8/2
f 6/9/3 2/10/3 1/11/3 7/12/3
f 4/13/4 3/14/4 5/15/4 8/16/4
f 3/17/5 2/18/5 6/19/5 5/20/5
f 7/21/6 1/22/6 4/23/6 8/24/6
o cuboid
v 0.03586303534747581 0.2064510378912136 -0.012499999999999956
v 0.03586303534747581 0.2064510378912136 0.012499999999999956
v 0.021027731895283397 0.04534124791796949 0.024999999999999967
v 0.021027731895283397 0.04534124791796949 -0.024999999999999967
v -0.022312774724145723 0.05349913493172269 0.018749999999999968
v -0.0074774712719533065 0.2146089249049668 0.014062499999999964
v -0.0074774712719533065 0.2146089249049668 -0.014062499999999964
v -0.022312774724145723 0.05349913493172269 -0.018749999999999968
vt 0.296875 0.8374439748600011
vt 0.28748143018149686 0.8379254080257984
vt 0.28125 0.7978378663315946
vt 0.296875 0.796875
vt 0.3125 0.7405809658056157
vt 0.3125 0.7810463755676216
vt 0.2992177669693249 0.78125
vt 0.296875 0.7408524650487871
vt 0.519921875 0.515625
vt 0.5203125 0.5
vt 0.5265625 0.5
vt 0.526953125 0.515625
vt 0.4703125 0.546875
vt 0.4828125 0.546875
vt 0.48125 0.5625
vt 0.471875 0.5625
vt 0.25265115679197225 0.921875
vt 0.2932196739268088 0.921875
vt 0.29422384320802775 0.9375
vt 0.2538062365522486 0.9374155414073457
vt 0.32580631418193384 0.84375
vt 0.31481868581806616 0.8427458307187811
vt 0.31481868581806616 0.8021773135839445
vt 0.3257218555892795 0.8033323933442209
vn 0.9957872288254661 -0.09169402874832691 0
vn -0.9957872288254662 0.09169402874832693 0
vn 0.18497941202108995 0.9827423961182972 0
vn -0.18497941202108995 -0.9827423961182972 0
vn 0.049599423112064646 0.07271847259432807 0.9961184271814765
vn 0.04959942311206461 0.07271847259432807 -0.9961184271814765
usemtl m_f139901a-1e8d-ab72-65af-d1247c8c78b2
f 9/25/7 10/26/7 11/27/7 12/28/7
f 13/29/8 14/30/8 15/31/8 16/32/8
f 14/33/9 10/34/9 9/35/9 15/36/9
f 12/37/10 11/38/10 13/39/10 16/40/10
f 11/41/11 10/42/11 14/43/11 13/44/11
f 15/45/12 9/46/12 12/47/12 16/48/12
o cone
v 0.02852511563779611 0.21020916369960796 -1.3877787807814458e-18
v 0.010602153189535807 0.21087963324852343 0.006249999999999997
v 0.010223544335616369 0.20800381348925084 0.004575317547305481
v 0.010004954411888423 0.20634345817709399 0.0016746824526945147
v 0.010004954411888423 0.20634345817709399 -0.0016746824526945182
v 0.010223544335616369 0.20800381348925084 -0.004575317547305483
v 0.010602153189535779 0.21087963324852338 -0.006249999999999999
v 0.0110393330369917 0.21420034387283715 -0.00625
v 0.01141794189091111 0.2170761636321097 -0.0045753175473054845
v 0.011636531814639056 0.21873651894426654 -0.001674682452694517
v 0.011636531814639056 0.21873651894426654 0.001674682452694512
v 0.01141794189091111 0.2170761636321097 0.004575317547305479
v 0.0110393330369917 0.21420034387283715 0.006249999999999997
v -0.003273324981510811 0.20809157682289825 0.0016746824526945147
v -0.0030547350577828647 0.2097519321350551 0.004575317547305481
v -0.0024575362801354805 0.21428810720648456 -1.3877787807814458e-18
v -0.003273324981510811 0.20809157682289825 -0.0016746824526945182
v -0.0030547350577828647 0.2097519321350551 -0.004575317547305483
v -0.002676126203863455 0.21262775189432764 -0.006249999999999999
v -0.002238946356407534 0.21594846251864142 -0.00625
v -0.0018603375024881241 0.21882428227791395 -0.0045753175473054845
v -0.0016417475787601776 0.2204846375900708 -0.001674682452694517
v -0.0016417475787601776 0.2204846375900708 0.001674682452694512
v -0.0018603375024881241 0.21882428227791395 0.004575317547305479
v -0.002238946356407534 0.21594846251864142 0.006249999999999997
v -0.002676126203863427 0.2126277518943277 0.006249999999999997
vt 0.61833125 0.40895625
vt 0.61760625 0.40937500000000004
vt 0.6171875 0.4078125
vt 0.3829436106910102 0.3858953125
vt 0.38376808296784914 0.3860424577164495
vt 0.38252486069101016 0.390625
vt 0.61875 0.40823125000000005
vt 0.61833125 0.40895625
vt 0.6171875 0.4078125
vt 0.6156566384141712 0.6829174577164496
vt 0.6164811106910102 0.6827703125
vt 0.6168998606910102 0.6875
vt 0.61875 0.40739375
vt 0.61875 0.40823125000000005
vt 0.6171875 0.4078125
vt 0.6164811106910102 0.6827703125
vt 0.6173186106910101 0.6827703125
vt 0.6168998606910102 0.6875
vt 0.61833125 0.40666875
vt 0.61875 0.40739375
vt 0.6171875 0.4078125
vt 0.6173186106910101 0.6827703125
vt 0.6181430829678491 0.6829174577164496
vt 0.6168998606910102 0.6875
vt 0.61760625 0.40625
vt 0.61833125 0.40666875
vt 0.6171875 0.4078125
vt 0.41253163841417123 0.3860424577164495
vt 0.4133561106910102 0.3858953125
vt 0.41377486069101016 0.390625
vt 0.61676875 0.40625
vt 0.61760625 0.40625
vt 0.6171875 0.4078125
vt 0.4133561106910102 0.3858953125
vt 0.4141936106910102 0.3858953125
vt 0.41377486069101016 0.390625
vt 0.61604375 0.40666875
vt 0.61676875 0.40625
vt 0.6171875 0.4078125
vt 0.4141936106910102 0.3858953125
vt 0.41501808296784914 0.3860424577164495
vt 0.41377486069101016 0.390625
vt 0.615625 0.40739375
vt 0.61604375 0.40666875
vt 0.6171875 0.4078125
vt 0.6156566384141712 0.7141674577164496
vt 0.6164811106910102 0.7140203125
vt 0.6168998606910102 0.71875
vt 0.615625 0.40823125000000005
vt 0.615625 0.40739375
vt 0.6171875 0.4078125
vt 0.6164811106910102 0.7140203125
vt 0.6173186106910101 0.7140203125
vt 0.6168998606910102 0.71875
vt 0.61604375 0.40895625
vt 0.615625 0.40823125000000005
vt 0.6171875 0.4078125
vt 0.6173186106910101 0.7140203125
vt 0.6181430829678491 0.7141674577164496
vt 0.6168998606910102 0.71875
vt 0.61676875 0.40937500000000004
vt 0.61604375 0.40895625
vt 0.6171875 0.4078125
vt 0.38128163841417123 0.3860424577164495
vt 0.3821061106910102 0.3858953125
vt 0.38252486069101016 0.390625
vt 0.61760625 0.40937500000000004
vt 0.61676875 0.40937500000000004
vt 0.6171875 0.4078125
vt 0.3821061106910102 0.3858953125
vt 0.3829436106910102 0.3858953125
vt 0.38252486069101016 0.390625
vt 0.6156436106910101 0.6794218750000001
vt 0.6164811106910102 0.6794218750000001
vt 0.6164811106910102 0.6827703125
vt 0.6156436106910101 0.6827703125
vt 0.6164811106910102 0.6794218750000001
vt 0.6173186106910101 0.6794218750000001
vt 0.6173186106910101 0.6827703125
vt 0.6164811106910102 0.6827703125
vt 0.6179069170321508 0.6794739615871905
vt 0.6187313893089899 0.6796211068036401
vt 0.6181430829678491 0.6829174577164496
vt 0.6173186106910101 0.6827703125
vt 0.41251861069101015 0.38254687499999995
vt 0.4133561106910102 0.38254687499999995
vt 0.4133561106910102 0.3858953125
vt 0.41251861069101015 0.3858953125
vt 0.4133561106910102 0.38254687499999995
vt 0.4141936106910102 0.38254687499999995
vt 0.4141936106910102 0.3858953125
vt 0.4133561106910102 0.3858953125
vt 0.4147819170321509 0.38259896158719053
vt 0.41560638930898985 0.3827461068036401
vt 0.41501808296784914 0.3860424577164495
vt 0.4141936106910102 0.3858953125
vt 0.6156436106910101 0.7106718750000001
vt 0.6164811106910102 0.7106718750000001
vt 0.6164811106910102 0.7140203125
vt 0.6156436106910101 0.7140203125
vt 0.6164811106910102 0.7106718750000001
vt 0.6173186106910101 0.7106718750000001
vt 0.6173186106910101 0.7140203125
vt 0.6164811106910102 0.7140203125
vt 0.6179069170321508 0.7107239615871905
vt 0.6187313893089899 0.7108711068036401
vt 0.6181430829678491 0.7141674577164496
vt 0.6173186106910101 0.7140203125
vt 0.38126861069101015 0.38254687499999995
vt 0.3821061106910102 0.38254687499999995
vt 0.3821061106910102 0.3858953125
vt 0.38126861069101015 0.3858953125
vt 0.3835319170321509 0.38259896158719053
vt 0.38435638930898985 0.3827461068036401
vt 0.38376808296784914 0.3860424577164495
vt 0.3829436106910102 0.3858953125
vt 0.3821061106910102 0.38254687499999995
vt 0.3829436106910102 0.38254687499999995
vt 0.3829436106910102 0.3858953125
vt 0.3821061106910102 0.3858953125
vn -0.9914448613738106 0.13052619222005116 0
vn 0.2659251124235692 -0.5110111416799451 0.8174053141871976
vn -0.9914448613738106 0.13052619222005116 0
vn 0.22083142788804594 -0.8535316814485763 0.47192917818301205
vn -0.9914448613738106 0.13052619222005116 0
vn 0.20432599379780286 -0.9789029003218555 0
vn -0.9914448613738106 0.13052619222005116 0
vn 0.2208314278880459 -0.8535316814485762 -0.4719291781830123
vn -0.9914448613738106 0.13052619222005116 0
vn 0.265925112423569 -0.5110111416799519 -0.8174053141871936
vn -0.9914448613738106 0.13052619222005116 0
vn 0.3275242310493362 -0.04311938303803675 -0.9438583563660177
vn -0.9914448613738106 0.13052619222005116 0
vn 0.38912334967510304 0.42477237560387937 -0.8174053141871936
vn -0.9914448613738106 0.13052619222005116 0
vn 0.4342170342106242 0.767292915372504 -0.4719291781830117
vn -0.9914448613738106 0.13052619222005116 0
vn 0.4507224683008676 0.8926641342457832 0
vn -0.9914448613738106 0.13052619222005116 0
vn 0.4342170342106242 0.7672929153725041 0.47192917818301183
vn -0.9914448613738106 0.13052619222005116 0
vn 0.389123349675103 0.42477237560387965 0.8174053141871933
vn -0.9914448613738106 0.13052619222005116 0
vn 0.3275242310493362 -0.043119383038036266 0.9438583563660176
vn -0.11303899832181481 -0.8586164364012593 0.5000000000000032
vn -0.13052619222005116 -0.9914448613738106 0
vn -0.11303899832181478 -0.8586164364012591 -0.5000000000000034
vn -0.0652630961100264 -0.4957224306869116 -0.8660254037844352
vn -6.760292063419773e-17 -5.134951624394412e-16 -1
vn 0.0652630961100264 0.4957224306869116 -0.8660254037844352
vn 0.11303899832181483 0.8586164364012593 -0.500000000000003
vn 0.13052619222005116 0.9914448613738106 0
vn 0.11303899832181481 0.8586164364012593 0.5000000000000031
vn 0.06526309611002647 0.495722430686912 0.8660254037844347
vn -0.06526309611002548 -0.4957224306869045 0.8660254037844392
vn 0 0 1
usemtl m_f139901a-1e8d-ab72-65af-d1247c8c78b2
f 31/49/13 42/50/13 32/51/13
f 18/52/14 19/53/14 17/54/14
f 30/55/15 31/56/15 32/57/15
f 19/58/16 20/59/16 17/60/16
f 33/61/17 30/62/17 32/63/17
f 20/64/18 21/65/18 17/66/18
f 34/67/19 33/68/19 32/69/19
f 21/70/20 22/71/20 17/72/20
f 35/73/21 34/74/21 32/75/21
f 22/76/22 23/77/22 17/78/22
f 36/79/23 35/80/23 32/81/23
f 23/82/24 24/83/24 17/84/24
f 37/85/25 36/86/25 32/87/25
f 24/88/26 25/89/26 17/90/26
f 38/91/27 37/92/27 32/93/27
f 25/94/28 26/95/28 17/96/28
f 39/97/29 38/98/29 32/99/29
f 26/100/30 27/101/30 17/102/30
f 40/103/31 39/104/31 32/105/31
f 27/106/32 28/107/32 17/108/32
f 41/109/33 40/110/33 32/111/33
f 28/112/34 29/113/34 17/114/34
f 42/115/35 41/116/35 32/117/35
f 29/118/36 18/119/36 17/120/36
f 31/121/37 30/122/37 20/123/37 19/124/37
f 30/125/38 33/126/38 21/127/38 20/128/38
f 33/129/39 34/130/39 22/131/39 21/132/39
f 34/133/40 35/134/40 23/135/40 22/136/40
f 35/137/41 36/138/41 24/139/41 23/140/41
f 36/141/42 37/142/42 25/143/42 24/144/42
f 37/145/43 38/146/43 26/147/43 25/148/43
f 38/149/44 39/150/44 27/151/44 26/152/44
f 39/153/45 40/154/45 28/155/45 27/156/45
f 40/157/46 41/158/46 29/159/46 28/160/46
f 42/161/47 31/162/47 19/163/47 18/164/47
f 41/165/48 42/166/48 18/167/48 29/168/48