g 01
v 0.007188529 -0.01360537 0.0006688312
v -0.00721664 -0.01701023 0.0006688312
v -0.00721664 -0.01360537 0.0006688312
v 0.007188529 -0.01701023 0.0006688312
v 0.007188529 0.02018128 -0.0006407276
v -0.00721664 -0.01687928 -0.0006407276
v 0.007188529 -0.01687928 -0.0006407276
v -0.00721664 0.02018128 -0.0006407276
v -0.002371266 0.02502666 -0.0006407276
v -0.005776122 0.02358614 -0.0006407276
v 0.002474114 0.02502666 -0.0006407276
v 0.00587897 0.02358614 -0.0006407276
v 0.002474114 0.02502666 -0.0006407276
v -0.002371266 0.02502666 0.0006688312
v -0.002371266 0.02502666 -0.0006407276
v 0.002474114 0.02502666 0.0006688312
v 0.002081245 -0.1089414 -0.03364165
v -0.002109349 -0.1089414 -0.03495121
v -0.002109349 -0.1089414 -0.03364165
v 0.002081245 -0.1089414 -0.03495121
v 0.007188529 -0.02028413 -0.002212197
v -0.00721664 -0.01687928 -0.0006407276
v -0.00721664 -0.02028413 -0.002212197
v 0.007188529 -0.01687928 -0.0006407276
v -0.00721664 -0.02120083 -0.001295507
v 0.007188529 -0.01701023 0.0006688312
v 0.007188529 -0.02120083 -0.001295507
v -0.00721664 -0.01701023 0.0006688312
v 0.007188529 -0.03207017 -0.02460568
v -0.00721664 -0.02028413 -0.002212197
v -0.00721664 -0.03207017 -0.02460568
v 0.007188529 -0.02028413 -0.002212197
v -0.00721664 -0.03311782 -0.02368899
v 0.007188529 -0.02120083 -0.001295507
v 0.007188529 -0.03311782 -0.02368899
v -0.00721664 -0.02120083 -0.001295507
v 0.007188529 -0.03743938 -0.03062966
v -0.00721664 -0.03207017 -0.02460568
v -0.00721664 -0.03743938 -0.03062966
v 0.007188529 -0.03207017 -0.02460568
v -0.00721664 -0.03809416 -0.02945106
v 0.007188529 -0.03311782 -0.02368899
v 0.007188529 -0.03809416 -0.02945106
v -0.00721664 -0.03311782 -0.02368899
v 0.007188529 -0.04477292 -0.03495121
v -0.00721664 -0.03743938 -0.03062966
v -0.00721664 -0.04477292 -0.03495121
v 0.007188529 -0.03743938 -0.03062966
v -0.00721664 -0.04477292 -0.03364165
v 0.007188529 -0.03809416 -0.02945106
v 0.007188529 -0.04477292 -0.03364165
v -0.00721664 -0.03809416 -0.02945106
v 0.007188529 -0.1038341 -0.03364165
v 0.007188529 -0.04477292 -0.03495121
v 0.007188529 -0.1038341 -0.03495121
v 0.007188529 -0.04477292 -0.03364165
v 0.007188529 -0.03743938 -0.03062966
v 0.007188529 -0.03809416 -0.02945106
v 0.007188529 -0.03207017 -0.02460568
v 0.007188529 -0.03311782 -0.02368899
v 0.007188529 -0.02028413 -0.002212197
v 0.007188529 -0.02120083 -0.001295507
v 0.007188529 -0.01687928 -0.0006407276
v 0.007188529 -0.01701023 0.0006688312
v 0.007188529 -0.01360537 0.0006688312
v 0.007188529 -0.004307494 0.0006688312
v 0.007188529 0.02018128 -0.0006407276
v 0.007188529 0.02018128 0.0006688312
v 0.007188529 -0.007843308 0.004204646
v 0.007188529 -0.007843308 0.006430902
v 0.007188529 -0.01006956 0.004204646
v 0.007188529 -0.004307494 0.009966716
v 0.007188529 -0.01360537 0.009966716
v 0.007188529 -0.01006956 0.006430902
v -0.00721664 -0.1038341 -0.03495121
v -0.00721664 -0.04477292 -0.03364165
v -0.00721664 -0.1038341 -0.03364165
v -0.00721664 -0.04477292 -0.03495121
v -0.00721664 -0.03809416 -0.02945106
v -0.00721664 -0.03743938 -0.03062966
v -0.00721664 -0.03311782 -0.02368899
v -0.00721664 -0.03207017 -0.02460568
v -0.00721664 -0.02120083 -0.001295507
v -0.00721664 -0.02028413 -0.002212197
v -0.00721664 -0.01701023 0.0006688312
v -0.00721664 -0.01687928 -0.0006407276
v -0.00721664 -0.01360537 0.0006688312
v -0.00721664 -0.004307494 0.0006688312
v -0.00721664 -0.01360537 0.009966716
v -0.00721664 -0.004307494 0.009966716
v -0.00721664 0.02018128 -0.0006407276
v -0.00721664 0.02018128 0.0006688312
v -0.002109349 -0.1089414 -0.03495121
v -0.00721664 -0.1038341 -0.03495121
v -0.005776122 -0.1075009 -0.03495121
v 0.002081245 -0.1089414 -0.03495121
v 0.007188529 -0.1038341 -0.03495121
v 0.005748011 -0.1075009 -0.03495121
v -0.00721664 -0.04477292 -0.03495121
v 0.007188529 -0.04477292 -0.03495121
v 0.002081245 -0.1089414 -0.03364165
v 0.007188529 -0.1038341 -0.03364165
v 0.005748011 -0.1075009 -0.03364165
v -0.002109349 -0.1089414 -0.03364165
v -0.00721664 -0.1038341 -0.03364165
v -0.005776122 -0.1075009 -0.03364165
v 0.007188529 -0.04477292 -0.03364165
v -0.00721664 -0.04477292 -0.03364165
v -0.00721664 -0.1038341 -0.03364165
v -0.005776122 -0.1075009 -0.03495121
v -0.00721664 -0.1038341 -0.03495121
v -0.005776122 -0.1075009 -0.03364165
v -0.005776122 -0.1075009 -0.03364165
v -0.002109349 -0.1089414 -0.03495121
v -0.005776122 -0.1075009 -0.03495121
v -0.002109349 -0.1089414 -0.03364165
v 0.005748011 -0.1075009 -0.03495121
v 0.002081245 -0.1089414 -0.03364165
v 0.005748011 -0.1075009 -0.03364165
v 0.002081245 -0.1089414 -0.03495121
v 0.007188529 -0.1038341 -0.03495121
v 0.005748011 -0.1075009 -0.03364165
v 0.007188529 -0.1038341 -0.03364165
v 0.005748011 -0.1075009 -0.03495121
v -0.002371266 0.02502666 0.0006688312
v -0.00721664 0.02018128 0.0006688312
v -0.005776122 0.02358614 0.0006688312
v 0.007188529 0.02018128 0.0006688312
v 0.002474114 0.02502666 0.0006688312
v 0.00587897 0.02358614 0.0006688312
v -0.00721664 -0.004307494 0.0006688312
v 0.007188529 -0.004307494 0.0006688312
v -0.002371266 0.02502666 0.0006688312
v -0.005776122 0.02358614 -0.0006407276
v -0.002371266 0.02502666 -0.0006407276
v -0.005776122 0.02358614 0.0006688312
v -0.005776122 0.02358614 0.0006688312
v -0.00721664 0.02018128 -0.0006407276
v -0.005776122 0.02358614 -0.0006407276
v -0.00721664 0.02018128 0.0006688312
v 0.00587897 0.02358614 -0.0006407276
v 0.007188529 0.02018128 0.0006688312
v 0.00587897 0.02358614 0.0006688312
v 0.007188529 0.02018128 -0.0006407276
v 0.002474114 0.02502666 -0.0006407276
v 0.00587897 0.02358614 0.0006688312
v 0.002474114 0.02502666 0.0006688312
v 0.00587897 0.02358614 -0.0006407276
v 0.007188529 -0.004307494 0.009966716
v -0.00721664 -0.01360537 0.009966716
v -0.00721664 -0.004307494 0.009966716
v 0.007188529 -0.01360537 0.009966716
v 0.007188529 -0.01360537 0.009966716
v -0.00721664 -0.01360537 0.0006688312
v -0.00721664 -0.01360537 0.009966716
v 0.007188529 -0.01360537 0.0006688312
v 0.01229581 -0.007843308 0.006430902
v 0.01229581 -0.01006956 0.004204646
v 0.01229581 -0.01006956 0.006430902
v 0.01229581 -0.007843308 0.004204646
v -0.00721664 -0.004307494 0.009966716
v 0.007188529 -0.004307494 0.0006688312
v 0.007188529 -0.004307494 0.009966716
v -0.00721664 -0.004307494 0.0006688312
v 0.01229581 -0.007843308 0.004204646
v 0.007188529 -0.01006956 0.004204646
v 0.01229581 -0.01006956 0.004204646
v 0.007188529 -0.007843308 0.004204646
v 0.01229581 -0.007843308 0.006430902
v 0.007188529 -0.007843308 0.004204646
v 0.01229581 -0.007843308 0.004204646
v 0.007188529 -0.007843308 0.006430902
v 0.01229581 -0.01006956 0.006430902
v 0.007188529 -0.007843308 0.006430902
v 0.01229581 -0.007843308 0.006430902
v 0.007188529 -0.01006956 0.006430902
v 0.01229581 -0.01006956 0.004204646
v 0.007188529 -0.01006956 0.006430902
v 0.01229581 -0.01006956 0.006430902
v 0.007188529 -0.01006956 0.004204646
vt 0.04101938 0.5256608
vt 0.01873702 0.5200902
vt 0.01873702 0.5256608
vt 0.04101938 0.5200902
vt 0.1830695 0.6092197
vt 0.2053518 0.5535138
vt 0.1830695 0.5535138
vt 0.2053518 0.6092197
vt 0.1997812 0.6175756
vt 0.2053518 0.6147903
vt 0.1914253 0.6175756
vt 0.1858547 0.6147903
vt 0.05494586 0.5256608
vt 0.04937527 0.5228755
vt 0.04937527 0.5256608
vt 0.05494586 0.5228755
vt 0.07444293 0.5256608
vt 0.06887234 0.5228755
vt 0.06887234 0.5256608
vt 0.07444293 0.5228755
vt 0.1830695 0.5479432
vt 0.2053518 0.5535138
vt 0.2053518 0.5479432
vt 0.1830695 0.5535138
vt 0.1607871 0.6147903
vt 0.1830695 0.6175756
vt 0.1830695 0.6147903
vt 0.1607871 0.6175756
vt 0.1830695 0.5284461
vt 0.2053518 0.5479432
vt 0.2053518 0.5284461
vt 0.1830695 0.5479432
vt 0.1607871 0.5785815
vt 0.1830695 0.6147903
vt 0.1830695 0.5785815
vt 0.1607871 0.6147903
vt 0.1830695 0.5228755
vt 0.2053518 0.5284461
vt 0.2053518 0.5228755
vt 0.1830695 0.5284461
vt 0.1607871 0.5702255
vt 0.1830695 0.5785815
vt 0.1830695 0.5702255
vt 0.1607871 0.5785815
vt 0.1607871 0.7178462
vt 0.1830695 0.7289874
vt 0.1830695 0.7178462
vt 0.1607871 0.7289874
vt 0.1830695 0.7178462
vt 0.2053518 0.7289874
vt 0.2053518 0.7178462
vt 0.1830695 0.7289874
vt 0.1552165 0.5312314
vt 0.1580018 0.6231462
vt 0.1580018 0.5312314
vt 0.1552165 0.6231462
vt 0.1524312 0.6342874
vt 0.1496459 0.6342874
vt 0.14129 0.6426432
vt 0.14129 0.6426432
vt 0.1078665 0.6621403
vt 0.1078665 0.659355
vt 0.1050812 0.6677109
vt 0.1022959 0.6649256
vt 0.1022959 0.6704962
vt 0.1022959 0.6872079
vt 0.1050812 0.7234168
vt 0.1022959 0.7234168
vt 0.09951059 0.6816373
vt 0.09394 0.6816373
vt 0.09951059 0.6760668
vt 0.08836941 0.6872079
vt 0.08836941 0.6704962
vt 0.09394 0.6760668
vt 0.01873702 0.5312314
vt 0.02152231 0.6231462
vt 0.02152231 0.5312314
vt 0.01873702 0.6231462
vt 0.0270929 0.6342874
vt 0.02430761 0.6342874
vt 0.03544879 0.6426432
vt 0.03544879 0.6426432
vt 0.06887234 0.659355
vt 0.06887234 0.6621403
vt 0.07444293 0.6649256
vt 0.07165764 0.6677109
vt 0.07444293 0.6704962
vt 0.07444293 0.6872079
vt 0.08836941 0.6704962
vt 0.08836941 0.6872079
vt 0.07165764 0.7234168
vt 0.07444293 0.7234168
vt 0.1747136 0.6175756
vt 0.1830695 0.6259314
vt 0.1802842 0.6203609
vt 0.169143 0.6175756
vt 0.1607871 0.6259314
vt 0.1635724 0.6203609
vt 0.1830695 0.7178462
vt 0.1607871 0.7178462
vt 0.1997812 0.6203609
vt 0.2053518 0.6287168
vt 0.2053518 0.6231462
vt 0.1914253 0.6203609
vt 0.1830695 0.6287168
vt 0.1858547 0.6231462
vt 0.2053518 0.7178462
vt 0.1830695 0.7178462
vt 0.02152231 0.5312314
vt 0.01873702 0.5256608
vt 0.01873702 0.5312314
vt 0.02152231 0.5256608
vt 0.06330175 0.5256608
vt 0.06887234 0.5228755
vt 0.06330175 0.5228755
vt 0.06887234 0.5256608
vt 0.08001352 0.5228755
vt 0.07444293 0.5256608
vt 0.08001352 0.5256608
vt 0.07444293 0.5228755
vt 0.1580018 0.5312314
vt 0.1552165 0.5256608
vt 0.1552165 0.5312314
vt 0.1580018 0.5256608
vt 0.1663577 0.5674403
vt 0.1607871 0.5618697
vt 0.1635724 0.5646549
vt 0.1830695 0.5618697
vt 0.1747136 0.5674403
vt 0.1802842 0.5646549
vt 0.1607871 0.5228755
vt 0.1830695 0.5228755
vt 0.04937527 0.5228755
vt 0.04380468 0.5256608
vt 0.04937527 0.5256608
vt 0.04380468 0.5228755
vt 0.07444293 0.7289874
vt 0.07165764 0.7234168
vt 0.07165764 0.7289874
vt 0.07444293 0.7234168
vt 0.1050812 0.7289874
vt 0.1022959 0.7234168
vt 0.1022959 0.7289874
vt 0.1050812 0.7234168
vt 0.05494586 0.5256608
vt 0.06051645 0.5228755
vt 0.05494586 0.5228755
vt 0.06051645 0.5256608
vt 0.2304195 0.6955639
vt 0.2081371 0.6816373
vt 0.2081371 0.6955639
vt 0.2304195 0.6816373
vt 0.2304195 0.7122756
vt 0.2081371 0.6983491
vt 0.2081371 0.7122756
vt 0.2304195 0.6983491
vt 0.2081371 0.6565697
vt 0.2109224 0.6537844
vt 0.2081371 0.6537844
vt 0.2109224 0.6565697
vt 0.2081371 0.7150609
vt 0.2304195 0.7289874
vt 0.2304195 0.7150609
vt 0.2081371 0.7289874
vt 0.2081371 0.6621403
vt 0.216493 0.659355
vt 0.2081371 0.659355
vt 0.216493 0.6621403
vt 0.216493 0.6760668
vt 0.2081371 0.6788521
vt 0.216493 0.6788521
vt 0.2081371 0.6760668
vt 0.216493 0.6649256
vt 0.2081371 0.6677109
vt 0.216493 0.6677109
vt 0.2081371 0.6649256
vt 0.216493 0.6704962
vt 0.2081371 0.6732815
vt 0.216493 0.6732815
vt 0.2081371 0.6704962
vn -0.01587105 -0.01587099 0.9997481
vn -0.01587105 -0.01587099 0.9997481
vn -0.01587105 -0.01587099 0.9997481
vn -0.01587105 -0.01587099 0.9997481
vn -0.01587105 -0.01587099 -0.9997481
vn -0.01587105 -0.01587099 -0.9997481
vn -0.01587105 -0.01587099 -0.9997481
vn -0.01587105 -0.01587099 -0.9997481
vn -0.01587105 -0.01587099 -0.9997481
vn -0.01587105 -0.01587099 -0.9997481
vn -0.01587105 -0.01587099 -0.9997481
vn -0.01587105 -0.01587099 -0.9997481
vn -0.01587105 0.999874 -0.000345267
vn -0.01587105 0.999874 -0.000345267
vn -0.01587105 0.999874 -0.000345267
vn -0.01587105 0.999874 -0.000345267
vn -0.01587105 -0.999874 -0.000345267
vn -0.01587105 -0.999874 -0.000345267
vn -0.01587105 -0.999874 -0.000345267
vn -0.01587105 -0.999874 -0.000345267
vn -0.01587105 0.4285175 -0.9033941
vn -0.01587105 0.4285175 -0.9033941
vn -0.01587105 0.4285175 -0.9033941
vn -0.01587105 0.4285175 -0.9033941
vn -0.01587105 -0.4285174 0.9033942
vn -0.01587105 -0.4285174 0.9033942
vn -0.01587105 -0.4285174 0.9033942
vn -0.01587105 -0.4285174 0.9033942
vn -0.01587105 0.8729059 -0.4876305
vn -0.01587105 0.8729059 -0.4876305
vn -0.01587105 0.8729059 -0.4876305
vn -0.01587105 0.8729059 -0.4876305
vn -0.01587105 -0.8729059 0.4876305
vn -0.01587105 -0.8729059 0.4876305
vn -0.01587105 -0.8729059 0.4876305
vn -0.01587105 -0.8729059 0.4876305
vn -0.01587105 0.7459378 -0.6658264
vn -0.01587105 0.7459378 -0.6658264
vn -0.01587105 0.7459378 -0.6658264
vn -0.01587105 0.7459378 -0.6658264
vn -0.01587105 -0.7459377 0.6658266
vn -0.01587105 -0.7459377 0.6658266
vn -0.01587105 -0.7459377 0.6658266
vn -0.01587105 -0.7459377 0.6658266
vn -0.01587105 0.4920015 -0.8704497
vn -0.01587105 0.4920015 -0.8704497
vn -0.01587105 0.4920015 -0.8704497
vn -0.01587105 0.4920015 -0.8704497
vn -0.01587105 -0.5237435 0.8517281
vn -0.01587105 -0.5237435 0.8517281
vn -0.01587105 -0.5237435 0.8517281
vn -0.01587105 -0.5237435 0.8517281
vn 0.999874 0.01587105 -0.0003439156
vn 0.999874 0.01587105 -0.0003439156
vn 0.999874 0.01587105 -0.0003439156
vn 0.999874 0.01587105 -0.0003439156
vn 0.999874 0.01587105 -0.0003439156
vn 0.999874 0.01587105 -0.0003439156
vn 0.999874 0.01587105 -0.0003439156
vn 0.999874 0.01587105 -0.0003439156
vn 0.999874 0.01587105 -0.0003439156
vn 0.999874 0.01587105 -0.0003439156
vn 0.999874 0.01587105 -0.0003439156
vn 0.999874 0.01587105 -0.0003439156
vn 0.999874 0.01587105 -0.0003439156
vn 0.999874 0.01587105 -0.0003439156
vn 0.999874 0.01587105 -0.0003439156
vn 0.999874 0.01587105 -0.0003439156
vn 0.999874 0.01587105 -0.0003439156
vn 0.999874 0.01587105 -0.0003439156
vn 0.999874 0.01587105 -0.0003439156
vn 0.999874 0.01587105 -0.0003439156
vn 0.999874 0.01587105 -0.0003439156
vn 0.999874 0.01587105 -0.0003439156
vn -0.999874 0.01587105 -0.0003439156
vn -0.999874 0.01587105 -0.0003439156
vn -0.999874 0.01587105 -0.0003439156
vn -0.999874 0.01587105 -0.0003439156
vn -0.999874 0.01587105 -0.0003439156
vn -0.999874 0.01587105 -0.0003439156
vn -0.999874 0.01587105 -0.0003439156
vn -0.999874 0.01587105 -0.0003439156
vn -0.999874 0.01587105 -0.0003439156
vn -0.999874 0.01587105 -0.0003439156
vn -0.999874 0.01587105 -0.0003439156
vn -0.999874 0.01587105 -0.0003439156
vn -0.999874 0.01587105 -0.0003439156
vn -0.999874 0.01587105 -0.0003439156
vn -0.999874 0.01587105 -0.0003439156
vn -0.999874 0.01587105 -0.0003439156
vn -0.999874 0.01587105 -0.0003439156
vn -0.999874 0.01587105 -0.0003439156
vn -0.01587105 0.01587105 -0.9997481
vn -0.01587105 0.01587105 -0.9997481
vn -0.01587105 0.01587105 -0.9997481
vn -0.01587105 0.01587105 -0.9997481
vn -0.01587105 0.01587105 -0.9997481
vn -0.01587105 0.01587105 -0.9997481
vn -0.01587105 0.01587105 -0.9997481
vn -0.01587105 0.01587105 -0.9997481
vn -0.01587105 0.01587105 0.9997481
vn -0.01587105 0.01587105 0.9997481
vn -0.01587105 0.01587105 0.9997481
vn -0.01587105 0.01587105 0.9997481
vn -0.01587105 0.01587105 0.9997481
vn -0.01587105 0.01587105 0.9997481
vn -0.01587105 0.01587105 0.9997481
vn -0.01587105 0.01587105 0.9997481
vn -0.9207517 -0.390149 0
vn -0.9207517 -0.390149 0
vn -0.9207517 -0.390149 0
vn -0.9207517 -0.390149 0
vn -0.390149 -0.9207517 0
vn -0.390149 -0.9207517 0
vn -0.390149 -0.9207517 0
vn -0.390149 -0.9207517 0
vn 0.390149 -0.9207517 0
vn 0.390149 -0.9207517 0
vn 0.390149 -0.9207517 0
vn 0.390149 -0.9207517 0
vn 0.9207517 -0.390149 0
vn 0.9207517 -0.390149 0
vn 0.9207517 -0.390149 0
vn 0.9207517 -0.390149 0
vn -0.01587105 -0.01587099 0.9997481
vn -0.01587105 -0.01587099 0.9997481
vn -0.01587105 -0.01587099 0.9997481
vn -0.01587105 -0.01587099 0.9997481
vn -0.01587105 -0.01587099 0.9997481
vn -0.01587105 -0.01587099 0.9997481
vn -0.01587105 -0.01587099 0.9997481
vn -0.01587105 -0.01587099 0.9997481
vn -0.390149 0.9207517 0
vn -0.390149 0.9207517 0
vn -0.390149 0.9207517 0
vn -0.390149 0.9207517 0
vn -0.9207517 0.390149 0
vn -0.9207517 0.390149 0
vn -0.9207517 0.390149 0
vn -0.9207517 0.390149 0
vn 0.9207517 0.390149 0
vn 0.9207517 0.390149 0
vn 0.9207517 0.390149 0
vn 0.9207517 0.390149 0
vn 0.390149 0.9207517 0
vn 0.390149 0.9207517 0
vn 0.390149 0.9207517 0
vn 0.390149 0.9207517 0
vn -0.01587105 -0.01587099 0.9997481
vn -0.01587105 -0.01587099 0.9997481
vn -0.01587105 -0.01587099 0.9997481
vn -0.01587105 -0.01587099 0.9997481
vn -0.01587105 -0.999874 -0.000345267
vn -0.01587105 -0.999874 -0.000345267
vn -0.01587105 -0.999874 -0.000345267
vn -0.01587105 -0.999874 -0.000345267
vn 0.999874 0.01587105 -0.0003439156
vn 0.999874 0.01587105 -0.0003439156
vn 0.999874 0.01587105 -0.0003439156
vn 0.999874 0.01587105 -0.0003439156
vn -0.01587105 0.999874 -0.000345267
vn -0.01587105 0.999874 -0.000345267
vn -0.01587105 0.999874 -0.000345267
vn -0.01587105 0.999874 -0.000345267
vn -0.01587105 0.01587105 -0.9997481
vn -0.01587105 0.01587105 -0.9997481
vn -0.01587105 0.01587105 -0.9997481
vn -0.01587105 0.01587105 -0.9997481
vn -0.01587105 0.999874 -0.000345267
vn -0.01587105 0.999874 -0.000345267
vn -0.01587105 0.999874 -0.000345267
vn -0.01587105 0.999874 -0.000345267
vn -0.01587105 -0.01587099 0.9997481
vn -0.01587105 -0.01587099 0.9997481
vn -0.01587105 -0.01587099 0.9997481
vn -0.01587105 -0.01587099 0.9997481
vn -0.01587105 -0.999874 -0.000345267
vn -0.01587105 -0.999874 -0.000345267
vn -0.01587105 -0.999874 -0.000345267
vn -0.01587105 -0.999874 -0.000345267
g 01_0
f 3/3/3 2/2/2 1/1/1
f 1/1/1 2/2/2 4/4/4
f 7/7/7 6/6/6 5/5/5
f 5/5/5 6/6/6 8/8/8
f 9/9/9 5/5/5 8/8/8
f 10/10/10 9/9/9 8/8/8
f 11/11/11 5/5/5 9/9/9
f 12/12/12 5/5/5 11/11/11
f 15/15/15 14/14/14 13/13/13
f 13/13/13 14/14/14 16/16/16
f 19/19/19 18/18/18 17/17/17
f 17/17/17 18/18/18 20/20/20
f 23/23/23 22/22/22 21/21/21
f 21/21/21 22/22/22 24/24/24
f 27/27/27 26/26/26 25/25/25
f 25/25/25 26/26/26 28/28/28
f 31/31/31 30/30/30 29/29/29
f 29/29/29 30/30/30 32/32/32
f 35/35/35 34/34/34 33/33/33
f 33/33/33 34/34/34 36/36/36
f 39/39/39 38/38/38 37/37/37
f 37/37/37 38/38/38 40/40/40
f 43/43/43 42/42/42 41/41/41
f 41/41/41 42/42/42 44/44/44
f 47/47/47 46/46/46 45/45/45
f 45/45/45 46/46/46 48/48/48
f 51/51/51 50/50/50 49/49/49
f 49/49/49 50/50/50 52/52/52
f 55/55/55 54/54/54 53/53/53
f 53/53/53 54/54/54 56/56/56
f 54/54/54 57/57/57 56/56/56
f 56/56/56 57/57/57 58/58/58
f 57/57/57 59/59/59 58/58/58
f 58/58/58 59/59/59 60/60/60
f 59/59/59 61/61/61 60/60/60
f 60/60/60 61/61/61 62/62/62
f 61/61/61 63/63/63 62/62/62
f 62/62/62 63/63/63 64/64/64
f 65/65/65 64/64/64 63/63/63
f 66/66/66 65/65/65 63/63/63
f 67/67/67 66/66/66 63/63/63
f 68/68/68 66/66/66 67/67/67
f 69/69/69 65/65/65 66/66/66
f 69/69/69 66/66/66 70/70/70
f 71/71/71 65/65/65 69/69/69
f 70/70/70 66/66/66 72/72/72
f 71/71/71 73/73/73 65/65/65
f 70/70/70 72/72/72 74/74/74
f 74/74/74 73/73/73 71/71/71
f 74/74/74 72/72/72 73/73/73
f 77/77/77 76/76/76 75/75/75
f 75/75/75 76/76/76 78/78/78
f 76/76/76 79/79/79 78/78/78
f 78/78/78 79/79/79 80/80/80
f 79/79/79 81/81/81 80/80/80
f 80/80/80 81/81/81 82/82/82
f 81/81/81 83/83/83 82/82/82
f 82/82/82 83/83/83 84/84/84
f 83/83/83 85/85/85 84/84/84
f 84/84/84 85/85/85 86/86/86
f 87/87/87 86/86/86 85/85/85
f 88/88/88 86/86/86 87/87/87
f 89/89/89 88/88/88 87/87/87
f 90/90/90 88/88/88 89/89/89
f 86/86/86 88/88/88 91/91/91
f 91/91/91 88/88/88 92/92/92
f 95/95/95 94/94/94 93/93/93
f 93/93/93 94/94/94 96/96/96
f 96/96/96 94/94/94 97/97/97
f 98/98/98 96/96/96 97/97/97
f 94/94/94 99/99/99 97/97/97
f 97/97/97 99/99/99 100/100/100
f 103/103/103 102/102/102 101/101/101
f 101/101/101 102/102/102 104/104/104
f 104/104/104 102/102/102 105/105/105
f 106/106/106 104/104/104 105/105/105
f 102/102/102 107/107/107 105/105/105
f 105/105/105 107/107/107 108/108/108
f 111/111/111 110/110/110 109/109/109
f 109/109/109 110/110/110 112/112/112
f 115/115/115 114/114/114 113/113/113
f 113/113/113 114/114/114 116/116/116
f 119/119/119 118/118/118 117/117/117
f 117/117/117 118/118/118 120/120/120
f 123/123/123 122/122/122 121/121/121
f 121/121/121 122/122/122 124/124/124
f 127/127/127 126/126/126 125/125/125
f 126/126/126 128/128/128 125/125/125
f 125/125/125 128/128/128 129/129/129
f 130/130/130 129/129/129 128/128/128
f 126/126/126 131/131/131 128/128/128
f 128/128/128 131/131/131 132/132/132
f 135/135/135 134/134/134 133/133/133
f 133/133/133 134/134/134 136/136/136
f 139/139/139 138/138/138 137/137/137
f 137/137/137 138/138/138 140/140/140
f 143/143/143 142/142/142 141/141/141
f 141/141/141 142/142/142 144/144/144
f 147/147/147 146/146/146 145/145/145
f 145/145/145 146/146/146 148/148/148
f 151/151/151 150/150/150 149/149/149
f 149/149/149 150/150/150 152/152/152
f 155/155/155 154/154/154 153/153/153
f 153/153/153 154/154/154 156/156/156
f 159/159/159 158/158/158 157/157/157
f 157/157/157 158/158/158 160/160/160
f 163/163/163 162/162/162 161/161/161
f 161/161/161 162/162/162 164/164/164
f 167/167/167 166/166/166 165/165/165
f 165/165/165 166/166/166 168/168/168
f 171/171/171 170/170/170 169/169/169
f 169/169/169 170/170/170 172/172/172
f 175/175/175 174/174/174 173/173/173
f 173/173/173 174/174/174 176/176/176
f 179/179/179 178/178/178 177/177/177
f 177/177/177 178/178/178 180/180/180
