g [mod]_Knight_Gardbrace_l
v 0.2291672 1.561331 0.226156
v 0.1543798 1.578928 0.2371541
v 0.1389824 1.664713 0.2327549
v 0.2203687 1.640517 0.2173574
v 0.3259509 1.548133 0.1953612
v 0.1257846 1.7439 0.2019601
v 0.3039546 1.62292 0.1865626
v 0.3831412 1.548133 0.1557678
v 0.3611449 1.618521 0.1535682
v 0.4161356 1.561331 0.08537975
v 0.3083538 1.688909 0.1601671
v 0.3919397 1.633918 0.09417823
v 0.3809416 1.587726 -0.002605438
v 0.2159694 1.713105 0.1953612
v 0.3633446 1.658114 0.03038901
v 0.2929564 1.629519 -0.06859428
v 0.3303501 1.706506 0.1095757
v 0.2093705 1.774695 0.1227734
v 0.1147865 1.80109 0.1381708
v 0.301755 1.693308 -0.01580319
v 0.200572 1.677911 -0.09059057
v 0.3039546 1.721903 0.05018568
v 0.2071709 1.779094 0.04138714
v 0.1125869 1.809889 0.05018568
v 0.2049713 1.737301 -0.03120059
v 0.1279843 1.717504 -0.09059057
v 0.1191857 1.776894 -0.0246017
v 0.1279843 1.717504 -0.09059057
v 0.1191857 1.776894 -0.0246017
v 0.1125869 1.787892 -0.04219875
v 0.1125869 1.809889 0.05018568
v 0.1015887 1.834085 0.04358679
v 0.1147865 1.80109 0.1381708
v 0.09938911 1.834085 0.1469693
v 0.1257846 1.7439 0.2019601
v 0.1125869 1.785693 0.2327549
v 0.1389824 1.664713 0.2327549
v 0.1345831 1.68451 0.2943445
v 0.1389824 1.649316 0.2569508
v 0.1543798 1.578928 0.2371541
v 0.1499805 1.585527 0.2745478
v 0.1213854 1.715305 -0.09059057
v 0.105988 1.785693 -0.04439837
v 0.1125869 1.774695 -0.0246017
v 0.1037883 1.805489 0.0523853
v 0.09498984 1.834085 0.04578641
v 0.1081876 1.79889 0.1381708
v 0.09498984 1.834085 0.1491689
v 0.1169861 1.7417 0.2019601
v 0.1081876 1.785693 0.2349545
v 0.1301839 1.662514 0.2327549
v 0.1279843 1.68451 0.2943445
v 0.1323835 1.649316 0.2569508
v 0.1477809 1.576728 0.2371541
v 0.1433817 1.585527 0.2723482
vt 0.3784863 0.8985451
vt 0.3936705 0.8681768
vt 0.3670981 0.8416044
vt 0.35571 0.8757688
vt 0.359506 0.9327096
vt 0.3367297 0.8226241
vt 0.3405258 0.9061373
vt 0.3367297 0.9516898
vt 0.3253416 0.9251175
vt 0.3063613 0.959282
vt 0.3177495 0.8947491
vt 0.2987692 0.9327096
vt 0.2646047 0.9516898
vt 0.3329337 0.8605847
vt 0.2759929 0.9251175
vt 0.2266442 0.9213215
vt 0.2987692 0.8985451
vt 0.2987692 0.8491965
vt 0.3025652 0.811236
vt 0.2532166 0.9023412
vt 0.207664 0.883361
vt 0.2759929 0.8909531
vt 0.2684008 0.8529925
vt 0.2646047 0.8150321
vt 0.2380324 0.8643807
vt 0.2000719 0.8491965
vt 0.2342364 0.8264202
vt 0.2114601 0.8340123
vt 0.2380324 0.811236
vt 0.2304403 0.80744
vt 0.2684008 0.8036439
vt 0.2646047 0.7960518
vt 0.3025652 0.8036439
vt 0.2987692 0.7922558
vt 0.3329337 0.811236
vt 0.3367297 0.7922558
vt 0.3633021 0.8264202
vt 0.3784863 0.8036439
vt 0.3746902 0.8264202
vt 0.3860784 0.8491965
vt 0.3974665 0.8378084
vt 0.01786149 0.9137294
vt 0.03684174 0.9403017
vt 0.04443384 0.9365057
vt 0.07100619 0.9516898
vt 0.06341409 0.963078
vt 0.1013746 0.963078
vt 0.09757854 0.9782622
vt 0.1355391 0.963078
vt 0.131743 0.9858543
vt 0.1621114 0.9516898
vt 0.1734996 0.9782622
vt 0.1734996 0.959282
vt 0.1886837 0.9365057
vt 0.1962758 0.9516898
vn 0.2978622 0.1411374 0.9441177
vn 0.1724338 0.1097802 0.9788845
vn 0.2037909 0.2665658 0.9420254
vn 0.2978622 0.2352086 0.9251783
vn 0.4546478 0.2038516 0.8670294
vn 0.2978622 0.6114941 0.7330437
vn 0.4232907 0.2352086 0.8749296
vn 0.7055047 0.2352086 0.6685358
vn 0.6741476 0.32928 0.6611351
vn 0.9250045 0.32928 0.189582
vn 0.517362 0.5174227 0.6816233
vn 0.8912596 0.4534935 0
vn 0.799576 0.3919942 -0.454993
vn 0.3605765 0.5174227 0.7760531
vn 0.7682189 0.5487798 -0.3296671
vn 0.5487192 0.5174227 -0.6566437
vn 0.6741476 0.7055653 0.2184092
vn 0.3919336 0.8623509 0.3205292
vn 0.2978622 0.893708 0.3355057
vn 0.5487192 0.6428511 -0.534462
vn 0.3919336 0.6428511 -0.6581265
vn 0.5800762 0.7996367 -0.1552182
vn 0.3919336 0.893708 -0.218344
vn 0.2978622 0.9250652 -0.2356534
vn 0.3919336 0.7369225 -0.5507571
vn 0.3292193 0.7055653 -0.6275286
vn 0.2978622 0.7996367 -0.5214012
vn 0.9250045 0.3606371 -0.1196143
vn 0.9207363 0.3901855 0
vn 0.9250045 0.3606371 -0.1196143
vn 0.8936474 0.4233514 -0.1488891
vn 0.8936474 0.4233514 -0.1488891
vn 0.9250045 0.3606371 0.1196143
vn 0.9250045 0.3606371 0.1196143
vn 0.9563616 0.2352086 0.1733477
vn 0.9563616 0.2665658 0.1196461
vn 0.9850907 0.1720355 0
vn 0.9850907 0.1720355 0
vn 0.9877187 0.1411374 0.06702226
vn 0.9793595 0.2021264 0
vn 0.9793595 0.2021264 0
vn -0.9547693 -0.2973475 0
vn -0.9547693 -0.2973475 0
vn -0.9547693 -0.2973475 0
vn -0.9455501 -0.3254769 0
vn -0.9455501 -0.3254769 0
vn -0.9547693 -0.2973475 0
vn -0.9547693 -0.2973475 0
vn -0.9793738 -0.2020567 0
vn -0.9728146 -0.2315855 0
vn -0.9851028 -0.1719665 0
vn -0.9851028 -0.1719665 0
vn -0.9877794 -0.1410767 -0.06625135
vn -0.9793738 -0.2020567 0
vn -0.9793738 -0.2020567 0
g [mod]_Knight_Gardbrace_l_0
f 3/3/3 2/2/2 1/1/1
f 4/4/4 3/3/3 1/1/1
f 4/4/4 1/1/1 5/5/5
f 6/6/6 3/3/3 4/4/4
f 7/7/7 4/4/4 5/5/5
f 7/7/7 5/5/5 8/8/8
f 9/9/9 7/7/7 8/8/8
f 9/9/9 8/8/8 10/10/10
f 7/7/7 11/11/11 4/4/4
f 9/9/9 11/11/11 7/7/7
f 12/12/12 9/9/9 10/10/10
f 11/11/11 9/9/9 12/12/12
f 12/12/12 10/10/10 13/13/13
f 14/14/14 6/6/6 4/4/4
f 11/11/11 14/14/14 4/4/4
f 15/15/15 12/12/12 13/13/13
f 15/15/15 13/13/13 16/16/16
f 17/17/17 11/11/11 12/12/12
f 14/14/14 11/11/11 17/17/17
f 17/17/17 12/12/12 15/15/15
f 14/14/14 18/18/18 6/6/6
f 18/18/18 14/14/14 17/17/17
f 18/18/18 19/19/19 6/6/6
f 20/20/20 15/15/15 16/16/16
f 20/20/20 16/16/16 21/21/21
f 22/22/22 17/17/17 15/15/15
f 18/18/18 17/17/17 22/22/22
f 20/20/20 22/22/22 15/15/15
f 18/18/18 23/23/23 19/19/19
f 23/23/23 18/18/18 22/22/22
f 23/23/23 24/24/24 19/19/19
f 25/25/25 20/20/20 21/21/21
f 22/22/22 20/20/20 25/25/25
f 23/23/23 22/22/22 25/25/25
f 23/23/23 25/25/25 24/24/24
f 25/25/25 21/21/21 26/26/26
f 25/25/25 27/27/27 24/24/24
f 27/27/27 25/25/25 26/26/26
f 30/30/30 29/29/29 28/28/28
f 29/29/29 30/30/30 31/31/31
f 30/30/30 32/32/32 31/31/31
f 31/31/31 32/32/32 33/33/33
f 32/32/32 34/34/34 33/33/33
f 33/33/33 34/34/34 35/35/35
f 34/34/34 36/36/36 35/35/35
f 35/35/35 36/36/36 37/37/37
f 36/36/36 38/38/38 37/37/37
f 38/38/38 39/39/39 37/37/37
f 37/37/37 39/39/39 40/40/40
f 39/39/39 41/41/41 40/40/40
f 44/44/44 43/43/43 42/42/42
f 43/43/43 44/44/44 45/45/45
f 46/46/46 43/43/43 45/45/45
f 46/46/46 45/45/45 47/47/47
f 48/48/48 46/46/46 47/47/47
f 48/48/48 47/47/47 49/49/49
f 50/50/50 48/48/48 49/49/49
f 50/50/50 49/49/49 51/51/51
f 52/52/52 50/50/50 51/51/51
f 53/53/53 52/52/52 51/51/51
f 53/53/53 51/51/51 54/54/54
f 55/55/55 53/53/53 54/54/54
