g [mod]_Knight_Hook
v -0.808286 0.1957532 0.7456715
v -0.7983038 0.2692572 0.8645482
v -0.7983038 0.2792392 0.8500289
v -0.7983038 0.3799668 0.9552938
v -0.7983038 0.3899488 0.9235328
v -0.7983038 0.5387715 1.028798
v -0.7983038 0.5469387 0.9770727
v -0.7983038 0.6658154 1.059651
v -0.7983038 0.6658154 0.9961293
v -0.7983038 0.7919517 1.054206
v -0.7983038 0.7810622 0.9797951
v -0.7992114 0.889957 1.013371
v -0.7983038 0.8518438 0.9208105
v -0.7983038 0.9262551 0.949849
v -0.8019338 0.9543862 1.022445
v -0.8019338 0.9752578 0.9852397
v -0.808286 1.019723 1.063281
v -0.7983038 0.9362372 0.9244403
v -0.7983038 0.9407744 0.8173605
v -0.8010262 1.030613 0.9543862
v -0.7983038 0.8627332 0.8200828
v -0.8010262 1.039687 0.8772526
v -0.808286 1.124081 1.02426
v -0.7983038 0.9090135 0.7483938
v -0.7983038 0.8300649 0.6803346
v -0.7983038 0.8128232 0.7384118
v -0.7983038 0.7111881 0.6367768
v -0.7983038 0.7066509 0.6721675
v -0.7983038 0.6267948 0.6612781
v -0.7983038 0.703021 0.5968487
v -0.7983038 0.6394991 0.5977561
v -0.7983038 0.2792392 0.8500289
v -0.808286 0.2883137 0.8300649
v -0.808286 0.1957532 0.7456715
v -0.7983038 0.3899488 0.9235328
v -0.808286 0.3972085 0.8908644
v -0.7983038 0.5469387 0.9770727
v -0.808286 0.5551057 0.9353297
v -0.7983038 0.6658154 0.9961293
v -0.808286 0.663093 0.9425894
v -0.7983038 0.7810622 0.9797951
v -0.808286 0.7302448 0.9253477
v -0.7983038 0.8518438 0.9208105
v -0.808286 0.7738026 0.8826972
v -0.7983038 0.8627332 0.8200828
v -0.808286 0.784692 0.8246201
v -0.7983038 0.8128232 0.7384118
v -0.808286 0.7629131 0.7719877
v -0.7983038 0.7066509 0.6721675
v -0.808286 0.6875943 0.7075583
v -0.7983038 0.6267948 0.6612781
v -0.808286 0.6104605 0.6939465
v -0.808286 0.7302448 0.3119076
v -0.808286 0.7320596 0.2502006
v -0.7765249 0.7066509 0.2483857
v -0.7765249 0.7048359 0.3110001
v -0.808286 0.7338746 0.5233448
v -0.7774324 0.641314 0.2438484
v -0.7756175 0.7048359 0.5251597
v -0.808286 0.7356894 0.5950338
v -0.7756175 0.7066509 0.5968487
v -0.7774324 0.6394991 0.3091852
v -0.808286 0.6159053 0.2429409
v -0.7765249 0.6258873 0.5260671
v -0.7765249 0.6286097 0.5968487
v -0.808286 0.6104605 0.5260671
v -0.808286 0.6122755 0.5977561
v -0.8400469 0.6286097 0.5968487
v -0.8400469 0.6258873 0.5260671
v -0.8409543 0.7066509 0.5968487
v -0.8409543 0.7048359 0.5251597
v -0.808286 0.7356894 0.5950338
v -0.7765249 0.6258873 0.5260671
v -0.808286 0.7338746 0.5233448
v -0.808286 0.6140903 0.3082778
v -0.808286 0.6104605 0.5260671
v -0.8400469 0.6258873 0.5260671
v -0.8400469 0.6394991 0.3091852
v -0.8400469 0.641314 0.2438484
v -0.8400469 0.7048359 0.3110001
v -0.808286 0.7302448 0.3119076
v -0.8400469 0.7066509 0.2483857
v -0.808286 0.7320596 0.2502006
v -0.808286 0.1957532 0.7456715
v -0.8182679 0.2792392 0.8500289
v -0.8182679 0.2692572 0.8645482
v -0.8182679 0.3799668 0.9552938
v -0.8182679 0.3899488 0.9235328
v -0.8182679 0.5387715 1.028798
v -0.8182679 0.5469387 0.9770727
v -0.8182679 0.6658154 1.059651
v -0.8182679 0.6658154 0.9961293
v -0.8182679 0.7919517 1.054206
v -0.8182679 0.7810622 0.9797951
v -0.8173605 0.889957 1.013371
v -0.8182679 0.8518438 0.9208105
v -0.8182679 0.9262551 0.949849
v -0.8146381 0.9543862 1.022445
v -0.8146381 0.9752578 0.9852397
v -0.808286 1.019723 1.063281
v -0.8182679 0.9362372 0.9244403
v -0.8182679 0.9407744 0.8173605
v -0.8155456 1.030613 0.9543862
v -0.8182679 0.8627332 0.8200828
v -0.8155456 1.039687 0.8772526
v -0.808286 1.124081 1.02426
v -0.8182679 0.9090135 0.7483938
v -0.8182679 0.8300649 0.6803346
v -0.8182679 0.8128232 0.7384118
v -0.8182679 0.7111881 0.6367768
v -0.8182679 0.7066509 0.6721675
v -0.8182679 0.6267948 0.6612781
v -0.8182679 0.703021 0.5968487
v -0.8182679 0.6394991 0.5977561
v -0.8182679 0.2792392 0.8500289
v -0.808286 0.1957532 0.7456715
v -0.808286 0.2883137 0.8300649
v -0.8182679 0.3899488 0.9235328
v -0.808286 0.3972085 0.8908644
v -0.8182679 0.5469387 0.9770727
v -0.808286 0.5551057 0.9353297
v -0.8182679 0.6658154 0.9961293
v -0.808286 0.663093 0.9425894
v -0.8182679 0.7810622 0.9797951
v -0.808286 0.7302448 0.9253477
v -0.8182679 0.8518438 0.9208105
v -0.808286 0.7738026 0.8826972
v -0.8182679 0.8627332 0.8200828
v -0.808286 0.784692 0.8246201
v -0.8182679 0.8128232 0.7384118
v -0.808286 0.7629131 0.7719877
v -0.8182679 0.7066509 0.6721675
v -0.808286 0.6875943 0.7075583
v -0.8182679 0.6267948 0.6612781
v -0.808286 0.6104605 0.6939465
v -0.8182679 0.6267948 0.6612781
v -0.7983038 0.6394991 0.5977561
v -0.8182679 0.6394991 0.5977561
v -0.7983038 0.6267948 0.6612781
v -0.808286 0.6104605 0.6939465
v -0.7983038 0.7111881 0.6367768
v -0.8182679 0.7111881 0.6367768
v -0.8182679 0.703021 0.5968487
v -0.7983038 0.703021 0.5968487
v -0.7983038 0.8300649 0.6803346
v -0.8182679 0.7111881 0.6367768
v -0.7983038 0.7111881 0.6367768
v -0.8182679 0.8300649 0.6803346
v -0.7983038 0.9090135 0.7483938
v -0.8182679 0.9090135 0.7483938
v -0.7983038 0.9407744 0.8173605
v -0.8182679 0.9407744 0.8173605
v -0.8010262 1.039687 0.8772526
v -0.8182679 0.9407744 0.8173605
v -0.7983038 0.9407744 0.8173605
v -0.8155456 1.039687 0.8772526
v -0.808286 1.124081 1.02426
v -0.808286 1.124081 1.02426
v -0.8010262 1.030613 0.9543862
v -0.8155456 1.030613 0.9543862
v -0.7983038 0.9362372 0.9244403
v -0.8182679 0.9362372 0.9244403
v -0.8182679 0.9262551 0.949849
v -0.8182679 0.9362372 0.9244403
v -0.7983038 0.9362372 0.9244403
v -0.7983038 0.9262551 0.949849
v -0.8019338 0.9752578 0.9852397
v -0.8182679 0.9262551 0.949849
v -0.7983038 0.9262551 0.949849
v -0.8146381 0.9752578 0.9852397
v -0.808286 1.019723 1.063281
v -0.808286 1.019723 1.063281
v -0.8019338 0.9543862 1.022445
v -0.8146381 0.9543862 1.022445
v -0.7992114 0.889957 1.013371
v -0.8173605 0.889957 1.013371
v -0.7983038 0.7919517 1.054206
v -0.8173605 0.889957 1.013371
v -0.7992114 0.889957 1.013371
v -0.8182679 0.7919517 1.054206
v -0.7983038 0.6658154 1.059651
v -0.8182679 0.6658154 1.059651
v -0.7983038 0.5387715 1.028798
v -0.8182679 0.5387715 1.028798
v -0.7983038 0.3799668 0.9552938
v -0.8182679 0.3799668 0.9552938
v -0.7983038 0.2692572 0.8645482
v -0.8182679 0.2692572 0.8645482
v -0.808286 0.1957532 0.7456715
v -0.7765249 0.7066509 0.2483857
v -0.808286 0.7320596 0.2502006
v -0.8400469 0.7066509 0.2483857
v -0.8400469 0.641314 0.2438484
v -0.7774324 0.641314 0.2438484
v -0.808286 0.6159053 0.2429409
v -0.8182679 0.703021 0.5968487
v -0.8400469 0.6286097 0.5968487
v -0.8409543 0.7066509 0.5968487
v -0.808286 0.7356894 0.5950338
v -0.8182679 0.6394991 0.5977561
v -0.808286 0.6122755 0.5977561
v -0.7983038 0.6394991 0.5977561
v -0.7765249 0.6286097 0.5968487
v -0.7983038 0.703021 0.5968487
v -0.7756175 0.7066509 0.5968487
vt 0.9297898 0.6111624
vt 0.9631698 0.6506115
vt 0.9571007 0.6536461
vt 0.9813771 0.7052334
vt 0.9692389 0.7021989
vt 0.9874462 0.7719934
vt 0.9662044 0.7689588
vt 0.9813771 0.8205462
vt 0.9571007 0.8144771
vt 0.9631698 0.8660643
vt 0.9358588 0.8539262
vt 0.9358588 0.8964097
vt 0.9055134 0.8721334
vt 0.908548 0.9024789
vt 0.9297898 0.9206861
vt 0.9146171 0.9237207
vt 0.9358588 0.9510317
vt 0.8964097 0.9024789
vt 0.8569607 0.8903407
vt 0.8964097 0.9388934
vt 0.8690989 0.8630298
vt 0.8660643 0.9328244
vt 0.908548 0.9844116
vt 0.8357189 0.8690989
vt 0.8205462 0.8326843
vt 0.8448225 0.8326843
vt 0.8205462 0.7810971
vt 0.8357189 0.7841316
vt 0.8417879 0.7537861
vt 0.8084079 0.775028
vt 0.8175116 0.7507516
vt 0.9571007 0.6536461
vt 0.9479971 0.6536461
vt 0.9297898 0.6111624
vt 0.9692389 0.7021989
vt 0.9540662 0.7021989
vt 0.9662044 0.7689588
vt 0.9510317 0.7659243
vt 0.9571007 0.8144771
vt 0.9388934 0.8053734
vt 0.9358588 0.8539262
vt 0.9237207 0.8266152
vt 0.9055134 0.8721334
vt 0.9024789 0.8387535
vt 0.8690989 0.8630298
vt 0.881237 0.8326843
vt 0.8448225 0.8326843
vt 0.8630298 0.8175116
vt 0.8357189 0.7841316
vt 0.8508916 0.7841316
vt 0.8417879 0.7537861
vt 0.8569607 0.7537861
vt 0.8964097 0.3168115
vt 0.8964097 0.3380533
vt 0.908548 0.3380533
vt 0.908548 0.3168115
vt 0.8933753 0.2470169
vt 0.9297898 0.3380533
vt 0.908548 0.2470169
vt 0.8933753 0.2227406
vt 0.9055134 0.2227406
vt 0.9297898 0.3168115
vt 0.9449625 0.3380533
vt 0.9328244 0.2470169
vt 0.9328244 0.2227406
vt 0.9449625 0.2470169
vt 0.9449625 0.2227406
vt 0.9571007 0.2227406
vt 0.9571007 0.2470169
vt 0.9813771 0.2227406
vt 0.9813771 0.2470169
vt 0.9965498 0.2227406
vt 0.9328244 0.2470169
vt 0.9965498 0.2470169
vt 0.9449625 0.3168115
vt 0.9449625 0.2470169
vt 0.9571007 0.2470169
vt 0.9571007 0.3168115
vt 0.9571007 0.3380533
vt 0.9783425 0.3168115
vt 0.9935153 0.3168115
vt 0.9783425 0.3380533
vt 0.9904808 0.3380533
vt 0.9297898 0.6111624
vt 0.9571007 0.6536461
vt 0.9631698 0.6506115
vt 0.9813771 0.7052334
vt 0.9692389 0.7021989
vt 0.9874462 0.7719934
vt 0.9662044 0.7689588
vt 0.9813771 0.8205462
vt 0.9571007 0.8144771
vt 0.9631698 0.8660643
vt 0.9358588 0.8539262
vt 0.9358588 0.8964097
vt 0.9055134 0.8721334
vt 0.908548 0.9024789
vt 0.9297898 0.9206861
vt 0.9146171 0.9237207
vt 0.9358588 0.9510317
vt 0.8964097 0.9024789
vt 0.8569607 0.8903407
vt 0.8964097 0.9388934
vt 0.8690989 0.8630298
vt 0.8660643 0.9328244
vt 0.908548 0.9844116
vt 0.8357189 0.8690989
vt 0.8205462 0.8326843
vt 0.8448225 0.8326843
vt 0.8205462 0.7810971
vt 0.8357189 0.7841316
vt 0.8417879 0.7537861
vt 0.8084079 0.775028
vt 0.8175116 0.7507516
vt 0.9571007 0.6536461
vt 0.9297898 0.6111624
vt 0.9479971 0.6536461
vt 0.9692389 0.7021989
vt 0.9540662 0.7021989
vt 0.9662044 0.7689588
vt 0.9510317 0.7659243
vt 0.9571007 0.8144771
vt 0.9388934 0.8053734
vt 0.9358588 0.8539262
vt 0.9237207 0.8266152
vt 0.9055134 0.8721334
vt 0.9024789 0.8387535
vt 0.8690989 0.8630298
vt 0.881237 0.8326843
vt 0.8448225 0.8326843
vt 0.8630298 0.8175116
vt 0.8357189 0.7841316
vt 0.8508916 0.7841316
vt 0.8417879 0.7537861
vt 0.8569607 0.7537861
vt 0.9115825 0.7932352
vt 0.8842716 0.7932352
vt 0.8873062 0.7841316
vt 0.908548 0.7993044
vt 0.9237207 0.8023388
vt 0.6839916 0.4381933
vt 0.6930952 0.4351588
vt 0.6870261 0.4169515
vt 0.680957 0.4199861
vt 0.6991643 0.4897806
vt 0.6930952 0.4351588
vt 0.6839916 0.4381933
vt 0.7082679 0.4867461
vt 0.7113025 0.5322642
vt 0.7173716 0.5292298
vt 0.7173716 0.5656443
vt 0.7264752 0.5626097
vt 0.7325443 0.6111624
vt 0.7264752 0.5626097
vt 0.7173716 0.5656443
vt 0.7386134 0.6111624
vt 0.7537861 0.680957
vt 0.8690989 0.7810971
vt 0.8842716 0.7355789
vt 0.8873062 0.7386134
vt 0.8933753 0.6991643
vt 0.9024789 0.7021989
vt 0.9055134 0.6930952
vt 0.9024789 0.7021989
vt 0.8933753 0.6991643
vt 0.8994443 0.6900607
vt 0.908548 0.6688188
vt 0.9055134 0.6930952
vt 0.8994443 0.6900607
vt 0.9115825 0.6718534
vt 0.9206861 0.6384734
vt 0.9024789 0.3562606
vt 0.908548 0.3835715
vt 0.9115825 0.3835715
vt 0.9115825 0.4078479
vt 0.9176517 0.4048133
vt 0.9206861 0.4442624
vt 0.9176517 0.4048133
vt 0.9115825 0.4078479
vt 0.9297898 0.4412279
vt 0.9328244 0.4867461
vt 0.9388934 0.4837115
vt 0.9449625 0.5322642
vt 0.9510317 0.5292298
vt 0.9601352 0.5929552
vt 0.9662044 0.5899206
vt 0.9722735 0.6415079
vt 0.9783425 0.6415079
vt 0.9874462 0.6900607
vt 0.9146171 0.7719934
vt 0.8994443 0.7780625
vt 0.8933753 0.7628897
vt 0.9024789 0.741648
vt 0.9237207 0.747717
vt 0.9146171 0.7355789
vt 0.9267553 0.7173716
vt 0.9449625 0.6930952
vt 0.9328244 0.7204061
vt 0.9176517 0.7264752
vt 0.9358588 0.6930952
vt 0.9358588 0.6839916
vt 0.9267553 0.6900607
vt 0.9206861 0.6839916
vt 0.9206861 0.714337
vt 0.9115825 0.7113025
vn 0.9968654 -0.07911628 0
vn 0.999874 -0.01587099 -0.000346655
vn 0.9988682 -0.04756513 0
vn 0.999874 -0.01587099 -0.000346655
vn 0.999874 -0.01587099 -0.000346655
vn 0.999874 -0.01587099 -0.000346655
vn 0.999874 -0.01587099 -0.000346655
vn 0.999874 0.01587105 -0.0003439156
vn 0.999874 0.01587105 -0.0003439156
vn 0.999874 0.01587105 -0.0003439156
vn 0.999874 0.01587105 -0.0003439156
vn 0.999874 0.01587105 -0.0003439156
vn 0.999874 0.01587105 -0.0003439156
vn 0.999874 0.01587105 -0.0003439156
vn 0.9988682 0.04756513 0
vn 0.9988682 0.04756513 0
vn 0.9968654 0.07911634 0
vn 0.999874 0.01587105 -0.0003439156
vn 0.999874 0.01587105 -0.0003439156
vn 0.9988682 0.04756513 0
vn 0.999874 0.01587105 -0.0003439156
vn 0.9988682 0.04756513 0
vn 0.9968654 0.07911634 0
vn 0.999874 0.01587105 -0.0003439156
vn 0.999874 0.01587105 -0.0003439156
vn 0.999874 0.01587105 -0.0003439156
vn 0.999874 0.01587105 -0.0003439156
vn 0.999874 0.01587105 -0.0003439156
vn 0.999874 0.01587105 -0.0003439156
vn 0.999874 0.01587105 -0.0003439156
vn 0.999874 0.01587105 -0.0003439156
vn 0.9363899 0.2063233 -0.2839095
vn 0.9363899 0.2380652 -0.2578737
vn 0.9046479 0.2698073 -0.329873
vn 0.968132 0.1110971 -0.2244504
vn 0.9363899 0.1428392 -0.3205789
vn 0.968132 0.04761302 -0.245873
vn 0.968132 0.04761302 -0.245873
vn 0.968132 -0.01587099 -0.2499373
vn 0.968132 -0.01587099 -0.2499373
vn 0.9968654 -0.07911628 0
vn 0.9988682 -0.04756513 0
vn 0.9938838 -0.1104315 0
vn 0.9938838 -0.1104315 0
vn 0.9899495 -0.1414213 0
vn 0.9899495 -0.1414213 0
vn 0.9899495 -0.1414213 0
vn 0.968132 -0.1428391 0.2057122
vn 0.968132 -0.07935506 0.2375359
vn 0.968132 -0.07935506 0.2375359
vn 0.968132 -0.04761302 0.245873
vn 0.968132 -0.04761302 0.245873
vn -0.01587105 0.999874 -0.000345267
vn -0.01587105 0.999874 -0.000345267
vn 0.9037378 0.4280864 0
vn 0.9037378 0.4280864 0
vn -0.01587105 0.999874 -0.000345267
vn 0.9037378 -0.4280863 0
vn 0.9046479 0.3967754 -0.155504
vn -0.01587105 0.999874 -0.000345267
vn 0.9046479 0.3967754 -0.155504
vn 0.9037378 -0.4280863 0
vn -0.01587105 -0.999874 -0.000345267
vn 0.8411638 -0.5237435 0.1346707
vn 0.8411638 -0.5237435 0.1346707
vn -0.01587105 -0.999874 -0.000345267
vn -0.01587105 -0.999874 -0.000345267
vn -0.8411639 -0.5237435 0.1346703
vn -0.8411639 -0.5237435 0.1346703
vn -0.9046479 0.3967754 -0.1555036
vn -0.9046479 0.3967754 -0.1555036
vn -0.01587105 0.999874 -0.000345267
vn 0.8711522 -0.491013 0
vn -0.01587105 0.999874 -0.000345267
vn -0.01587105 -0.999874 -0.000345267
vn -0.01587105 -0.999874 -0.000345267
vn -0.8711522 -0.491013 0
vn -0.9037378 -0.4280863 0
vn -0.9037378 -0.4280863 0
vn -0.9037378 0.4280863 0
vn -0.01587105 0.999874 -0.000345267
vn -0.9037378 0.4280863 0
vn -0.01587105 0.999874 -0.000345267
vn -0.9968654 -0.07911628 0
vn -0.9988682 -0.04756513 0
vn -0.999874 -0.01587099 -0.000346655
vn -0.999874 -0.01587099 -0.000346655
vn -0.999874 -0.01587099 -0.000346655
vn -0.999874 -0.01587099 -0.000346655
vn -0.999874 -0.01587099 -0.000346655
vn -0.999874 0.01587105 -0.0003439156
vn -0.999874 0.01587105 -0.0003439156
vn -0.999874 0.01587105 -0.0003439156
vn -0.999874 0.01587105 -0.0003439156
vn -0.999874 0.01587105 -0.0003439156
vn -0.999874 0.01587105 -0.0003439156
vn -0.999874 0.01587105 -0.0003439156
vn -0.9988682 0.04756513 0
vn -0.9988682 0.04756513 0
vn -0.9968654 0.07911634 0
vn -0.999874 0.01587105 -0.0003439156
vn -0.999874 0.01587105 -0.0003439156
vn -0.9988682 0.04756513 0
vn -0.999874 0.01587105 -0.0003439156
vn -0.9988682 0.04756513 0
vn -0.9968654 0.07911634 0
vn -0.999874 0.01587105 -0.0003439156
vn -0.999874 0.01587105 -0.0003439156
vn -0.999874 0.01587105 -0.0003439156
vn -0.999874 0.01587105 -0.0003439156
vn -0.999874 0.01587105 -0.0003439156
vn -0.999874 0.01587105 -0.0003439156
vn -0.999874 0.01587105 -0.0003439156
vn -0.999874 0.01587105 -0.0003439156
vn -0.9363899 0.2063233 -0.2839095
vn -0.9046479 0.2698073 -0.3298728
vn -0.9363899 0.2380652 -0.2578737
vn -0.968132 0.1110971 -0.2244501
vn -0.9363899 0.1428392 -0.3205789
vn -0.968132 0.04761302 -0.2458728
vn -0.968132 0.04761302 -0.2458728
vn -0.968132 -0.01587099 -0.249937
vn -0.968132 -0.01587099 -0.249937
vn -0.9968654 -0.07911628 0
vn -0.9988682 -0.04756513 0
vn -0.9938838 -0.1104315 0
vn -0.9938838 -0.1104315 0
vn -0.9899495 -0.1414213 0
vn -0.9899495 -0.1414213 0
vn -0.9899495 -0.1414213 0
vn -0.968132 -0.1428391 0.2057119
vn -0.968132 -0.07935506 0.2375357
vn -0.968132 -0.07935506 0.2375357
vn -0.968132 -0.04761302 0.2458728
vn -0.968132 -0.04761302 0.2458728
vn -0.01587105 -0.9363899 -0.3506023
vn -0.01587105 -0.968132 -0.2499373
vn -0.01587105 -0.968132 -0.2499373
vn -0.01587105 -0.9363899 -0.3506023
vn -0.01587105 -0.8729059 -0.4876305
vn -0.01587105 0.968132 -0.249937
vn -0.01587105 0.968132 -0.249937
vn -0.01587105 0.968132 -0.249937
vn -0.01587105 0.968132 -0.249937
vn -0.01587105 0.4920015 -0.8704497
vn -0.01587105 0.3332913 -0.9426903
vn -0.01587105 0.3332913 -0.9426903
vn -0.01587105 0.4920015 -0.8704497
vn -0.01587105 0.8094218 -0.5870132
vn -0.01587105 0.8094218 -0.5870132
vn -0.01587105 0.9046479 -0.425864
vn -0.01587105 0.9046479 -0.425864
vn -0.01587105 0.7141957 -0.6997661
vn -0.01587105 0.5237435 -0.8517281
vn -0.01587105 0.5237435 -0.8517281
vn -0.01587105 0.7141957 -0.6997661
vn -0.01587105 0.8729059 -0.4876305
vn -0.01587105 -0.5872276 0.8092663
vn -0.01587105 -0.4602594 0.8876426
vn -0.01587105 -0.4602594 0.8876426
vn -0.01587105 -0.3015493 0.9533185
vn -0.01587105 -0.3015493 0.9533185
vn -0.01587105 0.9363899 0.3506023
vn -0.01587105 0.9363899 0.3506023
vn -0.01587105 0.9363899 0.3506023
vn -0.01587105 0.9363899 0.3506023
vn -0.01587105 0.7459378 -0.6658264
vn -0.01587105 0.5872276 -0.8092663
vn -0.01587105 0.5872276 -0.8092663
vn -0.01587105 0.7459378 -0.6658264
vn -0.01587105 0.8729059 -0.4876305
vn -0.01587105 -0.5237435 0.8517281
vn -0.01587105 -0.3332914 0.9426903
vn -0.01587105 -0.3332914 0.9426903
vn -0.01587105 -0.1428391 0.9896187
vn -0.01587105 -0.1428391 0.9896187
vn -0.01587105 0.2063233 0.9783552
vn -0.01587105 0.3650334 0.9308591
vn -0.01587105 0.3650334 0.9308591
vn -0.01587105 0.2063233 0.9783552
vn -0.01587105 -0.07935506 0.9967201
vn -0.01587105 -0.07935506 0.9967201
vn -0.01587105 -0.3332914 0.9426903
vn -0.01587105 -0.3332914 0.9426903
vn -0.01587105 -0.5237435 0.8517281
vn -0.01587105 -0.5237435 0.8517281
vn -0.01587105 -0.7459377 0.6658266
vn -0.01587105 -0.7459377 0.6658266
vn -0.01587105 -0.8411638 0.5405475
vn -0.01587105 0.07935512 -0.9967201
vn -0.01587105 0.04761302 -0.9987398
vn -0.01587105 0.07935512 -0.9967201
vn -0.01587105 0.04761302 -0.9987398
vn -0.01587105 0.04761302 -0.9987398
vn -0.01587105 0.04761302 -0.9987398
vn -0.01587105 0.04761302 0.9987398
vn -0.01587105 0.01587105 0.9997481
vn -0.01587105 0.04761302 0.9987398
vn -0.01587105 0.07935512 0.9967201
vn -0.01587105 0.01587105 0.9997481
vn -0.01587105 -0.01587099 0.9997481
vn 0.01587099 0.01587105 0.9997481
vn 0.01587099 0.01587105 0.9997481
vn 0.01587099 0.04761302 0.9987398
vn 0.01587099 0.04761302 0.9987398
g [mod]_Knight_Hook_0
f 3/3/3 2/2/2 1/1/1
f 4/4/4 2/2/2 3/3/3
f 5/5/5 4/4/4 3/3/3
f 6/6/6 4/4/4 5/5/5
f 7/7/7 6/6/6 5/5/5
f 8/8/8 6/6/6 7/7/7
f 9/9/9 8/8/8 7/7/7
f 10/10/10 8/8/8 9/9/9
f 11/11/11 10/10/10 9/9/9
f 12/12/12 10/10/10 11/11/11
f 13/13/13 12/12/12 11/11/11
f 12/12/12 13/13/13 14/14/14
f 12/12/12 14/14/14 15/15/15
f 14/14/14 16/16/16 15/15/15
f 16/16/16 17/17/17 15/15/15
f 14/14/14 13/13/13 18/18/18
f 18/18/18 13/13/13 19/19/19
f 18/18/18 19/19/19 20/20/20
f 13/13/13 21/21/21 19/19/19
f 19/19/19 22/22/22 20/20/20
f 22/22/22 23/23/23 20/20/20
f 21/21/21 24/24/24 19/19/19
f 24/24/24 21/21/21 25/25/25
f 21/21/21 26/26/26 25/25/25
f 25/25/25 26/26/26 27/27/27
f 26/26/26 28/28/28 27/27/27
f 29/29/29 27/27/27 28/28/28
f 27/27/27 29/29/29 30/30/30
f 29/29/29 31/31/31 30/30/30
f 34/34/34 33/33/33 32/32/32
f 32/32/32 33/33/33 35/35/35
f 33/33/33 36/36/36 35/35/35
f 35/35/35 36/36/36 37/37/37
f 36/36/36 38/38/38 37/37/37
f 37/37/37 38/38/38 39/39/39
f 38/38/38 40/40/40 39/39/39
f 39/39/39 40/40/40 41/41/41
f 40/40/40 42/42/42 41/41/41
f 41/41/41 42/42/42 43/43/43
f 42/42/42 44/44/44 43/43/43
f 43/43/43 44/44/44 45/45/45
f 44/44/44 46/46/46 45/45/45
f 45/45/45 46/46/46 47/47/47
f 46/46/46 48/48/48 47/47/47
f 47/47/47 48/48/48 49/49/49
f 48/48/48 50/50/50 49/49/49
f 49/49/49 50/50/50 51/51/51
f 50/50/50 52/52/52 51/51/51
f 55/55/55 54/54/54 53/53/53
f 56/56/56 55/55/55 53/53/53
f 53/53/53 57/57/57 56/56/56
f 58/58/58 55/55/55 56/56/56
f 57/57/57 59/59/59 56/56/56
f 59/59/59 57/57/57 60/60/60
f 61/61/61 59/59/59 60/60/60
f 62/62/62 58/58/58 56/56/56
f 56/56/56 59/59/59 62/62/62
f 63/63/63 58/58/58 62/62/62
f 64/64/64 59/59/59 61/61/61
f 65/65/65 64/64/64 61/61/61
f 66/66/66 64/64/64 65/65/65
f 67/67/67 66/66/66 65/65/65
f 66/66/66 67/67/67 68/68/68
f 69/69/69 66/66/66 68/68/68
f 69/69/69 68/68/68 70/70/70
f 71/71/71 69/69/69 70/70/70
f 71/71/71 70/70/70 72/72/72
f 59/59/59 73/73/73 62/62/62
f 74/74/74 71/71/71 72/72/72
f 62/62/62 73/73/73 75/75/75
f 75/75/75 63/63/63 62/62/62
f 73/73/73 76/76/76 75/75/75
f 76/76/76 77/77/77 75/75/75
f 63/63/63 75/75/75 78/78/78
f 77/77/77 78/78/78 75/75/75
f 77/77/77 71/71/71 78/78/78
f 79/79/79 63/63/63 78/78/78
f 71/71/71 74/74/74 80/80/80
f 71/71/71 80/80/80 78/78/78
f 79/79/79 78/78/78 80/80/80
f 74/74/74 81/81/81 80/80/80
f 82/82/82 79/79/79 80/80/80
f 82/82/82 80/80/80 81/81/81
f 83/83/83 82/82/82 81/81/81
f 86/86/86 85/85/85 84/84/84
f 86/86/86 87/87/87 85/85/85
f 87/87/87 88/88/88 85/85/85
f 87/87/87 89/89/89 88/88/88
f 89/89/89 90/90/90 88/88/88
f 89/89/89 91/91/91 90/90/90
f 91/91/91 92/92/92 90/90/90
f 91/91/91 93/93/93 92/92/92
f 93/93/93 94/94/94 92/92/92
f 93/93/93 95/95/95 94/94/94
f 95/95/95 96/96/96 94/94/94
f 96/96/96 95/95/95 97/97/97
f 97/97/97 95/95/95 98/98/98
f 99/99/99 97/97/97 98/98/98
f 100/100/100 99/99/99 98/98/98
f 96/96/96 97/97/97 101/101/101
f 96/96/96 101/101/101 102/102/102
f 102/102/102 101/101/101 103/103/103
f 104/104/104 96/96/96 102/102/102
f 105/105/105 102/102/102 103/103/103
f 106/106/106 105/105/105 103/103/103
f 107/107/107 104/104/104 102/102/102
f 104/104/104 107/107/107 108/108/108
f 109/109/109 104/104/104 108/108/108
f 109/109/109 108/108/108 110/110/110
f 111/111/111 109/109/109 110/110/110
f 110/110/110 112/112/112 111/111/111
f 112/112/112 110/110/110 113/113/113
f 114/114/114 112/112/112 113/113/113
f 117/117/117 116/116/116 115/115/115
f 117/117/117 115/115/115 118/118/118
f 119/119/119 117/117/117 118/118/118
f 119/119/119 118/118/118 120/120/120
f 121/121/121 119/119/119 120/120/120
f 121/121/121 120/120/120 122/122/122
f 123/123/123 121/121/121 122/122/122
f 123/123/123 122/122/122 124/124/124
f 125/125/125 123/123/123 124/124/124
f 125/125/125 124/124/124 126/126/126
f 127/127/127 125/125/125 126/126/126
f 127/127/127 126/126/126 128/128/128
f 129/129/129 127/127/127 128/128/128
f 129/129/129 128/128/128 130/130/130
f 131/131/131 129/129/129 130/130/130
f 131/131/131 130/130/130 132/132/132
f 133/133/133 131/131/131 132/132/132
f 133/133/133 132/132/132 134/134/134
f 135/135/135 133/133/133 134/134/134
f 138/138/138 137/137/137 136/136/136
f 137/137/137 139/139/139 136/136/136
f 140/140/140 136/136/136 139/139/139
f 143/143/143 142/142/142 141/141/141
f 144/144/144 143/143/143 141/141/141
f 147/147/147 146/146/146 145/145/145
f 146/146/146 148/148/148 145/145/145
f 145/145/145 148/148/148 149/149/149
f 148/148/148 150/150/150 149/149/149
f 149/149/149 150/150/150 151/151/151
f 150/150/150 152/152/152 151/151/151
f 155/155/155 154/154/154 153/153/153
f 154/154/154 156/156/156 153/153/153
f 156/156/156 157/157/157 153/153/153
f 160/160/160 159/159/159 158/158/158
f 159/159/159 160/160/160 161/161/161
f 160/160/160 162/162/162 161/161/161
f 165/165/165 164/164/164 163/163/163
f 166/166/166 165/165/165 163/163/163
f 169/169/169 168/168/168 167/167/167
f 168/168/168 170/170/170 167/167/167
f 170/170/170 171/171/171 167/167/167
f 174/174/174 173/173/173 172/172/172
f 173/173/173 174/174/174 175/175/175
f 174/174/174 176/176/176 175/175/175
f 179/179/179 178/178/178 177/177/177
f 178/178/178 180/180/180 177/177/177
f 177/177/177 180/180/180 181/181/181
f 180/180/180 182/182/182 181/181/181
f 181/181/181 182/182/182 183/183/183
f 182/182/182 184/184/184 183/183/183
f 183/183/183 184/184/184 185/185/185
f 184/184/184 186/186/186 185/185/185
f 185/185/185 186/186/186 187/187/187
f 186/186/186 188/188/188 187/187/187
f 188/188/188 189/189/189 187/187/187
f 192/192/192 191/191/191 190/190/190
f 192/192/192 190/190/190 193/193/193
f 190/190/190 194/194/194 193/193/193
f 194/194/194 195/195/195 193/193/193
f 198/198/198 197/197/197 196/196/196
f 196/196/196 199/199/199 198/198/198
f 197/197/197 200/200/200 196/196/196
f 201/201/201 200/200/200 197/197/197
f 202/202/202 200/200/200 201/201/201
f 202/202/202 201/201/201 203/203/203
f 199/199/199 196/196/196 204/204/204
f 202/202/202 203/203/203 204/204/204
f 199/199/199 204/204/204 205/205/205
f 203/203/203 205/205/205 204/204/204
