g Bolt
v 0.02906779 0.02462509 -0.313206
v 0.02111007 -0.006397695 -0.30242
v 0.02906779 0.01067905 -0.313206
v 0.02906779 0.01067905 -0.3040755
v 0.01752411 0.003610726 -0.2932895
v 0.02906779 0.02462509 -0.3040755
v 0.01752411 0.003610726 -0.30242
v 0.02111007 -0.006397695 -0.30242
v 0.02906779 0.02462509 -0.313206
v 0.02111007 -0.006397695 -0.2932895
v 0.01752411 0.003610726 -0.2932895
v 0.02906779 0.01067905 -0.3040755
v 0.007022415 -0.007022415 -0.116195
v 0.009931195 0 0.116195
v 0.009931195 0 -0.116195
v 0.007022415 -0.007022415 0.116195
v 6.081103E-19 -0.009931195 -0.116195
v 0.007022415 -0.007022415 0.116195
v 0.007022415 -0.007022415 -0.116195
v 6.081103E-19 -0.009931195 0.116195
v -0.007022415 -0.007022415 -0.116195
v 6.081103E-19 -0.009931195 0.116195
v 6.081103E-19 -0.009931195 -0.116195
v -0.007022415 -0.007022415 0.116195
v -0.009931195 -1.216221E-18 -0.116195
v -0.007022415 -0.007022415 0.116195
v -0.007022415 -0.007022415 -0.116195
v -0.009931195 -1.216221E-18 0.116195
v -0.007022415 0.007022415 -0.116195
v -0.009931195 -1.216221E-18 0.116195
v -0.009931195 -1.216221E-18 -0.116195
v -0.007022415 0.007022415 0.116195
v -1.824331E-18 0.009931195 -0.116195
v -0.007022415 0.007022415 0.116195
v -0.007022415 0.007022415 -0.116195
v -1.824331E-18 0.009931195 0.116195
v 0.007022415 0.007022415 -0.116195
v -1.824331E-18 0.009931195 0.116195
v -1.824331E-18 0.009931195 -0.116195
v 0.007022415 0.007022415 0.116195
v 0.009931195 0 -0.116195
v 0.007022415 0.007022415 0.116195
v 0.007022415 0.007022415 -0.116195
v 0.009931195 0 0.116195
v 0.004699546 0.02134063 -0.1122381
v -0.01749319 -0.01436642 -0.1122381
v -0.004699546 0.02134063 -0.1122381
v 0.01749319 -0.01436642 -0.1122381
v -0.004699546 0.02134063 -0.3349254
v 0.01749319 -0.01436642 -0.3349254
v 0.004699546 0.02134063 -0.3349254
v -0.01749319 -0.01436642 -0.3349254
v -0.004699546 0.02134063 -0.1122381
v -0.01749319 -0.01436642 -0.3349254
v -0.004699546 0.02134063 -0.3349254
v -0.01749319 -0.01436642 -0.1122381
v 0.004699546 0.02134063 -0.30242
v -0.004699546 0.02134063 -0.3349254
v 0.004699546 0.02134063 -0.3349254
v 0.004699546 0.02134063 -0.2932895
v -0.004699546 0.02134063 -0.1122381
v 0.004699546 0.02134063 -0.1122381
v 0.01749319 -0.01436642 -0.3349254
v -0.01749319 -0.01436642 -0.3349254
v 0.01749319 -0.01436642 -0.30242
v 0.01749319 -0.01436642 -0.2932895
v -0.01749319 -0.01436642 -0.1122381
v 0.01749319 -0.01436642 -0.1122381
v 0.06477135 0.02462509 -0.313206
v 0.06477135 0.01067905 -0.3040755
v 0.06477135 0.02462509 -0.3040755
v 0.06477135 0.01067905 -0.313206
v 0.02111007 -0.006397695 -0.30242
v 0.01537436 -0.008452769 -0.2932895
v 0.02111007 -0.006397695 -0.2932895
v 0.01537436 -0.008452769 -0.30242
v 0.01752411 0.003610726 -0.30242
v 0.01537436 -0.008452769 -0.30242
v 0.02111007 -0.006397695 -0.30242
v 0.0117884 0.001555652 -0.30242
v 0.01752411 0.003610726 -0.2932895
v 0.0117884 0.001555652 -0.30242
v 0.01752411 0.003610726 -0.30242
v 0.0117884 0.001555652 -0.2932895
v 0.02111007 -0.006397695 -0.2932895
v 0.0117884 0.001555652 -0.2932895
v 0.01752411 0.003610726 -0.2932895
v 0.01537436 -0.008452769 -0.2932895
v 0.02906779 0.01067905 -0.313206
v 0.02111007 -0.006397695 -0.2932895
v 0.02906779 0.01067905 -0.3040755
v 0.02111007 -0.006397695 -0.30242
v 0.02906779 0.02462509 -0.3040755
v 0.01752411 0.003610726 -0.30242
v 0.02906779 0.02462509 -0.313206
v 0.01752411 0.003610726 -0.2932895
v 0.06477135 0.01067905 -0.313206
v 0.02906779 0.01067905 -0.3040755
v 0.06477135 0.01067905 -0.3040755
v 0.02906779 0.01067905 -0.313206
v 0.06477135 0.02462509 -0.313206
v 0.02906779 0.01067905 -0.313206
v 0.06477135 0.01067905 -0.313206
v 0.02906779 0.02462509 -0.313206
v 0.06477135 0.02462509 -0.3040755
v 0.02906779 0.02462509 -0.313206
v 0.06477135 0.02462509 -0.313206
v 0.02906779 0.02462509 -0.3040755
v 0.06477135 0.01067905 -0.3040755
v 0.02906779 0.02462509 -0.3040755
v 0.06477135 0.02462509 -0.3040755
v 0.02906779 0.01067905 -0.3040755
v 0.004699546 0.02134063 -0.30242
v 0.0117884 0.001555652 -0.2932895
v 0.004699546 0.02134063 -0.2932895
v 0.004699546 0.02134063 -0.1122381
v 0.01749319 -0.01436642 -0.1122381
v 0.0117884 0.001555652 -0.30242
v 0.004699546 0.02134063 -0.3349254
v 0.01749319 -0.01436642 -0.3349254
v 0.01537436 -0.008452769 -0.30242
v 0.01749319 -0.01436642 -0.30242
v 0.01537436 -0.008452769 -0.2932895
v 0.01749319 -0.01436642 -0.2932895
v 0.007022415 0.007022415 -0.116195
v -1.824331E-18 0.009931195 -0.116195
v 0 0 -0.116195
v 0.009931195 0 -0.116195
v -0.007022415 0.007022415 -0.116195
v 0.007022415 -0.007022415 -0.116195
v -0.009931195 -1.216221E-18 -0.116195
v 6.081103E-19 -0.009931195 -0.116195
v -0.007022415 -0.007022415 -0.116195
v 0.007022415 0.007022415 0.116195
v 0 0 0.116195
v -1.824331E-18 0.009931195 0.116195
v 0.009931195 0 0.116195
v -0.007022415 0.007022415 0.116195
v 0.007022415 -0.007022415 0.116195
v -0.009931195 -1.216221E-18 0.116195
v 6.081103E-19 -0.009931195 0.116195
v -0.007022415 -0.007022415 0.116195
vt 0.8532035 0.9234494
vt 0.8593898 0.8992765
vt 0.8532035 0.9125826
vt 0.8388804 0.9388187
vt 0.8299062 0.9333111
vt 0.8388804 0.9496853
vt 0.8621776 0.907075
vt 0.8593898 0.8992765
vt 0.8532035 0.9234494
vt 0.832694 0.9255126
vt 0.8299062 0.9333111
vt 0.8388804 0.9388187
vt 0.8068211 0.7686075
vt 0.8090824 0.9496853
vt 0.8090824 0.7686075
vt 0.8068211 0.9496853
vt 0.8013619 0.7686075
vt 0.8068211 0.9496853
vt 0.8068211 0.7686075
vt 0.8013619 0.9496853
vt 0.7959026 0.7686075
vt 0.8013619 0.9496853
vt 0.8013619 0.7686075
vt 0.7959026 0.9496853
vt 0.7936413 0.7686075
vt 0.7959026 0.9496853
vt 0.7959026 0.7686075
vt 0.7936413 0.9496853
vt 0.8118056 0.9496853
vt 0.8095443 0.7686075
vt 0.8095443 0.9496853
vt 0.8118056 0.7686075
vt 0.8172649 0.9496853
vt 0.8118056 0.7686075
vt 0.8118056 0.9496853
vt 0.8172649 0.7686075
vt 0.8227241 0.9496853
vt 0.8172649 0.7686075
vt 0.8172649 0.9496853
vt 0.8227241 0.7686075
vt 0.8249854 0.9496853
vt 0.8227241 0.7686075
vt 0.8227241 0.9496853
vt 0.8249854 0.7686075
vt 0.8427001 0.8988147
vt 0.8254472 0.8709918
vt 0.8353931 0.8988147
vt 0.8526459 0.8709918
vt 0.8703606 0.8988147
vt 0.8531078 0.8709918
vt 0.8630536 0.8988147
vt 0.8803064 0.8709918
vt 0.7858725 0.7761678
vt 0.7759266 0.9496853
vt 0.7858725 0.9496853
vt 0.7759266 0.7761678
vt 0.7931795 0.9243573
vt 0.7858725 0.9496853
vt 0.7931795 0.9496853
vt 0.7931795 0.9172428
vt 0.7858725 0.7761678
vt 0.7931795 0.7761678
vt 0.976706 0.8044524
vt 0.9495073 0.8044524
vt 0.976706 0.8297805
vt 0.976706 0.836895
vt 0.9495073 0.97797
vt 0.976706 0.97797
vt 0.8878664 0.8818586
vt 0.8807682 0.8709918
vt 0.8807682 0.8818586
vt 0.8878664 0.8709918
vt 0.8842093 0.9163772
vt 0.8797503 0.9234916
vt 0.8842093 0.9234916
vt 0.8797503 0.9163772
vt 0.8698861 0.9337468
vt 0.8715574 0.9243469
vt 0.8670984 0.9259484
vt 0.8743451 0.9321455
vt 0.8299062 0.8550111
vt 0.8254472 0.8621255
vt 0.8299062 0.8621255
vt 0.8254472 0.8550111
vt 0.832694 0.9255126
vt 0.8254472 0.9317096
vt 0.8299062 0.9333111
vt 0.828235 0.9239111
vt 0.8903956 0.9079727
vt 0.8842093 0.9234916
vt 0.8903956 0.9150871
vt 0.8842093 0.9163772
vt 0.8388803 0.8634155
vt 0.8299062 0.8621255
vt 0.8388803 0.87053
vt 0.8299062 0.8550111
vt 0.8903956 0.9003963
vt 0.8626394 0.9075109
vt 0.8903956 0.9075109
vt 0.8626394 0.9003963
vt 0.8254472 0.9234494
vt 0.8532035 0.9125826
vt 0.8254472 0.9125826
vt 0.8532035 0.9234494
vt 0.8666366 0.8634155
vt 0.8388803 0.87053
vt 0.8666366 0.87053
vt 0.8388803 0.8634155
vt 0.8666366 0.9388187
vt 0.8388804 0.9496853
vt 0.8666366 0.9496853
vt 0.8388804 0.9388187
vt 0.9237756 0.97797
vt 0.9166775 0.9625536
vt 0.9166775 0.97797
vt 0.7759266 0.97797
vt 0.7759266 0.9501472
vt 0.9237756 0.9625536
vt 0.9490455 0.97797
vt 0.9490455 0.9501472
vt 0.9237756 0.9547551
vt 0.9237756 0.9501472
vt 0.9166775 0.9547551
vt 0.9166775 0.9501472
vt 0.8649008 0.9211829
vt 0.87036 0.9234494
vt 0.87036 0.9157109
vt 0.8626394 0.9157109
vt 0.8758193 0.9211829
vt 0.8649008 0.9102392
vt 0.8780806 0.9157109
vt 0.87036 0.9079727
vt 0.8758193 0.9102392
vt 0.8802783 0.9474188
vt 0.874819 0.941947
vt 0.874819 0.9496853
vt 0.8825396 0.941947
vt 0.8693597 0.9474188
vt 0.8802783 0.9364752
vt 0.8670984 0.941947
vt 0.874819 0.9342086
vt 0.8693597 0.9364752
vn -0.8046946 0 -0.593689
vn -0.8046946 0 -0.593689
vn -0.8046946 0 -0.593689
vn 0.6827208 0 0.7306793
vn 0.6827208 0 0.7306793
vn 0.6827208 0 0.7306793
vn -0.4847692 -0.1736902 -0.8572226
vn -0.4847692 -0.1736902 -0.8572226
vn -0.4847692 -0.1736902 -0.8572226
vn 0.594279 0.212927 0.7755609
vn 0.594279 0.212927 0.7755609
vn 0.594279 0.212927 0.7755609
vn 0.9238795 -0.3826835 0
vn 0.9238795 -0.3826835 0
vn 0.9238795 -0.3826835 0
vn 0.9238795 -0.3826835 0
vn 0.3826835 -0.9238795 0
vn 0.3826835 -0.9238795 0
vn 0.3826835 -0.9238795 0
vn 0.3826835 -0.9238795 0
vn -0.3826835 -0.9238795 0
vn -0.3826835 -0.9238795 0
vn -0.3826835 -0.9238795 0
vn -0.3826835 -0.9238795 0
vn -0.9238795 -0.3826835 0
vn -0.9238795 -0.3826835 0
vn -0.9238795 -0.3826835 0
vn -0.9238795 -0.3826835 0
vn -0.9238795 0.3826835 0
vn -0.9238795 0.3826835 0
vn -0.9238795 0.3826835 0
vn -0.9238795 0.3826835 0
vn -0.3826835 0.9238795 0
vn -0.3826835 0.9238795 0
vn -0.3826835 0.9238795 0
vn -0.3826835 0.9238795 0
vn 0.3826835 0.9238795 0
vn 0.3826835 0.9238795 0
vn 0.3826835 0.9238795 0
vn 0.3826835 0.9238795 0
vn 0.9238795 0.3826835 0
vn 0.9238795 0.3826835 0
vn 0.9238795 0.3826835 0
vn 0.9238795 0.3826835 0
vn 0 0 1
vn 0 0 1
vn 0 0 1
vn 0 0 1
vn 0 0 -1
vn 0 0 -1
vn 0 0 -1
vn 0 0 -1
vn -0.941398 0.3372979 0
vn -0.941398 0.3372979 0
vn -0.941398 0.3372979 0
vn -0.941398 0.3372979 0
vn 0 1 0
vn 0 1 0
vn 0 1 0
vn 0 1 0
vn 0 1 0
vn 0 1 0
vn 0 -1 0
vn 0 -1 0
vn 0 -1 0
vn 0 -1 0
vn 0 -1 0
vn 0 -1 0
vn 1 0 0
vn 1 0 0
vn 1 0 0
vn 1 0 0
vn 0.3372979 -0.941398 0
vn 0.3372979 -0.941398 0
vn 0.3372979 -0.941398 0
vn 0.3372979 -0.941398 0
vn 0 0 -1
vn 0 0 -1
vn 0 0 -1
vn 0 0 -1
vn -0.3372979 0.941398 0
vn -0.3372979 0.941398 0
vn -0.3372979 0.941398 0
vn -0.3372979 0.941398 0
vn 0 0 1
vn 0 0 1
vn 0 0 1
vn 0 0 1
vn 0.9064154 -0.4223874 0
vn 0.9064154 -0.4223874 0
vn 0.9064154 -0.4223874 0
vn 0.9064154 -0.4223874 0
vn -0.8764661 0.4814635 0
vn -0.8764661 0.4814635 0
vn -0.8764661 0.4814635 0
vn -0.8764661 0.4814635 0
vn 0 -1 0
vn 0 -1 0
vn 0 -1 0
vn 0 -1 0
vn 0 0 -1
vn 0 0 -1
vn 0 0 -1
vn 0 0 -1
vn 0 1 0
vn 0 1 0
vn 0 1 0
vn 0 1 0
vn 0 0 1
vn 0 0 1
vn 0 0 1
vn 0 0 1
vn 0.941398 0.3372979 0
vn 0.941398 0.3372978 0
vn 0.941398 0.3372979 0
vn 0.941398 0.3372978 0
vn 0.9413981 0.3372978 0
vn 0.941398 0.3372979 0
vn 0.941398 0.3372979 0
vn 0.9413981 0.3372978 0
vn 0.9413981 0.3372978 0
vn 0.9413981 0.3372978 0
vn 0.9413981 0.3372978 0
vn 0.9413981 0.3372978 0
vn 0 0 -1
vn 0 0 -1
vn 0 0 -1
vn 0 0 -1
vn 0 0 -1
vn 0 0 -1
vn 0 0 -1
vn 0 0 -1
vn 0 0 -1
vn 0 0 1
vn 0 0 1
vn 0 0 1
vn 0 0 1
vn 0 0 1
vn 0 0 1
vn 0 0 1
vn 0 0 1
vn 0 0 1
g Bolt_0
f 3/3/3 2/2/2 1/1/1
f 6/6/6 5/5/5 4/4/4
f 9/9/9 8/8/8 7/7/7
f 12/12/12 11/11/11 10/10/10
f 15/15/15 14/14/14 13/13/13
f 13/13/13 14/14/14 16/16/16
f 19/19/19 18/18/18 17/17/17
f 17/17/17 18/18/18 20/20/20
f 23/23/23 22/22/22 21/21/21
f 21/21/21 22/22/22 24/24/24
f 27/27/27 26/26/26 25/25/25
f 25/25/25 26/26/26 28/28/28
f 31/31/31 30/30/30 29/29/29
f 29/29/29 30/30/30 32/32/32
f 35/35/35 34/34/34 33/33/33
f 33/33/33 34/34/34 36/36/36
f 39/39/39 38/38/38 37/37/37
f 37/37/37 38/38/38 40/40/40
f 43/43/43 42/42/42 41/41/41
f 41/41/41 42/42/42 44/44/44
f 47/47/47 46/46/46 45/45/45
f 45/45/45 46/46/46 48/48/48
f 51/51/51 50/50/50 49/49/49
f 49/49/49 50/50/50 52/52/52
f 55/55/55 54/54/54 53/53/53
f 53/53/53 54/54/54 56/56/56
f 59/59/59 58/58/58 57/57/57
f 57/57/57 58/58/58 60/60/60
f 58/58/58 61/61/61 60/60/60
f 60/60/60 61/61/61 62/62/62
f 65/65/65 64/64/64 63/63/63
f 66/66/66 64/64/64 65/65/65
f 64/64/64 66/66/66 67/67/67
f 67/67/67 66/66/66 68/68/68
f 71/71/71 70/70/70 69/69/69
f 69/69/69 70/70/70 72/72/72
f 75/75/75 74/74/74 73/73/73
f 73/73/73 74/74/74 76/76/76
f 79/79/79 78/78/78 77/77/77
f 77/77/77 78/78/78 80/80/80
f 83/83/83 82/82/82 81/81/81
f 81/81/81 82/82/82 84/84/84
f 87/87/87 86/86/86 85/85/85
f 85/85/85 86/86/86 88/88/88
f 91/91/91 90/90/90 89/89/89
f 89/89/89 90/90/90 92/92/92
f 95/95/95 94/94/94 93/93/93
f 93/93/93 94/94/94 96/96/96
f 99/99/99 98/98/98 97/97/97
f 97/97/97 98/98/98 100/100/100
f 103/103/103 102/102/102 101/101/101
f 101/101/101 102/102/102 104/104/104
f 107/107/107 106/106/106 105/105/105
f 105/105/105 106/106/106 108/108/108
f 111/111/111 110/110/110 109/109/109
f 109/109/109 110/110/110 112/112/112
f 115/115/115 114/114/114 113/113/113
f 116/116/116 114/114/114 115/115/115
f 117/117/117 114/114/114 116/116/116
f 113/113/113 114/114/114 118/118/118
f 113/113/113 118/118/118 119/119/119
f 119/119/119 118/118/118 120/120/120
f 121/121/121 120/120/120 118/118/118
f 122/122/122 120/120/120 121/121/121
f 114/114/114 117/117/117 123/123/123
f 123/123/123 122/122/122 121/121/121
f 117/117/117 124/124/124 123/123/123
f 124/124/124 122/122/122 123/123/123
f 127/127/127 126/126/126 125/125/125
f 127/127/127 125/125/125 128/128/128
f 127/127/127 129/129/129 126/126/126
f 127/127/127 128/128/128 130/130/130
f 127/127/127 131/131/131 129/129/129
f 127/127/127 130/130/130 132/132/132
f 127/127/127 133/133/133 131/131/131
f 127/127/127 132/132/132 133/133/133
f 136/136/136 135/135/135 134/134/134
f 134/134/134 135/135/135 137/137/137
f 138/138/138 135/135/135 136/136/136
f 137/137/137 135/135/135 139/139/139
f 140/140/140 135/135/135 138/138/138
f 139/139/139 135/135/135 141/141/141
f 142/142/142 135/135/135 140/140/140
f 141/141/141 135/135/135 142/142/142
