g ETFX_CirclePlaneHalf
v -6.721888E-08 -0.5048052 -8.592606E-07
v 4.390876E-09 -2.955403E-10 -7.781983E-07
v 0.1306531 -0.4876044 -8.592606E-07
v 0.2524025 -0.4371742 -8.592606E-07
v 0.3569511 -0.3569512 -8.592606E-07
v 0.4371741 -0.2524026 -8.592606E-07
v 0.4876043 -0.1306533 -8.592606E-07
v 0.5048052 -1.053306E-07 -8.592606E-07
v 0.4876044 0.1306531 -8.592606E-07
v 0.4371742 0.2524025 -8.592606E-07
v 0.3569513 0.3569511 -8.592606E-07
v 0.2524028 0.437174 -8.592606E-07
v 0.1306534 0.4876043 -8.592606E-07
v 2.637973E-07 0.5048052 -8.592606E-07
vt 1 0.4999999
vt 0.5 0.5
vt 0.9829628 0.6294094
vt 0.9330127 0.7499999
vt 0.8535535 0.8535533
vt 0.7500001 0.9330126
vt 0.6294097 0.9829628
vt 0.5000002 1
vt 0.3705907 0.9829629
vt 0.2500002 0.9330128
vt 0.1464468 0.8535535
vt 0.06698745 0.7500002
vt 0.01703718 0.6294098
vt 2.980232E-08 0.5000003
vn 0 0 1
vn 0 0 1
vn 0 0 1
vn 0 0 1
vn 0 0 1
vn 0 0 1
vn 0 0 1
vn 0 0 1
vn 0 0 1
vn 0 0 1
vn 0 0 1
vn 0 0 1
vn 0 0 1
vn 0 0 1
g ETFX_CirclePlaneHalf_0
f 3/3/3 2/2/2 1/1/1
f 4/4/4 2/2/2 3/3/3
f 5/5/5 2/2/2 4/4/4
f 6/6/6 2/2/2 5/5/5
f 7/7/7 2/2/2 6/6/6
f 8/8/8 2/2/2 7/7/7
f 9/9/9 2/2/2 8/8/8
f 10/10/10 2/2/2 9/9/9
f 11/11/11 2/2/2 10/10/10
f 12/12/12 2/2/2 11/11/11
f 13/13/13 2/2/2 12/12/12
f 14/14/14 2/2/2 13/13/13
