g FX_Sphere_01
v 0 0.5488157 0
v 0.06117727 0.5118642 -0.1882843
v 0.3692887 0.4059858 0
v 0 0.5488157 0
v -0.1601642 0.5118642 -0.1163661
v 0.06117727 0.5118642 -0.1882843
v -0.2987609 0.4059858 -0.2170624
v -0.4967347 0.08565746 -0.2170624
v -0.2375836 0.2836313 -0.4053468
v 0 0.5488157 0
v -0.1601642 0.5118642 0.1163661
v -0.1601642 0.5118642 -0.1163661
v -0.1601642 0.5118642 -0.1163661
v -0.3252841 0.4420282 4.50254E-08
v -0.2987609 0.4059858 -0.2170624
v -0.1601642 0.5118642 -0.1163661
v -0.1601642 0.5118642 0.1163661
v -0.3252841 0.4420282 4.50254E-08
v -0.3252841 0.4420282 4.50254E-08
v -0.1601642 0.5118642 0.1163661
v -0.4453539 0.2836313 0.08173369
v -0.1601642 0.5118642 0.1163661
v -0.3599381 0.08565747 0.4053469
v -0.4453539 0.2836313 0.08173369
v 0 0.5488157 0
v 0.06117729 0.5118642 0.1882843
v -0.1601642 0.5118642 0.1163661
v -0.1601642 0.5118642 0.1163661
v -0.04604764 0.2836313 0.4675806
v -0.3599381 0.08565747 0.4053469
v -0.1601642 0.5118642 0.1163661
v 0.06117729 0.5118642 0.1882843
v -0.04604764 0.2836313 0.4675806
v 0.06117729 0.5118642 0.1882843
v 0.3120903 0.2836313 0.3512144
v -0.04604764 0.2836313 0.4675806
v 0.06117729 0.5118642 0.1882843
v 0 0.5488157 0
v 0.3692887 0.4059858 0
v 0.5294529 0.08565746 -0.1163661
v 0.458925 -0.2836313 -0.1006964
v 0.5294529 0.08565746 0.1163661
v 0.5294529 0.08565746 0.1163661
v 0.458925 -0.2836313 -0.1006964
v 0.2375836 -0.2836313 0.4053468
v 0.5294529 0.08565746 -0.1163661
v 0.3599381 -0.08565746 -0.4053468
v 0.458925 -0.2836313 -0.1006964
v 0.1141165 0.4059858 -0.3512145
v 0.0529392 0.08565746 -0.5394987
v 0.1912698 -0.01860479 -0.5097439
v 0.3599381 -0.08565746 -0.4053468
v 0.1912698 -0.01860479 -0.5097439
v 0.04604767 -0.2836313 -0.4675806
v 0.1912698 -0.01860479 -0.5097439
v 0.0529392 0.08565746 -0.5394987
v 0.04604767 -0.2836313 -0.4675806
v 0.0529392 0.08565746 -0.5394987
v -0.2742807 -0.08565746 -0.4675805
v 0.04604767 -0.2836313 -0.4675806
v -0.4967347 0.08565746 -0.2170624
v -0.529453 -0.08565746 -0.116366
v -0.4375435 -0.09326191 -0.3178939
v -0.2742807 -0.08565746 -0.4675805
v -0.4375435 -0.09326191 -0.3178939
v -0.430466 -0.2836313 -0.1882843
v -0.4375435 -0.09326191 -0.3178939
v -0.529453 -0.08565746 -0.116366
v -0.430466 -0.2836313 -0.1882843
v -0.529453 -0.08565746 -0.116366
v -0.4908757 -0.2454378 4.291372E-08
v -0.430466 -0.2836313 -0.1882843
v -0.5294529 -0.08565746 0.1163661
v -0.3599381 0.08565747 0.4053469
v -0.3120902 -0.2836313 0.3512146
v -0.3599381 0.08565747 0.4053469
v -0.1671267 0.09326191 0.5143633
v -0.3120902 -0.2836313 0.3512146
v -0.5294529 -0.08565746 0.1163661
v -0.3120902 -0.2836313 0.3512146
v -0.4908757 -0.2454378 4.291372E-08
v -0.1671267 0.09326191 0.5143633
v 0.04604782 -0.2836313 0.4675806
v -0.3120902 -0.2836313 0.3512146
v 0.3120903 0.2836313 0.3512144
v 0.3599381 -0.08565746 0.4053468
v 0.05293933 0.08565746 0.5394987
v 0.1912698 -0.01860479 -0.5097439
v 0.430466 0.2836313 -0.1882843
v 0.1141165 0.4059858 -0.3512145
v 0.1912698 -0.01860479 -0.5097439
v 0.3599381 -0.08565746 -0.4053468
v 0.430466 0.2836313 -0.1882843
v 0.3599381 -0.08565746 -0.4053468
v 0.5294529 0.08565746 -0.1163661
v 0.430466 0.2836313 -0.1882843
v -0.2742807 -0.08565746 -0.4675805
v 0.0529392 0.08565746 -0.5394987
v -0.2375836 0.2836313 -0.4053468
v 0.0529392 0.08565746 -0.5394987
v 0.1141165 0.4059858 -0.3512145
v -0.2375836 0.2836313 -0.4053468
v -0.4908757 -0.2454378 4.291372E-08
v -0.529453 -0.08565746 -0.116366
v -0.5294529 -0.08565746 0.1163661
v -0.5294529 -0.08565746 0.1163661
v -0.529453 -0.08565746 -0.116366
v -0.5408335 0.09326191 6.303555E-08
v -0.529453 -0.08565746 -0.116366
v -0.4967347 0.08565746 -0.2170624
v -0.5408335 0.09326191 6.303555E-08
v -0.5294529 -0.08565746 0.1163661
v -0.4453539 0.2836313 0.08173369
v -0.3599381 0.08565747 0.4053469
v -0.5294529 -0.08565746 0.1163661
v -0.5408335 0.09326191 6.303555E-08
v -0.4453539 0.2836313 0.08173369
v 0.04604782 -0.2836313 0.4675806
v -0.1671267 0.09326191 0.5143633
v 0.05293933 0.08565746 0.5394987
v 0.05293933 0.08565746 0.5394987
v -0.04604764 0.2836313 0.4675806
v 0.3120903 0.2836313 0.3512144
v 0.05293933 0.08565746 0.5394987
v -0.1671267 0.09326191 0.5143633
v -0.04604764 0.2836313 0.4675806
v -0.1671267 0.09326191 0.5143633
v -0.3599381 0.08565747 0.4053469
v -0.04604764 0.2836313 0.4675806
v 0.2375836 -0.2836313 0.4053468
v 0.3599381 -0.08565746 0.4053468
v 0.5294529 0.08565746 0.1163661
v -0.06117729 -0.5118642 -0.1882843
v 0 -0.5488157 0
v 0.2987609 -0.4059858 -0.2170625
v -0.06117729 -0.5118642 -0.1882843
v 0.2987609 -0.4059858 -0.2170625
v 0.04604767 -0.2836313 -0.4675806
v 0.2987609 -0.4059858 -0.2170625
v 0.3599381 -0.08565746 -0.4053468
v 0.04604767 -0.2836313 -0.4675806
v 0 -0.5488157 0
v -0.06117729 -0.5118642 -0.1882843
v -0.1979738 -0.5118642 1.730742E-08
v -0.3692887 -0.4059858 3.228425E-08
v -0.430466 -0.2836313 -0.1882843
v -0.4908757 -0.2454378 4.291372E-08
v 0 -0.5488157 0
v -0.1979738 -0.5118642 1.730742E-08
v -0.06117721 -0.5118642 0.1882843
v -0.06117721 -0.5118642 0.1882843
v -0.3120902 -0.2836313 0.3512146
v 0.04604782 -0.2836313 0.4675806
v -0.3692887 -0.4059858 3.228425E-08
v -0.4908757 -0.2454378 4.291372E-08
v -0.3120902 -0.2836313 0.3512146
v 0 -0.5488157 0
v -0.06117721 -0.5118642 0.1882843
v 0.1601642 -0.5118642 0.1163661
v 0 -0.5488157 0
v 0.1601642 -0.5118642 0.1163661
v 0.2987609 -0.4059858 -0.2170625
v 0.2987609 -0.4059858 -0.2170625
v 0.458925 -0.2836313 -0.1006964
v 0.3599381 -0.08565746 -0.4053468
v 0.2987609 -0.4059858 -0.2170625
v 0.1601642 -0.5118642 0.1163661
v 0.458925 -0.2836313 -0.1006964
v 0.1601642 -0.5118642 0.1163661
v 0.2375836 -0.2836313 0.4053468
v 0.458925 -0.2836313 -0.1006964
v 0.3692887 0.4059858 0
v 0.430466 0.2836313 -0.1882843
v 0.430466 0.2836313 0.1882843
v 0.5294529 0.08565746 -0.1163661
v 0.5294529 0.08565746 0.1163661
v 0.3692887 0.4059858 0
v 0.06117727 0.5118642 -0.1882843
v 0.430466 0.2836313 -0.1882843
v 0.1141165 0.4059858 -0.3512145
v 0.06117727 0.5118642 -0.1882843
v -0.1601642 0.5118642 -0.1163661
v 0.1141165 0.4059858 -0.3512145
v -0.2375836 0.2836313 -0.4053468
v -0.2987609 0.4059858 -0.2170624
v -0.2987609 0.4059858 -0.2170624
v -0.3252841 0.4420282 4.50254E-08
v -0.4453539 0.2836313 0.08173369
v -0.4967347 0.08565746 -0.2170624
v -0.5408335 0.09326191 6.303555E-08
v 0.06117729 0.5118642 0.1882843
v 0.3692887 0.4059858 0
v 0.3120903 0.2836313 0.3512144
v 0.430466 0.2836313 0.1882843
v 0.05293933 0.08565746 0.5394987
v 0.3599381 -0.08565746 0.4053468
v 0.2375836 -0.2836313 0.4053468
v 0.04604782 -0.2836313 0.4675806
v -0.4375435 -0.09326191 -0.3178939
v -0.2375836 0.2836313 -0.4053468
v -0.4967347 0.08565746 -0.2170624
v -0.2742807 -0.08565746 -0.4675805
v 0.5294529 0.08565746 0.1163661
v 0.3599381 -0.08565746 0.4053468
v 0.430466 0.2836313 0.1882843
v 0.3120903 0.2836313 0.3512144
v -0.06117729 -0.5118642 -0.1882843
v 0.04604767 -0.2836313 -0.4675806
v -0.2742807 -0.08565746 -0.4675805
v -0.430466 -0.2836313 -0.1882843
v -0.06117729 -0.5118642 -0.1882843
v -0.430466 -0.2836313 -0.1882843
v -0.3692887 -0.4059858 3.228425E-08
v -0.1979738 -0.5118642 1.730742E-08
v -0.06117721 -0.5118642 0.1882843
v -0.1979738 -0.5118642 1.730742E-08
v -0.3692887 -0.4059858 3.228425E-08
v -0.3120902 -0.2836313 0.3512146
v 0.1601642 -0.5118642 0.1163661
v -0.06117721 -0.5118642 0.1882843
v 0.04604782 -0.2836313 0.4675806
v 0.2375836 -0.2836313 0.4053468
vt 0.316949 0.3072462
vt 0.316949 0.3072462
vt 0.316949 0.3072462
vt 0.316949 0.3072462
vt 0.316949 0.3072462
vt 0.316949 0.3072462
vt 0.316949 0.3072462
vt 0.316949 0.3072462
vt 0.316949 0.3072462
vt 0.316949 0.3072462
vt 0.316949 0.3072462
vt 0.316949 0.3072462
vt 0.316949 0.3072462
vt 0.316949 0.3072462
vt 0.316949 0.3072462
vt 0.316949 0.3072462
vt 0.316949 0.3072462
vt 0.316949 0.3072462
vt 0.316949 0.3072462
vt 0.316949 0.3072462
vt 0.316949 0.3072462
vt 0.316949 0.3072462
vt 0.316949 0.3072462
vt 0.316949 0.3072462
vt 0.316949 0.3072462
vt 0.316949 0.3072462
vt 0.316949 0.3072462
vt 0.316949 0.3072462
vt 0.316949 0.3072462
vt 0.316949 0.3072462
vt 0.316949 0.3072462
vt 0.316949 0.3072462
vt 0.316949 0.3072462
vt 0.316949 0.3072462
vt 0.316949 0.3072462
vt 0.316949 0.3072462
vt 0.316949 0.3072462
vt 0.316949 0.3072462
vt 0.316949 0.3072462
vt 0.316949 0.3072462
vt 0.316949 0.3072462
vt 0.316949 0.3072462
vt 0.316949 0.3072462
vt 0.316949 0.3072462
vt 0.316949 0.3072462
vt 0.316949 0.3072462
vt 0.316949 0.3072462
vt 0.316949 0.3072462
vt 0.316949 0.3072462
vt 0.316949 0.3072462
vt 0.316949 0.3072462
vt 0.316949 0.3072462
vt 0.316949 0.3072462
vt 0.316949 0.3072462
vt 0.316949 0.3072462
vt 0.316949 0.3072462
vt 0.316949 0.3072462
vt 0.316949 0.3072462
vt 0.316949 0.3072462
vt 0.316949 0.3072462
vt 0.316949 0.3072462
vt 0.316949 0.3072462
vt 0.316949 0.3072462
vt 0.316949 0.3072462
vt 0.316949 0.3072462
vt 0.316949 0.3072462
vt 0.316949 0.3072462
vt 0.316949 0.3072462
vt 0.316949 0.3072462
vt 0.316949 0.3072462
vt 0.316949 0.3072462
vt 0.316949 0.3072462
vt 0.316949 0.3072462
vt 0.316949 0.3072462
vt 0.316949 0.3072462
vt 0.316949 0.3072462
vt 0.316949 0.3072462
vt 0.316949 0.3072462
vt 0.316949 0.3072462
vt 0.316949 0.3072462
vt 0.316949 0.3072462
vt 0.316949 0.3072462
vt 0.316949 0.3072462
vt 0.316949 0.3072462
vt 0.316949 0.3072462
vt 0.316949 0.3072462
vt 0.316949 0.3072462
vt 0.316949 0.3072462
vt 0.316949 0.3072462
vt 0.316949 0.3072462
vt 0.316949 0.3072462
vt 0.316949 0.3072462
vt 0.316949 0.3072462
vt 0.316949 0.3072462
vt 0.316949 0.3072462
vt 0.316949 0.3072462
vt 0.316949 0.3072462
vt 0.316949 0.3072462
vt 0.316949 0.3072462
vt 0.316949 0.3072462
vt 0.316949 0.3072462
vt 0.316949 0.3072462
vt 0.316949 0.3072462
vt 0.316949 0.3072462
vt 0.316949 0.3072462
vt 0.316949 0.3072462
vt 0.316949 0.3072462
vt 0.316949 0.3072462
vt 0.316949 0.3072462
vt 0.316949 0.3072462
vt 0.316949 0.3072462
vt 0.316949 0.3072462
vt 0.316949 0.3072462
vt 0.316949 0.3072462
vt 0.316949 0.3072462
vt 0.316949 0.3072462
vt 0.316949 0.3072462
vt 0.316949 0.3072462
vt 0.316949 0.3072462
vt 0.316949 0.3072462
vt 0.316949 0.3072462
vt 0.316949 0.3072462
vt 0.316949 0.3072462
vt 0.316949 0.3072462
vt 0.316949 0.3072462
vt 0.316949 0.3072462
vt 0.316949 0.3072462
vt 0.316949 0.3072462
vt 0.316949 0.3072462
vt 0.316949 0.3072462
vt 0.316949 0.3072462
vt 0.316949 0.3072462
vt 0.316949 0.3072462
vt 0.316949 0.3072462
vt 0.316949 0.3072462
vt 0.316949 0.3072462
vt 0.316949 0.3072462
vt 0.316949 0.3072462
vt 0.316949 0.3072462
vt 0.316949 0.3072462
vt 0.316949 0.3072462
vt 0.316949 0.3072462
vt 0.316949 0.3072462
vt 0.316949 0.3072462
vt 0.316949 0.3072462
vt 0.316949 0.3072462
vt 0.316949 0.3072462
vt 0.316949 0.3072462
vt 0.316949 0.3072462
vt 0.316949 0.3072462
vt 0.316949 0.3072462
vt 0.316949 0.3072462
vt 0.316949 0.3072462
vt 0.316949 0.3072462
vt 0.316949 0.3072462
vt 0.316949 0.3072462
vt 0.316949 0.3072462
vt 0.316949 0.3072462
vt 0.316949 0.3072462
vt 0.316949 0.3072462
vt 0.316949 0.3072462
vt 0.316949 0.3072462
vt 0.316949 0.3072462
vt 0.316949 0.3072462
vt 0.316949 0.3072462
vt 0.316949 0.3072462
vt 0.316949 0.3072462
vt 0.316949 0.3072462
vt 0.316949 0.3072462
vt 0.316949 0.3072462
vt 0.316949 0.3072462
vt 0.316949 0.3072462
vt 0.316949 0.3072462
vt 0.316949 0.3072462
vt 0.316949 0.3072462
vt 0.316949 0.3072462
vt 0.316949 0.3072462
vt 0.316949 0.3072462
vt 0.316949 0.3072462
vt 0.316949 0.3072462
vt 0.316949 0.3072462
vt 0.316949 0.3072462
vt 0.316949 0.3072462
vt 0.316949 0.3072462
vt 0.316949 0.3072462
vt 0.316949 0.3072462
vt 0.316949 0.3072462
vt 0.316949 0.3072462
vt 0.316949 0.3072462
vt 0.316949 0.3072462
vt 0.316949 0.3072462
vt 0.316949 0.3072462
vt 0.316949 0.3072462
vt 0.316949 0.3072462
vt 0.316949 0.3072462
vt 0.316949 0.3072462
vt 0.316949 0.3072462
vt 0.316949 0.3072462
vt 0.316949 0.3072462
vt 0.316949 0.3072462
vt 0.316949 0.3072462
vt 0.316949 0.3072462
vt 0.316949 0.3072462
vt 0.316949 0.3072462
vt 0.316949 0.3072462
vt 0.316949 0.3072462
vt 0.316949 0.3072462
vt 0.316949 0.3072462
vt 0.316949 0.3072462
vt 0.316949 0.3072462
vt 0.316949 0.3072462
vt 0.316949 0.3072462
vt 0.316949 0.3072462
vt 0.316949 0.3072462
vt 0.316949 0.3072462
vt 0.316949 0.3072462
vt 0.316949 0.3072462
vt 0.316949 0.3072462
vt 0.316949 0.3072462
vt 0.316949 0.3072462
vt 0.316949 0.3072462
vt 0.316949 0.3072462
vn 0.3599501 0.9306561 -0.0656899
vn 0.3599501 0.9306561 -0.06568991
vn 0.3599501 0.9306561 -0.0656899
vn -0.06946845 0.9744039 -0.213802
vn -0.06946844 0.9744039 -0.213802
vn -0.06946844 0.9744039 -0.213802
vn -0.7236068 0.4472137 -0.525731
vn -0.7236068 0.4472137 -0.525731
vn -0.7236069 0.4472136 -0.525731
vn -0.2248045 0.9744039 0
vn -0.2248045 0.9744039 0
vn -0.2248045 0.9744039 0
vn -0.4983103 0.8433939 -0.2009319
vn -0.4983103 0.8433939 -0.2009319
vn -0.4983103 0.8433939 -0.2009319
vn -0.3895342 0.921012 1.754138E-07
vn -0.3895341 0.921012 1.754138E-07
vn -0.3895342 0.921012 1.754138E-07
vn -0.5937511 0.6756049 0.4370557
vn -0.5937511 0.6756049 0.4370558
vn -0.5937511 0.6756049 0.4370558
vn -0.5670076 0.6275436 0.5335647
vn -0.5670077 0.6275437 0.5335647
vn -0.5670077 0.6275436 0.5335647
vn -0.06946837 0.9744038 0.2138021
vn -0.06946837 0.9744038 0.2138021
vn -0.06946837 0.9744038 0.2138021
vn -0.5140958 0.6332396 0.578544
vn -0.5140958 0.6332396 0.578544
vn -0.5140958 0.6332396 0.578544
vn -0.1875924 0.7946545 0.5773501
vn -0.1875924 0.7946545 0.5773501
vn -0.1875924 0.7946545 0.5773501
vn 0.2164788 0.7136132 0.6662531
vn 0.2164788 0.7136132 0.6662531
vn 0.2164788 0.7136132 0.6662531
vn 0.3599501 0.9306561 0.06568959
vn 0.3599501 0.9306561 0.06568959
vn 0.3599501 0.9306561 0.06568959
vn 0.9822469 -0.1875923 0
vn 0.9822469 -0.1875923 0
vn 0.9822469 -0.1875923 0
vn 0.8475522 -0.3797694 0.3707162
vn 0.8475522 -0.3797694 0.3707162
vn 0.8475522 -0.3797694 0.3707162
vn 0.8917327 -0.187778 -0.411767
vn 0.8917327 -0.187778 -0.4117671
vn 0.8917327 -0.187778 -0.4117671
vn 0.4607078 0.3827111 -0.8008
vn 0.4607078 0.3827111 -0.8008
vn 0.4607078 0.382711 -0.8008
vn 0.3890539 -0.3488273 -0.8526174
vn 0.389054 -0.3488273 -0.8526174
vn 0.389054 -0.3488273 -0.8526174
vn 0.06596499 -0.1919262 -0.97919
vn 0.06596499 -0.1919262 -0.9791899
vn 0.06596499 -0.1919262 -0.9791899
vn -0.1160533 -0.187778 -0.9753313
vn -0.1160533 -0.187778 -0.9753313
vn -0.1160533 -0.187778 -0.9753313
vn -0.9086806 -0.06852549 -0.4118299
vn -0.9086806 -0.06852548 -0.4118299
vn -0.9086806 -0.06852549 -0.4118299
vn -0.5838882 -0.4716051 -0.6608049
vn -0.5838882 -0.4716051 -0.6608049
vn -0.5838882 -0.4716051 -0.6608049
vn -0.8732401 -0.2960038 -0.3870833
vn -0.8732401 -0.2960038 -0.3870833
vn -0.8732401 -0.2960038 -0.3870832
vn -0.9026005 -0.3736323 -0.2138016
vn -0.9026005 -0.3736323 -0.2138015
vn -0.9026005 -0.3736323 -0.2138016
vn -0.7946544 -0.1875928 0.5773503
vn -0.7946544 -0.1875928 0.5773503
vn -0.7946544 -0.1875928 0.5773503
vn -0.4778124 -0.1877048 0.8581737
vn -0.4778124 -0.1877048 0.8581738
vn -0.4778124 -0.1877048 0.8581737
vn -0.8106 -0.4598104 0.3626322
vn -0.8106 -0.4598103 0.3626322
vn -0.8106 -0.4598103 0.3626322
vn -0.2965627 -0.2810332 0.9127272
vn -0.2965627 -0.2810332 0.9127272
vn -0.2965626 -0.2810332 0.9127272
vn 0.4793964 0.187778 0.8572739
vn 0.4793964 0.187778 0.8572739
vn 0.4793964 0.187778 0.8572738
vn 0.5353544 0.3790909 -0.7547753
vn 0.5353544 0.3790909 -0.7547753
vn 0.5353543 0.3790909 -0.7547753
vn 0.5876535 0.3236479 -0.7415628
vn 0.5876536 0.3236479 -0.7415628
vn 0.5876535 0.3236479 -0.7415628
vn 0.7946545 0.1875925 -0.5773501
vn 0.7946545 0.1875925 -0.5773501
vn 0.7946545 0.1875925 -0.5773501
vn -0.3035311 0.1875923 -0.9341723
vn -0.3035311 0.1875923 -0.9341723
vn -0.3035312 0.1875923 -0.9341723
vn -0.04643894 0.512762 -0.8572739
vn -0.04643894 0.512762 -0.8572739
vn -0.04643894 0.5127619 -0.857274
vn -0.9720688 -0.234696 3.191002E-07
vn -0.9720688 -0.234696 3.191003E-07
vn -0.9720688 -0.234696 3.191003E-07
vn -0.9979832 -0.06347857 3.272522E-07
vn -0.9979832 -0.06347857 3.272522E-07
vn -0.9979832 -0.06347857 3.272522E-07
vn -0.9772056 0.06852551 -0.2009316
vn -0.9772056 0.06852551 -0.2009316
vn -0.9772056 0.06852551 -0.2009316
vn -0.8927281 0.2391195 0.3819141
vn -0.8927281 0.2391195 0.3819141
vn -0.8927281 0.2391195 0.381914
vn -0.8604701 0.2381954 0.4503933
vn -0.8604701 0.2381954 0.4503933
vn -0.8604701 0.2381954 0.4503933
vn -0.117863 -0.1877046 0.9751284
vn -0.117863 -0.1877046 0.9751284
vn -0.117863 -0.1877046 0.9751284
vn 0.2763933 0.4472137 0.8506507
vn 0.2763932 0.4472136 0.8506507
vn 0.2763932 0.4472136 0.8506507
vn -0.09829134 0.296004 0.950116
vn -0.09829134 0.296004 0.950116
vn -0.09829135 0.296004 0.950116
vn -0.4480307 0.4716052 0.7595111
vn -0.4480307 0.4716053 0.7595111
vn -0.4480307 0.4716052 0.7595111
vn 0.8361081 -0.5167429 0.1841193
vn 0.8361081 -0.5167429 0.1841193
vn 0.8361081 -0.5167429 0.1841193
vn 0.2525944 -0.9306561 -0.2647174
vn 0.2525944 -0.9306561 -0.2647173
vn 0.2525944 -0.9306561 -0.2647174
vn 0.1875925 -0.7946545 -0.57735
vn 0.1875925 -0.7946545 -0.5773501
vn 0.1875925 -0.7946545 -0.5773501
vn 0.4663231 -0.512762 -0.7208452
vn 0.4663231 -0.512762 -0.7208452
vn 0.466323 -0.5127621 -0.7208453
vn -0.1818707 -0.9744039 -0.1321366
vn -0.1818707 -0.9744039 -0.1321366
vn -0.1818707 -0.9744039 -0.1321366
vn -0.7901986 -0.5984364 -0.1321365
vn -0.7901986 -0.5984364 -0.1321365
vn -0.7901986 -0.5984364 -0.1321365
vn -0.1818707 -0.9744039 0.1321369
vn -0.1818707 -0.9744039 0.1321369
vn -0.1818707 -0.9744039 0.1321369
vn -0.2164785 -0.7136133 0.6662531
vn -0.2164785 -0.7136132 0.6662531
vn -0.2164785 -0.7136132 0.6662531
vn -0.7547206 -0.571569 0.3220336
vn -0.7547206 -0.5715691 0.3220336
vn -0.7547206 -0.5715691 0.3220336
vn 0.06946843 -0.9744039 0.2138017
vn 0.06946845 -0.9744039 0.2138017
vn 0.06946843 -0.9744039 0.2138017
vn 0.3298172 -0.9306561 -0.1584293
vn 0.3298172 -0.9306561 -0.1584293
vn 0.3298172 -0.9306561 -0.1584293
vn 0.7236068 -0.4472134 -0.5257312
vn 0.7236068 -0.4472135 -0.5257312
vn 0.7236068 -0.4472134 -0.5257312
vn 0.607062 -0.7946545 -1.395109E-07
vn 0.6070619 -0.7946545 -1.395109E-07
vn 0.6070619 -0.7946545 -1.395109E-07
vn 0.7090923 -0.6332396 0.3101544
vn 0.7090923 -0.6332397 0.3101544
vn 0.7090923 -0.6332396 0.3101544
vn 0.8944272 0.4472136 -1.184843E-07
vn 0.8944272 0.4472136 -1.184843E-07
vn 0.8944272 0.4472136 -1.184843E-07
vn 0.8944273 0.4472134 0
vn 0.8944273 0.4472134 0
vn 0.4911235 0.7946545 -0.356822
vn 0.4911235 0.7946545 -0.356822
vn 0.4911235 0.7946545 -0.356822
vn 0.4911234 0.7946545 -0.356822
vn -0.1875926 0.7946547 -0.57735
vn -0.1875926 0.7946547 -0.57735
vn -0.1875926 0.7946547 -0.57735
vn -0.1875925 0.7946545 -0.57735
vn -0.1875926 0.7946544 -0.5773503
vn -0.8338002 0.515317 -0.1980545
vn -0.8270469 0.5294198 -0.1889659
vn -0.8338001 0.5153171 -0.1980545
vn -0.8338001 0.5153171 -0.1980545
vn -0.8428855 0.5038484 -0.1888938
vn 0.4911235 0.7946545 0.356822
vn 0.4911235 0.7946545 0.356822
vn 0.4911235 0.7946545 0.356822
vn 0.4911233 0.7946545 0.3568221
vn 0.3035316 -0.1875923 0.9341722
vn 0.3035316 -0.1875923 0.9341722
vn 0.3035316 -0.1875923 0.9341722
vn 0.3035307 -0.1875924 0.9341725
vn -0.666634 0.186209 -0.7217516
vn -0.666634 0.186209 -0.7217516
vn -0.666634 0.186209 -0.7217516
vn -0.6685197 0.1877043 -0.7196168
vn 0.7946547 0.187592 0.5773502
vn 0.7946547 0.187592 0.5773502
vn 0.7946547 0.187592 0.5773502
vn 0.7946545 0.1875924 0.5773503
vn -0.3913636 -0.6332396 -0.6677142
vn -0.3913636 -0.6332394 -0.6677142
vn -0.3913636 -0.6332396 -0.6677142
vn -0.3913637 -0.6332393 -0.6677143
vn -0.4911234 -0.7946545 -0.356822
vn -0.4911234 -0.7946545 -0.356822
vn -0.4911234 -0.7946545 -0.356822
vn -0.4911234 -0.7946545 -0.356822
vn -0.4911234 -0.7946543 0.3568225
vn -0.4911234 -0.7946543 0.3568226
vn -0.4911234 -0.7946543 0.3568225
vn -0.4911234 -0.7946545 0.3568219
vn 0.1875925 -0.7946545 0.5773503
vn 0.1875925 -0.7946545 0.5773503
vn 0.1875925 -0.7946545 0.5773503
vn 0.1875926 -0.7946544 0.5773503
g FX_Sphere_01_0
f 3/3/3 2/2/2 1/1/1
f 6/6/6 5/5/5 4/4/4
f 9/9/9 8/8/8 7/7/7
f 12/12/12 11/11/11 10/10/10
f 15/15/15 14/14/14 13/13/13
f 18/18/18 17/17/17 16/16/16
f 21/21/21 20/20/20 19/19/19
f 24/24/24 23/23/23 22/22/22
f 27/27/27 26/26/26 25/25/25
f 30/30/30 29/29/29 28/28/28
f 33/33/33 32/32/32 31/31/31
f 36/36/36 35/35/35 34/34/34
f 39/39/39 38/38/38 37/37/37
f 42/42/42 41/41/41 40/40/40
f 45/45/45 44/44/44 43/43/43
f 48/48/48 47/47/47 46/46/46
f 51/51/51 50/50/50 49/49/49
f 54/54/54 53/53/53 52/52/52
f 57/57/57 56/56/56 55/55/55
f 60/60/60 59/59/59 58/58/58
f 63/63/63 62/62/62 61/61/61
f 66/66/66 65/65/65 64/64/64
f 69/69/69 68/68/68 67/67/67
f 72/72/72 71/71/71 70/70/70
f 75/75/75 74/74/74 73/73/73
f 78/78/78 77/77/77 76/76/76
f 81/81/81 80/80/80 79/79/79
f 84/84/84 83/83/83 82/82/82
f 87/87/87 86/86/86 85/85/85
f 90/90/90 89/89/89 88/88/88
f 93/93/93 92/92/92 91/91/91
f 96/96/96 95/95/95 94/94/94
f 99/99/99 98/98/98 97/97/97
f 102/102/102 101/101/101 100/100/100
f 105/105/105 104/104/104 103/103/103
f 108/108/108 107/107/107 106/106/106
f 111/111/111 110/110/110 109/109/109
f 114/114/114 113/113/113 112/112/112
f 117/117/117 116/116/116 115/115/115
f 120/120/120 119/119/119 118/118/118
f 123/123/123 122/122/122 121/121/121
f 126/126/126 125/125/125 124/124/124
f 129/129/129 128/128/128 127/127/127
f 132/132/132 131/131/131 130/130/130
f 135/135/135 134/134/134 133/133/133
f 138/138/138 137/137/137 136/136/136
f 141/141/141 140/140/140 139/139/139
f 144/144/144 143/143/143 142/142/142
f 147/147/147 146/146/146 145/145/145
f 150/150/150 149/149/149 148/148/148
f 153/153/153 152/152/152 151/151/151
f 156/156/156 155/155/155 154/154/154
f 159/159/159 158/158/158 157/157/157
f 162/162/162 161/161/161 160/160/160
f 165/165/165 164/164/164 163/163/163
f 168/168/168 167/167/167 166/166/166
f 171/171/171 170/170/170 169/169/169
f 174/174/174 173/173/173 172/172/172
f 173/173/173 174/174/174 175/175/175
f 176/176/176 175/175/175 174/174/174
f 179/179/179 178/178/178 177/177/177
f 179/179/179 180/180/180 178/178/178
f 183/183/183 182/182/182 181/181/181
f 184/184/184 182/182/182 183/183/183
f 184/184/184 185/185/185 182/182/182
f 188/188/188 187/187/187 186/186/186
f 189/189/189 188/188/188 186/186/186
f 188/188/188 189/189/189 190/190/190
f 193/193/193 192/192/192 191/191/191
f 193/193/193 194/194/194 192/192/192
f 197/197/197 196/196/196 195/195/195
f 198/198/198 197/197/197 195/195/195
f 201/201/201 200/200/200 199/199/199
f 200/200/200 202/202/202 199/199/199
f 205/205/205 204/204/204 203/203/203
f 206/206/206 204/204/204 205/205/205
f 209/209/209 208/208/208 207/207/207
f 210/210/210 209/209/209 207/207/207
f 213/213/213 212/212/212 211/211/211
f 214/214/214 213/213/213 211/211/211
f 217/217/217 216/216/216 215/215/215
f 218/218/218 217/217/217 215/215/215
f 221/221/221 220/220/220 219/219/219
f 222/222/222 221/221/221 219/219/219
