g LightCube
v 0.001118526 0.002128512 0.001140282
v 0.009024344 0.03361062 -0.1102471
v 0.02596539 0.02358717 -0.1102471
v 0.00224793 0.001422636 0.001140282
v 0.03471827 0.005940244 -0.1102471
v 0.002953805 0.0002932325 0.001140282
v 0.03260064 -0.01354196 -0.1102471
v 0.00267145 -0.001118526 0.001140282
v 0.02031838 -0.0287889 -0.1102471
v 0.001824401 -0.00224793 0.001140282
v 0.001683228 -0.03500062 -0.1102471
v 0.000553824 -0.00267145 0.001140282
v -0.0002932325 0.002128512 0.001140282
v -0.01059903 0.03290475 -0.1102471
v 0.009024344 0.03361062 -0.1102471
v 0.001118526 0.002128512 0.001140282
v -0.001422636 0.001281455 0.001140282
v -0.02669304 0.02161071 -0.1102471
v -0.001987338 1.087785E-05 0.001140282
v -0.03417533 0.003540263 -0.1102471
v -0.001704983 -0.001259699 0.001140282
v -0.03064594 -0.01580077 -0.1102471
v -0.0007167533 -0.00224793 0.001140282
v -0.01737546 -0.03020066 -0.1102471
v 0.000553824 -0.00267145 0.001140282
v 0.001683228 -0.03500062 -0.1102471
vt 0.5182195 0.9798478
vt 0.6962762 0.1390249
vt 0.636924 0.1390249
vt 0.5116249 0.9798478
vt 0.5380036 0.1390249
vt 0.5050302 0.9798478
vt 0.4225966 0.1390249
vt 0.4951382 0.9798478
vt 0.3335682 0.1390249
vt 0.4852461 0.9798478
vt 0.3005948 0.1390249
vt 0.4819487 0.9798478
vt 0.5182195 0.9798478
vt 0.6929789 0.1390249
vt 0.6962762 0.1390249
vt 0.5182195 0.9798478
vt 0.5116249 0.9798478
vt 0.6270319 0.1390249
vt 0.5017328 0.9798478
vt 0.5215169 0.1390249
vt 0.4918408 0.9798478
vt 0.4094071 0.1390249
vt 0.4852461 0.9798478
vt 0.3269736 0.1390249
vt 0.4819487 0.9798478
vt 0.3005948 0.1390249
vn 0.2303452 0.924349 0.304171
vn 0.2303452 0.924349 0.304171
vn 0.7165322 0.6508688 0.250901
vn 0.7165322 0.6508688 0.250901
vn 0.9596258 0.1646817 0.2280314
vn 0.9596258 0.1646817 0.2280314
vn 0.8988524 -0.3822787 0.2143067
vn 0.8988524 -0.3822787 0.2143067
vn 0.5342121 -0.7773056 0.3322852
vn 0.5342121 -0.7773056 0.3322852
vn 0.04802507 -0.9596258 0.2771497
vn 0.04802507 -0.9596258 0.2771497
vn -0.3166152 0.924349 0.2129172
vn -0.3166152 0.924349 0.2129172
vn 0.2303452 0.924349 0.304171
vn 0.2303452 0.924349 0.304171
vn -0.7420289 0.5900955 0.3180887
vn -0.7420289 0.5900955 0.3180887
vn -0.9547357 0.1039084 0.2787164
vn -0.9547357 0.1039084 0.2787164
vn -0.8635756 -0.4430521 0.2407114
vn -0.8635756 -0.4430521 0.2407114
vn -0.4989354 -0.838079 0.2206513
vn -0.4989354 -0.838079 0.2206513
vn 0.04802507 -0.9596258 0.2771497
vn 0.04802507 -0.9596258 0.2771497
g LightCube_0
f 3/3/3 2/2/2 1/1/1
f 4/4/4 3/3/3 1/1/1
f 5/5/5 3/3/3 4/4/4
f 6/6/6 5/5/5 4/4/4
f 7/7/7 5/5/5 6/6/6
f 8/8/8 7/7/7 6/6/6
f 9/9/9 7/7/7 8/8/8
f 10/10/10 9/9/9 8/8/8
f 11/11/11 9/9/9 10/10/10
f 12/12/12 11/11/11 10/10/10
f 15/15/15 14/14/14 13/13/13
f 16/16/16 15/15/15 13/13/13
f 14/14/14 18/18/18 17/17/17
f 13/13/13 14/14/14 17/17/17
f 18/18/18 20/20/20 19/19/19
f 17/17/17 18/18/18 19/19/19
f 20/20/20 22/22/22 21/21/21
f 19/19/19 20/20/20 21/21/21
f 22/22/22 24/24/24 23/23/23
f 21/21/21 22/22/22 23/23/23
f 24/24/24 26/26/26 25/25/25
f 23/23/23 24/24/24 25/25/25
