g SM_2Planes
v -6.175995E-05 0 0
v -6.175995E-05 5.684342E-16 0.8483473
v -1.397874 5.684342E-16 0.8483473
v -1.397874 0 0
v -6.175995E-05 -5.684342E-16 -0.8483473
v -2.795686 5.684342E-16 0.8483473
v -1.397874 -5.684342E-16 -0.8483473
v -2.795686 0 0
v -2.795686 -5.684342E-16 -0.8483473
v -1.397874 -0.8483473 3.710212E-17
v -6.175995E-05 0 0
v -6.175995E-05 -0.8483473 3.710212E-17
v -1.397874 0 0
v -2.795686 -0.8483473 3.710212E-17
v -6.175995E-05 0.8483473 -3.710212E-17
v -2.795686 0 0
v -1.397874 0.8483473 -3.710212E-17
v -2.795686 0.8483473 -3.710212E-17
vt 0 0.5002441
vt 5.960464E-08 1
vt 0.5 1
vt 0.5 0.5
vt -5.960464E-08 0
vt 1 1
vt 0.4997559 0
vt 1 0.5
vt 1 0
vt 0.5 1
vt 0 0.5002441
vt 5.960464E-08 1
vt 0.5 0.5
vt 1 1
vt -5.960464E-08 0
vt 1 0.5
vt 0.4997559 0
vt 1 0
vn 0 1 0
vn 0 1 0
vn 0 1 0
vn 0 1 0
vn 0 1 0
vn 0 1 0
vn 0 1 0
vn 0 1 0
vn 0 1 0
vn 0 0 1
vn 0 0 1
vn 0 0 1
vn 0 0 1
vn 0 0 1
vn 0 0 1
vn 0 0 1
vn 0 0 1
vn 0 0 1
g SM_2Planes_0
f 3/3/3 2/2/2 1/1/1
f 4/4/4 3/3/3 1/1/1
f 4/4/4 1/1/1 5/5/5
f 6/6/6 3/3/3 4/4/4
f 7/7/7 4/4/4 5/5/5
f 8/8/8 6/6/6 4/4/4
f 8/8/8 4/4/4 7/7/7
f 9/9/9 8/8/8 7/7/7
f 12/12/12 11/11/11 10/10/10
f 11/11/11 13/13/13 10/10/10
f 10/10/10 13/13/13 14/14/14
f 11/11/11 15/15/15 13/13/13
f 13/13/13 16/16/16 14/14/14
f 15/15/15 17/17/17 13/13/13
f 13/13/13 17/17/17 16/16/16
f 17/17/17 18/18/18 16/16/16
