g SM_Bld_Floor_Drain_01
v 1.434985 -0.05812538 -1.43499
v 1.448669 -0.04492101 -1.44281
v 1.5 -0.04492101 -1.422525
v 1.5 -0.05812538 -1.413504
v 1.441766 -0.04492101 -1.558238
v 1.434985 -0.05812538 -1.565018
v 1.5 -0.05812538 -1.586505
v 1.492506 -0.04492101 -1.575336
v 1.565013 -0.05812538 -1.43499
v 1.558234 -0.04492101 -1.441771
v 1.573331 -0.04492101 -1.50581
v 1.586501 -0.05812538 -1.500005
v 1.413499 -0.05812538 -1.500005
v 1.422519 -0.04492101 -1.500005
v 1.448669 -0.04492101 -1.44281
v 1.434985 -0.05812538 -1.43499
v 1.5 -0.05812538 -1.413504
v 1.5 -0.04492101 -1.422525
v 1.558234 -0.04492101 -1.441771
v 1.565013 -0.05812538 -1.43499
v 1.5 -0.05812538 -1.586505
v 1.565013 -0.05812538 -1.565018
v 1.558234 -0.04492101 -1.558238
v 1.492506 -0.04492101 -1.575336
v 1.586501 -0.05812538 -1.500005
v 1.573331 -0.04492101 -1.50581
v 1.558234 -0.04492101 -1.558238
v 1.565013 -0.05812538 -1.565018
v 1.5 -0.04492101 -1.553935
v 1.540533 -0.04492101 -1.540538
v 1.553929 -0.04492101 -1.500005
v 1.5 -0.04492101 -1.500005
v 1.540533 -0.04492101 -1.45947
v 1.5 -0.04492101 -1.446074
v 1.459465 -0.04492101 -1.45947
v 1.446069 -0.04492101 -1.500005
v 1.459465 -0.04492101 -1.540538
v 1.434985 -0.05812538 -1.565018
v 1.441766 -0.04492101 -1.558238
v 1.422519 -0.04492101 -1.500005
v 1.413499 -0.05812538 -1.500005
v 1.89604 0 -1.052382
v 1.720279 -0.05812539 -1.279726
v 1.720279 -0.05812539 -1.720285
v 1.938934 0 -1.938939
v 1.575972 0 -1.952035
v 1.279721 -0.05812539 -1.720285
v 1.061066 0 -1.938939
v 1.442839 -0.05812539 -1.753867
v 1.938934 0 -1.938939
v 1.720279 -0.05812539 -1.720285
v 1.061066 0 -1.938939
v 1.279721 -0.05812539 -1.720285
v 1.279721 -0.05812539 -1.427332
v 1.00636 0 -1.369467
v 1.061066 0 -1.061072
v 1.279721 -0.05812539 -1.279726
v 1.061066 0 -1.061072
v 1.279721 -0.05812539 -1.279726
v 1.720279 -0.05812539 -1.279726
v 1.89604 0 -1.052382
v 1.720279 -0.05812539 -1.720285
v 1.279721 -0.05812539 -1.720285
v 1.442839 -0.05812539 -1.753867
v 1.5 -0.05812539 -1.500006
v 1.720279 -0.05812539 -1.279726
v 1.279721 -0.05812539 -1.279726
v 1.279721 -0.05812539 -1.427332
v 1 0 -2
v 1.00636 0 -1.369467
v 0.9644394 0 -1.33542
v 1 0 -1.000006
v 1.061066 0 -1.938939
v 1.061066 0 -1.061072
v 1.508595 0 -2
v 1.89604 0 -1.052382
v 1.575972 0 -1.952035
v 2 0 -1.000006
v 2 0 -2
v 1.938934 0 -1.938939
v 1.558234 -0.04492101 -1.441771
v 1.553929 -0.04492101 -1.500005
v 1.573331 -0.04492101 -1.50581
v 1.558234 -0.04492101 -1.558238
v 1.540533 -0.04492101 -1.45947
v 1.540533 -0.04492101 -1.540538
v 1.5 -0.04492101 -1.553935
v 1.492506 -0.04492101 -1.575336
v 1.459465 -0.04492101 -1.540538
v 1.441766 -0.04492101 -1.558238
v 1.446069 -0.04492101 -1.500005
v 1.422519 -0.04492101 -1.500005
v 1.459465 -0.04492101 -1.45947
v 1.448669 -0.04492101 -1.44281
v 1.5 -0.04492101 -1.446074
v 1.5 -0.04492101 -1.422525
v 1 0 -1.000006
v 0 0 -3
v 0.9644394 0 -1.33542
v 1 0 -2
v 0 0 -6.103515E-06
v 2 0 -1.000006
v 2.999993 0 -6.103515E-06
v 2 0 -2
v 2.999993 0 -3
v 1.508595 0 -2
vt 0.09094679 0.2799433
vt 0.09094679 0.2799433
vt 0.09094679 0.2799433
vt 0.09094679 0.2799433
vt 0.09094679 0.2799433
vt 0.09094679 0.2799433
vt 0.09094679 0.2799433
vt 0.09094679 0.2799433
vt 0.09094679 0.2799433
vt 0.09094679 0.2799433
vt 0.09094679 0.2799433
vt 0.09094679 0.2799433
vt 0.09094679 0.2799433
vt 0.09094679 0.2799433
vt 0.09094679 0.2799433
vt 0.09094679 0.2799433
vt 0.09094679 0.2799433
vt 0.09094679 0.2799433
vt 0.09094679 0.2799433
vt 0.09094679 0.2799433
vt 0.09094679 0.2799433
vt 0.09094679 0.2799433
vt 0.09094679 0.2799433
vt 0.09094679 0.2799433
vt 0.09094679 0.2799433
vt 0.09094679 0.2799433
vt 0.09094679 0.2799433
vt 0.09094679 0.2799433
vt 0.08013916 0.2303499
vt 0.08013916 0.2303499
vt 0.08013916 0.2303499
vt 0.08013916 0.2303499
vt 0.08013916 0.2303499
vt 0.08013916 0.2303499
vt 0.08013916 0.2303499
vt 0.08013916 0.2303499
vt 0.08013916 0.2303499
vt 0.09094679 0.2799433
vt 0.09094679 0.2799433
vt 0.09094679 0.2799433
vt 0.09094679 0.2799433
vt 0.1336212 0.2561729
vt 0.1336212 0.2561729
vt 0.1336212 0.2561729
vt 0.1336212 0.2561729
vt 0.1336212 0.2561729
vt 0.1336212 0.2561729
vt 0.1336212 0.2561729
vt 0.1336212 0.2561729
vt 0.1336212 0.2561729
vt 0.1336212 0.2561729
vt 0.1336212 0.2561729
vt 0.1336212 0.2561729
vt 0.1336212 0.2561729
vt 0.1336212 0.2561729
vt 0.1336212 0.2561729
vt 0.1336212 0.2561729
vt 0.1336212 0.2561729
vt 0.1336212 0.2561729
vt 0.1336212 0.2561729
vt 0.1336212 0.2561729
vt 0.1018982 0.2791079
vt 0.1018982 0.2791079
vt 0.1018982 0.2791079
vt 0.1018982 0.2791079
vt 0.1018982 0.2791079
vt 0.1018982 0.2791079
vt 0.1018982 0.2791079
vt 0.1336212 0.2561729
vt 0.1336212 0.2561729
vt 0.1336212 0.2561729
vt 0.1336212 0.2561729
vt 0.1336212 0.2561729
vt 0.1336212 0.2561729
vt 0.1336212 0.2561729
vt 0.1336212 0.2561729
vt 0.1336212 0.2561729
vt 0.1336212 0.2561729
vt 0.1336212 0.2561729
vt 0.1336212 0.2561729
vt 0.09094679 0.2799433
vt 0.09094679 0.2799433
vt 0.09094679 0.2799433
vt 0.09094679 0.2799433
vt 0.09094679 0.2799433
vt 0.09094679 0.2799433
vt 0.09094679 0.2799433
vt 0.09094679 0.2799433
vt 0.09094679 0.2799433
vt 0.09094679 0.2799433
vt 0.09094679 0.2799433
vt 0.09094679 0.2799433
vt 0.09094679 0.2799433
vt 0.09094679 0.2799433
vt 0.09094679 0.2799433
vt 0.09094679 0.2799433
vt 0.6675344 0.9155652
vt 0.7500648 0.7505041
vt 0.6675344 0.8879138
vt 0.6675344 0.8330346
vt 0.7500648 0.9980957
vt 0.5850039 0.9155652
vt 0.5024733 0.9980957
vt 0.5850039 0.8330346
vt 0.5024733 0.7505041
vt 0.6157049 0.8330346
vn -0.2670496 0.6127156 0.7438172
vn -0.2670496 0.6127156 0.7438172
vn -0.2670496 0.6127156 0.7438172
vn -0.2670496 0.6127156 0.7438172
vn -0.2668032 0.5368058 -0.8004096
vn -0.2668032 0.5368058 -0.8004096
vn -0.2668032 0.5368058 -0.8004096
vn -0.2668032 0.5368058 -0.8004096
vn 0.7306109 0.6506237 0.2071145
vn 0.7306109 0.6506237 0.2071145
vn 0.7306109 0.6506237 0.2071145
vn 0.7306109 0.6506237 0.2071145
vn -0.689605 0.6724503 0.268804
vn -0.689605 0.6724503 0.268804
vn -0.689605 0.6724503 0.268804
vn -0.689605 0.6724503 0.268804
vn 0.2632578 0.5442187 0.7965685
vn 0.2632578 0.5442187 0.7965685
vn 0.2632578 0.5442187 0.7965685
vn 0.2632578 0.5442187 0.7965685
vn 0.2205078 0.6269939 -0.7471646
vn 0.2205078 0.6269939 -0.7471646
vn 0.2205078 0.6269939 -0.7471646
vn 0.2205078 0.6269939 -0.7471646
vn 0.7703342 0.5907618 -0.23997
vn 0.7703342 0.5907618 -0.23997
vn 0.7703342 0.5907618 -0.23997
vn 0.7703342 0.5907618 -0.23997
vn 0 1 0
vn 0 1 0
vn 0 1 0
vn 0 1 0
vn 0 1 0
vn 0 1 0
vn 0 1 0
vn 0 1 0
vn 0 1 0
vn -0.7965853 0.5441867 -0.2632733
vn -0.7965853 0.5441867 -0.2632733
vn -0.7965853 0.5441867 -0.2632733
vn -0.7965853 0.5441867 -0.2632733
vn -0.2825197 0.9592181 -0.009131373
vn -0.2825197 0.9592181 -0.009131373
vn -0.2825197 0.9592181 -0.009131373
vn -0.2825197 0.9592181 -0.009131373
vn -0.0001332085 0.9657044 0.2596436
vn 0.01825227 0.9640416 0.2651238
vn 0.01825227 0.9640416 0.2651238
vn -0.0001332085 0.9657044 0.2596436
vn -0.01851864 0.9670092 0.254067
vn -0.01851864 0.9670092 0.254067
vn 0.2254899 0.9741405 0.01430339
vn 0.2254899 0.9741405 0.01430339
vn 0.2208153 0.9752984 -0.005808919
vn 0.2208153 0.9752984 -0.005808919
vn 0.2160462 0.9760391 -0.02591875
vn 0.2160462 0.9760391 -0.02591875
vn 0.001717295 0.9677072 -0.252071
vn 0.001717295 0.9677072 -0.252071
vn 0.001717295 0.9677072 -0.252071
vn 0.001717295 0.9677072 -0.252071
vn 0 1 0
vn 0 1 0
vn 0 1 0
vn 0 1 0
vn 0 1 0
vn 0 1 0
vn 0 1 0
vn 0 1 0
vn 0 1 0
vn 0 1 0
vn 0 1 0
vn 0 1 0
vn 0 1 0
vn 0 1 0
vn 0 1 0
vn 0 1 0
vn 0 1 0
vn 0 1 0
vn 0 1 0
vn 0 1 0
vn 0 1 0
vn 0 1 0
vn 0 1 0
vn 0 1 0
vn 0 1 0
vn 0 1 0
vn 0 1 0
vn 0 1 0
vn 0 1 0
vn 0 1 0
vn 0 1 0
vn 0 1 0
vn 0 1 0
vn 0 1 0
vn 0 1 0
vn 0 1 0
vn 0 1 0
vn 0 1 0
vn 0 1 0
vn 0 1 0
vn 0 1 0
vn 0 1 0
vn 0 1 0
vn 0 1 0
vn 0 1 0
g SM_Bld_Floor_Drain_01_0
f 3/3/3 2/2/2 1/1/1
f 4/4/4 3/3/3 1/1/1
f 7/7/7 6/6/6 5/5/5
f 8/8/8 7/7/7 5/5/5
f 11/11/11 10/10/10 9/9/9
f 12/12/12 11/11/11 9/9/9
f 15/15/15 14/14/14 13/13/13
f 16/16/16 15/15/15 13/13/13
f 19/19/19 18/18/18 17/17/17
f 20/20/20 19/19/19 17/17/17
f 23/23/23 22/22/22 21/21/21
f 24/24/24 23/23/23 21/21/21
f 27/27/27 26/26/26 25/25/25
f 28/28/28 27/27/27 25/25/25
f 31/31/31 30/30/30 29/29/29
f 32/32/32 31/31/31 29/29/29
f 33/33/33 31/31/31 32/32/32
f 34/34/34 33/33/33 32/32/32
f 34/34/34 32/32/32 35/35/35
f 32/32/32 36/36/36 35/35/35
f 32/32/32 29/29/29 36/36/36
f 29/29/29 37/37/37 36/36/36
f 40/40/40 39/39/39 38/38/38
f 41/41/41 40/40/40 38/38/38
f 44/44/44 43/43/43 42/42/42
f 45/45/45 44/44/44 42/42/42
f 48/48/48 47/47/47 46/46/46
f 47/47/47 49/49/49 46/46/46
f 46/46/46 49/49/49 50/50/50
f 49/49/49 51/51/51 50/50/50
f 54/54/54 53/53/53 52/52/52
f 55/55/55 54/54/54 52/52/52
f 55/55/55 56/56/56 54/54/54
f 56/56/56 57/57/57 54/54/54
f 60/60/60 59/59/59 58/58/58
f 61/61/61 60/60/60 58/58/58
f 64/64/64 63/63/63 62/62/62
f 63/63/63 65/65/65 62/62/62
f 62/62/62 65/65/65 66/66/66
f 66/66/66 65/65/65 67/67/67
f 67/67/67 65/65/65 63/63/63
f 68/68/68 67/67/67 63/63/63
f 71/71/71 70/70/70 69/69/69
f 71/71/71 72/72/72 70/70/70
f 70/70/70 73/73/73 69/69/69
f 72/72/72 74/74/74 70/70/70
f 69/69/69 73/73/73 75/75/75
f 76/76/76 74/74/74 72/72/72
f 73/73/73 77/77/77 75/75/75
f 78/78/78 76/76/76 72/72/72
f 75/75/75 77/77/77 79/79/79
f 80/80/80 76/76/76 78/78/78
f 79/79/79 80/80/80 78/78/78
f 77/77/77 80/80/80 79/79/79
f 83/83/83 82/82/82 81/81/81
f 83/83/83 84/84/84 82/82/82
f 82/82/82 85/85/85 81/81/81
f 84/84/84 86/86/86 82/82/82
f 87/87/87 86/86/86 84/84/84
f 88/88/88 87/87/87 84/84/84
f 89/89/89 87/87/87 88/88/88
f 90/90/90 89/89/89 88/88/88
f 91/91/91 89/89/89 90/90/90
f 92/92/92 91/91/91 90/90/90
f 93/93/93 91/91/91 92/92/92
f 94/94/94 93/93/93 92/92/92
f 81/81/81 85/85/85 95/95/95
f 95/95/95 93/93/93 94/94/94
f 96/96/96 81/81/81 95/95/95
f 96/96/96 95/95/95 94/94/94
f 99/99/99 98/98/98 97/97/97
f 100/100/100 98/98/98 99/99/99
f 97/97/97 98/98/98 101/101/101
f 97/97/97 101/101/101 102/102/102
f 102/102/102 101/101/101 103/103/103
f 102/102/102 103/103/103 104/104/104
f 100/100/100 105/105/105 98/98/98
f 103/103/103 105/105/105 104/104/104
f 106/106/106 105/105/105 100/100/100
f 104/104/104 105/105/105 106/106/106
