g SM_Bld_Floor_03
v 1.95971 0.01862733 -1.434027
v 2.974999 0.01862733 -1.475
v 2.974999 0.01862733 -0.7499999
v 2.25 0.01862733 -0.7499999
v 1.525 0.01862733 -1.475
v 1.563309 0.01862733 -0.7208579
v 2.234245 0.01862733 -0.0572238
v 2.914767 0.01862733 -0.04682608
v 1.525 0.01862733 -0.02500029
v 2.25 0.01862733 -2.975
v 2.93854 0.01862733 -2.960706
v 2.974999 0.01862733 -2.25
v 2.25 0.01862733 -2.25
v 1.554349 0.01862733 -2.956434
v 1.525 0.01862733 -2.25
v 1.553989 0.01862733 -1.568293
v 2.25 0.01862733 -1.525
v 2.933238 0.01862733 -1.565217
v 0.7500005 0.01862733 -2.975
v 1.460123 0.01862733 -2.963111
v 1.432813 0.01862733 -2.286502
v 0.7500005 0.01862733 -2.25
v 0.04548576 0.01862733 -2.95067
v 0.02500083 0.01862733 -2.25
v 0.08026969 0.01862733 -1.557641
v 0.7668752 0.01862733 -1.556463
v 1.475 0.01862733 -1.525
v 0.7014714 0.01862733 -1.451059
v 1.475 0.01862733 -1.475
v 1.434203 0.01862733 -1.302238
v 0.7500005 0.01862733 -0.7499999
v 0.02500083 0.01862733 -1.475
v 0.06320885 0.01862733 -0.7227901
v 0.7500005 0.01862733 -0.02500029
v 1.475 0.01862733 -0.02500029
v 0.02500083 0.01862733 -0.02500029
v 1.5 0 -1.5
v 1.525 0.01862733 -1.475
v 1.563309 0.01862733 -0.7208579
v 1.5 0 -0.7499999
v 1.5 0 4.768372E-07
v 1.525 0.01862733 -0.02500029
v 1.525 0.01862733 -2.25
v 1.553989 0.01862733 -1.568293
v 1.5 0 -2.25
v 1.5 0 -3
v 1.554349 0.01862733 -2.956434
v 2.25 0 4.768372E-07
v 2.914767 0.01862733 -0.04682608
v 2.999999 0 4.768372E-07
v 2.234245 0.01862733 -0.0572238
v 1.5 0 4.768372E-07
v 1.525 0.01862733 -0.02500029
v 2.999999 0 -0.7499999
v 2.974999 0.01862733 -0.7499999
v 2.974999 0.01862733 -1.475
v 2.999999 0 -1.5
v 2.999999 0 -1.5
v 2.974999 0.01862733 -1.475
v 1.95971 0.01862733 -1.434027
v 2.25 0 -1.5
v 1.5 0 -1.5
v 1.525 0.01862733 -1.475
v 2.25 0 -1.5
v 2.933238 0.01862733 -1.565217
v 2.999999 0 -1.5
v 2.25 0.01862733 -1.525
v 1.5 0 -1.5
v 1.553989 0.01862733 -1.568293
v 0.7500005 0 -1.5
v 1.475 0.01862733 -1.525
v 0.7668752 0.01862733 -1.556463
v 2.999999 0 -2.25
v 2.93854 0.01862733 -2.960706
v 2.999999 0 -3
v 2.974999 0.01862733 -2.25
v 2.999999 0 -1.5
v 2.933238 0.01862733 -1.565217
v 2.999999 0 -3
v 2.93854 0.01862733 -2.960706
v 2.25 0.01862733 -2.975
v 2.25 0 -3
v 1.554349 0.01862733 -2.956434
v 1.5 0 -3
v 1.460123 0.01862733 -2.963111
v 0.7500005 0.01862733 -2.975
v 0.7500005 0 -3
v 0.04548576 0.01862733 -2.95067
v 8.463859E-07 0 -3
v 8.463859E-07 0 -3
v 0.04548576 0.01862733 -2.95067
v 0.02500083 0.01862733 -2.25
v 8.463859E-07 0 -2.25
v 1.5 0 -2.25
v 1.460123 0.01862733 -2.963111
v 1.5 0 -3
v 1.432813 0.01862733 -2.286502
v 1.5 0 -1.5
v 1.475 0.01862733 -1.525
v 1.5 0 -0.7499999
v 1.475 0.01862733 -1.475
v 1.434203 0.01862733 -1.302238
v 8.463859E-07 0 -1.5
v 0.02500083 0.01862733 -1.475
v 0.06320885 0.01862733 -0.7227901
v 8.463859E-07 0 -0.7499999
v 0.02500083 0.01862733 -0.02500029
v 8.463859E-07 0 4.768372E-07
v 8.463859E-07 0 -2.25
v 0.08026969 0.01862733 -1.557641
v 0.02500083 0.01862733 -2.25
v 0.7500005 0 4.768372E-07
v 1.475 0.01862733 -0.02500029
v 1.5 0 4.768372E-07
v 0.7500005 0.01862733 -0.02500029
v 8.463859E-07 0 4.768372E-07
v 0.02500083 0.01862733 -0.02500029
v 1.5 0 -1.5
v 1.475 0.01862733 -1.475
v 0.7014714 0.01862733 -1.451059
v 0.7500005 0 -1.5
v 8.463859E-07 0 -1.5
v 0.02500083 0.01862733 -1.475
v 1.5 0 4.768372E-07
v 1.475 0.01862733 -0.02500029
v 1.434203 0.01862733 -1.302238
v 1.5 0 -0.7499999
v 2.999999 0 4.768372E-07
v 2.914767 0.01862733 -0.04682608
v 2.974999 0.01862733 -0.7499999
v 2.999999 0 -0.7499999
v 8.463859E-07 0 -1.5
v 0.08026969 0.01862733 -1.557641
v 0.7668752 0.01862733 -1.556463
v 0.7500005 0 -1.5
vt 0.688167 0.8742999
vt 0.7500648 0.8742999
vt 0.7500648 0.812402
vt 0.688167 0.812402
vt 0.6262691 0.8742999
vt 0.6262691 0.812402
vt 0.688167 0.7505041
vt 0.7500648 0.7505041
vt 0.6262691 0.7505041
vt 0.688167 0.9980957
vt 0.7500648 0.9980957
vt 0.7500648 0.9361978
vt 0.688167 0.9361978
vt 0.6262691 0.9980957
vt 0.6262691 0.9361978
vt 0.6262691 0.8742999
vt 0.688167 0.8742999
vt 0.7500648 0.8742999
vt 0.5643712 0.9980957
vt 0.6262691 0.9980957
vt 0.6262691 0.9361978
vt 0.5643712 0.9361978
vt 0.5024733 0.9980957
vt 0.5024733 0.9361978
vt 0.5024733 0.8742999
vt 0.5643712 0.8742999
vt 0.6262691 0.8742999
vt 0.5643712 0.8742999
vt 0.6262691 0.8742999
vt 0.6262691 0.812402
vt 0.5643712 0.812402
vt 0.5024733 0.8742999
vt 0.5024733 0.812402
vt 0.5643712 0.7505041
vt 0.6262691 0.7505041
vt 0.5024733 0.7505041
vt 0.6262691 0.8742999
vt 0.6262691 0.8742999
vt 0.6262691 0.812402
vt 0.6262691 0.812402
vt 0.6262691 0.7505041
vt 0.6262691 0.7505041
vt 0.6262691 0.9361978
vt 0.6262691 0.8742999
vt 0.6262691 0.9361978
vt 0.6262691 0.9980957
vt 0.6262691 0.9980957
vt 0.688167 0.7505041
vt 0.7500648 0.7505041
vt 0.7500648 0.7505041
vt 0.688167 0.7505041
vt 0.6262691 0.7505041
vt 0.6262691 0.7505041
vt 0.7500648 0.812402
vt 0.7500648 0.812402
vt 0.7500648 0.8742999
vt 0.7500648 0.8742999
vt 0.7500648 0.8742999
vt 0.7500648 0.8742999
vt 0.688167 0.8742999
vt 0.688167 0.8742999
vt 0.6262691 0.8742999
vt 0.6262691 0.8742999
vt 0.688167 0.8742999
vt 0.7500648 0.8742999
vt 0.7500648 0.8742999
vt 0.688167 0.8742999
vt 0.6262691 0.8742999
vt 0.6262691 0.8742999
vt 0.5643712 0.8742999
vt 0.6262691 0.8742999
vt 0.5643712 0.8742999
vt 0.7500648 0.9361978
vt 0.7500648 0.9980957
vt 0.7500648 0.9980957
vt 0.7500648 0.9361978
vt 0.7500648 0.8742999
vt 0.7500648 0.8742999
vt 0.7500648 0.9980957
vt 0.7500648 0.9980957
vt 0.688167 0.9980957
vt 0.688167 0.9980957
vt 0.6262691 0.9980957
vt 0.6262691 0.9980957
vt 0.6262691 0.9980957
vt 0.5643712 0.9980957
vt 0.5643712 0.9980957
vt 0.5024733 0.9980957
vt 0.5024733 0.9980957
vt 0.5024733 0.9980957
vt 0.5024733 0.9980957
vt 0.5024733 0.9361978
vt 0.5024733 0.9361978
vt 0.6262691 0.9361978
vt 0.6262691 0.9980957
vt 0.6262691 0.9980957
vt 0.6262691 0.9361978
vt 0.6262691 0.8742999
vt 0.6262691 0.8742999
vt 0.6262691 0.812402
vt 0.6262691 0.8742999
vt 0.6262691 0.812402
vt 0.5024733 0.8742999
vt 0.5024733 0.8742999
vt 0.5024733 0.812402
vt 0.5024733 0.812402
vt 0.5024733 0.7505041
vt 0.5024733 0.7505041
vt 0.5024733 0.9361978
vt 0.5024733 0.8742999
vt 0.5024733 0.9361978
vt 0.5643712 0.7505041
vt 0.6262691 0.7505041
vt 0.6262691 0.7505041
vt 0.5643712 0.7505041
vt 0.5024733 0.7505041
vt 0.5024733 0.7505041
vt 0.6262691 0.8742999
vt 0.6262691 0.8742999
vt 0.5643712 0.8742999
vt 0.5643712 0.8742999
vt 0.5024733 0.8742999
vt 0.5024733 0.8742999
vt 0.6262691 0.7505041
vt 0.6262691 0.7505041
vt 0.6262691 0.812402
vt 0.6262691 0.812402
vt 0.7500648 0.7505041
vt 0.7500648 0.7505041
vt 0.7500648 0.812402
vt 0.7500648 0.812402
vt 0.5024733 0.8742999
vt 0.5024733 0.8742999
vt 0.5643712 0.8742999
vt 0.5643712 0.8742999
vn 0 1 0
vn 0 1 0
vn 0 1 0
vn 0 1 0
vn 0 1 0
vn 0 1 0
vn 0 1 0
vn 0 1 0
vn 0 1 0
vn 0 1 0
vn 0 1 0
vn 0 1 0
vn 0 1 0
vn 0 1 0
vn 0 1 0
vn 0 1 0
vn 0 1 0
vn 0 1 0
vn 0 1 0
vn 0 1 0
vn 0 1 0
vn 0 1 0
vn 0 1 0
vn 0 1 0
vn 0 1 0
vn 0 1 0
vn 0 1 0
vn 0 1 0
vn 0 1 0
vn 0 1 0
vn 0 1 0
vn 0 1 0
vn 0 1 0
vn 0 1 0
vn 0 1 0
vn 0 1 0
vn -0.4072554 0.9132673 0.009274352
vn -0.393891 0.9191024 0.01003194
vn -0.3911002 0.9203482 -0.0001276785
vn -0.3911002 0.9203482 -0.0001276785
vn -0.3882653 0.9214902 -0.01028728
vn -0.3882653 0.9214902 -0.01028728
vn -0.4208603 0.9071254 1.400108E-05
vn -0.4205329 0.9072373 0.008514789
vn -0.4208603 0.9071254 1.400108E-05
vn -0.4211572 0.9069479 -0.008486788
vn -0.4211572 0.9069479 -0.008486788
vn 0.003335858 0.9263377 0.3766793
vn -0.002465521 0.9407085 0.339207
vn -0.002465521 0.9407085 0.339207
vn 0.003335858 0.9263377 0.3766793
vn 0.009131751 0.9104437 0.4135322
vn 0.009131751 0.9104437 0.4135322
vn 0.5974789 0.8018846 0
vn 0.5974789 0.8018846 0
vn 0.5974789 0.8018846 0
vn 0.5974789 0.8018846 0
vn -0.009441779 0.9134691 -0.4067984
vn -0.009441779 0.9134691 -0.4067984
vn 0.00130834 0.9258368 -0.3779213
vn 0.00130834 0.9258368 -0.3779213
vn 0.01205702 0.9371839 -0.3486276
vn 0.01205702 0.9371839 -0.3486276
vn -0.0002082446 0.9289474 0.3702115
vn 0.01052268 0.9269637 0.3750033
vn 0.01052268 0.9269637 0.3750033
vn -0.0002082446 0.9289474 0.3702115
vn -0.009968358 0.9202746 0.3911461
vn -0.01093914 0.9307992 0.3653671
vn -0.008989834 0.9090355 0.4166216
vn -0.008989834 0.9090355 0.4166216
vn -0.008989834 0.9090355 0.4166216
vn 0.3808106 0.924653 0.0004871421
vn 0.3919471 0.9199358 -0.009783035
vn 0.3919471 0.9199358 -0.009783035
vn 0.3808106 0.924653 0.0004871421
vn 0.3695783 0.9291373 0.0107572
vn 0.3695783 0.9291373 0.0107572
vn 0.004946215 0.8672711 -0.4978116
vn 0.004946215 0.8672711 -0.4978116
vn -0.0005685929 0.8740686 -0.4858022
vn -0.0005685929 0.8740686 -0.4858022
vn -0.006083274 0.8806731 -0.4736854
vn -0.0009504562 0.8695433 -0.4938556
vn 0.004182891 0.8579293 -0.5137508
vn -0.001626758 0.8775559 -0.4794717
vn -0.001626758 0.8775559 -0.4794717
vn -0.007433815 0.8957837 -0.4444281
vn -0.007433815 0.8957837 -0.4444281
vn -0.4636955 0.8859704 -0.006547851
vn -0.4636955 0.8859704 -0.006547851
vn -0.4636955 0.8859704 -0.006547851
vn -0.4636955 0.8859704 -0.006547851
vn 0.3548482 0.9349213 -0.002168658
vn 0.3286503 0.9444308 0.006291491
vn 0.3286503 0.9444308 0.006291491
vn 0.3548482 0.9349213 -0.002168658
vn 0.345809 0.9383036 0.001548026
vn 0.3807451 0.9246189 -0.01062697
vn 0.3103347 0.9505283 0.01372061
vn 0.3103347 0.9505283 0.01372061
vn 0.3103347 0.9505283 0.01372061
vn -0.3610134 0.9324923 0.01129319
vn -0.3940816 0.9190208 0.01002328
vn -0.3914793 0.9201869 -0.0001191363
vn -0.3914793 0.9201869 -0.0001191363
vn -0.3888336 0.9212509 -0.01026154
vn -0.3888336 0.9212509 -0.01026154
vn -0.3274844 0.9447732 0.01254867
vn -0.3274844 0.9447732 0.01254867
vn -0.3274844 0.9447732 0.01254867
vn 0 0.8018934 0.5974672
vn 0 0.8018934 0.5974672
vn 0 0.8018934 0.5974672
vn 0 0.8018934 0.5974672
vn 0 0.8018934 0.5974672
vn 0 0.8018934 0.5974672
vn -0.007159526 0.8901514 -0.4556086
vn -0.007159526 0.8901514 -0.4556086
vn 0.0001799711 0.8921015 -0.451835
vn 0.0001799711 0.8921015 -0.451835
vn 0.007519456 0.8939874 -0.448029
vn 0.007519456 0.8939874 -0.448029
vn 0.4257175 0.9048156 -0.008567407
vn 0.4257175 0.9048156 -0.008567407
vn 0.4257175 0.9048156 -0.008567407
vn 0.4257175 0.9048156 -0.008567407
vn 0.3151615 0.9489482 0.01306311
vn 0.3151615 0.9489482 0.01306311
vn 0.3151615 0.9489482 0.01306311
vn 0.3151615 0.9489482 0.01306311
vn -0.0002544035 0.9506783 0.3101783
vn -0.0002544035 0.9506783 0.3101783
vn -0.0002544035 0.9506783 0.3101783
vn -0.0002544035 0.9506783 0.3101783
g SM_Bld_Floor_03_0
f 3/3/3 2/2/2 1/1/1
f 4/4/4 3/3/3 1/1/1
f 4/4/4 1/1/1 5/5/5
f 6/6/6 4/4/4 5/5/5
f 4/4/4 7/7/7 3/3/3
f 4/4/4 6/6/6 7/7/7
f 7/7/7 8/8/8 3/3/3
f 6/6/6 9/9/9 7/7/7
f 12/12/12 11/11/11 10/10/10
f 13/13/13 12/12/12 10/10/10
f 13/13/13 10/10/10 14/14/14
f 15/15/15 13/13/13 14/14/14
f 15/15/15 16/16/16 13/13/13
f 16/16/16 17/17/17 13/13/13
f 13/13/13 17/17/17 12/12/12
f 17/17/17 18/18/18 12/12/12
f 21/21/21 20/20/20 19/19/19
f 22/22/22 21/21/21 19/19/19
f 22/22/22 19/19/19 23/23/23
f 24/24/24 22/22/22 23/23/23
f 24/24/24 25/25/25 22/22/22
f 25/25/25 26/26/26 22/22/22
f 22/22/22 26/26/26 21/21/21
f 26/26/26 27/27/27 21/21/21
f 30/30/30 29/29/29 28/28/28
f 31/31/31 30/30/30 28/28/28
f 31/31/31 28/28/28 32/32/32
f 33/33/33 31/31/31 32/32/32
f 31/31/31 34/34/34 30/30/30
f 31/31/31 33/33/33 34/34/34
f 34/34/34 35/35/35 30/30/30
f 33/33/33 36/36/36 34/34/34
f 39/39/39 38/38/38 37/37/37
f 40/40/40 39/39/39 37/37/37
f 40/40/40 41/41/41 39/39/39
f 41/41/41 42/42/42 39/39/39
f 37/37/37 44/44/44 43/43/43
f 45/45/45 37/37/37 43/43/43
f 45/45/45 43/43/43 46/46/46
f 43/43/43 47/47/47 46/46/46
f 50/50/50 49/49/49 48/48/48
f 49/49/49 51/51/51 48/48/48
f 48/48/48 51/51/51 52/52/52
f 51/51/51 53/53/53 52/52/52
f 56/56/56 55/55/55 54/54/54
f 57/57/57 56/56/56 54/54/54
f 60/60/60 59/59/59 58/58/58
f 61/61/61 60/60/60 58/58/58
f 61/61/61 62/62/62 60/60/60
f 62/62/62 63/63/63 60/60/60
f 66/66/66 65/65/65 64/64/64
f 65/65/65 67/67/67 64/64/64
f 64/64/64 67/67/67 68/68/68
f 67/67/67 69/69/69 68/68/68
f 68/68/68 71/71/71 70/70/70
f 71/71/71 72/72/72 70/70/70
f 75/75/75 74/74/74 73/73/73
f 74/74/74 76/76/76 73/73/73
f 73/73/73 76/76/76 77/77/77
f 76/76/76 78/78/78 77/77/77
f 81/81/81 80/80/80 79/79/79
f 82/82/82 81/81/81 79/79/79
f 83/83/83 81/81/81 82/82/82
f 84/84/84 83/83/83 82/82/82
f 86/86/86 85/85/85 84/84/84
f 87/87/87 86/86/86 84/84/84
f 88/88/88 86/86/86 87/87/87
f 89/89/89 88/88/88 87/87/87
f 92/92/92 91/91/91 90/90/90
f 93/93/93 92/92/92 90/90/90
f 96/96/96 95/95/95 94/94/94
f 95/95/95 97/97/97 94/94/94
f 94/94/94 97/97/97 98/98/98
f 97/97/97 99/99/99 98/98/98
f 98/98/98 101/101/101 100/100/100
f 101/101/101 102/102/102 100/100/100
f 105/105/105 104/104/104 103/103/103
f 106/106/106 105/105/105 103/103/103
f 107/107/107 105/105/105 106/106/106
f 108/108/108 107/107/107 106/106/106
f 103/103/103 110/110/110 109/109/109
f 110/110/110 111/111/111 109/109/109
f 114/114/114 113/113/113 112/112/112
f 113/113/113 115/115/115 112/112/112
f 112/112/112 115/115/115 116/116/116
f 115/115/115 117/117/117 116/116/116
f 120/120/120 119/119/119 118/118/118
f 121/121/121 120/120/120 118/118/118
f 121/121/121 122/122/122 120/120/120
f 122/122/122 123/123/123 120/120/120
f 126/126/126 125/125/125 124/124/124
f 127/127/127 126/126/126 124/124/124
f 130/130/130 129/129/129 128/128/128
f 131/131/131 130/130/130 128/128/128
f 134/134/134 133/133/133 132/132/132
f 135/135/135 134/134/134 132/132/132
