g SM_Bld_Bunker_Stairs_Single_Wall_01
v -2.653995 -2.444655 2.536695
v -4.749759 -2.444655 2.536695
v -3.913018 -2.515035 2.380295
v -5 0.003010035 2.622715
v -2.435035 -2.999876 2.622715
v -5 -2.999876 2.622715
v -0.003010035 0.003010035 2.622715
v -5 0.2454305 2.622715
v -0.003010035 0.2454305 2.622715
v -4.749759 -0.3567107 2.536695
v -4.749759 -2.444655 2.536695
v -2.653995 -2.444655 2.536695
v -4.577719 -0.1064703 2.536695
v -2.388114 -0.8102717 2.583615
v -0.8397517 -0.1064703 2.536695
v -3.381257 -0.1064703 2.536695
v -0.8397517 -0.1064703 2.536695
v -5 -2.999876 2.372475
v -5 0.003010035 2.622715
v -5 -2.999876 2.622715
v -5 0.003010035 2.372475
v -5 0.2454305 2.372475
v -5 0.2454305 2.622715
v -4.608999 0.04210997 2.372475
v -4.577719 -0.1064703 2.536695
v -3.381257 -0.1064703 2.536695
v -0.6051512 0.04210997 2.372475
v -0.8397517 -0.1064703 2.536695
v -0.6051512 0.04210997 2.372475
v -0.8397517 -0.1064703 2.536695
v -2.653995 -2.444655 2.536695
v -2.646175 -2.530675 2.372475
v -4.820139 -0.3254306 2.372475
v -4.749759 -0.3567107 2.536695
v -4.577719 -0.1064703 2.536695
v -4.608999 0.04210997 2.372475
v -4.820139 -2.530675 2.372475
v -4.749759 -2.444655 2.536695
v -4.749759 -0.3567107 2.536695
v -4.820139 -0.3254306 2.372475
v -2.646175 -2.530675 2.372475
v -2.653995 -2.444655 2.536695
v -3.913018 -2.515035 2.380295
v -3.764437 -2.530675 2.372475
v -4.749759 -2.444655 2.536695
v -4.288378 -2.530675 2.372475
v -4.820139 -2.530675 2.372475
v -2.435035 -2.999876 2.372475
v -5 -2.999876 2.372475
v -5 -2.999876 2.622715
v -2.435035 -2.999876 2.622715
v -5 0.2454305 2.372475
v -0.003010035 0.2454305 2.372475
v -0.003010035 0.2454305 2.622715
v -5 0.2454305 2.622715
v -0.003010035 0.003010035 2.372475
v -2.435035 -2.999876 2.372475
v -2.435035 -2.999876 2.622715
v -0.003010035 0.003010035 2.622715
v -0.003010035 0.2454305 2.372475
v -0.003010035 0.003010035 2.372475
v -0.003010035 0.003010035 2.622715
v -0.003010035 0.2454305 2.622715
v -3.897377 -2.593235 2.372475
v -3.764437 -2.530675 2.372475
v -3.913018 -2.515035 2.380295
v -4.288378 -2.530675 2.372475
v -4.820139 -2.530675 2.372475
v -2.435035 -2.999876 2.372475
v -2.646175 -2.530675 2.372475
v -0.6051512 0.04210997 2.372475
v -5 -2.999876 2.372475
v -4.820139 -0.3254306 2.372475
v -5 0.003010035 2.372475
v -4.608999 0.04210997 2.372475
v -5 0.2454305 2.372475
v -0.003010035 0.003010035 2.372475
v -0.003010035 0.2454305 2.372475
vt 0.1027547 0.2535724
vt 0.1027547 0.2535724
vt 0.1027547 0.2535724
vt 0.1027547 0.2535724
vt 0.1027547 0.2535724
vt 0.1027547 0.2535724
vt 0.1027547 0.2535724
vt 0.1027547 0.2535724
vt 0.1027547 0.2535724
vt 0.1015625 0.2279394
vt 0.1015625 0.2279394
vt 0.1015625 0.2279394
vt 0.1015625 0.2279394
vt 0.1015625 0.2279394
vt 0.1015625 0.2279394
vt 0.1015625 0.2279394
vt 0.1015625 0.2279394
vt 0.1027547 0.2535724
vt 0.1027547 0.2535724
vt 0.1027547 0.2535724
vt 0.1027547 0.2535724
vt 0.1027547 0.2535724
vt 0.1027547 0.2535724
vt 0.1027547 0.2535724
vt 0.1027547 0.2535724
vt 0.1027547 0.2535724
vt 0.1027547 0.2535724
vt 0.1027547 0.2535724
vt 0.1027547 0.2535724
vt 0.1027547 0.2535724
vt 0.1027547 0.2535724
vt 0.1027547 0.2535724
vt 0.1027547 0.2535724
vt 0.1027547 0.2535724
vt 0.1027547 0.2535724
vt 0.1027547 0.2535724
vt 0.1027547 0.2535724
vt 0.1027547 0.2535724
vt 0.1027547 0.2535724
vt 0.1027547 0.2535724
vt 0.1027547 0.2535724
vt 0.1027547 0.2535724
vt 0.1027547 0.2535724
vt 0.1027547 0.2535724
vt 0.1027547 0.2535724
vt 0.1027547 0.2535724
vt 0.1027547 0.2535724
vt 0.1027547 0.2535724
vt 0.1027547 0.2535724
vt 0.1027547 0.2535724
vt 0.1027547 0.2535724
vt 0.1027547 0.2535724
vt 0.1027547 0.2535724
vt 0.1027547 0.2535724
vt 0.1027547 0.2535724
vt 0.1027547 0.2535724
vt 0.1027547 0.2535724
vt 0.1027547 0.2535724
vt 0.1027547 0.2535724
vt 0.1027547 0.2535724
vt 0.1027547 0.2535724
vt 0.1027547 0.2535724
vt 0.1027547 0.2535724
vt 0.1027547 0.2535724
vt 0.1027547 0.2535724
vt 0.1027547 0.2535724
vt 0.1027547 0.2535724
vt 0.1027547 0.2535724
vt 0.1027547 0.2535724
vt 0.1027547 0.2535724
vt 0.1027547 0.2535724
vt 0.1027547 0.2535724
vt 0.1027547 0.2535724
vt 0.1027547 0.2535724
vt 0.1027547 0.2535724
vt 0.1027547 0.2535724
vt 0.1027547 0.2535724
vt 0.1027547 0.2535724
vn -0.01587105 0.9046479 -0.425864
vn -0.01587105 0.9046479 -0.425864
vn -0.01587105 0.9046479 -0.425864
vn -0.01587105 0.01587105 0.9997481
vn -0.01587105 0.01587105 0.9997481
vn -0.01587105 0.01587105 0.9997481
vn -0.01587105 0.01587105 0.9997481
vn -0.01587105 0.01587105 0.9997481
vn -0.01587105 0.01587105 0.9997481
vn 0.01587099 0.01587105 -0.9997481
vn -0.01587105 0.01587105 -0.9997481
vn -0.01587105 0.01587105 -0.9997481
vn 0.01587099 -0.01587099 -0.9997481
vn -0.01587105 -0.01587099 -0.9997481
vn -0.04761302 0.04761302 -0.9977304
vn -0.01587105 -0.04761302 -0.9987398
vn -0.01587105 -0.04761302 -0.9987398
vn -0.999874 0.01587105 -0.0003439156
vn -0.999874 0.01587105 -0.0003439156
vn -0.999874 0.01587105 -0.0003439156
vn -0.999874 0.01587105 -0.0003439156
vn -0.999874 0.01587105 -0.0003439156
vn -0.999874 0.01587105 -0.0003439156
vn -0.01587105 -0.7141957 -0.6997661
vn -0.01587105 -0.7141957 -0.6997661
vn -0.01587105 -0.7141957 -0.6997661
vn -0.01587105 -0.7141957 -0.6997661
vn -0.01587105 -0.7141957 -0.6997661
vn -0.7141957 0.5554856 -0.4258641
vn -0.7141957 0.5554856 -0.4258641
vn -0.7141957 0.5554856 -0.4258641
vn -0.7141957 0.5554856 -0.4258641
vn 0.7459377 -0.4602594 -0.4813919
vn 0.7459377 -0.4602594 -0.4813919
vn 0.7459377 -0.4602594 -0.4813919
vn 0.7459377 -0.4602594 -0.4813919
vn 0.9046479 0.01587105 -0.4258642
vn 0.9046479 0.01587105 -0.4258642
vn 0.9046479 0.01587105 -0.4258642
vn 0.9046479 0.01587105 -0.4258642
vn 0.01587099 0.8411639 -0.5405474
vn 0.01587099 0.8411639 -0.5405474
vn -0.01587105 0.8729059 -0.4876305
vn 0.01587099 0.8411639 -0.5405474
vn -0.01587105 0.8729059 -0.4876305
vn -0.01587105 0.8729059 -0.4876305
vn -0.01587105 0.8729059 -0.4876305
vn -0.01587105 -0.999874 -0.000345267
vn -0.01587105 -0.999874 -0.000345267
vn -0.01587105 -0.999874 -0.000345267
vn -0.01587105 -0.999874 -0.000345267
vn -0.01587105 0.999874 -0.000345267
vn -0.01587105 0.999874 -0.000345267
vn -0.01587105 0.999874 -0.000345267
vn -0.01587105 0.999874 -0.000345267
vn 0.7776798 -0.6189696 -0.1099579
vn 0.7776798 -0.6189696 -0.1099579
vn 0.7776798 -0.6189696 -0.1099579
vn 0.7776798 -0.6189696 -0.1099579
vn 0.999874 0.01587105 -0.0003439156
vn 0.999874 0.01587105 -0.0003439156
vn 0.999874 0.01587105 -0.0003439156
vn 0.999874 0.01587105 -0.0003439156
vn -0.01587105 0.01587105 -0.9997481
vn -0.01587105 0.04761302 -0.9987398
vn -0.01587105 0.07935512 -0.9967201
vn 0.01587099 0.04761302 -0.9987398
vn -0.01587105 0.01587105 -0.9997481
vn -0.01587105 0.01587105 -0.9997481
vn -0.01587105 0.01587105 -0.9997481
vn -0.01587105 0.01587105 -0.9997481
vn -0.01587105 0.01587105 -0.9997481
vn -0.01587105 0.01587105 -0.9997481
vn -0.01587105 0.01587105 -0.9997481
vn -0.01587105 0.01587105 -0.9997481
vn -0.01587105 0.01587105 -0.9997481
vn -0.01587105 0.01587105 -0.9997481
vn -0.01587105 0.01587105 -0.9997481
g SM_Bld_Bunker_Stairs_Single_Wall_01_0
f 3/3/3 2/2/2 1/1/1
f 6/6/6 5/5/5 4/4/4
f 4/4/4 5/5/5 7/7/7
f 4/4/4 7/7/7 8/8/8
f 7/7/7 9/9/9 8/8/8
f 12/12/12 11/11/11 10/10/10
f 12/12/12 10/10/10 13/13/13
f 14/14/14 12/12/12 13/13/13
f 14/14/14 15/15/15 12/12/12
f 16/16/16 14/14/14 13/13/13
f 14/14/14 16/16/16 17/17/17
f 20/20/20 19/19/19 18/18/18
f 19/19/19 21/21/21 18/18/18
f 22/22/22 21/21/21 19/19/19
f 23/23/23 22/22/22 19/19/19
f 26/26/26 25/25/25 24/24/24
f 27/27/27 26/26/26 24/24/24
f 27/27/27 28/28/28 26/26/26
f 31/31/31 30/30/30 29/29/29
f 32/32/32 31/31/31 29/29/29
f 35/35/35 34/34/34 33/33/33
f 36/36/36 35/35/35 33/33/33
f 39/39/39 38/38/38 37/37/37
f 40/40/40 39/39/39 37/37/37
f 43/43/43 42/42/42 41/41/41
f 44/44/44 43/43/43 41/41/41
f 43/43/43 46/46/46 45/45/45
f 46/46/46 47/47/47 45/45/45
f 50/50/50 49/49/49 48/48/48
f 51/51/51 50/50/50 48/48/48
f 54/54/54 53/53/53 52/52/52
f 55/55/55 54/54/54 52/52/52
f 58/58/58 57/57/57 56/56/56
f 59/59/59 58/58/58 56/56/56
f 62/62/62 61/61/61 60/60/60
f 63/63/63 62/62/62 60/60/60
f 66/66/66 65/65/65 64/64/64
f 66/66/66 64/64/64 67/67/67
f 68/68/68 67/67/67 64/64/64
f 64/64/64 65/65/65 69/69/69
f 65/65/65 70/70/70 69/69/69
f 69/69/69 70/70/70 71/71/71
f 72/72/72 68/68/68 64/64/64
f 72/72/72 64/64/64 69/69/69
f 73/73/73 68/68/68 72/72/72
f 74/74/74 73/73/73 72/72/72
f 75/75/75 73/73/73 74/74/74
f 76/76/76 75/75/75 74/74/74
f 71/71/71 75/75/75 76/76/76
f 77/77/77 69/69/69 71/71/71
f 78/78/78 71/71/71 76/76/76
f 77/77/77 71/71/71 78/78/78
