g SM_Bld_Door_07
v 0.0714047 0.2130139 0.05240107
v 0.278863 0.2130139 0.02228618
v 0.2654786 0.1661685 0.05240107
v 0.844354 0.2130139 -0.01786709
v 0.7004717 0.2130139 -0.05132806
v 0.8410079 0.1762068 -0.05132806
v 1.008313 0.2130139 -0.05132806
v 0.844354 0.2130139 -0.01786709
v 0.8410079 0.1762068 -0.05132806
v 0.278863 0.2130139 0.02228618
v 0.4093609 0.2130139 0.05240107
v 0.2654786 0.1661685 0.05240107
v 0.643588 1.196768 0.03232443
v 0.8309696 1.196768 0.002209544
v 0.8309696 1.163307 0.03232443
v 0.8309696 1.196768 0.002209544
v 0.941391 1.196768 0.03232443
v 0.8309696 1.163307 0.03232443
v 0.5398588 2.177175 -0.05132806
v 0.412707 2.210636 -0.05132806
v 0.412707 2.177175 -0.02455926
v 0.412707 2.210636 -0.05132806
v 0.2320175 2.177175 -0.05132806
v 0.412707 2.177175 -0.02455926
v 0.6134731 0.8220043 -0.03125143
v 0.3190162 0.8889264 -0.03125143
v 0.3223622 0.8220043 -0.007828712
v 0.3190162 0.8889264 -0.03125143
v 0.2019026 0.8220043 -0.03125143
v 0.3223622 0.8220043 -0.007828712
v 0.001136541 -0.001136541 -0.05132806
v 0.001136541 2.247443 -0.05132806
v 0.001136541 2.247443 0.05240107
v 0.001136541 -0.001136541 0.05240107
v 1.175618 -0.001136541 -0.05132806
v 0.001136541 -0.001136541 -0.05132806
v 0.001136541 -0.001136541 0.05240107
v 1.175618 -0.001136541 0.05240107
v 0.001136541 2.247443 -0.05132806
v 1.175618 2.247443 -0.05132806
v 1.175618 2.247443 0.05240107
v 0.001136541 2.247443 0.05240107
v 1.175618 -0.001136541 0.05240107
v 1.175618 2.247443 0.05240107
v 1.175618 2.247443 -0.05132806
v 1.175618 -0.001136541 -0.05132806
v 1.102004 0.2130139 0.05240107
v 0.4093609 0.2130139 0.05240107
v 0.278863 0.2130139 0.02228618
v 0.844354 0.2130139 -0.01786709
v 1.102004 0.2130139 -0.05132806
v 1.008313 0.2130139 -0.05132806
v 0.7004717 0.2130139 -0.05132806
v 0.0714047 0.2130139 -0.05132806
v 0.0714047 0.2130139 0.05240107
v 1.102004 2.177175 0.05240107
v 1.102004 2.177175 -0.05132806
v 0.5398588 2.177175 -0.05132806
v 0.412707 2.177175 -0.02455926
v 0.0714047 2.177175 0.05240107
v 0.0714047 2.177175 -0.05132806
v 0.2320175 2.177175 -0.05132806
v 0.0714047 1.196768 -0.03125143
v 0.0714047 0.8220043 -0.03125143
v 0.2019026 0.8220043 -0.03125143
v 0.3190162 0.8889264 -0.03125143
v 1.102004 1.196768 -0.03125143
v 0.6134731 0.8220043 -0.03125143
v 1.102004 0.8220043 -0.03125143
v 1.041774 0.8922724 0.03232443
v 0.1316345 0.8922724 0.03232443
v 0.1316345 1.1265 0.03232443
v 1.041774 1.1265 0.03232443
v 1.102004 0.8220043 0.03232443
v 1.102004 0.8220043 -0.03125143
v 0.6134731 0.8220043 -0.03125143
v 0.3223622 0.8220043 -0.007828712
v 0.0714047 0.8220043 0.03232443
v 0.0714047 0.8220043 -0.03125143
v 0.2019026 0.8220043 -0.03125143
v 0.8410079 0.1762068 -0.05132806
v 0.7004717 0.2130139 -0.05132806
v 0.0714047 0.2130139 -0.05132806
v 0.001136541 -0.001136541 -0.05132806
v 0.0714047 2.177175 -0.05132806
v 1.175618 -0.001136541 -0.05132806
v 1.008313 0.2130139 -0.05132806
v 1.102004 0.2130139 -0.05132806
v 0.001136541 2.247443 -0.05132806
v 0.2320175 2.177175 -0.05132806
v 1.175618 2.247443 -0.05132806
v 0.412707 2.210636 -0.05132806
v 1.102004 2.177175 -0.05132806
v 0.5398588 2.177175 -0.05132806
v 0.2654786 0.1661685 0.05240107
v 0.4093609 0.2130139 0.05240107
v 1.102004 0.2130139 0.05240107
v 1.175618 -0.001136541 0.05240107
v 1.102004 2.177175 0.05240107
v 0.001136541 -0.001136541 0.05240107
v 1.175618 2.247443 0.05240107
v 0.0714047 0.2130139 0.05240107
v 0.0714047 2.177175 0.05240107
v 0.001136541 2.247443 0.05240107
v 1.102004 1.196768 0.03232443
v 0.8309696 1.163307 0.03232443
v 0.941391 1.196768 0.03232443
v 1.041774 1.1265 0.03232443
v 1.102004 0.8220043 0.03232443
v 1.041774 0.8922724 0.03232443
v 0.0714047 0.8220043 0.03232443
v 0.1316345 0.8922724 0.03232443
v 0.0714047 1.196768 0.03232443
v 0.1316345 1.1265 0.03232443
v 0.643588 1.196768 0.03232443
v 0.8309696 1.196768 0.002209544
v 0.643588 1.196768 0.03232443
v 0.0714047 1.196768 0.03232443
v 0.0714047 1.196768 -0.03125143
v 1.102004 1.196768 -0.03125143
v 1.102004 1.196768 0.03232443
v 0.941391 1.196768 0.03232443
v 0.0714047 2.177175 0.05240107
v 0.0714047 0.8220043 0.03232443
v 0.0714047 0.2130139 0.05240107
v 0.0714047 1.196768 0.03232443
v 0.0714047 0.8220043 -0.03125143
v 0.0714047 2.177175 -0.05132806
v 0.0714047 0.2130139 -0.05132806
v 0.0714047 1.196768 -0.03125143
v 1.102004 0.2130139 0.05240107
v 1.102004 1.196768 0.03232443
v 1.102004 2.177175 0.05240107
v 1.102004 0.8220043 0.03232443
v 1.102004 1.196768 -0.03125143
v 1.102004 0.2130139 -0.05132806
v 1.102004 2.177175 -0.05132806
v 1.102004 0.8220043 -0.03125143
vt 0.1015674 0.3024276
vt 0.1015674 0.3024276
vt 0.1015674 0.3024276
vt 0.1015674 0.3024276
vt 0.1015674 0.3024276
vt 0.1015674 0.3024276
vt 0.1015674 0.3024276
vt 0.1015674 0.3024276
vt 0.1015674 0.3024276
vt 0.1015674 0.3024276
vt 0.1015674 0.3024276
vt 0.1015674 0.3024276
vt 0.1015674 0.3024276
vt 0.1015674 0.3024276
vt 0.1015674 0.3024276
vt 0.1015674 0.3024276
vt 0.1015674 0.3024276
vt 0.1015674 0.3024276
vt 0.1015674 0.3024276
vt 0.1015674 0.3024276
vt 0.1015674 0.3024276
vt 0.1015674 0.3024276
vt 0.1015674 0.3024276
vt 0.1015674 0.3024276
vt 0.1015674 0.3024276
vt 0.1015674 0.3024276
vt 0.1015674 0.3024276
vt 0.1015674 0.3024276
vt 0.1015674 0.3024276
vt 0.1015674 0.3024276
vt 0.1015674 0.3024276
vt 0.1015674 0.3024276
vt 0.1015674 0.3024276
vt 0.1015674 0.3024276
vt 0.1015674 0.3024276
vt 0.1015674 0.3024276
vt 0.1015674 0.3024276
vt 0.1015674 0.3024276
vt 0.1015674 0.3024276
vt 0.1015674 0.3024276
vt 0.1015674 0.3024276
vt 0.1015674 0.3024276
vt 0.1015674 0.3024276
vt 0.1015674 0.3024276
vt 0.1015674 0.3024276
vt 0.1015674 0.3024276
vt 0.1015674 0.3024276
vt 0.1015674 0.3024276
vt 0.1015674 0.3024276
vt 0.1015674 0.3024276
vt 0.1015674 0.3024276
vt 0.1015674 0.3024276
vt 0.1015674 0.3024276
vt 0.1015674 0.3024276
vt 0.1015674 0.3024276
vt 0.1015674 0.3024276
vt 0.1015674 0.3024276
vt 0.1015674 0.3024276
vt 0.1015674 0.3024276
vt 0.1015674 0.3024276
vt 0.1015674 0.3024276
vt 0.1015674 0.3024276
vt 0.1015674 0.3024276
vt 0.1015674 0.3024276
vt 0.1015674 0.3024276
vt 0.1015674 0.3024276
vt 0.1015674 0.3024276
vt 0.1015674 0.3024276
vt 0.1015674 0.3024276
vt 0.4021353 0.470052
vt 0.4021353 0.470052
vt 0.4021353 0.470052
vt 0.4021353 0.470052
vt 0.1015674 0.3024276
vt 0.1015674 0.3024276
vt 0.1015674 0.3024276
vt 0.1015674 0.3024276
vt 0.1015674 0.3024276
vt 0.1015674 0.3024276
vt 0.1015674 0.3024276
vt 0.1015674 0.3024276
vt 0.1015674 0.3024276
vt 0.1015674 0.3024276
vt 0.1015674 0.3024276
vt 0.1015674 0.3024276
vt 0.1015674 0.3024276
vt 0.1015674 0.3024276
vt 0.1015674 0.3024276
vt 0.1015674 0.3024276
vt 0.1015674 0.3024276
vt 0.1015674 0.3024276
vt 0.1015674 0.3024276
vt 0.1015674 0.3024276
vt 0.1015674 0.3024276
vt 0.1015674 0.3024276
vt 0.1015674 0.3024276
vt 0.1015674 0.3024276
vt 0.1015674 0.3024276
vt 0.1015674 0.3024276
vt 0.1015674 0.3024276
vt 0.1015674 0.3024276
vt 0.1015674 0.3024276
vt 0.1015674 0.3024276
vt 0.1015674 0.3024276
vt 0.1015674 0.3024276
vt 0.1015674 0.3024276
vt 0.1015674 0.3024276
vt 0.1015674 0.3024276
vt 0.1015674 0.3024276
vt 0.1015674 0.3024276
vt 0.1015674 0.3024276
vt 0.1015674 0.3024276
vt 0.1015674 0.3024276
vt 0.1015674 0.3024276
vt 0.1015674 0.3024276
vt 0.1015674 0.3024276
vt 0.1015674 0.3024276
vt 0.1015674 0.3024276
vt 0.1015674 0.3024276
vt 0.1015674 0.3024276
vt 0.1015674 0.3024276
vt 0.1015674 0.3024276
vt 0.1015674 0.3024276
vt 0.1015674 0.3024276
vt 0.1015674 0.3024276
vt 0.1015674 0.3024276
vt 0.1015674 0.3024276
vt 0.1015674 0.3024276
vt 0.1015674 0.3024276
vt 0.1015674 0.3024276
vt 0.1015674 0.3024276
vt 0.1015674 0.3024276
vt 0.1015674 0.3024276
vt 0.1015674 0.3024276
vt 0.1015674 0.3024276
vt 0.1015674 0.3024276
vt 0.1015674 0.3024276
vt 0.1015674 0.3024276
vn 0.1428391 0.4920015 0.8587965
vn 0.1428391 0.4920015 0.8587965
vn 0.1428391 0.4920015 0.8587965
vn 0.1745812 0.6507117 -0.7389829
vn 0.1745812 0.6507117 -0.7389829
vn 0.1745812 0.6507117 -0.7389829
vn -0.1428392 0.6824538 -0.716836
vn -0.1428392 0.6824538 -0.716836
vn -0.1428392 0.6824538 -0.716836
vn -0.2063233 0.5554856 0.8055225
vn -0.2063233 0.5554856 0.8055225
vn -0.2063233 0.5554856 0.8055225
vn 0.1110971 0.6189697 0.7775179
vn 0.1110971 0.6189697 0.7775179
vn 0.1110971 0.6189697 0.7775179
vn -0.1745812 0.6189697 0.7657663
vn -0.1745812 0.6189697 0.7657663
vn -0.1745812 0.6189697 0.7657663
vn -0.1745812 -0.6507117 -0.7389829
vn -0.1745812 -0.6507117 -0.7389829
vn -0.1745812 -0.6507117 -0.7389829
vn 0.1110971 -0.6189696 -0.7775179
vn 0.1110971 -0.6189696 -0.7775179
vn 0.1110971 -0.6189696 -0.7775179
vn -0.07935512 -0.3332914 -0.9394784
vn -0.07935512 -0.3332914 -0.9394784
vn -0.07935512 -0.3332914 -0.9394784
vn 0.1745812 -0.3015493 -0.937331
vn 0.1745812 -0.3015493 -0.937331
vn 0.1745812 -0.3015493 -0.937331
vn -0.999874 0.01587105 -0.0003439156
vn -0.999874 0.01587105 -0.0003439156
vn -0.999874 0.01587105 -0.0003439156
vn -0.999874 0.01587105 -0.0003439156
vn -0.01587105 -0.999874 -0.000345267
vn -0.01587105 -0.999874 -0.000345267
vn -0.01587105 -0.999874 -0.000345267
vn -0.01587105 -0.999874 -0.000345267
vn -0.01587105 0.999874 -0.000345267
vn -0.01587105 0.999874 -0.000345267
vn -0.01587105 0.999874 -0.000345267
vn -0.01587105 0.999874 -0.000345267
vn 0.999874 0.01587105 -0.0003439156
vn 0.999874 0.01587105 -0.0003439156
vn 0.999874 0.01587105 -0.0003439156
vn 0.999874 0.01587105 -0.0003439156
vn -0.01587105 0.999874 -0.000345267
vn -0.01587105 0.999874 -0.000345267
vn -0.01587105 0.999874 -0.000345267
vn -0.01587105 0.999874 -0.000345267
vn -0.01587105 0.999874 -0.000345267
vn -0.01587105 0.999874 -0.000345267
vn -0.01587105 0.999874 -0.000345267
vn -0.01587105 0.999874 -0.000345267
vn -0.01587105 0.999874 -0.000345267
vn -0.01587105 -0.999874 -0.000345267
vn -0.01587105 -0.999874 -0.000345267
vn -0.01587105 -0.999874 -0.000345267
vn -0.01587105 -0.999874 -0.000345267
vn -0.01587105 -0.999874 -0.000345267
vn -0.01587105 -0.999874 -0.000345267
vn -0.01587105 -0.999874 -0.000345267
vn -0.01587105 0.01587105 -0.9997481
vn -0.01587105 0.01587105 -0.9997481
vn -0.01587105 0.01587105 -0.9997481
vn -0.01587105 0.01587105 -0.9997481
vn -0.01587105 0.01587105 -0.9997481
vn -0.01587105 0.01587105 -0.9997481
vn -0.01587105 0.01587105 -0.9997481
vn -0.01587105 0.01587105 0.9997481
vn -0.01587105 0.01587105 0.9997481
vn -0.01587105 0.01587105 0.9997481
vn -0.01587105 0.01587105 0.9997481
vn -0.01587105 -0.999874 -0.000345267
vn -0.01587105 -0.999874 -0.000345267
vn -0.01587105 -0.999874 -0.000345267
vn -0.01587105 -0.999874 -0.000345267
vn -0.01587105 -0.999874 -0.000345267
vn -0.01587105 -0.999874 -0.000345267
vn -0.01587105 -0.999874 -0.000345267
vn -0.01587105 0.01587105 -0.9997481
vn -0.01587105 0.01587105 -0.9997481
vn -0.01587105 0.01587105 -0.9997481
vn -0.01587105 0.01587105 -0.9997481
vn -0.01587105 0.01587105 -0.9997481
vn -0.01587105 0.01587105 -0.9997481
vn -0.01587105 0.01587105 -0.9997481
vn -0.01587105 0.01587105 -0.9997481
vn -0.01587105 0.01587105 -0.9997481
vn -0.01587105 0.01587105 -0.9997481
vn -0.01587105 0.01587105 -0.9997481
vn -0.01587105 0.01587105 -0.9997481
vn -0.01587105 0.01587105 -0.9997481
vn -0.01587105 0.01587105 -0.9997481
vn -0.01587105 0.01587105 0.9997481
vn -0.01587105 0.01587105 0.9997481
vn -0.01587105 0.01587105 0.9997481
vn -0.01587105 0.01587105 0.9997481
vn -0.01587105 0.01587105 0.9997481
vn -0.01587105 0.01587105 0.9997481
vn -0.01587105 0.01587105 0.9997481
vn -0.01587105 0.01587105 0.9997481
vn -0.01587105 0.01587105 0.9997481
vn -0.01587105 0.01587105 0.9997481
vn -0.01587105 0.01587105 0.9997481
vn -0.01587105 0.01587105 0.9997481
vn -0.01587105 0.01587105 0.9997481
vn -0.01587105 0.01587105 0.9997481
vn -0.01587105 0.01587105 0.9997481
vn -0.01587105 0.01587105 0.9997481
vn -0.01587105 0.01587105 0.9997481
vn -0.01587105 0.01587105 0.9997481
vn -0.01587105 0.01587105 0.9997481
vn -0.01587105 0.01587105 0.9997481
vn -0.01587105 0.01587105 0.9997481
vn -0.01587105 0.999874 -0.000345267
vn -0.01587105 0.999874 -0.000345267
vn -0.01587105 0.999874 -0.000345267
vn -0.01587105 0.999874 -0.000345267
vn -0.01587105 0.999874 -0.000345267
vn -0.01587105 0.999874 -0.000345267
vn -0.01587105 0.999874 -0.000345267
vn 0.999874 0.01587105 -0.0003439156
vn 0.999874 0.01587105 -0.0003439156
vn 0.999874 0.01587105 -0.0003439156
vn 0.999874 0.01587105 -0.0003439156
vn 0.999874 0.01587105 -0.0003439156
vn 0.999874 0.01587105 -0.0003439156
vn 0.999874 0.01587105 -0.0003439156
vn 0.999874 0.01587105 -0.0003439156
vn -0.999874 0.01587105 -0.0003439156
vn -0.999874 0.01587105 -0.0003439156
vn -0.999874 0.01587105 -0.0003439156
vn -0.999874 0.01587105 -0.0003439156
vn -0.999874 0.01587105 -0.0003439156
vn -0.999874 0.01587105 -0.0003439156
vn -0.999874 0.01587105 -0.0003439156
vn -0.999874 0.01587105 -0.0003439156
g SM_Bld_Door_07_0
f 3/3/3 2/2/2 1/1/1
f 6/6/6 5/5/5 4/4/4
f 9/9/9 8/8/8 7/7/7
f 12/12/12 11/11/11 10/10/10
f 15/15/15 14/14/14 13/13/13
f 18/18/18 17/17/17 16/16/16
f 21/21/21 20/20/20 19/19/19
f 24/24/24 23/23/23 22/22/22
f 27/27/27 26/26/26 25/25/25
f 30/30/30 29/29/29 28/28/28
f 33/33/33 32/32/32 31/31/31
f 34/34/34 33/33/33 31/31/31
f 37/37/37 36/36/36 35/35/35
f 38/38/38 37/37/37 35/35/35
f 41/41/41 40/40/40 39/39/39
f 42/42/42 41/41/41 39/39/39
f 45/45/45 44/44/44 43/43/43
f 46/46/46 45/45/45 43/43/43
f 49/49/49 48/48/48 47/47/47
f 50/50/50 49/49/49 47/47/47
f 50/50/50 47/47/47 51/51/51
f 52/52/52 50/50/50 51/51/51
f 50/50/50 53/53/53 49/49/49
f 53/53/53 54/54/54 49/49/49
f 54/54/54 55/55/55 49/49/49
f 58/58/58 57/57/57 56/56/56
f 59/59/59 58/58/58 56/56/56
f 59/59/59 56/56/56 60/60/60
f 59/59/59 60/60/60 61/61/61
f 62/62/62 59/59/59 61/61/61
f 65/65/65 64/64/64 63/63/63
f 66/66/66 65/65/65 63/63/63
f 66/66/66 63/63/63 67/67/67
f 68/68/68 66/66/66 67/67/67
f 69/69/69 68/68/68 67/67/67
f 72/72/72 71/71/71 70/70/70
f 73/73/73 72/72/72 70/70/70
f 76/76/76 75/75/75 74/74/74
f 77/77/77 76/76/76 74/74/74
f 78/78/78 77/77/77 74/74/74
f 78/78/78 79/79/79 77/77/77
f 79/79/79 80/80/80 77/77/77
f 83/83/83 82/82/82 81/81/81
f 84/84/84 83/83/83 81/81/81
f 85/85/85 83/83/83 84/84/84
f 84/84/84 81/81/81 86/86/86
f 81/81/81 87/87/87 86/86/86
f 87/87/87 88/88/88 86/86/86
f 89/89/89 85/85/85 84/84/84
f 90/90/90 85/85/85 89/89/89
f 86/86/86 88/88/88 91/91/91
f 92/92/92 90/90/90 89/89/89
f 91/91/91 92/92/92 89/89/89
f 88/88/88 93/93/93 91/91/91
f 91/91/91 93/93/93 92/92/92
f 93/93/93 94/94/94 92/92/92
f 97/97/97 96/96/96 95/95/95
f 98/98/98 97/97/97 95/95/95
f 99/99/99 97/97/97 98/98/98
f 98/98/98 95/95/95 100/100/100
f 101/101/101 99/99/99 98/98/98
f 95/95/95 102/102/102 100/100/100
f 103/103/103 99/99/99 101/101/101
f 100/100/100 102/102/102 104/104/104
f 104/104/104 103/103/103 101/101/101
f 102/102/102 103/103/103 104/104/104
f 107/107/107 106/106/106 105/105/105
f 106/106/106 108/108/108 105/105/105
f 105/105/105 108/108/108 109/109/109
f 108/108/108 110/110/110 109/109/109
f 109/109/109 110/110/110 111/111/111
f 110/110/110 112/112/112 111/111/111
f 111/111/111 112/112/112 113/113/113
f 106/106/106 114/114/114 108/108/108
f 112/112/112 114/114/114 113/113/113
f 106/106/106 115/115/115 114/114/114
f 115/115/115 113/113/113 114/114/114
f 118/118/118 117/117/117 116/116/116
f 119/119/119 118/118/118 116/116/116
f 120/120/120 119/119/119 116/116/116
f 120/120/120 116/116/116 121/121/121
f 116/116/116 122/122/122 121/121/121
f 125/125/125 124/124/124 123/123/123
f 124/124/124 126/126/126 123/123/123
f 127/127/127 124/124/124 125/125/125
f 123/123/123 126/126/126 128/128/128
f 129/129/129 127/127/127 125/125/125
f 126/126/126 130/130/130 128/128/128
f 130/130/130 127/127/127 129/129/129
f 128/128/128 130/130/130 129/129/129
f 133/133/133 132/132/132 131/131/131
f 132/132/132 134/134/134 131/131/131
f 135/135/135 132/132/132 133/133/133
f 131/131/131 134/134/134 136/136/136
f 137/137/137 135/135/135 133/133/133
f 134/134/134 138/138/138 136/136/136
f 138/138/138 135/135/135 137/137/137
f 136/136/136 138/138/138 137/137/137
