g SM_Chr_Kid_Face_01
v -7.421613E-05 -0.08999893 0.003329515
v 1.012508E-07 6.630125E-05 0.0009598251
v 7.404068E-05 0.09012604 -0.009128037
v -0.05504677 -0.07322227 -0.005790472
v -0.07123511 0.07622154 -0.01902027
v -0.06626678 0.001519243 -0.009540386
v 0.05492511 -0.07331314 -0.005795794
v 0.07135915 0.07610374 -0.01902717
v 0.06626827 0.001409685 -0.009546795
v -6.033042E-05 -0.07317085 0.002886915
v 1.012508E-07 6.630125E-05 0.0009598251
v 7.404068E-05 0.09012604 -0.009128037
v -0.06626678 0.001519243 -0.009540386
v 1.012508E-07 6.630125E-05 0.0009598251
v -6.033042E-05 -0.07317085 0.002886915
v 1.012508E-07 6.630125E-05 0.0009598251
v 0.06626827 0.001409685 -0.009546795
v -7.421613E-05 -0.08999893 0.003329515
vt 0.4943905 0.02299547
vt 0.4882399 0.4250177
vt 0.5095555 0.9253803
vt 0.2037747 0.01567277
vt 0.1251341 0.8655517
vt 0.1389901 0.4221925
vt 0.7878344 0.01567298
vt 0.8874055 0.8303092
vt 0.8472091 0.4058195
vt 0.4943905 0.02299547
vt 0.4882399 0.4250177
vt 0.5095555 0.9253803
vt 0.1389901 0.4221925
vt 0.4882399 0.4250177
vt 0.4943905 0.02299547
vt 0.4882399 0.4250177
vt 0.8472091 0.4058195
vt 0.4943905 0.02299547
vn -0.1558512 0.02609945 0.9874357
vn -0.1556092 0.1119388 0.9814558
vn -0.1556092 0.1119388 0.9814558
vn -0.1558713 0.02612621 0.9874319
vn -0.1556092 0.1119388 0.9814558
vn -0.1556092 0.1119388 0.9814558
vn 0.1560098 0.02586846 0.9874167
vn 0.1558889 0.1116813 0.9814407
vn 0.1558889 0.1116813 0.9814408
vn -0.1558697 0.02612412 0.9874321
vn 0.1558889 0.1116813 0.9814407
vn 0.1558889 0.1116813 0.9814407
vn -0.1558716 0.02612668 0.9874318
vn -0.1558716 0.02612668 0.9874318
vn 0.1560082 0.02586637 0.987417
vn 0.1560101 0.02586893 0.9874166
vn 0.1560101 0.02586893 0.9874166
vn 0.1559897 0.02584174 0.9874206
g SM_Chr_Kid_Face_01_0
f 3/3/3 5/5/5 6/6/6
f 2/2/2 3/3/3 6/6/6
f 12/12/12 11/11/11 9/9/9
f 8/8/8 12/12/12 9/9/9
f 14/14/14 13/13/13 4/4/4
f 10/10/10 14/14/14 4/4/4
f 10/10/10 4/4/4 1/1/1
f 17/17/17 16/16/16 15/15/15
f 7/7/7 17/17/17 15/15/15
f 7/7/7 15/15/15 18/18/18
