g SM_Chr_Kid_Robot_Face_01
v 4.632152E-06 -0.05886124 0.08742114
v 4.632152E-06 0.05330047 0.1044291
v 4.632152E-06 0.08639107 0.09908567
v 4.632152E-06 -0.0358461 0.1000508
v 4.632152E-06 0.02076149 0.1052223
v -0.07801294 -0.04193085 0.08652799
v -0.08065455 0.09646522 0.08099081
v 4.632152E-06 0.114008 0.08992768
v -0.09146509 0.05424049 0.07666878
v -0.08948999 0.026343 0.07924336
v -0.07502467 0.05465157 0.09031886
v -0.07456812 0.07773025 0.08740716
v -0.06408717 -0.02762428 0.0937131
v -0.07369898 0.02361412 0.09254985
v -0.0426565 -0.05471771 0.08719219
v -0.0353811 -0.03383835 0.09835352
v -0.03684596 0.02177582 0.1015849
v -0.0370193 0.05386566 0.1002445
v -0.03812525 0.08454872 0.09603136
v -0.04154322 0.1093479 0.08797191
v -0.09057154 0.07434547 0.07679167
v 0.07789526 -0.04309128 0.08665894
v 0.08066625 0.09646522 0.08056065
v 0.0914768 0.05424049 0.07649405
v 0.08938207 0.02518257 0.07912783
v 0.07503637 0.05465157 0.09008024
v 0.07458471 0.07773025 0.08707164
v 0.06407201 -0.02788223 0.0937422
v 0.07369359 0.02346908 0.09253543
v 0.0426682 -0.05471771 0.08719219
v 0.03539281 -0.03383835 0.09835352
v 0.03685766 0.02177582 0.1015849
v 0.037031 0.05386566 0.1002445
v 0.03813451 0.08454857 0.09603136
v 0.04155492 0.1093479 0.08797191
v 0.09058324 0.07434547 0.07660639
v 0.08507055 -0.01579903 0.08379521
v 0.06991674 -0.00875206 0.09401803
v 0.03561986 -0.01139999 0.1011354
v 4.632152E-06 -0.01275207 0.1036973
v -0.03560572 -0.01139992 0.1011354
v -0.06999781 -0.007881698 0.09391983
v -0.0859231 -0.007804947 0.08289311
v -0.07502467 0.05465157 0.09031886
v -0.0370193 0.05386566 0.1002445
v -0.03812525 0.08454872 0.09603136
v -0.07456812 0.07773025 0.08740716
v -0.06408717 -0.02762428 0.0937131
v -0.0353811 -0.03383835 0.09835352
v -0.06999781 -0.007881698 0.09391983
v -0.06408717 -0.02762428 0.0937131
v -0.07801294 -0.04193085 0.08652799
v -0.07502467 0.05465157 0.09031886
v -0.07369898 0.02361412 0.09254985
v -0.0426565 -0.05471771 0.08719219
v -0.0353811 -0.03383835 0.09835352
v 4.632152E-06 -0.0358461 0.1000508
v -0.0353811 -0.03383835 0.09835352
v -0.03560572 -0.01139992 0.1011354
v -0.03684596 0.02177582 0.1015849
v -0.0370193 0.05386566 0.1002445
v 4.632152E-06 0.05330047 0.1044291
v -0.0370193 0.05386566 0.1002445
v -0.03812525 0.08454872 0.09603136
v 4.632152E-06 0.08639107 0.09908567
v -0.03812525 0.08454872 0.09603136
v -0.04154322 0.1093479 0.08797191
v -0.07456812 0.07773025 0.08740716
v -0.07502467 0.05465157 0.09031886
v -0.09146509 0.05424049 0.07666878
v 0.037031 0.05386566 0.1002445
v 0.07503637 0.05465157 0.09008024
v 0.07458471 0.07773025 0.08707164
v 0.03813451 0.08454857 0.09603136
v 0.07458471 0.07773025 0.08707164
v 0.08066625 0.09646522 0.08056065
v 0.03539281 -0.03383835 0.09835352
v 0.06407201 -0.02788223 0.0937422
v 0.07789526 -0.04309128 0.08665894
v 0.06407201 -0.02788223 0.0937422
v 0.06991674 -0.00875206 0.09401803
v 0.07369359 0.02346908 0.09253543
v 0.07503637 0.05465157 0.09008024
v 4.632152E-06 -0.05886124 0.08742114
v 4.632152E-06 -0.0358461 0.1000508
v 0.03539281 -0.03383835 0.09835352
v 0.0426682 -0.05471771 0.08719219
v 0.03539281 -0.03383835 0.09835352
v 4.632152E-06 -0.0358461 0.1000508
v 4.632152E-06 -0.01275207 0.1036973
v 0.03561986 -0.01139999 0.1011354
v 4.632152E-06 0.02076149 0.1052223
v 4.632152E-06 0.05330047 0.1044291
v 0.037031 0.05386566 0.1002445
v 0.03685766 0.02177582 0.1015849
v 0.037031 0.05386566 0.1002445
v 4.632152E-06 0.05330047 0.1044291
v 4.632152E-06 0.08639107 0.09908567
v 0.03813451 0.08454857 0.09603136
v 0.04155492 0.1093479 0.08797191
v 0.03813451 0.08454857 0.09603136
v 4.632152E-06 0.08639107 0.09908567
v 4.632152E-06 0.114008 0.08992768
v 0.07503637 0.05465157 0.09008024
v 0.07458471 0.07773025 0.08707164
v 0.09058324 0.07434547 0.07660639
v 0.0914768 0.05424049 0.07649405
v 0.08507055 -0.01579903 0.08379521
v 0.06991674 -0.00875206 0.09401803
v 0.07369359 0.02346908 0.09253543
v 0.08938207 0.02518257 0.07912783
v 0.03685766 0.02177582 0.1015849
v 0.07369359 0.02346908 0.09253543
v 0.06991674 -0.00875206 0.09401803
v 0.03561986 -0.01139999 0.1011354
v 0.03561986 -0.01139999 0.1011354
v 4.632152E-06 -0.01275207 0.1036973
v 4.632152E-06 0.02076149 0.1052223
v 0.03685766 0.02177582 0.1015849
v 4.632152E-06 0.02076149 0.1052223
v 4.632152E-06 -0.01275207 0.1036973
v -0.03560572 -0.01139992 0.1011354
v -0.03684596 0.02177582 0.1015849
v -0.07369898 0.02361412 0.09254985
v -0.03684596 0.02177582 0.1015849
v -0.03560572 -0.01139992 0.1011354
v -0.06999781 -0.007881698 0.09391983
v -0.08948999 0.026343 0.07924336
v -0.07369898 0.02361412 0.09254985
v -0.06999781 -0.007881698 0.09391983
v -0.0859231 -0.007804947 0.08289311
v -0.07456812 0.07773025 0.08740716
v -0.09057154 0.07434547 0.07679167
v -0.08065455 0.09646522 0.08099081
vt 0.498293 0.060497
vt 0.500195 0.638278
vt 0.500812 0.805523
vt 0.498739 0.192522
vt 0.499648 0.476411
vt 0.09878 0.158623
vt 0.082822 0.864953
vt 0.501372 0.951283
vt 0.009898 0.652632
vt 0.020404 0.508465
vt 0.117685 0.64969
vt 0.118598 0.767115
vt 0.174382 0.233399
vt 0.124685 0.492574
vt 0.278128 0.086384
vt 0.320951 0.20289
vt 0.314669 0.482168
vt 0.314161 0.64285
vt 0.308128 0.797899
vt 0.287108 0.928289
vt 0.020436 0.755243
vt 0.89764 0.15029
vt 0.920036 0.862156
vt 0.997255 0.650636
vt 0.978967 0.499747
vt 0.883072 0.647114
vt 0.88337 0.764531
vt 0.823266 0.229912
vt 0.874564 0.48939
vt 0.718635 0.084891
vt 0.676626 0.201678
vt 0.684646 0.480891
vt 0.686247 0.641547
vt 0.693438 0.796503
vt 0.715491 0.926716
vt 0.99062 0.753514
vt 0.944453 0.288718
vt 0.853191 0.326666
vt 0.677635 0.31503
vt 0.499119 0.309468
vt 0.320683 0.316266
vt 0.144585 0.333394
vt 0.046669 0.332281
vt 0.117685 0.64969
vt 0.314161 0.64285
vt 0.308128 0.797899
vt 0.118598 0.767115
vt 0.174382 0.233399
vt 0.320951 0.20289
vt 0.144585 0.333394
vt 0.174382 0.233399
vt 0.09878 0.158623
vt 0.117685 0.64969
vt 0.124685 0.492574
vt 0.278128 0.086384
vt 0.320951 0.20289
vt 0.498739 0.192522
vt 0.320951 0.20289
vt 0.320683 0.316266
vt 0.314669 0.482168
vt 0.314161 0.64285
vt 0.500195 0.638278
vt 0.314161 0.64285
vt 0.308128 0.797899
vt 0.500812 0.805523
vt 0.308128 0.797899
vt 0.287108 0.928289
vt 0.118598 0.767115
vt 0.117685 0.64969
vt 0.009898 0.652632
vt 0.686247 0.641547
vt 0.883072 0.647114
vt 0.88337 0.764531
vt 0.693438 0.796503
vt 0.88337 0.764531
vt 0.920036 0.862156
vt 0.676626 0.201678
vt 0.823266 0.229912
vt 0.89764 0.15029
vt 0.823266 0.229912
vt 0.853191 0.326666
vt 0.874564 0.48939
vt 0.883072 0.647114
vt 0.498293 0.060497
vt 0.498739 0.192522
vt 0.676626 0.201678
vt 0.718635 0.084891
vt 0.676626 0.201678
vt 0.498739 0.192522
vt 0.499119 0.309468
vt 0.677635 0.31503
vt 0.499648 0.476411
vt 0.500195 0.638278
vt 0.686247 0.641547
vt 0.684646 0.480891
vt 0.686247 0.641547
vt 0.500195 0.638278
vt 0.500812 0.805523
vt 0.693438 0.796503
vt 0.715491 0.926716
vt 0.693438 0.796503
vt 0.500812 0.805523
vt 0.501372 0.951283
vt 0.883072 0.647114
vt 0.88337 0.764531
vt 0.99062 0.753514
vt 0.997255 0.650636
vt 0.944453 0.288718
vt 0.853191 0.326666
vt 0.874564 0.48939
vt 0.978967 0.499747
vt 0.684646 0.480891
vt 0.874564 0.48939
vt 0.853191 0.326666
vt 0.677635 0.31503
vt 0.677635 0.31503
vt 0.499119 0.309468
vt 0.499648 0.476411
vt 0.684646 0.480891
vt 0.499648 0.476411
vt 0.499119 0.309468
vt 0.320683 0.316266
vt 0.314669 0.482168
vt 0.124685 0.492574
vt 0.314669 0.482168
vt 0.320683 0.316266
vt 0.144585 0.333394
vt 0.020404 0.508465
vt 0.124685 0.492574
vt 0.144585 0.333394
vt 0.046669 0.332281
vt 0.118598 0.767115
vt 0.020436 0.755243
vt 0.082822 0.864953
vn -0.05865833 -0.468159 0.8816952
vn -0.104551 0.03253506 0.9939872
vn -0.09730866 0.1458423 0.9845106
vn -0.05865834 -0.4681591 0.8816952
vn -0.104551 0.03253506 0.9939872
vn -0.1838537 -0.3650831 0.9126402
vn -0.2586229 0.253484 0.9321266
vn -0.08459688 0.3059691 0.9482755
vn -0.6401843 0.02674812 0.7677555
vn -0.6401843 0.02674812 0.7677555
vn -0.2493668 0.1242656 0.9604032
vn -0.2493668 0.1242656 0.9604032
vn -0.1983503 -0.09794757 0.9752249
vn -0.2436232 0.04901558 0.9686307
vn -0.1838537 -0.3650831 0.9126402
vn -0.1983503 -0.09794757 0.9752249
vn -0.2436232 0.04901557 0.9686307
vn -0.2493668 0.1242656 0.9604032
vn -0.2493668 0.1242656 0.9604032
vn -0.2586229 0.253484 0.9321266
vn -0.6027117 0.07017588 0.7948672
vn 0.1732796 -0.3617878 0.9160151
vn 0.2673776 0.2528439 0.9298275
vn 0.6423492 0.02804702 0.7658988
vn 0.6423492 0.02804703 0.7658988
vn 0.2563407 0.1256304 0.9583874
vn 0.2563407 0.1256304 0.9583874
vn 0.1953971 -0.1003042 0.9755814
vn 0.2467031 0.0521387 0.9676875
vn 0.1732796 -0.3617879 0.9160151
vn 0.195397 -0.1003042 0.9755814
vn 0.2467031 0.0521387 0.9676875
vn 0.2563407 0.1256304 0.9583874
vn 0.2563407 0.1256304 0.9583874
vn 0.2673776 0.2528439 0.9298275
vn 0.5597678 0.1039988 0.8220975
vn 0.464416 -0.08109128 0.8818969
vn 0.1953971 -0.1003042 0.9755814
vn 0.195397 -0.1003042 0.9755814
vn -0.06588654 -0.139812 0.9879836
vn -0.1983503 -0.09794756 0.9752249
vn -0.1983503 -0.09794758 0.9752249
vn -0.4943442 -0.07170077 0.8663042
vn -0.2436232 0.04901557 0.9686307
vn -0.2436232 0.04901558 0.9686307
vn -0.258623 0.253484 0.9321266
vn -0.258623 0.253484 0.9321266
vn -0.1838537 -0.3650831 0.9126402
vn -0.1838537 -0.3650831 0.9126402
vn -0.4943441 -0.07170077 0.8663042
vn -0.4943441 -0.07170077 0.8663042
vn -0.4943441 -0.07170077 0.8663042
vn -0.6401843 0.02674812 0.7677555
vn -0.6401843 0.02674811 0.7677556
vn -0.05865834 -0.4681591 0.8816952
vn -0.05865834 -0.4681591 0.8816952
vn -0.06588654 -0.139812 0.9879836
vn -0.06588654 -0.139812 0.9879836
vn -0.06588654 -0.139812 0.9879836
vn -0.104551 0.03253506 0.9939872
vn -0.104551 0.03253506 0.9939872
vn -0.09730866 0.1458423 0.9845106
vn -0.09730866 0.1458423 0.9845106
vn -0.09730866 0.1458423 0.9845106
vn -0.08459689 0.3059691 0.9482755
vn -0.08459689 0.3059691 0.9482755
vn -0.08459689 0.3059691 0.9482755
vn -0.6027117 0.07017588 0.7948672
vn -0.6027117 0.07017588 0.7948672
vn -0.6027117 0.07017588 0.7948672
vn 0.2467031 0.0521387 0.9676875
vn 0.2467031 0.0521387 0.9676875
vn 0.2673776 0.2528439 0.9298275
vn 0.2673776 0.2528439 0.9298275
vn 0.5597678 0.1039988 0.8220975
vn 0.5597678 0.1039988 0.8220975
vn 0.1732796 -0.3617878 0.9160151
vn 0.1732796 -0.3617878 0.9160151
vn 0.464416 -0.08109126 0.8818969
vn 0.464416 -0.08109128 0.8818969
vn 0.464416 -0.08109126 0.8818969
vn 0.6423492 0.02804703 0.7658988
vn 0.6423492 0.02804703 0.7658988
vn 0.05865471 -0.4681597 0.881695
vn 0.05865471 -0.4681597 0.881695
vn 0.05865471 -0.4681597 0.881695
vn 0.05865471 -0.4681597 0.881695
vn 0.06587977 -0.1398157 0.9879835
vn 0.06587977 -0.1398157 0.9879835
vn 0.06587977 -0.1398157 0.9879835
vn 0.06587978 -0.1398158 0.9879835
vn 0.1045443 0.03253467 0.9939879
vn 0.1045443 0.03253467 0.9939879
vn 0.1045443 0.03253467 0.9939879
vn 0.1045443 0.03253466 0.9939879
vn 0.09730572 0.1458465 0.9845102
vn 0.09730572 0.1458465 0.9845102
vn 0.0973057 0.1458465 0.9845102
vn 0.09730573 0.1458466 0.9845102
vn 0.08459464 0.3059649 0.948277
vn 0.08459464 0.3059649 0.948277
vn 0.08459464 0.3059649 0.948277
vn 0.08459464 0.3059649 0.948277
vn 0.5994699 0.07213666 0.79714
vn 0.5994699 0.07213666 0.79714
vn 0.59947 0.07213666 0.7971399
vn 0.5994699 0.07213666 0.79714
vn 0.6081281 -0.0005009391 0.7938387
vn 0.6081282 -0.0005009391 0.7938387
vn 0.6081281 -0.0005009391 0.7938387
vn 0.6081281 -0.0005009391 0.7938387
vn 0.2217175 -0.001596363 0.9751096
vn 0.2217176 -0.001596363 0.9751096
vn 0.2217176 -0.001596363 0.9751096
vn 0.2217175 -0.001596363 0.9751096
vn 0.08619991 -0.0310826 0.9957929
vn 0.08619989 -0.0310826 0.9957929
vn 0.08619991 -0.0310826 0.9957929
vn 0.08619989 -0.0310826 0.9957929
vn -0.08620841 -0.0310862 0.995792
vn -0.08620841 -0.0310862 0.995792
vn -0.08620842 -0.0310862 0.995792
vn -0.08620841 -0.0310862 0.995792
vn -0.2226062 -0.003132661 0.9749034
vn -0.2226062 -0.00313266 0.9749034
vn -0.2226062 -0.003132661 0.9749034
vn -0.2226062 -0.00313266 0.9749034
vn -0.6090692 -0.006789281 0.793088
vn -0.6090692 -0.006789281 0.793088
vn -0.6090692 -0.006789281 0.793088
vn -0.6090692 -0.006789281 0.793088
vn -0.5643675 0.09740432 0.8197572
vn -0.5643675 0.09740432 0.8197571
vn -0.5643675 0.09740432 0.8197572
g SM_Chr_Kid_Robot_Face_01_0
f 36/36/36 76/76/76 75/75/75
f 134/134/134 133/133/133 132/132/132
f 18/18/18 19/19/19 12/12/12
f 11/11/11 18/18/18 12/12/12
f 16/16/16 41/41/41 42/42/42
f 13/13/13 16/16/16 42/42/42
f 17/17/17 45/45/45 44/44/44
f 14/14/14 17/17/17 44/44/44
f 7/7/7 47/47/47 46/46/46
f 20/20/20 7/7/7 46/46/46
f 15/15/15 49/49/49 48/48/48
f 6/6/6 15/15/15 48/48/48
f 52/52/52 51/51/51 50/50/50
f 43/43/43 52/52/52 50/50/50
f 10/10/10 54/54/54 53/53/53
f 9/9/9 10/10/10 53/53/53
f 4/4/4 56/56/56 55/55/55
f 1/1/1 4/4/4 55/55/55
f 59/59/59 58/58/58 57/57/57
f 40/40/40 59/59/59 57/57/57
f 61/61/61 60/60/60 5/5/5
f 2/2/2 61/61/61 5/5/5
f 64/64/64 63/63/63 62/62/62
f 3/3/3 64/64/64 62/62/62
f 67/67/67 66/66/66 65/65/65
f 8/8/8 67/67/67 65/65/65
f 69/69/69 68/68/68 21/21/21
f 70/70/70 69/69/69 21/21/21
f 27/27/27 34/34/34 33/33/33
f 26/26/26 27/27/27 33/33/33
f 38/38/38 39/39/39 31/31/31
f 28/28/28 38/38/38 31/31/31
f 72/72/72 71/71/71 32/32/32
f 29/29/29 72/72/72 32/32/32
f 74/74/74 73/73/73 23/23/23
f 35/35/35 74/74/74 23/23/23
f 78/78/78 77/77/77 30/30/30
f 22/22/22 78/78/78 30/30/30
f 81/81/81 80/80/80 79/79/79
f 37/37/37 81/81/81 79/79/79
f 83/83/83 82/82/82 25/25/25
f 24/24/24 83/83/83 25/25/25
f 86/86/86 85/85/85 84/84/84
f 87/87/87 86/86/86 84/84/84
f 90/90/90 89/89/89 88/88/88
f 91/91/91 90/90/90 88/88/88
f 94/94/94 93/93/93 92/92/92
f 95/95/95 94/94/94 92/92/92
f 98/98/98 97/97/97 96/96/96
f 99/99/99 98/98/98 96/96/96
f 102/102/102 101/101/101 100/100/100
f 103/103/103 102/102/102 100/100/100
f 106/106/106 105/105/105 104/104/104
f 107/107/107 106/106/106 104/104/104
f 110/110/110 109/109/109 108/108/108
f 111/111/111 110/110/110 108/108/108
f 114/114/114 113/113/113 112/112/112
f 115/115/115 114/114/114 112/112/112
f 118/118/118 117/117/117 116/116/116
f 119/119/119 118/118/118 116/116/116
f 122/122/122 121/121/121 120/120/120
f 123/123/123 122/122/122 120/120/120
f 126/126/126 125/125/125 124/124/124
f 127/127/127 126/126/126 124/124/124
f 130/130/130 129/129/129 128/128/128
f 131/131/131 130/130/130 128/128/128
