g SM_Env_RockSmall_01
v -0.3054457 -0.02544297 0.06308296
v -0.3556795 0.0278239 0.08055439
v -0.2077642 0.06830252 0.2026197
v -0.2065809 0.04691626 0.05746334
v -0.2405533 0.0739237 0.04354401
v -0.2201596 -0.01540879 0.02767765
v -0.1594773 -0.01723977 0.172444
v -0.3047911 0.05550458 0.1896531
v -0.2809442 -0.02612987 0.2009668
v -0.0414418 0.06300218 -0.1762368
v 0.02977318 0.02241184 -0.2425207
v -0.1233344 0.04465395 -0.2442234
v -0.104973 -0.007130247 -0.1407494
v -0.01194008 -0.02399211 -0.1581523
v -0.1325197 -0.01494993 -0.2149893
v -0.05202072 0.05730268 -0.2487095
v -0.02741554 -0.005902645 -0.2870381
v 0.3430215 -0.02544297 0.1186177
v 0.3556795 0.0278239 0.06696071
v 0.1728004 0.06830252 0.1247021
v 0.2939693 0.04691626 0.2046391
v 0.3241262 0.0739237 0.1837005
v 0.3263496 -0.01540879 0.2094432
v 0.1718624 -0.01723977 0.1816346
v 0.2364503 0.05550458 0.05033107
v 0.2139869 -0.02612987 0.06419006
v 0.1217976 0.01052362 0.02717972
v 0.03716987 0.1172984 0.1312789
v 0.1006501 0.08691662 0.06205074
v -0.1293265 0.09070797 0.1166728
v 0.09624854 0.05847448 0.003262062
v -0.05033867 0.00492351 0.1993115
v -0.1459428 0.006698642 0.1005053
v -0.0281852 0.006702564 -0.06097736
v -0.006422195 0.08107901 0.1970782
v 0.06485672 -0.01951288 0.1248555
v -0.09985458 -0.02621692 0.005390282
v -0.01683815 0.1090386 0.03990513
v -0.02930283 0.05350078 -0.04809231
v 0.08132164 0.06300218 0.1808818
v -0.01401138 0.02241184 0.1614723
v 0.07361297 0.04465395 0.2870381
v 0.1471301 -0.007130247 0.2119433
v 0.07888519 -0.02399211 0.1463642
v 0.1027392 -0.01494993 0.2775164
v 0.02850426 0.05730268 0.2316217
v -0.01698616 -0.005902645 0.2338842
v -0.2201596 -0.01540879 0.02767765
v -0.3054457 -0.02544297 0.06308296
v -0.2201596 -0.01540879 0.02767765
v -0.2405533 0.0739237 0.04354401
v -0.2065809 0.04691626 0.05746334
v -0.1594773 -0.01723977 0.172444
v -0.2809442 -0.02612987 0.2009668
v -0.2077642 0.06830252 0.2026197
v -0.1594773 -0.01723977 0.172444
v -0.3054457 -0.02544297 0.06308296
v -0.3556795 0.0278239 0.08055439
v -0.2809442 -0.02612987 0.2009668
v -0.3556795 0.0278239 0.08055439
v -0.2405533 0.0739237 0.04354401
v -0.3556795 0.0278239 0.08055439
v -0.2201596 -0.01540879 0.02767765
v -0.2405533 0.0739237 0.04354401
v -0.2809442 -0.02612987 0.2009668
v -0.3047911 0.05550458 0.1896531
v -0.2077642 0.06830252 0.2026197
v -0.1594773 -0.01723977 0.172444
v -0.2065809 0.04691626 0.05746334
v -0.2201596 -0.01540879 0.02767765
v -0.2405533 0.0739237 0.04354401
v -0.2077642 0.06830252 0.2026197
v -0.3047911 0.05550458 0.1896531
v -0.2809442 -0.02612987 0.2009668
v -0.3556795 0.0278239 0.08055439
v -0.3047911 0.05550458 0.1896531
v -0.01194008 -0.02399211 -0.1581523
v -0.104973 -0.007130247 -0.1407494
v -0.1325197 -0.01494993 -0.2149893
v -0.02741554 -0.005902645 -0.2870381
v -0.1233344 0.04465395 -0.2442234
v -0.1325197 -0.01494993 -0.2149893
v 0.02977318 0.02241184 -0.2425207
v -0.0414418 0.06300218 -0.1762368
v 0.02977318 0.02241184 -0.2425207
v -0.01194008 -0.02399211 -0.1581523
v -0.0414418 0.06300218 -0.1762368
v -0.02741554 -0.005902645 -0.2870381
v -0.05202072 0.05730268 -0.2487095
v -0.1233344 0.04465395 -0.2442234
v -0.1325197 -0.01494993 -0.2149893
v -0.104973 -0.007130247 -0.1407494
v -0.01194008 -0.02399211 -0.1581523
v -0.0414418 0.06300218 -0.1762368
v -0.104973 -0.007130247 -0.1407494
v -0.1233344 0.04465395 -0.2442234
v -0.0414418 0.06300218 -0.1762368
v -0.1233344 0.04465395 -0.2442234
v -0.05202072 0.05730268 -0.2487095
v -0.02741554 -0.005902645 -0.2870381
v 0.02977318 0.02241184 -0.2425207
v -0.05202072 0.05730268 -0.2487095
v 0.3263496 -0.01540879 0.2094432
v 0.3430215 -0.02544297 0.1186177
v 0.3263496 -0.01540879 0.2094432
v 0.3241262 0.0739237 0.1837005
v 0.2939693 0.04691626 0.2046391
v 0.1718624 -0.01723977 0.1816346
v 0.2139869 -0.02612987 0.06419006
v 0.1728004 0.06830252 0.1247021
v 0.1718624 -0.01723977 0.1816346
v 0.3430215 -0.02544297 0.1186177
v 0.3556795 0.0278239 0.06696071
v 0.2139869 -0.02612987 0.06419006
v 0.3556795 0.0278239 0.06696071
v 0.3241262 0.0739237 0.1837005
v 0.3556795 0.0278239 0.06696071
v 0.3263496 -0.01540879 0.2094432
v 0.3241262 0.0739237 0.1837005
v 0.2139869 -0.02612987 0.06419006
v 0.2364503 0.05550458 0.05033107
v 0.1728004 0.06830252 0.1247021
v 0.1718624 -0.01723977 0.1816346
v 0.2939693 0.04691626 0.2046391
v 0.3263496 -0.01540879 0.2094432
v 0.3241262 0.0739237 0.1837005
v 0.1728004 0.06830252 0.1247021
v 0.2364503 0.05550458 0.05033107
v 0.2139869 -0.02612987 0.06419006
v 0.3556795 0.0278239 0.06696071
v 0.2364503 0.05550458 0.05033107
v 0.06485672 -0.01951288 0.1248555
v 0.06485672 -0.01951288 0.1248555
v 0.1006501 0.08691662 0.06205074
v 0.1217976 0.01052362 0.02717972
v -0.006422195 0.08107901 0.1970782
v 0.06485672 -0.01951288 0.1248555
v -0.006422195 0.08107901 0.1970782
v -0.05033867 0.00492351 0.1993115
v -0.1293265 0.09070797 0.1166728
v -0.1459428 0.006698642 0.1005053
v -0.09985458 -0.02621692 0.005390282
v -0.0281852 0.006702564 -0.06097736
v -0.1293265 0.09070797 0.1166728
v -0.09985458 -0.02621692 0.005390282
v 0.1217976 0.01052362 0.02717972
v 0.09624854 0.05847448 0.003262062
v -0.02930283 0.05350078 -0.04809231
v -0.0281852 0.006702564 -0.06097736
v 0.1217976 0.01052362 0.02717972
v 0.1006501 0.08691662 0.06205074
v 0.09624854 0.05847448 0.003262062
v 0.1006501 0.08691662 0.06205074
v 0.03716987 0.1172984 0.1312789
v -0.01683815 0.1090386 0.03990513
v 0.1006501 0.08691662 0.06205074
v -0.02930283 0.05350078 -0.04809231
v -0.01683815 0.1090386 0.03990513
v -0.1293265 0.09070797 0.1166728
v -0.1459428 0.006698642 0.1005053
v -0.05033867 0.00492351 0.1993115
v 0.06485672 -0.01951288 0.1248555
v -0.09985458 -0.02621692 0.005390282
v 0.03716987 0.1172984 0.1312789
v -0.006422195 0.08107901 0.1970782
v -0.1293265 0.09070797 0.1166728
v 0.03716987 0.1172984 0.1312789
v -0.1293265 0.09070797 0.1166728
v -0.01683815 0.1090386 0.03990513
v -0.02930283 0.05350078 -0.04809231
v 0.09624854 0.05847448 0.003262062
v -0.01683815 0.1090386 0.03990513
v 0.07888519 -0.02399211 0.1463642
v 0.1471301 -0.007130247 0.2119433
v 0.1027392 -0.01494993 0.2775164
v -0.01698616 -0.005902645 0.2338842
v 0.07361297 0.04465395 0.2870381
v 0.1027392 -0.01494993 0.2775164
v -0.01401138 0.02241184 0.1614723
v 0.08132164 0.06300218 0.1808818
v -0.01401138 0.02241184 0.1614723
v 0.07888519 -0.02399211 0.1463642
v 0.08132164 0.06300218 0.1808818
v -0.01698616 -0.005902645 0.2338842
v 0.02850426 0.05730268 0.2316217
v 0.07361297 0.04465395 0.2870381
v 0.1027392 -0.01494993 0.2775164
v 0.1471301 -0.007130247 0.2119433
v 0.07888519 -0.02399211 0.1463642
v 0.08132164 0.06300218 0.1808818
v 0.1471301 -0.007130247 0.2119433
v 0.07361297 0.04465395 0.2870381
v 0.08132164 0.06300218 0.1808818
v 0.07361297 0.04465395 0.2870381
v 0.02850426 0.05730268 0.2316217
v -0.01698616 -0.005902645 0.2338842
v -0.01401138 0.02241184 0.1614723
v 0.02850426 0.05730268 0.2316217
vt 0.2350522 0.3268526
vt 0.2350522 0.3268526
vt 0.2350522 0.3268526
vt 0.2350522 0.3268526
vt 0.2350522 0.3268526
vt 0.2350522 0.3268526
vt 0.2350522 0.3268526
vt 0.2350522 0.3268526
vt 0.2350522 0.3268526
vt 0.2350522 0.3268526
vt 0.2350522 0.3268526
vt 0.2350522 0.3268526
vt 0.2350522 0.3268526
vt 0.2350522 0.3268526
vt 0.2350522 0.3268526
vt 0.2350522 0.3268526
vt 0.2350522 0.3268526
vt 0.2350522 0.3268526
vt 0.2350522 0.3268526
vt 0.2350522 0.3268526
vt 0.2350522 0.3268526
vt 0.2350522 0.3268526
vt 0.2350522 0.3268526
vt 0.2350522 0.3268526
vt 0.2350522 0.3268526
vt 0.2350522 0.3268526
vt 0.2350522 0.3268526
vt 0.2350522 0.3268526
vt 0.2350522 0.3268526
vt 0.2350522 0.3268526
vt 0.2350522 0.3268526
vt 0.2350522 0.3268526
vt 0.2350522 0.3268526
vt 0.2350522 0.3268526
vt 0.2350522 0.3268526
vt 0.2350522 0.3268526
vt 0.2350522 0.3268526
vt 0.2350522 0.3268526
vt 0.2350522 0.3268526
vt 0.2350522 0.3268526
vt 0.2350522 0.3268526
vt 0.2350522 0.3268526
vt 0.2350522 0.3268526
vt 0.2350522 0.3268526
vt 0.2350522 0.3268526
vt 0.2350522 0.3268526
vt 0.2350522 0.3268526
vt 0.2350522 0.3268526
vt 0.2350522 0.3268526
vt 0.2350522 0.3268526
vt 0.2350522 0.3268526
vt 0.2350522 0.3268526
vt 0.2350522 0.3268526
vt 0.2350522 0.3268526
vt 0.2350522 0.3268526
vt 0.2350522 0.3268526
vt 0.2350522 0.3268526
vt 0.2350522 0.3268526
vt 0.2350522 0.3268526
vt 0.2350522 0.3268526
vt 0.2350522 0.3268526
vt 0.2350522 0.3268526
vt 0.2350522 0.3268526
vt 0.2350522 0.3268526
vt 0.2350522 0.3268526
vt 0.2350522 0.3268526
vt 0.2350522 0.3268526
vt 0.2350522 0.3268526
vt 0.2350522 0.3268526
vt 0.2350522 0.3268526
vt 0.2350522 0.3268526
vt 0.2350522 0.3268526
vt 0.2350522 0.3268526
vt 0.2350522 0.3268526
vt 0.2350522 0.3268526
vt 0.2350522 0.3268526
vt 0.2350522 0.3268526
vt 0.2350522 0.3268526
vt 0.2350522 0.3268526
vt 0.2350522 0.3268526
vt 0.2350522 0.3268526
vt 0.2350522 0.3268526
vt 0.2350522 0.3268526
vt 0.2350522 0.3268526
vt 0.2350522 0.3268526
vt 0.2350522 0.3268526
vt 0.2350522 0.3268526
vt 0.2350522 0.3268526
vt 0.2350522 0.3268526
vt 0.2350522 0.3268526
vt 0.2350522 0.3268526
vt 0.2350522 0.3268526
vt 0.2350522 0.3268526
vt 0.2350522 0.3268526
vt 0.2350522 0.3268526
vt 0.2350522 0.3268526
vt 0.2350522 0.3268526
vt 0.2350522 0.3268526
vt 0.2350522 0.3268526
vt 0.2350522 0.3268526
vt 0.2350522 0.3268526
vt 0.2350522 0.3268526
vt 0.2350522 0.3268526
vt 0.2350522 0.3268526
vt 0.2350522 0.3268526
vt 0.2350522 0.3268526
vt 0.2350522 0.3268526
vt 0.2350522 0.3268526
vt 0.2350522 0.3268526
vt 0.2350522 0.3268526
vt 0.2350522 0.3268526
vt 0.2350522 0.3268526
vt 0.2350522 0.3268526
vt 0.2350522 0.3268526
vt 0.2350522 0.3268526
vt 0.2350522 0.3268526
vt 0.2350522 0.3268526
vt 0.2350522 0.3268526
vt 0.2350522 0.3268526
vt 0.2350522 0.3268526
vt 0.2350522 0.3268526
vt 0.2350522 0.3268526
vt 0.2350522 0.3268526
vt 0.2350522 0.3268526
vt 0.2350522 0.3268526
vt 0.2350522 0.3268526
vt 0.2350522 0.3268526
vt 0.2350522 0.3268526
vt 0.2350522 0.3268526
vt 0.2350522 0.3268526
vt 0.2350522 0.3268526
vt 0.2350522 0.3268526
vt 0.2350522 0.3268526
vt 0.2350522 0.3268526
vt 0.2350522 0.3268526
vt 0.2350522 0.3268526
vt 0.2350522 0.3268526
vt 0.2350522 0.3268526
vt 0.2350522 0.3268526
vt 0.2350522 0.3268526
vt 0.2350522 0.3268526
vt 0.2350522 0.3268526
vt 0.2350522 0.3268526
vt 0.2350522 0.3268526
vt 0.2350522 0.3268526
vt 0.2350522 0.3268526
vt 0.2350522 0.3268526
vt 0.2350522 0.3268526
vt 0.2350522 0.3268526
vt 0.2350522 0.3268526
vt 0.2350522 0.3268526
vt 0.2350522 0.3268526
vt 0.2350522 0.3268526
vt 0.2350522 0.3268526
vt 0.2350522 0.3268526
vt 0.2350522 0.3268526
vt 0.2350522 0.3268526
vt 0.2350522 0.3268526
vt 0.2350522 0.3268526
vt 0.2350522 0.3268526
vt 0.2350522 0.3268526
vt 0.2350522 0.3268526
vt 0.2350522 0.3268526
vt 0.2350522 0.3268526
vt 0.2350522 0.3268526
vt 0.2350522 0.3268526
vt 0.2350522 0.3268526
vt 0.2350522 0.3268526
vt 0.2350522 0.3268526
vt 0.2350522 0.3268526
vt 0.2350522 0.3268526
vt 0.2350522 0.3268526
vt 0.2350522 0.3268526
vt 0.2350522 0.3268526
vt 0.2350522 0.3268526
vt 0.2350522 0.3268526
vt 0.2350522 0.3268526
vt 0.2350522 0.3268526
vt 0.2350522 0.3268526
vt 0.2350522 0.3268526
vt 0.2350522 0.3268526
vt 0.2350522 0.3268526
vt 0.2350522 0.3268526
vt 0.2350522 0.3268526
vt 0.2350522 0.3268526
vt 0.2350522 0.3268526
vt 0.2350522 0.3268526
vt 0.2350522 0.3268526
vt 0.2350522 0.3268526
vt 0.2350522 0.3268526
vt 0.2350522 0.3268526
vt 0.2350522 0.3268526
vt 0.2350522 0.3268526
vt 0.2350522 0.3268526
vt 0.2350522 0.3268526
vt 0.2350522 0.3268526
vt 0.2350522 0.3268526
vt 0.2350522 0.3268526
vn 0.08089777 -0.9961675 -0.03325458
vn -0.3775654 -0.05284069 -0.924474
vn 0.7990544 0.5957426 -0.08125842
vn 0.5384136 0.2649907 -0.7999318
vn 0.5384136 0.2649907 -0.7999318
vn 0.08089777 -0.9961675 -0.03325458
vn 0.08089777 -0.9961675 -0.03325458
vn -0.3860047 0.9209376 -0.05361207
vn 0.08089777 -0.9961675 -0.03325458
vn 0.2241828 0.2706464 0.9362118
vn 0.1957344 -0.96763 -0.1593115
vn -0.9068583 0.2898184 0.305963
vn 0.2241828 0.2706464 0.9362118
vn 0.1957344 -0.96763 -0.1593115
vn 0.1957344 -0.96763 -0.1593115
vn 0.397333 0.9084989 -0.1294463
vn 0.1957344 -0.96763 -0.1593115
vn -0.01609016 -0.9961675 0.08597353
vn 0.9811403 -0.05283774 0.1859351
vn -0.3663796 0.5957404 0.7147443
vn 0.3784627 0.2649879 0.886875
vn 0.3784627 0.2649879 0.886875
vn -0.01609016 -0.9961675 0.08597353
vn -0.01609016 -0.9961675 0.08597353
vn 0.2549213 0.9209374 -0.2947701
vn -0.01609016 -0.9961675 0.08597353
vn 0.1808546 -0.9572873 -0.225594
vn 0.7748483 0.1277404 0.6191062
vn 0.2453137 0.8653496 -0.4370255
vn -0.6199373 0.1676107 0.7665405
vn 0.2453137 0.8653496 -0.4370255
vn 0.4859369 -0.255716 0.835748
vn -0.6199373 0.1676107 0.7665405
vn 0.1808546 -0.9572873 -0.225594
vn 0.7913136 0.132112 0.5969667
vn 0.1808546 -0.9572873 -0.225594
vn 0.1808546 -0.9572873 -0.225594
vn 0.2453137 0.8653496 -0.4370255
vn -0.7651165 0.2921984 -0.5737742
vn 0.6314197 0.2706467 -0.7266771
vn -0.2434149 -0.96763 -0.06664313
vn 0.776153 0.2898177 0.559993
vn 0.6314197 0.2706467 -0.7266771
vn -0.2434149 -0.96763 -0.06664313
vn -0.2434149 -0.96763 -0.06664313
vn -0.3363157 0.9084987 -0.2480363
vn -0.2434149 -0.96763 -0.06664313
vn -0.3775654 -0.05284069 -0.924474
vn -0.3775654 -0.05284069 -0.924474
vn 0.5384136 0.2649907 -0.7999318
vn 0.7990544 0.5957426 -0.08125842
vn 0.7990544 0.5957426 -0.08125842
vn 0.7990544 0.5957426 -0.08125842
vn 0.2378534 -0.200957 0.9502853
vn 0.2378534 -0.200957 0.9502853
vn 0.2378534 -0.200957 0.9502853
vn -0.7019922 -0.7017881 0.1212456
vn -0.7019922 -0.7017881 0.1212456
vn -0.7019922 -0.7017881 0.1212456
vn -0.3860047 0.9209376 -0.05361207
vn -0.3860047 0.9209376 -0.05361207
vn -0.337123 0.08949377 -0.9371973
vn -0.337123 0.08949377 -0.9371973
vn -0.337123 0.08949377 -0.9371973
vn -0.1440951 0.09442402 0.9850486
vn -0.1440951 0.09442402 0.9850486
vn -0.1440951 0.09442402 0.9850486
vn 0.922062 -0.01607796 -0.3867079
vn 0.922062 -0.01607796 -0.3867079
vn 0.922062 -0.01607796 -0.3867079
vn -0.1388458 0.9882734 0.06354146
vn -0.1388458 0.9882734 0.06354146
vn -0.1388458 0.9882734 0.06354146
vn -0.8700655 -0.1911944 0.4543466
vn -0.8700655 -0.1911944 0.4543466
vn -0.8700655 -0.1911944 0.4543466
vn 0.2241828 0.2706464 0.9362118
vn -0.9068583 0.2898184 0.305963
vn -0.9068583 0.2898184 0.305963
vn -0.51912 -0.3105577 -0.796284
vn -0.51912 -0.3105577 -0.796284
vn -0.51912 -0.3105577 -0.796284
vn 0.397333 0.9084989 -0.1294463
vn 0.397333 0.9084989 -0.1294463
vn 0.7371933 0.367824 0.5667905
vn 0.7371933 0.367824 0.5667905
vn 0.7371933 0.367824 0.5667905
vn -0.1386965 0.4734769 -0.8698177
vn -0.1386965 0.4734769 -0.8698177
vn -0.1386965 0.4734769 -0.8698177
vn -0.1474977 -0.9764293 0.1575763
vn -0.1474977 -0.9764293 0.1575763
vn -0.1474977 -0.9764293 0.1575763
vn -0.5351938 0.7135746 0.4520827
vn -0.5351938 0.7135746 0.4520827
vn -0.5351938 0.7135746 0.4520827
vn -0.1775433 0.9827712 -0.05137213
vn -0.1775433 0.9827712 -0.05137213
vn -0.1775433 0.9827712 -0.05137213
vn 0.3037499 0.5776882 -0.757636
vn 0.3037499 0.5776882 -0.757636
vn 0.3037499 0.5776882 -0.757636
vn 0.9811403 -0.05283774 0.1859351
vn 0.9811403 -0.05283774 0.1859351
vn 0.3784627 0.2649879 0.886875
vn -0.3663796 0.5957404 0.7147443
vn -0.3663796 0.5957404 0.7147443
vn -0.3663796 0.5957404 0.7147443
vn -0.9268172 -0.2009593 -0.3172148
vn -0.9268172 -0.2009593 -0.3172148
vn -0.9268172 -0.2009593 -0.3172148
vn 0.2800353 -0.7017872 -0.6550382
vn 0.2800353 -0.7017872 -0.6550382
vn 0.2800353 -0.7017872 -0.6550382
vn 0.2549213 0.9209374 -0.2947701
vn 0.2549213 0.9209374 -0.2947701
vn 0.9698231 0.08949153 0.2267917
vn 0.9698231 0.08949153 0.2267917
vn 0.9698231 0.08949153 0.2267917
vn -0.7482652 0.09442241 -0.6566458
vn -0.7482652 0.09442241 -0.6566458
vn -0.7482652 0.09442241 -0.6566458
vn -0.1769512 -0.01607712 0.9840883
vn -0.1769512 -0.01607712 0.9840883
vn -0.1769512 -0.01607712 0.9840883
vn 0.0221895 0.9882734 -0.1510737
vn 0.0221895 0.9882734 -0.1510737
vn 0.0221895 0.9882734 -0.1510737
vn 0.09191269 -0.1911964 -0.9772389
vn 0.09191269 -0.1911964 -0.9772389
vn 0.09191269 -0.1911964 -0.9772389
vn 0.7748483 0.1277404 0.6191062
vn 0.8628038 0.008113085 0.5054738
vn 0.8628038 0.008113085 0.5054738
vn 0.8628038 0.008113085 0.5054738
vn 0.4859369 -0.255716 0.835748
vn 0.4859369 -0.255716 0.835748
vn -0.6199373 0.1676107 0.7665405
vn -0.6199373 0.1676107 0.7665405
vn -0.8309622 0.2591013 -0.4923093
vn -0.8309622 0.2591013 -0.4923093
vn -0.8309622 0.2591013 -0.4923093
vn -0.7651165 0.2921984 -0.5737742
vn -0.7651165 0.2921984 -0.5737742
vn -0.7651165 0.2921984 -0.5737742
vn 0.4510207 0.02304803 -0.8922158
vn 0.4510207 0.02304803 -0.8922158
vn 0.4510207 0.02304803 -0.8922158
vn 0.4510207 0.02304803 -0.8922158
vn 0.901254 0.359736 -0.2415189
vn 0.901254 0.359736 -0.2415189
vn 0.901254 0.359736 -0.2415189
vn 0.2198305 0.9513403 -0.2159314
vn 0.2198305 0.9513403 -0.2159314
vn 0.2198305 0.9513403 -0.2159314
vn 0.7577783 0.1232691 0.6407627
vn -0.4279055 0.7904544 -0.4382678
vn -0.4279055 0.7904544 -0.4382678
vn -0.4279055 0.7904544 -0.4382678
vn -0.1429436 -0.9708495 0.1924011
vn -0.1429436 -0.9708495 0.1924011
vn -0.1429436 -0.9708495 0.1924011
vn -0.1429436 -0.9708495 0.1924011
vn -0.1783155 0.9071332 0.3811994
vn -0.1783155 0.9071332 0.3811994
vn -0.1783155 0.9071332 0.3811994
vn -0.1580623 0.9874204 0.004167234
vn -0.1580623 0.9874204 0.004167234
vn -0.1580623 0.9874204 0.004167234
vn 0.1897444 0.8179442 -0.5431063
vn 0.1897444 0.8179442 -0.5431063
vn 0.1897444 0.8179442 -0.5431063
vn 0.6314197 0.2706467 -0.7266771
vn 0.776153 0.2898177 0.559993
vn 0.776153 0.2898177 0.559993
vn -0.3461044 -0.310557 0.8853057
vn -0.3461044 -0.310557 0.8853057
vn -0.3461044 -0.310557 0.8853057
vn -0.3363157 0.9084987 -0.2480363
vn -0.3363157 0.9084987 -0.2480363
vn 0.03259796 0.3678241 -0.9293238
vn 0.03259796 0.3678241 -0.9293238
vn 0.03259796 0.3678241 -0.9293238
vn -0.6270955 0.4734765 0.6185235
vn -0.6270955 0.4734765 0.6185235
vn -0.6270955 0.4734765 0.6185235
vn 0.2139604 -0.9764293 0.02840398
vn 0.2139604 -0.9764293 0.02840398
vn 0.2139604 -0.9764293 0.02840398
vn 0.6789745 0.7135749 0.1726399
vn 0.6789745 0.7135749 0.1726399
vn 0.6789745 0.7135749 0.1726399
vn 0.06141663 0.9827712 0.1743236
vn 0.06141663 0.9827712 0.1743236
vn 0.06141663 0.9827712 0.1743236
vn -0.7930374 0.577688 0.1933083
vn -0.7930374 0.577688 0.1933083
vn -0.7930374 0.577688 0.1933083
g SM_Env_RockSmall_01_0
f 49/49/49 2/2/2 48/48/48
f 50/50/50 5/5/5 4/4/4
f 56/56/56 55/55/55 54/54/54
f 59/59/59 58/58/58 57/57/57
f 8/8/8 61/61/61 60/60/60
f 64/64/64 63/63/63 62/62/62
f 67/67/67 66/66/66 65/65/65
f 70/70/70 69/69/69 68/68/68
f 73/73/73 72/72/72 71/71/71
f 76/76/76 75/75/75 74/74/74
f 77/77/77 10/10/10 13/13/13
f 79/79/79 78/78/78 12/12/12
f 82/82/82 81/81/81 80/80/80
f 16/16/16 84/84/84 83/83/83
f 87/87/87 86/86/86 85/85/85
f 90/90/90 89/89/89 88/88/88
f 93/93/93 92/92/92 91/91/91
f 96/96/96 95/95/95 94/94/94
f 99/99/99 98/98/98 97/97/97
f 102/102/102 101/101/101 100/100/100
f 104/104/104 19/19/19 103/103/103
f 105/105/105 22/22/22 21/21/21
f 111/111/111 110/110/110 109/109/109
f 114/114/114 113/113/113 112/112/112
f 25/25/25 116/116/116 115/115/115
f 119/119/119 118/118/118 117/117/117
f 122/122/122 121/121/121 120/120/120
f 125/125/125 124/124/124 123/123/123
f 128/128/128 127/127/127 126/126/126
f 131/131/131 130/130/130 129/129/129
f 31/31/31 38/38/38 29/29/29
f 135/135/135 134/134/134 133/133/133
f 137/137/137 136/136/136 32/32/32
f 142/142/142 141/141/141 140/140/140
f 152/152/152 151/151/151 150/150/150
f 155/155/155 154/154/154 153/153/153
f 159/159/159 158/158/158 157/157/157
f 166/166/166 165/165/165 164/164/164
f 169/169/169 168/168/168 167/167/167
f 172/172/172 171/171/171 170/170/170
f 173/173/173 40/40/40 43/43/43
f 175/175/175 174/174/174 42/42/42
f 178/178/178 177/177/177 176/176/176
f 46/46/46 180/180/180 179/179/179
f 183/183/183 182/182/182 181/181/181
f 186/186/186 185/185/185 184/184/184
f 189/189/189 188/188/188 187/187/187
f 192/192/192 191/191/191 190/190/190
f 195/195/195 194/194/194 193/193/193
f 198/198/198 197/197/197 196/196/196
f 7/7/7 9/9/9 1/1/1
f 6/6/6 7/7/7 1/1/1
f 52/52/52 51/51/51 3/3/3
f 53/53/53 52/52/52 3/3/3
f 15/15/15 17/17/17 11/11/11
f 14/14/14 15/15/15 11/11/11
f 24/24/24 26/26/26 18/18/18
f 23/23/23 24/24/24 18/18/18
f 107/107/107 106/106/106 20/20/20
f 108/108/108 107/107/107 20/20/20
f 37/37/37 34/34/34 27/27/27
f 36/36/36 37/37/37 27/27/27
f 132/132/132 28/28/28 35/35/35
f 28/28/28 132/132/132 156/156/156
f 139/139/139 138/138/138 30/30/30
f 33/33/33 139/139/139 30/30/30
f 144/144/144 39/39/39 143/143/143
f 145/145/145 144/144/144 143/143/143
f 148/148/148 147/147/147 146/146/146
f 149/149/149 148/148/148 146/146/146
f 162/162/162 161/161/161 160/160/160
f 163/163/163 162/162/162 160/160/160
f 45/45/45 47/47/47 41/41/41
f 44/44/44 45/45/45 41/41/41
