g SM_Env_GrassBlob_16
v 0.7063222 0.0838052 1.225101
v 1.153263 -0.009307384 1.171893
v 0.6983411 -0.00664711 1.262346
v 1.299583 0.07848454 0.6291794
v 1.153263 -0.009307384 1.171893
v 1.102716 0.1396729 1.065479
v 0.373777 0.2194837 0.8686121
v 0.1370047 0.1423331 0.9138381
v 0.04389215 0.1396729 0.5174443
v 0.04389215 0.1396729 0.5174443
v 0.1370047 0.1423331 0.9138381
v 0.09443903 -0.00664711 0.9776869
v 0.7063222 0.0838052 1.225101
v 0.09443903 -0.00664711 0.9776869
v 0.1370047 0.1423331 0.9138381
v 0.1370047 0.1423331 0.9138381
v 0.373777 0.2194837 0.8686121
v 0.7063222 0.2008612 1.134648
v 0.7063222 0.0838052 1.225101
v 0.1370047 0.1423331 0.9138381
v 0.7063222 0.2008612 1.134648
v 1.025566 0.2460873 0.4190109
v 1.102716 0.1396729 1.065479
v 0.7063222 0.2008612 1.134648
v 0.4535878 0.2487477 0.1423331
v -0.1130692 0.184899 -0.4110221
v -0.0412395 0.2886531 -0.7382466
v 0.7409069 0.2061819 0.6345001
v 0.4003806 0.2567288 0.6371605
v 0.4535878 0.2487477 0.1423331
v 0.7515483 0.2620494 -0.24874
v -0.0412395 0.2886531 -0.7382466
v 0.1183822 0.2035215 -1.13464
v 0.373777 0.2194837 0.8686121
v 0.04389215 0.1396729 0.5174443
v 0.4003806 0.2567288 0.6371605
v -0.11839 0.1822386 0.04922056
v 0.4003806 0.2567288 0.6371605
v 0.04389215 0.1396729 0.5174443
v 0.7063222 0.2008612 1.134648
v 0.373777 0.2194837 0.8686121
v 0.7409069 0.2061819 0.6345001
v 0.7409069 0.2061819 0.6345001
v 0.373777 0.2194837 0.8686121
v 0.4003806 0.2567288 0.6371605
v 0.1183822 0.2035215 -1.13464
v 1.006943 0.1875594 -0.7861331
v 0.7515483 0.2620494 -0.24874
v 1.315545 0.03325832 0.001334071
v 1.299583 0.07848454 0.6291794
v 1.246376 0.1503143 0.2620494
v 1.315545 0.03325832 0.001334071
v 1.246376 0.1503143 0.2620494
v 0.7515483 0.2620494 -0.24874
v 1.025566 0.2460873 0.4190109
v 0.7515483 0.2620494 -0.24874
v 1.246376 0.1503143 0.2620494
v 0.7409069 0.2061819 0.6345001
v 1.025566 0.2460873 0.4190109
v 0.7063222 0.2008612 1.134648
v 0.7515483 0.2620494 -0.24874
v 1.025566 0.2460873 0.4190109
v 0.7409069 0.2061819 0.6345001
v -1.017592 -0.00664711 0.06252229
v -0.2567288 -0.01196778 0.2647098
v 1.360771 -0.001326323 0.6345001
v 0.003986716 -0.001326323 -1.262338
v 1.033547 -0.009307384 -0.9244719
v 1.012264 0.07582414 -0.9244719
v 0.1183822 0.2035215 -1.13464
v -0.9856679 0.2327855 -1.006943
v 0.003986716 -0.001326323 -1.262338
v -0.9856679 0.2327855 -1.006943
v -1.227761 -0.003986716 -1.073452
v 0.003986716 -0.001326323 -1.262338
v -0.11839 0.1822386 0.04922056
v -0.6611037 0.2274648 -0.219476
v -0.1130692 0.184899 -0.4110221
v -0.8074236 0.280672 -0.5919266
v -0.0412395 0.2886531 -0.7382466
v -0.1130692 0.184899 -0.4110221
v -0.8074236 0.280672 -0.5919266
v -0.1130692 0.184899 -0.4110221
v -0.6611037 0.2274648 -0.219476
v -0.0412395 0.2886531 -0.7382466
v -0.8074236 0.280672 -0.5919266
v -0.9856679 0.2327855 -1.006943
v 0.1183822 0.2035215 -1.13464
v -0.0412395 0.2886531 -0.7382466
v -0.9856679 0.2327855 -1.006943
v -0.11839 0.1822386 0.04922056
v -1.012271 0.1396729 -0.04389215
v -0.6611037 0.2274648 -0.219476
v 0.04389215 0.1396729 0.5174443
v -0.2567288 -0.01196778 0.2647098
v -0.11839 0.1822386 0.04922056
v 0.09443903 -0.00664711 0.9776869
v -0.0172962 -0.009307384 0.5520289
v 0.04389215 0.1396729 0.5174443
v -1.310232 0.1902198 -0.4216635
v -0.9856679 0.2327855 -1.006943
v -0.8074236 0.280672 -0.5919266
v -1.227761 -0.003986716 -1.073452
v -0.9856679 0.2327855 -1.006943
v -1.310232 0.1902198 -0.4216635
v -1.360779 -0.003986716 -0.3285508
v -1.227761 -0.003986716 -1.073452
v -1.310232 0.1902198 -0.4216635
v -0.2567288 -0.01196778 0.2647098
v -1.017592 -0.00664711 0.06252229
v -0.11839 0.1822386 0.04922056
v -1.012271 0.1396729 -0.04389215
v -0.11839 0.1822386 0.04922056
v -1.017592 -0.00664711 0.06252229
v -0.0172962 -0.009307384 0.5520289
v -0.2567288 -0.01196778 0.2647098
v 0.04389215 0.1396729 0.5174443
v 1.299583 0.07848454 0.6291794
v 1.360771 -0.001326323 0.6345001
v 1.153263 -0.009307384 1.171893
v 0.7063222 0.0838052 1.225101
v 0.6983411 -0.00664711 1.262346
v 0.09443903 -0.00664711 0.9776869
v 1.006943 0.1875594 -0.7861331
v 1.315545 0.03325832 0.001334071
v 0.7515483 0.2620494 -0.24874
v 1.012264 0.07582414 -0.9244719
v 1.315545 0.03325832 0.001334071
v 1.006943 0.1875594 -0.7861331
v 0.7063222 0.0838052 1.225101
v 1.102716 0.1396729 1.065479
v 1.153263 -0.009307384 1.171893
v 0.7063222 0.2008612 1.134648
v 0.7515483 0.2620494 -0.24874
v 0.4535878 0.2487477 0.1423331
v -0.0412395 0.2886531 -0.7382466
v 0.7409069 0.2061819 0.6345001
v 0.4535878 0.2487477 0.1423331
v -0.11839 0.1822386 0.04922056
v -0.1130692 0.184899 -0.4110221
v 0.4003806 0.2567288 0.6371605
v 0.1183822 0.2035215 -1.13464
v 0.003986716 -0.001326323 -1.262338
v 1.012264 0.07582414 -0.9244719
v 1.006943 0.1875594 -0.7861331
v 1.299583 0.07848454 0.6291794
v 1.102716 0.1396729 1.065479
v 1.246376 0.1503143 0.2620494
v 1.025566 0.2460873 0.4190109
v -0.2567288 -0.01196778 0.2647098
v 0.3631355 -0.01196778 0.5094631
v 1.360771 -0.001326323 0.6345001
v 1.153263 -0.009307384 1.171893
v 0.6983411 -0.00664711 1.262346
v -0.0172962 -0.009307384 0.5520289
v -0.2567288 -0.01196778 0.2647098
v 0.09443903 -0.00664711 0.9776869
v 1.35279 -0.01462817 -0.03857136
v -1.017592 -0.00664711 0.06252229
v 1.033547 -0.009307384 -0.9244719
v 0.003986716 -0.001326323 -1.262338
v -1.360779 -0.003986716 -0.3285508
v -1.227761 -0.003986716 -1.073452
v 1.299583 0.07848454 0.6291794
v 1.315545 0.03325832 0.001334071
v 1.35279 -0.01462817 -0.03857136
v 1.360771 -0.001326323 0.6345001
v -1.310232 0.1902198 -0.4216635
v -0.8074236 0.280672 -0.5919266
v -0.6611037 0.2274648 -0.219476
v -1.012271 0.1396729 -0.04389215
v -1.360779 -0.003986716 -0.3285508
v -1.310232 0.1902198 -0.4216635
v -1.017592 -0.00664711 0.06252229
v -1.012271 0.1396729 -0.04389215
v 1.033547 -0.009307384 -0.9244719
v 1.35279 -0.01462817 -0.03857136
v 1.315545 0.03325832 0.001334071
v 1.012264 0.07582414 -0.9244719
vt 0.176552 0.2782014
vt 0.176552 0.2782014
vt 0.176552 0.2782014
vt 0.176552 0.2782014
vt 0.176552 0.2782014
vt 0.176552 0.2782014
vt 0.176552 0.2782014
vt 0.176552 0.2782014
vt 0.176552 0.2782014
vt 0.176552 0.2782014
vt 0.176552 0.2782014
vt 0.176552 0.2782014
vt 0.176552 0.2782014
vt 0.176552 0.2782014
vt 0.176552 0.2782014
vt 0.176552 0.2782014
vt 0.176552 0.2782014
vt 0.176552 0.2782014
vt 0.176552 0.2782014
vt 0.176552 0.2782014
vt 0.176552 0.2782014
vt 0.176552 0.2782014
vt 0.176552 0.2782014
vt 0.176552 0.2782014
vt 0.176552 0.2782014
vt 0.176552 0.2782014
vt 0.176552 0.2782014
vt 0.176552 0.2782014
vt 0.176552 0.2782014
vt 0.176552 0.2782014
vt 0.176552 0.2782014
vt 0.176552 0.2782014
vt 0.176552 0.2782014
vt 0.176552 0.2782014
vt 0.176552 0.2782014
vt 0.176552 0.2782014
vt 0.176552 0.2782014
vt 0.176552 0.2782014
vt 0.176552 0.2782014
vt 0.176552 0.2782014
vt 0.176552 0.2782014
vt 0.176552 0.2782014
vt 0.176552 0.2782014
vt 0.176552 0.2782014
vt 0.176552 0.2782014
vt 0.176552 0.2782014
vt 0.176552 0.2782014
vt 0.176552 0.2782014
vt 0.176552 0.2782014
vt 0.176552 0.2782014
vt 0.176552 0.2782014
vt 0.176552 0.2782014
vt 0.176552 0.2782014
vt 0.176552 0.2782014
vt 0.176552 0.2782014
vt 0.176552 0.2782014
vt 0.176552 0.2782014
vt 0.176552 0.2782014
vt 0.176552 0.2782014
vt 0.176552 0.2782014
vt 0.176552 0.2782014
vt 0.176552 0.2782014
vt 0.176552 0.2782014
vt 0.176552 0.2782014
vt 0.176552 0.2782014
vt 0.176552 0.2782014
vt 0.176552 0.2782014
vt 0.176552 0.2782014
vt 0.176552 0.2782014
vt 0.176552 0.2782014
vt 0.176552 0.2782014
vt 0.176552 0.2782014
vt 0.176552 0.2782014
vt 0.176552 0.2782014
vt 0.176552 0.2782014
vt 0.176552 0.2782014
vt 0.176552 0.2782014
vt 0.176552 0.2782014
vt 0.176552 0.2782014
vt 0.176552 0.2782014
vt 0.176552 0.2782014
vt 0.176552 0.2782014
vt 0.176552 0.2782014
vt 0.176552 0.2782014
vt 0.176552 0.2782014
vt 0.176552 0.2782014
vt 0.176552 0.2782014
vt 0.176552 0.2782014
vt 0.176552 0.2782014
vt 0.176552 0.2782014
vt 0.176552 0.2782014
vt 0.176552 0.2782014
vt 0.176552 0.2782014
vt 0.176552 0.2782014
vt 0.176552 0.2782014
vt 0.176552 0.2782014
vt 0.176552 0.2782014
vt 0.176552 0.2782014
vt 0.176552 0.2782014
vt 0.176552 0.2782014
vt 0.176552 0.2782014
vt 0.176552 0.2782014
vt 0.176552 0.2782014
vt 0.176552 0.2782014
vt 0.176552 0.2782014
vt 0.176552 0.2782014
vt 0.176552 0.2782014
vt 0.176552 0.2782014
vt 0.176552 0.2782014
vt 0.176552 0.2782014
vt 0.176552 0.2782014
vt 0.176552 0.2782014
vt 0.176552 0.2782014
vt 0.176552 0.2782014
vt 0.176552 0.2782014
vt 0.176552 0.2782014
vt 0.176552 0.2782014
vt 0.176552 0.2782014
vt 0.176552 0.2782014
vt 0.176552 0.2782014
vt 0.176552 0.2782014
vt 0.176552 0.2782014
vt 0.176552 0.2782014
vt 0.176552 0.2782014
vt 0.176552 0.2782014
vt 0.176552 0.2782014
vt 0.176552 0.2782014
vt 0.176552 0.2782014
vt 0.176552 0.2782014
vt 0.176552 0.2782014
vt 0.176552 0.2782014
vt 0.176552 0.2782014
vt 0.176552 0.2782014
vt 0.176552 0.2782014
vt 0.176552 0.2782014
vt 0.176552 0.2782014
vt 0.176552 0.2782014
vt 0.176552 0.2782014
vt 0.176552 0.2782014
vt 0.176552 0.2782014
vt 0.176552 0.2782014
vt 0.176552 0.2782014
vt 0.176552 0.2782014
vt 0.176552 0.2782014
vt 0.176552 0.2782014
vt 0.176552 0.2782014
vt 0.176552 0.2782014
vt 0.176552 0.2782014
vt 0.176552 0.2782014
vt 0.176552 0.2782014
vt 0.176552 0.2782014
vt 0.176552 0.2782014
vt 0.176552 0.2782014
vt 0.176552 0.2782014
vt 0.176552 0.2782014
vt 0.176552 0.2782014
vt 0.176552 0.2782014
vt 0.176552 0.2782014
vt 0.176552 0.2782014
vt 0.176552 0.2782014
vt 0.176552 0.2782014
vt 0.176552 0.2782014
vt 0.176552 0.2782014
vt 0.176552 0.2782014
vt 0.176552 0.2782014
vt 0.176552 0.2782014
vt 0.176552 0.2782014
vt 0.176552 0.2782014
vt 0.176552 0.2782014
vt 0.176552 0.2782014
vt 0.176552 0.2782014
vt 0.176552 0.2782014
vt 0.176552 0.2782014
vt 0.176552 0.2782014
vt 0.176552 0.2782014
vt 0.176552 0.2782014
vt 0.176552 0.2782014
vt 0.176552 0.2782014
vt 0.176552 0.2782014
vn 0.1748654 0.3645675 0.9146106
vn 0.1748654 0.3645675 0.9146106
vn 0.1748654 0.3645675 0.9146106
vn 0.8094923 0.4914929 0.3211805
vn 0.8094923 0.4914929 0.3211805
vn 0.8094923 0.4914929 0.3211805
vn -0.2971712 0.9548242 0
vn -0.2971712 0.9548242 0
vn -0.2971712 0.9548242 0
vn -0.9040004 0.3645675 0.2233244
vn -0.9040004 0.3645675 0.2233244
vn -0.9040004 0.3645675 0.2233244
vn -0.3962989 0.4597615 0.7947116
vn -0.3962989 0.4597615 0.7947116
vn -0.3962989 0.4597615 0.7947116
vn -0.237642 0.9040004 0.3554005
vn -0.237642 0.9040004 0.3554005
vn -0.237642 0.9040004 0.3554005
vn -0.3328362 0.5866868 0.7382538
vn -0.3328362 0.5866868 0.7382538
vn -0.3328362 0.5866868 0.7382538
vn 0.1748654 0.967463 0.182859
vn 0.1748654 0.967463 0.182859
vn 0.1748654 0.967463 0.182859
vn -0.3328362 0.9357318 0.1167311
vn -0.3328362 0.9357318 0.1167311
vn -0.3328362 0.9357318 0.1167311
vn 0.1418019 0.989895 0
vn 0.1418019 0.989895 0
vn 0.1418019 0.989895 0
vn 0.1431341 0.967463 -0.2086336
vn 0.1431341 0.967463 -0.2086336
vn 0.1431341 0.967463 -0.2086336
vn -0.3328362 0.9357318 0.1167311
vn -0.3328362 0.9357318 0.1167311
vn -0.3328362 0.9357318 0.1167311
vn -0.3645675 0.9040004 0.2233244
vn -0.3645675 0.9040004 0.2233244
vn -0.3645675 0.9040004 0.2233244
vn 0.04792354 0.998851 0
vn 0.04792354 0.998851 0
vn 0.04792354 0.998851 0
vn 0.1431341 0.967463 0.2086336
vn 0.1431341 0.967463 0.2086336
vn 0.1431341 0.967463 0.2086336
vn 0.04792354 0.998851 0
vn 0.04792354 0.998851 0
vn 0.04792354 0.998851 0
vn 0.8412237 0.5232242 -0.136305
vn 0.8412237 0.5232242 -0.136305
vn 0.8412237 0.5232242 -0.136305
vn 0.4604475 0.8405377 -0.2854549
vn 0.4604475 0.8405377 -0.2854549
vn 0.4604475 0.8405377 -0.2854549
vn 0.3335221 0.9357318 -0.1147562
vn 0.3335221 0.9357318 -0.1147562
vn 0.3335221 0.9357318 -0.1147562
vn -0.1411359 0.9899902 0
vn -0.1411359 0.9899902 0
vn -0.1411359 0.9899902 0
vn -0.07880319 0.9968902 0
vn -0.07880319 0.9968902 0
vn -0.07880319 0.9968902 0
vn 0.1114028 -0.9046864 -0.4112565
vn 0.1114028 -0.9046864 -0.4112565
vn 0.1114028 -0.9046864 -0.4112565
vn 0.3017908 0.07898533 -0.9500966
vn 0.3017908 0.07898533 -0.9500966
vn 0.3017908 0.07898533 -0.9500966
vn -0.07898533 0.5549556 -0.8281217
vn -0.07898533 0.5549556 -0.8281217
vn -0.07898533 0.5549556 -0.8281217
vn -0.1424481 0.3962989 -0.9070037
vn -0.1424481 0.3962989 -0.9070037
vn -0.1424481 0.3962989 -0.9070037
vn 0.07948335 0.9968362 0
vn 0.07948335 0.9968362 0
vn 0.07948335 0.9968362 0
vn 0.04794002 0.9357318 0.3494393
vn 0.04794002 0.9357318 0.3494393
vn 0.04794002 0.9357318 0.3494393
vn 0.110806 0.993842 0
vn 0.110806 0.993842 0
vn 0.110806 0.993842 0
vn -0.01552272 0.9991944 -0.03700805
vn -0.01552272 0.9991944 -0.03700805
vn -0.01552272 0.9991944 -0.03700805
vn 0.01620871 0.967463 -0.2524928
vn 0.01620871 0.967463 -0.2524928
vn 0.01620871 0.967463 -0.2524928
vn -0.07898533 0.9357318 0.3437548
vn -0.07898533 0.9357318 0.3437548
vn -0.07898533 0.9357318 0.3437548
vn -0.6184182 0.7453437 0.2490415
vn -0.6184182 0.7453437 0.2490415
vn -0.6184182 0.7453437 0.2490415
vn -0.872269 0.3962989 0.2865204
vn -0.872269 0.3962989 0.2865204
vn -0.872269 0.3962989 0.2865204
vn -0.1741794 0.967463 -0.1835126
vn -0.1741794 0.967463 -0.1835126
vn -0.1741794 0.967463 -0.1835126
vn -0.6184182 0.7136123 -0.3291145
vn -0.6184182 0.7136123 -0.3291145
vn -0.6184182 0.7136123 -0.3291145
vn -0.967463 0.1741794 -0.1835126
vn -0.967463 0.1741794 -0.1835126
vn -0.967463 0.1741794 -0.1835126
vn -0.1424481 0.7770749 0.6130767
vn -0.1424481 0.7770749 0.6130767
vn -0.1424481 0.7770749 0.6130767
vn -0.1107167 0.5866868 0.8022097
vn -0.1107167 0.5866868 0.8022097
vn -0.1107167 0.5866868 0.8022097
vn -0.7136123 0.4280301 0.5545698
vn -0.7136123 0.4280301 0.5545698
vn -0.7136123 0.4280301 0.5545698
vn 0.7460296 0.5866868 0.3150213
vn 0.7460296 0.5866868 0.3150213
vn 0.7460296 0.5866868 0.3150213
vn -0.3962989 0.3645675 0.8426374
vn -0.3962989 0.3645675 0.8426374
vn -0.3962989 0.3645675 0.8426374
vn 0.3636202 0.9315473 0
vn 0.3636202 0.9315473 0
vn 0.3636202 0.9315473 0
vn 0.872955 0.3962989 -0.2844235
vn 0.872955 0.3962989 -0.2844235
vn 0.872955 0.3962989 -0.2844235
vn 0.2383281 0.6184182 0.7488382
vn 0.2383281 0.6184182 0.7488382
vn 0.2065968 0.6184182 0.7582062
vn 0.2383281 0.5866868 0.7739497
vn 0.01620871 0.9991944 0.03671294
vn 0.01620871 0.9991944 0.03671294
vn 0.01620871 0.9991944 0.03671294
vn 0.04792354 0.998851 0
vn -0.1101319 0.993917 0
vn -0.1101319 0.993917 0
vn -0.1101319 0.993917 0
vn -0.1101319 0.993917 0
vn 0.2700595 0.5549556 -0.7868241
vn 0.2700595 0.5549556 -0.7868241
vn 0.2700595 0.5549556 -0.7868241
vn 0.2700595 0.5549556 -0.7868241
vn 0.4914194 0.8709231 0
vn 0.4914194 0.8709231 0
vn 0.4914194 0.8709231 0
vn 0.4604475 0.872269 0.1647264
vn 0.01620852 -0.9998686 0
vn 0.01620852 -0.9998686 0
vn 0.01620852 -0.9998686 0
vn 0.01620852 -0.9998686 0
vn -0.01552271 -0.9998796 0
vn -0.01552271 -0.9998796 0
vn -0.01552271 -0.9998796 0
vn -0.01552271 -0.9998796 0
vn -0.01552271 -0.9998796 0
vn -0.01552271 -0.9998796 0
vn -0.01552271 -0.9998796 0
vn -0.01552271 -0.9998796 0
vn 0.01620852 -0.9998686 0
vn 0.01620852 -0.9998686 0
vn 0.777761 0.6184182 -0.1124577
vn 0.777761 0.6184182 -0.1124577
vn 0.777761 0.6184182 -0.1124577
vn 0.777761 0.6184182 -0.1124577
vn -0.1107167 0.967463 0.227502
vn -0.1107167 0.967463 0.227502
vn -0.1107167 0.967463 0.227502
vn -0.1107167 0.967463 0.227502
vn -0.681881 0.4597615 0.5689092
vn -0.681881 0.4597615 0.5689092
vn -0.681881 0.4597615 0.5689092
vn -0.681881 0.4597615 0.5689092
vn 0.8412237 0.4597615 -0.2845383
vn 0.8412237 0.4597615 -0.2845383
vn 0.8412237 0.4597615 -0.2845383
vn 0.8412237 0.4597615 -0.2845383
g SM_Env_GrassBlob_16_0
f 3/3/3 2/2/2 1/1/1
f 6/6/6 5/5/5 4/4/4
f 9/9/9 8/8/8 7/7/7
f 12/12/12 11/11/11 10/10/10
f 15/15/15 14/14/14 13/13/13
f 18/18/18 17/17/17 16/16/16
f 21/21/21 20/20/20 19/19/19
f 24/24/24 23/23/23 22/22/22
f 27/27/27 26/26/26 25/25/25
f 30/30/30 29/29/29 28/28/28
f 33/33/33 32/32/32 31/31/31
f 36/36/36 35/35/35 34/34/34
f 39/39/39 38/38/38 37/37/37
f 42/42/42 41/41/41 40/40/40
f 45/45/45 44/44/44 43/43/43
f 48/48/48 47/47/47 46/46/46
f 51/51/51 50/50/50 49/49/49
f 54/54/54 53/53/53 52/52/52
f 57/57/57 56/56/56 55/55/55
f 60/60/60 59/59/59 58/58/58
f 63/63/63 62/62/62 61/61/61
f 66/66/66 65/65/65 64/64/64
f 69/69/69 68/68/68 67/67/67
f 72/72/72 71/71/71 70/70/70
f 75/75/75 74/74/74 73/73/73
f 78/78/78 77/77/77 76/76/76
f 81/81/81 80/80/80 79/79/79
f 84/84/84 83/83/83 82/82/82
f 87/87/87 86/86/86 85/85/85
f 90/90/90 89/89/89 88/88/88
f 93/93/93 92/92/92 91/91/91
f 96/96/96 95/95/95 94/94/94
f 99/99/99 98/98/98 97/97/97
f 102/102/102 101/101/101 100/100/100
f 105/105/105 104/104/104 103/103/103
f 108/108/108 107/107/107 106/106/106
f 111/111/111 110/110/110 109/109/109
f 114/114/114 113/113/113 112/112/112
f 117/117/117 116/116/116 115/115/115
f 120/120/120 119/119/119 118/118/118
f 123/123/123 122/122/122 121/121/121
f 126/126/126 125/125/125 124/124/124
f 129/129/129 128/128/128 127/127/127
f 132/132/132 131/131/131 130/130/130
f 131/131/131 133/133/133 130/130/130
f 136/136/136 135/135/135 134/134/134
f 135/135/135 137/137/137 134/134/134
f 140/140/140 139/139/139 138/138/138
f 141/141/141 138/138/138 139/139/139
f 144/144/144 143/143/143 142/142/142
f 145/145/145 144/144/144 142/142/142
f 148/148/148 147/147/147 146/146/146
f 148/148/148 149/149/149 147/147/147
f 152/152/152 151/151/151 150/150/150
f 152/152/152 153/153/153 151/151/151
f 151/151/151 153/153/153 154/154/154
f 151/151/151 154/154/154 155/155/155
f 151/151/151 155/155/155 156/156/156
f 154/154/154 157/157/157 155/155/155
f 159/159/159 158/158/158 152/152/152
f 160/160/160 158/158/158 159/159/159
f 160/160/160 159/159/159 161/161/161
f 159/159/159 162/162/162 161/161/161
f 162/162/162 163/163/163 161/161/161
f 166/166/166 165/165/165 164/164/164
f 167/167/167 166/166/166 164/164/164
f 170/170/170 169/169/169 168/168/168
f 170/170/170 168/168/168 171/171/171
f 174/174/174 173/173/173 172/172/172
f 173/173/173 174/174/174 175/175/175
f 178/178/178 177/177/177 176/176/176
f 179/179/179 178/178/178 176/176/176
