g SM_Env_GrassBlob_01
v 0.04644471 0.09763169 -0.05781919
v -0.1165891 -0.01990438 -0.581044
v 0.154502 -0.01990438 -0.969671
v -0.2492909 -0.01990438 0.1715655
v -0.2777271 -0.01990438 -0.05592346
v -0.1412337 0.08056998 0.04834235
v 0.2436019 -0.01990438 -0.742182
v 0.2113743 -0.01990438 -0.1469191
v 0.04644471 0.09763169 -0.05781919
v 0.2777252 -0.01990438 0.2322294
v 0.04644471 0.09763169 -0.05781919
v 0.2113743 -0.01990438 -0.1469191
v 0.2777252 -0.01990438 0.2322294
v 0.1658764 -0.01990438 0.931758
v -0.01421899 0.06350827 0.2549782
v -0.2492909 -0.01990438 0.1715655
v -0.01421899 0.06350827 0.2549782
v -0.1810443 -0.01990438 0.6492925
v 0.2436019 -0.01990438 -0.742182
v 0.04644471 0.09763169 -0.05781919
v 0.154502 -0.01990438 -0.969671
v 0.04644471 0.09763169 -0.05781919
v 0.2777252 -0.01990438 0.2322294
v -0.01421899 0.06350827 0.2549782
v -0.1412337 0.08056998 0.04834235
v 0.04644471 0.09763169 -0.05781919
v -0.01421899 0.06350827 0.2549782
v -0.2492909 -0.01990438 0.1715655
v -0.1412337 0.08056998 0.04834235
v -0.01421899 0.06350827 0.2549782
v 0.1658764 -0.01990438 0.931758
v 0.08056808 -0.01990438 0.9696729
v -0.01421899 0.06350827 0.2549782
v -0.01421899 0.06350827 0.2549782
v 0.08056808 -0.01990438 0.9696729
v -0.1810443 -0.01990438 0.6492925
v 0.04644471 0.09763169 -0.05781919
v -0.1355464 -0.01990438 -0.1563978
v -0.1165891 -0.01990438 -0.581044
v -0.1412337 0.08056998 0.04834235
v -0.2777271 -0.01990438 -0.05592346
v -0.1355464 -0.01990438 -0.1563978
v 0.04644471 0.09763169 -0.05781919
vt 0.1768402 0.2766268
vt 0.1768402 0.2766268
vt 0.1768402 0.2766268
vt 0.1768402 0.2766268
vt 0.1768402 0.2766268
vt 0.1768402 0.2766268
vt 0.1768402 0.2766268
vt 0.1768402 0.2766268
vt 0.1768402 0.2766268
vt 0.1768402 0.2766268
vt 0.1768402 0.2766268
vt 0.1768402 0.2766268
vt 0.1768402 0.2766268
vt 0.1768402 0.2766268
vt 0.1768402 0.2766268
vt 0.1768402 0.2766268
vt 0.1768402 0.2766268
vt 0.1768402 0.2766268
vt 0.1768402 0.2766268
vt 0.1768402 0.2766268
vt 0.1768402 0.2766268
vt 0.1768402 0.2766268
vt 0.1768402 0.2766268
vt 0.1768402 0.2766268
vt 0.1768402 0.2766268
vt 0.1768402 0.2766268
vt 0.1768402 0.2766268
vt 0.1768402 0.2766268
vt 0.1768402 0.2766268
vt 0.1768402 0.2766268
vt 0.1768402 0.2766268
vt 0.1768402 0.2766268
vt 0.1768402 0.2766268
vt 0.1768402 0.2766268
vt 0.1768402 0.2766268
vt 0.1768402 0.2766268
vt 0.1768402 0.2766268
vt 0.1768402 0.2766268
vt 0.1768402 0.2766268
vt 0.1768402 0.2766268
vt 0.1768402 0.2766268
vt 0.1768402 0.2766268
vt 0.1768402 0.2766268
vn -0.2184761 0.9694008 -0.1119389
vn -0.2184761 0.9694008 -0.1119389
vn -0.2184761 0.9694008 -0.1119389
vn -0.6189692 0.7691542 0.1589937
vn -0.6189692 0.7691542 0.1589937
vn -0.6189692 0.7691542 0.1589937
vn 0.5794953 0.8149757 0
vn 0.5794953 0.8149757 0
vn 0.5794953 0.8149757 0
vn 0.5324486 0.8442466 -0.06120582
vn 0.5324486 0.8442466 -0.06120582
vn 0.5324486 0.8442466 -0.06120582
vn 0.2794509 0.96016 0
vn 0.2794509 0.96016 0
vn 0.2794509 0.96016 0
vn -0.341939 0.9397221 0
vn -0.341939 0.9397221 0
vn -0.341939 0.9397221 0
vn 0.2320787 0.9694008 -0.08000999
vn 0.2320787 0.9694008 -0.08000999
vn 0.2320787 0.9694008 -0.08000999
vn 0.2821404 0.9443699 0.1690037
vn 0.2821404 0.9443699 0.1690037
vn 0.2821404 0.9443699 0.1690037
vn -0.04326034 0.9944316 0.09609532
vn -0.04326034 0.9944316 0.09609532
vn -0.04326034 0.9944316 0.09609532
vn -0.4187226 0.8442466 0.334543
vn -0.4187226 0.8442466 0.334543
vn -0.4187226 0.8442466 0.334543
vn 0.05686295 0.9944316 0.08872656
vn 0.05686295 0.9944316 0.08872656
vn 0.05686295 0.9944316 0.08872656
vn -0.1684145 0.9694008 0.1786022
vn -0.1684145 0.9694008 0.1786022
vn -0.1684145 0.9694008 0.1786022
vn -0.5415653 0.8406587 0
vn -0.5415653 0.8406587 0
vn -0.5415653 0.8406587 0
vn -0.3185994 0.8442466 -0.4309781
vn -0.2935686 0.8442466 -0.4484029
vn -0.3185994 0.8442466 -0.4309781
vn -0.3185994 0.8442466 -0.4309781
g SM_Env_GrassBlob_01_0
f 3/3/3 2/2/2 1/1/1
f 6/6/6 5/5/5 4/4/4
f 9/9/9 8/8/8 7/7/7
f 12/12/12 11/11/11 10/10/10
f 15/15/15 14/14/14 13/13/13
f 18/18/18 17/17/17 16/16/16
f 21/21/21 20/20/20 19/19/19
f 24/24/24 23/23/23 22/22/22
f 27/27/27 26/26/26 25/25/25
f 30/30/30 29/29/29 28/28/28
f 33/33/33 32/32/32 31/31/31
f 36/36/36 35/35/35 34/34/34
f 39/39/39 38/38/38 37/37/37
f 42/42/42 41/41/41 40/40/40
f 42/42/42 40/40/40 43/43/43
