g SM_Env_Mine_Wall_High_01
v -1.398821 0 0.03294177
v 1.384826 0 0.03294177
v -1.398821 2.976269 0.03294177
v 1.384826 2.976269 0.03294177
v -1.398821 2.976269 -0.03294177
v 1.384826 2.976269 -0.03294177
v -1.398821 0 -0.03294177
v 1.384826 0 -0.03294177
v -1.5 0 0.1237414
v -1.286752 0 0.1237414
v -1.5 3 0.1237414
v -1.286752 3 0.1237414
v -1.5 3 -0.1237414
v -1.286752 3 -0.1237414
v -1.5 0 -0.1237414
v -1.286752 0 -0.1237414
v -0.1120688 0 0.1237414
v 0.1120688 0 0.1237414
v -0.1120688 3 0.1237414
v 0.1120688 3 0.1237414
v -0.1120688 3 -0.1237414
v 0.1120688 3 -0.1237414
v -0.1120688 0 -0.1237414
v 0.1120688 0 -0.1237414
v 1.272758 0 0.1237414
v 1.5 0 0.1237414
v 1.272758 3 0.1237414
v 1.5 3 0.1237414
v 1.272758 3 -0.1237414
v 1.5 3 -0.1237414
v 1.272758 0 -0.1237414
v 1.5 0 -0.1237414
v -1.398821 2.976269 0.03294177
v 1.384826 2.976269 0.03294177
v -1.398821 2.976269 -0.03294177
v 1.384826 2.976269 -0.03294177
v -1.398821 0 -0.03294177
v -1.398821 0 0.03294177
v 1.384826 0 0.03294177
v 1.384826 0 -0.03294177
v -1.5 3 0.1237414
v -1.286752 3 0.1237414
v -1.5 3 -0.1237414
v -1.286752 3 -0.1237414
v -1.5 0 -0.1237414
v -1.5 0 0.1237414
v -1.286752 0 0.1237414
v -1.286752 0 -0.1237414
v -1.286752 0 0.1237414
v -1.286752 3 0.1237414
v -1.286752 3 -0.1237414
v -1.286752 0 -0.1237414
v -1.5 0 -0.1237414
v -1.5 3 -0.1237414
v -1.5 3 0.1237414
v -1.5 0 0.1237414
v -0.1120688 3 0.1237414
v 0.1120688 3 0.1237414
v -0.1120688 3 -0.1237414
v 0.1120688 3 -0.1237414
v -0.1120688 0 -0.1237414
v -0.1120688 0 0.1237414
v 0.1120688 0 0.1237414
v 0.1120688 0 -0.1237414
v 0.1120688 0 0.1237414
v 0.1120688 3 0.1237414
v 0.1120688 3 -0.1237414
v 0.1120688 0 -0.1237414
v -0.1120688 0 -0.1237414
v -0.1120688 3 -0.1237414
v -0.1120688 3 0.1237414
v -0.1120688 0 0.1237414
v 1.272758 3 0.1237414
v 1.5 3 0.1237414
v 1.272758 3 -0.1237414
v 1.5 3 -0.1237414
v 1.272758 0 -0.1237414
v 1.272758 0 0.1237414
v 1.5 0 0.1237414
v 1.5 0 -0.1237414
v 1.5 0 0.1237414
v 1.5 3 0.1237414
v 1.5 3 -0.1237414
v 1.5 0 -0.1237414
v 1.272758 0 -0.1237414
v 1.272758 3 -0.1237414
v 1.272758 3 0.1237414
v 1.272758 0 0.1237414
vt 0.6260772 0.494047
vt 0.6260772 0.3963947
vt 0.8015907 0.494047
vt 0.8015906 0.3963947
vt 0.8091171 0.494047
vt 0.8091172 0.3963947
vt 0.6270871 0.494047
vt 0.6270875 0.3963947
vt 0.5904401 0.4472377
vt 0.59044 0.4472377
vt 0.5904401 0.4472377
vt 0.59044 0.4472377
vt 0.59044 0.4472377
vt 0.59044 0.4472377
vt 0.59044 0.4472377
vt 0.59044 0.4472377
vt 0.59044 0.4472377
vt 0.59044 0.4472377
vt 0.59044 0.4472377
vt 0.59044 0.4472377
vt 0.59044 0.4472377
vt 0.59044 0.4472377
vt 0.59044 0.4472377
vt 0.59044 0.4472377
vt 0.59044 0.4472377
vt 0.59044 0.4472377
vt 0.59044 0.4472377
vt 0.59044 0.4472377
vt 0.59044 0.4472377
vt 0.59044 0.4472377
vt 0.59044 0.4472377
vt 0.59044 0.4472377
vt 0.8015907 0.494047
vt 0.8015906 0.3963947
vt 0.8091171 0.494047
vt 0.8091172 0.3963947
vt 0.59044 0.4472377
vt 0.59044 0.4472377
vt 0.59044 0.4472377
vt 0.59044 0.4472377
vt 0.59044 0.4472377
vt 0.59044 0.4472377
vt 0.59044 0.4472377
vt 0.59044 0.4472377
vt 0.5904401 0.4472377
vt 0.5904401 0.4472377
vt 0.59044 0.4472377
vt 0.59044 0.4472377
vt 0.59044 0.4472377
vt 0.59044 0.4472377
vt 0.59044 0.4472377
vt 0.59044 0.4472377
vt 0.59044 0.4472377
vt 0.59044 0.4472377
vt 0.59044 0.4472377
vt 0.59044 0.4472377
vt 0.59044 0.4472377
vt 0.59044 0.4472377
vt 0.59044 0.4472377
vt 0.59044 0.4472377
vt 0.59044 0.4472377
vt 0.59044 0.4472377
vt 0.59044 0.4472377
vt 0.59044 0.4472377
vt 0.59044 0.4472377
vt 0.59044 0.4472377
vt 0.59044 0.4472377
vt 0.59044 0.4472377
vt 0.59044 0.4472377
vt 0.59044 0.4472377
vt 0.59044 0.4472377
vt 0.59044 0.4472377
vt 0.59044 0.4472377
vt 0.59044 0.4472377
vt 0.59044 0.4472377
vt 0.59044 0.4472377
vt 0.59044 0.4472377
vt 0.59044 0.4472377
vt 0.59044 0.4472377
vt 0.59044 0.4472377
vt 0.59044 0.4472377
vt 0.59044 0.4472377
vt 0.59044 0.4472377
vt 0.59044 0.4472377
vt 0.5904401 0.4472377
vt 0.5904401 0.4472377
vt 0.5904401 0.4472377
vt 0.5904401 0.4472377
vn 0 0 1
vn 0 0 1
vn 0 0 1
vn 0 0 1
vn 0 1 0
vn 0 1 0
vn 0 0 -1
vn 0 0 -1
vn 0 0 1
vn 0 0 1
vn 0 0 1
vn 0 0 1
vn 0 1 0
vn 0 1 0
vn 0 0 -1
vn 0 0 -1
vn 0 0 1
vn 0 0 1
vn 0 0 1
vn 0 0 1
vn 0 1 0
vn 0 1 0
vn 0 0 -1
vn 0 0 -1
vn 0 0 1
vn 0 0 1
vn 0 0 1
vn 0 0 1
vn 0 1 0
vn 0 1 0
vn 0 0 -1
vn 0 0 -1
vn 0 1 0
vn 0 1 0
vn 0 0 -1
vn 0 0 -1
vn 0 -1 0
vn 0 -1 0
vn 0 -1 0
vn 0 -1 0
vn 0 1 0
vn 0 1 0
vn 0 0 -1
vn 0 0 -1
vn 0 -1 0
vn 0 -1 0
vn 0 -1 0
vn 0 -1 0
vn 1 0 0
vn 1 0 0
vn 1 0 0
vn 1 0 0
vn -1 0 0
vn -1 0 0
vn -1 0 0
vn -1 0 0
vn 0 1 0
vn 0 1 0
vn 0 0 -1
vn 0 0 -1
vn 0 -1 0
vn 0 -1 0
vn 0 -1 0
vn 0 -1 0
vn 1 0 0
vn 1 0 0
vn 1 0 0
vn 1 0 0
vn -1 0 0
vn -1 0 0
vn -1 0 0
vn -1 0 0
vn 0 1 0
vn 0 1 0
vn 0 0 -1
vn 0 0 -1
vn 0 -1 0
vn 0 -1 0
vn 0 -1 0
vn 0 -1 0
vn 1 0 0
vn 1 0 0
vn 1 0 0
vn 1 0 0
vn -1 0 0
vn -1 0 0
vn -1 0 0
vn -1 0 0
g SM_Env_Mine_Wall_High_01_0
f 4/4/4 3/3/3 1/1/1
f 2/2/2 4/4/4 1/1/1
f 6/6/6 5/5/5 33/33/33
f 34/34/34 6/6/6 33/33/33
f 8/8/8 7/7/7 35/35/35
f 36/36/36 8/8/8 35/35/35
f 39/39/39 38/38/38 37/37/37
f 40/40/40 39/39/39 37/37/37
f 12/12/12 11/11/11 9/9/9
f 10/10/10 12/12/12 9/9/9
f 14/14/14 13/13/13 41/41/41
f 42/42/42 14/14/14 41/41/41
f 16/16/16 15/15/15 43/43/43
f 44/44/44 16/16/16 43/43/43
f 47/47/47 46/46/46 45/45/45
f 48/48/48 47/47/47 45/45/45
f 51/51/51 50/50/50 49/49/49
f 52/52/52 51/51/51 49/49/49
f 55/55/55 54/54/54 53/53/53
f 56/56/56 55/55/55 53/53/53
f 20/20/20 19/19/19 17/17/17
f 18/18/18 20/20/20 17/17/17
f 22/22/22 21/21/21 57/57/57
f 58/58/58 22/22/22 57/57/57
f 24/24/24 23/23/23 59/59/59
f 60/60/60 24/24/24 59/59/59
f 63/63/63 62/62/62 61/61/61
f 64/64/64 63/63/63 61/61/61
f 67/67/67 66/66/66 65/65/65
f 68/68/68 67/67/67 65/65/65
f 71/71/71 70/70/70 69/69/69
f 72/72/72 71/71/71 69/69/69
f 28/28/28 27/27/27 25/25/25
f 26/26/26 28/28/28 25/25/25
f 30/30/30 29/29/29 73/73/73
f 74/74/74 30/30/30 73/73/73
f 32/32/32 31/31/31 75/75/75
f 76/76/76 32/32/32 75/75/75
f 79/79/79 78/78/78 77/77/77
f 80/80/80 79/79/79 77/77/77
f 83/83/83 82/82/82 81/81/81
f 84/84/84 83/83/83 81/81/81
f 87/87/87 86/86/86 85/85/85
f 88/88/88 87/87/87 85/85/85
