g SM_Env_Overgrowth_07
v -0.1920827 0.04564017 0.165815
v -0.01214883 0.08569843 -0.06008741
v -0.0423567 0.1316669 0.1093394
v -0.1920827 0.04564017 0.165815
v -0.0423567 0.1316669 0.1093394
v -0.1159063 0.07584804 0.2754827
v 0.02659607 0.050237 -0.257752
v 0.2163803 -0.2866465 -0.2551252
v 0.2065299 0.0147756 -0.1513677
v 0.02659607 0.050237 -0.257752
v 0.08175826 -0.2866465 -0.3253914
v 0.2163803 -0.2866465 -0.2551252
v 0.02659607 0.050237 -0.257752
v -0.01214883 0.08569843 -0.06008741
v -0.116563 0.0804449 -0.1953661
v -0.3358984 -0.2866465 -0.08504173
v -0.2419914 0.04695356 -0.08372834
v -0.2636622 -0.2866465 0.2262307
v -0.1920827 0.04564017 0.165815
v -0.2636622 -0.2866465 0.2262307
v -0.2419914 0.04695356 -0.08372834
v -0.1159063 0.07584804 0.2754827
v 0.03710315 0.03316301 0.2439614
v -0.1021158 -0.2866465 0.3253913
v 0.03710315 0.03316301 0.2439614
v 0.08438504 -0.2866465 0.2570953
v -0.1021158 -0.2866465 0.3253913
v 0.2373945 0.0692811 0.1218165
v 0.05089369 0.1132795 0.1920827
v -0.0423567 0.1316669 0.1093394
v -0.0423567 0.1316669 0.1093394
v 0.05089369 0.1132795 0.1920827
v -0.1159063 0.07584804 0.2754827
v 0.05089369 0.1132795 0.1920827
v 0.03710315 0.03316301 0.2439614
v -0.1159063 0.07584804 0.2754827
v 0.2065299 0.0147756 -0.1513677
v 0.2597221 0.003611803 -0.01740235
v 0.1257567 0.06074411 -0.02528268
v 0.2597221 0.003611803 -0.01740235
v 0.2373945 0.0692811 0.1218165
v 0.1257567 0.06074411 -0.02528268
v 0.2163803 -0.2866465 -0.2551252
v 0.3358984 -0.2866465 -0.08504173
v 0.2065299 0.0147756 -0.1513677
v 0.3358984 -0.2866465 -0.08504173
v 0.2597221 0.003611803 -0.01740235
v 0.2065299 0.0147756 -0.1513677
v 0.05089369 0.1132795 0.1920827
v 0.2373945 0.0692811 0.1218165
v 0.03710315 0.03316301 0.2439614
v 0.02659607 0.050237 -0.257752
v -0.1388906 -0.2866465 -0.2505283
v 0.08175826 -0.2866465 -0.3253914
v -0.116563 0.0804449 -0.1953661
v -0.1388906 -0.2866465 -0.2505283
v -0.116563 0.0804449 -0.1953661
v -0.2419914 0.04695356 -0.08372834
v -0.3358984 -0.2866465 -0.08504173
v 0.02659607 0.050237 -0.257752
v 0.2065299 0.0147756 -0.1513677
v -0.01214883 0.08569843 -0.06008741
v 0.1257567 0.06074411 -0.02528268
v -0.0423567 0.1316669 0.1093394
v 0.2373945 0.0692811 0.1218165
v -0.1920827 0.04564017 0.165815
v -0.2419914 0.04695356 -0.08372834
v -0.01214883 0.08569843 -0.06008741
v -0.116563 0.0804449 -0.1953661
v -0.1159063 0.07584804 0.2754827
v -0.1021158 -0.2866465 0.3253913
v -0.2636622 -0.2866465 0.2262307
v -0.1920827 0.04564017 0.165815
v 0.2373945 0.0692811 0.1218165
v 0.2669457 -0.2866465 0.150711
v 0.08438504 -0.2866465 0.2570953
v 0.03710315 0.03316301 0.2439614
v 0.2597221 0.003611803 -0.01740235
v 0.3358984 -0.2866465 -0.08504173
v 0.2669457 -0.2866465 0.150711
v 0.2373945 0.0692811 0.1218165
vt 1.549511 2.448387
vt 1.60994 2.406842
vt 1.564618 2.414396
vt 1.549511 2.448387
vt 1.564618 2.414396
vt 1.523074 2.43328
vt 1.659038 2.399289
vt 1.659038 2.353967
vt 1.632601 2.357744
vt -0.7354464 2.365298
vt -0.7014552 2.350191
vt -0.705232 2.319976
vt 1.659038 2.399289
vt 1.60994 2.406842
vt 1.643931 2.43328
vt 1.50419 2.690102
vt 1.52685 2.690102
vt 1.523074 2.618343
vt -1.03759 2.652334
vt -1.06025 2.637227
vt -1.03759 2.708986
vt -0.6448034 2.486155
vt -0.6561338 2.448387
vt -0.6750177 2.482378
vt -0.6561338 2.448387
vt -0.6712409 2.437057
vt -0.6750177 2.482378
vt 1.560842 2.350191
vt 1.545734 2.395512
vt 1.564618 2.414396
vt 1.564618 2.414396
vt 1.545734 2.395512
vt 1.523074 2.43328
vt -0.6372498 2.44461
vt -0.6561338 2.448387
vt -0.6448034 2.486155
vt 1.632601 2.357744
vt 1.598609 2.346414
vt 1.598609 2.376628
vt 1.598609 2.346414
vt 1.560842 2.350191
vt 1.598609 2.376628
vt -0.07450819 2.765637
vt -0.07450819 2.803405
vt -0.05184746 2.788298
vt 1.613717 2.32753
vt 1.598609 2.346414
vt 1.632601 2.357744
vt -0.6372498 2.44461
vt -0.6485802 2.403066
vt -0.6561338 2.448387
vt -0.7354464 2.365298
vt -0.7127856 2.403066
vt -0.7014552 2.350191
vt -0.7392232 2.395512
vt -0.7127856 2.403066
vt -0.7392232 2.395512
vt -0.7354464 2.425726
vt -0.7127856 2.448387
vt 1.659038 2.399289
vt 1.632601 2.357744
vt 1.60994 2.406842
vt 1.598609 2.376628
vt 1.564618 2.414396
vt 1.560842 2.350191
vt 1.549511 2.448387
vt 1.613717 2.459718
vt 1.60994 2.406842
vt 1.643931 2.43328
vt -0.6448034 2.486155
vt -0.6750177 2.482378
vt -0.6750177 2.520146
vt -0.652357 2.501262
vt -0.6485802 2.403066
vt -0.6750177 2.395512
vt -0.6712409 2.437057
vt -0.6561338 2.448387
vt 1.413547 2.720316
vt 1.394663 2.705209
vt 1.39844 2.761861
vt 1.428654 2.754307
vn -0.5508848 0.7677013 -0.3273541
vn -0.5508848 0.7677013 -0.3273541
vn -0.5508848 0.7677013 -0.3273541
vn -0.4568967 0.8895196 0
vn -0.4568967 0.8895196 0
vn -0.4568967 0.8895196 0
vn 0.5331975 0.3030945 -0.7898317
vn 0.5331975 0.3030945 -0.7898317
vn 0.5331975 0.3030945 -0.7898317
vn 0.4402762 0.241147 -0.8648728
vn 0.4402762 0.241147 -0.8648728
vn 0.4402762 0.241147 -0.8648728
vn 0.1305384 0.9845178 -0.1169806
vn 0.1305384 0.9845178 -0.1169806
vn 0.1305384 0.9845178 -0.1169806
vn -0.953544 0.2721208 0.1292441
vn -0.953544 0.241147 0.1805599
vn -0.953544 0.241147 0.1805599
vn -0.953544 0.241147 0.1805599
vn -0.953544 0.241147 0.1805599
vn -0.953544 0.241147 0.1805599
vn 0.2234597 0.1482257 0.9633768
vn 0.2234597 0.1482257 0.9633768
vn 0.2234597 0.1482257 0.9633768
vn 0.3473548 0.08627808 0.9337562
vn 0.3473548 0.08627808 0.9337562
vn 0.3473548 0.08627808 0.9337562
vn 0.2213439 0.9751959 0
vn 0.2213439 0.9751959 0
vn 0.2213439 0.9751959 0
vn -0.05530429 0.953544 0.2961338
vn -0.05530429 0.953544 0.2961338
vn -0.05530429 0.953544 0.2961338
vn 0.3163811 0.4889373 0.8129227
vn 0.3163811 0.4889373 0.8129227
vn 0.3163811 0.4889373 0.8129227
vn 0.4055354 0.9140793 0
vn 0.4055354 0.9140793 0
vn 0.4055354 0.9140793 0
vn 0.3783286 0.8606226 -0.3408755
vn 0.3783286 0.8606226 -0.3408755
vn 0.3783286 0.8606226 -0.3408755
vn 0.8119616 0.2101732 -0.54456
vn 0.8119616 0.2101732 -0.54456
vn 0.8119616 0.2101732 -0.54456
vn 0.9048829 0.3030945 -0.2988656
vn 0.9048829 0.3030945 -0.2988656
vn 0.9048829 0.3030945 -0.2988656
vn 0.4093024 0.4579635 0.7891394
vn 0.4093024 0.4579635 0.7891394
vn 0.4093024 0.4579635 0.7891394
vn -0.3340683 0.1482257 -0.9308209
vn -0.3340683 0.1482257 -0.9308209
vn -0.3030945 0.1482257 -0.9413623
vn -0.3650421 0.1482257 -0.9191155
vn -0.6438061 0.1791995 -0.7439095
vn -0.6438061 0.1791995 -0.7439095
vn -0.6438061 0.1791995 -0.7439095
vn -0.6438061 0.1791995 -0.7439095
vn 0.2544335 0.953544 -0.161299
vn 0.2544335 0.953544 -0.161299
vn 0.2234597 0.953544 -0.2020384
vn 0.2234597 0.953544 -0.2020384
vn 0.2234597 0.953544 -0.2020384
vn 0.2234597 0.953544 -0.2020384
vn -0.1790753 0.9838355 0
vn -0.1790753 0.9838355 0
vn -0.1790753 0.9838355 0
vn -0.1790753 0.9838355 0
vn -0.6747799 0.1791995 0.7159327
vn -0.6747799 0.1791995 0.7159327
vn -0.6747799 0.1791995 0.7159327
vn -0.6747799 0.1791995 0.7159327
vn 0.5022237 0.1172519 0.8567516
vn 0.5022237 0.1172519 0.8567516
vn 0.5022237 0.1172519 0.8567516
vn 0.5022237 0.1172519 0.8567516
vn 0.9668305 0.1482257 0.2080094
vn 0.9668305 0.1482257 0.2080094
vn 0.9668305 0.1482257 0.2080094
vn 0.9668305 0.1482257 0.2080094
g SM_Env_Overgrowth_07_0
f 3/3/3 2/2/2 1/1/1
f 6/6/6 5/5/5 4/4/4
f 9/9/9 8/8/8 7/7/7
f 12/12/12 11/11/11 10/10/10
f 15/15/15 14/14/14 13/13/13
f 18/18/18 17/17/17 16/16/16
f 21/21/21 20/20/20 19/19/19
f 24/24/24 23/23/23 22/22/22
f 27/27/27 26/26/26 25/25/25
f 30/30/30 29/29/29 28/28/28
f 33/33/33 32/32/32 31/31/31
f 36/36/36 35/35/35 34/34/34
f 39/39/39 38/38/38 37/37/37
f 42/42/42 41/41/41 40/40/40
f 45/45/45 44/44/44 43/43/43
f 48/48/48 47/47/47 46/46/46
f 51/51/51 50/50/50 49/49/49
f 54/54/54 53/53/53 52/52/52
f 53/53/53 55/55/55 52/52/52
f 58/58/58 57/57/57 56/56/56
f 59/59/59 58/58/58 56/56/56
f 62/62/62 61/61/61 60/60/60
f 61/61/61 62/62/62 63/63/63
f 64/64/64 63/63/63 62/62/62
f 64/64/64 65/65/65 63/63/63
f 68/68/68 67/67/67 66/66/66
f 68/68/68 69/69/69 67/67/67
f 72/72/72 71/71/71 70/70/70
f 73/73/73 72/72/72 70/70/70
f 76/76/76 75/75/75 74/74/74
f 77/77/77 76/76/76 74/74/74
f 80/80/80 79/79/79 78/78/78
f 81/81/81 80/80/80 78/78/78
