g SM_Env_RockSmall_02
v -0.1745992 -0.02395237 -0.1148073
v -0.1991006 0.1426989 -0.1053729
v -0.1537879 0.06362497 -0.1997378
v -0.4544638 0.1301768 -0.1048038
v -0.2066322 0.008056312 -0.2248002
v -0.2552471 0.09501517 0.02662254
v -0.4158182 0.04895686 0.009898987
v -0.2056655 0.1394188 -0.007803116
v -0.20201 -0.007454928 0.03452114
v -0.4560061 -0.01046529 -0.01119965
v -0.3498155 0.1091354 -0.2270789
v -0.386748 -0.02508172 -0.2042931
v 0.1389936 -0.02192304 0.2987847
v -0.03208641 0.2107321 0.1612504
v -0.07777504 -0.02192304 0.07012718
v 0.05025062 0.1607807 0.2918968
v 0.0631284 0.1670142 -0.09651821
v 0.1454034 0.1140183 0.3103546
v -0.03985931 0.2096076 0.05572748
v -0.1021294 0.02597389 -0.006991481
v 0.09596302 0.02889243 -0.1158783
v 0.301143 0.02889887 0.1407817
v 0.09641052 0.03518117 0.3405297
v -0.1175912 0.151183 0.06363325
v -0.03387863 -0.01420256 0.2079456
v 0.2268867 -0.02522484 -0.001616135
v 0.1362174 0.1971521 0.1151252
v 0.2811888 0.1058409 0.1334332
v 0.3584309 0.01250933 -0.159187
v 0.248543 0.1214624 -0.07983215
v 0.3388009 0.08699437 -0.1364759
v 0.101427 0.09129565 -0.174594
v 0.3516621 0.05472687 -0.20211
v 0.1518709 0.006156016 -0.009339333
v 0.09221988 -0.006700512 -0.1250613
v 0.1810722 0.08037163 -0.02095924
v 0.3002734 -0.02156698 -0.05615265
v 0.1326374 -0.02775712 -0.2091058
v 0.2169359 0.1120917 -0.1960272
v 0.2495114 0.008174347 -0.2634545
v -0.20201 -0.007454928 0.03452114
v -0.20201 -0.007454928 0.03452114
v -0.1537879 0.06362497 -0.1997378
v -0.1745992 -0.02395237 -0.1148073
v -0.2056655 0.1394188 -0.007803116
v -0.20201 -0.007454928 0.03452114
v -0.2056655 0.1394188 -0.007803116
v -0.2552471 0.09501517 0.02662254
v -0.4544638 0.1301768 -0.1048038
v -0.4158182 0.04895686 0.009898987
v -0.4560061 -0.01046529 -0.01119965
v -0.386748 -0.02508172 -0.2042931
v -0.4544638 0.1301768 -0.1048038
v -0.4560061 -0.01046529 -0.01119965
v -0.1745992 -0.02395237 -0.1148073
v -0.2066322 0.008056312 -0.2248002
v -0.386748 -0.02508172 -0.2042931
v -0.1745992 -0.02395237 -0.1148073
v -0.1537879 0.06362497 -0.1997378
v -0.2066322 0.008056312 -0.2248002
v -0.1537879 0.06362497 -0.1997378
v -0.1991006 0.1426989 -0.1053729
v -0.3498155 0.1091354 -0.2270789
v -0.1537879 0.06362497 -0.1997378
v -0.20201 -0.007454928 0.03452114
v -0.1991006 0.1426989 -0.1053729
v -0.386748 -0.02508172 -0.2042931
v -0.3498155 0.1091354 -0.2270789
v -0.4544638 0.1301768 -0.1048038
v -0.4158182 0.04895686 0.009898987
v -0.2552471 0.09501517 0.02662254
v -0.20201 -0.007454928 0.03452114
v -0.4560061 -0.01046529 -0.01119965
v -0.1991006 0.1426989 -0.1053729
v -0.2056655 0.1394188 -0.007803116
v -0.4544638 0.1301768 -0.1048038
v -0.1991006 0.1426989 -0.1053729
v -0.4544638 0.1301768 -0.1048038
v -0.3498155 0.1091354 -0.2270789
v -0.386748 -0.02508172 -0.2042931
v -0.2066322 0.008056312 -0.2248002
v -0.3498155 0.1091354 -0.2270789
v -0.03208641 0.2107321 0.1612504
v -0.03387863 -0.01420256 0.2079456
v 0.1362174 0.1971521 0.1151252
v -0.07777504 -0.02192304 0.07012718
v -0.1021294 0.02597389 -0.006991481
v -0.03387863 -0.01420256 0.2079456
v -0.03387863 -0.01420256 0.2079456
v 0.05025062 0.1607807 0.2918968
v 0.09641052 0.03518117 0.3405297
v 0.1389936 -0.02192304 0.2987847
v -0.03387863 -0.01420256 0.2079456
v -0.1021294 0.02597389 -0.006991481
v -0.1175912 0.151183 0.06363325
v -0.03387863 -0.01420256 0.2079456
v -0.1175912 0.151183 0.06363325
v -0.1021294 0.02597389 -0.006991481
v 0.09596302 0.02889243 -0.1158783
v 0.0631284 0.1670142 -0.09651821
v 0.09596302 0.02889243 -0.1158783
v 0.2268867 -0.02522484 -0.001616135
v 0.301143 0.02889887 0.1407817
v 0.0631284 0.1670142 -0.09651821
v 0.2268867 -0.02522484 -0.001616135
v 0.301143 0.02889887 0.1407817
v 0.1389936 -0.02192304 0.2987847
v 0.09641052 0.03518117 0.3405297
v 0.1454034 0.1140183 0.3103546
v 0.2811888 0.1058409 0.1334332
v 0.09641052 0.03518117 0.3405297
v 0.05025062 0.1607807 0.2918968
v 0.1454034 0.1140183 0.3103546
v 0.05025062 0.1607807 0.2918968
v -0.03208641 0.2107321 0.1612504
v 0.1362174 0.1971521 0.1151252
v -0.03208641 0.2107321 0.1612504
v -0.1175912 0.151183 0.06363325
v -0.03985931 0.2096076 0.05572748
v 0.05025062 0.1607807 0.2918968
v 0.2811888 0.1058409 0.1334332
v 0.1362174 0.1971521 0.1151252
v 0.0631284 0.1670142 -0.09651821
v 0.09596302 0.02889243 -0.1158783
v -0.07777504 -0.02192304 0.07012718
v -0.03387863 -0.01420256 0.2079456
v 0.2268867 -0.02522484 -0.001616135
v -0.03985931 0.2096076 0.05572748
v -0.1175912 0.151183 0.06363325
v 0.0631284 0.1670142 -0.09651821
v -0.03985931 0.2096076 0.05572748
v 0.0631284 0.1670142 -0.09651821
v 0.1362174 0.1971521 0.1151252
v 0.2811888 0.1058409 0.1334332
v 0.1454034 0.1140183 0.3103546
v 0.1362174 0.1971521 0.1151252
v 0.3002734 -0.02156698 -0.05615265
v 0.3002734 -0.02156698 -0.05615265
v 0.3388009 0.08699437 -0.1364759
v 0.3584309 0.01250933 -0.159187
v 0.1810722 0.08037163 -0.02095924
v 0.3002734 -0.02156698 -0.05615265
v 0.1810722 0.08037163 -0.02095924
v 0.1518709 0.006156016 -0.009339333
v 0.101427 0.09129565 -0.174594
v 0.09221988 -0.006700512 -0.1250613
v 0.1326374 -0.02775712 -0.2091058
v 0.2495114 0.008174347 -0.2634545
v 0.101427 0.09129565 -0.174594
v 0.1326374 -0.02775712 -0.2091058
v 0.3584309 0.01250933 -0.159187
v 0.3516621 0.05472687 -0.20211
v 0.2495114 0.008174347 -0.2634545
v 0.3584309 0.01250933 -0.159187
v 0.3388009 0.08699437 -0.1364759
v 0.3516621 0.05472687 -0.20211
v 0.3388009 0.08699437 -0.1364759
v 0.248543 0.1214624 -0.07983215
v 0.2169359 0.1120917 -0.1960272
v 0.3388009 0.08699437 -0.1364759
v 0.3002734 -0.02156698 -0.05615265
v 0.248543 0.1214624 -0.07983215
v 0.2495114 0.008174347 -0.2634545
v 0.2169359 0.1120917 -0.1960272
v 0.101427 0.09129565 -0.174594
v 0.09221988 -0.006700512 -0.1250613
v 0.1518709 0.006156016 -0.009339333
v 0.3002734 -0.02156698 -0.05615265
v 0.1326374 -0.02775712 -0.2091058
v 0.248543 0.1214624 -0.07983215
v 0.1810722 0.08037163 -0.02095924
v 0.101427 0.09129565 -0.174594
v 0.248543 0.1214624 -0.07983215
v 0.101427 0.09129565 -0.174594
v 0.2169359 0.1120917 -0.1960272
v 0.2495114 0.008174347 -0.2634545
v 0.3516621 0.05472687 -0.20211
v 0.2169359 0.1120917 -0.1960272
vt 0.2350522 0.3268526
vt 0.2350522 0.3268526
vt 0.2350522 0.3268526
vt 0.2350522 0.3268526
vt 0.2350522 0.3268526
vt 0.2350522 0.3268526
vt 0.2350522 0.3268526
vt 0.2350522 0.3268526
vt 0.2350522 0.3268526
vt 0.2350522 0.3268526
vt 0.2350522 0.3268526
vt 0.2350522 0.3268526
vt 0.2350522 0.3268526
vt 0.2350522 0.3268526
vt 0.2350522 0.3268526
vt 0.2350522 0.3268526
vt 0.2350522 0.3268526
vt 0.2350522 0.3268526
vt 0.2350522 0.3268526
vt 0.2350522 0.3268526
vt 0.2350522 0.3268526
vt 0.2350522 0.3268526
vt 0.2350522 0.3268526
vt 0.2350522 0.3268526
vt 0.2350522 0.3268526
vt 0.2350522 0.3268526
vt 0.2350522 0.3268526
vt 0.2350522 0.3268526
vt 0.2350522 0.3268526
vt 0.2350522 0.3268526
vt 0.2350522 0.3268526
vt 0.2350522 0.3268526
vt 0.2350522 0.3268526
vt 0.2350522 0.3268526
vt 0.2350522 0.3268526
vt 0.2350522 0.3268526
vt 0.2350522 0.3268526
vt 0.2350522 0.3268526
vt 0.2350522 0.3268526
vt 0.2350522 0.3268526
vt 0.2350522 0.3268526
vt 0.2350522 0.3268526
vt 0.2350522 0.3268526
vt 0.2350522 0.3268526
vt 0.2350522 0.3268526
vt 0.2350522 0.3268526
vt 0.2350522 0.3268526
vt 0.2350522 0.3268526
vt 0.2350522 0.3268526
vt 0.2350522 0.3268526
vt 0.2350522 0.3268526
vt 0.2350522 0.3268526
vt 0.2350522 0.3268526
vt 0.2350522 0.3268526
vt 0.2350522 0.3268526
vt 0.2350522 0.3268526
vt 0.2350522 0.3268526
vt 0.2350522 0.3268526
vt 0.2350522 0.3268526
vt 0.2350522 0.3268526
vt 0.2350522 0.3268526
vt 0.2350522 0.3268526
vt 0.2350522 0.3268526
vt 0.2350522 0.3268526
vt 0.2350522 0.3268526
vt 0.2350522 0.3268526
vt 0.2350522 0.3268526
vt 0.2350522 0.3268526
vt 0.2350522 0.3268526
vt 0.2350522 0.3268526
vt 0.2350522 0.3268526
vt 0.2350522 0.3268526
vt 0.2350522 0.3268526
vt 0.2350522 0.3268526
vt 0.2350522 0.3268526
vt 0.2350522 0.3268526
vt 0.2350522 0.3268526
vt 0.2350522 0.3268526
vt 0.2350522 0.3268526
vt 0.2350522 0.3268526
vt 0.2350522 0.3268526
vt 0.2350522 0.3268526
vt 0.2350522 0.3268526
vt 0.2350522 0.3268526
vt 0.2350522 0.3268526
vt 0.2350522 0.3268526
vt 0.2350522 0.3268526
vt 0.2350522 0.3268526
vt 0.2350522 0.3268526
vt 0.2350522 0.3268526
vt 0.2350522 0.3268526
vt 0.2350522 0.3268526
vt 0.2350522 0.3268526
vt 0.2350522 0.3268526
vt 0.2350522 0.3268526
vt 0.2350522 0.3268526
vt 0.2350522 0.3268526
vt 0.2350522 0.3268526
vt 0.2350522 0.3268526
vt 0.2350522 0.3268526
vt 0.2350522 0.3268526
vt 0.2350522 0.3268526
vt 0.2350522 0.3268526
vt 0.2350522 0.3268526
vt 0.2350522 0.3268526
vt 0.2350522 0.3268526
vt 0.2350522 0.3268526
vt 0.2350522 0.3268526
vt 0.2350522 0.3268526
vt 0.2350522 0.3268526
vt 0.2350522 0.3268526
vt 0.2350522 0.3268526
vt 0.2350522 0.3268526
vt 0.2350522 0.3268526
vt 0.2350522 0.3268526
vt 0.2350522 0.3268526
vt 0.2350522 0.3268526
vt 0.2350522 0.3268526
vt 0.2350522 0.3268526
vt 0.2350522 0.3268526
vt 0.2350522 0.3268526
vt 0.2350522 0.3268526
vt 0.2350522 0.3268526
vt 0.2350522 0.3268526
vt 0.2350522 0.3268526
vt 0.2350522 0.3268526
vt 0.2350522 0.3268526
vt 0.2350522 0.3268526
vt 0.2350522 0.3268526
vt 0.2350522 0.3268526
vt 0.2350522 0.3268526
vt 0.2350522 0.3268526
vt 0.2350522 0.3268526
vt 0.2350522 0.3268526
vt 0.2350522 0.3268526
vt 0.2350522 0.3268526
vt 0.2350522 0.3268526
vt 0.2350522 0.3268526
vt 0.2350522 0.3268526
vt 0.2350522 0.3268526
vt 0.2350522 0.3268526
vt 0.2350522 0.3268526
vt 0.2350522 0.3268526
vt 0.2350522 0.3268526
vt 0.2350522 0.3268526
vt 0.2350522 0.3268526
vt 0.2350522 0.3268526
vt 0.2350522 0.3268526
vt 0.2350522 0.3268526
vt 0.2350522 0.3268526
vt 0.2350522 0.3268526
vt 0.2350522 0.3268526
vt 0.2350522 0.3268526
vt 0.2350522 0.3268526
vt 0.2350522 0.3268526
vt 0.2350522 0.3268526
vt 0.2350522 0.3268526
vt 0.2350522 0.3268526
vt 0.2350522 0.3268526
vt 0.2350522 0.3268526
vt 0.2350522 0.3268526
vt 0.2350522 0.3268526
vt 0.2350522 0.3268526
vt 0.2350522 0.3268526
vt 0.2350522 0.3268526
vt 0.2350522 0.3268526
vt 0.2350522 0.3268526
vt 0.2350522 0.3268526
vt 0.2350522 0.3268526
vt 0.2350522 0.3268526
vt 0.2350522 0.3268526
vt 0.2350522 0.3268526
vt 0.2350522 0.3268526
vt 0.2350522 0.3268526
vt 0.2350522 0.3268526
vt 0.2350522 0.3268526
vt 0.2350522 0.3268526
vt 0.2350522 0.3268526
vn -0.01609013 -0.9961675 0.08597352
vn 0.9966516 0.04456124 0.06855653
vn 0.1900238 0.2477605 -0.950003
vn -0.2698853 0.7460867 0.6087008
vn 0.1900238 0.2477605 -0.950003
vn 0.3784634 0.2649882 0.8868747
vn -0.2698853 0.7460867 0.6087008
vn 0.9966516 0.04456124 0.06855653
vn -0.01609013 -0.9961675 0.08597352
vn -0.01609013 -0.9961675 0.08597352
vn 0.1900238 0.2477605 -0.950003
vn -0.01609013 -0.9961675 0.08597352
vn 0.1375062 -0.9891817 0.0511048
vn 0.07599779 0.996976 -0.01622298
vn -0.2385232 -0.8569403 -0.4569027
vn 0.3570512 0.8653497 0.3516881
vn -0.5763484 0.1676107 -0.7998307
vn 0.3570512 0.8653497 0.3516881
vn 0.07599779 0.996976 -0.01622298
vn -0.2385232 -0.8569403 -0.4569027
vn -0.2385232 -0.8569403 -0.4569027
vn 0.1375062 -0.9891817 0.0511048
vn -0.7147382 0.008112602 0.699345
vn -0.7841892 0.1321119 0.606295
vn 0.1375062 -0.9891817 0.0511048
vn 0.1375062 -0.9891817 0.0511048
vn 0.07599779 0.996976 -0.01622298
vn 0.7549197 0.2921987 -0.5871254
vn 0.2128584 -0.9585034 -0.1896379
vn 0.5070956 0.3161503 0.8018123
vn 0.3523657 0.8653497 -0.3563823
vn -0.8365415 0.3393308 0.4301779
vn 0.3523657 0.8653497 -0.3563823
vn 0.3055951 0.02877027 0.9517269
vn -0.8365415 0.3393308 0.4301779
vn 0.5070956 0.3161503 0.8018123
vn 0.2128584 -0.9585034 -0.1896379
vn 0.2128584 -0.9585034 -0.1896379
vn 0.3523657 0.8653497 -0.3563823
vn 0.2128584 -0.9585034 -0.1896379
vn 0.9966516 0.04456124 0.06855653
vn 0.9811404 -0.05283593 0.1859356
vn 0.9811404 -0.05283593 0.1859356
vn 0.9811404 -0.05283593 0.1859356
vn 0.3784634 0.2649882 0.8868747
vn 0.3784634 0.2649882 0.8868747
vn -0.2698853 0.7460867 0.6087008
vn -0.2698853 0.7460867 0.6087008
vn -0.784979 0.3491924 0.5117348
vn -0.784979 0.3491924 0.5117348
vn -0.784979 0.3491924 0.5117348
vn -0.9268171 -0.2009588 -0.3172155
vn -0.9268171 -0.2009588 -0.3172155
vn -0.9268171 -0.2009588 -0.3172155
vn 0.1371973 -0.9396573 -0.3134025
vn 0.1371973 -0.9396573 -0.3134025
vn 0.1371973 -0.9396573 -0.3134025
vn 0.7501599 -0.5435136 -0.3766338
vn 0.7501599 -0.5435136 -0.3766338
vn 0.7501599 -0.5435136 -0.3766338
vn 0.2610275 0.7979327 -0.5432935
vn 0.2610275 0.7979327 -0.5432935
vn 0.2610275 0.7979327 -0.5432935
vn 0.9384447 0.2255597 0.2616187
vn 0.9384447 0.2255597 0.2616187
vn 0.9384447 0.2255597 0.2616187
vn -0.7482651 0.09442238 -0.6566459
vn -0.7482651 0.09442238 -0.6566459
vn -0.7482651 0.09442238 -0.6566459
vn -0.1377202 -0.09151439 0.9862344
vn -0.1377202 -0.09151439 0.9862344
vn -0.1377202 -0.09151439 0.9862344
vn -0.1377202 -0.09151439 0.9862344
vn -0.04888759 0.9983454 0.03027326
vn -0.04888759 0.9983454 0.03027326
vn -0.04888759 0.9983454 0.03027326
vn -0.04835674 0.9766238 -0.2094455
vn -0.04835674 0.9766238 -0.2094455
vn -0.04835674 0.9766238 -0.2094455
vn -0.0857984 -0.1437634 -0.9858857
vn -0.0857984 -0.1437634 -0.9858857
vn -0.0857984 -0.1437634 -0.9858857
vn -0.8012148 0.1277402 0.5845829
vn -0.8012148 0.1277402 0.5845829
vn 0.3570512 0.8653497 0.3516881
vn -0.9528905 0.003806333 0.3032909
vn -0.9528905 0.003806333 0.3032909
vn -0.9528905 0.003806333 0.3032909
vn -0.7147382 0.008112602 0.699345
vn -0.7147382 0.008112602 0.699345
vn -0.3525015 -0.7091994 0.6105563
vn -0.3525015 -0.7091994 0.6105563
vn -0.3525015 -0.7091994 0.6105563
vn -0.9341778 -0.2557174 0.2488382
vn -0.9341778 -0.2557174 0.2488382
vn -0.9341778 -0.2557174 0.2488382
vn -0.5763484 0.1676107 -0.7998307
vn -0.5763484 0.1676107 -0.7998307
vn -0.5763484 0.1676107 -0.7998307
vn 0.6936581 0.2591025 -0.6720895
vn 0.6936581 0.2591025 -0.6720895
vn 0.6936581 0.2591025 -0.6720895
vn 0.7549197 0.2921987 -0.5871254
vn 0.7549197 0.2921987 -0.5871254
vn 0.7549197 0.2921987 -0.5871254
vn 0.7205955 0.01025636 0.6932799
vn 0.6982976 -0.002548438 0.715803
vn 0.7205955 0.01025636 0.6932799
vn 0.7420514 0.02304917 0.6699466
vn 0.7420514 0.02304917 0.6699466
vn -0.004202072 0.3597362 0.9330447
vn -0.004202072 0.3597362 0.9330447
vn -0.004202072 0.3597362 0.9330447
vn 0.1504594 0.9513403 0.2689121
vn 0.1504594 0.9513403 0.2689121
vn 0.1504594 0.9513403 0.2689121
vn -0.5981361 0.8006066 0.03552703
vn -0.5981361 0.8006066 0.03552703
vn -0.5981361 0.8006066 0.03552703
vn -0.8176152 0.1232689 0.5624146
vn 0.5354389 0.7904539 -0.2974689
vn 0.5354389 0.7904539 -0.2974689
vn 0.5354389 0.7904539 -0.2974689
vn -0.0459979 -0.9876338 -0.1498793
vn -0.0459979 -0.9876338 -0.1498793
vn -0.0459979 -0.9876338 -0.1498793
vn -0.0459979 -0.9876338 -0.1498793
vn -0.5386964 0.6430626 -0.5443131
vn -0.5386964 0.6430626 -0.5443131
vn -0.5386964 0.6430626 -0.5443131
vn 0.1309654 0.9741718 -0.1839492
vn 0.1309654 0.9741718 -0.1839492
vn 0.1309654 0.9741718 -0.1839492
vn 0.4740178 0.8179441 0.325998
vn 0.4740178 0.8179441 0.325998
vn 0.4740178 0.8179441 0.325998
vn 0.5070956 0.3161503 0.8018123
vn 0.8583557 0.07129721 0.508077
vn 0.8583557 0.07129721 0.508077
vn 0.8583557 0.07129721 0.508077
vn 0.3055951 0.02877027 0.9517269
vn 0.3055951 0.02877027 0.9517269
vn -0.8365415 0.3393308 0.4301779
vn -0.8365415 0.3393308 0.4301779
vn -0.9061027 -0.1199325 -0.405702
vn -0.9061027 -0.1199325 -0.405702
vn -0.9061027 -0.1199325 -0.405702
vn -0.452006 0.1370188 -0.8814287
vn -0.452006 0.1370188 -0.8814287
vn -0.452006 0.1370188 -0.8814287
vn 0.6012886 -0.5202159 -0.6064878
vn 0.6012886 -0.5202159 -0.6064878
vn 0.6012886 -0.5202159 -0.6064878
vn 0.9696543 0.2324572 0.07572404
vn 0.9696543 0.2324572 0.07572404
vn 0.9696543 0.2324572 0.07572404
vn 0.2691976 0.9513403 -0.1499483
vn 0.2691976 0.9513403 -0.1499483
vn 0.2691976 0.9513403 -0.1499483
vn 0.5893028 0.3348626 0.7352477
vn 0.5893028 0.3348626 0.7352477
vn 0.5893028 0.3348626 0.7352477
vn -0.2423726 0.4734748 -0.846804
vn -0.2423726 0.4734748 -0.846804
vn -0.2423726 0.4734748 -0.846804
vn -0.128667 -0.975581 0.1780065
vn -0.128667 -0.975581 0.1780065
vn -0.128667 -0.975581 0.1780065
vn -0.128667 -0.975581 0.1780065
vn -0.3419837 0.9080498 0.2418524
vn -0.3419837 0.9080498 0.2418524
vn -0.3419837 0.9080498 0.2418524
vn -0.1824352 0.9827713 -0.02963096
vn -0.1824352 0.9827713 -0.02963096
vn -0.1824352 0.9827713 -0.02963096
vn 0.2103638 0.5776861 -0.7886862
vn 0.2103638 0.5776861 -0.7886862
vn 0.2103638 0.5776861 -0.7886862
g SM_Env_RockSmall_02_0
f 41/41/41 2/2/2 8/8/8
f 5/5/5 11/11/11 3/3/3
f 44/44/44 43/43/43 42/42/42
f 46/46/46 45/45/45 6/6/6
f 51/51/51 50/50/50 49/49/49
f 54/54/54 53/53/53 52/52/52
f 57/57/57 56/56/56 55/55/55
f 60/60/60 59/59/59 58/58/58
f 63/63/63 62/62/62 61/61/61
f 66/66/66 65/65/65 64/64/64
f 69/69/69 68/68/68 67/67/67
f 76/76/76 75/75/75 74/74/74
f 79/79/79 78/78/78 77/77/77
f 82/82/82 81/81/81 80/80/80
f 14/14/14 27/27/27 19/19/19
f 18/18/18 85/85/85 16/16/16
f 20/20/20 21/21/21 15/15/15
f 88/88/88 87/87/87 86/86/86
f 23/23/23 90/90/90 89/89/89
f 93/93/93 92/92/92 91/91/91
f 96/96/96 95/95/95 94/94/94
f 102/102/102 101/101/101 100/100/100
f 113/113/113 112/112/112 111/111/111
f 116/116/116 115/115/115 114/114/114
f 119/119/119 118/118/118 117/117/117
f 123/123/123 122/122/122 121/121/121
f 130/130/130 129/129/129 128/128/128
f 133/133/133 132/132/132 131/131/131
f 136/136/136 135/135/135 134/134/134
f 137/137/137 30/30/30 36/36/36
f 33/33/33 39/39/39 31/31/31
f 140/140/140 139/139/139 138/138/138
f 142/142/142 141/141/141 34/34/34
f 147/147/147 146/146/146 145/145/145
f 150/150/150 149/149/149 148/148/148
f 153/153/153 152/152/152 151/151/151
f 156/156/156 155/155/155 154/154/154
f 159/159/159 158/158/158 157/157/157
f 162/162/162 161/161/161 160/160/160
f 165/165/165 164/164/164 163/163/163
f 172/172/172 171/171/171 170/170/170
f 175/175/175 174/174/174 173/173/173
f 178/178/178 177/177/177 176/176/176
f 10/10/10 12/12/12 1/1/1
f 9/9/9 10/10/10 1/1/1
f 48/48/48 47/47/47 4/4/4
f 7/7/7 48/48/48 4/4/4
f 72/72/72 71/71/71 70/70/70
f 73/73/73 72/72/72 70/70/70
f 26/26/26 22/22/22 13/13/13
f 25/25/25 26/26/26 13/13/13
f 84/84/84 83/83/83 24/24/24
f 83/83/83 84/84/84 120/120/120
f 98/98/98 97/97/97 17/17/17
f 99/99/99 98/98/98 17/17/17
f 104/104/104 28/28/28 103/103/103
f 105/105/105 104/104/104 103/103/103
f 108/108/108 107/107/107 106/106/106
f 106/106/106 110/110/110 108/108/108
f 110/110/110 109/109/109 108/108/108
f 126/126/126 125/125/125 124/124/124
f 127/127/127 126/126/126 124/124/124
f 38/38/38 40/40/40 29/29/29
f 37/37/37 38/38/38 29/29/29
f 144/144/144 143/143/143 32/32/32
f 35/35/35 144/144/144 32/32/32
f 168/168/168 167/167/167 166/166/166
f 169/169/169 168/168/168 166/166/166
