g SM_Env_Grass_Tuft_01
v 0.02467525 0.3830245 0.09181039
v 0.0263159 0.4478298 0.1746628
v -0.0122392 0.3789229 0.1041152
v 0.0263159 0.4478298 0.1746628
v 0.03533943 0.3444694 0.1180607
v -0.000754714 0.3411881 0.1303655
v -0.0122392 0.3789229 0.1041152
v 0.0263159 0.4478298 0.1746628
v -0.000754714 0.3411881 0.1303655
v -0.03684886 0.5602139 -0.008268818
v -0.09919327 0.6988482 -0.04026136
v -0.02454403 0.5602139 -0.03862072
v -0.02454403 0.5602139 -0.03862072
v -0.09919327 0.6988482 -0.04026136
v -0.05079432 0.504432 -0.05174585
v 0.05256618 0.4872053 -0.0763555
v 0.02959718 0.6537305 -0.1403406
v 0.04600361 0.4330641 -0.09686354
v 0.01483139 0.4757208 -0.07881646
v 0.02959718 0.6537305 -0.1403406
v 0.05256618 0.4872053 -0.0763555
v -0.256695 0.3288833 0.04177079
v -0.1631784 0.2476715 0.009778246
v -0.1541548 0.2714608 0.03110661
v -0.1598971 0.2443902 0.05735688
v -0.256695 0.3288833 0.04177079
v -0.1541548 0.2714608 0.03110661
v -0.1631784 0.2476715 0.009778246
v -0.256695 0.3288833 0.04177079
v -0.1730222 0.2279837 0.03930981
v 0.001706257 -0.04354265 0.03274724
v 0.04600361 -0.04846457 0.009778246
v -0.01798145 -0.04682393 0.005676642
v 0.03533943 -0.05010521 -0.01729236
v 0.03533943 0.3444694 0.1180607
v 0.0263159 0.4478298 0.1746628
v 0.02467525 0.3830245 0.09181039
v 0.03533943 0.2271634 0.01880178
v 0.05174585 0.1935302 0.05735688
v 0.02467525 0.3830245 0.09181039
v -0.0122392 0.3789229 0.1041152
v -0.027005 0.2255228 0.04259109
v 0.03533943 0.2271634 0.01880178
v -0.027005 0.2255228 0.04259109
v -0.0122392 0.3789229 0.1041152
v -0.000754714 0.3411881 0.1303655
v -0.006496966 0.1927099 0.08114621
v 0.03533943 0.3444694 0.1180607
v 0.05174585 0.1935302 0.05735688
v -0.006496966 0.1927099 0.08114621
v -0.000754714 0.3411881 0.1303655
v -0.09919327 0.6988482 -0.04026136
v -0.06309913 0.5052524 -0.02057365
v -0.05079432 0.504432 -0.05174585
v -0.02208307 0.3067346 -0.04764425
v -0.03602853 0.3067346 -0.006628186
v -0.0122392 -0.03862072 -0.05010521
v -0.02536435 -0.04026136 -0.00334689
v 0.01072979 -0.04108168 -0.041902
v -0.002395347 -0.04272232 0.004856318
v -0.06309913 0.5052524 -0.02057365
v -0.09919327 0.6988482 -0.04026136
v -0.03684886 0.5602139 -0.008268818
v -0.007317275 0.3477507 0.005676642
v -0.03602853 0.3067346 -0.006628186
v -0.02536435 -0.04026136 -0.00334689
v -0.002395347 -0.04272232 0.004856318
v -0.007317275 0.3477507 0.005676642
v 0.005807862 0.3477507 -0.03451911
v 0.01072979 -0.04108168 -0.041902
v -0.002395347 -0.04272232 0.004856318
v 0.01072979 -0.04108168 -0.041902
v -0.02208307 0.3067346 -0.04764425
v -0.0122392 -0.03862072 -0.05010521
v 0.005807862 0.3477507 -0.03451911
v -0.05079432 0.504432 -0.05174585
v -0.02454403 0.5602139 -0.03862072
v -0.03602853 0.3067346 -0.006628186
v -0.02536435 -0.04026136 -0.00334689
v -0.0122392 -0.03862072 -0.05010521
v -0.02208307 0.3067346 -0.04764425
v 0.02959718 0.6537305 -0.1403406
v 0.01483139 0.4757208 -0.07881646
v 0.008268818 0.4207593 -0.09850417
v 0.004167214 0.2575153 -0.04354265
v 0.00334689 0.2214212 -0.0763555
v -0.009778246 -0.03780039 -0.02467525
v 0.01729236 -0.04026136 -0.02385493
v -0.006496966 -0.03533943 -0.06979293
v 0.02139397 -0.03780039 -0.06897261
v 0.04600361 0.4330641 -0.09686354
v 0.02959718 0.6537305 -0.1403406
v 0.008268818 0.4207593 -0.09850417
v 0.03862072 0.2263431 -0.07553518
v 0.00334689 0.2214212 -0.0763555
v 0.02139397 -0.03780039 -0.06897261
v -0.006496966 -0.03533943 -0.06979293
v 0.03944103 0.2632576 -0.041902
v 0.05256618 0.4872053 -0.0763555
v 0.04600361 0.4330641 -0.09686354
v 0.03862072 0.2263431 -0.07553518
v 0.01483139 0.4757208 -0.07881646
v 0.05256618 0.4872053 -0.0763555
v 0.03944103 0.2632576 -0.041902
v 0.004167214 0.2575153 -0.04354265
v -0.1730222 0.2279837 0.03930981
v -0.256695 0.3288833 0.04177079
v -0.1598971 0.2443902 0.05735688
v -0.1147794 0.1303655 0.02618468
v -0.07786492 0.1451313 0.06227881
v -0.0581772 -0.03698007 -0.01647204
v 6.560981E-05 -0.04436296 0.027005
v -0.0581772 -0.03533943 -0.041902
v -0.0581772 -0.03698007 -0.01647204
v 0.008268818 -0.04272232 -0.01647204
v 6.560981E-05 -0.04436296 0.027005
v -0.06802106 0.1738425 0.01716113
v 0.008268818 -0.04272232 -0.01647204
v 6.560981E-05 -0.04436296 0.027005
v -0.07786492 0.1451313 0.06227881
v -0.0581772 -0.03533943 -0.041902
v 0.008268818 -0.04272232 -0.01647204
v -0.06802106 0.1738425 0.01716113
v -0.1041152 0.1525142 -0.01483139
v -0.0581772 -0.03533943 -0.041902
v -0.1041152 0.1525142 -0.01483139
v -0.1147794 0.1303655 0.02618468
v -0.0581772 -0.03698007 -0.01647204
v 0.05174585 0.1935302 0.05735688
v 0.03533943 0.2271634 0.01880178
v 0.03533943 -0.05010521 -0.01729236
v 0.04600361 -0.04846457 0.009778246
v -0.027005 0.2255228 0.04259109
v -0.01798145 -0.04682393 0.005676642
v 0.03533943 -0.05010521 -0.01729236
v 0.03533943 0.2271634 0.01880178
v -0.01798145 -0.04682393 0.005676642
v -0.027005 0.2255228 0.04259109
v -0.006496966 0.1927099 0.08114621
v 0.001706257 -0.04354265 0.03274724
v 0.05174585 0.1935302 0.05735688
v 0.04600361 -0.04846457 0.009778246
v 0.001706257 -0.04354265 0.03274724
v -0.006496966 0.1927099 0.08114621
v -0.03684886 0.5602139 -0.008268818
v -0.02454403 0.5602139 -0.03862072
v 0.005807862 0.3477507 -0.03451911
v -0.007317275 0.3477507 0.005676642
v 0.01729236 -0.04026136 -0.02385493
v 0.03944103 0.2632576 -0.041902
v 0.03862072 0.2263431 -0.07553518
v 0.02139397 -0.03780039 -0.06897261
v -0.009778246 -0.03780039 -0.02467525
v -0.006496966 -0.03533943 -0.06979293
v 0.00334689 0.2214212 -0.0763555
v 0.004167214 0.2575153 -0.04354265
v 0.03944103 0.2632576 -0.041902
v 0.01729236 -0.04026136 -0.02385493
v -0.009778246 -0.03780039 -0.02467525
v 0.004167214 0.2575153 -0.04354265
v -0.1041152 0.1525142 -0.01483139
v -0.1631784 0.2476715 0.009778246
v -0.1730222 0.2279837 0.03930981
v -0.1147794 0.1303655 0.02618468
v -0.06802106 0.1738425 0.01716113
v -0.1541548 0.2714608 0.03110661
v -0.1631784 0.2476715 0.009778246
v -0.1041152 0.1525142 -0.01483139
v -0.1598971 0.2443902 0.05735688
v -0.1541548 0.2714608 0.03110661
v -0.06802106 0.1738425 0.01716113
v -0.07786492 0.1451313 0.06227881
vt 0.1770159 0.2985183
vt 0.1770159 0.2985183
vt 0.1770159 0.2985183
vt 0.1770159 0.2985183
vt 0.1770159 0.2985183
vt 0.1770159 0.2985183
vt 0.1770159 0.2985183
vt 0.1770159 0.2985183
vt 0.1770159 0.2985183
vt 0.1770159 0.2985183
vt 0.1770159 0.2985183
vt 0.1770159 0.2985183
vt 0.1770159 0.2985183
vt 0.1770159 0.2985183
vt 0.1770159 0.2985183
vt 0.1770159 0.2985183
vt 0.1770159 0.2985183
vt 0.1770159 0.2985183
vt 0.1770159 0.2985183
vt 0.1770159 0.2985183
vt 0.1770159 0.2985183
vt 0.1770159 0.2985183
vt 0.1770159 0.2985183
vt 0.1770159 0.2985183
vt 0.1770159 0.2985183
vt 0.1770159 0.2985183
vt 0.1770159 0.2985183
vt 0.1770159 0.2985183
vt 0.1770159 0.2985183
vt 0.1770159 0.2985183
vt 0.1770159 0.2985183
vt 0.1770159 0.2985183
vt 0.1770159 0.2985183
vt 0.1770159 0.2985183
vt 0.1770159 0.2985183
vt 0.1770159 0.2985183
vt 0.1770159 0.2985183
vt 0.1770159 0.2985183
vt 0.1770159 0.2985183
vt 0.1770159 0.2985183
vt 0.1770159 0.2985183
vt 0.1770159 0.2985183
vt 0.1770159 0.2985183
vt 0.1770159 0.2985183
vt 0.1770159 0.2985183
vt 0.1770159 0.2985183
vt 0.1770159 0.2985183
vt 0.1770159 0.2985183
vt 0.1770159 0.2985183
vt 0.1770159 0.2985183
vt 0.1770159 0.2985183
vt 0.1770159 0.2985183
vt 0.1770159 0.2985183
vt 0.1770159 0.2985183
vt 0.1770159 0.2985183
vt 0.1770159 0.2985183
vt 0.1770159 0.2985183
vt 0.1770159 0.2985183
vt 0.1770159 0.2985183
vt 0.1770159 0.2985183
vt 0.1770159 0.2985183
vt 0.1770159 0.2985183
vt 0.1770159 0.2985183
vt 0.1770159 0.2985183
vt 0.1770159 0.2985183
vt 0.1770159 0.2985183
vt 0.1770159 0.2985183
vt 0.1770159 0.2985183
vt 0.1770159 0.2985183
vt 0.1770159 0.2985183
vt 0.1770159 0.2985183
vt 0.1770159 0.2985183
vt 0.1770159 0.2985183
vt 0.1770159 0.2985183
vt 0.1770159 0.2985183
vt 0.1770159 0.2985183
vt 0.1770159 0.2985183
vt 0.1770159 0.2985183
vt 0.1770159 0.2985183
vt 0.1770159 0.2985183
vt 0.1770159 0.2985183
vt 0.1770159 0.2985183
vt 0.1770159 0.2985183
vt 0.1770159 0.2985183
vt 0.1770159 0.2985183
vt 0.1770159 0.2985183
vt 0.1770159 0.2985183
vt 0.1770159 0.2985183
vt 0.1770159 0.2985183
vt 0.1770159 0.2985183
vt 0.1770159 0.2985183
vt 0.1770159 0.2985183
vt 0.1770159 0.2985183
vt 0.1770159 0.2985183
vt 0.1770159 0.2985183
vt 0.1770159 0.2985183
vt 0.1770159 0.2985183
vt 0.1770159 0.2985183
vt 0.1770159 0.2985183
vt 0.1770159 0.2985183
vt 0.1770159 0.2985183
vt 0.1770159 0.2985183
vt 0.1770159 0.2985183
vt 0.1770159 0.2985183
vt 0.1770159 0.2985183
vt 0.1770159 0.2985183
vt 0.1770159 0.2985183
vt 0.1770159 0.2985183
vt 0.1770159 0.2985183
vt 0.1770159 0.2985183
vt 0.1770159 0.2985183
vt 0.1770159 0.2985183
vt 0.1770159 0.2985183
vt 0.1770159 0.2985183
vt 0.1770159 0.2985183
vt 0.1770159 0.2985183
vt 0.1770159 0.2985183
vt 0.1770159 0.2985183
vt 0.1770159 0.2985183
vt 0.1770159 0.2985183
vt 0.1770159 0.2985183
vt 0.1770159 0.2985183
vt 0.1770159 0.2985183
vt 0.1770159 0.2985183
vt 0.1770159 0.2985183
vt 0.1770159 0.2985183
vt 0.1770159 0.2985183
vt 0.1770159 0.2985183
vt 0.1770159 0.2985183
vt 0.1770159 0.2985183
vt 0.1770159 0.2985183
vt 0.1770159 0.2985183
vt 0.1770159 0.2985183
vt 0.1770159 0.2985183
vt 0.1770159 0.2985183
vt 0.1770159 0.2985183
vt 0.1770159 0.2985183
vt 0.1770159 0.2985183
vt 0.1770159 0.2985183
vt 0.1770159 0.2985183
vt 0.1770159 0.2985183
vt 0.1770159 0.2985183
vt 0.1770159 0.2985183
vt 0.1770159 0.2985183
vt 0.1770159 0.2985183
vt 0.1770159 0.2985183
vt 0.1770159 0.2985183
vt 0.1770159 0.2985183
vt 0.1770159 0.2985183
vt 0.1770159 0.2985183
vt 0.1770159 0.2985183
vt 0.1770159 0.2985183
vt 0.1770159 0.2985183
vt 0.1770159 0.2985183
vt 0.1770159 0.2985183
vt 0.1770159 0.2985183
vt 0.1770159 0.2985183
vt 0.1770159 0.2985183
vt 0.1770159 0.2985183
vt 0.1770159 0.2985183
vt 0.1770159 0.2985183
vt 0.1770159 0.2985183
vt 0.1770159 0.2985183
vt 0.1770159 0.2985183
vt 0.1770159 0.2985183
vt 0.1770159 0.2985183
vt 0.1770159 0.2985183
vt 0.1770159 0.2985183
vt 0.1770159 0.2985183
vt 0.1770159 0.2985183
vt 0.1770159 0.2985183
vt 0.1770159 0.2985183
vn -0.2694548 0.7444859 -0.6108477
vn -0.2694548 0.7444859 -0.6108477
vn -0.2694548 0.7444859 -0.6108477
vn 0.3322514 -0.4272576 0.8408686
vn 0.3322514 -0.4272576 0.8408686
vn 0.3322514 -0.4272576 0.8408686
vn -0.9028296 0.04777354 0.4273364
vn -0.9028296 0.04777354 0.4273364
vn -0.9028296 0.04777354 0.4273364
vn 0.8389512 0.4594672 0.2916345
vn 0.8389512 0.4594672 0.2916345
vn 0.8389512 0.4594672 0.2916345
vn 0.2372451 0.111111 -0.9650747
vn 0.2372451 0.111111 -0.9650747
vn 0.2372451 0.111111 -0.9650747
vn 0.9339575 0.01610476 -0.3570211
vn 0.9339575 0.01610476 -0.3570211
vn 0.9339575 0.01610476 -0.3570211
vn -0.1427798 0.3327922 0.9321284
vn -0.1427798 0.3327922 0.9321284
vn -0.1427798 0.3327922 0.9321284
vn 0.2372451 0.5861421 -0.7746949
vn 0.2372451 0.5861421 -0.7746949
vn 0.2372451 0.5861421 -0.7746949
vn 0.3955889 0.5861421 0.7070692
vn 0.3955889 0.5861421 0.7070692
vn 0.3955889 0.5861421 0.7070692
vn -0.6494797 -0.5222638 -0.5526451
vn -0.6494797 -0.5222638 -0.5526451
vn -0.6494797 -0.5222638 -0.5526451
vn -0.04777354 -0.997295 0.05586074
vn -0.04777354 -0.997295 0.05586074
vn -0.04777354 -0.997295 0.05586074
vn -0.04777354 -0.997295 0.05586074
vn 0.9656262 0.1744485 -0.192701
vn 0.9656262 0.1744485 -0.192701
vn 0.9656262 0.1744485 -0.192701
vn 0.9656262 0.1744485 -0.192701
vn 0.9656262 0.1744485 -0.192701
vn -0.3327922 0.364461 -0.8697227
vn -0.3327922 0.364461 -0.8697227
vn -0.3327922 0.364461 -0.8697227
vn -0.3327922 0.364461 -0.8697227
vn -0.9344984 -0.07890141 0.3471129
vn -0.9344984 -0.07890141 0.3471129
vn -0.9344984 -0.07890141 0.3471129
vn -0.9344984 -0.07890141 0.3471129
vn 0.3639201 -0.3005826 0.8815964
vn 0.3639201 -0.3005826 0.8815964
vn 0.3639201 -0.3005826 0.8815964
vn 0.3639201 -0.3005826 0.8815964
vn -0.9028296 -0.2055764 -0.3776732
vn -0.9344984 -0.1739076 -0.3105945
vn -0.9344984 -0.1739076 -0.3105945
vn -0.9344984 -0.1422389 -0.3263141
vn -0.9344984 -0.1422389 -0.3263141
vn -0.07940626 -0.9968423 0
vn -0.07940626 -0.9968423 0
vn -0.07940626 -0.9968423 0
vn -0.07940626 -0.9968423 0
vn -0.4277984 0.01610476 0.9037307
vn -0.4594672 0.01610476 0.8880487
vn -0.4277984 0.01610476 0.9037307
vn -0.3961297 -0.01556396 0.9180627
vn -0.3961297 -0.01556396 0.9180627
vn -0.364461 -0.01556396 0.9310886
vn -0.364461 -0.01556396 0.9310886
vn 0.9656262 0.01610476 0.2594352
vn 0.9656262 0.01610476 0.2594352
vn 0.9656262 0.01610476 0.2594352
vn 0.9656262 0.01610476 0.2594352
vn 0.3639201 0.01610476 -0.9312909
vn 0.3639201 0.01610476 -0.9312909
vn 0.3639201 0.01610476 -0.9312909
vn 0.3639201 0.01610476 -0.9312909
vn 0.3639201 0.04777354 -0.9302042
vn 0.3639201 0.04777354 -0.9302042
vn -0.966167 -0.01556396 -0.2574472
vn -0.966167 -0.01556396 -0.2574472
vn -0.966167 -0.01556396 -0.2574472
vn -0.966167 -0.01556396 -0.2574472
vn -0.9938575 0.110668 0
vn -0.9968457 0.0793635 0
vn -0.9968457 0.0793635 0
vn -0.9978358 0.04777354 0.0451813
vn -0.9978358 0.04777354 0.0451813
vn -0.07940626 -0.9968423 0
vn -0.07940626 -0.9968423 0
vn -0.07940626 -0.9968423 0
vn -0.07940626 -0.9968423 0
vn 0.07890141 -0.1422389 -0.9866827
vn 0.1105702 -0.1739076 -0.9785348
vn 0.07890141 -0.1422389 -0.9866827
vn 0.04723269 -0.07890141 -0.9957628
vn 0.04723269 -0.07890141 -0.9957628
vn 0.04723269 -0.01556396 -0.9987627
vn 0.04723269 -0.01556396 -0.9987627
vn 0.997295 -0.04723269 -0.05631889
vn 0.997295 -0.04723269 -0.05631889
vn 0.997295 -0.04723269 -0.05631889
vn 0.997295 -0.04723269 -0.05631889
vn -0.07944232 0.1744485 0.9814564
vn -0.07944232 0.1744485 0.9814564
vn -0.07944232 0.1744485 0.9814564
vn -0.07944232 0.1744485 0.9814564
vn -0.5228047 -0.4272576 0.7376491
vn -0.4911359 -0.4272576 0.7591024
vn -0.5228047 -0.4272576 0.7376491
vn -0.5544735 -0.3955889 0.7321671
vn -0.5544735 -0.3955889 0.7321671
vn -0.5861421 -0.3639201 0.7238781
vn -0.5861421 -0.3639201 0.7238781
vn -0.07940626 -0.9968423 0
vn -0.07940626 -0.9968423 0
vn -0.07940626 -0.9968423 0
vn -0.07940626 -0.9968423 0
vn 0.9022887 0.3011234 0.3085445
vn 0.9022887 0.3011234 0.3085445
vn 0.9022887 0.3011234 0.3085445
vn 0.9022887 0.3011234 0.3085445
vn 0.4589263 0.2694548 -0.8466291
vn 0.4589263 0.2694548 -0.8466291
vn 0.4589263 0.2694548 -0.8466291
vn 0.4589263 0.2694548 -0.8466291
vn -0.9344984 -0.2372451 -0.2653819
vn -0.9344984 -0.2372451 -0.2653819
vn -0.9344984 -0.2372451 -0.2653819
vn -0.9344984 -0.2372451 -0.2653819
vn 0.9339575 0.04777354 -0.3541767
vn 0.9339575 0.04777354 -0.3541767
vn 0.9339575 0.04777354 -0.3541767
vn 0.9339575 0.04777354 -0.3541767
vn -0.364461 0.111111 -0.9245661
vn -0.364461 0.111111 -0.9245661
vn -0.364461 0.111111 -0.9245661
vn -0.364461 0.111111 -0.9245661
vn -0.8711608 -0.1105702 0.4783859
vn -0.8711608 -0.1105702 0.4783859
vn -0.8711608 -0.1105702 0.4783859
vn -0.8711608 -0.1105702 0.4783859
vn 0.3955889 -0.1739076 0.9018124
vn 0.3955889 -0.1739076 0.9018124
vn 0.3955889 -0.1739076 0.9018124
vn 0.3955889 -0.1739076 0.9018124
vn 0.9339575 0.1427798 0.3276238
vn 0.9339575 0.1427798 0.3276238
vn 0.9339575 0.1427798 0.3276238
vn 0.9339575 0.1427798 0.3276238
vn 0.996885 -0.07886898 0
vn 0.996885 -0.07886898 0
vn 0.996885 -0.07886898 0
vn 0.996885 -0.07886898 0
vn -0.9978358 0.04777354 -0.0451813
vn -0.9978358 0.04777354 -0.0451813
vn -0.9978358 0.04777354 -0.0451813
vn -0.9978358 0.04777354 -0.0451813
vn -0.04777354 0.07944232 0.995694
vn -0.04777354 0.07944232 0.995694
vn -0.04777354 0.07944232 0.995694
vn -0.04777354 0.07944232 0.995694
vn -0.8078234 -0.3955889 -0.4369563
vn -0.8078234 -0.3955889 -0.4369563
vn -0.8078234 -0.3955889 -0.4369563
vn -0.8078234 -0.3955889 -0.4369563
vn 0.4272576 0.4594672 -0.7786788
vn 0.4272576 0.4594672 -0.7786788
vn 0.4272576 0.4594672 -0.7786788
vn 0.4272576 0.4594672 -0.7786788
vn 0.6489388 0.5228047 0.5527691
vn 0.6489388 0.5228047 0.5527691
vn 0.6489388 0.5228047 0.5527691
vn 0.6489388 0.5228047 0.5527691
g SM_Env_Grass_Tuft_01_0
f 3/3/3 2/2/2 1/1/1
f 6/6/6 5/5/5 4/4/4
f 9/9/9 8/8/8 7/7/7
f 12/12/12 11/11/11 10/10/10
f 15/15/15 14/14/14 13/13/13
f 18/18/18 17/17/17 16/16/16
f 21/21/21 20/20/20 19/19/19
f 24/24/24 23/23/23 22/22/22
f 27/27/27 26/26/26 25/25/25
f 30/30/30 29/29/29 28/28/28
f 33/33/33 32/32/32 31/31/31
f 33/33/33 34/34/34 32/32/32
f 37/37/37 36/36/36 35/35/35
f 38/38/38 37/37/37 35/35/35
f 39/39/39 38/38/38 35/35/35
f 42/42/42 41/41/41 40/40/40
f 43/43/43 42/42/42 40/40/40
f 46/46/46 45/45/45 44/44/44
f 47/47/47 46/46/46 44/44/44
f 50/50/50 49/49/49 48/48/48
f 51/51/51 50/50/50 48/48/48
f 54/54/54 53/53/53 52/52/52
f 54/54/54 55/55/55 53/53/53
f 55/55/55 56/56/56 53/53/53
f 59/59/59 58/58/58 57/57/57
f 59/59/59 60/60/60 58/58/58
f 63/63/63 62/62/62 61/61/61
f 64/64/64 63/63/63 61/61/61
f 65/65/65 64/64/64 61/61/61
f 65/65/65 66/66/66 64/64/64
f 66/66/66 67/67/67 64/64/64
f 70/70/70 69/69/69 68/68/68
f 71/71/71 70/70/70 68/68/68
f 74/74/74 73/73/73 72/72/72
f 73/73/73 75/75/75 72/72/72
f 73/73/73 76/76/76 75/75/75
f 76/76/76 77/77/77 75/75/75
f 80/80/80 79/79/79 78/78/78
f 81/81/81 80/80/80 78/78/78
f 84/84/84 83/83/83 82/82/82
f 83/83/83 84/84/84 85/85/85
f 84/84/84 86/86/86 85/85/85
f 89/89/89 88/88/88 87/87/87
f 89/89/89 90/90/90 88/88/88
f 93/93/93 92/92/92 91/91/91
f 93/93/93 91/91/91 94/94/94
f 95/95/95 93/93/93 94/94/94
f 95/95/95 94/94/94 96/96/96
f 97/97/97 95/95/95 96/96/96
f 100/100/100 99/99/99 98/98/98
f 101/101/101 100/100/100 98/98/98
f 104/104/104 103/103/103 102/102/102
f 105/105/105 104/104/104 102/102/102
f 108/108/108 107/107/107 106/106/106
f 108/108/108 106/106/106 109/109/109
f 110/110/110 108/108/108 109/109/109
f 110/110/110 109/109/109 111/111/111
f 112/112/112 110/110/110 111/111/111
f 115/115/115 114/114/114 113/113/113
f 115/115/115 116/116/116 114/114/114
f 119/119/119 118/118/118 117/117/117
f 120/120/120 119/119/119 117/117/117
f 123/123/123 122/122/122 121/121/121
f 124/124/124 123/123/123 121/121/121
f 127/127/127 126/126/126 125/125/125
f 128/128/128 127/127/127 125/125/125
f 131/131/131 130/130/130 129/129/129
f 132/132/132 131/131/131 129/129/129
f 135/135/135 134/134/134 133/133/133
f 136/136/136 135/135/135 133/133/133
f 139/139/139 138/138/138 137/137/137
f 140/140/140 139/139/139 137/137/137
f 143/143/143 142/142/142 141/141/141
f 144/144/144 143/143/143 141/141/141
f 147/147/147 146/146/146 145/145/145
f 148/148/148 147/147/147 145/145/145
f 151/151/151 150/150/150 149/149/149
f 152/152/152 151/151/151 149/149/149
f 155/155/155 154/154/154 153/153/153
f 156/156/156 155/155/155 153/153/153
f 159/159/159 158/158/158 157/157/157
f 160/160/160 159/159/159 157/157/157
f 163/163/163 162/162/162 161/161/161
f 164/164/164 163/163/163 161/161/161
f 167/167/167 166/166/166 165/165/165
f 168/168/168 167/167/167 165/165/165
f 171/171/171 170/170/170 169/169/169
f 172/172/172 171/171/171 169/169/169
