g SM_Env_Grass_Tuft_03
v 0.0836499 0.1869793 0.06563741
v 0.1571904 0.2355161 0.1082909
v 0.1160077 0.1766836 0.03327957
v 0.1571904 0.2355161 0.1082909
v 0.06673557 0.2163955 0.05240011
v 0.09835801 0.2060998 0.02004227
v 0.1160077 0.1766836 0.03327957
v 0.1571904 0.2355161 0.1082909
v 0.09835801 0.2060998 0.02004227
v 0.06673557 0.2163955 0.05240011
v 0.1571904 0.2355161 0.1082909
v 0.0836499 0.1869793 0.06563741
v -0.08181635 0.2914069 0.111968
v -0.05166471 0.3340604 0.2509596
v -0.09284741 0.2730217 0.1494736
v -0.09284741 0.2730217 0.1494736
v -0.05166471 0.3340604 0.2509596
v -0.03916281 0.2693447 0.1582985
v -0.02813172 0.2877299 0.1207928
v -0.05166471 0.3340604 0.2509596
v -0.08181635 0.2914069 0.111968
v 0.04982126 0.3848034 -0.2263186
v 0.08953314 0.4201029 -0.3322169
v 0.08879773 0.3752431 -0.2255832
v 0.08953314 0.4201029 -0.3322169
v 0.02922988 0.353181 -0.2491161
v 0.0689418 0.3443561 -0.2483807
v 0.08879773 0.3752431 -0.2255832
v 0.08953314 0.4201029 -0.3322169
v 0.0689418 0.3443561 -0.2483807
v 0.02922988 0.353181 -0.2491161
v 0.08953314 0.4201029 -0.3322169
v 0.04982126 0.3848034 -0.2263186
v -0.04798767 -0.01819882 -0.02187583
v 0.002019882 -0.01672801 0.001657128
v 0.01231557 -0.01672801 -0.06085232
v 0.02628827 -0.01599258 -0.01599258
v 0.002019882 -0.01672801 0.001657128
v 0.03879017 0.1200574 0.01562983
v 0.06820637 0.1149096 -0.01378638
v 0.02628827 -0.01599258 -0.01599258
v 0.02628827 -0.01599258 -0.01599258
v 0.06820637 0.1149096 -0.01378638
v 0.05129206 0.1377071 -0.03879017
v 0.01231557 -0.01672801 -0.06085232
v 0.05129206 0.1377071 -0.03879017
v 0.09835801 0.2060998 0.02004227
v 0.06673557 0.2163955 0.05240011
v 0.004226118 0.150209 0.006069571
v 0.03879017 0.1200574 0.01562983
v 0.002019882 -0.01672801 0.001657128
v -0.04798767 -0.01819882 -0.02187583
v 0.004226118 0.150209 0.006069571
v -0.04798767 -0.01819882 -0.02187583
v 0.01231557 -0.01672801 -0.06085232
v 0.05129206 0.1377071 -0.03879017
v 0.004226118 0.150209 0.006069571
v 0.06820637 0.1149096 -0.01378638
v 0.1160077 0.1766836 0.03327957
v 0.09835801 0.2060998 0.02004227
v 0.05129206 0.1377071 -0.03879017
v 0.03879017 0.1200574 0.01562983
v 0.0836499 0.1869793 0.06563741
v 0.1160077 0.1766836 0.03327957
v 0.06820637 0.1149096 -0.01378638
v 0.06673557 0.2163955 0.05240011
v 0.0836499 0.1869793 0.06563741
v 0.03879017 0.1200574 0.01562983
v 0.004226118 0.150209 0.006069571
v -0.05166471 0.3340604 0.2509596
v -0.02813172 0.2877299 0.1207928
v -0.03916281 0.2693447 0.1582985
v -0.03107336 0.1590339 0.07225606
v -0.01562983 0.1840377 0.01930687
v -0.02298391 -0.01746342 0.03401497
v -0.006804973 -0.01672801 -0.04687962
v -0.006804973 -0.01672801 -0.04687962
v -0.05313551 -0.01746342 -0.0557045
v -0.02298391 -0.01746342 0.03401497
v -0.06931445 -0.01819882 0.02519011
v -0.08181635 0.2914069 0.111968
v -0.09284741 0.2730217 0.1494736
v -0.0913766 0.1605047 0.0619604
v -0.07813931 0.1877147 0.009746611
v -0.0913766 0.1605047 0.0619604
v -0.09284741 0.2730217 0.1494736
v -0.03916281 0.2693447 0.1582985
v -0.03107336 0.1590339 0.07225606
v -0.07813931 0.1877147 0.009746611
v -0.05313551 -0.01746342 -0.0557045
v -0.006804973 -0.01672801 -0.04687962
v -0.01562983 0.1840377 0.01930687
v -0.02813172 0.2877299 0.1207928
v -0.08181635 0.2914069 0.111968
v -0.07813931 0.1877147 0.009746611
v -0.01562983 0.1840377 0.01930687
v -0.0913766 0.1605047 0.0619604
v -0.06931445 -0.01819882 0.02519011
v -0.05313551 -0.01746342 -0.0557045
v -0.07813931 0.1877147 0.009746611
v -0.06931445 -0.01819882 0.02519011
v -0.0913766 0.1605047 0.0619604
v -0.03107336 0.1590339 0.07225606
v -0.02298391 -0.01746342 0.03401497
v 0.006432325 -0.01746342 -0.07261881
v -0.05313551 -0.01819882 -0.05276287
v 0.01231557 -0.01672801 -0.03879017
v -0.04725227 -0.01746342 -0.01893422
v 0.04982126 0.3848034 -0.2263186
v 0.08879773 0.3752431 -0.2255832
v 0.06673557 0.2296328 -0.1270388
v 0.004226118 0.2369869 -0.1248326
v 0.08879773 0.3752431 -0.2255832
v 0.0689418 0.3443561 -0.2483807
v 0.05202746 0.2097769 -0.1608675
v 0.06673557 0.2296328 -0.1270388
v 0.01231557 -0.01672801 -0.03879017
v 0.006432325 -0.01746342 -0.07261881
v 0.02922988 0.353181 -0.2491161
v -0.01121742 0.2163955 -0.1579258
v 0.05202746 0.2097769 -0.1608675
v 0.0689418 0.3443561 -0.2483807
v -0.01121742 0.2163955 -0.1579258
v 0.02922988 0.353181 -0.2491161
v 0.04982126 0.3848034 -0.2263186
v 0.004226118 0.2369869 -0.1248326
v -0.01121742 0.2163955 -0.1579258
v -0.05313551 -0.01819882 -0.05276287
v 0.006432325 -0.01746342 -0.07261881
v 0.05202746 0.2097769 -0.1608675
v -0.05313551 -0.01819882 -0.05276287
v -0.01121742 0.2163955 -0.1579258
v 0.004226118 0.2369869 -0.1248326
v -0.04725227 -0.01746342 -0.01893422
v 0.06673557 0.2296328 -0.1270388
v 0.01231557 -0.01672801 -0.03879017
v -0.04725227 -0.01746342 -0.01893422
v 0.004226118 0.2369869 -0.1248326
vt 0.1770159 0.2985183
vt 0.1770159 0.2985183
vt 0.1770159 0.2985183
vt 0.1770159 0.2985183
vt 0.1770159 0.2985183
vt 0.1770159 0.2985183
vt 0.1770159 0.2985183
vt 0.1770159 0.2985183
vt 0.1770159 0.2985183
vt 0.1770159 0.2985183
vt 0.1770159 0.2985183
vt 0.1770159 0.2985183
vt 0.1770159 0.2985183
vt 0.1770159 0.2985183
vt 0.1770159 0.2985183
vt 0.1770159 0.2985183
vt 0.1770159 0.2985183
vt 0.1770159 0.2985183
vt 0.1770159 0.2985183
vt 0.1770159 0.2985183
vt 0.1770159 0.2985183
vt 0.1770159 0.2985183
vt 0.1770159 0.2985183
vt 0.1770159 0.2985183
vt 0.1770159 0.2985183
vt 0.1770159 0.2985183
vt 0.1770159 0.2985183
vt 0.1770159 0.2985183
vt 0.1770159 0.2985183
vt 0.1770159 0.2985183
vt 0.1770159 0.2985183
vt 0.1770159 0.2985183
vt 0.1770159 0.2985183
vt 0.1770159 0.2985183
vt 0.1770159 0.2985183
vt 0.1770159 0.2985183
vt 0.1770159 0.2985183
vt 0.1770159 0.2985183
vt 0.1770159 0.2985183
vt 0.1770159 0.2985183
vt 0.1770159 0.2985183
vt 0.1770159 0.2985183
vt 0.1770159 0.2985183
vt 0.1770159 0.2985183
vt 0.1770159 0.2985183
vt 0.1770159 0.2985183
vt 0.1770159 0.2985183
vt 0.1770159 0.2985183
vt 0.1770159 0.2985183
vt 0.1770159 0.2985183
vt 0.1770159 0.2985183
vt 0.1770159 0.2985183
vt 0.1770159 0.2985183
vt 0.1770159 0.2985183
vt 0.1770159 0.2985183
vt 0.1770159 0.2985183
vt 0.1770159 0.2985183
vt 0.1770159 0.2985183
vt 0.1770159 0.2985183
vt 0.1770159 0.2985183
vt 0.1770159 0.2985183
vt 0.1770159 0.2985183
vt 0.1770159 0.2985183
vt 0.1770159 0.2985183
vt 0.1770159 0.2985183
vt 0.1770159 0.2985183
vt 0.1770159 0.2985183
vt 0.1770159 0.2985183
vt 0.1770159 0.2985183
vt 0.1770159 0.2985183
vt 0.1770159 0.2985183
vt 0.1770159 0.2985183
vt 0.1770159 0.2985183
vt 0.1770159 0.2985183
vt 0.1770159 0.2985183
vt 0.1770159 0.2985183
vt 0.1770159 0.2985183
vt 0.1770159 0.2985183
vt 0.1770159 0.2985183
vt 0.1770159 0.2985183
vt 0.1770159 0.2985183
vt 0.1770159 0.2985183
vt 0.1770159 0.2985183
vt 0.1770159 0.2985183
vt 0.1770159 0.2985183
vt 0.1770159 0.2985183
vt 0.1770159 0.2985183
vt 0.1770159 0.2985183
vt 0.1770159 0.2985183
vt 0.1770159 0.2985183
vt 0.1770159 0.2985183
vt 0.1770159 0.2985183
vt 0.1770159 0.2985183
vt 0.1770159 0.2985183
vt 0.1770159 0.2985183
vt 0.1770159 0.2985183
vt 0.1770159 0.2985183
vt 0.1770159 0.2985183
vt 0.1770159 0.2985183
vt 0.1770159 0.2985183
vt 0.1770159 0.2985183
vt 0.1770159 0.2985183
vt 0.1770159 0.2985183
vt 0.1770159 0.2985183
vt 0.1770159 0.2985183
vt 0.1770159 0.2985183
vt 0.1770159 0.2985183
vt 0.1770159 0.2985183
vt 0.1770159 0.2985183
vt 0.1770159 0.2985183
vt 0.1770159 0.2985183
vt 0.1770159 0.2985183
vt 0.1770159 0.2985183
vt 0.1770159 0.2985183
vt 0.1770159 0.2985183
vt 0.1770159 0.2985183
vt 0.1770159 0.2985183
vt 0.1770159 0.2985183
vt 0.1770159 0.2985183
vt 0.1770159 0.2985183
vt 0.1770159 0.2985183
vt 0.1770159 0.2985183
vt 0.1770159 0.2985183
vt 0.1770159 0.2985183
vt 0.1770159 0.2985183
vt 0.1770159 0.2985183
vt 0.1770159 0.2985183
vt 0.1770159 0.2985183
vt 0.1770159 0.2985183
vt 0.1770159 0.2985183
vt 0.1770159 0.2985183
vt 0.1770159 0.2985183
vt 0.1770159 0.2985183
vt 0.1770159 0.2985183
vt 0.1770159 0.2985183
vt 0.1770159 0.2985183
vt 0.1770159 0.2985183
vt 0.1770159 0.2985183
vn 0.2487583 -0.8121186 0.5278093
vn 0.2487583 -0.8121186 0.5278093
vn 0.2487583 -0.8121186 0.5278093
vn -0.001624227 0.9405582 -0.3396288
vn -0.001624227 0.9405582 -0.3396288
vn -0.001624227 0.9405582 -0.3396288
vn 0.7808208 0.189411 -0.5953506
vn 0.7808208 0.189411 -0.5953506
vn 0.7808208 0.189411 -0.5953506
vn -0.5336868 0.06421983 0.8432404
vn -0.5336868 0.06421983 0.8432404
vn -0.5336868 0.06421983 0.8432404
vn -0.8459617 0.5332436 0
vn -0.8459617 0.5332436 0
vn -0.8459617 0.5332436 0
vn -0.1268154 -0.8121186 0.5695447
vn -0.1268154 -0.8121186 0.5695447
vn -0.1268154 -0.8121186 0.5695447
vn 0.09226924 0.9405582 -0.3268588
vn 0.09226924 0.9405582 -0.3268588
vn 0.09226924 0.9405582 -0.3268588
vn 0.2174605 0.9092604 0.3549035
vn 0.2174605 0.9092604 0.3549035
vn 0.2174605 0.9092604 0.3549035
vn -0.1581132 -0.7182252 -0.6776081
vn -0.1581132 -0.7182252 -0.6776081
vn -0.1581132 -0.7182252 -0.6776081
vn 0.8747143 -0.436545 -0.2104838
vn 0.8747143 -0.436545 -0.2104838
vn 0.8747143 -0.436545 -0.2104838
vn -0.8071849 0.5902988 0
vn -0.8071849 0.5902988 0
vn -0.8071849 0.5902988 0
vn 0.02966338 -0.9995601 0
vn 0.02966338 -0.9995601 0
vn 0.02966338 -0.9995601 0
vn 0.02966338 -0.9995601 0
vn 0.6243318 -0.2174605 0.7502804
vn 0.6243318 -0.2174605 0.7502804
vn 0.6243318 -0.2174605 0.7502804
vn 0.6243318 -0.2174605 0.7502804
vn 0.8747143 -0.2174605 -0.4331119
vn 0.8747143 -0.2174605 -0.4331119
vn 0.8747143 -0.2174605 -0.4331119
vn 0.8747143 -0.2174605 -0.4331119
vn -0.3458999 0.7527714 -0.560079
vn -0.3458999 0.7527714 -0.560079
vn -0.3458999 0.7527714 -0.560079
vn -0.3458999 0.7527714 -0.560079
vn -0.3771977 -0.02967364 0.9256572
vn -0.3771977 -0.02967364 0.9256572
vn -0.3771977 -0.02967364 0.9256572
vn -0.3771977 -0.02967364 0.9256572
vn -0.5649846 0.2833043 -0.7749394
vn -0.5649846 0.2833043 -0.7749394
vn -0.5649846 0.2833043 -0.7749394
vn -0.5649846 0.2833043 -0.7749394
vn 0.749523 0.001624227 -0.6619762
vn 0.749523 0.001624227 -0.6619762
vn 0.749523 0.001624227 -0.6619762
vn 0.749523 0.001624227 -0.6619762
vn 0.4052472 -0.7182252 0.5656211
vn 0.4052472 -0.7182252 0.5656211
vn 0.4052472 -0.7182252 0.5656211
vn 0.4052472 -0.7182252 0.5656211
vn -0.5336868 -0.1548648 0.8313816
vn -0.5336868 -0.1548648 0.8313816
vn -0.5336868 -0.1548648 0.8313816
vn -0.5336868 -0.1548648 0.8313816
vn 0.9686077 -0.123567 0.215709
vn 0.9686077 -0.123567 0.215709
vn 0.9686077 -0.123567 0.215709
vn 0.9686077 -0.06097144 0.2410014
vn 0.9686077 -0.06097144 0.2410014
vn 0.9686077 -0.02967364 0.246817
vn 0.9686077 -0.02967364 0.246817
vn 0.02966338 -0.9995601 0
vn 0.02966338 -0.9995601 0
vn 0.02966338 -0.9995601 0
vn 0.02966338 -0.9995601 0
vn -0.971856 0.1581132 -0.1746314
vn -0.971856 0.1581132 -0.1746314
vn -0.971856 0.1581132 -0.1746314
vn -0.971856 0.1581132 -0.1746314
vn -0.1581132 -0.6243318 0.7649902
vn -0.1581132 -0.6243318 0.7649902
vn -0.1581132 -0.6243318 0.7649902
vn -0.1581132 -0.6243318 0.7649902
vn 0.1548648 0.3146021 -0.9365054
vn 0.1548648 0.3146021 -0.9365054
vn 0.1548648 0.3146021 -0.9365054
vn 0.1548648 0.3146021 -0.9365054
vn 0.1548648 0.6901758 -0.7068765
vn 0.1548648 0.6901758 -0.7068765
vn 0.1548648 0.6901758 -0.7068765
vn 0.1548648 0.6901758 -0.7068765
vn -0.971856 -0.06097144 -0.2275487
vn -0.971856 -0.06097144 -0.2275487
vn -0.971856 -0.06097144 -0.2275487
vn -0.971856 -0.06097144 -0.2275487
vn -0.1581132 -0.2174605 0.9631776
vn -0.1581132 -0.2174605 0.9631776
vn -0.1581132 -0.2174605 0.9631776
vn -0.1581132 -0.2174605 0.9631776
vn -0.001624227 -0.9999055 0.01365442
vn -0.001624227 -0.9999055 0.01365442
vn -0.001624227 -0.9999055 0.01365442
vn -0.001624227 -0.9999055 0.01365442
vn 0.09226924 0.5336868 0.8406336
vn 0.09226924 0.5336868 0.8406336
vn 0.09226924 0.5336868 0.8406336
vn 0.09226924 0.5336868 0.8406336
vn 0.9060121 -0.3113539 -0.2867071
vn 0.9060121 -0.3113539 -0.2867071
vn 0.9373099 -0.2800561 -0.2074099
vn 0.9373099 -0.2800561 -0.2074099
vn 0.9373099 -0.2800561 -0.2074099
vn 0.9373099 -0.2800561 -0.2074099
vn -0.09551764 -0.5304384 -0.842325
vn -0.09551764 -0.5304384 -0.842325
vn -0.09551764 -0.5304384 -0.842325
vn -0.09551764 -0.5304384 -0.842325
vn -0.9092604 0.4084955 0.07985573
vn -0.9092604 0.4084955 0.07985573
vn -0.9092604 0.4084955 0.07985573
vn -0.9092604 0.4084955 0.07985573
vn -0.189411 -0.3426517 -0.9201702
vn -0.189411 -0.3426517 -0.9201702
vn -0.189411 -0.3426517 -0.9201702
vn -0.189411 -0.3426517 -0.9201702
vn -0.9405582 0.2833043 0.1873205
vn -0.9405582 0.2833043 0.1873205
vn -0.9405582 0.2833043 0.1873205
vn -0.9405582 0.2833043 0.1873205
vn 0.1861627 0.3146021 0.9307894
vn 0.1861627 0.3146021 0.9307894
vn 0.1861627 0.3146021 0.9307894
vn 0.1861627 0.3146021 0.9307894
g SM_Env_Grass_Tuft_03_0
f 3/3/3 2/2/2 1/1/1
f 6/6/6 5/5/5 4/4/4
f 9/9/9 8/8/8 7/7/7
f 12/12/12 11/11/11 10/10/10
f 15/15/15 14/14/14 13/13/13
f 18/18/18 17/17/17 16/16/16
f 21/21/21 20/20/20 19/19/19
f 24/24/24 23/23/23 22/22/22
f 27/27/27 26/26/26 25/25/25
f 30/30/30 29/29/29 28/28/28
f 33/33/33 32/32/32 31/31/31
f 36/36/36 35/35/35 34/34/34
f 36/36/36 37/37/37 35/35/35
f 40/40/40 39/39/39 38/38/38
f 41/41/41 40/40/40 38/38/38
f 44/44/44 43/43/43 42/42/42
f 45/45/45 44/44/44 42/42/42
f 48/48/48 47/47/47 46/46/46
f 49/49/49 48/48/48 46/46/46
f 52/52/52 51/51/51 50/50/50
f 53/53/53 52/52/52 50/50/50
f 56/56/56 55/55/55 54/54/54
f 57/57/57 56/56/56 54/54/54
f 60/60/60 59/59/59 58/58/58
f 61/61/61 60/60/60 58/58/58
f 64/64/64 63/63/63 62/62/62
f 65/65/65 64/64/64 62/62/62
f 68/68/68 67/67/67 66/66/66
f 69/69/69 68/68/68 66/66/66
f 72/72/72 71/71/71 70/70/70
f 72/72/72 73/73/73 71/71/71
f 73/73/73 74/74/74 71/71/71
f 73/73/73 75/75/75 74/74/74
f 75/75/75 76/76/76 74/74/74
f 79/79/79 78/78/78 77/77/77
f 79/79/79 80/80/80 78/78/78
f 83/83/83 82/82/82 81/81/81
f 84/84/84 83/83/83 81/81/81
f 87/87/87 86/86/86 85/85/85
f 88/88/88 87/87/87 85/85/85
f 91/91/91 90/90/90 89/89/89
f 92/92/92 91/91/91 89/89/89
f 95/95/95 94/94/94 93/93/93
f 96/96/96 95/95/95 93/93/93
f 99/99/99 98/98/98 97/97/97
f 100/100/100 99/99/99 97/97/97
f 103/103/103 102/102/102 101/101/101
f 104/104/104 103/103/103 101/101/101
f 107/107/107 106/106/106 105/105/105
f 107/107/107 108/108/108 106/106/106
f 111/111/111 110/110/110 109/109/109
f 112/112/112 111/111/111 109/109/109
f 115/115/115 114/114/114 113/113/113
f 116/116/116 115/115/115 113/113/113
f 116/116/116 117/117/117 115/115/115
f 117/117/117 118/118/118 115/115/115
f 121/121/121 120/120/120 119/119/119
f 122/122/122 121/121/121 119/119/119
f 125/125/125 124/124/124 123/123/123
f 126/126/126 125/125/125 123/123/123
f 129/129/129 128/128/128 127/127/127
f 130/130/130 129/129/129 127/127/127
f 133/133/133 132/132/132 131/131/131
f 134/134/134 133/133/133 131/131/131
f 137/137/137 136/136/136 135/135/135
f 138/138/138 137/137/137 135/135/135
