g SM_Env_GrassBlob_02
v 0.2238907 0.08879858 0.07474512
v 0.1729469 0.0009645224 -0.1272732
v 0.6823845 -0.0007922053 0.09758198
v -0.03258479 0.07298845 -0.1184898
v 0.01660234 -0.03065574 -0.5875237
v 0.1729469 0.0009645224 -0.1272732
v -0.1625792 -0.01660234 -0.2186207
v 0.01660234 -0.03065574 -0.5875237
v -0.03258479 0.07298845 -0.1184898
v -0.1625792 -0.01660234 -0.2186207
v -0.2644667 0.06244832 0.07474512
v -0.9741659 -0.0007922053 0.09758198
v 0.6700877 -0.0007922053 0.2082529
v 0.2238907 0.08879858 0.07474512
v 0.6823845 -0.0007922053 0.09758198
v 0.2238907 0.08879858 0.07474512
v 0.002548873 -0.0007922053 0.2082529
v -0.2644667 0.06244832 0.07474512
v -0.03258479 0.07298845 -0.1184898
v 0.2238907 0.08879858 0.07474512
v -0.2644667 0.06244832 0.07474512
v 0.2238907 0.08879858 0.07474512
v -0.03258479 0.07298845 -0.1184898
v 0.1729469 0.0009645224 -0.1272732
v -0.1625792 -0.01660234 -0.2186207
v -0.03258479 0.07298845 -0.1184898
v -0.2644667 0.06244832 0.07474512
v 0.6700877 -0.0007922053 0.2082529
v 0.3205082 -0.0007922053 0.2082529
v 0.2238907 0.08879858 0.07474512
v 0.002548873 -0.0007922053 0.2082529
v 0.002548873 -0.0007922053 0.2082529
v -1.1147 -0.0007922053 0.2082529
v -0.9741659 -0.0007922053 0.09758198
v -0.2644667 0.06244832 0.07474512
vt 0.1768402 0.2766268
vt 0.1768402 0.2766268
vt 0.1768402 0.2766268
vt 0.1768402 0.2766268
vt 0.1768402 0.2766268
vt 0.1768402 0.2766268
vt 0.1768402 0.2766268
vt 0.1768402 0.2766268
vt 0.1768402 0.2766268
vt 0.1768402 0.2766268
vt 0.1768402 0.2766268
vt 0.1768402 0.2766268
vt 0.1768402 0.2766268
vt 0.1768402 0.2766268
vt 0.1768402 0.2766268
vt 0.1768402 0.2766268
vt 0.1768402 0.2766268
vt 0.1768402 0.2766268
vt 0.1768402 0.2766268
vt 0.1768402 0.2766268
vt 0.1768402 0.2766268
vt 0.1768402 0.2766268
vt 0.1768402 0.2766268
vt 0.1768402 0.2766268
vt 0.1768402 0.2766268
vt 0.1768402 0.2766268
vt 0.1768402 0.2766268
vt 0.1768402 0.2766268
vt 0.1768402 0.2766268
vt 0.1768402 0.2766268
vt 0.1768402 0.2766268
vt 0.1768402 0.2766268
vt 0.1768402 0.2766268
vt 0.1768402 0.2766268
vt 0.1768402 0.2766268
vn 0.1927328 0.8729421 -0.4481362
vn 0.1927328 0.8729421 -0.4481362
vn 0.1927328 0.8729421 -0.4481362
vn 0.3181064 0.9356288 -0.1529936
vn 0.3181064 0.9356288 -0.1529936
vn 0.3181064 0.9356288 -0.1529936
vn -0.4132392 0.8729421 -0.2592401
vn -0.4132392 0.8729421 -0.2592401
vn -0.4132392 0.8729421 -0.2592401
vn -0.09980538 0.9565244 -0.2740436
vn -0.09980538 0.9565244 -0.2740436
vn -0.09980538 0.9565244 -0.2740436
vn 0.1927328 0.97742 0.08662624
vn 0.1927328 0.97742 0.08662624
vn 0.1927328 0.97742 0.08662624
vn -0.05801421 0.8729421 0.4843618
vn -0.05801421 0.8729421 0.4843618
vn -0.05801421 0.8729421 0.4843618
vn -0.05801421 0.9983156 -0.0004882813
vn -0.05801421 0.9983156 -0.0004882813
vn -0.05801421 0.9983156 -0.0004882813
vn 0.2763152 0.8520465 -0.4445971
vn 0.2763152 0.8520465 -0.4445971
vn 0.2763152 0.8520465 -0.4445971
vn -0.3296568 0.8729421 -0.3595808
vn -0.3296568 0.8729421 -0.3595808
vn -0.3296568 0.8729421 -0.3595808
vn 0.004672557 0.8311509 0.5560272
vn 0.004672557 0.8311509 0.5560272
vn 0.004672557 0.8311509 0.5560272
vn 0.004672557 0.8311509 0.5560272
vn -0.03711861 0.9565244 0.2892805
vn -0.03711861 0.9565244 0.2892805
vn -0.03711861 0.9565244 0.2892805
vn -0.03711861 0.9565244 0.2892805
g SM_Env_GrassBlob_02_0
f 3/3/3 2/2/2 1/1/1
f 6/6/6 5/5/5 4/4/4
f 9/9/9 8/8/8 7/7/7
f 12/12/12 11/11/11 10/10/10
f 15/15/15 14/14/14 13/13/13
f 18/18/18 17/17/17 16/16/16
f 21/21/21 20/20/20 19/19/19
f 24/24/24 23/23/23 22/22/22
f 27/27/27 26/26/26 25/25/25
f 30/30/30 29/29/29 28/28/28
f 29/29/29 30/30/30 31/31/31
f 34/34/34 33/33/33 32/32/32
f 35/35/35 34/34/34 32/32/32
