g SM_Env_Grass_Tuft_02
v 0.08742237 0.2724754 -0.08435941
v 0.07976497 0.3510913 -0.1348982
v 0.06496067 0.2597131 -0.08691188
v 0.07976497 0.3510913 -0.1348982
v 0.09661125 0.2796223 -0.04862488
v 0.05117735 0.2689019 -0.04862488
v 0.09661125 0.2796223 -0.04862488
v 0.07976497 0.3510913 -0.1348982
v 0.08742237 0.2724754 -0.08435941
v 0.06496067 0.2724754 0.1188169
v 0.09967421 0.341392 0.1611878
v 0.08435941 0.2673705 0.09635518
v 0.09967421 0.341392 0.1611878
v 0.04147798 0.2913636 0.1060546
v 0.06138722 0.2862587 0.08359288
v 0.08435941 0.2673705 0.09635518
v 0.09967421 0.341392 0.1611878
v 0.06138722 0.2862587 0.08359288
v 0.04147798 0.2913636 0.1060546
v 0.09967421 0.341392 0.1611878
v 0.06496067 0.2724754 0.1188169
v -0.05398425 0.2392933 -0.1068211
v -0.1474045 0.3551753 -0.1670593
v -0.09176077 0.2372513 -0.07517053
v -0.1474045 0.3551753 -0.1670593
v -0.02284417 0.2551186 -0.08129645
v -0.06062067 0.2530766 -0.04913538
v -0.02284417 0.2551186 -0.08129645
v -0.1474045 0.3551753 -0.1670593
v -0.05398425 0.2392933 -0.1068211
v 0.0930378 -0.01646382 0.03254354
v 0.07721251 -0.01646382 -0.02003726
v 0.02412121 -0.01646382 0.01161332
v 0.05168784 -0.01646382 -0.05015636
v 0.06496067 0.2597131 -0.08691188
v 0.07976497 0.3510913 -0.1348982
v 0.05117735 0.2689019 -0.04862488
v 0.0547508 0.1734397 -0.05730327
v 0.0317786 0.1662928 -0.001659513
v 0.05168784 -0.01646382 -0.05015636
v 0.02412121 -0.01646382 0.01161332
v 0.08742237 0.2724754 -0.08435941
v 0.06496067 0.2597131 -0.08691188
v 0.0547508 0.1734397 -0.05730327
v 0.08180694 0.1749711 -0.04096748
v 0.09559026 0.1678243 0.008550361
v 0.0317786 0.1662928 -0.001659513
v 0.05117735 0.2689019 -0.04862488
v 0.09661125 0.2796223 -0.04862488
v 0.09661125 0.2796223 -0.04862488
v 0.08742237 0.2724754 -0.08435941
v 0.08180694 0.1749711 -0.04096748
v 0.09559026 0.1678243 0.008550361
v 0.08180694 0.1749711 -0.04096748
v 0.0547508 0.1734397 -0.05730327
v 0.05168784 -0.01646382 -0.05015636
v 0.07721251 -0.01646382 -0.02003726
v 0.0930378 -0.01646382 0.03254354
v 0.02412121 -0.01646382 0.01161332
v 0.0317786 0.1662928 -0.001659513
v 0.09559026 0.1678243 0.008550361
v 0.08180694 0.1749711 -0.04096748
v 0.07721251 -0.01646382 -0.02003726
v 0.0930378 -0.01646382 0.03254354
v 0.09559026 0.1678243 0.008550361
v -0.01212381 -0.01646382 0.04530588
v 0.02565269 -0.01646382 0.06725708
v 0.04096748 -0.01646382 0.01671825
v 0.04658291 -0.01646382 0.05347377
v 0.03535207 0.186202 0.09227125
v 0.06496067 0.2724754 0.1188169
v 0.08435941 0.2673705 0.09635518
v 0.06291869 0.1816076 0.06470461
v 0.06291869 0.1816076 0.06470461
v 0.08435941 0.2673705 0.09635518
v 0.06138722 0.2862587 0.08359288
v 0.03637305 0.1953909 0.03764847
v -0.004466414 0.1984539 0.07134102
v 0.03637305 0.1953909 0.03764847
v 0.06138722 0.2862587 0.08359288
v 0.04147798 0.2913636 0.1060546
v 0.04147798 0.2913636 0.1060546
v 0.06496067 0.2724754 0.1188169
v 0.03535207 0.186202 0.09227125
v -0.004466414 0.1984539 0.07134102
v -0.01212381 -0.01646382 0.04530588
v 0.02565269 -0.01646382 0.06725708
v 0.02565269 -0.01646382 0.06725708
v 0.03535207 0.186202 0.09227125
v 0.06291869 0.1816076 0.06470461
v 0.04658291 -0.01646382 0.05347377
v 0.04658291 -0.01646382 0.05347377
v 0.06291869 0.1816076 0.06470461
v 0.03637305 0.1953909 0.03764847
v 0.04096748 -0.01646382 0.01671825
v -0.01212381 -0.01646382 0.04530588
v 0.04096748 -0.01646382 0.01671825
v 0.03637305 0.1953909 0.03764847
v -0.004466414 0.1984539 0.07134102
v 0.006253943 -0.01646382 0.06623609
v 0.04964587 -0.01646382 -0.02054776
v -0.05092131 -0.01646382 -0.0001280308
v 0.02054776 -0.01646382 -0.0317786
v -0.09176077 0.2372513 -0.07517053
v -0.1474045 0.3551753 -0.1670593
v -0.06062067 0.2530766 -0.04913538
v -0.06725708 0.1193274 -0.02616318
v -0.01824974 0.1167749 0.02233368
v -0.007018879 0.1280058 -0.06547116
v -0.05398425 0.2392933 -0.1068211
v -0.09176077 0.2372513 -0.07517053
v -0.06725708 0.1193274 -0.02616318
v 0.03075762 0.1382156 -0.03943601
v -0.01824974 0.1167749 0.02233368
v -0.06062067 0.2530766 -0.04913538
v -0.02284417 0.2551186 -0.08129645
v -0.02284417 0.2551186 -0.08129645
v -0.05398425 0.2392933 -0.1068211
v -0.007018879 0.1280058 -0.06547116
v 0.03075762 0.1382156 -0.03943601
v 0.02054776 -0.01646382 -0.0317786
v -0.007018879 0.1280058 -0.06547116
v -0.06725708 0.1193274 -0.02616318
v -0.05092131 -0.01646382 -0.0001280308
v -0.05092131 -0.01646382 -0.0001280308
v -0.06725708 0.1193274 -0.02616318
v -0.01824974 0.1167749 0.02233368
v 0.006253943 -0.01646382 0.06623609
v 0.04964587 -0.01646382 -0.02054776
v 0.006253943 -0.01646382 0.06623609
v -0.01824974 0.1167749 0.02233368
v 0.03075762 0.1382156 -0.03943601
v -0.007018879 0.1280058 -0.06547116
v 0.02054776 -0.01646382 -0.0317786
v 0.04964587 -0.01646382 -0.02054776
v 0.03075762 0.1382156 -0.03943601
vt 0.1770158 0.2985183
vt 0.1770158 0.2985183
vt 0.1770158 0.2985183
vt 0.1770158 0.2985183
vt 0.1770158 0.2985183
vt 0.1770158 0.2985183
vt 0.1770158 0.2985183
vt 0.1770158 0.2985183
vt 0.1770158 0.2985183
vt 0.1770158 0.2985183
vt 0.1770158 0.2985183
vt 0.1770158 0.2985183
vt 0.1770158 0.2985183
vt 0.1770158 0.2985183
vt 0.1770158 0.2985183
vt 0.1770158 0.2985183
vt 0.1770158 0.2985183
vt 0.1770158 0.2985183
vt 0.1770158 0.2985183
vt 0.1770158 0.2985183
vt 0.1770158 0.2985183
vt 0.1770158 0.2985183
vt 0.1770158 0.2985183
vt 0.1770158 0.2985183
vt 0.1770158 0.2985183
vt 0.1770158 0.2985183
vt 0.1770158 0.2985183
vt 0.1770158 0.2985183
vt 0.1770158 0.2985183
vt 0.1770158 0.2985183
vt 0.1770158 0.2985183
vt 0.1770158 0.2985183
vt 0.1770158 0.2985183
vt 0.1770158 0.2985183
vt 0.1770158 0.2985183
vt 0.1770158 0.2985183
vt 0.1770158 0.2985183
vt 0.1770158 0.2985183
vt 0.1770158 0.2985183
vt 0.1770158 0.2985183
vt 0.1770158 0.2985183
vt 0.1770158 0.2985183
vt 0.1770158 0.2985183
vt 0.1770158 0.2985183
vt 0.1770158 0.2985183
vt 0.1770158 0.2985183
vt 0.1770158 0.2985183
vt 0.1770158 0.2985183
vt 0.1770158 0.2985183
vt 0.1770158 0.2985183
vt 0.1770158 0.2985183
vt 0.1770158 0.2985183
vt 0.1770158 0.2985183
vt 0.1770158 0.2985183
vt 0.1770158 0.2985183
vt 0.1770158 0.2985183
vt 0.1770158 0.2985183
vt 0.1770158 0.2985183
vt 0.1770158 0.2985183
vt 0.1770158 0.2985183
vt 0.1770158 0.2985183
vt 0.1770158 0.2985183
vt 0.1770158 0.2985183
vt 0.1770158 0.2985183
vt 0.1770158 0.2985183
vt 0.1770158 0.2985183
vt 0.1770158 0.2985183
vt 0.1770158 0.2985183
vt 0.1770158 0.2985183
vt 0.1770158 0.2985183
vt 0.1770158 0.2985183
vt 0.1770158 0.2985183
vt 0.1770158 0.2985183
vt 0.1770158 0.2985183
vt 0.1770158 0.2985183
vt 0.1770158 0.2985183
vt 0.1770158 0.2985183
vt 0.1770158 0.2985183
vt 0.1770158 0.2985183
vt 0.1770158 0.2985183
vt 0.1770158 0.2985183
vt 0.1770158 0.2985183
vt 0.1770158 0.2985183
vt 0.1770158 0.2985183
vt 0.1770158 0.2985183
vt 0.1770158 0.2985183
vt 0.1770158 0.2985183
vt 0.1770158 0.2985183
vt 0.1770158 0.2985183
vt 0.1770158 0.2985183
vt 0.1770158 0.2985183
vt 0.1770158 0.2985183
vt 0.1770158 0.2985183
vt 0.1770158 0.2985183
vt 0.1770158 0.2985183
vt 0.1770158 0.2985183
vt 0.1770158 0.2985183
vt 0.1770158 0.2985183
vt 0.1770158 0.2985183
vt 0.1770158 0.2985183
vt 0.1770158 0.2985183
vt 0.1770158 0.2985183
vt 0.1770158 0.2985183
vt 0.1770158 0.2985183
vt 0.1770158 0.2985183
vt 0.1770158 0.2985183
vt 0.1770158 0.2985183
vt 0.1770158 0.2985183
vt 0.1770158 0.2985183
vt 0.1770158 0.2985183
vt 0.1770158 0.2985183
vt 0.1770158 0.2985183
vt 0.1770158 0.2985183
vt 0.1770158 0.2985183
vt 0.1770158 0.2985183
vt 0.1770158 0.2985183
vt 0.1770158 0.2985183
vt 0.1770158 0.2985183
vt 0.1770158 0.2985183
vt 0.1770158 0.2985183
vt 0.1770158 0.2985183
vt 0.1770158 0.2985183
vt 0.1770158 0.2985183
vt 0.1770158 0.2985183
vt 0.1770158 0.2985183
vt 0.1770158 0.2985183
vt 0.1770158 0.2985183
vt 0.1770158 0.2985183
vt 0.1770158 0.2985183
vt 0.1770158 0.2985183
vt 0.1770158 0.2985183
vt 0.1770158 0.2985183
vt 0.1770158 0.2985183
vt 0.1770158 0.2985183
vt 0.1770158 0.2985183
vt 0.1770158 0.2985183
vn 0.3527231 -0.4759958 -0.8056143
vn 0.3527231 -0.4759958 -0.8056143
vn 0.3527231 -0.4759958 -0.8056143
vn -0.1711863 0.7259139 0.6661413
vn -0.1711863 0.7259139 0.6661413
vn -0.1711863 0.7259139 0.6661413
vn 0.969087 -0.04454106 -0.2426653
vn 0.969087 -0.04454106 -0.2426653
vn 0.969087 -0.04454106 -0.2426653
vn 0.5068141 -0.6300868 0.5883282
vn 0.5068141 -0.6300868 0.5883282
vn 0.5068141 -0.6300868 0.5883282
vn -0.2944591 0.8491867 -0.4383787
vn -0.2944591 0.8491867 -0.4383787
vn -0.2944591 0.8491867 -0.4383787
vn 0.6609051 0.4177319 -0.6234618
vn 0.6609051 0.4177319 -0.6234618
vn 0.6609051 0.4177319 -0.6234618
vn -0.5718229 -0.1986321 0.7959673
vn -0.5718229 -0.1986321 0.7959673
vn -0.5718229 -0.1986321 0.7959673
vn -0.4485501 -0.6609051 -0.6016704
vn -0.4485501 -0.6609051 -0.6016704
vn -0.4485501 -0.6609051 -0.6016704
vn 0.3527231 0.8183684 0.4537175
vn 0.3527231 0.8183684 0.4537175
vn 0.3527231 0.8183684 0.4537175
vn 0.5992687 0.07873166 -0.7966671
vn 0.5992687 0.07873166 -0.7966671
vn 0.5992687 0.07873166 -0.7966671
vn 0.0137229 -0.9999052 -0.001118793
vn 0.0137229 -0.9999052 -0.001118793
vn 0.0137229 -0.9999052 -0.001118793
vn 0.0137229 -0.9999052 -0.001118793
vn -0.9416412 -0.0137229 -0.3363384
vn -0.9416412 -0.0137229 -0.3363384
vn -0.9416412 -0.0137229 -0.3363384
vn -0.9108231 -0.0137229 -0.4125687
vn -0.9108231 -0.0137229 -0.4125687
vn -0.9108231 0.01709533 -0.4124427
vn -0.9108231 0.01709533 -0.4124427
vn 0.4143595 -0.3527231 -0.8389831
vn 0.4143595 -0.3527231 -0.8389831
vn 0.4143595 -0.3527231 -0.8389831
vn 0.4143595 -0.3527231 -0.8389831
vn -0.1403681 0.4485501 0.8826662
vn -0.1403681 0.4485501 0.8826662
vn -0.1403681 0.4485501 0.8826662
vn -0.1403681 0.4485501 0.8826662
vn 0.969087 -0.1369957 -0.205189
vn 0.969087 -0.1369957 -0.205189
vn 0.969087 -0.1369957 -0.205189
vn 0.969087 -0.1369957 -0.205189
vn 0.6609051 -0.07535928 -0.7466763
vn 0.6609051 -0.07535928 -0.7466763
vn 0.6609051 -0.07535928 -0.7466763
vn 0.6609051 -0.07535928 -0.7466763
vn -0.2328227 0.1095499 0.9663294
vn -0.2328227 0.1095499 0.9663294
vn -0.2328227 0.1095499 0.9663294
vn -0.2328227 0.1095499 0.9663294
vn 0.969087 -0.04454106 -0.2426653
vn 0.969087 -0.04454106 -0.2426653
vn 0.969087 -0.04454106 -0.2426653
vn 0.969087 -0.04454106 -0.2426653
vn 0.0137229 -0.9999052 -0.001118793
vn 0.0137229 -0.9999052 -0.001118793
vn 0.0137229 -0.9999052 -0.001118793
vn 0.0137229 -0.9999052 -0.001118793
vn 0.6300868 -0.4143595 0.6567319
vn 0.6300868 -0.4143595 0.6567319
vn 0.6300868 -0.4143595 0.6567319
vn 0.6300868 -0.4143595 0.6567319
vn 0.6609051 0.1403681 -0.7372254
vn 0.6609051 0.1403681 -0.7372254
vn 0.6609051 0.1403681 -0.7372254
vn 0.6609051 0.1403681 -0.7372254
vn -0.5410047 0.5101864 -0.6685984
vn -0.5410047 0.5101864 -0.6685984
vn -0.5410047 0.5101864 -0.6685984
vn -0.5410047 0.5101864 -0.6685984
vn -0.5101864 -0.07535928 0.856756
vn -0.5101864 -0.07535928 0.856756
vn -0.5101864 -0.07535928 0.856756
vn -0.5101864 -0.07535928 0.856756
vn -0.4793683 -0.07535928 0.8743723
vn -0.4793683 -0.07535928 0.8743723
vn 0.6300868 -0.1061775 0.7692314
vn 0.6300868 -0.1061775 0.7692314
vn 0.6300868 -0.1061775 0.7692314
vn 0.6300868 -0.1061775 0.7692314
vn 0.9074506 0.01709533 -0.4198108
vn 0.9074506 0.01709533 -0.4198108
vn 0.9074506 0.01709533 -0.4198108
vn 0.9074506 0.01709533 -0.4198108
vn -0.5410047 0.1095499 -0.8338542
vn -0.5410047 0.1095499 -0.8338542
vn -0.5410047 0.1095499 -0.8338542
vn -0.5410047 0.1095499 -0.8338542
vn 0.0137229 -0.9999052 -0.001118793
vn 0.0137229 -0.9999052 -0.001118793
vn 0.0137229 -0.9999052 -0.001118793
vn 0.0137229 -0.9999052 -0.001118793
vn -0.6950957 0.2020046 0.6899537
vn -0.6950957 0.2020046 0.6899537
vn -0.6950957 0.2020046 0.6899537
vn -0.6950957 0.1711863 0.6982387
vn -0.6950957 0.1711863 0.6982387
vn -0.4793683 -0.4451777 -0.7563219
vn -0.4793683 -0.4451777 -0.7563219
vn -0.4793683 -0.4451777 -0.7563219
vn -0.4793683 -0.4451777 -0.7563219
vn 0.5684505 0.5101864 0.6454254
vn 0.5684505 0.5101864 0.6454254
vn 0.5684505 0.5101864 0.6454254
vn 0.5684505 0.5101864 0.6454254
vn 0.5992687 -0.0137229 -0.8004304
vn 0.5992687 -0.0137229 -0.8004304
vn 0.5992687 -0.0137229 -0.8004304
vn 0.5992687 -0.0137229 -0.8004304
vn -0.4485501 -0.2602684 -0.8550223
vn -0.4485501 -0.2602684 -0.8550223
vn -0.4485501 -0.2602684 -0.8550223
vn -0.4485501 -0.2602684 -0.8550223
vn -0.7259139 0.07873166 0.6832645
vn -0.7259139 0.07873166 0.6832645
vn -0.7259139 0.07873166 0.6832645
vn -0.7259139 0.07873166 0.6832645
vn 0.814996 0.2328227 0.5306365
vn 0.814996 0.2328227 0.5306365
vn 0.814996 0.2328227 0.5306365
vn 0.814996 0.2328227 0.5306365
vn 0.5068141 -0.07535928 -0.8587552
vn 0.5068141 -0.07535928 -0.8587552
vn 0.5068141 -0.07535928 -0.8587552
vn 0.5068141 -0.07535928 -0.8587552
g SM_Env_Grass_Tuft_02_0
f 3/3/3 2/2/2 1/1/1
f 6/6/6 5/5/5 4/4/4
f 9/9/9 8/8/8 7/7/7
f 12/12/12 11/11/11 10/10/10
f 15/15/15 14/14/14 13/13/13
f 18/18/18 17/17/17 16/16/16
f 21/21/21 20/20/20 19/19/19
f 24/24/24 23/23/23 22/22/22
f 27/27/27 26/26/26 25/25/25
f 30/30/30 29/29/29 28/28/28
f 33/33/33 32/32/32 31/31/31
f 33/33/33 34/34/34 32/32/32
f 37/37/37 36/36/36 35/35/35
f 37/37/37 35/35/35 38/38/38
f 39/39/39 37/37/37 38/38/38
f 39/39/39 38/38/38 40/40/40
f 41/41/41 39/39/39 40/40/40
f 44/44/44 43/43/43 42/42/42
f 45/45/45 44/44/44 42/42/42
f 48/48/48 47/47/47 46/46/46
f 49/49/49 48/48/48 46/46/46
f 52/52/52 51/51/51 50/50/50
f 53/53/53 52/52/52 50/50/50
f 56/56/56 55/55/55 54/54/54
f 57/57/57 56/56/56 54/54/54
f 60/60/60 59/59/59 58/58/58
f 61/61/61 60/60/60 58/58/58
f 64/64/64 63/63/63 62/62/62
f 65/65/65 64/64/64 62/62/62
f 68/68/68 67/67/67 66/66/66
f 68/68/68 69/69/69 67/67/67
f 72/72/72 71/71/71 70/70/70
f 73/73/73 72/72/72 70/70/70
f 76/76/76 75/75/75 74/74/74
f 77/77/77 76/76/76 74/74/74
f 80/80/80 79/79/79 78/78/78
f 81/81/81 80/80/80 78/78/78
f 84/84/84 83/83/83 82/82/82
f 85/85/85 84/84/84 82/82/82
f 85/85/85 86/86/86 84/84/84
f 86/86/86 87/87/87 84/84/84
f 90/90/90 89/89/89 88/88/88
f 91/91/91 90/90/90 88/88/88
f 94/94/94 93/93/93 92/92/92
f 95/95/95 94/94/94 92/92/92
f 98/98/98 97/97/97 96/96/96
f 99/99/99 98/98/98 96/96/96
f 102/102/102 101/101/101 100/100/100
f 102/102/102 103/103/103 101/101/101
f 106/106/106 105/105/105 104/104/104
f 106/106/106 104/104/104 107/107/107
f 108/108/108 106/106/106 107/107/107
f 111/111/111 110/110/110 109/109/109
f 112/112/112 111/111/111 109/109/109
f 115/115/115 114/114/114 113/113/113
f 116/116/116 115/115/115 113/113/113
f 119/119/119 118/118/118 117/117/117
f 120/120/120 119/119/119 117/117/117
f 123/123/123 122/122/122 121/121/121
f 124/124/124 123/123/123 121/121/121
f 127/127/127 126/126/126 125/125/125
f 128/128/128 127/127/127 125/125/125
f 131/131/131 130/130/130 129/129/129
f 132/132/132 131/131/131 129/129/129
f 135/135/135 134/134/134 133/133/133
f 136/136/136 135/135/135 133/133/133
