g SM_Env_Overgrowth_06
v -0.3273337 0.0500344 -0.3140716
v -0.5612296 -0.2863416 -0.2212366
v -0.3405958 -0.2863416 -0.418963
v -0.3273337 0.0500344 -0.3140716
v -0.4491042 0.08017564 -0.1693937
v -0.5612296 -0.2863416 -0.2212366
v -0.04400617 0.04521185 0.281519
v -0.1006717 0.08620387 -0.06811917
v 0.0982604 0.1320186 0.1404581
v -0.04400617 0.04521185 0.281519
v 0.0982604 0.1320186 0.1404581
v 0.2272648 0.07535303 0.3695314
v -0.3273337 0.0500344 -0.3140716
v -0.04038924 -0.2863416 -0.4069065
v 0.09343779 0.01507062 -0.2827247
v -0.3273337 0.0500344 -0.3140716
v -0.3405958 -0.2863416 -0.418963
v -0.04038924 -0.2863416 -0.4069065
v 0.2272648 0.07535303 0.3695314
v 0.4093178 0.03315532 0.2562004
v 0.3188941 -0.2863416 0.418963
v 0.4093178 0.03315532 0.2562004
v 0.4985358 -0.2863416 0.2465552
v 0.3188941 -0.2863416 0.418963
v 0.5310884 0.06932479 0.01507062
v 0.3550636 0.1139338 0.188684
v 0.0982604 0.1320186 0.1404581
v 0.0982604 0.1320186 0.1404581
v 0.3550636 0.1139338 0.188684
v 0.2272648 0.07535303 0.3695314
v 0.3550636 0.1139338 0.188684
v 0.4093178 0.03315532 0.2562004
v 0.2272648 0.07535303 0.3695314
v 0.09343779 0.01507062 -0.2827247
v 0.3647088 0.00421977 -0.1561315
v 0.1549259 0.06088525 -0.09705472
v 0.3647088 0.00421977 -0.1561315
v 0.5310884 0.06932479 0.01507062
v 0.1549259 0.06088525 -0.09705472
v -0.04038924 -0.2863416 -0.4069065
v 0.3815879 -0.2863416 -0.2718738
v 0.09343779 0.01507062 -0.2827247
v 0.3815879 -0.2863416 -0.2718738
v 0.3647088 0.00421977 -0.1561315
v 0.09343779 0.01507062 -0.2827247
v 0.3550636 0.1139338 0.188684
v 0.5310884 0.06932479 0.01507062
v 0.4093178 0.03315532 0.2562004
v -0.5612296 -0.2863416 -0.2212366
v -0.4491042 0.08017564 -0.1693937
v -0.4756285 0.04641747 0.02109885
v -0.6166894 -0.2863416 0.06691349
v -0.04400617 0.04521185 0.281519
v -0.4756285 0.04641747 0.02109885
v -0.1006717 0.08620387 -0.06811917
v -0.4491042 0.08017564 -0.1693937
v -0.3273337 0.0500344 -0.3140716
v -0.1006717 0.08620387 -0.06811917
v -0.4491042 0.08017564 -0.1693937
v 0.09343779 0.01507062 -0.2827247
v 0.1549259 0.06088525 -0.09705472
v 0.0982604 0.1320186 0.1404581
v 0.5310884 0.06932479 0.01507062
v 0.2272648 0.07535303 0.3695314
v 0.3188941 -0.2863416 0.418963
v -0.06209093 -0.2863416 0.3876162
v -0.04400617 0.04521185 0.281519
v -0.6166894 -0.2863416 0.06691349
v -0.4756285 0.04641747 0.02109885
v -0.06209093 -0.2863416 0.3876162
v -0.04400617 0.04521185 0.281519
v 0.5310884 0.06932479 0.01507062
v 0.6166894 -0.2863416 0.03315532
v 0.4985358 -0.2863416 0.2465552
v 0.4093178 0.03315532 0.2562004
v 0.3647088 0.00421977 -0.1561315
v 0.3815879 -0.2863416 -0.2718738
v 0.6166894 -0.2863416 0.03315532
v 0.5310884 0.06932479 0.01507062
vt 0.7182336 2.466507
vt 0.7392972 2.519166
vt 0.7533395 2.466507
vt 2.403317 1.71173
vt 2.368211 1.739815
vt 2.378743 1.7679
vt 2.252361 1.64854
vt 2.340126 1.659072
vt 2.287467 1.613434
vt 2.252361 1.64854
vt 2.287467 1.613434
vt 2.227787 1.585349
vt 2.403317 1.71173
vt 2.427891 1.645029
vt 2.396296 1.616945
vt 0.7182336 2.466507
vt 0.7533395 2.466507
vt 0.7498289 2.399806
vt 2.227787 1.585349
vt 2.259382 1.543222
vt 2.217256 1.564286
vt 2.259382 1.543222
vt 2.259382 1.522159
vt 2.217256 1.564286
vt 2.319062 1.515137
vt 2.276936 1.553754
vt 2.287467 1.613434
vt 2.287467 1.613434
vt 2.276936 1.553754
vt 2.227787 1.585349
vt 2.276936 1.553754
vt 2.259382 1.543222
vt 2.227787 1.585349
vt 2.396296 1.616945
vt 2.3647 1.553754
vt 2.347147 1.602902
vt 2.3647 1.553754
vt 2.319062 1.515137
vt 2.347147 1.602902
vt 0.9148266 2.59991
vt 0.9148266 2.501613
vt 0.8937631 2.568315
vt 2.392785 1.550243
vt 2.3647 1.553754
vt 2.396296 1.616945
vt 2.276936 1.553754
vt 2.319062 1.515137
vt 2.259382 1.543222
vt 2.378743 1.7679
vt 2.368211 1.739815
vt 2.319062 1.746836
vt 2.30502 1.778432
vt 2.252361 1.64854
vt 2.319062 1.746836
vt 2.340126 1.659072
vt 2.368211 1.739815
vt 2.403317 1.71173
vt 2.340126 1.659072
vt 2.368211 1.739815
vt 2.396296 1.616945
vt 2.347147 1.602902
vt 2.287467 1.613434
vt 2.319062 1.515137
vt -0.7948306 2.610441
vt -0.8229153 2.589378
vt -0.8229153 2.677143
vt -0.7983412 2.673632
vt 2.30502 1.778432
vt 2.319062 1.746836
vt 2.224277 1.65205
vt 2.252361 1.64854
vt 0.7954665 2.712249
vt 0.7638713 2.715759
vt 0.7708925 2.764908
vt 0.7884455 2.768418
vt 2.3647 1.553754
vt 2.392785 1.550243
vt 2.315552 1.494074
vt 2.319062 1.515137
vn -0.6382437 0.2578436 -0.72537
vn -0.6382437 0.2578436 -0.72537
vn -0.6382437 0.2578436 -0.72537
vn -0.6967668 0.3163666 -0.643761
vn -0.6967668 0.3163666 -0.643761
vn -0.6967668 0.3163666 -0.643761
vn -0.3748898 0.9015977 0.2158222
vn -0.3748898 0.9015977 0.2158222
vn -0.3748898 0.9015977 0.2158222
vn -0.1993205 0.9015977 0.383918
vn -0.1993205 0.9015977 0.383918
vn -0.1993205 0.9015977 0.383918
vn 0.06403351 0.3163666 -0.9464734
vn 0.06403351 0.3163666 -0.9464734
vn 0.09329504 0.3456282 -0.9337223
vn 0.06403351 0.3163666 -0.9464734
vn 0.03477198 0.2871051 -0.9572678
vn 0.06403351 0.3163666 -0.9464734
vn 0.5614799 0.2578436 0.7862932
vn 0.5614799 0.2578436 0.7862932
vn 0.5614799 0.2578436 0.7862932
vn 0.6785261 0.1700589 0.7146204
vn 0.6785261 0.1700589 0.7146204
vn 0.6785261 0.1700589 0.7146204
vn 0.09329504 0.9893823 -0.1114392
vn 0.09329504 0.9893823 -0.1114392
vn 0.09329504 0.9893823 -0.1114392
vn 0.03477198 0.9601209 0.2774146
vn 0.03477198 0.9601209 0.2774146
vn 0.03477198 0.9601209 0.2774146
vn 0.4736952 0.7260284 0.4984934
vn 0.4736952 0.7260284 0.4984934
vn 0.4736952 0.7260284 0.4984934
vn 0.1810797 0.9308593 -0.3173503
vn 0.1810797 0.9308593 -0.3173503
vn 0.1810797 0.9308593 -0.3173503
vn 0.1225566 0.8723362 -0.4732963
vn 0.1225566 0.8723362 -0.4732963
vn 0.1225566 0.8723362 -0.4732963
vn 0.2981259 0.2578436 -0.9190417
vn 0.2981259 0.2578436 -0.9190417
vn 0.2981259 0.2578436 -0.9190417
vn 0.4151721 0.3456282 -0.8415303
vn 0.4151721 0.3456282 -0.8415303
vn 0.4151721 0.3456282 -0.8415303
vn 0.5614799 0.7260284 0.3970178
vn 0.5614799 0.7260284 0.3970178
vn 0.5614799 0.7260284 0.3970178
vn -0.9308593 0.3456282 -0.1184998
vn -0.9308593 0.3456282 -0.1184998
vn -0.9308593 0.3456282 -0.1184998
vn -0.9308593 0.3456282 -0.1184998
vn -0.08227426 0.9893823 0.1198064
vn -0.08227426 0.9893823 0.1198064
vn -0.08227426 0.9893823 0.1198064
vn -0.05301273 0.9893823 0.1353229
vn 0.06403351 0.9893823 -0.1304698
vn 0.06403351 0.9601209 -0.2721537
vn 0.03477198 0.9893823 -0.1411154
vn 0.09329504 0.9601209 -0.2635602
vn 0.06403351 0.9601209 -0.2721537
vn 0.06403351 0.9601209 -0.2721537
vn 0.06403351 0.9601209 -0.2721537
vn -0.1993205 0.1993205 0.9594492
vn -0.1993205 0.1993205 0.9594492
vn -0.1993205 0.1993205 0.9594492
vn -0.1993205 0.1993205 0.9594492
vn -0.4626744 0.3163666 0.8281573
vn -0.491936 0.2871051 0.8219304
vn -0.491936 0.2871051 0.8219304
vn -0.491936 0.2871051 0.8219304
vn 0.8540954 0.228582 0.4671952
vn 0.8540954 0.228582 0.4671952
vn 0.8540954 0.228582 0.4671952
vn 0.8540954 0.228582 0.4671952
vn 0.7370492 0.1993205 -0.6457784
vn 0.7370492 0.1993205 -0.6457784
vn 0.7370492 0.1993205 -0.6457784
vn 0.7370492 0.1993205 -0.6457784
g SM_Env_Overgrowth_06_0
f 3/3/3 2/2/2 1/1/1
f 6/6/6 5/5/5 4/4/4
f 9/9/9 8/8/8 7/7/7
f 12/12/12 11/11/11 10/10/10
f 15/15/15 14/14/14 13/13/13
f 18/18/18 17/17/17 16/16/16
f 21/21/21 20/20/20 19/19/19
f 24/24/24 23/23/23 22/22/22
f 27/27/27 26/26/26 25/25/25
f 30/30/30 29/29/29 28/28/28
f 33/33/33 32/32/32 31/31/31
f 36/36/36 35/35/35 34/34/34
f 39/39/39 38/38/38 37/37/37
f 42/42/42 41/41/41 40/40/40
f 45/45/45 44/44/44 43/43/43
f 48/48/48 47/47/47 46/46/46
f 51/51/51 50/50/50 49/49/49
f 52/52/52 51/51/51 49/49/49
f 55/55/55 54/54/54 53/53/53
f 55/55/55 56/56/56 54/54/54
f 59/59/59 58/58/58 57/57/57
f 58/58/58 60/60/60 57/57/57
f 60/60/60 58/58/58 61/61/61
f 62/62/62 61/61/61 58/58/58
f 62/62/62 63/63/63 61/61/61
f 66/66/66 65/65/65 64/64/64
f 67/67/67 66/66/66 64/64/64
f 70/70/70 69/69/69 68/68/68
f 69/69/69 70/70/70 71/71/71
f 74/74/74 73/73/73 72/72/72
f 75/75/75 74/74/74 72/72/72
f 78/78/78 77/77/77 76/76/76
f 79/79/79 78/78/78 76/76/76
