g SM_Env_Sidewalk_02
v 2.588335 0.001239777 -2.454903
v 2.469728 0.05560112 -2.449961
v 2.464787 0.001239777 -2.5488
v 5 0.001239777 -2.469728
v 4.965406 0.02594948 -2.440077
v 4.955523 0.001239777 -2.514206
v 2.588335 0.001239777 -2.454903
v 2.464787 0.001239777 -2.5488
v 2.593277 0.01112366 -2.553741
v 0.07783127 0.001239777 -2.558683
v 0.04817963 0.03583336 -4.925871
v 1.189767 0.01112366 -2.617986
v 5 0.001239777 0.001239777
v 2.49938 0.001239777 -0.06300545
v 4.965406 0.001239777 -0.06300545
v 2.469728 0.001239777 0.001239777
v 2.430193 -0.003702164 -0.06794739
v 0.03335381 0.001239777 -0.03829575
v -0.001239777 0.001239777 0.001239777
v 0.07783127 0.006181717 -2.479612
v -0.001239777 0.001239777 -2.533974
v 0.07783127 0.001239777 -2.558683
v 1.155173 0.02594948 -2.435135
v 0.07783127 0.001239777 -2.558683
v 1.189767 0.01112366 -2.617986
v 0.07783127 0.001239777 -2.558683
v -0.001239777 0.001239777 -2.533974
v -0.001239777 0.001239777 -5
v 0.04817963 0.03583336 -4.925871
v 5 0.001239777 -5
v 5 0.001239777 -2.469728
v 4.955523 0.001239777 -2.514206
v 4.935755 0.001239777 -4.945639
v 2.533974 0.001239777 -5
v 2.578451 0.001239777 -4.925871
v 2.504322 0.001239777 -4.935755
v 2.593277 0.01112366 -2.553741
v 2.464787 0.001239777 -2.5488
v 2.588335 0.001239777 -2.454903
v 4.965406 0.02594948 -2.440077
v 5 0.001239777 -2.469728
v 5 0.001239777 0.001239777
v 4.965406 0.001239777 -0.06300545
v 4.965406 0.02594948 -2.440077
v 2.430193 -0.003702164 -0.06794739
v 2.469728 0.05560112 -2.449961
v 2.588335 0.001239777 -2.454903
v 2.49938 0.001239777 -0.06300545
v 0.04817963 0.03583336 -4.925871
v -0.001239777 0.001239777 -5
v 2.533974 0.001239777 -5
v 2.504322 0.001239777 -4.935755
v 2.593277 0.01112366 -2.553741
v 4.935755 0.001239777 -4.945639
v 4.955523 0.001239777 -2.514206
v 2.578451 0.001239777 -4.925871
v 4.965406 0.001239777 -0.06300545
v 2.588335 0.001239777 -2.454903
v 4.965406 0.02594948 -2.440077
v 2.49938 0.001239777 -0.06300545
v 1.155173 0.02594948 -2.435135
v 2.469728 0.05560112 -2.449961
v 2.430193 -0.003702164 -0.06794739
v 0.03335381 0.001239777 -0.03829575
v 0.07783127 0.006181717 -2.479612
v 2.469728 0.05560112 -2.449961
v 1.155173 0.02594948 -2.435135
v 1.189767 0.01112366 -2.617986
v 2.464787 0.001239777 -2.5488
v 2.504322 0.001239777 -4.935755
v 2.464787 0.001239777 -2.5488
v 1.189767 0.01112366 -2.617986
v 0.04817963 0.03583336 -4.925871
vt 0.1015167 0.3025051
vt 0.1015167 0.3025051
vt 0.1015167 0.3025051
vt 0.1015167 0.3025051
vt 0.1015167 0.3025051
vt 0.1015167 0.3025051
vt 0.1015167 0.3025051
vt 0.1015167 0.3025051
vt 0.1015167 0.3025051
vt 0.10241 0.3293036
vt 0.10241 0.3293036
vt 0.10241 0.3293036
vt 0.1015167 0.3025051
vt 0.1015167 0.3025051
vt 0.1015167 0.3025051
vt 0.1015167 0.3025051
vt 0.1015167 0.3025051
vt 0.1015167 0.3025051
vt 0.1015167 0.3025051
vt 0.1015167 0.3025051
vt 0.1015167 0.3025051
vt 0.1015167 0.3025051
vt 0.1015167 0.3025051
vt 0.1015167 0.3025051
vt 0.1015167 0.3025051
vt 0.1015167 0.3025051
vt 0.1015167 0.3025051
vt 0.1015167 0.3025051
vt 0.1015167 0.3025051
vt 0.1015167 0.3025051
vt 0.1015167 0.3025051
vt 0.1015167 0.3025051
vt 0.1015167 0.3025051
vt 0.1015167 0.3025051
vt 0.1015167 0.3025051
vt 0.1015167 0.3025051
vt 0.1015167 0.3025051
vt 0.1015167 0.3025051
vt 0.1015167 0.3025051
vt 0.1015167 0.3025051
vt 0.1015167 0.3025051
vt 0.1015167 0.3025051
vt 0.1015167 0.3025051
vt 0.1015167 0.3025051
vt 0.1015167 0.3025051
vt 0.1015167 0.3025051
vt 0.1015167 0.3025051
vt 0.1015167 0.3025051
vt 0.1015167 0.3025051
vt 0.1015167 0.3025051
vt 0.1015167 0.3025051
vt 0.1015167 0.3025051
vt 0.10241 0.3293036
vt 0.10241 0.3293036
vt 0.10241 0.3293036
vt 0.10241 0.3293036
vt 0.10241 0.3293036
vt 0.10241 0.3293036
vt 0.10241 0.3293036
vt 0.10241 0.3293036
vt 0.10241 0.3284103
vt 0.10241 0.3284103
vt 0.10241 0.3284103
vt 0.10241 0.3284103
vt 0.10241 0.3284103
vt 0.1015167 0.3025051
vt 0.1015167 0.3025051
vt 0.1015167 0.3025051
vt 0.1015167 0.3025051
vt 0.10241 0.3293036
vt 0.10241 0.3293036
vt 0.10241 0.3293036
vt 0.10241 0.3293036
vn 0.3527683 0.8067111 -0.474101
vn 0.3527683 0.8067111 -0.474101
vn 0.3527683 0.8067111 -0.474101
vn 0.3312965 0.8711265 -0.3624655
vn 0.3312965 0.8711265 -0.3624655
vn 0.3312965 0.8711265 -0.3624655
vn -0.07644739 0.9970737 0
vn -0.07644739 0.9970737 0
vn -0.07644739 0.9970737 0
vn -0.01225259 0.999925 0
vn 0.009218872 0.9999576 0
vn 0.009218872 0.9999576 0
vn 0.009218872 0.9999576 0
vn -0.01225259 0.999925 0
vn -0.01225259 0.999925 0
vn -0.01225259 0.999925 0
vn -0.01225259 0.999925 0
vn -0.01225259 0.999925 0
vn -0.03370708 0.9994318 0
vn -0.03370708 0.9994318 0
vn -0.03370708 0.9994318 0
vn -0.01225259 0.999925 0
vn -0.01225259 0.999925 0
vn -0.01225259 0.999925 0
vn 0.009218872 0.9999576 0
vn -0.2912731 0.9566401 0
vn -0.2912731 0.9566401 0
vn -0.2912731 0.9566401 0
vn -0.2912731 0.9566401 0
vn 0.009218872 0.9999576 0
vn 0.009218872 0.9999576 0
vn 0.009218872 0.9999576 0
vn 0.009218872 0.9999576 0
vn -0.01225259 0.999925 0
vn -0.01225259 0.999925 0
vn -0.01225259 0.999925 0
vn -0.01225259 0.999925 0
vn -0.01225259 0.999925 0
vn -0.01225259 0.999925 0
vn -0.01225259 0.999925 0
vn 0.3527683 0.9355421 0.01776196
vn 0.3527683 0.9355421 0.01776196
vn 0.3527683 0.9355421 0.01776196
vn 0.3527683 0.9355421 0.01776196
vn 0.2668809 0.957014 0.1135732
vn 0.2668809 0.957014 0.1135732
vn 0.2668809 0.957014 0.1135732
vn 0.2668809 0.957014 0.1135732
vn 0.009218872 0.957014 -0.2898953
vn 0.009218872 0.957014 -0.2898953
vn 0.009218872 0.957014 -0.2898953
vn 0.009218872 0.957014 -0.2898953
vn -0.01225259 0.999925 0
vn 0.009218872 0.9999576 0
vn 0.009218872 0.9999576 0
vn -0.01225259 0.999925 0
vn -0.01225259 0.999925 0
vn -0.01225259 0.999925 0
vn -0.01225259 0.999925 0
vn -0.01225259 0.999925 0
vn -0.01225259 0.999925 0
vn -0.01225259 0.999925 0
vn -0.01225259 0.999925 0
vn -0.01225259 0.999925 0
vn -0.03370708 0.9994318 0
vn 0.009218872 0.9784857 -0.2061085
vn 0.009218872 0.9784857 -0.2061085
vn 0.009218872 0.9784857 -0.2061085
vn 0.009218872 0.9784857 -0.2061085
vn -0.01225259 0.999925 0
vn -0.01225259 0.999925 0
vn 0.009218872 0.9999576 0
vn 0.009218872 0.9999576 0
g SM_Env_Sidewalk_02_0
f 3/3/3 2/2/2 1/1/1
f 6/6/6 5/5/5 4/4/4
f 9/9/9 8/8/8 7/7/7
f 12/12/12 11/11/11 10/10/10
f 15/15/15 14/14/14 13/13/13
f 14/14/14 16/16/16 13/13/13
f 14/14/14 17/17/17 16/16/16
f 17/17/17 18/18/18 16/16/16
f 18/18/18 19/19/19 16/16/16
f 18/18/18 20/20/20 19/19/19
f 20/20/20 21/21/21 19/19/19
f 22/22/22 21/21/21 20/20/20
f 24/24/24 20/20/20 23/23/23
f 25/25/25 24/24/24 23/23/23
f 28/28/28 27/27/27 26/26/26
f 29/29/29 28/28/28 26/26/26
f 32/32/32 31/31/31 30/30/30
f 33/33/33 32/32/32 30/30/30
f 33/33/33 30/30/30 34/34/34
f 35/35/35 33/33/33 34/34/34
f 35/35/35 34/34/34 36/36/36
f 35/35/35 36/36/36 37/37/37
f 36/36/36 38/38/38 37/37/37
f 32/32/32 37/37/37 39/39/39
f 40/40/40 32/32/32 39/39/39
f 43/43/43 42/42/42 41/41/41
f 44/44/44 43/43/43 41/41/41
f 47/47/47 46/46/46 45/45/45
f 48/48/48 47/47/47 45/45/45
f 51/51/51 50/50/50 49/49/49
f 52/52/52 51/51/51 49/49/49
f 55/55/55 54/54/54 53/53/53
f 54/54/54 56/56/56 53/53/53
f 59/59/59 58/58/58 57/57/57
f 58/58/58 60/60/60 57/57/57
f 63/63/63 62/62/62 61/61/61
f 63/63/63 61/61/61 64/64/64
f 61/61/61 65/65/65 64/64/64
f 68/68/68 67/67/67 66/66/66
f 69/69/69 68/68/68 66/66/66
f 72/72/72 71/71/71 70/70/70
f 72/72/72 70/70/70 73/73/73
