g SM_Item_Ammo_45_01
v 0.03236439 0.0788047 -0.1051072
v 0.07572238 0.0788047 -0.1051072
v 0.07572238 0.0788047 0.0001027361
v 0.03236439 0.0788047 0.0001027361
v 0.04284428 0.0788047 0.03770708
v 0.06544798 0.0788047 0.03770708
v 0.04284428 0.0788047 0.09524375
v 0.07572238 0.0788047 0.1051072
v 0.03236439 0.0788047 0.1051072
v 0.06544798 0.0788047 0.09524375
v 0.03236439 0.0001027361 -0.1051072
v 0.07572238 0.0001027361 -0.1051072
v 0.07572238 0.0788047 -0.1051072
v 0.03236439 0.0788047 -0.1051072
v 0.07572238 0.0001027361 0.0001027361
v 0.07572238 0.0001027361 -0.1051072
v 0.03236439 0.0001027361 -0.1051072
v 0.03236439 0.0001027361 0.0001027361
v 0.03236439 0.0001027361 0.1051072
v 0.07572238 0.0001027361 0.1051072
v 0.07572238 0.0788047 0.0001027361
v 0.07572238 0.0788047 -0.1051072
v 0.07572238 0.0001027361 -0.1051072
v 0.07572238 0.0001027361 0.0001027361
v 0.07572238 0.0001027361 0.1051072
v 0.07572238 0.0788047 0.1051072
v -0.07572237 0.0001027361 -0.1051072
v -0.07572237 0.0788047 -0.1051072
v -0.07572237 0.0788047 0.0001027361
v -0.07572237 0.0001027361 0.0001027361
v -0.07572237 0.0001027361 0.1051072
v -0.07572237 0.0788047 0.1051072
v 0.03236439 0.0001027361 -0.1051072
v -0.07572237 0.0001027361 -0.1051072
v -0.07572237 0.0001027361 0.0001027361
v 0.03236439 0.0001027361 0.0001027361
v -0.07572237 0.0001027361 0.1051072
v 0.03236439 0.0001027361 0.1051072
v 0.01962412 0.06729735 -0.1051072
v -0.06277663 0.06729735 -0.1051072
v -0.06277663 0.04428269 -0.1051072
v 0.01962412 0.04428269 -0.1051072
v -0.03524122 0.0788047 -0.009349719
v -0.06606443 0.0788047 -0.009349719
v -0.06606443 0.0788047 -0.09565473
v -0.03524122 0.0788047 -0.09565473
v -0.03339182 0.0788047 0.05250221
v -0.02455583 0.0788047 0.06174918
v -0.03133693 0.0788047 0.05948882
v -0.02455583 0.0788047 0.05250221
v -0.02455583 0.0788047 0.04325525
v -0.03133693 0.0788047 0.04551561
v -0.01551435 0.0788047 0.05250221
v -0.01777472 0.0788047 0.05948882
v -0.01777472 0.0788047 0.04551561
v 0.06544798 0.0788047 0.03770708
v 0.06544798 0.0788047 0.09524375
v 0.04284428 0.0788047 0.09524375
v 0.04284428 0.0788047 0.03770708
v 0.03236439 0.0001027361 0.1051072
v 0.03236439 0.0788047 0.1051072
v 0.07572238 0.0788047 0.1051072
v 0.07572238 0.0001027361 0.1051072
v 0.01962412 0.04428269 0.1051072
v -0.06277663 0.04428269 0.1051072
v -0.06277663 0.06729735 0.1051072
v 0.01962412 0.06729735 0.1051072
v 0.03236439 0.0001027361 0.1051072
v 0.01962412 0.04428269 0.1051072
v 0.01962412 0.06729735 0.1051072
v -0.06277663 0.04428269 0.1051072
v 0.03236439 0.0788047 0.1051072
v -0.07572237 0.0001027361 0.1051072
v -0.07572237 0.0788047 0.1051072
v -0.06277663 0.06729735 0.1051072
v 0.01962412 0.04428269 -0.1051072
v -0.06277663 0.04428269 -0.1051072
v -0.07572237 0.0001027361 -0.1051072
v -0.06277663 0.06729735 -0.1051072
v 0.03236439 0.0001027361 -0.1051072
v -0.07572237 0.0788047 -0.1051072
v 0.03236439 0.0788047 -0.1051072
v 0.01962412 0.06729735 -0.1051072
v -0.03524122 0.0788047 -0.09565473
v -0.06606443 0.0788047 -0.09565473
v -0.07572237 0.0788047 -0.1051072
v -0.06606443 0.0788047 -0.009349719
v 0.03236439 0.0788047 -0.1051072
v -0.07572237 0.0788047 0.0001027361
v 0.03236439 0.0788047 0.0001027361
v -0.03524122 0.0788047 -0.009349719
v -0.02455583 0.0788047 0.01880216
v -0.0001027361 0.0788047 0.02722718
v -0.04900892 0.0788047 0.02722718
v 0.007911302 0.0788047 0.05250221
v -0.05702296 0.0788047 0.05250221
v 0.03236439 0.0788047 0.1051072
v -0.0001027361 0.0788047 0.07777725
v -0.02455583 0.0788047 0.08620226
v -0.07572237 0.0788047 0.1051072
v -0.04900892 0.0788047 0.07777725
v -0.02455583 0.0788047 0.02640522
v -0.03133693 0.0788047 0.04551561
v -0.04346074 0.0788047 0.03298084
v -0.02455583 0.0788047 0.04325525
v -0.03339182 0.0788047 0.05250221
v -0.005650915 0.0788047 0.03298084
v -0.04962538 0.0788047 0.05250221
v -0.01777472 0.0788047 0.04551561
v -0.03133693 0.0788047 0.05948882
v 0.000719212 0.0788047 0.05250221
v -0.04346074 0.0788047 0.07202359
v -0.01551435 0.0788047 0.05250221
v -0.02455583 0.0788047 0.06174918
v -0.005650915 0.0788047 0.07202359
v -0.02455583 0.0788047 0.07859921
v -0.01777472 0.0788047 0.05948882
v -0.02455583 0.0788047 0.01880216
v -0.04346074 0.0788047 0.03298084
v -0.04900892 0.0788047 0.02722718
v -0.02455583 0.0788047 0.02640522
v -0.04962538 0.0788047 0.05250221
v -0.0001027361 0.0788047 0.02722718
v -0.05702296 0.0788047 0.05250221
v -0.005650915 0.0788047 0.03298084
v -0.04346074 0.0788047 0.07202359
v 0.007911302 0.0788047 0.05250221
v -0.04900892 0.0788047 0.07777725
v 0.000719212 0.0788047 0.05250221
v -0.02455583 0.0788047 0.07859921
v -0.0001027361 0.0788047 0.07777725
v -0.02455583 0.0788047 0.08620226
v -0.005650915 0.0788047 0.07202359
vt 0.07567358 0.2261953
vt 0.07567358 0.2261953
vt 0.07567358 0.2261953
vt 0.07567358 0.2261953
vt 0.07567358 0.2261953
vt 0.07567358 0.2261953
vt 0.07567358 0.2261953
vt 0.07567358 0.2261953
vt 0.07567358 0.2261953
vt 0.07567358 0.2261953
vt 0.07567358 0.2261953
vt 0.07567358 0.2261953
vt 0.07567358 0.2261953
vt 0.07567358 0.2261953
vt 0.07567358 0.2261953
vt 0.07567358 0.2261953
vt 0.07567358 0.2261953
vt 0.07567358 0.2261953
vt 0.07567358 0.2261953
vt 0.07567358 0.2261953
vt 0.07567358 0.2261953
vt 0.07567358 0.2261953
vt 0.07567358 0.2261953
vt 0.07567358 0.2261953
vt 0.07567358 0.2261953
vt 0.07567358 0.2261953
vt 0.114072 0.1816531
vt 0.114072 0.1816531
vt 0.114072 0.1816531
vt 0.114072 0.1816531
vt 0.114072 0.1816531
vt 0.114072 0.1816531
vt 0.114072 0.1816531
vt 0.114072 0.1816531
vt 0.114072 0.1816531
vt 0.114072 0.1816531
vt 0.114072 0.1816531
vt 0.114072 0.1816531
vt 0.1386469 0.4012919
vt 0.1386469 0.4012919
vt 0.1386469 0.4012919
vt 0.1386469 0.4012919
vt 0.1386469 0.4028279
vt 0.1386469 0.4028279
vt 0.1386469 0.4028279
vt 0.1386469 0.4028279
vt 0.137111 0.399756
vt 0.137111 0.399756
vt 0.137111 0.399756
vt 0.137111 0.399756
vt 0.137111 0.399756
vt 0.137111 0.399756
vt 0.137111 0.399756
vt 0.137111 0.399756
vt 0.137111 0.399756
vt 0.1017845 0.3797888
vt 0.1017845 0.3797888
vt 0.1017845 0.3797888
vt 0.1017845 0.3797888
vt 0.07567358 0.2261953
vt 0.07567358 0.2261953
vt 0.07567358 0.2261953
vt 0.07567358 0.2261953
vt 0.137111 0.4012919
vt 0.137111 0.4012919
vt 0.137111 0.4012919
vt 0.137111 0.4012919
vt 0.114072 0.1816531
vt 0.114072 0.1816531
vt 0.114072 0.1816531
vt 0.114072 0.1816531
vt 0.114072 0.1816531
vt 0.114072 0.1816531
vt 0.114072 0.1816531
vt 0.114072 0.1816531
vt 0.114072 0.1816531
vt 0.114072 0.1816531
vt 0.114072 0.1816531
vt 0.114072 0.1816531
vt 0.114072 0.1816531
vt 0.114072 0.1816531
vt 0.114072 0.1816531
vt 0.114072 0.1816531
vt 0.114072 0.1816531
vt 0.114072 0.1816531
vt 0.114072 0.1816531
vt 0.114072 0.1816531
vt 0.114072 0.1816531
vt 0.114072 0.1816531
vt 0.114072 0.1816531
vt 0.114072 0.1816531
vt 0.114072 0.1816531
vt 0.114072 0.1816531
vt 0.114072 0.1816531
vt 0.114072 0.1816531
vt 0.114072 0.1816531
vt 0.114072 0.1816531
vt 0.114072 0.1816531
vt 0.114072 0.1816531
vt 0.114072 0.1816531
vt 0.114072 0.1816531
vt 0.2200515 0.4673372
vt 0.2200515 0.4673372
vt 0.2200515 0.4673372
vt 0.2200515 0.4673372
vt 0.2200515 0.4673372
vt 0.2200515 0.4673372
vt 0.2200515 0.4673372
vt 0.2200515 0.4673372
vt 0.2200515 0.4673372
vt 0.2200515 0.4673372
vt 0.2200515 0.4673372
vt 0.2200515 0.4673372
vt 0.2200515 0.4673372
vt 0.2200515 0.4673372
vt 0.2200515 0.4673372
vt 0.2200515 0.4673372
vt 0.1355751 0.3982201
vt 0.1355751 0.3982201
vt 0.1355751 0.3982201
vt 0.1355751 0.3982201
vt 0.1355751 0.3982201
vt 0.1355751 0.3982201
vt 0.1355751 0.3982201
vt 0.1355751 0.3982201
vt 0.1355751 0.3982201
vt 0.1355751 0.3982201
vt 0.1355751 0.3982201
vt 0.1355751 0.3982201
vt 0.1355751 0.3982201
vt 0.1355751 0.3982201
vt 0.1355751 0.3982201
vt 0.1355751 0.3982201
vn -0.01587105 0.999874 -0.000345267
vn -0.01587105 0.999874 -0.000345267
vn -0.01587105 0.999874 -0.000345267
vn -0.01587105 0.999874 -0.000345267
vn -0.01587105 0.999874 -0.000345267
vn -0.01587105 0.999874 -0.000345267
vn -0.01587105 0.999874 -0.000345267
vn -0.01587105 0.999874 -0.000345267
vn -0.01587105 0.999874 -0.000345267
vn -0.01587105 0.999874 -0.000345267
vn -0.01587105 0.01587105 -0.9997481
vn -0.01587105 0.01587105 -0.9997481
vn -0.01587105 0.01587105 -0.9997481
vn -0.01587105 0.01587105 -0.9997481
vn -0.01587105 -0.999874 -0.000345267
vn -0.01587105 -0.999874 -0.000345267
vn -0.01587105 -0.999874 -0.000345267
vn -0.01587105 -0.999874 -0.000345267
vn -0.01587105 -0.999874 -0.000345267
vn -0.01587105 -0.999874 -0.000345267
vn 0.999874 0.01587105 -0.0003439156
vn 0.999874 0.01587105 -0.0003439156
vn 0.999874 0.01587105 -0.0003439156
vn 0.999874 0.01587105 -0.0003439156
vn 0.999874 0.01587105 -0.0003439156
vn 0.999874 0.01587105 -0.0003439156
vn -0.999874 0.01587105 -0.0003439156
vn -0.999874 0.01587105 -0.0003439156
vn -0.999874 0.01587105 -0.0003439156
vn -0.999874 0.01587105 -0.0003439156
vn -0.999874 0.01587105 -0.0003439156
vn -0.999874 0.01587105 -0.0003439156
vn -0.01587105 -0.999874 -0.000345267
vn -0.01587105 -0.999874 -0.000345267
vn -0.01587105 -0.999874 -0.000345267
vn -0.01587105 -0.999874 -0.000345267
vn -0.01587105 -0.999874 -0.000345267
vn -0.01587105 -0.999874 -0.000345267
vn -0.01587105 0.01587105 -0.9997481
vn -0.01587105 0.01587105 -0.9997481
vn -0.01587105 0.01587105 -0.9997481
vn -0.01587105 0.01587105 -0.9997481
vn -0.01587105 0.999874 -0.000345267
vn -0.01587105 0.999874 -0.000345267
vn -0.01587105 0.999874 -0.000345267
vn -0.01587105 0.999874 -0.000345267
vn -0.01587105 0.999874 -0.000345267
vn -0.01587105 0.999874 -0.000345267
vn -0.01587105 0.999874 -0.000345267
vn -0.01587105 0.999874 -0.000345267
vn -0.01587105 0.999874 -0.000345267
vn -0.01587105 0.999874 -0.000345267
vn -0.01587105 0.999874 -0.000345267
vn -0.01587105 0.999874 -0.000345267
vn -0.01587105 0.999874 -0.000345267
vn -0.01587105 0.999874 -0.000345267
vn -0.01587105 0.999874 -0.000345267
vn -0.01587105 0.999874 -0.000345267
vn -0.01587105 0.999874 -0.000345267
vn -0.01587105 0.01587105 0.9997481
vn -0.01587105 0.01587105 0.9997481
vn -0.01587105 0.01587105 0.9997481
vn -0.01587105 0.01587105 0.9997481
vn -0.01587105 0.01587105 0.9997481
vn -0.01587105 0.01587105 0.9997481
vn -0.01587105 0.01587105 0.9997481
vn -0.01587105 0.01587105 0.9997481
vn -0.01587105 0.01587105 0.9997481
vn -0.01587105 0.01587105 0.9997481
vn -0.01587105 0.01587105 0.9997481
vn -0.01587105 0.01587105 0.9997481
vn -0.01587105 0.01587105 0.9997481
vn -0.01587105 0.01587105 0.9997481
vn -0.01587105 0.01587105 0.9997481
vn -0.01587105 0.01587105 0.9997481
vn -0.01587105 0.01587105 -0.9997481
vn -0.01587105 0.01587105 -0.9997481
vn -0.01587105 0.01587105 -0.9997481
vn -0.01587105 0.01587105 -0.9997481
vn -0.01587105 0.01587105 -0.9997481
vn -0.01587105 0.01587105 -0.9997481
vn -0.01587105 0.01587105 -0.9997481
vn -0.01587105 0.01587105 -0.9997481
vn -0.01587105 0.999874 -0.000345267
vn -0.01587105 0.999874 -0.000345267
vn -0.01587105 0.999874 -0.000345267
vn -0.01587105 0.999874 -0.000345267
vn -0.01587105 0.999874 -0.000345267
vn -0.01587105 0.999874 -0.000345267
vn -0.01587105 0.999874 -0.000345267
vn -0.01587105 0.999874 -0.000345267
vn -0.01587105 0.999874 -0.000345267
vn -0.01587105 0.999874 -0.000345267
vn -0.01587105 0.999874 -0.000345267
vn -0.01587105 0.999874 -0.000345267
vn -0.01587105 0.999874 -0.000345267
vn -0.01587105 0.999874 -0.000345267
vn -0.01587105 0.999874 -0.000345267
vn -0.01587105 0.999874 -0.000345267
vn -0.01587105 0.999874 -0.000345267
vn -0.01587105 0.999874 -0.000345267
vn -0.01587105 0.999874 -0.000345267
vn -0.01587105 0.999874 -0.000345267
vn -0.01587105 0.999874 -0.000345267
vn -0.01587105 0.999874 -0.000345267
vn -0.01587105 0.999874 -0.000345267
vn -0.01587105 0.999874 -0.000345267
vn -0.01587105 0.999874 -0.000345267
vn -0.01587105 0.999874 -0.000345267
vn -0.01587105 0.999874 -0.000345267
vn -0.01587105 0.999874 -0.000345267
vn -0.01587105 0.999874 -0.000345267
vn -0.01587105 0.999874 -0.000345267
vn -0.01587105 0.999874 -0.000345267
vn -0.01587105 0.999874 -0.000345267
vn -0.01587105 0.999874 -0.000345267
vn -0.01587105 0.999874 -0.000345267
vn -0.01587105 0.999874 -0.000345267
vn -0.01587105 0.999874 -0.000345267
vn -0.01587105 0.999874 -0.000345267
vn -0.01587105 0.999874 -0.000345267
vn -0.01587105 0.999874 -0.000345267
vn -0.01587105 0.999874 -0.000345267
vn -0.01587105 0.999874 -0.000345267
vn -0.01587105 0.999874 -0.000345267
vn -0.01587105 0.999874 -0.000345267
vn -0.01587105 0.999874 -0.000345267
vn -0.01587105 0.999874 -0.000345267
vn -0.01587105 0.999874 -0.000345267
vn -0.01587105 0.999874 -0.000345267
vn -0.01587105 0.999874 -0.000345267
vn -0.01587105 0.999874 -0.000345267
vn -0.01587105 0.999874 -0.000345267
g SM_Item_Ammo_45_01_0
f 3/3/3 2/2/2 1/1/1
f 4/4/4 3/3/3 1/1/1
f 4/4/4 5/5/5 3/3/3
f 5/5/5 6/6/6 3/3/3
f 7/7/7 5/5/5 4/4/4
f 3/3/3 6/6/6 8/8/8
f 9/9/9 7/7/7 4/4/4
f 6/6/6 10/10/10 8/8/8
f 10/10/10 7/7/7 9/9/9
f 8/8/8 10/10/10 9/9/9
f 13/13/13 12/12/12 11/11/11
f 14/14/14 13/13/13 11/11/11
f 17/17/17 16/16/16 15/15/15
f 18/18/18 17/17/17 15/15/15
f 18/18/18 15/15/15 19/19/19
f 15/15/15 20/20/20 19/19/19
f 23/23/23 22/22/22 21/21/21
f 24/24/24 23/23/23 21/21/21
f 24/24/24 21/21/21 25/25/25
f 21/21/21 26/26/26 25/25/25
f 29/29/29 28/28/28 27/27/27
f 30/30/30 29/29/29 27/27/27
f 30/30/30 31/31/31 29/29/29
f 31/31/31 32/32/32 29/29/29
f 35/35/35 34/34/34 33/33/33
f 36/36/36 35/35/35 33/33/33
f 37/37/37 35/35/35 36/36/36
f 38/38/38 37/37/37 36/36/36
f 41/41/41 40/40/40 39/39/39
f 42/42/42 41/41/41 39/39/39
f 45/45/45 44/44/44 43/43/43
f 46/46/46 45/45/45 43/43/43
f 49/49/49 48/48/48 47/47/47
f 48/48/48 50/50/50 47/47/47
f 47/47/47 50/50/50 51/51/51
f 52/52/52 47/47/47 51/51/51
f 53/53/53 50/50/50 48/48/48
f 51/51/51 50/50/50 53/53/53
f 54/54/54 53/53/53 48/48/48
f 55/55/55 51/51/51 53/53/53
f 58/58/58 57/57/57 56/56/56
f 59/59/59 58/58/58 56/56/56
f 62/62/62 61/61/61 60/60/60
f 63/63/63 62/62/62 60/60/60
f 66/66/66 65/65/65 64/64/64
f 67/67/67 66/66/66 64/64/64
f 70/70/70 69/69/69 68/68/68
f 69/69/69 71/71/71 68/68/68
f 72/72/72 70/70/70 68/68/68
f 71/71/71 73/73/73 68/68/68
f 72/72/72 74/74/74 70/70/70
f 73/73/73 71/71/71 74/74/74
f 74/74/74 75/75/75 70/70/70
f 71/71/71 75/75/75 74/74/74
f 78/78/78 77/77/77 76/76/76
f 79/79/79 77/77/77 78/78/78
f 80/80/80 78/78/78 76/76/76
f 81/81/81 79/79/79 78/78/78
f 80/80/80 76/76/76 82/82/82
f 79/79/79 81/81/81 82/82/82
f 76/76/76 83/83/83 82/82/82
f 83/83/83 79/79/79 82/82/82
f 86/86/86 85/85/85 84/84/84
f 87/87/87 85/85/85 86/86/86
f 88/88/88 86/86/86 84/84/84
f 89/89/89 87/87/87 86/86/86
f 88/88/88 84/84/84 90/90/90
f 91/91/91 87/87/87 89/89/89
f 84/84/84 91/91/91 90/90/90
f 90/90/90 91/91/91 89/89/89
f 89/89/89 92/92/92 90/90/90
f 92/92/92 93/93/93 90/90/90
f 89/89/89 94/94/94 92/92/92
f 90/90/90 93/93/93 95/95/95
f 96/96/96 94/94/94 89/89/89
f 90/90/90 95/95/95 97/97/97
f 95/95/95 98/98/98 97/97/97
f 97/97/97 98/98/98 99/99/99
f 100/100/100 96/96/96 89/89/89
f 97/97/97 99/99/99 100/100/100
f 100/100/100 101/101/101 96/96/96
f 99/99/99 101/101/101 100/100/100
f 104/104/104 103/103/103 102/102/102
f 103/103/103 105/105/105 102/102/102
f 106/106/106 103/103/103 104/104/104
f 102/102/102 105/105/105 107/107/107
f 108/108/108 106/106/106 104/104/104
f 105/105/105 109/109/109 107/107/107
f 110/110/110 106/106/106 108/108/108
f 107/107/107 109/109/109 111/111/111
f 112/112/112 110/110/110 108/108/108
f 109/109/109 113/113/113 111/111/111
f 114/114/114 110/110/110 112/112/112
f 111/111/111 113/113/113 115/115/115
f 116/116/116 114/114/114 112/112/112
f 113/113/113 117/117/117 115/115/115
f 117/117/117 114/114/114 116/116/116
f 115/115/115 117/117/117 116/116/116
f 120/120/120 119/119/119 118/118/118
f 119/119/119 121/121/121 118/118/118
f 122/122/122 119/119/119 120/120/120
f 118/118/118 121/121/121 123/123/123
f 124/124/124 122/122/122 120/120/120
f 121/121/121 125/125/125 123/123/123
f 126/126/126 122/122/122 124/124/124
f 123/123/123 125/125/125 127/127/127
f 128/128/128 126/126/126 124/124/124
f 125/125/125 129/129/129 127/127/127
f 130/130/130 126/126/126 128/128/128
f 127/127/127 129/129/129 131/131/131
f 132/132/132 130/130/130 128/128/128
f 129/129/129 133/133/133 131/131/131
f 133/133/133 130/130/130 132/132/132
f 131/131/131 133/133/133 132/132/132
