g SM_Item_Shop_Goods_05
v -0.04244067 0.1256504 0.003135577
v -0.03993183 0.1611922 0.004389986
v -0.03115091 0.1616104 0.1532476
v -0.03115091 0.1218871 0.1532476
v -0.03993183 0.1611922 0.004389986
v 0.04244161 0.1616104 -0.003136516
v 0.05331323 0.1616104 0.1469755
v -0.03115091 0.1616104 0.1532476
v -0.03115091 0.1218871 0.1532476
v -0.03115091 0.1616104 0.1532476
v 0.05331323 0.1616104 0.1469755
v 0.05331323 0.1197965 0.1469755
v 0.03115185 0.1294137 -0.1532485
v 0.03115185 0.1616104 -0.1532485
v -0.03533231 0.1465574 -0.1448857
v -0.03951369 0.1294137 -0.1469764
v -0.0332416 0.07212856 0.003135577
v -0.04244067 0.1256504 0.003135577
v -0.03115091 0.1218871 0.1532476
v -0.02195184 0.07212856 0.1532476
v -0.02195184 0.07212856 0.1532476
v -0.03115091 0.1218871 0.1532476
v 0.05331323 0.1197965 0.1469755
v 0.05331323 0.07212856 0.1469755
v 0.03115185 0.07212856 -0.1532485
v 0.03115185 0.1294137 -0.1532485
v -0.03951369 0.1294137 -0.1469764
v -0.03951369 0.07212856 -0.1469764
v -0.0332416 -0.05414951 0.003135577
v -0.02487881 0.03156905 0.1164513
v -0.02487881 -0.05414951 0.1164513
v -0.0332416 0.03156905 0.003135577
v -0.05080345 -0.05414951 -0.1101802
v -0.03658672 0.03156905 -0.1101802
v -0.02487881 -0.1599388 0.1373583
v -0.02195184 0.07212856 0.1532476
v 0.05331323 0.07212856 0.1469755
v 0.05331323 -0.1616113 0.1469755
v 0.03115185 -0.1616113 -0.1532485
v 0.03115185 0.07212856 -0.1532485
v -0.03951369 0.07212856 -0.1469764
v -0.0533123 -0.1616113 -0.1469764
v -0.02947836 -0.1616113 0.003135577
v -0.0332416 -0.05414951 0.003135577
v -0.02487881 -0.05414951 0.1164513
v -0.02487881 -0.1599388 0.1373583
v -0.02487881 0.03156905 0.1164513
v -0.02195184 0.07212856 0.1532476
v -0.0332416 0.03156905 0.003135577
v -0.0332416 0.07212856 0.003135577
v -0.03951369 0.07212856 -0.1469764
v -0.03658672 0.03156905 -0.1101802
v -0.03951369 0.07212856 -0.1469764
v -0.03658672 0.03156905 -0.1101802
v -0.05080345 -0.05414951 -0.1101802
v -0.0533123 -0.1616113 -0.1469764
v 0.05331323 0.1616104 0.1469755
v 0.04244161 0.124396 -0.003136516
v 0.05331323 0.1197965 0.1469755
v 0.04244161 0.1616104 -0.003136516
v 0.03115185 0.1294137 -0.1532485
v 0.03115185 0.1616104 -0.1532485
v 0.05331323 0.1197965 0.1469755
v 0.04244161 0.07212856 -0.003136516
v 0.05331323 0.07212856 0.1469755
v 0.04244161 0.124396 -0.003136516
v 0.03115185 0.07212856 -0.1532485
v 0.03115185 0.1294137 -0.1532485
v 0.05331323 0.07212856 0.1469755
v 0.04244161 -0.1616113 -0.003136516
v 0.05331323 -0.1616113 0.1469755
v 0.04244161 0.07212856 -0.003136516
v 0.03115185 -0.1616113 -0.1532485
v 0.03115185 0.07212856 -0.1532485
v -0.02613324 0.2640545 -0.02195278
v 0.04202347 0.2406387 -0.05247696
v 0.03784208 0.199661 -0.04453231
v -0.04202253 0.2009155 -0.0349151
v -0.03951369 0.1294137 -0.1469764
v -0.03533231 0.1465574 -0.1448857
v -0.03993183 0.1611922 0.004389986
v -0.04244067 0.1256504 0.003135577
v -0.03951369 0.07212856 -0.1469764
v -0.03951369 0.1294137 -0.1469764
v -0.04244067 0.1256504 0.003135577
v -0.0332416 0.07212856 0.003135577
v -0.0533123 -0.1616113 -0.1469764
v -0.05080345 -0.05414951 -0.1101802
v -0.0332416 -0.05414951 0.003135577
v -0.02947836 -0.1616113 0.003135577
v -0.04202253 0.2009155 -0.0349151
v 0.03784208 0.199661 -0.04453231
v 0.04244161 0.1616104 -0.003136516
v -0.03993183 0.1611922 0.004389986
v -0.02613324 0.2640545 -0.02195278
v -0.02947836 0.2661452 -0.03240627
v 0.03826021 0.2406387 -0.06293043
v 0.04202347 0.2406387 -0.05247696
v 0.03784208 0.199661 -0.04453231
v 0.03575139 0.1946434 -0.05373137
v 0.03616951 0.157429 -0.006481633
v 0.04244161 0.1616104 -0.003136516
v -0.03993183 0.1611922 0.004389986
v -0.03491417 0.1570109 -0.0002095401
v -0.04369509 0.1984066 -0.04453231
v -0.04202253 0.2009155 -0.0349151
v 0.04244161 0.1616104 -0.003136516
v 0.03616951 0.157429 -0.006481633
v 0.02613418 0.1611922 -0.1473946
v 0.03115185 0.1616104 -0.1532485
v 0.03115185 0.1616104 -0.1532485
v 0.02613418 0.1611922 -0.1473946
v -0.02906021 0.1461392 -0.1394499
v -0.03533231 0.1465574 -0.1448857
v -0.03533231 0.1465574 -0.1448857
v -0.02906021 0.1461392 -0.1394499
v -0.03491417 0.1570109 -0.0002095401
v -0.03993183 0.1611922 0.004389986
v -0.04202253 0.2009155 -0.0349151
v -0.04369509 0.1984066 -0.04453231
v -0.02947836 0.2661452 -0.03240627
v -0.02613324 0.2640545 -0.02195278
v 0.04202347 0.2406387 -0.05247696
v 0.03826021 0.2406387 -0.06293043
v 0.03575139 0.1946434 -0.05373137
v 0.03784208 0.199661 -0.04453231
v -0.03491417 0.1570109 -0.0002095401
v 0.03616951 0.157429 -0.006481633
v 0.03575139 0.1946434 -0.05373137
v -0.04369509 0.1984066 -0.04453231
v -0.04369509 0.1984066 -0.04453231
v 0.03575139 0.1946434 -0.05373137
v 0.03826021 0.2406387 -0.06293043
v -0.02947836 0.2661452 -0.03240627
v 0.03616951 0.157429 -0.006481633
v 0.04369603 0.1055797 0.1239778
v 0.02613418 0.06543833 -0.1473946
v 0.02613418 0.1611922 -0.1473946
v 0.02613418 0.1611922 -0.1473946
v 0.02613418 0.06543833 -0.1473946
v -0.02906021 0.06418392 -0.1394499
v -0.02906021 0.1461392 -0.1394499
v -0.02906021 0.1461392 -0.1394499
v -0.02906021 0.06418392 -0.1394499
v -0.02780579 0.1051616 0.1302499
v -0.03491417 0.1570109 -0.0002095401
v -0.03491417 0.1570109 -0.0002095401
v -0.02780579 0.1051616 0.1302499
v 0.04369603 0.1055797 0.1239778
v 0.03616951 0.157429 -0.006481633
v 0.02613418 0.06543833 -0.1473946
v 0.04369603 0.1055797 0.1239778
v -0.02780579 0.1051616 0.1302499
v -0.02906021 0.06418392 -0.1394499
v 0.04244161 -0.1616113 -0.003136516
v -0.02487881 -0.1599388 0.1373583
v 0.05331323 -0.1616113 0.1469755
v -0.02947836 -0.1616113 0.003135577
v -0.0533123 -0.1616113 -0.1469764
v 0.03115185 -0.1616113 -0.1532485
vt 0.216957 0.4725495
vt 0.216957 0.4725495
vt 0.216957 0.4725495
vt 0.216957 0.4725495
vt 0.216957 0.4725495
vt 0.216957 0.4725495
vt 0.216957 0.4725495
vt 0.216957 0.4725495
vt 0.216957 0.4725495
vt 0.216957 0.4725495
vt 0.216957 0.4725495
vt 0.216957 0.4725495
vt 0.216957 0.4725495
vt 0.216957 0.4725495
vt 0.216957 0.4725495
vt 0.216957 0.4725495
vt 0.3504511 0.4709215
vt 0.3504511 0.4709215
vt 0.3504511 0.4709215
vt 0.3504511 0.4709215
vt 0.3504511 0.4709215
vt 0.3504511 0.4709215
vt 0.3504511 0.4709215
vt 0.3504511 0.4709215
vt 0.3504511 0.4709215
vt 0.3504511 0.4709215
vt 0.3504511 0.4709215
vt 0.3504511 0.4709215
vt 0.4253381 0.08183485
vt 0.436734 0.08834676
vt 0.436734 0.08183485
vt 0.4253381 0.08834676
vt 0.4139423 0.08183485
vt 0.4139423 0.08834676
vt 0.216957 0.4725495
vt 0.216957 0.4725495
vt 0.216957 0.4725495
vt 0.216957 0.4725495
vt 0.216957 0.4725495
vt 0.216957 0.4725495
vt 0.216957 0.4725495
vt 0.216957 0.4725495
vt 0.216957 0.4725495
vt 0.216957 0.4725495
vt 0.216957 0.4725495
vt 0.216957 0.4725495
vt 0.216957 0.4725495
vt 0.216957 0.4725495
vt 0.216957 0.4725495
vt 0.216957 0.4725495
vt 0.216957 0.4725495
vt 0.216957 0.4725495
vt 0.216957 0.4725495
vt 0.216957 0.4725495
vt 0.216957 0.4725495
vt 0.216957 0.4725495
vt 0.216957 0.4725495
vt 0.216957 0.4725495
vt 0.216957 0.4725495
vt 0.216957 0.4725495
vt 0.216957 0.4725495
vt 0.216957 0.4725495
vt 0.3504511 0.4725495
vt 0.3504511 0.4725495
vt 0.3504511 0.4725495
vt 0.3504511 0.4725495
vt 0.3504511 0.4725495
vt 0.3504511 0.4725495
vt 0.216957 0.4725495
vt 0.216957 0.4725495
vt 0.216957 0.4725495
vt 0.216957 0.4725495
vt 0.216957 0.4725495
vt 0.216957 0.4725495
vt 0.216957 0.4725495
vt 0.216957 0.4725495
vt 0.216957 0.4725495
vt 0.216957 0.4725495
vt 0.216957 0.4725495
vt 0.216957 0.4725495
vt 0.216957 0.4725495
vt 0.216957 0.4725495
vt 0.3504511 0.4709215
vt 0.3504511 0.4709215
vt 0.3504511 0.4709215
vt 0.3504511 0.4709215
vt 0.216957 0.4725495
vt 0.216957 0.4725495
vt 0.216957 0.4725495
vt 0.216957 0.4725495
vt 0.216957 0.4725495
vt 0.216957 0.4725495
vt 0.216957 0.4725495
vt 0.216957 0.4725495
vt 0.05741519 0.2999839
vt 0.05741519 0.2999839
vt 0.05741519 0.2999839
vt 0.05741519 0.2999839
vt 0.05741519 0.2999839
vt 0.05741519 0.2999839
vt 0.05741519 0.2999839
vt 0.05741519 0.2999839
vt 0.05741519 0.2999839
vt 0.05741519 0.2999839
vt 0.05741519 0.2999839
vt 0.05741519 0.2999839
vt 0.05741519 0.2999839
vt 0.05741519 0.2999839
vt 0.05741519 0.2999839
vt 0.05741519 0.2999839
vt 0.05741519 0.2999839
vt 0.05741519 0.2999839
vt 0.05741519 0.2999839
vt 0.05741519 0.2999839
vt 0.05741519 0.2999839
vt 0.05741519 0.2999839
vt 0.05741519 0.2999839
vt 0.05741519 0.2999839
vt 0.05741519 0.2999839
vt 0.05741519 0.2999839
vt 0.05741519 0.2999839
vt 0.05741519 0.2999839
vt 0.05741519 0.2999839
vt 0.05741519 0.2999839
vt 0.05741519 0.2999839
vt 0.05741519 0.2999839
vt 0.05741519 0.2999839
vt 0.05741519 0.2999839
vt 0.05741519 0.2999839
vt 0.05741519 0.2999839
vt 0.05741519 0.2999839
vt 0.05741519 0.2999839
vt 0.05741519 0.2999839
vt 0.05741519 0.2999839
vt 0.05741519 0.2999839
vt 0.05741519 0.2999839
vt 0.05741519 0.2999839
vt 0.05741519 0.2999839
vt 0.05741519 0.2999839
vt 0.05741519 0.2999839
vt 0.05741519 0.2999839
vt 0.05741519 0.2999839
vt 0.05741519 0.2999839
vt 0.05741519 0.2999839
vt 0.05741519 0.2999839
vt 0.05741519 0.2999839
vt 0.05741519 0.2999839
vt 0.05741519 0.2999839
vt 0.05741519 0.2999839
vt 0.05741519 0.2999839
vt 0.05741519 0.2999839
vt 0.05741519 0.2999839
vt 0.05741519 0.2999839
vt 0.05741519 0.2999839
vt 0.216957 0.4725495
vt 0.216957 0.4725495
vt 0.216957 0.4725495
vt 0.216957 0.4725495
vt 0.216957 0.4725495
vt 0.216957 0.4725495
vn -0.9998741 0.01587105 0
vn -0.9998741 0.01587105 0
vn -0.9998741 0.01587105 0
vn -0.9998741 0.01587105 0
vn -0.01587105 0.9998741 0
vn -0.01587105 0.9998741 0
vn -0.01587105 0.9998741 0
vn -0.01587105 0.9998741 0
vn 0.07935506 0.01587105 0.9967201
vn 0.07935506 0.01587105 0.9967201
vn 0.07935506 0.01587105 0.9967201
vn 0.07935506 0.01587105 0.9967201
vn -0.1110971 0.01587105 -0.9936828
vn -0.1110971 0.04761302 -0.9926683
vn -0.1110971 0.04761302 -0.9926683
vn -0.1110971 0.01587105 -0.9936828
vn -0.9681321 -0.1745812 0.1795594
vn -0.9681321 -0.1745812 0.1795594
vn -0.9681321 -0.1745812 0.1795594
vn -0.9681321 -0.1745812 0.1795594
vn 0.07935506 0.01587105 0.9967201
vn 0.07935506 0.01587105 0.9967201
vn 0.07935506 0.01587105 0.9967201
vn 0.07935506 0.01587105 0.9967201
vn -0.07935512 0.01587105 -0.9967201
vn -0.1110971 0.01587105 -0.9936828
vn -0.1110971 0.01587105 -0.9936828
vn -0.07935512 0.01587105 -0.9967201
vn -0.9998741 0.01587105 0
vn -0.9998741 0.01587105 0
vn -0.9998741 -0.01587099 0
vn -0.9998741 0.01587105 0
vn -0.9968654 0.07911634 0
vn -0.9968654 0.07911634 0
vn -0.01587105 -0.04761302 0.9987398
vn -0.01587105 -0.04761302 0.9987398
vn -0.01587105 -0.04761302 0.9987398
vn -0.01587105 -0.04761302 0.9987398
vn -0.07935512 0.01587105 -0.9967201
vn -0.07935512 0.01587105 -0.9967201
vn -0.07935512 0.01587105 -0.9967201
vn -0.07935512 0.01587105 -0.9967201
vn -0.9998741 -0.01587099 0
vn -0.9998741 -0.01587099 0
vn -0.9998741 -0.01587099 0
vn -0.9998741 -0.01587099 0
vn -0.9998741 0.01587105 0
vn -0.9998741 0.01587105 0
vn -0.9998741 0.01587105 0
vn -0.9998741 -0.01587099 0
vn -0.9988682 -0.04756512 0
vn -0.9998741 -0.01587099 0
vn -0.9968654 0.07911634 0
vn -0.9968654 0.07911634 0
vn -0.9968654 0.07911634 0
vn -0.9968654 0.07911634 0
vn 0.9998741 0.01587105 0
vn 0.9998741 0.01587105 0
vn 0.9998741 0.01587105 0
vn 0.9998741 0.01587105 0
vn 0.9998741 0.01587105 0
vn 0.9998741 0.01587105 0
vn 0.9998741 0.01587105 0
vn 0.9998741 0.01587105 0
vn 0.9998741 0.01587105 0
vn 0.9998741 0.01587105 0
vn 0.9998741 0.01587105 0
vn 0.9998741 0.01587105 0
vn 0.9998741 0.01587105 0
vn 0.9998741 0.01587105 0
vn 0.9998741 0.01587105 0
vn 0.9998741 0.01587105 0
vn 0.9998741 0.01587105 0
vn 0.9998741 0.01587105 0
vn 0.2380652 -0.1110971 0.9648743
vn 0.2380652 -0.1110971 0.9648743
vn 0.2380652 -0.1110971 0.9648743
vn 0.2380652 -0.1110971 0.9648743
vn -0.9938838 0.1104315 0
vn -0.9938838 0.1104315 0
vn -0.9938838 0.1104315 0
vn -0.9938838 0.1104315 0
vn -0.9988682 -0.04756512 0
vn -0.9968654 -0.07911628 0
vn -0.9968654 -0.07911628 0
vn -0.9988682 -0.04756512 0
vn -0.9998741 -0.01587099 0
vn -0.9998741 -0.01587099 0
vn -0.9998741 -0.01587099 0
vn -0.9998741 -0.01587099 0
vn 0.07935506 0.7141958 0.695433
vn 0.07935506 0.7141958 0.695433
vn 0.07935506 0.7141958 0.695433
vn 0.07935506 0.7141958 0.695433
vn 0.3332914 0.93639 -0.1099571
vn 0.3332914 0.93639 -0.1099571
vn 0.3332914 0.93639 -0.1099571
vn 0.3332914 0.93639 -0.1099571
vn 0.872906 -0.3332914 -0.3563033
vn 0.872906 -0.3332914 -0.3563033
vn 0.872906 -0.3332914 -0.3563033
vn 0.872906 -0.3332914 -0.3563033
vn -0.9681321 -0.2380652 -0.07775036
vn -0.9681321 -0.2380652 -0.07775036
vn -0.9681321 -0.2380652 -0.07775036
vn -0.9681321 -0.2380652 -0.07775036
vn -0.3632082 0.931708 0
vn -0.3632082 0.931708 0
vn -0.3632082 0.931708 0
vn -0.3632082 0.931708 0
vn -0.2380652 0.9681321 0.07775026
vn -0.2380652 0.9681321 0.07775026
vn -0.2380652 0.9681321 0.07775026
vn -0.2380652 0.9681321 0.07775026
vn 0.4280863 0.9037378 0
vn 0.4280863 0.9037378 0
vn 0.4280863 0.9037378 0
vn 0.4280863 0.9037378 0
vn -0.9681321 0.1745812 0.1795594
vn -0.9681321 0.1745812 0.1795594
vn -0.9681321 0.1745812 0.1795594
vn -0.9681321 0.1745812 0.1795594
vn 0.9681321 -0.1110971 -0.2244498
vn 0.9681321 -0.1110971 -0.2244498
vn 0.9681321 -0.1110971 -0.2244498
vn 0.9681321 -0.1110971 -0.2244498
vn -0.07935512 -0.7459378 -0.6612712
vn -0.07935512 -0.7459378 -0.6612712
vn -0.07935512 -0.7459378 -0.6612712
vn -0.07935512 -0.7459378 -0.6612712
vn -0.2380652 0.04761302 -0.9700814
vn -0.2380652 0.04761302 -0.9700814
vn -0.2380652 0.04761302 -0.9700814
vn -0.2380652 0.04761302 -0.9700814
vn -0.9998741 0.01587105 0
vn -0.9998741 0.01587105 0
vn -0.9998741 0.01587105 0
vn -0.9998741 0.01587105 0
vn 0.1428391 0.01587105 0.9896187
vn 0.1428391 0.01587105 0.9896187
vn 0.1428391 0.01587105 0.9896187
vn 0.1428391 0.01587105 0.9896187
vn 0.9988682 0.04756512 0
vn 0.9988682 0.04756512 0
vn 0.9988682 0.04756512 0
vn 0.9988682 0.04756512 0
vn -0.01587105 -0.93639 -0.3506021
vn -0.01587105 -0.93639 -0.3506021
vn -0.01587105 -0.93639 -0.3506021
vn -0.01587105 -0.93639 -0.3506021
vn -0.01587105 0.9998741 0
vn -0.01587105 0.9998741 0
vn -0.01587105 0.9998741 0
vn -0.01587105 0.9998741 0
vn -0.01587105 -0.9998741 0
vn -0.01587105 -0.9998741 0
vn -0.01587105 -0.9998741 0
vn -0.01587105 -0.9998741 0
vn -0.01587105 -0.9998741 0
vn -0.01587105 -0.9998741 0
g SM_Item_Shop_Goods_05_0
f 3/3/3 2/2/2 1/1/1
f 4/4/4 3/3/3 1/1/1
f 7/7/7 6/6/6 5/5/5
f 8/8/8 7/7/7 5/5/5
f 11/11/11 10/10/10 9/9/9
f 12/12/12 11/11/11 9/9/9
f 15/15/15 14/14/14 13/13/13
f 16/16/16 15/15/15 13/13/13
f 19/19/19 18/18/18 17/17/17
f 20/20/20 19/19/19 17/17/17
f 23/23/23 22/22/22 21/21/21
f 24/24/24 23/23/23 21/21/21
f 27/27/27 26/26/26 25/25/25
f 28/28/28 27/27/27 25/25/25
f 31/31/31 30/30/30 29/29/29
f 30/30/30 32/32/32 29/29/29
f 29/29/29 32/32/32 33/33/33
f 32/32/32 34/34/34 33/33/33
f 37/37/37 36/36/36 35/35/35
f 38/38/38 37/37/37 35/35/35
f 41/41/41 40/40/40 39/39/39
f 42/42/42 41/41/41 39/39/39
f 45/45/45 44/44/44 43/43/43
f 46/46/46 45/45/45 43/43/43
f 47/47/47 45/45/45 46/46/46
f 48/48/48 47/47/47 46/46/46
f 49/49/49 47/47/47 48/48/48
f 50/50/50 49/49/49 48/48/48
f 50/50/50 51/51/51 49/49/49
f 51/51/51 52/52/52 49/49/49
f 55/55/55 54/54/54 53/53/53
f 56/56/56 55/55/55 53/53/53
f 59/59/59 58/58/58 57/57/57
f 58/58/58 60/60/60 57/57/57
f 58/58/58 61/61/61 60/60/60
f 61/61/61 62/62/62 60/60/60
f 65/65/65 64/64/64 63/63/63
f 64/64/64 66/66/66 63/63/63
f 64/64/64 67/67/67 66/66/66
f 67/67/67 68/68/68 66/66/66
f 71/71/71 70/70/70 69/69/69
f 70/70/70 72/72/72 69/69/69
f 70/70/70 73/73/73 72/72/72
f 73/73/73 74/74/74 72/72/72
f 77/77/77 76/76/76 75/75/75
f 78/78/78 77/77/77 75/75/75
f 81/81/81 80/80/80 79/79/79
f 82/82/82 81/81/81 79/79/79
f 85/85/85 84/84/84 83/83/83
f 86/86/86 85/85/85 83/83/83
f 89/89/89 88/88/88 87/87/87
f 90/90/90 89/89/89 87/87/87
f 93/93/93 92/92/92 91/91/91
f 94/94/94 93/93/93 91/91/91
f 97/97/97 96/96/96 95/95/95
f 98/98/98 97/97/97 95/95/95
f 101/101/101 100/100/100 99/99/99
f 102/102/102 101/101/101 99/99/99
f 105/105/105 104/104/104 103/103/103
f 106/106/106 105/105/105 103/103/103
f 109/109/109 108/108/108 107/107/107
f 110/110/110 109/109/109 107/107/107
f 113/113/113 112/112/112 111/111/111
f 114/114/114 113/113/113 111/111/111
f 117/117/117 116/116/116 115/115/115
f 118/118/118 117/117/117 115/115/115
f 121/121/121 120/120/120 119/119/119
f 122/122/122 121/121/121 119/119/119
f 125/125/125 124/124/124 123/123/123
f 126/126/126 125/125/125 123/123/123
f 129/129/129 128/128/128 127/127/127
f 130/130/130 129/129/129 127/127/127
f 133/133/133 132/132/132 131/131/131
f 134/134/134 133/133/133 131/131/131
f 137/137/137 136/136/136 135/135/135
f 138/138/138 137/137/137 135/135/135
f 141/141/141 140/140/140 139/139/139
f 142/142/142 141/141/141 139/139/139
f 145/145/145 144/144/144 143/143/143
f 146/146/146 145/145/145 143/143/143
f 149/149/149 148/148/148 147/147/147
f 150/150/150 149/149/149 147/147/147
f 153/153/153 152/152/152 151/151/151
f 154/154/154 153/153/153 151/151/151
f 157/157/157 156/156/156 155/155/155
f 156/156/156 158/158/158 155/155/155
f 158/158/158 159/159/159 155/155/155
f 159/159/159 160/160/160 155/155/155
