g SM_Item_Ammo_Crate_Lid_03
v 0.03149276 0.1031951 -0.1319973
v 0.0393812 0.1148816 -0.1436839
v 0.0303241 0.1210171 -0.1375485
v -0.02869312 0.1148816 -0.1436839
v 0.03149276 0.1031951 -0.1319973
v 0.0303241 0.1210171 -0.1375485
v -0.02752447 -0.009288251 -0.009288251
v 0.02301998 -0.01425506 -0.01425506
v -0.02810879 -0.006658778 -0.0221435
v -0.0511898 -0.01425506 -0.01425506
v -0.02752447 -0.009288251 -0.009288251
v -0.02810879 -0.006658778 -0.0221435
v -0.004735634 0.1505257 -0.1270306
v -0.004735634 0.1286134 -0.1466056
v 0.009288251 0.1283212 -0.1463134
v 0.009288251 0.1502335 -0.1267384
v -0.01174758 0.1218936 -0.1483586
v -0.01174758 0.1160503 -0.1425153
v 0.0163002 0.1157582 -0.1422231
v 0.0163002 0.1216014 -0.1480664
v -0.004735634 0.1461433 -0.1223559
v -0.004735634 0.1505257 -0.1270306
v 0.009288251 0.1502335 -0.1267384
v 0.009288251 0.1455589 -0.1220637
v 0.0163002 0.1356253 -0.1340425
v 0.0163002 0.1216014 -0.1480664
v 0.0163002 0.1157582 -0.1422231
v 0.0163002 0.1297821 -0.1281992
v -0.01174758 0.1300742 -0.1284914
v -0.01174758 0.1160503 -0.1425153
v -0.01174758 0.1218936 -0.1483586
v -0.01174758 0.1359175 -0.1343347
v 0.0163002 0.1356253 -0.1340425
v 0.009288251 0.1356253 -0.1340425
v 0.009288251 0.1248152 -0.1445604
v 0.0163002 0.1216014 -0.1480664
v -0.004735634 0.1251074 -0.1448526
v -0.01174758 0.1218936 -0.1483586
v -0.004735634 0.1359175 -0.1343347
v -0.01174758 0.1359175 -0.1343347
v 0.0163002 0.1297821 -0.1281992
v 0.009288251 0.1356253 -0.1340425
v 0.0163002 0.1356253 -0.1340425
v 0.009288251 0.1321194 -0.1302444
v -0.01174758 0.1300742 -0.1284914
v -0.004735634 0.1324115 -0.1308287
v -0.01174758 0.1359175 -0.1343347
v -0.004735634 0.1359175 -0.1343347
v 0.009288251 0.1356253 -0.1340425
v 0.009288251 0.1283212 -0.1463134
v 0.009288251 0.1248152 -0.1445604
v 0.009288251 0.1502335 -0.1267384
v 0.009288251 0.1321194 -0.1302444
v 0.009288251 0.1455589 -0.1220637
v 0.009288251 0.1248152 -0.1445604
v 0.009288251 0.1283212 -0.1463134
v -0.004735634 0.1286134 -0.1466056
v -0.004735634 0.1251074 -0.1448526
v -0.004735634 0.1251074 -0.1448526
v -0.004735634 0.1286134 -0.1466056
v -0.004735634 0.1505257 -0.1270306
v -0.004735634 0.1359175 -0.1343347
v -0.004735634 0.1461433 -0.1223559
v -0.004735634 0.1324115 -0.1308287
v -0.004735634 0.1324115 -0.1308287
v -0.004735634 0.1461433 -0.1223559
v 0.009288251 0.1455589 -0.1220637
v 0.009288251 0.1321194 -0.1302444
v -0.07806893 -0.01834536 -0.02652597
v -0.05265062 -0.01834536 -0.02652597
v -0.05265062 0.1029029 -0.1477742
v -0.07806893 0.1029029 -0.1477742
v 0.1045339 0.1291977 -0.1293679
v 0.1045339 0.1148816 -0.1436839
v 0.1007357 -0.01425506 -0.01425506
v 0.1045339 6.100535E-05 6.100535E-05
v -0.1043637 6.100535E-05 6.100535E-05
v -0.1043637 -0.01425506 -0.01425506
v -0.09998126 0.1148816 -0.1436839
v -0.1043637 0.1291977 -0.1293679
v -0.09998126 0.1148816 -0.1436839
v -0.1043637 -0.01425506 -0.01425506
v -0.07952975 -0.01425506 -0.01425506
v -0.07952975 0.1148816 -0.1436839
v -0.1043637 0.1291977 -0.1293679
v -0.09998126 0.1148816 -0.1436839
v -0.07952975 0.1148816 -0.1436839
v -0.05148195 0.1148816 -0.1436839
v -0.02869312 0.1148816 -0.1436839
v 0.0303241 0.1210171 -0.1375485
v 0.03324575 0.1291977 -0.1293679
v 0.1045339 0.1291977 -0.1293679
v 0.0574954 0.1148816 -0.1436839
v 0.0393812 0.1148816 -0.1436839
v 0.08232938 0.1148816 -0.1436839
v 0.1045339 0.1148816 -0.1436839
v -0.1043637 -0.01425506 -0.01425506
v -0.1043637 6.100535E-05 6.100535E-05
v -0.07952975 -0.01425506 -0.01425506
v -0.0511898 -0.01425506 -0.01425506
v -0.02752447 -0.009288251 -0.009288251
v -0.02956961 6.100535E-05 6.100535E-05
v 0.02301998 -0.01425506 -0.01425506
v 0.05807973 -0.01425506 -0.01425506
v 0.1045339 6.100535E-05 6.100535E-05
v 0.08232938 -0.01425506 -0.01425506
v 0.1007357 -0.01425506 -0.01425506
v 0.05866405 -0.01834536 -0.02652597
v 0.08116072 -0.01834536 -0.02652597
v 0.08116072 0.1029029 -0.1477742
v 0.05837189 0.1029029 -0.1477742
v 0.08232938 -0.01425506 -0.01425506
v 0.1007357 -0.01425506 -0.01425506
v 0.1045339 0.1148816 -0.1436839
v 0.08232938 0.1148816 -0.1436839
v -0.07952975 -0.01425506 -0.01425506
v -0.07806893 -0.01834536 -0.02652597
v -0.07806893 0.1029029 -0.1477742
v -0.07952975 0.1148816 -0.1436839
v -0.07952975 0.1148816 -0.1436839
v -0.07806893 0.1029029 -0.1477742
v -0.05265062 0.1029029 -0.1477742
v -0.05148195 0.1148816 -0.1436839
v -0.05148195 0.1148816 -0.1436839
v -0.05265062 0.1029029 -0.1477742
v -0.05265062 -0.01834536 -0.02652597
v -0.0511898 -0.01425506 -0.01425506
v -0.0511898 -0.01425506 -0.01425506
v -0.05265062 -0.01834536 -0.02652597
v -0.07806893 -0.01834536 -0.02652597
v -0.07952975 -0.01425506 -0.01425506
v 0.05807973 -0.01425506 -0.01425506
v 0.05866405 -0.01834536 -0.02652597
v 0.05837189 0.1029029 -0.1477742
v 0.0574954 0.1148816 -0.1436839
v 0.0574954 0.1148816 -0.1436839
v 0.05837189 0.1029029 -0.1477742
v 0.08116072 0.1029029 -0.1477742
v 0.08232938 0.1148816 -0.1436839
v 0.08232938 0.1148816 -0.1436839
v 0.08116072 0.1029029 -0.1477742
v 0.08116072 -0.01834536 -0.02652597
v 0.08232938 -0.01425506 -0.01425506
v 0.08232938 -0.01425506 -0.01425506
v 0.08116072 -0.01834536 -0.02652597
v 0.05866405 -0.01834536 -0.02652597
v 0.05807973 -0.01425506 -0.01425506
v 0.05807973 -0.01425506 -0.01425506
v 0.0574954 0.1148816 -0.1436839
v 0.0393812 0.1148816 -0.1436839
v 0.03149276 0.1031951 -0.1319973
v -0.02810879 -0.006658778 -0.0221435
v 0.02301998 -0.01425506 -0.01425506
v -0.0511898 -0.01425506 -0.01425506
v -0.05148195 0.1148816 -0.1436839
v -0.02869312 0.1148816 -0.1436839
v 0.03908904 0.1107914 -0.1258619
v 0.09021782 0.1107914 -0.1258619
v 0.09021782 0.003274813 -0.01834536
v -0.03745806 0.003274813 -0.01834536
v -0.09004767 0.1107914 -0.1258619
v -0.09004767 0.003274813 -0.01834536
v -0.03365992 0.0108711 -0.01074909
v 0.09021782 0.003274813 -0.01834536
v 0.09021782 0.0108711 -0.01074909
v -0.03745806 0.003274813 -0.01834536
v -0.09004767 0.0108711 -0.01074909
v -0.09004767 0.003274813 -0.01834536
v 0.09021782 0.0108711 -0.01074909
v 0.09021782 0.003274813 -0.01834536
v 0.09021782 0.1107914 -0.1258619
v 0.09021782 0.1183876 -0.1185578
v 0.09021782 0.1183876 -0.1185578
v 0.09021782 0.1107914 -0.1258619
v 0.03908904 0.1107914 -0.1258619
v 0.03645956 0.1183876 -0.1185578
v -0.09004767 0.1107914 -0.1258619
v -0.09004767 0.1183876 -0.1185578
v -0.09004767 0.1183876 -0.1185578
v -0.09004767 0.1107914 -0.1258619
v -0.09004767 0.003274813 -0.01834536
v -0.09004767 0.0108711 -0.01074909
v -0.1043637 0.1291977 -0.1293679
v -0.09004767 0.0108711 -0.01074909
v -0.1043637 6.100535E-05 6.100535E-05
v -0.09004767 0.1183876 -0.1185578
v -0.03365992 0.0108711 -0.01074909
v 0.03324575 0.1291977 -0.1293679
v -0.02956961 6.100535E-05 6.100535E-05
v 0.03645956 0.1183876 -0.1185578
v 0.09021782 0.0108711 -0.01074909
v 0.1045339 0.1291977 -0.1293679
v 0.1045339 6.100535E-05 6.100535E-05
v 0.09021782 0.1183876 -0.1185578
vt 0.1034338 0.2056206
vt 0.1034338 0.2056206
vt 0.1034338 0.2056206
vt 0.1034338 0.2056206
vt 0.1034338 0.2056206
vt 0.1034338 0.2056206
vt 0.1034338 0.2056206
vt 0.1034338 0.2056206
vt 0.1034338 0.2056206
vt 0.1034338 0.2056206
vt 0.1034338 0.2056206
vt 0.1034338 0.2056206
vt 0.1011879 0.2774883
vt 0.1011879 0.2774883
vt 0.1011879 0.2774883
vt 0.1011879 0.2774883
vt 0.1023108 0.2280792
vt 0.1023108 0.2280792
vt 0.1023108 0.2280792
vt 0.1023108 0.2280792
vt 0.1011879 0.2774883
vt 0.1011879 0.2774883
vt 0.1011879 0.2774883
vt 0.1011879 0.2774883
vt 0.1023108 0.2280792
vt 0.1023108 0.2280792
vt 0.1023108 0.2280792
vt 0.1023108 0.2280792
vt 0.1023108 0.2280792
vt 0.1023108 0.2280792
vt 0.1023108 0.2280792
vt 0.1023108 0.2280792
vt 0.1023108 0.2280792
vt 0.1023108 0.2280792
vt 0.1023108 0.2280792
vt 0.1023108 0.2280792
vt 0.1023108 0.2280792
vt 0.1023108 0.2280792
vt 0.1023108 0.2280792
vt 0.1023108 0.2280792
vt 0.1023108 0.2280792
vt 0.1023108 0.2280792
vt 0.1023108 0.2280792
vt 0.1023108 0.2280792
vt 0.1023108 0.2280792
vt 0.1023108 0.2280792
vt 0.1023108 0.2280792
vt 0.1023108 0.2280792
vt 0.1011879 0.2774883
vt 0.1011879 0.2774883
vt 0.1011879 0.2774883
vt 0.1011879 0.2774883
vt 0.1011879 0.2774883
vt 0.1011879 0.2774883
vt 0.1011879 0.2774883
vt 0.1011879 0.2774883
vt 0.1011879 0.2774883
vt 0.1011879 0.2774883
vt 0.1011879 0.2774883
vt 0.1011879 0.2774883
vt 0.1011879 0.2774883
vt 0.1011879 0.2774883
vt 0.1011879 0.2774883
vt 0.1011879 0.2774883
vt 0.1011879 0.2774883
vt 0.1011879 0.2774883
vt 0.1011879 0.2774883
vt 0.1011879 0.2774883
vt 0.1034338 0.2056206
vt 0.1034338 0.2056206
vt 0.1034338 0.2056206
vt 0.1034338 0.2056206
vt 0.1034338 0.2056206
vt 0.1034338 0.2056206
vt 0.1034338 0.2056206
vt 0.1034338 0.2056206
vt 0.1034338 0.2056206
vt 0.1034338 0.2056206
vt 0.1034338 0.2056206
vt 0.1034338 0.2056206
vt 0.1034338 0.2056206
vt 0.1034338 0.2056206
vt 0.1034338 0.2056206
vt 0.1034338 0.2056206
vt 0.1034338 0.2056206
vt 0.1034338 0.2056206
vt 0.1034338 0.2056206
vt 0.1034338 0.2056206
vt 0.1034338 0.2056206
vt 0.1034338 0.2056206
vt 0.1034338 0.2056206
vt 0.1034338 0.2056206
vt 0.1034338 0.2056206
vt 0.1034338 0.2056206
vt 0.1034338 0.2056206
vt 0.1034338 0.2056206
vt 0.1034338 0.2056206
vt 0.1034338 0.2056206
vt 0.1034338 0.2056206
vt 0.1034338 0.2056206
vt 0.1034338 0.2056206
vt 0.1034338 0.2056206
vt 0.1034338 0.2056206
vt 0.1034338 0.2056206
vt 0.1034338 0.2056206
vt 0.1034338 0.2056206
vt 0.1034338 0.2056206
vt 0.1034338 0.2056206
vt 0.1034338 0.2056206
vt 0.1034338 0.2056206
vt 0.1034338 0.2056206
vt 0.1034338 0.2056206
vt 0.1034338 0.2056206
vt 0.1034338 0.2056206
vt 0.1034338 0.2056206
vt 0.1034338 0.2056206
vt 0.1034338 0.2056206
vt 0.1034338 0.2056206
vt 0.1034338 0.2056206
vt 0.1034338 0.2056206
vt 0.1034338 0.2056206
vt 0.1034338 0.2056206
vt 0.1034338 0.2056206
vt 0.1034338 0.2056206
vt 0.1034338 0.2056206
vt 0.1034338 0.2056206
vt 0.1034338 0.2056206
vt 0.1034338 0.2056206
vt 0.1034338 0.2056206
vt 0.1034338 0.2056206
vt 0.1034338 0.2056206
vt 0.1034338 0.2056206
vt 0.1034338 0.2056206
vt 0.1034338 0.2056206
vt 0.1034338 0.2056206
vt 0.1034338 0.2056206
vt 0.1034338 0.2056206
vt 0.1034338 0.2056206
vt 0.1034338 0.2056206
vt 0.1034338 0.2056206
vt 0.1034338 0.2056206
vt 0.1034338 0.2056206
vt 0.1034338 0.2056206
vt 0.1034338 0.2056206
vt 0.1034338 0.2056206
vt 0.1034338 0.2056206
vt 0.1034338 0.2056206
vt 0.1034338 0.2056206
vt 0.1034338 0.2056206
vt 0.1034338 0.2056206
vt 0.1034338 0.2056206
vt 0.1034338 0.2056206
vt 0.1034338 0.2056206
vt 0.1034338 0.2056206
vt 0.1034338 0.2056206
vt 0.1034338 0.2056206
vt 0.03830369 0.3246514
vt 0.03830369 0.3246514
vt 0.03830369 0.3246514
vt 0.03830369 0.3246514
vt 0.03830369 0.3246514
vt 0.03830369 0.3246514
vt 0.03830369 0.3246514
vt 0.03830369 0.3246514
vt 0.03830369 0.3246514
vt 0.03830369 0.3246514
vt 0.03830369 0.3246514
vt 0.03830369 0.3246514
vt 0.03830369 0.3246514
vt 0.03830369 0.3246514
vt 0.03830369 0.3246514
vt 0.03830369 0.3246514
vt 0.03830369 0.3246514
vt 0.03830369 0.3246514
vt 0.03830369 0.3246514
vt 0.03830369 0.3246514
vt 0.03830369 0.3246514
vt 0.03830369 0.3246514
vt 0.03830369 0.3246514
vt 0.03830369 0.3246514
vt 0.03830369 0.3246514
vt 0.03830369 0.3246514
vt 0.03830369 0.3246514
vt 0.03830369 0.3246514
vt 0.03830369 0.3246514
vt 0.03830369 0.3246514
vt 0.03830369 0.3246514
vt 0.03830369 0.3246514
vt 0.03830369 0.3246514
vt 0.03830369 0.3246514
vt 0.03830369 0.3246514
vt 0.03830369 0.3246514
vt 0.03830369 0.3246514
vt 0.03830369 0.3246514
vn -0.6507117 -0.2698073 -0.7097734
vn -0.6507117 -0.2698073 -0.7097734
vn -0.6507117 -0.2698073 -0.7097734
vn 0.1110971 -0.3015493 -0.9469559
vn 0.1110971 -0.3015493 -0.9469559
vn 0.1110971 -0.3015493 -0.9469559
vn -0.1110971 -0.968132 -0.2244504
vn -0.1110971 -0.968132 -0.2244504
vn -0.1110971 -0.968132 -0.2244504
vn 0.2380652 -0.9363899 -0.2578737
vn 0.2380652 -0.9363899 -0.2578737
vn 0.2380652 -0.9363899 -0.2578737
vn 0.04761302 0.6507117 -0.7578307
vn 0.04761302 0.6507117 -0.7578307
vn 0.04761302 0.6507117 -0.7578307
vn 0.04761302 0.6507117 -0.7578307
vn -0.01587105 -0.7141957 -0.6997661
vn -0.01587105 -0.7141957 -0.6997661
vn -0.01587105 -0.7141957 -0.6997661
vn -0.01587105 -0.7141957 -0.6997661
vn -0.01587105 0.7141957 0.6997661
vn -0.01587105 0.7141957 0.6997661
vn -0.01587105 0.7141957 0.6997661
vn -0.01587105 0.7141957 0.6997661
vn 0.999874 -0.01587099 -0.000346655
vn 0.999874 -0.01587099 -0.000346655
vn 0.999874 -0.01587099 -0.000346655
vn 0.999874 -0.01587099 -0.000346655
vn -0.999874 0.01587105 -0.0003439156
vn -0.999874 0.01587105 -0.0003439156
vn -0.999874 0.01587105 -0.0003439156
vn -0.999874 0.01587105 -0.0003439156
vn -0.01587105 0.7141957 -0.6997661
vn -0.01587105 0.7141957 -0.6997661
vn 0.01587099 0.7141957 -0.6997661
vn 0.01587099 0.7141957 -0.6997661
vn 0.01587099 0.7141957 -0.6997661
vn 0.01587099 0.7141957 -0.6997661
vn -0.01587105 0.7141957 -0.6997661
vn -0.01587105 0.7141957 -0.6997661
vn -0.01587105 0.7141957 0.6997661
vn -0.01587105 0.7141957 0.6997661
vn -0.01587105 0.7141957 0.6997661
vn -0.01587105 0.7141957 0.6997661
vn -0.01587105 0.7141957 0.6997661
vn -0.01587105 0.7141957 0.6997661
vn -0.01587105 0.7141957 0.6997661
vn -0.01587105 0.7141957 0.6997661
vn 0.999874 -0.01587099 -0.000346655
vn 0.999874 -0.01587099 -0.000346655
vn 0.999874 -0.01587099 -0.000346655
vn 0.999874 -0.01587099 -0.000346655
vn 0.999874 -0.01587099 -0.000346655
vn 0.999874 -0.01587099 -0.000346655
vn 0.01587099 -0.4602594 -0.8876426
vn 0.01587099 -0.4602594 -0.8876426
vn 0.01587099 -0.4602594 -0.8876426
vn 0.01587099 -0.4602594 -0.8876426
vn -0.999874 0.01587105 -0.0003439156
vn -0.999874 0.01587105 -0.0003439156
vn -0.999874 0.01587105 -0.0003439156
vn -0.999874 0.01587105 -0.0003439156
vn -0.999874 0.01587105 -0.0003439156
vn -0.999874 0.01587105 -0.0003439156
vn -0.01587105 -0.5237435 0.8517281
vn -0.01587105 -0.5237435 0.8517281
vn -0.01587105 -0.5237435 0.8517281
vn -0.01587105 -0.5237435 0.8517281
vn -0.01587105 -0.7141957 -0.6997661
vn -0.01587105 -0.7141957 -0.6997661
vn -0.01587105 -0.7141957 -0.6997661
vn -0.01587105 -0.7141957 -0.6997661
vn 0.9968654 -0.07911628 0
vn 0.9968654 -0.07911628 0
vn 0.9968654 -0.07911628 0
vn 0.9968654 -0.07911628 0
vn -0.9968654 -0.07911628 0
vn -0.9968654 -0.07911628 0
vn -0.9968654 -0.07911628 0
vn -0.9968654 -0.07911628 0
vn -0.01587105 -0.7141957 -0.6997661
vn -0.01587105 -0.7141957 -0.6997661
vn -0.01587105 -0.7141957 -0.6997661
vn -0.01587105 -0.7141957 -0.6997661
vn -0.01587105 0.7141957 -0.6997661
vn -0.01587105 0.7141957 -0.6997661
vn -0.01587105 0.7141957 -0.6997661
vn -0.01587105 0.7141957 -0.6997661
vn -0.01587105 0.7141957 -0.6997661
vn -0.01587105 0.7141957 -0.6997661
vn -0.01587105 0.7141957 -0.6997661
vn -0.01587105 0.7141957 -0.6997661
vn -0.01587105 0.7141957 -0.6997661
vn -0.01587105 0.7141957 -0.6997661
vn -0.01587105 0.7141957 -0.6997661
vn -0.01587105 0.7141957 -0.6997661
vn -0.01587105 -0.7141957 0.6997661
vn -0.01587105 -0.7141957 0.6997661
vn -0.01587105 -0.7141957 0.6997661
vn -0.01587105 -0.7141957 0.6997661
vn -0.01587105 -0.7141957 0.6997661
vn -0.01587105 -0.7141957 0.6997661
vn -0.01587105 -0.7141957 0.6997661
vn -0.01587105 -0.7141957 0.6997661
vn -0.01587105 -0.7141957 0.6997661
vn -0.01587105 -0.7141957 0.6997661
vn -0.01587105 -0.7141957 0.6997661
vn -0.01587105 -0.7141957 -0.6997661
vn -0.01587105 -0.7141957 -0.6997661
vn -0.01587105 -0.7141957 -0.6997661
vn -0.01587105 -0.7141957 -0.6997661
vn -0.01587105 -0.7141957 -0.6997661
vn -0.01587105 -0.7141957 -0.6997661
vn -0.01587105 -0.7141957 -0.6997661
vn -0.01587105 -0.7141957 -0.6997661
vn -0.9968654 -0.07911628 0
vn -0.9968654 -0.07911628 0
vn -0.9968654 -0.07911628 0
vn -0.9968654 -0.07911628 0
vn -0.01587105 0.3015493 -0.9533185
vn -0.01587105 0.3015493 -0.9533185
vn -0.01587105 0.3015493 -0.9533185
vn -0.01587105 0.3015493 -0.9533185
vn 0.9968654 -0.07911628 0
vn 0.9968654 -0.07911628 0
vn 0.9968654 -0.07911628 0
vn 0.9968654 -0.07911628 0
vn -0.01587105 -0.9363899 0.3506023
vn -0.01587105 -0.9363899 0.3506023
vn -0.01587105 -0.9363899 0.3506023
vn -0.01587105 -0.9363899 0.3506023
vn -0.9988682 -0.04756513 0
vn -0.9988682 -0.04756513 0
vn -0.9988682 -0.04756513 0
vn -0.9988682 -0.04756513 0
vn -0.01587105 0.3015493 -0.9533185
vn -0.01587105 0.3015493 -0.9533185
vn -0.01587105 0.3015493 -0.9533185
vn -0.01587105 0.3015493 -0.9533185
vn 0.9968654 -0.07911628 0
vn 0.9968654 -0.07911628 0
vn 0.9968654 -0.07911628 0
vn 0.9968654 -0.07911628 0
vn -0.01587105 -0.9363899 0.3506023
vn -0.01587105 -0.9363899 0.3506023
vn -0.01587105 -0.9363899 0.3506023
vn -0.01587105 -0.9363899 0.3506023
vn -0.01587105 -0.7141957 -0.6997661
vn -0.01587105 -0.7141957 -0.6997661
vn -0.01587105 -0.7141957 -0.6997661
vn -0.01587105 -0.7141957 -0.6997661
vn -0.01587105 -0.7141957 -0.6997661
vn -0.01587105 -0.7141957 -0.6997661
vn -0.01587105 -0.7141957 -0.6997661
vn -0.01587105 -0.7141957 -0.6997661
vn -0.01587105 -0.7141957 -0.6997661
vn -0.01587105 0.7141957 0.6997661
vn -0.01587105 0.7141957 0.6997661
vn -0.01587105 0.7141957 0.6997661
vn -0.01587105 0.7141957 0.6997661
vn -0.01587105 0.7141957 0.6997661
vn -0.01587105 0.7141957 0.6997661
vn -0.01587105 0.7141957 -0.6997661
vn -0.01587105 0.7141957 -0.6997661
vn -0.01587105 0.7141957 -0.6997661
vn -0.01587105 0.7141957 -0.6997661
vn -0.01587105 0.7141957 -0.6997661
vn -0.01587105 0.7141957 -0.6997661
vn -0.999874 0.01587105 -0.0003439156
vn -0.999874 0.01587105 -0.0003439156
vn -0.999874 0.01587105 -0.0003439156
vn -0.999874 0.01587105 -0.0003439156
vn -0.01587105 -0.7141957 0.6997661
vn -0.01587105 -0.7141957 0.6997661
vn -0.01587105 -0.7141957 0.6997661
vn -0.01587105 -0.7141957 0.6997661
vn -0.01587105 -0.7141957 0.6997661
vn -0.01587105 -0.7141957 0.6997661
vn 0.999874 0.01587105 -0.0003439156
vn 0.999874 0.01587105 -0.0003439156
vn 0.999874 0.01587105 -0.0003439156
vn 0.999874 0.01587105 -0.0003439156
vn -0.01587105 0.7141957 0.6997661
vn -0.01587105 0.7141957 0.6997661
vn -0.01587105 0.7141957 0.6997661
vn -0.01587105 0.7141957 0.6997661
vn -0.01587105 0.7141957 0.6997661
vn -0.01587105 0.7141957 0.6997661
vn -0.01587105 0.7141957 0.6997661
vn -0.01587105 0.7141957 0.6997661
vn -0.01587105 0.7141957 0.6997661
vn -0.01587105 0.7141957 0.6997661
vn -0.01587105 0.7141957 0.6997661
vn -0.01587105 0.7141957 0.6997661
g SM_Item_Ammo_Crate_Lid_03_0
f 3/3/3 2/2/2 1/1/1
f 6/6/6 5/5/5 4/4/4
f 9/9/9 8/8/8 7/7/7
f 12/12/12 11/11/11 10/10/10
f 15/15/15 14/14/14 13/13/13
f 16/16/16 15/15/15 13/13/13
f 19/19/19 18/18/18 17/17/17
f 20/20/20 19/19/19 17/17/17
f 23/23/23 22/22/22 21/21/21
f 24/24/24 23/23/23 21/21/21
f 27/27/27 26/26/26 25/25/25
f 28/28/28 27/27/27 25/25/25
f 31/31/31 30/30/30 29/29/29
f 32/32/32 31/31/31 29/29/29
f 35/35/35 34/34/34 33/33/33
f 36/36/36 35/35/35 33/33/33
f 37/37/37 35/35/35 36/36/36
f 38/38/38 37/37/37 36/36/36
f 39/39/39 37/37/37 38/38/38
f 40/40/40 39/39/39 38/38/38
f 43/43/43 42/42/42 41/41/41
f 42/42/42 44/44/44 41/41/41
f 41/41/41 44/44/44 45/45/45
f 44/44/44 46/46/46 45/45/45
f 45/45/45 46/46/46 47/47/47
f 46/46/46 48/48/48 47/47/47
f 51/51/51 50/50/50 49/49/49
f 50/50/50 52/52/52 49/49/49
f 49/49/49 52/52/52 53/53/53
f 52/52/52 54/54/54 53/53/53
f 57/57/57 56/56/56 55/55/55
f 58/58/58 57/57/57 55/55/55
f 61/61/61 60/60/60 59/59/59
f 62/62/62 61/61/61 59/59/59
f 63/63/63 61/61/61 62/62/62
f 64/64/64 63/63/63 62/62/62
f 67/67/67 66/66/66 65/65/65
f 68/68/68 67/67/67 65/65/65
f 71/71/71 70/70/70 69/69/69
f 72/72/72 71/71/71 69/69/69
f 75/75/75 74/74/74 73/73/73
f 76/76/76 75/75/75 73/73/73
f 79/79/79 78/78/78 77/77/77
f 80/80/80 79/79/79 77/77/77
f 83/83/83 82/82/82 81/81/81
f 84/84/84 83/83/83 81/81/81
f 87/87/87 86/86/86 85/85/85
f 85/85/85 88/88/88 87/87/87
f 89/89/89 88/88/88 85/85/85
f 85/85/85 90/90/90 89/89/89
f 85/85/85 91/91/91 90/90/90
f 90/90/90 91/91/91 92/92/92
f 90/90/90 92/92/92 93/93/93
f 93/93/93 94/94/94 90/90/90
f 92/92/92 95/95/95 93/93/93
f 92/92/92 96/96/96 95/95/95
f 99/99/99 98/98/98 97/97/97
f 99/99/99 100/100/100 98/98/98
f 100/100/100 101/101/101 98/98/98
f 101/101/101 102/102/102 98/98/98
f 102/102/102 101/101/101 103/103/103
f 102/102/102 103/103/103 104/104/104
f 104/104/104 105/105/105 102/102/102
f 104/104/104 106/106/106 105/105/105
f 106/106/106 107/107/107 105/105/105
f 110/110/110 109/109/109 108/108/108
f 111/111/111 110/110/110 108/108/108
f 114/114/114 113/113/113 112/112/112
f 115/115/115 114/114/114 112/112/112
f 118/118/118 117/117/117 116/116/116
f 119/119/119 118/118/118 116/116/116
f 122/122/122 121/121/121 120/120/120
f 123/123/123 122/122/122 120/120/120
f 126/126/126 125/125/125 124/124/124
f 127/127/127 126/126/126 124/124/124
f 130/130/130 129/129/129 128/128/128
f 131/131/131 130/130/130 128/128/128
f 134/134/134 133/133/133 132/132/132
f 135/135/135 134/134/134 132/132/132
f 138/138/138 137/137/137 136/136/136
f 139/139/139 138/138/138 136/136/136
f 142/142/142 141/141/141 140/140/140
f 143/143/143 142/142/142 140/140/140
f 146/146/146 145/145/145 144/144/144
f 147/147/147 146/146/146 144/144/144
f 150/150/150 149/149/149 148/148/148
f 148/148/148 151/151/151 150/150/150
f 148/148/148 152/152/152 151/151/151
f 148/148/148 153/153/153 152/152/152
f 151/151/151 152/152/152 154/154/154
f 151/151/151 154/154/154 155/155/155
f 155/155/155 156/156/156 151/151/151
f 159/159/159 158/158/158 157/157/157
f 160/160/160 159/159/159 157/157/157
f 160/160/160 157/157/157 161/161/161
f 162/162/162 160/160/160 161/161/161
f 165/165/165 164/164/164 163/163/163
f 164/164/164 166/166/166 163/163/163
f 163/163/163 166/166/166 167/167/167
f 166/166/166 168/168/168 167/167/167
f 171/171/171 170/170/170 169/169/169
f 172/172/172 171/171/171 169/169/169
f 175/175/175 174/174/174 173/173/173
f 176/176/176 175/175/175 173/173/173
f 177/177/177 175/175/175 176/176/176
f 178/178/178 177/177/177 176/176/176
f 181/181/181 180/180/180 179/179/179
f 182/182/182 181/181/181 179/179/179
f 185/185/185 184/184/184 183/183/183
f 184/184/184 186/186/186 183/183/183
f 187/187/187 184/184/184 185/185/185
f 183/183/183 186/186/186 188/188/188
f 189/189/189 187/187/187 185/185/185
f 186/186/186 190/190/190 188/188/188
f 191/191/191 187/187/187 189/189/189
f 188/188/188 190/190/190 192/192/192
f 193/193/193 191/191/191 189/189/189
f 190/190/190 194/194/194 192/192/192
f 194/194/194 191/191/191 193/193/193
f 192/192/192 194/194/194 193/193/193
