g SM_Item_Can_01
v -0.03647212 0.01715827 -0.06227333
v 0.03724694 0.01443801 -0.06417751
v 0.03507072 0.182006 -0.06308941
v -0.03701617 0.1871745 -0.06417751
v -0.06938727 0.1839102 -0.0007954463
v -0.07455575 0.02096663 0.003284946
v -0.03647212 0.01715827 -0.06227333
v -0.03701617 0.1871745 -0.06417751
v -0.03239173 0.1839102 0.0634027
v -0.03810427 0.01607016 0.06585093
v -0.07455575 0.02096663 0.003284946
v -0.06938727 0.1839102 -0.0007954463
v 0.0358868 0.1871745 0.05959433
v 0.03398262 0.01634219 0.06285864
v -0.03810427 0.01607016 0.06585093
v -0.03239173 0.1839102 0.0634027
v 0.07233829 0.182006 0.001108736
v 0.07125019 0.01824638 -0.001339495
v 0.03398262 0.01634219 0.06285864
v 0.0358868 0.1871745 0.05959433
v 0.03507072 0.182006 -0.06308941
v 0.03724694 0.01443801 -0.06417751
v 0.07125019 0.01824638 -0.001339495
v 0.07233829 0.182006 0.001108736
v -0.02667918 0.008725464 -0.04622379
v -2.063066E-05 0.008725464 2.063066E-05
v 0.02663792 0.008725464 -0.04622379
v -0.05333774 0.008725464 2.063066E-05
v -0.02667918 0.008725464 0.04626506
v 0.02663792 0.008725464 0.04626506
v -2.063066E-05 0.008725464 2.063066E-05
v 0.05329647 0.008725464 2.063066E-05
v 0.02663792 0.008725464 -0.04622379
v -0.02667918 0.1953353 -0.04622379
v -2.063066E-05 0.1953353 2.063066E-05
v -0.05333774 0.1953353 2.063066E-05
v 0.02663792 0.1953353 -0.04622379
v 0.05329647 0.1953353 2.063066E-05
v 0.02527779 0.1953353 0.04136859
v -0.05333774 0.1953353 2.063066E-05
v -2.063066E-05 0.1953353 2.063066E-05
v -0.02667918 0.1953353 0.04626506
v 0.02527779 0.1953353 0.04136859
v -0.02831133 2.063066E-05 -0.04921608
v -0.02667918 0.008725464 -0.04622379
v 0.02663792 0.008725464 -0.04622379
v 0.0285421 2.063066E-05 -0.04921608
v -0.05687407 2.063066E-05 2.063066E-05
v -0.05333774 0.008725464 2.063066E-05
v -0.02667918 0.008725464 -0.04622379
v -0.02831133 2.063066E-05 -0.04921608
v -0.02831133 2.063066E-05 0.04925734
v -0.02667918 0.008725464 0.04626506
v -0.05333774 0.008725464 2.063066E-05
v -0.05687407 2.063066E-05 2.063066E-05
v 0.0285421 2.063066E-05 0.04925734
v 0.02663792 0.008725464 0.04626506
v -0.02667918 0.008725464 0.04626506
v -0.02831133 2.063066E-05 0.04925734
v 0.05683281 2.063066E-05 2.063066E-05
v 0.05329647 0.008725464 2.063066E-05
v 0.02663792 0.008725464 0.04626506
v 0.0285421 2.063066E-05 0.04925734
v 0.0285421 2.063066E-05 -0.04921608
v 0.02663792 0.008725464 -0.04622379
v 0.05329647 0.008725464 2.063066E-05
v 0.05683281 2.063066E-05 2.063066E-05
v 0.0285421 0.2040401 -0.04921608
v 0.02663792 0.1953353 -0.04622379
v -0.02667918 0.1953353 -0.04622379
v -0.02831133 0.2040401 -0.04921608
v -0.02831133 0.2040401 -0.04921608
v -0.02667918 0.1953353 -0.04622379
v -0.05333774 0.1953353 2.063066E-05
v -0.05687407 0.2040401 2.063066E-05
v -0.05687407 0.2040401 2.063066E-05
v -0.05333774 0.1953353 2.063066E-05
v -0.02667918 0.1953353 0.04626506
v -0.02831133 0.2040401 0.04925734
v -0.02831133 0.2040401 0.04925734
v -0.02667918 0.1953353 0.04626506
v 0.02527779 0.1953353 0.04136859
v 0.02718197 0.2040401 0.0446329
v 0.02718197 0.2040401 0.0446329
v 0.02527779 0.1953353 0.04136859
v 0.05329647 0.1953353 2.063066E-05
v 0.05683281 0.2040401 2.063066E-05
v 0.05683281 0.2040401 2.063066E-05
v 0.05329647 0.1953353 2.063066E-05
v 0.02663792 0.1953353 -0.04622379
v 0.0285421 0.2040401 -0.04921608
v 0.0358868 0.1871745 0.05959433
v 0.0358868 0.2040401 0.05959433
v 0.07424247 0.2040401 2.063066E-05
v 0.07233829 0.182006 0.001108736
v -0.03239173 0.1839102 0.0634027
v -0.03701617 0.2040401 0.06421877
v 0.0358868 0.2040401 0.05959433
v 0.0358868 0.1871745 0.05959433
v -0.06938727 0.1839102 -0.0007954463
v -0.07428373 0.2040401 2.063066E-05
v -0.03701617 0.2040401 0.06421877
v -0.03239173 0.1839102 0.0634027
v -0.03701617 0.1871745 -0.06417751
v -0.03701617 0.2040401 -0.06417751
v -0.07428373 0.2040401 2.063066E-05
v -0.06938727 0.1839102 -0.0007954463
v 0.03507072 0.182006 -0.06308941
v 0.03724694 0.2040401 -0.06417751
v -0.03701617 0.2040401 -0.06417751
v -0.03701617 0.1871745 -0.06417751
v 0.07233829 0.182006 0.001108736
v 0.07424247 0.2040401 2.063066E-05
v 0.03724694 0.2040401 -0.06417751
v 0.03507072 0.182006 -0.06308941
v -0.03701617 2.063066E-05 -0.06417751
v -0.03647212 0.01715827 -0.06227333
v -0.07455575 0.02096663 0.003284946
v -0.07428373 2.063066E-05 2.063066E-05
v -0.07428373 2.063066E-05 2.063066E-05
v -0.07455575 0.02096663 0.003284946
v -0.03810427 0.01607016 0.06585093
v -0.03701617 2.063066E-05 0.06421877
v -0.03701617 2.063066E-05 0.06421877
v -0.03810427 0.01607016 0.06585093
v 0.03398262 0.01634219 0.06285864
v 0.03724694 2.063066E-05 0.06421877
v 0.03724694 2.063066E-05 0.06421877
v 0.03398262 0.01634219 0.06285864
v 0.07125019 0.01824638 -0.001339495
v 0.07424247 2.063066E-05 2.063066E-05
v 0.07424247 2.063066E-05 2.063066E-05
v 0.07125019 0.01824638 -0.001339495
v 0.03724694 0.01443801 -0.06417751
v 0.03724694 2.063066E-05 -0.06417751
v 0.03724694 2.063066E-05 -0.06417751
v 0.03724694 0.01443801 -0.06417751
v -0.03647212 0.01715827 -0.06227333
v -0.03701617 2.063066E-05 -0.06417751
v 0.0358868 0.2040401 0.05959433
v 0.02718197 0.2040401 0.0446329
v 0.05683281 0.2040401 2.063066E-05
v -0.03701617 0.2040401 0.06421877
v 0.07424247 0.2040401 2.063066E-05
v -0.02831133 0.2040401 0.04925734
v 0.0285421 0.2040401 -0.04921608
v -0.07428373 0.2040401 2.063066E-05
v 0.03724694 0.2040401 -0.06417751
v -0.05687407 0.2040401 2.063066E-05
v -0.02831133 0.2040401 -0.04921608
v -0.03701617 0.2040401 -0.06417751
v 0.07424247 2.063066E-05 2.063066E-05
v 0.05683281 2.063066E-05 2.063066E-05
v 0.0285421 2.063066E-05 0.04925734
v 0.03724694 2.063066E-05 0.06421877
v 0.03724694 2.063066E-05 -0.06417751
v -0.02831133 2.063066E-05 0.04925734
v 0.0285421 2.063066E-05 -0.04921608
v -0.03701617 2.063066E-05 0.06421877
v -0.03701617 2.063066E-05 -0.06417751
v -0.05687407 2.063066E-05 2.063066E-05
v -0.02831133 2.063066E-05 -0.04921608
v -0.07428373 2.063066E-05 2.063066E-05
vt 0.2842079 0.134891
vt 0.2925549 0.134891
vt 0.2925549 0.1849724
vt 0.2842079 0.1849724
vt 0.2795708 0.1849724
vt 0.2795708 0.134891
vt 0.2842079 0.134891
vt 0.2842079 0.1849724
vt 0.2842079 0.1849724
vt 0.2842079 0.134891
vt 0.2795708 0.134891
vt 0.2795708 0.1849724
vt 0.2925549 0.1849724
vt 0.2925549 0.134891
vt 0.2842079 0.134891
vt 0.2842079 0.1849724
vt 0.2962646 0.1849724
vt 0.2962646 0.134891
vt 0.2925549 0.134891
vt 0.2925549 0.1849724
vt 0.2925549 0.1849724
vt 0.2925549 0.134891
vt 0.2962646 0.134891
vt 0.2962646 0.1849724
vt 0.09964844 0.3036841
vt 0.09964844 0.3361443
vt 0.09964844 0.3036841
vt 0.09964844 0.3036841
vt 0.09964844 0.3036841
vt 0.09964844 0.3036841
vt 0.09964844 0.3361443
vt 0.09964844 0.3036841
vt 0.09964844 0.3036841
vt 0.09964844 0.3036841
vt 0.09964844 0.3361443
vt 0.09964844 0.3036841
vt 0.09964844 0.3036841
vt 0.09964844 0.3036841
vt 0.09964844 0.3036841
vt 0.09964844 0.3036841
vt 0.09964844 0.3361443
vt 0.09964844 0.3036841
vt 0.09964844 0.3036841
vt 0.09964844 0.3036841
vt 0.09964844 0.3036841
vt 0.09964844 0.3036841
vt 0.09964844 0.3036841
vt 0.09964844 0.3036841
vt 0.09964844 0.3036841
vt 0.09964844 0.3036841
vt 0.09964844 0.3036841
vt 0.09964844 0.3036841
vt 0.09964844 0.3036841
vt 0.09964844 0.3036841
vt 0.09964844 0.3036841
vt 0.09964844 0.3036841
vt 0.09964844 0.3036841
vt 0.09964844 0.3036841
vt 0.09964844 0.3036841
vt 0.09964844 0.3036841
vt 0.09964844 0.3036841
vt 0.09964844 0.3036841
vt 0.09964844 0.3036841
vt 0.09964844 0.3036841
vt 0.09964844 0.3036841
vt 0.09964844 0.3036841
vt 0.09964844 0.3036841
vt 0.09964844 0.3036841
vt 0.09964844 0.3036841
vt 0.09964844 0.3036841
vt 0.09964844 0.3036841
vt 0.09964844 0.3036841
vt 0.09964844 0.3036841
vt 0.09964844 0.3036841
vt 0.09964844 0.3036841
vt 0.09964844 0.3036841
vt 0.09964844 0.3036841
vt 0.09964844 0.3036841
vt 0.09964844 0.3036841
vt 0.09964844 0.3036841
vt 0.09964844 0.3036841
vt 0.09964844 0.3036841
vt 0.09964844 0.3036841
vt 0.09964844 0.3036841
vt 0.09964844 0.3036841
vt 0.09964844 0.3036841
vt 0.09964844 0.3036841
vt 0.09964844 0.3036841
vt 0.09964844 0.3036841
vt 0.09964844 0.3036841
vt 0.09964844 0.3036841
vt 0.09964844 0.3036841
vt 0.09964844 0.3036841
vt 0.09964844 0.3036841
vt 0.09964844 0.3036841
vt 0.09964844 0.3036841
vt 0.09964844 0.3036841
vt 0.09964844 0.3036841
vt 0.09964844 0.3036841
vt 0.09964844 0.3036841
vt 0.09964844 0.3036841
vt 0.09964844 0.3036841
vt 0.09964844 0.3036841
vt 0.09964844 0.3036841
vt 0.09964844 0.3036841
vt 0.09964844 0.3036841
vt 0.09964844 0.3036841
vt 0.09964844 0.3036841
vt 0.09964844 0.3036841
vt 0.09964844 0.3036841
vt 0.09964844 0.3036841
vt 0.09964844 0.3036841
vt 0.09964844 0.3036841
vt 0.09964844 0.3036841
vt 0.09964844 0.3036841
vt 0.09964844 0.3036841
vt 0.09964844 0.3036841
vt 0.09964844 0.3036841
vt 0.09964844 0.3036841
vt 0.09964844 0.3036841
vt 0.09964844 0.3036841
vt 0.09964844 0.3036841
vt 0.09964844 0.3036841
vt 0.09964844 0.3036841
vt 0.09964844 0.3036841
vt 0.09964844 0.3036841
vt 0.09964844 0.3036841
vt 0.09964844 0.3036841
vt 0.09964844 0.3036841
vt 0.09964844 0.3036841
vt 0.09964844 0.3036841
vt 0.09964844 0.3036841
vt 0.09964844 0.3036841
vt 0.09964844 0.3036841
vt 0.09964844 0.3036841
vt 0.09964844 0.3036841
vt 0.09964844 0.3036841
vt 0.09964844 0.3036841
vt 0.09964844 0.3036841
vt 0.09964844 0.3036841
vt 0.09964844 0.3036841
vt 0.09964844 0.3036841
vt 0.09964844 0.3036841
vt 0.09964844 0.3036841
vt 0.09964844 0.3036841
vt 0.09964844 0.3036841
vt 0.09964844 0.3036841
vt 0.09964844 0.3036841
vt 0.09964844 0.3036841
vt 0.09964844 0.3036841
vt 0.09964844 0.3036841
vt 0.09964844 0.3036841
vt 0.09964844 0.3036841
vt 0.09964844 0.3036841
vt 0.09964844 0.3036841
vt 0.09964844 0.3036841
vt 0.09964844 0.3036841
vt 0.09964844 0.3036841
vt 0.09964844 0.3036841
vt 0.09964844 0.3036841
vt 0.09964844 0.3036841
vt 0.09964844 0.3036841
vt 0.09964844 0.3036841
vn -0.01587105 0.01587105 -0.9997481
vn -0.01587105 0.01587105 -0.9997481
vn 0.01587099 -0.01587099 -0.9997481
vn 0.01587099 -0.01587099 -0.9997481
vn -0.8729059 0.01587105 -0.4876305
vn -0.8729059 0.04761302 -0.4855599
vn -0.8729059 0.04761302 -0.4855599
vn -0.8729059 0.01587105 -0.4876305
vn -0.8729059 0.04761302 0.4855599
vn -0.8729059 0.04761302 0.4855599
vn -0.8729059 0.04761302 0.4855599
vn -0.8729059 0.04761302 0.4855599
vn 0.04761302 0.01587105 0.9987398
vn 0.04761302 0.01587105 0.9987398
vn 0.04761302 0.01587105 0.9987398
vn 0.04761302 0.01587105 0.9987398
vn 0.8411638 -0.01587099 0.5405475
vn 0.8729059 -0.01587099 0.4876305
vn 0.8729059 -0.01587099 0.4876305
vn 0.8411638 -0.01587099 0.5405475
vn 0.8729059 0.01587105 -0.4876305
vn 0.8729059 0.04761302 -0.4855599
vn 0.8729059 0.04761302 -0.4855599
vn 0.8729059 0.01587105 -0.4876305
vn -0.01587105 -0.999874 -0.000345267
vn -0.01587105 -0.999874 -0.000345267
vn -0.01587105 -0.999874 -0.000345267
vn -0.01587105 -0.999874 -0.000345267
vn -0.01587105 -0.999874 -0.000345267
vn -0.01587105 -0.999874 -0.000345267
vn -0.01587105 -0.999874 -0.000345267
vn -0.01587105 -0.999874 -0.000345267
vn -0.01587105 -0.999874 -0.000345267
vn -0.01587105 0.999874 -0.000345267
vn -0.01587105 0.999874 -0.000345267
vn -0.01587105 0.999874 -0.000345267
vn -0.01587105 0.999874 -0.000345267
vn -0.01587105 0.999874 -0.000345267
vn -0.01587105 0.999874 -0.000345267
vn -0.01587105 0.999874 -0.000345267
vn -0.01587105 0.999874 -0.000345267
vn -0.01587105 0.999874 -0.000345267
vn -0.01587105 0.999874 -0.000345267
vn -0.01587105 -0.3332914 0.9426903
vn -0.01587105 -0.3332914 0.9426903
vn -0.01587105 -0.3332914 0.9426903
vn -0.01587105 -0.3332914 0.9426903
vn 0.8094218 -0.3332914 0.4834804
vn 0.8094218 -0.3332914 0.4834804
vn 0.8094218 -0.3332914 0.4834804
vn 0.8094218 -0.3332914 0.4834804
vn 0.8094218 -0.3332914 -0.4834804
vn 0.8094218 -0.3332914 -0.4834804
vn 0.8094218 -0.3332914 -0.4834804
vn 0.8094218 -0.3332914 -0.4834804
vn -0.01587105 -0.3332914 -0.9426903
vn -0.01587105 -0.3332914 -0.9426903
vn -0.01587105 -0.3332914 -0.9426903
vn -0.01587105 -0.3332914 -0.9426903
vn -0.8094218 -0.3332914 -0.4834804
vn -0.8094218 -0.3332914 -0.4834804
vn -0.8094218 -0.3332914 -0.4834804
vn -0.8094218 -0.3332914 -0.4834804
vn -0.8094218 -0.3332914 0.4834804
vn -0.8094218 -0.3332914 0.4834804
vn -0.8094218 -0.3332914 0.4834804
vn -0.8094218 -0.3332914 0.4834804
vn -0.01587105 0.3332913 0.9426903
vn -0.01587105 0.3332913 0.9426903
vn -0.01587105 0.3332913 0.9426903
vn -0.01587105 0.3332913 0.9426903
vn 0.8094218 0.3332913 0.4834804
vn 0.8094218 0.3332913 0.4834804
vn 0.8094218 0.3332913 0.4834804
vn 0.8094218 0.3332913 0.4834804
vn 0.8094218 0.3332913 -0.4834804
vn 0.8094218 0.3332913 -0.4834804
vn 0.8094218 0.3332913 -0.4834804
vn 0.8094218 0.3332913 -0.4834804
vn -0.07935512 0.3332913 -0.9394784
vn -0.07935512 0.3332913 -0.9394784
vn -0.07935512 0.3332913 -0.9394784
vn -0.07935512 0.3332913 -0.9394784
vn -0.7776798 0.3332913 -0.5330395
vn -0.7776798 0.3332913 -0.5330395
vn -0.7776798 0.3332913 -0.5330395
vn -0.7776798 0.3332913 -0.5330395
vn -0.8094218 0.3332913 0.4834804
vn -0.8094218 0.3332913 0.4834804
vn -0.8094218 0.3332913 0.4834804
vn -0.8094218 0.3332913 0.4834804
vn 0.8411638 -0.01587099 0.5405475
vn 0.8411638 -0.01587099 0.5405475
vn 0.8411638 -0.01587099 0.5405475
vn 0.8411638 -0.01587099 0.5405475
vn 0.04761302 0.01587105 0.9987398
vn 0.04761302 -0.01587099 0.9987398
vn 0.04761302 -0.01587099 0.9987398
vn 0.04761302 0.01587105 0.9987398
vn -0.8411639 -0.2380652 0.4855598
vn -0.8411639 -0.2380652 0.4855598
vn -0.8411639 -0.2380652 0.4855598
vn -0.8411639 -0.2380652 0.4855598
vn -0.8729059 -0.1110971 -0.4750714
vn -0.8729059 -0.1110971 -0.4750714
vn -0.8729059 -0.1110971 -0.4750714
vn -0.8729059 -0.1110971 -0.4750714
vn 0.01587099 -0.01587099 -0.9997481
vn 0.01587099 -0.04761302 -0.9987398
vn 0.01587099 -0.04761302 -0.9987398
vn 0.01587099 -0.01587099 -0.9997481
vn 0.8729059 -0.1110971 -0.4750714
vn 0.8729059 -0.1110971 -0.4750714
vn 0.8729059 -0.1110971 -0.4750714
vn 0.8729059 -0.1110971 -0.4750714
vn -0.8729059 0.07935512 -0.4813919
vn -0.8729059 0.04761302 -0.4855599
vn -0.8729059 0.04761302 -0.4855599
vn -0.8729059 0.07935512 -0.4813919
vn -0.8729059 -0.1110971 0.4750714
vn -0.8729059 -0.1110971 0.4750714
vn -0.8729059 -0.1110971 0.4750714
vn -0.8729059 -0.1110971 0.4750714
vn 0.01587099 -0.01587099 0.9997481
vn 0.04761302 0.01587105 0.9987398
vn 0.04761302 0.01587105 0.9987398
vn 0.01587099 -0.01587099 0.9997481
vn 0.8411638 0.2063233 0.4998741
vn 0.8411638 0.2063233 0.4998741
vn 0.8411638 0.2063233 0.4998741
vn 0.8411638 0.2063233 0.4998741
vn 0.8729059 0.04761302 -0.4855599
vn 0.8729059 0.04761302 -0.4855599
vn 0.8729059 0.04761302 -0.4855599
vn 0.8729059 0.04761302 -0.4855599
vn -0.01587105 0.04761302 -0.9987398
vn -0.01587105 0.01587105 -0.9997481
vn -0.01587105 0.01587105 -0.9997481
vn -0.01587105 0.04761302 -0.9987398
vn -0.01587105 0.999874 -0.000345267
vn -0.01587105 0.999874 -0.000345267
vn -0.01587105 0.999874 -0.000345267
vn -0.01587105 0.999874 -0.000345267
vn -0.01587105 0.999874 -0.000345267
vn -0.01587105 0.999874 -0.000345267
vn -0.01587105 0.999874 -0.000345267
vn -0.01587105 0.999874 -0.000345267
vn -0.01587105 0.999874 -0.000345267
vn -0.01587105 0.999874 -0.000345267
vn -0.01587105 0.999874 -0.000345267
vn -0.01587105 0.999874 -0.000345267
vn -0.01587105 -0.999874 -0.000345267
vn -0.01587105 -0.999874 -0.000345267
vn -0.01587105 -0.999874 -0.000345267
vn -0.01587105 -0.999874 -0.000345267
vn -0.01587105 -0.999874 -0.000345267
vn -0.01587105 -0.999874 -0.000345267
vn -0.01587105 -0.999874 -0.000345267
vn -0.01587105 -0.999874 -0.000345267
vn -0.01587105 -0.999874 -0.000345267
vn -0.01587105 -0.999874 -0.000345267
vn -0.01587105 -0.999874 -0.000345267
vn -0.01587105 -0.999874 -0.000345267
g SM_Item_Can_01_0
f 3/3/3 2/2/2 1/1/1
f 4/4/4 3/3/3 1/1/1
f 7/7/7 6/6/6 5/5/5
f 8/8/8 7/7/7 5/5/5
f 11/11/11 10/10/10 9/9/9
f 12/12/12 11/11/11 9/9/9
f 15/15/15 14/14/14 13/13/13
f 16/16/16 15/15/15 13/13/13
f 19/19/19 18/18/18 17/17/17
f 20/20/20 19/19/19 17/17/17
f 23/23/23 22/22/22 21/21/21
f 24/24/24 23/23/23 21/21/21
f 27/27/27 26/26/26 25/25/25
f 25/25/25 26/26/26 28/28/28
f 28/28/28 26/26/26 29/29/29
f 29/29/29 31/31/31 30/30/30
f 30/30/30 31/31/31 32/32/32
f 32/32/32 31/31/31 33/33/33
f 36/36/36 35/35/35 34/34/34
f 34/34/34 35/35/35 37/37/37
f 37/37/37 35/35/35 38/38/38
f 38/38/38 35/35/35 39/39/39
f 42/42/42 41/41/41 40/40/40
f 43/43/43 41/41/41 42/42/42
f 46/46/46 45/45/45 44/44/44
f 47/47/47 46/46/46 44/44/44
f 50/50/50 49/49/49 48/48/48
f 51/51/51 50/50/50 48/48/48
f 54/54/54 53/53/53 52/52/52
f 55/55/55 54/54/54 52/52/52
f 58/58/58 57/57/57 56/56/56
f 59/59/59 58/58/58 56/56/56
f 62/62/62 61/61/61 60/60/60
f 63/63/63 62/62/62 60/60/60
f 66/66/66 65/65/65 64/64/64
f 67/67/67 66/66/66 64/64/64
f 70/70/70 69/69/69 68/68/68
f 71/71/71 70/70/70 68/68/68
f 74/74/74 73/73/73 72/72/72
f 75/75/75 74/74/74 72/72/72
f 78/78/78 77/77/77 76/76/76
f 79/79/79 78/78/78 76/76/76
f 82/82/82 81/81/81 80/80/80
f 83/83/83 82/82/82 80/80/80
f 86/86/86 85/85/85 84/84/84
f 87/87/87 86/86/86 84/84/84
f 90/90/90 89/89/89 88/88/88
f 91/91/91 90/90/90 88/88/88
f 94/94/94 93/93/93 92/92/92
f 95/95/95 94/94/94 92/92/92
f 98/98/98 97/97/97 96/96/96
f 99/99/99 98/98/98 96/96/96
f 102/102/102 101/101/101 100/100/100
f 103/103/103 102/102/102 100/100/100
f 106/106/106 105/105/105 104/104/104
f 107/107/107 106/106/106 104/104/104
f 110/110/110 109/109/109 108/108/108
f 111/111/111 110/110/110 108/108/108
f 114/114/114 113/113/113 112/112/112
f 115/115/115 114/114/114 112/112/112
f 118/118/118 117/117/117 116/116/116
f 119/119/119 118/118/118 116/116/116
f 122/122/122 121/121/121 120/120/120
f 123/123/123 122/122/122 120/120/120
f 126/126/126 125/125/125 124/124/124
f 127/127/127 126/126/126 124/124/124
f 130/130/130 129/129/129 128/128/128
f 131/131/131 130/130/130 128/128/128
f 134/134/134 133/133/133 132/132/132
f 135/135/135 134/134/134 132/132/132
f 138/138/138 137/137/137 136/136/136
f 139/139/139 138/138/138 136/136/136
f 142/142/142 141/141/141 140/140/140
f 140/140/140 141/141/141 143/143/143
f 144/144/144 142/142/142 140/140/140
f 141/141/141 145/145/145 143/143/143
f 146/146/146 142/142/142 144/144/144
f 143/143/143 145/145/145 147/147/147
f 148/148/148 146/146/146 144/144/144
f 145/145/145 149/149/149 147/147/147
f 150/150/150 146/146/146 148/148/148
f 147/147/147 149/149/149 151/151/151
f 151/151/151 150/150/150 148/148/148
f 149/149/149 150/150/150 151/151/151
f 154/154/154 153/153/153 152/152/152
f 155/155/155 154/154/154 152/152/152
f 152/152/152 153/153/153 156/156/156
f 157/157/157 154/154/154 155/155/155
f 153/153/153 158/158/158 156/156/156
f 159/159/159 157/157/157 155/155/155
f 156/156/156 158/158/158 160/160/160
f 161/161/161 157/157/157 159/159/159
f 158/158/158 162/162/162 160/160/160
f 163/163/163 161/161/161 159/159/159
f 160/160/160 162/162/162 163/163/163
f 162/162/162 161/161/161 163/163/163
