g SM_Item_Ammo_556_01
v 0.06565347 0.06544797 -0.04263879
v 0.06565347 0.06544797 -0.1051072
v 0.06565347 0.0001027361 -0.1051072
v 0.06565347 0.0001027361 -0.04263879
v -0.06565346 0.0001027361 -0.1051072
v -0.06565346 0.06544797 -0.1051072
v -0.06565346 0.06544797 -0.04263879
v -0.06565346 0.0001027361 -0.04263879
v -0.06565346 0.0001027361 -0.1051072
v -0.04284427 0.0001027361 -0.04263879
v -0.04284427 0.0001027361 -0.1051072
v -0.06565346 0.0001027361 -0.04263879
v -0.04284427 0.0001027361 0.1051072
v -0.06565346 0.0001027361 0.1051072
v -0.06565346 0.06544797 -0.1051072
v -0.06565346 0.0001027361 -0.1051072
v -0.04284427 0.0001027361 -0.1051072
v -0.04284427 0.06544797 -0.1051072
v -0.04243329 0.06544797 -0.09339436
v -0.06565346 0.06544797 -0.1051072
v -0.04284427 0.06544797 -0.1051072
v -0.05784491 0.06544797 -0.09257241
v -0.05784491 0.06544797 -0.03750159
v -0.06565346 0.06544797 -0.04263879
v -0.04243329 0.06544797 -0.03852903
v -0.06565346 0.06544797 0.1051072
v -0.05784491 0.06544797 0.09257241
v -0.04243329 0.06544797 0.09154496
v -0.04284427 0.06544797 0.1051072
v -0.06565346 0.0001027361 0.1051072
v -0.06565346 0.06544797 0.1051072
v -0.04284427 0.06544797 0.1051072
v -0.04284427 0.0001027361 0.1051072
v 0.03277536 0.06544797 0.1051072
v 0.06565347 0.06544797 0.1051072
v 0.06565347 0.0001027361 0.1051072
v 0.03277536 0.0001027361 0.1051072
v -0.0001027361 0.06544797 0.1051072
v -0.0001027361 0.0001027361 0.1051072
v -0.0303095 0.06544797 0.1051072
v -0.0303095 0.0001027361 0.1051072
v 0.02887109 0.06544797 -0.09894254
v 0.05784491 0.06544797 -0.08702423
v 0.05784491 0.06544797 -0.0321589
v 0.02887109 0.06544797 -0.04387172
v 0.02887109 0.06544797 0.08599678
v 0.05784491 0.06544797 0.0979151
v 0.03277536 0.0001027361 -0.1051072
v 0.06565347 0.0001027361 -0.1051072
v 0.06565347 0.06544797 -0.1051072
v 0.03277536 0.06544797 -0.1051072
v -0.0001027361 0.0001027361 -0.1051072
v -0.0001027361 0.06544797 -0.1051072
v -0.0303095 0.0001027361 -0.1051072
v -0.0303095 0.06544797 -0.1051072
v 0.06565347 0.0001027361 -0.04263879
v 0.06565347 0.0001027361 -0.1051072
v 0.03277536 0.0001027361 -0.1051072
v 0.03277536 0.0001027361 -0.04263879
v -0.0001027361 0.0001027361 -0.1051072
v 0.03277536 0.0001027361 0.1051072
v 0.06565347 0.0001027361 0.1051072
v -0.0001027361 0.0001027361 0.1051072
v -0.0001027361 0.0001027361 -0.04263879
v -0.0303095 0.0001027361 0.1051072
v -0.0303095 0.0001027361 -0.04263879
v -0.0303095 0.0001027361 -0.1051072
v 0.02887109 0.06544797 -0.04387172
v 0.02887109 0.06544797 0.08599678
v 0.000102751 0.06544797 0.08599678
v 0.000102751 0.06544797 -0.04387172
v 0.06565347 0.0001027361 0.1051072
v 0.06565347 0.06544797 0.1051072
v 0.06565347 0.06544797 -0.04263879
v 0.06565347 0.0001027361 -0.04263879
v -0.06565346 0.06544797 -0.04263879
v -0.06565346 0.06544797 0.1051072
v -0.06565346 0.0001027361 0.1051072
v -0.06565346 0.0001027361 -0.04263879
v -0.02989852 0.06544797 -0.09462729
v -0.04284427 0.06544797 -0.1051072
v -0.0303095 0.06544797 -0.1051072
v -0.04243329 0.06544797 -0.09339436
v -0.02989852 0.06544797 -0.03955647
v -0.04243329 0.06544797 -0.03852903
v -0.04243329 0.06544797 0.09154496
v -0.02989852 0.06544797 0.09031203
v -0.0303095 0.06544797 0.1051072
v -0.04284427 0.06544797 0.1051072
v -0.04284427 0.0001027361 -0.1051072
v -0.0303095 0.0001027361 -0.1051072
v -0.0303095 0.06544797 -0.1051072
v -0.04284427 0.06544797 -0.1051072
v -0.04284427 0.0001027361 -0.04263879
v -0.0303095 0.0001027361 -0.1051072
v -0.04284427 0.0001027361 -0.1051072
v -0.0303095 0.0001027361 -0.04263879
v -0.04284427 0.0001027361 0.1051072
v -0.0303095 0.0001027361 0.1051072
v -0.04284427 0.06544797 0.1051072
v -0.0303095 0.06544797 0.1051072
v -0.0303095 0.0001027361 0.1051072
v -0.04284427 0.0001027361 0.1051072
v -0.02989852 0.06544797 0.09031203
v -0.0001027361 0.06544797 0.1051072
v -0.0303095 0.06544797 0.1051072
v 0.000102751 0.06544797 0.08599678
v 0.03277536 0.06544797 0.1051072
v 0.02887109 0.06544797 0.08599678
v 0.000102751 0.06544797 -0.04387172
v 0.06565347 0.06544797 0.1051072
v 0.05784491 0.06544797 0.0979151
v -0.02989852 0.06544797 -0.03955647
v 0.05784491 0.06544797 -0.0321589
v 0.06565347 0.06544797 -0.04263879
v 0.06565347 0.06544797 -0.1051072
v 0.05784491 0.06544797 -0.08702423
v 0.02887109 0.06544797 -0.09894254
v 0.03277536 0.06544797 -0.1051072
v -0.02989852 0.06544797 -0.09462729
v -0.0001027361 0.06544797 -0.1051072
v 0.000102751 0.06544797 -0.09894254
v -0.0303095 0.06544797 -0.1051072
v 0.02887109 0.06544797 -0.04387172
vt 0.1329902 0.205915
vt 0.1329902 0.205915
vt 0.1329902 0.205915
vt 0.1329902 0.205915
vt 0.1329902 0.205915
vt 0.1329902 0.205915
vt 0.1329902 0.205915
vt 0.1329902 0.205915
vt 0.1466636 0.2788398
vt 0.1466636 0.2788398
vt 0.1466636 0.2788398
vt 0.1466636 0.2788398
vt 0.1466636 0.2788398
vt 0.1466636 0.2788398
vt 0.1329902 0.205915
vt 0.1329902 0.205915
vt 0.1329902 0.205915
vt 0.1329902 0.205915
vt 0.1466636 0.2788398
vt 0.1466636 0.2788398
vt 0.1466636 0.2788398
vt 0.1466636 0.2788398
vt 0.1466636 0.2788398
vt 0.1466636 0.2788398
vt 0.1466636 0.2788398
vt 0.1466636 0.2788398
vt 0.1466636 0.2788398
vt 0.1466636 0.2788398
vt 0.1466636 0.2788398
vt 0.1329902 0.205915
vt 0.1329902 0.205915
vt 0.1329902 0.205915
vt 0.1329902 0.205915
vt 0.1329902 0.205915
vt 0.1329902 0.205915
vt 0.1329902 0.205915
vt 0.1329902 0.205915
vt 0.1329902 0.205915
vt 0.1329902 0.205915
vt 0.1329902 0.205915
vt 0.1329902 0.205915
vt 0.1329902 0.2070544
vt 0.1329902 0.2070544
vt 0.1329902 0.2070544
vt 0.1329902 0.2070544
vt 0.1329902 0.2070544
vt 0.1329902 0.2070544
vt 0.1329902 0.205915
vt 0.1329902 0.205915
vt 0.1329902 0.205915
vt 0.1329902 0.205915
vt 0.1329902 0.205915
vt 0.1329902 0.205915
vt 0.1329902 0.205915
vt 0.1329902 0.205915
vt 0.1466636 0.2788398
vt 0.1466636 0.2788398
vt 0.1466636 0.2788398
vt 0.1466636 0.2788398
vt 0.1466636 0.2788398
vt 0.1466636 0.2788398
vt 0.1466636 0.2788398
vt 0.1466636 0.2788398
vt 0.1466636 0.2788398
vt 0.1466636 0.2788398
vt 0.1466636 0.2788398
vt 0.1466636 0.2788398
vt 0.102225 0.3711352
vt 0.102225 0.3711352
vt 0.102225 0.3711352
vt 0.102225 0.3711352
vt 0.1329902 0.205915
vt 0.1329902 0.205915
vt 0.1329902 0.205915
vt 0.1329902 0.205915
vt 0.1329902 0.205915
vt 0.1329902 0.205915
vt 0.1329902 0.205915
vt 0.1329902 0.205915
vt 0.08057547 0.2549113
vt 0.08057547 0.2549113
vt 0.08057547 0.2549113
vt 0.08057547 0.2549113
vt 0.08057547 0.2549113
vt 0.08057547 0.2549113
vt 0.08057547 0.2549113
vt 0.08057547 0.2549113
vt 0.08057547 0.2549113
vt 0.08057547 0.2549113
vt 0.08057547 0.2549113
vt 0.08057547 0.2549113
vt 0.08057547 0.2549113
vt 0.08057547 0.2549113
vt 0.08057547 0.2549113
vt 0.08057547 0.2549113
vt 0.08057547 0.2549113
vt 0.08057547 0.2549113
vt 0.08057547 0.2549113
vt 0.08057547 0.2549113
vt 0.08057547 0.2549113
vt 0.08057547 0.2549113
vt 0.08057547 0.2549113
vt 0.08057547 0.2549113
vt 0.1466636 0.2788398
vt 0.1466636 0.2788398
vt 0.1466636 0.2788398
vt 0.1466636 0.2788398
vt 0.1466636 0.2788398
vt 0.1466636 0.2788398
vt 0.1466636 0.2788398
vt 0.1466636 0.2788398
vt 0.1466636 0.2788398
vt 0.1466636 0.2788398
vt 0.1466636 0.2788398
vt 0.1466636 0.2788398
vt 0.1466636 0.2788398
vt 0.1466636 0.2788398
vt 0.1466636 0.2788398
vt 0.1466636 0.2788398
vt 0.1466636 0.2788398
vt 0.1466636 0.2788398
vt 0.1466636 0.2788398
vt 0.1466636 0.2788398
vt 0.1466636 0.2788398
vn 0.999874 0.01587105 -0.0003439156
vn 0.999874 0.01587105 -0.0003439156
vn 0.999874 0.01587105 -0.0003439156
vn 0.999874 0.01587105 -0.0003439156
vn -0.999874 0.01587105 -0.0003439156
vn -0.999874 0.01587105 -0.0003439156
vn -0.999874 0.01587105 -0.0003439156
vn -0.999874 0.01587105 -0.0003439156
vn -0.01587105 -0.999874 -0.000345267
vn -0.01587105 -0.999874 -0.000345267
vn -0.01587105 -0.999874 -0.000345267
vn -0.01587105 -0.999874 -0.000345267
vn -0.01587105 -0.999874 -0.000345267
vn -0.01587105 -0.999874 -0.000345267
vn -0.01587105 0.01587105 -0.9997481
vn -0.01587105 0.01587105 -0.9997481
vn -0.01587105 0.01587105 -0.9997481
vn -0.01587105 0.01587105 -0.9997481
vn -0.01587105 0.999874 -0.000345267
vn -0.01587105 0.999874 -0.000345267
vn -0.01587105 0.999874 -0.000345267
vn -0.01587105 0.999874 -0.000345267
vn -0.01587105 0.999874 -0.000345267
vn -0.01587105 0.999874 -0.000345267
vn -0.01587105 0.999874 -0.000345267
vn -0.01587105 0.999874 -0.000345267
vn -0.01587105 0.999874 -0.000345267
vn -0.01587105 0.999874 -0.000345267
vn -0.01587105 0.999874 -0.000345267
vn -0.01587105 0.01587105 0.9997481
vn -0.01587105 0.01587105 0.9997481
vn -0.01587105 0.01587105 0.9997481
vn -0.01587105 0.01587105 0.9997481
vn -0.01587105 0.01587105 0.9997481
vn -0.01587105 0.01587105 0.9997481
vn -0.01587105 0.01587105 0.9997481
vn -0.01587105 0.01587105 0.9997481
vn -0.01587105 0.01587105 0.9997481
vn -0.01587105 0.01587105 0.9997481
vn -0.01587105 0.01587105 0.9997481
vn -0.01587105 0.01587105 0.9997481
vn -0.01587105 0.999874 -0.000345267
vn -0.01587105 0.999874 -0.000345267
vn -0.01587105 0.999874 -0.000345267
vn -0.01587105 0.999874 -0.000345267
vn -0.01587105 0.999874 -0.000345267
vn -0.01587105 0.999874 -0.000345267
vn -0.01587105 0.01587105 -0.9997481
vn -0.01587105 0.01587105 -0.9997481
vn -0.01587105 0.01587105 -0.9997481
vn -0.01587105 0.01587105 -0.9997481
vn -0.01587105 0.01587105 -0.9997481
vn -0.01587105 0.01587105 -0.9997481
vn -0.01587105 0.01587105 -0.9997481
vn -0.01587105 0.01587105 -0.9997481
vn -0.01587105 -0.999874 -0.000345267
vn -0.01587105 -0.999874 -0.000345267
vn -0.01587105 -0.999874 -0.000345267
vn -0.01587105 -0.999874 -0.000345267
vn -0.01587105 -0.999874 -0.000345267
vn -0.01587105 -0.999874 -0.000345267
vn -0.01587105 -0.999874 -0.000345267
vn -0.01587105 -0.999874 -0.000345267
vn -0.01587105 -0.999874 -0.000345267
vn -0.01587105 -0.999874 -0.000345267
vn -0.01587105 -0.999874 -0.000345267
vn -0.01587105 -0.999874 -0.000345267
vn -0.01587105 0.999874 -0.000345267
vn -0.01587105 0.999874 -0.000345267
vn -0.01587105 0.999874 -0.000345267
vn -0.01587105 0.999874 -0.000345267
vn 0.999874 0.01587105 -0.0003439156
vn 0.999874 0.01587105 -0.0003439156
vn 0.999874 0.01587105 -0.0003439156
vn 0.999874 0.01587105 -0.0003439156
vn -0.999874 0.01587105 -0.0003439156
vn -0.999874 0.01587105 -0.0003439156
vn -0.999874 0.01587105 -0.0003439156
vn -0.999874 0.01587105 -0.0003439156
vn -0.01587105 0.999874 -0.000345267
vn -0.01587105 0.999874 -0.000345267
vn -0.01587105 0.999874 -0.000345267
vn -0.01587105 0.999874 -0.000345267
vn -0.01587105 0.999874 -0.000345267
vn -0.01587105 0.999874 -0.000345267
vn -0.01587105 0.999874 -0.000345267
vn -0.01587105 0.999874 -0.000345267
vn -0.01587105 0.999874 -0.000345267
vn -0.01587105 0.999874 -0.000345267
vn -0.01587105 0.01587105 -0.9997481
vn -0.01587105 0.01587105 -0.9997481
vn -0.01587105 0.01587105 -0.9997481
vn -0.01587105 0.01587105 -0.9997481
vn -0.01587105 -0.999874 -0.000345267
vn -0.01587105 -0.999874 -0.000345267
vn -0.01587105 -0.999874 -0.000345267
vn -0.01587105 -0.999874 -0.000345267
vn -0.01587105 -0.999874 -0.000345267
vn -0.01587105 -0.999874 -0.000345267
vn -0.01587105 0.01587105 0.9997481
vn -0.01587105 0.01587105 0.9997481
vn -0.01587105 0.01587105 0.9997481
vn -0.01587105 0.01587105 0.9997481
vn -0.01587105 0.999874 -0.000345267
vn -0.01587105 0.999874 -0.000345267
vn -0.01587105 0.999874 -0.000345267
vn -0.01587105 0.999874 -0.000345267
vn -0.01587105 0.999874 -0.000345267
vn -0.01587105 0.999874 -0.000345267
vn -0.01587105 0.999874 -0.000345267
vn -0.01587105 0.999874 -0.000345267
vn -0.01587105 0.999874 -0.000345267
vn -0.01587105 0.999874 -0.000345267
vn -0.01587105 0.999874 -0.000345267
vn -0.01587105 0.999874 -0.000345267
vn -0.01587105 0.999874 -0.000345267
vn -0.01587105 0.999874 -0.000345267
vn -0.01587105 0.999874 -0.000345267
vn -0.01587105 0.999874 -0.000345267
vn -0.01587105 0.999874 -0.000345267
vn -0.01587105 0.999874 -0.000345267
vn -0.01587105 0.999874 -0.000345267
vn -0.01587105 0.999874 -0.000345267
vn -0.01587105 0.999874 -0.000345267
g SM_Item_Ammo_556_01_0
f 3/3/3 2/2/2 1/1/1
f 4/4/4 3/3/3 1/1/1
f 7/7/7 6/6/6 5/5/5
f 8/8/8 7/7/7 5/5/5
f 11/11/11 10/10/10 9/9/9
f 10/10/10 12/12/12 9/9/9
f 10/10/10 13/13/13 12/12/12
f 13/13/13 14/14/14 12/12/12
f 17/17/17 16/16/16 15/15/15
f 18/18/18 17/17/17 15/15/15
f 21/21/21 20/20/20 19/19/19
f 20/20/20 22/22/22 19/19/19
f 19/19/19 22/22/22 23/23/23
f 23/23/23 22/22/22 20/20/20
f 24/24/24 23/23/23 20/20/20
f 25/25/25 19/19/19 23/23/23
f 24/24/24 26/26/26 23/23/23
f 25/25/25 23/23/23 27/27/27
f 26/26/26 27/27/27 23/23/23
f 28/28/28 25/25/25 27/27/27
f 28/28/28 27/27/27 26/26/26
f 29/29/29 28/28/28 26/26/26
f 32/32/32 31/31/31 30/30/30
f 33/33/33 32/32/32 30/30/30
f 36/36/36 35/35/35 34/34/34
f 37/37/37 36/36/36 34/34/34
f 37/37/37 34/34/34 38/38/38
f 39/39/39 37/37/37 38/38/38
f 39/39/39 38/38/38 40/40/40
f 41/41/41 39/39/39 40/40/40
f 44/44/44 43/43/43 42/42/42
f 45/45/45 44/44/44 42/42/42
f 45/45/45 46/46/46 44/44/44
f 46/46/46 47/47/47 44/44/44
f 50/50/50 49/49/49 48/48/48
f 51/51/51 50/50/50 48/48/48
f 51/51/51 48/48/48 52/52/52
f 53/53/53 51/51/51 52/52/52
f 53/53/53 52/52/52 54/54/54
f 55/55/55 53/53/53 54/54/54
f 58/58/58 57/57/57 56/56/56
f 59/59/59 58/58/58 56/56/56
f 60/60/60 58/58/58 59/59/59
f 59/59/59 56/56/56 61/61/61
f 56/56/56 62/62/62 61/61/61
f 59/59/59 61/61/61 63/63/63
f 64/64/64 59/59/59 63/63/63
f 64/64/64 60/60/60 59/59/59
f 64/64/64 63/63/63 65/65/65
f 66/66/66 64/64/64 65/65/65
f 60/60/60 64/64/64 66/66/66
f 67/67/67 60/60/60 66/66/66
f 70/70/70 69/69/69 68/68/68
f 71/71/71 70/70/70 68/68/68
f 74/74/74 73/73/73 72/72/72
f 75/75/75 74/74/74 72/72/72
f 78/78/78 77/77/77 76/76/76
f 79/79/79 78/78/78 76/76/76
f 82/82/82 81/81/81 80/80/80
f 81/81/81 83/83/83 80/80/80
f 84/84/84 80/80/80 83/83/83
f 85/85/85 84/84/84 83/83/83
f 84/84/84 85/85/85 86/86/86
f 87/87/87 84/84/84 86/86/86
f 88/88/88 87/87/87 86/86/86
f 89/89/89 88/88/88 86/86/86
f 92/92/92 91/91/91 90/90/90
f 93/93/93 92/92/92 90/90/90
f 96/96/96 95/95/95 94/94/94
f 95/95/95 97/97/97 94/94/94
f 94/94/94 97/97/97 98/98/98
f 97/97/97 99/99/99 98/98/98
f 102/102/102 101/101/101 100/100/100
f 103/103/103 102/102/102 100/100/100
f 106/106/106 105/105/105 104/104/104
f 105/105/105 107/107/107 104/104/104
f 105/105/105 108/108/108 107/107/107
f 108/108/108 109/109/109 107/107/107
f 107/107/107 110/110/110 104/104/104
f 108/108/108 111/111/111 109/109/109
f 111/111/111 112/112/112 109/109/109
f 110/110/110 113/113/113 104/104/104
f 114/114/114 112/112/112 111/111/111
f 115/115/115 114/114/114 111/111/111
f 115/115/115 116/116/116 114/114/114
f 116/116/116 117/117/117 114/114/114
f 118/118/118 117/117/117 116/116/116
f 119/119/119 118/118/118 116/116/116
f 113/113/113 110/110/110 120/120/120
f 119/119/119 121/121/121 118/118/118
f 110/110/110 122/122/122 120/120/120
f 121/121/121 122/122/122 118/118/118
f 123/123/123 120/120/120 122/122/122
f 121/121/121 123/123/123 122/122/122
f 110/110/110 124/124/124 122/122/122
f 124/124/124 118/118/118 122/122/122
