g SM_Item_Gem_02
v 0.1267791 0.04597557 -0.1244559
v 0.1402044 0.1622515 0.1273627
v 0.1502194 0.2724695 0.03448927
v 0.1267791 0.04597557 -0.1244559
v 0.1502194 0.2724695 0.03448927
v 0.07550168 0.3154821 -0.08144903
v 0.1267791 0.04597557 -0.1244559
v 0.07550168 0.3154821 -0.08144903
v -0.04017305 0.2660923 -0.1525369
v 0.1267791 0.04597557 -0.1244559
v -0.04017305 0.2660923 -0.1525369
v -0.1290479 0.1532307 -0.1371331
v 0.1267791 0.04597557 -0.1244559
v -0.1290479 0.1532307 -0.1371331
v -0.1390625 0.04301155 -0.04425895
v 0.1267791 0.04597557 -0.1244559
v -0.1390625 0.04301155 -0.04425895
v -0.06435263 0 0.07167935
v 0.1267791 0.04597557 -0.1244559
v -0.06435263 0 0.07167935
v 0.05132961 0.04939091 0.1427679
v 0.1267791 0.04597557 -0.1244559
v 0.05132961 0.04939091 0.1427679
v 0.1402044 0.1622515 0.1273627
v 0.05132961 0.04939091 0.1427679
v -0.007419884 0.1201043 0.1525365
v 0.05923569 0.2047548 0.140983
v 0.1402044 0.1622515 0.1273627
v 0.1402044 0.1622515 0.1273627
v 0.05923569 0.2047548 0.140983
v 0.06674731 0.2874212 0.07132351
v 0.1502194 0.2724695 0.03448927
v 0.1502194 0.2724695 0.03448927
v 0.06674731 0.2874212 0.07132351
v 0.01071274 0.3196821 -0.01563352
v 0.07550168 0.3154821 -0.08144903
v 0.07550168 0.3154821 -0.08144903
v 0.01071274 0.3196821 -0.01563352
v -0.07604563 0.2826376 -0.06895101
v -0.04017305 0.2660923 -0.1525369
v -0.04017305 0.2660923 -0.1525369
v -0.07604563 0.2826376 -0.06895101
v -0.142715 0.1979871 -0.05739838
v -0.1290479 0.1532307 -0.1371331
v -0.1290479 0.1532307 -0.1371331
v -0.142715 0.1979871 -0.05739838
v -0.1502203 0.11532 0.01226038
v -0.1390625 0.04301155 -0.04425895
v -0.1390625 0.04301155 -0.04425895
v -0.1502203 0.11532 0.01226038
v -0.09417772 0.08305979 0.09921741
v -0.06435263 0 0.07167935
v -0.06435263 0 0.07167935
v -0.09417772 0.08305979 0.09921741
v -0.007419884 0.1201043 0.1525365
v 0.05132961 0.04939091 0.1427679
v -0.1502203 0.11532 0.01226038
v -0.04173625 0.2013702 0.04179096
v -0.09417772 0.08305979 0.09921741
v -0.142715 0.1979871 -0.05739838
v -0.007419884 0.1201043 0.1525365
v -0.07604563 0.2826376 -0.06895101
v 0.05923569 0.2047548 0.140983
v 0.01071274 0.3196821 -0.01563352
v 0.06674731 0.2874212 0.07132351
vt 0.3110295 0.3067225
vt 0.3110296 0.3067225
vt 0.3110296 0.3067225
vt 0.3110295 0.3067225
vt 0.3110296 0.3067225
vt 0.3110295 0.3067225
vt 0.3110295 0.3067225
vt 0.3110295 0.3067225
vt 0.3110295 0.3067225
vt 0.3110295 0.3067225
vt 0.3110295 0.3067225
vt 0.3110295 0.3067225
vt 0.3110295 0.3067225
vt 0.3110295 0.3067225
vt 0.3110295 0.3067225
vt 0.3110295 0.3067225
vt 0.3110295 0.3067225
vt 0.3110295 0.3067225
vt 0.3110295 0.3067225
vt 0.3110295 0.3067225
vt 0.3110295 0.3067225
vt 0.3110295 0.3067225
vt 0.3110296 0.3067225
vt 0.3110296 0.3067225
vt 0.3110296 0.3067225
vt 0.3110296 0.3067225
vt 0.3110296 0.3067225
vt 0.3110296 0.3067225
vt 0.3110296 0.3067225
vt 0.3110296 0.3067225
vt 0.3110296 0.3067225
vt 0.3110296 0.3067225
vt 0.3110296 0.3067225
vt 0.3110296 0.3067225
vt 0.3110295 0.3067225
vt 0.3110295 0.3067225
vt 0.3110295 0.3067225
vt 0.3110295 0.3067225
vt 0.3110295 0.3067225
vt 0.3110295 0.3067225
vt 0.3110295 0.3067225
vt 0.3110295 0.3067225
vt 0.3110295 0.3067225
vt 0.3110295 0.3067225
vt 0.3110295 0.3067225
vt 0.3110295 0.3067225
vt 0.3110295 0.3067225
vt 0.3110295 0.3067225
vt 0.3110295 0.3067225
vt 0.3110295 0.3067225
vt 0.3110295 0.3067225
vt 0.3110295 0.3067225
vt 0.3110295 0.3067225
vt 0.3110295 0.3067225
vt 0.3110295 0.3067225
vt 0.3110295 0.3067225
vt 0.3110295 0.3067225
vt 0.3110295 0.3067224
vt 0.3110295 0.3067224
vt 0.3110295 0.3067225
vt 0.3110295 0.3067224
vt 0.3110296 0.3067225
vt 0.3110295 0.3067223
vt 0.3110296 0.3067224
vt 0.3110296 0.3067224
vn 0.9952231 -0.09728792 -0.008136416
vn 0.9952231 -0.09728792 -0.008136416
vn 0.9952231 -0.09728792 -0.008136416
vn 0.85432 0.2364094 -0.4628693
vn 0.85432 0.2364094 -0.4628693
vn 0.85432 0.2364094 -0.4628693
vn 0.439729 0.2225167 -0.870129
vn 0.439729 0.2225167 -0.870129
vn 0.439729 0.2225167 -0.870129
vn -0.005714176 -0.1308088 -0.9913912
vn -0.005714176 -0.1308088 -0.9913912
vn -0.005714176 -0.1308088 -0.9913912
vn -0.2210678 -0.6166045 -0.7555978
vn -0.2210678 -0.6166045 -0.7555978
vn -0.2210678 -0.6166045 -0.7555978
vn -0.08017203 -0.9502858 -0.3008808
vn -0.08017203 -0.9502858 -0.3008808
vn -0.08017203 -0.9502858 -0.3008808
vn 0.3344204 -0.9363995 0.1063901
vn 0.3344204 -0.9363995 0.1063901
vn 0.3344204 -0.9363995 0.1063901
vn 0.779881 -0.5830626 0.227648
vn 0.779881 -0.5830626 0.227648
vn 0.779881 -0.5830626 0.227648
vn 0.1673192 0 0.9859028
vn 0.1673192 0 0.9859028
vn 0.1673192 0 0.9859028
vn 0.1673192 0 0.9859028
vn 0.4159038 0.5636061 0.7137032
vn 0.4159038 0.5636061 0.7137032
vn 0.4159038 0.5636061 0.7137032
vn 0.4159038 0.5636061 0.7137032
vn 0.2532687 0.9487965 0.1887859
vn 0.2532687 0.9487965 0.1887859
vn 0.2532687 0.9487965 0.1887859
vn 0.2532687 0.9487965 0.1887859
vn -0.2253598 0.9327646 -0.2813596
vn -0.2253598 0.9327646 -0.2813596
vn -0.2253598 0.9327646 -0.2813596
vn -0.2253598 0.9327646 -0.2813596
vn -0.7395537 0.5249058 -0.4213482
vn -0.7395537 0.5249058 -0.4213482
vn -0.7395537 0.5249058 -0.4213482
vn -0.7395537 0.5249058 -0.4213482
vn -0.9881593 -0.03593553 -0.1491635
vn -0.9881593 -0.03593553 -0.1491635
vn -0.9881593 -0.03593553 -0.1491635
vn -0.9881593 -0.03593553 -0.1491635
vn -0.8255243 -0.4210639 0.3757857
vn -0.8255243 -0.4210639 0.3757857
vn -0.8255243 -0.4210639 0.3757857
vn -0.8255243 -0.4210639 0.3757857
vn -0.3469104 -0.4050513 0.8459235
vn -0.3469104 -0.4050513 0.8459235
vn -0.3469104 -0.4050513 0.8459235
vn -0.3469104 -0.4050513 0.8459235
vn -0.5951031 0.5487627 0.5871215
vn -0.5951157 0.5487729 0.5870994
vn -0.595116 0.5487624 0.5871089
vn -0.5950941 0.5487831 0.5871117
vn -0.5951337 0.5487581 0.587095
vn -0.5951017 0.5487903 0.5870972
vn -0.5951322 0.5487689 0.5870863
vn -0.5951205 0.548777 0.5870906
vn -0.5951241 0.5487803 0.5870838
g SM_Item_Gem_02_0
f 3/3/3 2/2/2 1/1/1
f 6/6/6 5/5/5 4/4/4
f 9/9/9 8/8/8 7/7/7
f 12/12/12 11/11/11 10/10/10
f 15/15/15 14/14/14 13/13/13
f 18/18/18 17/17/17 16/16/16
f 21/21/21 20/20/20 19/19/19
f 24/24/24 23/23/23 22/22/22
f 27/27/27 26/26/26 25/25/25
f 28/28/28 27/27/27 25/25/25
f 31/31/31 30/30/30 29/29/29
f 32/32/32 31/31/31 29/29/29
f 35/35/35 34/34/34 33/33/33
f 36/36/36 35/35/35 33/33/33
f 39/39/39 38/38/38 37/37/37
f 40/40/40 39/39/39 37/37/37
f 43/43/43 42/42/42 41/41/41
f 44/44/44 43/43/43 41/41/41
f 47/47/47 46/46/46 45/45/45
f 48/48/48 47/47/47 45/45/45
f 51/51/51 50/50/50 49/49/49
f 52/52/52 51/51/51 49/49/49
f 55/55/55 54/54/54 53/53/53
f 56/56/56 55/55/55 53/53/53
f 59/59/59 58/58/58 57/57/57
f 57/57/57 58/58/58 60/60/60
f 61/61/61 58/58/58 59/59/59
f 60/60/60 58/58/58 62/62/62
f 63/63/63 58/58/58 61/61/61
f 62/62/62 58/58/58 64/64/64
f 65/65/65 58/58/58 63/63/63
f 64/64/64 58/58/58 65/65/65
