g SM_Item_Ammo_762_01
v 0.03790323 0.01770562 0.1341694
v -0.03790317 0.01770562 0.1341694
v -0.03790317 0.1008566 0.1341694
v 0.03790323 0.1008566 0.1341694
v -0.03790317 0.01770562 -0.1341695
v 0.03790323 0.01770562 -0.1341695
v 0.03790323 0.1008566 -0.1341695
v -0.03790317 0.1008566 -0.1341695
v -0.03790317 0.0001311153 0.1341694
v -0.03790317 0.01770562 0.1341694
v 0.03790323 0.01770562 0.1341694
v 0.03790323 0.0001311153 0.1341694
v -0.03790317 0.01770562 -0.1341695
v -0.03790317 0.0001311153 -0.1341695
v 0.03790323 0.0001311153 -0.1341695
v 0.03790323 0.01770562 -0.1341695
v -0.03790317 0.1008566 0.1341694
v -0.03790317 0.1186934 0.1341694
v 0.03790323 0.1186934 0.1341694
v 0.03790323 0.1008566 0.1341694
v -0.03790317 0.1186934 -0.1341695
v -0.03790317 0.1008566 -0.1341695
v 0.03790323 0.1008566 -0.1341695
v 0.03790323 0.1186934 -0.1341695
v -0.03790317 0.1186934 -0.06701919
v -0.03790317 0.1186934 -0.1341695
v 0.03790323 0.1186934 -0.1341695
v 0.03790323 0.1186934 -0.06701919
v 0.03790323 0.1186934 0.06701912
v -0.03790317 0.1186934 0.06701912
v -0.03790317 0.1186934 0.1341694
v 0.03790323 0.1186934 0.1341694
v -0.03790317 0.0001311153 -0.1341695
v 0.03790323 0.0001311153 -0.06701919
v 0.03790323 0.0001311153 -0.1341695
v -0.03790317 0.0001311153 -0.06701919
v -0.03790317 0.0001311153 0.06701912
v 0.03790323 0.0001311153 0.06701912
v 0.03790323 0.0001311153 0.1341694
v -0.03790317 0.0001311153 0.1341694
v 0.03790323 0.01770562 -0.06701919
v 0.03790323 0.01770562 -0.1341695
v 0.03790323 0.0001311153 -0.1341695
v 0.03790323 0.0001311153 -0.06701919
v 0.03790323 0.0001311153 0.06701912
v 0.03790323 0.01770562 0.06701912
v 0.03790323 0.0001311153 0.1341694
v 0.03790323 0.01770562 0.1341694
v -0.03790317 0.0001311153 -0.1341695
v -0.03790317 0.01770562 -0.1341695
v -0.03790317 0.01770562 -0.06701919
v -0.03790317 0.0001311153 -0.06701919
v -0.03790317 0.01770562 0.06701912
v -0.03790317 0.0001311153 0.06701912
v -0.03790317 0.0001311153 0.1341694
v -0.03790317 0.01770562 0.1341694
v -0.03790317 0.1008566 -0.1341695
v -0.03790317 0.109775 -0.07593758
v -0.03790317 0.1008566 -0.07593758
v -0.03790317 0.1186934 -0.1341695
v -0.03790317 0.109775 -0.06701919
v -0.03790317 0.1186934 -0.06701919
v -0.03790317 0.1186934 0.06701912
v -0.03790317 0.109775 0.06701912
v -0.03790317 0.109775 0.07593752
v -0.03790317 0.1186934 0.1341694
v -0.03790317 0.1008566 0.07593752
v -0.03790317 0.1008566 0.1341694
v 0.03790323 0.1008566 0.1341694
v 0.03790323 0.109775 0.07593752
v 0.03790323 0.1008566 0.07593752
v 0.03790323 0.1186934 0.1341694
v 0.03790323 0.109775 0.06701912
v 0.03790323 0.1186934 0.06701912
v 0.03790323 0.1186934 -0.06701919
v 0.03790323 0.109775 -0.06701919
v 0.03790323 0.109775 -0.07593758
v 0.03790323 0.1186934 -0.1341695
v 0.03790323 0.1008566 -0.07593758
v 0.03790323 0.1008566 -0.1341695
v -0.03790317 0.01770562 0.1341694
v -0.03790317 0.1008566 0.07593752
v -0.03790317 0.1008566 0.1341694
v -0.03790317 0.07751136 0.07593752
v -0.03790317 0.07751136 0.06701912
v -0.03790317 0.01770562 0.06701912
v -0.03790317 0.01770562 -0.06701919
v -0.03790317 0.07751136 -0.06701919
v -0.03790317 0.07751136 -0.07593758
v -0.03790317 0.01770562 -0.1341695
v -0.03790317 0.1008566 -0.07593758
v -0.03790317 0.1008566 -0.1341695
v 0.03790323 0.1008566 -0.07593758
v 0.03790323 0.1008566 -0.1341695
v 0.03790323 0.01770562 -0.1341695
v 0.03790323 0.07751136 -0.07593758
v 0.03790323 0.07751136 -0.06701919
v 0.03790323 0.01770562 -0.06701919
v 0.03790323 0.01770562 0.06701912
v 0.03790323 0.07751136 0.06701912
v 0.03790323 0.07751136 0.07593752
v 0.03790323 0.01770562 0.1341694
v 0.03790323 0.1008566 0.1341694
v 0.03790323 0.1008566 0.07593752
v 0.03790323 0.1008566 -0.07593758
v 0.03790323 0.07751136 -0.07593758
v 0.03790323 0.07751136 -0.06701919
v 0.03790323 0.109775 -0.06701919
v 0.03790323 0.109775 -0.07593758
v 0.03790323 0.109775 0.06701912
v 0.03790323 0.07751136 0.06701912
v 0.03790323 0.07751136 0.07593752
v 0.03790323 0.1008566 0.07593752
v 0.03790323 0.109775 0.07593752
v -0.03790317 0.1008566 -0.07593758
v -0.03790317 0.109775 -0.07593758
v -0.03790317 0.109775 -0.06701919
v -0.03790317 0.07751136 -0.07593758
v -0.03790317 0.07751136 -0.06701919
v -0.03790317 0.07751136 0.06701912
v -0.03790317 0.109775 0.06701912
v -0.03790317 0.1008566 0.07593752
v -0.03790317 0.07751136 0.07593752
v -0.03790317 0.109775 0.07593752
vt 0.107462 0.7439343
vt 0.1302951 0.7439343
vt 0.1302951 0.7211012
vt 0.107462 0.7211012
vt 0.01612964 0.7439343
vt 0.03610859 0.7439343
vt 0.03610859 0.7211012
vt 0.01612964 0.7211012
vt 0.1759613 0.2273357
vt 0.1759613 0.2273357
vt 0.1759613 0.2273357
vt 0.1759613 0.2273357
vt 0.1759613 0.2273357
vt 0.1759613 0.2273357
vt 0.1759613 0.2273357
vt 0.1759613 0.2273357
vt 0.1759613 0.2273357
vt 0.1759613 0.2273357
vt 0.1759613 0.2273357
vt 0.1759613 0.2273357
vt 0.1759613 0.2273357
vt 0.1759613 0.2273357
vt 0.1759613 0.2273357
vt 0.1759613 0.2273357
vt 0.1759613 0.2273357
vt 0.1759613 0.2273357
vt 0.1759613 0.2273357
vt 0.1759613 0.2273357
vt 0.1759613 0.2273357
vt 0.1759613 0.2273357
vt 0.1759613 0.2273357
vt 0.1759613 0.2273357
vt 0.1759613 0.2273357
vt 0.1759613 0.2273357
vt 0.1759613 0.2273357
vt 0.1759613 0.2273357
vt 0.1759613 0.2273357
vt 0.1759613 0.2273357
vt 0.1759613 0.2273357
vt 0.1759613 0.2273357
vt 0.1759613 0.2273357
vt 0.1759613 0.2273357
vt 0.1759613 0.2273357
vt 0.1759613 0.2273357
vt 0.1759613 0.2273357
vt 0.1759613 0.2273357
vt 0.1759613 0.2273357
vt 0.1759613 0.2273357
vt 0.1759613 0.2273357
vt 0.1759613 0.2273357
vt 0.1759613 0.2273357
vt 0.1759613 0.2273357
vt 0.1759613 0.2273357
vt 0.1759613 0.2273357
vt 0.1759613 0.2273357
vt 0.1759613 0.2273357
vt 0.1759613 0.2273357
vt 0.1759613 0.2273357
vt 0.1759613 0.2273357
vt 0.1759613 0.2273357
vt 0.1759613 0.2273357
vt 0.1759613 0.2273357
vt 0.1759613 0.2273357
vt 0.1759613 0.2273357
vt 0.1759613 0.2273357
vt 0.1759613 0.2273357
vt 0.1759613 0.2273357
vt 0.1759613 0.2273357
vt 0.1759613 0.2273357
vt 0.1759613 0.2273357
vt 0.1759613 0.2273357
vt 0.1759613 0.2273357
vt 0.1759613 0.2273357
vt 0.1759613 0.2273357
vt 0.1759613 0.2273357
vt 0.1759613 0.2273357
vt 0.1759613 0.2273357
vt 0.1759613 0.2273357
vt 0.1759613 0.2273357
vt 0.1759613 0.2273357
vt 0.03610859 0.7211012
vt 0.0532334 0.6982681
vt 0.03610859 0.6982681
vt 0.0532334 0.7039763
vt 0.0532334 0.7039763
vt 0.0532334 0.7211012
vt 0.09033716 0.7211012
vt 0.09033716 0.7039763
vt 0.0931913 0.7039763
vt 0.107462 0.7211012
vt 0.0931913 0.6982681
vt 0.107462 0.6982681
vt 0.0532334 0.7211012
vt 0.03610859 0.7211012
vt 0.03610859 0.7439343
vt 0.0532334 0.7268094
vt 0.0532334 0.7268094
vt 0.0532334 0.7439343
vt 0.09033716 0.7439343
vt 0.09033716 0.7268094
vt 0.0931913 0.7268094
vt 0.107462 0.7439343
vt 0.107462 0.7211012
vt 0.0931913 0.7211012
vt 0.1017537 0.3728966
vt 0.1017537 0.3728966
vt 0.1017537 0.3728966
vt 0.1017537 0.3728966
vt 0.1017537 0.3728966
vt 0.1017537 0.3728966
vt 0.1017537 0.3728966
vt 0.1017537 0.3728966
vt 0.1017537 0.3728966
vt 0.1017537 0.3728966
vt 0.1017537 0.3728966
vt 0.1017537 0.3728966
vt 0.1017537 0.3728966
vt 0.1017537 0.3728966
vt 0.1017537 0.3728966
vt 0.1017537 0.3728966
vt 0.1017537 0.3728966
vt 0.1017537 0.3728966
vt 0.1017537 0.3728966
vt 0.1017537 0.3728966
vn -0.01587105 0.01587105 0.9997481
vn -0.01587105 0.01587105 0.9997481
vn -0.01587105 0.01587105 0.9997481
vn -0.01587105 0.01587105 0.9997481
vn -0.01587105 0.01587105 -0.9997481
vn -0.01587105 0.01587105 -0.9997481
vn -0.01587105 0.01587105 -0.9997481
vn -0.01587105 0.01587105 -0.9997481
vn -0.01587105 0.01587105 0.9997481
vn -0.01587105 0.01587105 0.9997481
vn -0.01587105 0.01587105 0.9997481
vn -0.01587105 0.01587105 0.9997481
vn -0.01587105 0.01587105 -0.9997481
vn -0.01587105 0.01587105 -0.9997481
vn -0.01587105 0.01587105 -0.9997481
vn -0.01587105 0.01587105 -0.9997481
vn -0.01587105 0.01587105 0.9997481
vn -0.01587105 0.01587105 0.9997481
vn -0.01587105 0.01587105 0.9997481
vn -0.01587105 0.01587105 0.9997481
vn -0.01587105 0.01587105 -0.9997481
vn -0.01587105 0.01587105 -0.9997481
vn -0.01587105 0.01587105 -0.9997481
vn -0.01587105 0.01587105 -0.9997481
vn -0.01587105 0.999874 -0.000345267
vn -0.01587105 0.999874 -0.000345267
vn -0.01587105 0.999874 -0.000345267
vn -0.01587105 0.999874 -0.000345267
vn -0.01587105 0.999874 -0.000345267
vn -0.01587105 0.999874 -0.000345267
vn -0.01587105 0.999874 -0.000345267
vn -0.01587105 0.999874 -0.000345267
vn -0.01587105 -0.999874 -0.000345267
vn -0.01587105 -0.999874 -0.000345267
vn -0.01587105 -0.999874 -0.000345267
vn -0.01587105 -0.999874 -0.000345267
vn -0.01587105 -0.999874 -0.000345267
vn -0.01587105 -0.999874 -0.000345267
vn -0.01587105 -0.999874 -0.000345267
vn -0.01587105 -0.999874 -0.000345267
vn 0.999874 0.01587105 -0.0003439156
vn 0.999874 0.01587105 -0.0003439156
vn 0.999874 0.01587105 -0.0003439156
vn 0.999874 0.01587105 -0.0003439156
vn 0.999874 0.01587105 -0.0003439156
vn 0.999874 0.01587105 -0.0003439156
vn 0.999874 0.01587105 -0.0003439156
vn 0.999874 0.01587105 -0.0003439156
vn -0.999874 0.01587105 -0.0003439156
vn -0.999874 0.01587105 -0.0003439156
vn -0.999874 0.01587105 -0.0003439156
vn -0.999874 0.01587105 -0.0003439156
vn -0.999874 0.01587105 -0.0003439156
vn -0.999874 0.01587105 -0.0003439156
vn -0.999874 0.01587105 -0.0003439156
vn -0.999874 0.01587105 -0.0003439156
vn -0.999874 0.01587105 -0.0003439156
vn -0.999874 0.01587105 -0.0003439156
vn -0.999874 0.01587105 -0.0003439156
vn -0.999874 0.01587105 -0.0003439156
vn -0.999874 0.01587105 -0.0003439156
vn -0.999874 0.01587105 -0.0003439156
vn -0.999874 0.01587105 -0.0003439156
vn -0.999874 0.01587105 -0.0003439156
vn -0.999874 0.01587105 -0.0003439156
vn -0.999874 0.01587105 -0.0003439156
vn -0.999874 0.01587105 -0.0003439156
vn -0.999874 0.01587105 -0.0003439156
vn 0.999874 0.01587105 -0.0003439156
vn 0.999874 0.01587105 -0.0003439156
vn 0.999874 0.01587105 -0.0003439156
vn 0.999874 0.01587105 -0.0003439156
vn 0.999874 0.01587105 -0.0003439156
vn 0.999874 0.01587105 -0.0003439156
vn 0.999874 0.01587105 -0.0003439156
vn 0.999874 0.01587105 -0.0003439156
vn 0.999874 0.01587105 -0.0003439156
vn 0.999874 0.01587105 -0.0003439156
vn 0.999874 0.01587105 -0.0003439156
vn 0.999874 0.01587105 -0.0003439156
vn -0.999874 0.01587105 -0.0003439156
vn -0.999874 0.01587105 -0.0003439156
vn -0.999874 0.01587105 -0.0003439156
vn -0.999874 0.01587105 -0.0003439156
vn -0.999874 0.01587105 -0.0003439156
vn -0.999874 0.01587105 -0.0003439156
vn -0.999874 0.01587105 -0.0003439156
vn -0.999874 0.01587105 -0.0003439156
vn -0.999874 0.01587105 -0.0003439156
vn -0.999874 0.01587105 -0.0003439156
vn -0.999874 0.01587105 -0.0003439156
vn -0.999874 0.01587105 -0.0003439156
vn 0.999874 0.01587105 -0.0003439156
vn 0.999874 0.01587105 -0.0003439156
vn 0.999874 0.01587105 -0.0003439156
vn 0.999874 0.01587105 -0.0003439156
vn 0.999874 0.01587105 -0.0003439156
vn 0.999874 0.01587105 -0.0003439156
vn 0.999874 0.01587105 -0.0003439156
vn 0.999874 0.01587105 -0.0003439156
vn 0.999874 0.01587105 -0.0003439156
vn 0.999874 0.01587105 -0.0003439156
vn 0.999874 0.01587105 -0.0003439156
vn 0.999874 0.01587105 -0.0003439156
vn 0.999874 0.01587105 -0.0003439156
vn 0.999874 0.01587105 -0.0003439156
vn 0.999874 0.01587105 -0.0003439156
vn 0.999874 0.01587105 -0.0003439156
vn 0.999874 0.01587105 -0.0003439156
vn 0.999874 0.01587105 -0.0003439156
vn 0.999874 0.01587105 -0.0003439156
vn 0.999874 0.01587105 -0.0003439156
vn 0.999874 0.01587105 -0.0003439156
vn 0.999874 0.01587105 -0.0003439156
vn -0.999874 0.01587105 -0.0003439156
vn -0.999874 0.01587105 -0.0003439156
vn -0.999874 0.01587105 -0.0003439156
vn -0.999874 0.01587105 -0.0003439156
vn -0.999874 0.01587105 -0.0003439156
vn -0.999874 0.01587105 -0.0003439156
vn -0.999874 0.01587105 -0.0003439156
vn -0.999874 0.01587105 -0.0003439156
vn -0.999874 0.01587105 -0.0003439156
vn -0.999874 0.01587105 -0.0003439156
g SM_Item_Ammo_762_01_0
f 3/3/3 2/2/2 1/1/1
f 4/4/4 3/3/3 1/1/1
f 7/7/7 6/6/6 5/5/5
f 8/8/8 7/7/7 5/5/5
f 11/11/11 10/10/10 9/9/9
f 12/12/12 11/11/11 9/9/9
f 15/15/15 14/14/14 13/13/13
f 16/16/16 15/15/15 13/13/13
f 19/19/19 18/18/18 17/17/17
f 20/20/20 19/19/19 17/17/17
f 23/23/23 22/22/22 21/21/21
f 24/24/24 23/23/23 21/21/21
f 27/27/27 26/26/26 25/25/25
f 28/28/28 27/27/27 25/25/25
f 29/29/29 28/28/28 25/25/25
f 30/30/30 29/29/29 25/25/25
f 29/29/29 30/30/30 31/31/31
f 32/32/32 29/29/29 31/31/31
f 35/35/35 34/34/34 33/33/33
f 34/34/34 36/36/36 33/33/33
f 37/37/37 36/36/36 34/34/34
f 38/38/38 37/37/37 34/34/34
f 38/38/38 39/39/39 37/37/37
f 39/39/39 40/40/40 37/37/37
f 43/43/43 42/42/42 41/41/41
f 44/44/44 43/43/43 41/41/41
f 45/45/45 44/44/44 41/41/41
f 46/46/46 45/45/45 41/41/41
f 45/45/45 46/46/46 47/47/47
f 46/46/46 48/48/48 47/47/47
f 51/51/51 50/50/50 49/49/49
f 52/52/52 51/51/51 49/49/49
f 53/53/53 51/51/51 52/52/52
f 54/54/54 53/53/53 52/52/52
f 54/54/54 55/55/55 53/53/53
f 55/55/55 56/56/56 53/53/53
f 59/59/59 58/58/58 57/57/57
f 58/58/58 60/60/60 57/57/57
f 58/58/58 61/61/61 60/60/60
f 61/61/61 62/62/62 60/60/60
f 62/62/62 61/61/61 63/63/63
f 61/61/61 64/64/64 63/63/63
f 64/64/64 65/65/65 63/63/63
f 65/65/65 66/66/66 63/63/63
f 65/65/65 67/67/67 66/66/66
f 67/67/67 68/68/68 66/66/66
f 71/71/71 70/70/70 69/69/69
f 70/70/70 72/72/72 69/69/69
f 70/70/70 73/73/73 72/72/72
f 73/73/73 74/74/74 72/72/72
f 74/74/74 73/73/73 75/75/75
f 73/73/73 76/76/76 75/75/75
f 76/76/76 77/77/77 75/75/75
f 77/77/77 78/78/78 75/75/75
f 77/77/77 79/79/79 78/78/78
f 79/79/79 80/80/80 78/78/78
f 83/83/83 82/82/82 81/81/81
f 82/82/82 84/84/84 81/81/81
f 84/84/84 85/85/85 81/81/81
f 85/85/85 86/86/86 81/81/81
f 86/86/86 85/85/85 87/87/87
f 85/85/85 88/88/88 87/87/87
f 88/88/88 89/89/89 87/87/87
f 89/89/89 90/90/90 87/87/87
f 89/89/89 91/91/91 90/90/90
f 91/91/91 92/92/92 90/90/90
f 95/95/95 94/94/94 93/93/93
f 96/96/96 95/95/95 93/93/93
f 96/96/96 97/97/97 95/95/95
f 97/97/97 98/98/98 95/95/95
f 99/99/99 98/98/98 97/97/97
f 100/100/100 99/99/99 97/97/97
f 99/99/99 100/100/100 101/101/101
f 102/102/102 99/99/99 101/101/101
f 102/102/102 101/101/101 103/103/103
f 101/101/101 104/104/104 103/103/103
f 107/107/107 106/106/106 105/105/105
f 105/105/105 108/108/108 107/107/107
f 105/105/105 109/109/109 108/108/108
f 108/108/108 110/110/110 107/107/107
f 110/110/110 111/111/111 107/107/107
f 112/112/112 111/111/111 110/110/110
f 110/110/110 113/113/113 112/112/112
f 110/110/110 114/114/114 113/113/113
f 117/117/117 116/116/116 115/115/115
f 117/117/117 115/115/115 118/118/118
f 118/118/118 119/119/119 117/117/117
f 119/119/119 120/120/120 117/117/117
f 120/120/120 121/121/121 117/117/117
f 122/122/122 121/121/121 120/120/120
f 120/120/120 123/123/123 122/122/122
f 122/122/122 124/124/124 121/121/121
