g SM_Item_Book_Open_01
v -0.0002604723 0.01797318 0.1612378
v 0.04975189 0.0565244 0.1534234
v 0.2565739 0.03881168 0.1518605
v 0.2565739 0.01745224 0.1596749
v -0.2565739 0.01745224 0.1596749
v -0.2565739 0.03881168 0.1518605
v -0.04975188 0.0565244 0.1534234
v 0.06433883 0.05600342 -0.1898907
v 0.2565739 0.01641029 -0.1883278
v 0.2565739 0.03881168 -0.1883278
v -0.0002604723 0.01641029 -0.1898907
v -0.06433883 0.05600342 -0.1898907
v -0.2565739 0.01641029 -0.1883278
v -0.2565739 0.03881168 -0.1883278
v -0.0002604723 0.004428178 -0.2044777
v 0.2596996 0.004428178 0.02005702
v 0.2664722 0.004428178 -0.2044777
v -0.0002604723 0.004428178 -0.01172167
v 0.2664722 0.007553935 0.1773876
v -0.0002604723 0.007553935 0.1773876
v -0.2664722 0.007553935 0.1773876
v -0.2596996 0.004428178 0.02005702
v -0.2664722 0.004428178 -0.2044777
v 0.2565739 0.01745224 0.1596749
v 0.2565739 0.03881168 0.1518605
v 0.2498014 0.03881168 0.02370378
v 0.2498014 0.01641029 0.02109897
v 0.2565739 0.01641029 -0.1883278
v 0.2565739 0.03881168 -0.1883278
v -0.0002604723 0.007553935 0.1773876
v 0.2664722 0.01953608 0.1758247
v 0.2664722 0.007553935 0.1773876
v -0.0002604723 0.01953608 0.1758247
v -0.2664722 0.01953608 0.1758247
v -0.2664722 0.007553935 0.1773876
v 0.2664722 0.004428178 -0.2044777
v 0.2664722 0.01641029 -0.2044777
v -0.0002604723 0.01641029 -0.2044777
v -0.0002604723 0.004428178 -0.2044777
v -0.2664722 0.004428178 -0.2044777
v -0.2664722 0.01641029 -0.2044777
v 0.2664722 0.007553935 0.1773876
v 0.2664722 0.01953608 0.1758247
v 0.2596996 0.01641029 0.020578
v 0.2596996 0.004428178 0.02005702
v 0.2664722 0.004428178 -0.2044777
v 0.2664722 0.01641029 -0.2044777
v -0.0002604723 0.01953608 0.1758247
v 0.2565739 0.01745224 0.1596749
v 0.2664722 0.01953608 0.1758247
v -0.0002604723 0.01797318 0.1612378
v -0.2565739 0.01745224 0.1596749
v -0.2664722 0.01953608 0.1758247
v 0.2664722 0.01953608 0.1758247
v 0.2565739 0.01745224 0.1596749
v 0.2498014 0.01641029 0.02109897
v 0.2596996 0.01641029 0.020578
v 0.2498014 0.01641029 0.02109897
v 0.2664722 0.01641029 -0.2044777
v 0.2596996 0.01641029 0.020578
v 0.2565739 0.01641029 -0.1883278
v -0.0002604723 0.01641029 -0.1898907
v -0.0002604723 0.01641029 -0.2044777
v -0.2664722 0.01641029 -0.2044777
v -0.2565739 0.01641029 -0.1883278
v -0.2498013 0.01641029 0.02109897
v -0.2596996 0.01641029 0.020578
v 0.2498014 0.03881168 0.02370378
v 0.2565739 0.03881168 0.1518605
v 0.04975189 0.0565244 0.1534234
v 0.0565244 0.0565244 -0.008074909
v 0.06433883 0.05600342 -0.1898907
v 0.2565739 0.03881168 -0.1883278
v 0.008074909 0.00703299 0.2602206
v -0.03047627 0.00703299 0.2602206
v -0.03047627 0.01693127 0.2633464
v 0.008074909 0.01693127 0.2633464
v 0.01328453 0.04089552 0.1773876
v -0.01641029 0.04089552 0.1773876
v -0.01536837 0.04089552 -0.213855
v 0.01380551 0.04089552 -0.2216694
v -0.008074909 0.008595854 -0.2633464
v -0.04350033 0.0190151 -0.2513643
v -0.04402131 0.01015875 -0.2451127
v -0.008595854 0.0002604723 -0.2565739
v 0.01380551 0.03047627 -0.2216694
v -0.01536837 0.03047627 -0.213855
v -0.01641029 0.03047627 0.1773876
v 0.01328453 0.03047627 0.1773876
v -0.01641029 0.03047627 0.1773876
v -0.01536837 0.03047627 -0.213855
v -0.01536837 0.04089552 -0.213855
v -0.01641029 0.04089552 0.1773876
v 0.01380551 0.03047627 -0.2216694
v 0.01328453 0.04089552 0.1773876
v 0.01380551 0.04089552 -0.2216694
v 0.01328453 0.03047627 0.1773876
v 0.009637803 0.00703299 0.2096873
v 0.009637803 0.01693127 0.212813
v 0.008074909 0.00703299 0.2602206
v 0.008074909 0.01693127 0.2633464
v 0.01380551 0.04089552 -0.2216694
v -0.01536837 0.04089552 -0.213855
v -0.04350033 0.0190151 -0.2513643
v -0.008074909 0.008595854 -0.2633464
v -0.01536837 0.04089552 -0.213855
v -0.01536837 0.03047627 -0.213855
v -0.04402131 0.01015875 -0.2451127
v -0.04350033 0.0190151 -0.2513643
v -0.01536837 0.03047627 -0.213855
v 0.01380551 0.03047627 -0.2216694
v -0.008595854 0.0002604723 -0.2565739
v -0.04402131 0.01015875 -0.2451127
v 0.01380551 0.03047627 -0.2216694
v 0.01380551 0.04089552 -0.2216694
v -0.008074909 0.008595854 -0.2633464
v -0.008595854 0.0002604723 -0.2565739
v 0.01328453 0.03047627 0.1773876
v -0.01641029 0.03047627 0.1773876
v -0.02891341 0.00703299 0.2096873
v 0.009637803 0.00703299 0.2096873
v -0.01641029 0.03047627 0.1773876
v -0.01641029 0.04089552 0.1773876
v -0.02891341 0.01693127 0.212813
v -0.02891341 0.00703299 0.2096873
v -0.01641029 0.04089552 0.1773876
v 0.01328453 0.04089552 0.1773876
v 0.009637803 0.01693127 0.212813
v -0.02891341 0.01693127 0.212813
v 0.009637803 0.00703299 0.2096873
v -0.02891341 0.00703299 0.2096873
v -0.03047627 0.00703299 0.2602206
v 0.008074909 0.00703299 0.2602206
v -0.02891341 0.00703299 0.2096873
v -0.02891341 0.01693127 0.212813
v -0.03047627 0.01693127 0.2633464
v -0.03047627 0.00703299 0.2602206
v -0.02891341 0.01693127 0.212813
v 0.009637803 0.01693127 0.212813
v 0.008074909 0.01693127 0.2633464
v -0.03047627 0.01693127 0.2633464
v -0.2565739 0.01745224 0.1596749
v -0.2498013 0.03881168 0.02370378
v -0.2565739 0.03881168 0.1518605
v -0.2498013 0.01641029 0.02109897
v -0.2565739 0.01641029 -0.1883278
v -0.2565739 0.03881168 -0.1883278
v -0.2664722 0.007553935 0.1773876
v -0.2596996 0.01641029 0.020578
v -0.2664722 0.01953608 0.1758247
v -0.2596996 0.004428178 0.02005702
v -0.2664722 0.004428178 -0.2044777
v -0.2664722 0.01641029 -0.2044777
v -0.2664722 0.01953608 0.1758247
v -0.2596996 0.01641029 0.020578
v -0.2498013 0.01641029 0.02109897
v -0.2565739 0.01745224 0.1596749
v -0.2498013 0.03881168 0.02370378
v -0.04975188 0.0565244 0.1534234
v -0.2565739 0.03881168 0.1518605
v -0.0565244 0.0565244 -0.008074909
v -0.06433883 0.05600342 -0.1898907
v -0.2565739 0.03881168 -0.1883278
v -0.0002604723 0.01745224 -0.01172167
v -0.0002604723 0.01641029 -0.1898907
v 0.06433883 0.05600342 -0.1898907
v 0.0565244 0.0565244 -0.008074909
v 0.04975189 0.0565244 0.1534234
v -0.0002604723 0.01797318 0.1612378
v -0.0565244 0.0565244 -0.008074909
v -0.06433883 0.05600342 -0.1898907
v -0.0002604723 0.01641029 -0.1898907
v -0.0002604723 0.01745224 -0.01172167
v -0.0002604723 0.01797318 0.1612378
v -0.04975188 0.0565244 0.1534234
vt 0.07067871 0.2776566
vt 0.07067871 0.2776566
vt 0.07067871 0.2776566
vt 0.07067871 0.2776566
vt 0.07067871 0.2776566
vt 0.07067871 0.2776566
vt 0.07067871 0.2776566
vt 0.07067871 0.2776566
vt 0.07067871 0.2776566
vt 0.07067871 0.2776566
vt 0.07067871 0.2776566
vt 0.07067871 0.2776566
vt 0.07067871 0.2776566
vt 0.07067871 0.2776566
vt 0.0820422 0.2533062
vt 0.0820422 0.2533062
vt 0.0820422 0.2533062
vt 0.0820422 0.2533062
vt 0.0820422 0.2533062
vt 0.0820422 0.2533062
vt 0.0820422 0.2533062
vt 0.0820422 0.2533062
vt 0.0820422 0.2533062
vt 0.07067871 0.2776566
vt 0.07067871 0.2776566
vt 0.07067871 0.2776566
vt 0.07067871 0.2776566
vt 0.07067871 0.2776566
vt 0.07067871 0.2776566
vt 0.0820422 0.2533062
vt 0.0820422 0.2533062
vt 0.0820422 0.2533062
vt 0.0820422 0.2533062
vt 0.0820422 0.2533062
vt 0.0820422 0.2533062
vt 0.0820422 0.2533062
vt 0.0820422 0.2533062
vt 0.0820422 0.2533062
vt 0.0820422 0.2533062
vt 0.0820422 0.2533062
vt 0.0820422 0.2533062
vt 0.0820422 0.2533062
vt 0.0820422 0.2533062
vt 0.0820422 0.2533062
vt 0.0820422 0.2533062
vt 0.0820422 0.2533062
vt 0.0820422 0.2533062
vt 0.0820422 0.2533062
vt 0.0820422 0.2533062
vt 0.0820422 0.2533062
vt 0.0820422 0.2533062
vt 0.0820422 0.2533062
vt 0.0820422 0.2533062
vt 0.0820422 0.2533062
vt 0.0820422 0.2533062
vt 0.0820422 0.2533062
vt 0.0820422 0.2533062
vt 0.0820422 0.2533062
vt 0.0820422 0.2533062
vt 0.0820422 0.2533062
vt 0.0820422 0.2533062
vt 0.0820422 0.2533062
vt 0.0820422 0.2533062
vt 0.0820422 0.2533062
vt 0.0820422 0.2533062
vt 0.0820422 0.2533062
vt 0.0820422 0.2533062
vt 0.1867486 0.1981121
vt 0.1867486 0.1867486
vt 0.16808 0.1867486
vt 0.1688917 0.2013588
vt 0.1697034 0.2175924
vt 0.1867486 0.2167807
vt 0.1039575 0.1778202
vt 0.1039575 0.1778202
vt 0.1039575 0.1778202
vt 0.1039575 0.1778202
vt 0.1039575 0.1778202
vt 0.1039575 0.1778202
vt 0.1039575 0.1778202
vt 0.1039575 0.1778202
vt 0.1039575 0.1778202
vt 0.1039575 0.1778202
vt 0.1039575 0.1778202
vt 0.1039575 0.1778202
vt 0.1039575 0.1778202
vt 0.1039575 0.1778202
vt 0.1039575 0.1778202
vt 0.1039575 0.1778202
vt 0.1039575 0.1778202
vt 0.1039575 0.1778202
vt 0.1039575 0.1778202
vt 0.1039575 0.1778202
vt 0.1039575 0.1778202
vt 0.1039575 0.1778202
vt 0.1039575 0.1778202
vt 0.1039575 0.1778202
vt 0.1039575 0.1778202
vt 0.1039575 0.1778202
vt 0.1039575 0.1778202
vt 0.1039575 0.1778202
vt 0.1039575 0.1778202
vt 0.1039575 0.1778202
vt 0.1039575 0.1778202
vt 0.1039575 0.1778202
vt 0.1039575 0.1778202
vt 0.1039575 0.1778202
vt 0.1039575 0.1778202
vt 0.1039575 0.1778202
vt 0.1039575 0.1778202
vt 0.1039575 0.1778202
vt 0.1039575 0.1778202
vt 0.1039575 0.1778202
vt 0.1039575 0.1778202
vt 0.1039575 0.1778202
vt 0.1039575 0.1778202
vt 0.1039575 0.1778202
vt 0.1039575 0.1778202
vt 0.1039575 0.1778202
vt 0.1039575 0.1778202
vt 0.1039575 0.1778202
vt 0.1039575 0.1778202
vt 0.1039575 0.1778202
vt 0.1039575 0.1778202
vt 0.1039575 0.1778202
vt 0.1039575 0.1778202
vt 0.1039575 0.1778202
vt 0.1039575 0.1778202
vt 0.1039575 0.1778202
vt 0.1039575 0.1778202
vt 0.1039575 0.1778202
vt 0.1039575 0.1778202
vt 0.1039575 0.1778202
vt 0.1039575 0.1778202
vt 0.1039575 0.1778202
vt 0.1039575 0.1778202
vt 0.1039575 0.1778202
vt 0.1039575 0.1778202
vt 0.1039575 0.1778202
vt 0.1039575 0.1778202
vt 0.1039575 0.1778202
vt 0.07067871 0.2776566
vt 0.07067871 0.2776566
vt 0.07067871 0.2776566
vt 0.07067871 0.2776566
vt 0.07067871 0.2776566
vt 0.07067871 0.2776566
vt 0.0820422 0.2533062
vt 0.0820422 0.2533062
vt 0.0820422 0.2533062
vt 0.0820422 0.2533062
vt 0.0820422 0.2533062
vt 0.0820422 0.2533062
vt 0.0820422 0.2533062
vt 0.0820422 0.2533062
vt 0.0820422 0.2533062
vt 0.0820422 0.2533062
vt 0.1388596 0.1981121
vt 0.1575282 0.1867486
vt 0.1388596 0.1867486
vt 0.1567166 0.2013588
vt 0.1559049 0.2175924
vt 0.1388596 0.2167807
vt 0.1640217 0.2013588
vt 0.1640217 0.2175924
vt 0.1697034 0.2175924
vt 0.1688917 0.2013588
vt 0.16808 0.1867486
vt 0.1640217 0.185937
vt 0.1567166 0.2013588
vt 0.1559049 0.2175924
vt 0.1615866 0.2175924
vt 0.1615866 0.2013588
vt 0.1615866 0.185937
vt 0.1575282 0.1867486
vn -0.01587105 0.2380652 0.9711195
vn 0.01587099 0.2380652 0.9711195
vn 0.01587099 0.2380652 0.9711195
vn 0.01587099 0.2380652 0.9711195
vn -0.01587105 0.2380652 0.9711195
vn -0.01587105 0.2380652 0.9711195
vn -0.01587105 0.2380652 0.9711195
vn 0.01587099 -0.01587099 -0.9997481
vn 0.01587099 -0.01587099 -0.9997481
vn 0.01587099 -0.01587099 -0.9997481
vn -0.01587105 -0.01587099 -0.9997481
vn -0.01587105 -0.01587099 -0.9997481
vn -0.01587105 -0.01587099 -0.9997481
vn -0.01587105 -0.01587099 -0.9997481
vn -0.01587105 -0.999874 -0.000345267
vn -0.01587105 -0.999874 -0.000345267
vn -0.01587105 -0.999874 -0.000345267
vn -0.01587105 -0.999874 -0.000345267
vn -0.01587105 -0.999874 -0.000345267
vn -0.01587105 -0.999874 -0.000345267
vn 0.01587099 -0.999874 -0.000345267
vn 0.01587099 -0.999874 -0.000345267
vn -0.01587105 -0.999874 -0.000345267
vn 0.999874 -0.01587099 -0.000346655
vn 0.999874 -0.01587099 -0.000346655
vn 0.999874 -0.01587099 -0.000346655
vn 0.999874 -0.01587099 -0.000346655
vn 0.999874 -0.01587099 -0.000346655
vn 0.999874 -0.01587099 -0.000346655
vn -0.01587105 0.1428392 0.9896187
vn -0.01587105 0.1428392 0.9896187
vn -0.01587105 0.1428392 0.9896187
vn -0.01587105 0.1428392 0.9896187
vn -0.01587105 0.1428392 0.9896187
vn -0.01587105 0.1428392 0.9896187
vn -0.01587105 0.01587105 -0.9997481
vn -0.01587105 0.01587105 -0.9997481
vn -0.01587105 0.01587105 -0.9997481
vn -0.01587105 0.01587105 -0.9997481
vn -0.01587105 0.01587105 -0.9997481
vn -0.01587105 0.01587105 -0.9997481
vn 0.999874 -0.01587099 -0.000346655
vn 0.999874 -0.01587099 -0.000346655
vn 0.999874 -0.01587099 -0.000346655
vn 0.999874 -0.01587099 -0.000346655
vn 0.999874 -0.01587099 -0.000346655
vn 0.999874 -0.01587099 -0.000346655
vn -0.01587105 0.999874 -0.000345267
vn -0.01587105 0.999874 -0.000345267
vn -0.01587105 0.999874 -0.000345267
vn -0.01587105 0.999874 -0.000345267
vn -0.01587105 0.999874 -0.000345267
vn -0.01587105 0.999874 -0.000345267
vn -0.1104315 0.9938838 0
vn -0.1104315 0.9938838 0
vn -0.1104315 0.9938838 0
vn -0.1104315 0.9938838 0
vn -0.01587105 0.999874 -0.000345267
vn -0.01587105 0.999874 -0.000345267
vn -0.01587105 0.999874 -0.000345267
vn -0.01587105 0.999874 -0.000345267
vn -0.01587105 0.999874 -0.000345267
vn -0.01587105 0.999874 -0.000345267
vn -0.01587105 0.999874 -0.000345267
vn -0.01587105 0.999874 -0.000345267
vn -0.01587105 0.999874 -0.000345267
vn -0.01587105 0.999874 -0.000345267
vn 0.07911628 0.9968654 0
vn 0.07911628 0.9968654 0
vn 0.07911628 0.9968654 0
vn 0.07911628 0.9968654 0
vn 0.07911628 0.9968654 0
vn 0.07911628 0.9968654 0
vn -0.01587105 -0.2698073 0.9627835
vn -0.01587105 -0.2698073 0.9627835
vn -0.01587105 -0.2698073 0.9627835
vn -0.01587105 -0.2698073 0.9627835
vn -0.01587105 0.999874 -0.000345267
vn -0.01587105 0.999874 -0.000345267
vn -0.01587105 0.999874 -0.000345267
vn -0.01587105 0.999874 -0.000345267
vn -0.3967754 -0.5237435 -0.7538316
vn -0.3967754 -0.5237435 -0.7538316
vn -0.3967754 -0.5237435 -0.7538316
vn -0.3967754 -0.5237435 -0.7538316
vn -0.01587105 -0.999874 -0.000345267
vn -0.01587105 -0.999874 -0.000345267
vn -0.01587105 -0.999874 -0.000345267
vn -0.01587105 -0.999874 -0.000345267
vn -0.999874 0.01587105 -0.0003439156
vn -0.999874 0.01587105 -0.0003439156
vn -0.999874 0.01587105 -0.0003439156
vn -0.999874 0.01587105 -0.0003439156
vn 0.999874 0.01587105 -0.0003439156
vn 0.999874 -0.01587099 -0.000346655
vn 0.999874 0.01587105 -0.0003439156
vn 0.999874 -0.01587099 -0.000346655
vn 0.999874 -0.01587099 -0.000346655
vn 0.999874 -0.01587099 -0.000346655
vn 0.999874 -0.01587099 -0.000346655
vn 0.999874 -0.01587099 -0.000346655
vn -0.01587105 0.8411639 -0.5405474
vn -0.01587105 0.8411639 -0.5405474
vn -0.01587105 0.8411639 -0.5405474
vn -0.01587105 0.8411639 -0.5405474
vn -0.8094218 0.2063233 0.5497882
vn -0.8094218 0.2063233 0.5497882
vn -0.8094218 0.2063233 0.5497882
vn -0.8094218 0.2063233 0.5497882
vn 0.04761302 -0.8094218 0.5852943
vn 0.04761302 -0.8094218 0.5852943
vn 0.04761302 -0.8094218 0.5852943
vn 0.04761302 -0.8094218 0.5852943
vn 0.9046479 -0.1428391 -0.4015086
vn 0.9046479 -0.1428391 -0.4015086
vn 0.9046479 -0.1428391 -0.4015086
vn 0.9046479 -0.1428391 -0.4015086
vn -0.01587105 -0.8094218 -0.5870132
vn -0.01587105 -0.8094218 -0.5870132
vn -0.01587105 -0.8094218 -0.5870132
vn -0.01587105 -0.8094218 -0.5870132
vn -0.9363899 0.04761302 -0.3477167
vn -0.9363899 0.04761302 -0.3477167
vn -0.9363899 0.04761302 -0.3477167
vn -0.9363899 0.04761302 -0.3477167
vn -0.01587105 0.8411639 0.5405474
vn -0.01587105 0.8411639 0.5405474
vn -0.01587105 0.8411639 0.5405474
vn -0.01587105 0.8411639 0.5405474
vn -0.01587105 -0.999874 -0.000345267
vn -0.01587105 -0.999874 -0.000345267
vn -0.01587105 -0.999874 -0.000345267
vn -0.01587105 -0.999874 -0.000345267
vn -0.999874 0.01587105 -0.0003439156
vn -0.999874 0.01587105 -0.0003439156
vn -0.999874 0.01587105 -0.0003439156
vn -0.999874 0.01587105 -0.0003439156
vn -0.01587105 0.999874 -0.000345267
vn -0.01587105 0.999874 -0.000345267
vn -0.01587105 0.999874 -0.000345267
vn -0.01587105 0.999874 -0.000345267
vn -0.999874 -0.01587099 -0.000346655
vn -0.999874 -0.01587099 -0.000346655
vn -0.999874 -0.01587099 -0.000346655
vn -0.999874 -0.01587099 -0.000346655
vn -0.999874 -0.01587099 -0.000346655
vn -0.999874 -0.01587099 -0.000346655
vn -0.999874 -0.01587099 -0.000346655
vn -0.999874 -0.01587099 -0.000346655
vn -0.999874 -0.01587099 -0.000346655
vn -0.999874 -0.01587099 -0.000346655
vn -0.999874 -0.01587099 -0.000346655
vn -0.999874 -0.01587099 -0.000346655
vn 0.1104315 0.9938838 0
vn 0.1104315 0.9938838 0
vn 0.1104315 0.9938838 0
vn 0.1104315 0.9938838 0
vn -0.07911634 0.9968654 0
vn -0.07911634 0.9968654 0
vn -0.07911634 0.9968654 0
vn -0.07911634 0.9968654 0
vn -0.07911634 0.9968654 0
vn -0.07911634 0.9968654 0
vn -0.5554856 0.8094218 -0.1904525
vn -0.5510616 0.8344646 0
vn -0.5510616 0.8344646 0
vn -0.5554856 0.8094218 -0.1904525
vn -0.5872276 0.8094218 -0.000422864
vn -0.5872276 0.8094218 -0.000422864
vn 0.5554855 0.8094218 -0.1904527
vn 0.5510615 0.8344646 0
vn 0.5510615 0.8344646 0
vn 0.5554855 0.8094218 -0.1904527
vn 0.5872276 0.8094218 -0.000422864
vn 0.5872276 0.8094218 -0.000422864
g SM_Item_Book_Open_01_0
f 3/3/3 2/2/2 1/1/1
f 4/4/4 3/3/3 1/1/1
f 6/6/6 5/5/5 1/1/1
f 7/7/7 6/6/6 1/1/1
f 10/10/10 9/9/9 8/8/8
f 9/9/9 11/11/11 8/8/8
f 11/11/11 13/13/13 12/12/12
f 13/13/13 14/14/14 12/12/12
f 17/17/17 16/16/16 15/15/15
f 16/16/16 18/18/18 15/15/15
f 16/16/16 19/19/19 18/18/18
f 19/19/19 20/20/20 18/18/18
f 20/20/20 21/21/21 18/18/18
f 21/21/21 22/22/22 18/18/18
f 18/18/18 22/22/22 15/15/15
f 22/22/22 23/23/23 15/15/15
f 26/26/26 25/25/25 24/24/24
f 27/27/27 26/26/26 24/24/24
f 27/27/27 28/28/28 26/26/26
f 28/28/28 29/29/29 26/26/26
f 32/32/32 31/31/31 30/30/30
f 31/31/31 33/33/33 30/30/30
f 33/33/33 34/34/34 30/30/30
f 34/34/34 35/35/35 30/30/30
f 38/38/38 37/37/37 36/36/36
f 39/39/39 38/38/38 36/36/36
f 38/38/38 39/39/39 40/40/40
f 41/41/41 38/38/38 40/40/40
f 44/44/44 43/43/43 42/42/42
f 45/45/45 44/44/44 42/42/42
f 45/45/45 46/46/46 44/44/44
f 46/46/46 47/47/47 44/44/44
f 50/50/50 49/49/49 48/48/48
f 49/49/49 51/51/51 48/48/48
f 51/51/51 52/52/52 48/48/48
f 52/52/52 53/53/53 48/48/48
f 56/56/56 55/55/55 54/54/54
f 57/57/57 56/56/56 54/54/54
f 60/60/60 59/59/59 58/58/58
f 59/59/59 61/61/61 58/58/58
f 62/62/62 61/61/61 59/59/59
f 63/63/63 62/62/62 59/59/59
f 62/62/62 63/63/63 64/64/64
f 65/65/65 62/62/62 64/64/64
f 65/65/65 64/64/64 66/66/66
f 64/64/64 67/67/67 66/66/66
f 70/70/70 69/69/69 68/68/68
f 71/71/71 70/70/70 68/68/68
f 71/71/71 68/68/68 72/72/72
f 68/68/68 73/73/73 72/72/72
f 76/76/76 75/75/75 74/74/74
f 77/77/77 76/76/76 74/74/74
f 80/80/80 79/79/79 78/78/78
f 81/81/81 80/80/80 78/78/78
f 84/84/84 83/83/83 82/82/82
f 85/85/85 84/84/84 82/82/82
f 88/88/88 87/87/87 86/86/86
f 89/89/89 88/88/88 86/86/86
f 92/92/92 91/91/91 90/90/90
f 93/93/93 92/92/92 90/90/90
f 96/96/96 95/95/95 94/94/94
f 95/95/95 97/97/97 94/94/94
f 98/98/98 97/97/97 95/95/95
f 99/99/99 98/98/98 95/95/95
f 100/100/100 98/98/98 99/99/99
f 101/101/101 100/100/100 99/99/99
f 104/104/104 103/103/103 102/102/102
f 105/105/105 104/104/104 102/102/102
f 108/108/108 107/107/107 106/106/106
f 109/109/109 108/108/108 106/106/106
f 112/112/112 111/111/111 110/110/110
f 113/113/113 112/112/112 110/110/110
f 116/116/116 115/115/115 114/114/114
f 117/117/117 116/116/116 114/114/114
f 120/120/120 119/119/119 118/118/118
f 121/121/121 120/120/120 118/118/118
f 124/124/124 123/123/123 122/122/122
f 125/125/125 124/124/124 122/122/122
f 128/128/128 127/127/127 126/126/126
f 129/129/129 128/128/128 126/126/126
f 132/132/132 131/131/131 130/130/130
f 133/133/133 132/132/132 130/130/130
f 136/136/136 135/135/135 134/134/134
f 137/137/137 136/136/136 134/134/134
f 140/140/140 139/139/139 138/138/138
f 141/141/141 140/140/140 138/138/138
f 144/144/144 143/143/143 142/142/142
f 143/143/143 145/145/145 142/142/142
f 146/146/146 145/145/145 143/143/143
f 147/147/147 146/146/146 143/143/143
f 150/150/150 149/149/149 148/148/148
f 149/149/149 151/151/151 148/148/148
f 152/152/152 151/151/151 149/149/149
f 153/153/153 152/152/152 149/149/149
f 156/156/156 155/155/155 154/154/154
f 157/157/157 156/156/156 154/154/154
f 160/160/160 159/159/159 158/158/158
f 159/159/159 161/161/161 158/158/158
f 158/158/158 161/161/161 162/162/162
f 163/163/163 158/158/158 162/162/162
f 166/166/166 165/165/165 164/164/164
f 167/167/167 166/166/166 164/164/164
f 167/167/167 164/164/164 168/168/168
f 164/164/164 169/169/169 168/168/168
f 172/172/172 171/171/171 170/170/170
f 173/173/173 172/172/172 170/170/170
f 173/173/173 170/170/170 174/174/174
f 170/170/170 175/175/175 174/174/174
