g SM_Prop_CarBattery_01
v -0.1774122 0.06095625 0.1213408
v -0.1774122 0.2248572 0.1213408
v 0.1773471 0.2248572 0.1213408
v 0.1773471 0.06095625 0.1213408
v 0.03770779 0.2706848 0.1084013
v 0.03770779 0.2706848 0.06149541
v 0.1800428 0.2706848 0.06149541
v 0.1800428 0.2706848 0.1084013
v -0.1774122 0.2248572 -0.1212757
v -0.1774122 0.06095625 -0.1212757
v 0.1773471 0.06095625 -0.1212757
v 0.1773471 0.2248572 -0.1212757
v -0.2043696 3.255904E-05 -0.1212757
v -0.2043696 3.255904E-05 0.1213408
v 0.2043045 3.255904E-05 0.1213408
v 0.2043045 3.255904E-05 -0.1212757
v 0.2420448 0.2119177 0.07766984
v 0.2420448 0.2372576 0.07766984
v 0.2420448 0.2372576 -0.07760473
v 0.2420448 0.2119177 -0.07760473
v -0.2421099 0.2119177 -0.07760473
v -0.2421099 0.2372576 -0.07760473
v -0.2421099 0.2372576 0.07766984
v -0.2421099 0.2119177 0.07766984
v 0.1061796 0.2852418 -0.08838768
v 0.1061796 0.2852418 0.01620699
v -0.1062447 0.2852418 0.01620699
v -0.1062447 0.2852418 -0.08838768
v -0.2043696 0.2448057 0.1213408
v -0.212996 0.2518146 0.1305064
v 0.2129308 0.2518146 0.1305064
v 0.2043045 0.2448057 0.1213408
v 0.2043045 0.2448057 0.1213408
v 0.2129308 0.2518146 0.1305064
v 0.2129308 0.2518146 -0.1304412
v 0.2043045 0.2448057 -0.1212757
v 0.2043045 0.2448057 -0.1212757
v 0.2129308 0.2518146 -0.1304412
v -0.212996 0.2518146 -0.1304412
v -0.2043696 0.2448057 -0.1212757
v -0.2043696 0.2448057 -0.1212757
v -0.212996 0.2518146 -0.1304412
v -0.212996 0.2518146 0.1305064
v -0.2043696 0.2448057 0.1213408
v -0.212996 0.2518146 0.1305064
v -0.212996 0.2706848 0.1305064
v 0.2129308 0.2706848 0.1305064
v 0.2129308 0.2518146 0.1305064
v 0.2129308 0.2518146 0.1305064
v 0.2129308 0.2706848 0.1305064
v 0.2129308 0.2706848 -0.1304412
v 0.2129308 0.2518146 -0.1304412
v 0.2129308 0.2518146 -0.1304412
v 0.2129308 0.2706848 -0.1304412
v -0.212996 0.2706848 -0.1304412
v -0.212996 0.2518146 -0.1304412
v -0.212996 0.2518146 -0.1304412
v -0.212996 0.2706848 -0.1304412
v -0.212996 0.2706848 0.1305064
v -0.212996 0.2518146 0.1305064
v 0.2043045 0.1935866 0.1100187
v 0.2420448 0.2119177 0.07766984
v 0.2420448 0.2119177 -0.07760473
v 0.2043045 0.1935866 -0.1099536
v 0.2043045 0.1935866 -0.1099536
v 0.2420448 0.2119177 -0.07760473
v 0.2420448 0.2372576 -0.07760473
v 0.2043045 0.2372576 -0.1099536
v 0.2043045 0.2372576 -0.1099536
v 0.2420448 0.2372576 -0.07760473
v 0.2420448 0.2372576 0.07766984
v 0.2043045 0.2372576 0.1100187
v 0.2043045 0.2372576 0.1100187
v 0.2420448 0.2372576 0.07766984
v 0.2420448 0.2119177 0.07766984
v 0.2043045 0.1935866 0.1100187
v -0.2043696 0.1935866 -0.1099536
v -0.2421099 0.2119177 -0.07760473
v -0.2421099 0.2119177 0.07766984
v -0.2043696 0.1935866 0.1100187
v -0.2043696 0.1935866 0.1100187
v -0.2421099 0.2119177 0.07766984
v -0.2421099 0.2372576 0.07766984
v -0.2043696 0.2372576 0.1100187
v -0.2043696 0.2372576 0.1100187
v -0.2421099 0.2372576 0.07766984
v -0.2421099 0.2372576 -0.07760473
v -0.2043696 0.2372576 -0.1099536
v -0.2043696 0.2372576 -0.1099536
v -0.2421099 0.2372576 -0.07760473
v -0.2421099 0.2119177 -0.07760473
v -0.2043696 0.1935866 -0.1099536
v 0.1121102 0.2706848 -0.09431832
v 0.1061796 0.2852418 -0.08838768
v -0.1062447 0.2852418 -0.08838768
v -0.1121753 0.2706848 -0.09431832
v -0.1121753 0.2706848 -0.09431832
v -0.1062447 0.2852418 -0.08838768
v -0.1062447 0.2852418 0.01620699
v -0.1121753 0.2706848 0.02213763
v -0.1121753 0.2706848 0.02213763
v -0.1062447 0.2852418 0.01620699
v 0.1061796 0.2852418 0.01620699
v 0.1121102 0.2706848 0.02213763
v 0.1121102 0.2706848 0.02213763
v 0.1061796 0.2852418 0.01620699
v 0.1061796 0.2852418 -0.08838768
v 0.1121102 0.2706848 -0.09431832
v 0.1811211 0.2706848 -0.05118649
v 0.1811211 0.3095034 -0.05118649
v 0.1811211 0.3095034 -0.08245707
v 0.1811211 0.2706848 -0.08245707
v 0.1811211 0.2706848 -0.08245707
v 0.1811211 0.3095034 -0.08245707
v 0.1536246 0.3095034 -0.0986315
v 0.1536246 0.2706848 -0.0986315
v 0.1536246 0.2706848 -0.0986315
v 0.1536246 0.3095034 -0.0986315
v 0.1266672 0.3095034 -0.08245707
v 0.1266672 0.2706848 -0.08245707
v 0.1266672 0.2706848 -0.08245707
v 0.1266672 0.3095034 -0.08245707
v 0.1266672 0.3095034 -0.05118649
v 0.1266672 0.2706848 -0.05118649
v 0.1266672 0.2706848 -0.05118649
v 0.1266672 0.3095034 -0.05118649
v 0.1536246 0.3095034 -0.03555119
v 0.1536246 0.2706848 -0.03555119
v 0.1536246 0.2706848 -0.03555119
v 0.1536246 0.3095034 -0.03555119
v 0.1811211 0.3095034 -0.05118649
v 0.1811211 0.2706848 -0.05118649
v -0.1267323 0.2706848 -0.05118649
v -0.1267323 0.3095034 -0.05118649
v -0.1267323 0.3095034 -0.08245707
v -0.1267323 0.2706848 -0.08245707
v -0.1267323 0.2706848 -0.08245707
v -0.1267323 0.3095034 -0.08245707
v -0.1536897 0.3095034 -0.0986315
v -0.1536897 0.2706848 -0.0986315
v -0.1536897 0.2706848 -0.0986315
v -0.1536897 0.3095034 -0.0986315
v -0.1811862 0.3095034 -0.08245707
v -0.1811862 0.2706848 -0.08245707
v -0.1811862 0.2706848 -0.08245707
v -0.1811862 0.3095034 -0.08245707
v -0.1811862 0.3095034 -0.05118649
v -0.1811862 0.2706848 -0.05118649
v -0.1811862 0.2706848 -0.05118649
v -0.1811862 0.3095034 -0.05118649
v -0.1536897 0.3095034 -0.03555119
v -0.1536897 0.2706848 -0.03555119
v -0.1536897 0.2706848 -0.03555119
v -0.1536897 0.3095034 -0.03555119
v -0.1267323 0.3095034 -0.05118649
v -0.1267323 0.2706848 -0.05118649
v -0.1811862 0.3095034 -0.05118649
v -0.1536897 0.3095034 -0.06682177
v -0.1536897 0.3095034 -0.03555119
v -0.1811862 0.3095034 -0.08245707
v -0.1267323 0.3095034 -0.05118649
v -0.1536897 0.3095034 -0.0986315
v -0.1267323 0.3095034 -0.08245707
v 0.1266672 0.3095034 -0.05118649
v 0.1536246 0.3095034 -0.06682177
v 0.1536246 0.3095034 -0.03555119
v 0.1266672 0.3095034 -0.08245707
v 0.1811211 0.3095034 -0.05118649
v 0.1536246 0.3095034 -0.0986315
v 0.1811211 0.3095034 -0.08245707
v 0.2129308 0.2706848 -0.1304412
v -0.1121753 0.2706848 -0.09431832
v -0.212996 0.2706848 -0.1304412
v -0.212996 0.2706848 0.1305064
v 0.1121102 0.2706848 -0.09431832
v -0.1121753 0.2706848 0.02213763
v 0.1800428 0.2706848 0.06149541
v 0.2129308 0.2706848 0.1305064
v 0.1121102 0.2706848 0.02213763
v 0.1800428 0.2706848 0.1084013
v 0.03770779 0.2706848 0.1084013
v 0.03770779 0.2706848 0.06149541
v -0.2043696 0.2448057 0.1213408
v -0.2043696 0.2372576 -0.1099536
v -0.2043696 0.2448057 -0.1212757
v -0.2043696 0.2372576 0.1100187
v -0.2043696 0.1935866 -0.1099536
v -0.2043696 3.255904E-05 0.1213408
v -0.2043696 3.255904E-05 -0.1212757
v -0.2043696 0.1935866 0.1100187
v 0.2043045 0.2448057 -0.1212757
v 0.2043045 0.2372576 0.1100187
v 0.2043045 0.2448057 0.1213408
v 0.2043045 0.2372576 -0.1099536
v 0.2043045 0.1935866 0.1100187
v 0.2043045 3.255904E-05 -0.1212757
v 0.2043045 3.255904E-05 0.1213408
v 0.2043045 0.1935866 -0.1099536
v 0.2043045 3.255904E-05 -0.1212757
v -0.1774122 0.06095625 -0.1212757
v -0.2043696 3.255904E-05 -0.1212757
v 0.1773471 0.06095625 -0.1212757
v -0.1774122 0.2248572 -0.1212757
v 0.2043045 0.2448057 -0.1212757
v -0.2043696 0.2448057 -0.1212757
v 0.1773471 0.2248572 -0.1212757
v 0.2043045 0.2448057 0.1213408
v 0.1773471 0.2248572 0.1213408
v -0.1774122 0.2248572 0.1213408
v 0.2043045 3.255904E-05 0.1213408
v -0.2043696 0.2448057 0.1213408
v 0.1773471 0.06095625 0.1213408
v -0.1774122 0.06095625 0.1213408
v -0.2043696 3.255904E-05 0.1213408
vt 0.1146943 0.205364
vt 0.1146943 0.205364
vt 0.1146943 0.205364
vt 0.1146943 0.205364
vt 0.1333616 0.1813632
vt 0.1333616 0.1813632
vt 0.1333616 0.1813632
vt 0.1333616 0.1813632
vt 0.1146943 0.205364
vt 0.1146943 0.205364
vt 0.1146943 0.205364
vt 0.1146943 0.205364
vt 0.09202688 0.2306982
vt 0.09202688 0.2306982
vt 0.09202688 0.2306982
vt 0.09202688 0.2306982
vt 0.09202688 0.2306982
vt 0.09202688 0.2306982
vt 0.09202688 0.2306982
vt 0.09202688 0.2306982
vt 0.09202688 0.2306982
vt 0.09202688 0.2306982
vt 0.09202688 0.2306982
vt 0.09202688 0.2306982
vt 0.1013605 0.2293648
vt 0.1013605 0.2293648
vt 0.1013605 0.2293648
vt 0.1013605 0.2293648
vt 0.09202688 0.2306982
vt 0.09202688 0.2306982
vt 0.09202688 0.2306982
vt 0.09202688 0.2306982
vt 0.09202688 0.2306982
vt 0.09202688 0.2306982
vt 0.09202688 0.2306982
vt 0.09202688 0.2306982
vt 0.09202688 0.2306982
vt 0.09202688 0.2306982
vt 0.09202688 0.2306982
vt 0.09202688 0.2306982
vt 0.09202688 0.2306982
vt 0.09202688 0.2306982
vt 0.09202688 0.2306982
vt 0.09202688 0.2306982
vt 0.09202688 0.2306982
vt 0.09202688 0.2306982
vt 0.09202688 0.2306982
vt 0.09202688 0.2306982
vt 0.09202688 0.2306982
vt 0.09202688 0.2306982
vt 0.09202688 0.2306982
vt 0.09202688 0.2306982
vt 0.09202688 0.2306982
vt 0.09202688 0.2306982
vt 0.09202688 0.2306982
vt 0.09202688 0.2306982
vt 0.09202688 0.2306982
vt 0.09202688 0.2306982
vt 0.09202688 0.2306982
vt 0.09202688 0.2306982
vt 0.09202688 0.2306982
vt 0.09202688 0.2306982
vt 0.09202688 0.2306982
vt 0.09202688 0.2306982
vt 0.09202688 0.2306982
vt 0.09202688 0.2306982
vt 0.09202688 0.2306982
vt 0.09202688 0.2306982
vt 0.09202688 0.2306982
vt 0.09202688 0.2306982
vt 0.09202688 0.2306982
vt 0.09202688 0.2306982
vt 0.09202688 0.2306982
vt 0.09202688 0.2306982
vt 0.09202688 0.2306982
vt 0.09202688 0.2306982
vt 0.09202688 0.2306982
vt 0.09202688 0.2306982
vt 0.09202688 0.2306982
vt 0.09202688 0.2306982
vt 0.09202688 0.2306982
vt 0.09202688 0.2306982
vt 0.09202688 0.2306982
vt 0.09202688 0.2306982
vt 0.09202688 0.2306982
vt 0.09202688 0.2306982
vt 0.09202688 0.2306982
vt 0.09202688 0.2306982
vt 0.09202688 0.2306982
vt 0.09202688 0.2306982
vt 0.09202688 0.2306982
vt 0.09202688 0.2306982
vt 0.1013605 0.2293648
vt 0.1013605 0.2293648
vt 0.1013605 0.2293648
vt 0.1013605 0.2293648
vt 0.1013605 0.2293648
vt 0.1013605 0.2293648
vt 0.1013605 0.2293648
vt 0.1013605 0.2293648
vt 0.1013605 0.2293648
vt 0.1013605 0.2293648
vt 0.1013605 0.2293648
vt 0.1013605 0.2293648
vt 0.1013605 0.2293648
vt 0.1013605 0.2293648
vt 0.1013605 0.2293648
vt 0.1013605 0.2293648
vt 0.08135986 0.226698
vt 0.08135986 0.226698
vt 0.08135986 0.226698
vt 0.08135986 0.226698
vt 0.08135986 0.226698
vt 0.08135986 0.226698
vt 0.08135986 0.226698
vt 0.08135986 0.226698
vt 0.08135986 0.226698
vt 0.08135986 0.226698
vt 0.08135986 0.226698
vt 0.08135986 0.226698
vt 0.08135986 0.226698
vt 0.08135986 0.226698
vt 0.08135986 0.226698
vt 0.08135986 0.226698
vt 0.08135986 0.226698
vt 0.08135986 0.226698
vt 0.08135986 0.226698
vt 0.08135986 0.226698
vt 0.08135986 0.226698
vt 0.08135986 0.226698
vt 0.08135986 0.226698
vt 0.08135986 0.226698
vt 0.1386951 0.4213712
vt 0.1386951 0.4213712
vt 0.1386951 0.4213712
vt 0.1386951 0.4213712
vt 0.1386951 0.4213712
vt 0.1386951 0.4213712
vt 0.1386951 0.4213712
vt 0.1386951 0.4213712
vt 0.1386951 0.4213712
vt 0.1386951 0.4213712
vt 0.1386951 0.4213712
vt 0.1386951 0.4213712
vt 0.1386951 0.4213712
vt 0.1386951 0.4213712
vt 0.1386951 0.4213712
vt 0.1386951 0.4213712
vt 0.1386951 0.4213712
vt 0.1386951 0.4213712
vt 0.1386951 0.4213712
vt 0.1386951 0.4213712
vt 0.1386951 0.4213712
vt 0.1386951 0.4213712
vt 0.1386951 0.4213712
vt 0.1386951 0.4213712
vt 0.1386951 0.4213712
vt 0.1386951 0.4213712
vt 0.1386951 0.4213712
vt 0.1386951 0.4213712
vt 0.1386951 0.4213712
vt 0.1386951 0.4213712
vt 0.1386951 0.4213712
vt 0.08135986 0.226698
vt 0.08135986 0.226698
vt 0.08135986 0.226698
vt 0.08135986 0.226698
vt 0.08135986 0.226698
vt 0.08135986 0.226698
vt 0.08135986 0.226698
vt 0.09202688 0.2306982
vt 0.09202688 0.2306982
vt 0.09202688 0.2306982
vt 0.09202688 0.2306982
vt 0.09202688 0.2306982
vt 0.09202688 0.2306982
vt 0.09202688 0.2306982
vt 0.09202688 0.2306982
vt 0.09202688 0.2306982
vt 0.09202688 0.2306982
vt 0.09202688 0.2306982
vt 0.09202688 0.2306982
vt 0.09202688 0.2306982
vt 0.09202688 0.2306982
vt 0.09202688 0.2306982
vt 0.09202688 0.2306982
vt 0.09202688 0.2306982
vt 0.09202688 0.2306982
vt 0.09202688 0.2306982
vt 0.09202688 0.2306982
vt 0.09202688 0.2306982
vt 0.09202688 0.2306982
vt 0.09202688 0.2306982
vt 0.09202688 0.2306982
vt 0.09202688 0.2306982
vt 0.09202688 0.2306982
vt 0.09202688 0.2306982
vt 0.09202688 0.2306982
vt 0.09202688 0.2306982
vt 0.09202688 0.2306982
vt 0.09202688 0.2306982
vt 0.09202688 0.2306982
vt 0.09202688 0.2306982
vt 0.09202688 0.2306982
vt 0.09202688 0.2306982
vt 0.09202688 0.2306982
vt 0.09202688 0.2306982
vt 0.09202688 0.2306982
vt 0.09202688 0.2306982
vt 0.09202688 0.2306982
vt 0.09202688 0.2306982
vt 0.09202688 0.2306982
vt 0.09202688 0.2306982
vt 0.09202688 0.2306982
vn 0.01587099 0.01587105 0.9997481
vn 0.01587099 0.01587105 0.9997481
vn 0.01587099 0.01587105 0.9997481
vn 0.01587099 0.01587105 0.9997481
vn -0.01587105 0.999874 -0.000345267
vn -0.01587105 0.999874 -0.000345267
vn -0.01587105 0.999874 -0.000345267
vn -0.01587105 0.999874 -0.000345267
vn -0.01587105 0.01587105 -0.9997481
vn -0.01587105 0.01587105 -0.9997481
vn -0.01587105 0.01587105 -0.9997481
vn -0.01587105 0.01587105 -0.9997481
vn -0.01587105 -0.999874 -0.000345267
vn -0.01587105 -0.999874 -0.000345267
vn -0.01587105 -0.999874 -0.000345267
vn -0.01587105 -0.999874 -0.000345267
vn 0.999874 0.01587105 -0.0003439156
vn 0.999874 0.01587105 -0.0003439156
vn 0.999874 0.01587105 -0.0003439156
vn 0.999874 0.01587105 -0.0003439156
vn -0.999874 0.01587105 -0.0003439156
vn -0.999874 0.01587105 -0.0003439156
vn -0.999874 0.01587105 -0.0003439156
vn -0.999874 0.01587105 -0.0003439156
vn -0.01587105 0.999874 -0.000345267
vn -0.01587105 0.999874 -0.000345267
vn -0.01587105 0.999874 -0.000345267
vn -0.01587105 0.999874 -0.000345267
vn -0.01587105 -0.7776798 0.6284602
vn -0.01587105 -0.7776798 0.6284602
vn -0.01587105 -0.7776798 0.6284602
vn -0.01587105 -0.7776798 0.6284602
vn 0.6417226 -0.7669368 0
vn 0.6417226 -0.7669368 0
vn 0.6417226 -0.7669368 0
vn 0.6417226 -0.7669368 0
vn -0.01587105 -0.7776798 -0.6284602
vn -0.01587105 -0.7776798 -0.6284602
vn -0.01587105 -0.7776798 -0.6284602
vn -0.01587105 -0.7776798 -0.6284602
vn -0.6417226 -0.7669368 0
vn -0.6417226 -0.7669368 0
vn -0.6417226 -0.7669368 0
vn -0.6417226 -0.7669368 0
vn 0.01587099 0.01587105 0.9997481
vn 0.01587099 0.01587105 0.9997481
vn 0.01587099 0.01587105 0.9997481
vn 0.01587099 0.01587105 0.9997481
vn 0.999874 0.01587105 -0.0003439156
vn 0.999874 0.01587105 -0.0003439156
vn 0.999874 0.01587105 -0.0003439156
vn 0.999874 0.01587105 -0.0003439156
vn -0.01587105 0.01587105 -0.9997481
vn -0.01587105 0.01587105 -0.9997481
vn -0.01587105 0.01587105 -0.9997481
vn -0.01587105 0.01587105 -0.9997481
vn -0.999874 0.01587105 -0.0003439156
vn -0.999874 0.01587105 -0.0003439156
vn -0.999874 0.01587105 -0.0003439156
vn -0.999874 0.01587105 -0.0003439156
vn 0.4280863 -0.9037378 0
vn 0.4280863 -0.9037378 0
vn 0.4280863 -0.9037378 0
vn 0.4280863 -0.9037378 0
vn 0.6507117 0.01587105 -0.759159
vn 0.6507117 0.01587105 -0.759159
vn 0.6507117 0.01587105 -0.759159
vn 0.6507117 0.01587105 -0.759159
vn -0.01587105 0.999874 -0.000345267
vn -0.01587105 0.999874 -0.000345267
vn -0.01587105 0.999874 -0.000345267
vn -0.01587105 0.999874 -0.000345267
vn 0.6507117 0.01587105 0.759159
vn 0.6507117 0.01587105 0.759159
vn 0.6507117 0.01587105 0.759159
vn 0.6507117 0.01587105 0.759159
vn -0.4280864 -0.9037378 0
vn -0.4280864 -0.9037378 0
vn -0.4280864 -0.9037378 0
vn -0.4280864 -0.9037378 0
vn -0.6507117 0.01587105 0.759159
vn -0.6507117 0.01587105 0.759159
vn -0.6507117 0.01587105 0.759159
vn -0.6507117 0.01587105 0.759159
vn -0.01587105 0.999874 -0.000345267
vn -0.01587105 0.999874 -0.000345267
vn -0.01587105 0.999874 -0.000345267
vn -0.01587105 0.999874 -0.000345267
vn -0.6507117 0.01587105 -0.759159
vn -0.6507117 0.01587105 -0.759159
vn -0.6507117 0.01587105 -0.759159
vn -0.6507117 0.01587105 -0.759159
vn -0.01587105 0.3967754 -0.9177785
vn -0.01587105 0.3967754 -0.9177785
vn -0.01587105 0.3967754 -0.9177785
vn -0.01587105 0.3967754 -0.9177785
vn -0.931708 0.3632082 0
vn -0.931708 0.3632082 0
vn -0.931708 0.3632082 0
vn -0.931708 0.3632082 0
vn 0.01587099 0.3967754 0.9177785
vn 0.01587099 0.3967754 0.9177785
vn 0.01587099 0.3967754 0.9177785
vn 0.01587099 0.3967754 0.9177785
vn 0.931708 0.3632082 0
vn 0.931708 0.3632082 0
vn 0.931708 0.3632082 0
vn 0.931708 0.3632082 0
vn 0.999874 0.01587105 -0.0003439156
vn 0.999874 0.01587105 -0.0003439156
vn 0.999874 0.01587105 -0.0003439156
vn 0.999874 0.01587105 -0.0003439156
vn 0.4920015 0.01587105 -0.8704497
vn 0.4920015 0.01587105 -0.8704497
vn 0.4920015 0.01587105 -0.8704497
vn 0.4920015 0.01587105 -0.8704497
vn -0.4920015 0.01587105 -0.8704497
vn -0.4920015 0.01587105 -0.8704497
vn -0.4920015 0.01587105 -0.8704497
vn -0.4920015 0.01587105 -0.8704497
vn -0.999874 0.01587105 -0.0003439156
vn -0.999874 0.01587105 -0.0003439156
vn -0.999874 0.01587105 -0.0003439156
vn -0.999874 0.01587105 -0.0003439156
vn -0.4920015 0.01587105 0.8704497
vn -0.4920015 0.01587105 0.8704497
vn -0.4920015 0.01587105 0.8704497
vn -0.4920015 0.01587105 0.8704497
vn 0.4920015 0.01587105 0.8704497
vn 0.4920015 0.01587105 0.8704497
vn 0.4920015 0.01587105 0.8704497
vn 0.4920015 0.01587105 0.8704497
vn 0.999874 0.01587105 -0.0003439156
vn 0.999874 0.01587105 -0.0003439156
vn 0.999874 0.01587105 -0.0003439156
vn 0.999874 0.01587105 -0.0003439156
vn 0.4920015 0.01587105 -0.8704497
vn 0.4920015 0.01587105 -0.8704497
vn 0.4920015 0.01587105 -0.8704497
vn 0.4920015 0.01587105 -0.8704497
vn -0.4920015 0.01587105 -0.8704497
vn -0.4920015 0.01587105 -0.8704497
vn -0.4920015 0.01587105 -0.8704497
vn -0.4920015 0.01587105 -0.8704497
vn -0.999874 0.01587105 -0.0003439156
vn -0.999874 0.01587105 -0.0003439156
vn -0.999874 0.01587105 -0.0003439156
vn -0.999874 0.01587105 -0.0003439156
vn -0.4920015 0.01587105 0.8704497
vn -0.4920015 0.01587105 0.8704497
vn -0.4920015 0.01587105 0.8704497
vn -0.4920015 0.01587105 0.8704497
vn 0.4920015 0.01587105 0.8704497
vn 0.4920015 0.01587105 0.8704497
vn 0.4920015 0.01587105 0.8704497
vn 0.4920015 0.01587105 0.8704497
vn -0.01587105 0.999874 -0.000345267
vn -0.01587105 0.999874 -0.000345267
vn -0.01587105 0.999874 -0.000345267
vn -0.01587105 0.999874 -0.000345267
vn -0.01587105 0.999874 -0.000345267
vn -0.01587105 0.999874 -0.000345267
vn -0.01587105 0.999874 -0.000345267
vn -0.01587105 0.999874 -0.000345267
vn -0.01587105 0.999874 -0.000345267
vn -0.01587105 0.999874 -0.000345267
vn -0.01587105 0.999874 -0.000345267
vn -0.01587105 0.999874 -0.000345267
vn -0.01587105 0.999874 -0.000345267
vn -0.01587105 0.999874 -0.000345267
vn -0.01587105 0.999874 -0.000345267
vn -0.01587105 0.999874 -0.000345267
vn -0.01587105 0.999874 -0.000345267
vn -0.01587105 0.999874 -0.000345267
vn -0.01587105 0.999874 -0.000345267
vn -0.01587105 0.999874 -0.000345267
vn -0.01587105 0.999874 -0.000345267
vn -0.01587105 0.999874 -0.000345267
vn -0.01587105 0.999874 -0.000345267
vn -0.01587105 0.999874 -0.000345267
vn -0.01587105 0.999874 -0.000345267
vn -0.01587105 0.999874 -0.000345267
vn -0.999874 0.01587105 -0.0003439156
vn -0.999874 0.01587105 -0.0003439156
vn -0.999874 0.01587105 -0.0003439156
vn -0.999874 0.01587105 -0.0003439156
vn -0.999874 0.01587105 -0.0003439156
vn -0.999874 0.01587105 -0.0003439156
vn -0.999874 0.01587105 -0.0003439156
vn -0.999874 0.01587105 -0.0003439156
vn 0.999874 0.01587105 -0.0003439156
vn 0.999874 0.01587105 -0.0003439156
vn 0.999874 0.01587105 -0.0003439156
vn 0.999874 0.01587105 -0.0003439156
vn 0.999874 0.01587105 -0.0003439156
vn 0.999874 0.01587105 -0.0003439156
vn 0.999874 0.01587105 -0.0003439156
vn 0.999874 0.01587105 -0.0003439156
vn -0.01587105 0.01587105 -0.9997481
vn -0.01587105 0.01587105 -0.9997481
vn -0.01587105 0.01587105 -0.9997481
vn -0.01587105 0.01587105 -0.9997481
vn -0.01587105 0.01587105 -0.9997481
vn -0.01587105 0.01587105 -0.9997481
vn -0.01587105 0.01587105 -0.9997481
vn -0.01587105 0.01587105 -0.9997481
vn 0.01587099 0.01587105 0.9997481
vn 0.01587099 0.01587105 0.9997481
vn 0.01587099 0.01587105 0.9997481
vn 0.01587099 0.01587105 0.9997481
vn 0.01587099 0.01587105 0.9997481
vn 0.01587099 0.01587105 0.9997481
vn 0.01587099 0.01587105 0.9997481
vn 0.01587099 0.01587105 0.9997481
g SM_Prop_CarBattery_01_0
f 3/3/3 2/2/2 1/1/1
f 4/4/4 3/3/3 1/1/1
f 7/7/7 6/6/6 5/5/5
f 8/8/8 7/7/7 5/5/5
f 11/11/11 10/10/10 9/9/9
f 12/12/12 11/11/11 9/9/9
f 15/15/15 14/14/14 13/13/13
f 16/16/16 15/15/15 13/13/13
f 19/19/19 18/18/18 17/17/17
f 20/20/20 19/19/19 17/17/17
f 23/23/23 22/22/22 21/21/21
f 24/24/24 23/23/23 21/21/21
f 27/27/27 26/26/26 25/25/25
f 28/28/28 27/27/27 25/25/25
f 31/31/31 30/30/30 29/29/29
f 32/32/32 31/31/31 29/29/29
f 35/35/35 34/34/34 33/33/33
f 36/36/36 35/35/35 33/33/33
f 39/39/39 38/38/38 37/37/37
f 40/40/40 39/39/39 37/37/37
f 43/43/43 42/42/42 41/41/41
f 44/44/44 43/43/43 41/41/41
f 47/47/47 46/46/46 45/45/45
f 48/48/48 47/47/47 45/45/45
f 51/51/51 50/50/50 49/49/49
f 52/52/52 51/51/51 49/49/49
f 55/55/55 54/54/54 53/53/53
f 56/56/56 55/55/55 53/53/53
f 59/59/59 58/58/58 57/57/57
f 60/60/60 59/59/59 57/57/57
f 63/63/63 62/62/62 61/61/61
f 64/64/64 63/63/63 61/61/61
f 67/67/67 66/66/66 65/65/65
f 68/68/68 67/67/67 65/65/65
f 71/71/71 70/70/70 69/69/69
f 72/72/72 71/71/71 69/69/69
f 75/75/75 74/74/74 73/73/73
f 76/76/76 75/75/75 73/73/73
f 79/79/79 78/78/78 77/77/77
f 80/80/80 79/79/79 77/77/77
f 83/83/83 82/82/82 81/81/81
f 84/84/84 83/83/83 81/81/81
f 87/87/87 86/86/86 85/85/85
f 88/88/88 87/87/87 85/85/85
f 91/91/91 90/90/90 89/89/89
f 92/92/92 91/91/91 89/89/89
f 95/95/95 94/94/94 93/93/93
f 96/96/96 95/95/95 93/93/93
f 99/99/99 98/98/98 97/97/97
f 100/100/100 99/99/99 97/97/97
f 103/103/103 102/102/102 101/101/101
f 104/104/104 103/103/103 101/101/101
f 107/107/107 106/106/106 105/105/105
f 108/108/108 107/107/107 105/105/105
f 111/111/111 110/110/110 109/109/109
f 112/112/112 111/111/111 109/109/109
f 115/115/115 114/114/114 113/113/113
f 116/116/116 115/115/115 113/113/113
f 119/119/119 118/118/118 117/117/117
f 120/120/120 119/119/119 117/117/117
f 123/123/123 122/122/122 121/121/121
f 124/124/124 123/123/123 121/121/121
f 127/127/127 126/126/126 125/125/125
f 128/128/128 127/127/127 125/125/125
f 131/131/131 130/130/130 129/129/129
f 132/132/132 131/131/131 129/129/129
f 135/135/135 134/134/134 133/133/133
f 136/136/136 135/135/135 133/133/133
f 139/139/139 138/138/138 137/137/137
f 140/140/140 139/139/139 137/137/137
f 143/143/143 142/142/142 141/141/141
f 144/144/144 143/143/143 141/141/141
f 147/147/147 146/146/146 145/145/145
f 148/148/148 147/147/147 145/145/145
f 151/151/151 150/150/150 149/149/149
f 152/152/152 151/151/151 149/149/149
f 155/155/155 154/154/154 153/153/153
f 156/156/156 155/155/155 153/153/153
f 159/159/159 158/158/158 157/157/157
f 157/157/157 158/158/158 160/160/160
f 161/161/161 158/158/158 159/159/159
f 160/160/160 158/158/158 162/162/162
f 163/163/163 158/158/158 161/161/161
f 162/162/162 158/158/158 163/163/163
f 166/166/166 165/165/165 164/164/164
f 164/164/164 165/165/165 167/167/167
f 168/168/168 165/165/165 166/166/166
f 167/167/167 165/165/165 169/169/169
f 170/170/170 165/165/165 168/168/168
f 169/169/169 165/165/165 170/170/170
f 173/173/173 172/172/172 171/171/171
f 172/172/172 173/173/173 174/174/174
f 172/172/172 175/175/175 171/171/171
f 176/176/176 172/172/172 174/174/174
f 171/171/171 175/175/175 177/177/177
f 171/171/171 177/177/177 178/178/178
f 175/175/175 179/179/179 177/177/177
f 177/177/177 180/180/180 178/178/178
f 178/178/178 180/180/180 174/174/174
f 180/180/180 181/181/181 174/174/174
f 177/177/177 179/179/179 182/182/182
f 179/179/179 176/176/176 182/182/182
f 174/174/174 181/181/181 182/182/182
f 176/176/176 174/174/174 182/182/182
f 185/185/185 184/184/184 183/183/183
f 184/184/184 186/186/186 183/183/183
f 187/187/187 184/184/184 185/185/185
f 183/183/183 186/186/186 188/188/188
f 189/189/189 187/187/187 185/185/185
f 186/186/186 190/190/190 188/188/188
f 190/190/190 187/187/187 189/189/189
f 188/188/188 190/190/190 189/189/189
f 193/193/193 192/192/192 191/191/191
f 192/192/192 194/194/194 191/191/191
f 195/195/195 192/192/192 193/193/193
f 191/191/191 194/194/194 196/196/196
f 197/197/197 195/195/195 193/193/193
f 194/194/194 198/198/198 196/196/196
f 198/198/198 195/195/195 197/197/197
f 196/196/196 198/198/198 197/197/197
f 201/201/201 200/200/200 199/199/199
f 200/200/200 202/202/202 199/199/199
f 203/203/203 200/200/200 201/201/201
f 199/199/199 202/202/202 204/204/204
f 205/205/205 203/203/203 201/201/201
f 202/202/202 206/206/206 204/204/204
f 206/206/206 203/203/203 205/205/205
f 204/204/204 206/206/206 205/205/205
f 209/209/209 208/208/208 207/207/207
f 207/207/207 208/208/208 210/210/210
f 211/211/211 209/209/209 207/207/207
f 208/208/208 212/212/212 210/210/210
f 213/213/213 209/209/209 211/211/211
f 210/210/210 212/212/212 214/214/214
f 214/214/214 213/213/213 211/211/211
f 212/212/212 213/213/213 214/214/214
