g SM_Prop_Dumpster_Rubbish_01
v -1.482029 -5.841255E-05 1.071289
v -1.988608 -5.841255E-05 1.030215
v -1.707936 0.1950431 0.7803478
v -1.307464 0.1197408 -0.4758323
v -1.680553 -5.841255E-05 -0.503215
v -1.262967 -5.841255E-05 -0.6059
v -1.636056 0.1231636 -0.4073757
v -1.307464 0.1197408 -0.4758323
v -1.211625 0.301151 0.06839824
v -2.34116 -5.841255E-05 0.5099438
v -2.057065 -5.841255E-05 -0.1198575
v -1.988608 0.1710833 0.3490707
v -2.057065 -5.841255E-05 -0.1198575
v -1.920151 0.1471235 -0.1232804
v -1.988608 0.1710833 0.3490707
v -0.4894068 0.3456478 -0.02744102
v -0.9343753 0.09920382 -0.3628789
v -0.568132 -5.841255E-05 -0.4484497
v -0.9343753 0.09920382 -0.3628789
v -0.8693414 -5.841255E-05 -0.4929465
v -0.568132 -5.841255E-05 -0.4484497
v -0.9343753 0.09920382 -0.3628789
v -1.211625 0.301151 0.06839824
v -1.307464 0.1197408 -0.4758323
v -1.262967 -5.841255E-05 -0.6059
v -0.8693414 -5.841255E-05 -0.4929465
v -1.307464 0.1197408 -0.4758323
v -0.8693414 -5.841255E-05 -0.4929465
v -0.9343753 0.09920382 -0.3628789
v -1.307464 0.1197408 -0.4758323
v -1.143168 0.09235811 0.8453817
v -1.707936 0.1950431 0.7803478
v -1.211625 0.301151 0.06839824
v -0.4894068 0.3456478 -0.02744102
v -0.5920919 0.2155801 0.8008848
v -1.143168 0.09235811 0.8453817
v -1.707936 0.1950431 0.7803478
v -2.293241 -5.841255E-05 0.7632337
v -1.988608 0.1710833 0.3490707
v -2.293241 -5.841255E-05 0.7632337
v -2.34116 -5.841255E-05 0.5099438
v -1.988608 0.1710833 0.3490707
v -0.9343753 0.09920382 -0.3628789
v -0.4894068 0.3456478 -0.02744102
v -1.211625 0.301151 0.06839824
v -1.707936 0.1950431 0.7803478
v -1.988608 0.1710833 0.3490707
v -1.211625 0.301151 0.06839824
v -0.4894068 0.3456478 -0.02744102
v -1.143168 0.09235811 0.8453817
v -1.211625 0.301151 0.06839824
v -1.163705 -5.841255E-05 0.982295
v -1.482029 -5.841255E-05 1.071289
v -1.143168 0.09235811 0.8453817
v -1.482029 -5.841255E-05 1.071289
v -1.707936 0.1950431 0.7803478
v -1.143168 0.09235811 0.8453817
v -1.707936 0.1950431 0.7803478
v -1.988608 -5.841255E-05 1.030215
v -2.293241 -5.841255E-05 0.7632337
v -1.636056 0.1231636 -0.4073757
v -1.920151 0.1471235 -0.1232804
v -1.680553 -5.841255E-05 -0.503215
v -1.920151 0.1471235 -0.1232804
v -2.057065 -5.841255E-05 -0.1198575
v -1.680553 -5.841255E-05 -0.503215
v -1.307464 0.1197408 -0.4758323
v -1.636056 0.1231636 -0.4073757
v -1.680553 -5.841255E-05 -0.503215
v -1.920151 0.1471235 -0.1232804
v -1.636056 0.1231636 -0.4073757
v -1.211625 0.301151 0.06839824
v -1.988608 0.1710833 0.3490707
v -1.920151 0.1471235 -0.1232804
v -1.211625 0.301151 0.06839824
v -0.8693414 -5.841255E-05 -0.4929465
v 1.160399 -5.841255E-05 0.1505463
v -0.568132 -5.841255E-05 -0.4484497
v -0.568132 -5.841255E-05 -0.4484497
v 1.160399 -5.841255E-05 0.1505463
v 0.2909993 -5.841255E-05 -0.4381812
v -0.301151 -5.841255E-05 1.119208
v -0.6365888 -5.841255E-05 0.9549124
v -0.5920919 0.2155801 0.8008848
v 0.379993 -5.841255E-05 1.139745
v -0.301151 -5.841255E-05 1.119208
v 0.2328112 0.23954 0.8659186
v -0.6365888 -5.841255E-05 0.9549124
v -1.163705 -5.841255E-05 0.982295
v -1.143168 0.09235811 0.8453817
v -0.5920919 0.2155801 0.8008848
v 0.2841536 0.2669227 -0.006904125
v -0.4894068 0.3456478 -0.02744102
v -0.568132 -5.841255E-05 -0.4484497
v 0.2909993 -5.841255E-05 -0.4381812
v 0.7222764 0.1505463 0.6810856
v 0.7667732 0.1505463 0.2977282
v 1.160399 -5.841255E-05 0.1505463
v 1.091943 -5.841255E-05 0.7906163
v -0.6365888 -5.841255E-05 0.9549124
v -0.301151 -5.841255E-05 1.119208
v 0.379993 -5.841255E-05 1.139745
v -0.8693414 -5.841255E-05 -0.4929465
v -1.163705 -5.841255E-05 0.982295
v 1.160399 -5.841255E-05 0.1505463
v 1.091943 -5.841255E-05 0.7906163
v -1.262967 -5.841255E-05 -0.6059
v -1.680553 -5.841255E-05 -0.503215
v -2.057065 -5.841255E-05 -0.1198575
v -2.34116 -5.841255E-05 0.5099438
v -1.482029 -5.841255E-05 1.071289
v -1.988608 -5.841255E-05 1.030215
v -2.293241 -5.841255E-05 0.7632337
v 0.2328112 0.23954 0.8659186
v 0.7222764 0.1505463 0.6810856
v 1.091943 -5.841255E-05 0.7906163
v 0.379993 -5.841255E-05 1.139745
v 1.160399 -5.841255E-05 0.1505463
v 0.7667732 0.1505463 0.2977282
v 0.2841536 0.2669227 -0.006904125
v 0.2909993 -5.841255E-05 -0.4381812
v -0.3148423 0.3524935 0.2737683
v 0.1267033 0.3353794 0.2669227
v -0.02390146 0.3524935 0.6776627
v -0.4346415 0.3285336 0.6845084
v -0.301151 -5.841255E-05 1.119208
v -0.5920919 0.2155801 0.8008848
v 0.2328112 0.23954 0.8659186
v -0.02390146 0.3524935 0.6776627
v -0.4346415 0.3285336 0.6845084
v -0.4894068 0.3456478 -0.02744102
v -0.3148423 0.3524935 0.2737683
v -0.4346415 0.3285336 0.6845084
v -0.5920919 0.2155801 0.8008848
v 0.7222764 0.1505463 0.6810856
v 0.2328112 0.23954 0.8659186
v -0.02390146 0.3524935 0.6776627
v 0.1267033 0.3353794 0.2669227
v 0.2841536 0.2669227 -0.006904125
v 0.1267033 0.3353794 0.2669227
v -0.3148423 0.3524935 0.2737683
v -0.4894068 0.3456478 -0.02744102
v 0.2841536 0.2669227 -0.006904125
v 0.7667732 0.1505463 0.2977282
v 0.7222764 0.1505463 0.6810856
v 0.1267033 0.3353794 0.2669227
vt 0.3854766 0.4972643
vt 0.3145869 0.5354357
vt 0.3445787 0.5926928
vt 0.4509133 0.857166
vt 0.3745705 0.9062435
vt 0.469999 0.9007905
vt 0.3827502 0.862619
vt 0.4509133 0.857166
vt 0.4590929 0.7399253
vt 0.2355176 0.6881213
vt 0.268236 0.8380803
vt 0.2982278 0.71266
vt 0.268236 0.8380803
vt 0.32004 0.8217211
vt 0.2982278 0.71266
vt 0.6090519 0.7481049
vt 0.5245296 0.8162681
vt 0.6008724 0.8189946
vt 0.5245296 0.8162681
vt 0.5463418 0.862619
vt 0.6008724 0.8189946
vt 0.5245296 0.8162681
vt 0.4590929 0.7399253
vt 0.4509133 0.857166
vt 0.469999 0.9007905
vt 0.5463418 0.862619
vt 0.4509133 0.857166
vt 0.5463418 0.862619
vt 0.5245296 0.8162681
vt 0.4509133 0.857166
vt 0.4590929 0.5545214
vt 0.3445787 0.5926928
vt 0.4590929 0.7399253
vt 0.6090519 0.7481049
vt 0.5708805 0.5517949
vt 0.4590929 0.5545214
vt 0.3445787 0.5926928
vt 0.2573299 0.6117785
vt 0.2982278 0.71266
vt 0.2573299 0.6117785
vt 0.2355176 0.6881213
vt 0.2982278 0.71266
vt 0.5245296 0.8162681
vt 0.6090519 0.7481049
vt 0.4590929 0.7399253
vt 0.3445787 0.5926928
vt 0.2982278 0.71266
vt 0.4590929 0.7399253
vt 0.6090519 0.7481049
vt 0.4590929 0.5545214
vt 0.4590929 0.7399253
vt 0.4509133 0.5136235
vt 0.3854766 0.4972643
vt 0.4590929 0.5545214
vt 0.3854766 0.4972643
vt 0.3445787 0.5926928
vt 0.4590929 0.5545214
vt 0.3445787 0.5926928
vt 0.3145869 0.5354357
vt 0.2573299 0.6117785
vt 0.3827502 0.862619
vt 0.32004 0.8217211
vt 0.3745705 0.9062435
vt 0.32004 0.8217211
vt 0.268236 0.8380803
vt 0.3745705 0.9062435
vt 0.4509133 0.857166
vt 0.3827502 0.862619
vt 0.3745705 0.9062435
vt 0.32004 0.8217211
vt 0.3827502 0.862619
vt 0.4590929 0.7399253
vt 0.2982278 0.71266
vt 0.32004 0.8217211
vt 0.4590929 0.7399253
vt 0.5463418 0.862619
vt 0.9307823 0.6417703
vt 0.6008724 0.8189946
vt 0.6008724 0.8189946
vt 0.9307823 0.6417703
vt 0.7726436 0.7671906
vt 0.6308641 0.5054439
vt 0.5763336 0.51635
vt 0.5708805 0.5517949
vt 0.7453784 0.4863582
vt 0.6308641 0.5054439
vt 0.7371988 0.5108969
vt 0.5763336 0.51635
vt 0.4509133 0.5136235
vt 0.4590929 0.5545214
vt 0.5708805 0.5517949
vt 0.7671906 0.7181131
vt 0.6090519 0.7481049
vt 0.6008724 0.8189946
vt 0.7726436 0.7671906
vt 0.8408068 0.5463418
vt 0.8598925 0.6335907
vt 0.9307823 0.6417703
vt 0.9116966 0.5027174
vt 0.5763336 0.51635
vt 0.6308641 0.5054439
vt 0.7453784 0.4863582
vt 0.5463418 0.862619
vt 0.4509133 0.5136235
vt 0.9307823 0.6417703
vt 0.9116966 0.5027174
vt 0.469999 0.9007905
vt 0.3745705 0.9062435
vt 0.268236 0.8380803
vt 0.2355176 0.6881213
vt 0.3854766 0.4972643
vt 0.3145869 0.5354357
vt 0.2573299 0.6117785
vt 0.7371988 0.5108969
vt 0.8408068 0.5463418
vt 0.9116966 0.5027174
vt 0.7453784 0.4863582
vt 0.9307823 0.6417703
vt 0.8598925 0.6335907
vt 0.7671906 0.7181131
vt 0.7726436 0.7671906
vt 0.6335907 0.6935743
vt 0.7262927 0.6744887
vt 0.6990274 0.5708805
vt 0.6117785 0.5899663
vt 0.6308641 0.5054439
vt 0.5708805 0.5517949
vt 0.7371988 0.5108969
vt 0.6990274 0.5708805
vt 0.6117785 0.5899663
vt 0.6090519 0.7481049
vt 0.6335907 0.6935743
vt 0.6117785 0.5899663
vt 0.5708805 0.5517949
vt 0.8408068 0.5463418
vt 0.7371988 0.5108969
vt 0.6990274 0.5708805
vt 0.7262927 0.6744887
vt 0.7671906 0.7181131
vt 0.7262927 0.6744887
vt 0.6335907 0.6935743
vt 0.6090519 0.7481049
vt 0.7671906 0.7181131
vt 0.8598925 0.6335907
vt 0.8408068 0.5463418
vt 0.7262927 0.6744887
vn -0.04761314 0.8094221 0.5852938
vn -0.04761314 0.8094221 0.5852938
vn -0.04761314 0.8094221 0.5852938
vn -0.1745813 0.714196 -0.6778241
vn -0.1745813 0.714196 -0.6778241
vn -0.1745813 0.714196 -0.6778241
vn -0.04761314 0.9363903 -0.3477157
vn -0.04761314 0.9363903 -0.3477157
vn -0.04761314 0.9363903 -0.3477157
vn -0.5237437 0.8411642 -0.1346672
vn -0.5237437 0.8411642 -0.1346672
vn -0.5237437 0.8411642 -0.1346672
vn -0.714196 0.682454 -0.1555014
vn -0.714196 0.682454 -0.1555014
vn -0.714196 0.682454 -0.1555014
vn 0.04761302 0.77768 -0.6268547
vn 0.04761302 0.77768 -0.6268547
vn 0.04761302 0.77768 -0.6268547
vn 0.07935506 0.8094221 -0.5818407
vn 0.07935506 0.8094221 -0.5818407
vn 0.07935506 0.8094221 -0.5818407
vn 0.1428392 0.9363903 -0.3205779
vn 0.1428392 0.9363903 -0.3205779
vn 0.1428392 0.9363903 -0.3205779
vn 0.1745812 0.7459381 -0.6427268
vn 0.1745812 0.7459381 -0.6427268
vn 0.1745812 0.7459381 -0.6427268
vn 0.2063233 0.8094221 -0.5497877
vn 0.2063233 0.8094221 -0.5497877
vn 0.2063233 0.8094221 -0.5497877
vn 0.1428392 0.9681324 0.2057102
vn 0.1428392 0.9681324 0.2057102
vn 0.1428392 0.9681324 0.2057102
vn -0.2063233 0.9681324 0.1419522
vn -0.2063233 0.9681324 0.1419522
vn -0.2063233 0.9681324 0.1419522
vn -0.3015494 0.9363903 0.1795582
vn -0.3015494 0.9363903 0.1795582
vn -0.3015494 0.9363903 0.1795582
vn -0.3967756 0.9046483 0.1555009
vn -0.3967756 0.9046483 0.1555009
vn -0.3967756 0.9046483 0.1555009
vn -0.1110972 0.8729062 -0.4750707
vn -0.1110972 0.8729062 -0.4750707
vn -0.1110972 0.8729062 -0.4750707
vn -0.1414214 0.9899495 0
vn -0.1414214 0.9899495 0
vn -0.1414214 0.9899495 0
vn -0.01587105 0.9681324 0.2499356
vn -0.01587105 0.9681324 0.2499356
vn -0.01587105 0.9681324 0.2499356
vn 0.1745812 0.8094221 0.5606757
vn 0.1745812 0.8094221 0.5606757
vn 0.1745812 0.8094221 0.5606757
vn 0.1110972 0.8729062 0.4750707
vn 0.1110972 0.8729062 0.4750707
vn 0.1110972 0.8729062 0.4750707
vn -0.3015494 0.8729062 0.3835396
vn -0.3015494 0.8729062 0.3835396
vn -0.3015494 0.8729062 0.3835396
vn -0.5237437 0.6507119 -0.5497877
vn -0.5237437 0.6507119 -0.5497877
vn -0.5237437 0.6507119 -0.5497877
vn -0.5872278 0.5554857 -0.5887267
vn -0.5872278 0.5554857 -0.5887267
vn -0.5872278 0.5554857 -0.5887267
vn -0.1428392 0.6507119 -0.7457687
vn -0.1428392 0.6507119 -0.7457687
vn -0.1428392 0.6507119 -0.7457687
vn -0.1428392 0.9681324 -0.2057102
vn -0.1428392 0.9681324 -0.2057102
vn -0.1428392 0.9681324 -0.2057102
vn -0.2063233 0.9681324 -0.1419522
vn -0.2063233 0.9681324 -0.1419522
vn -0.2063233 0.9681324 -0.1419522
vn -0.01587104 -0.9998741 0
vn -0.01587104 -0.9998741 0
vn -0.01587104 -0.9998741 0
vn -0.01587104 -0.9998741 0
vn -0.01587104 -0.9998741 0
vn -0.01587104 -0.9998741 0
vn -0.3650335 0.5872278 0.7224362
vn -0.3650335 0.5872278 0.7224362
vn -0.3650335 0.5872278 0.7224362
vn -0.01587105 0.7459381 0.6658262
vn -0.01587105 0.7459381 0.6658262
vn -0.01587105 0.7459381 0.6658262
vn -0.01587105 0.682454 0.7307562
vn -0.01587105 0.682454 0.7307562
vn -0.01587105 0.682454 0.7307562
vn -0.01587105 0.682454 0.7307562
vn 0.04761302 0.8094221 -0.5852938
vn 0.04761302 0.8094221 -0.5852938
vn 0.07935506 0.8094221 -0.5818407
vn 0.04761302 0.8094221 -0.5852938
vn 0.3632082 0.931708 0
vn 0.3632082 0.931708 0
vn 0.3632082 0.931708 0
vn 0.3632082 0.931708 0
vn -0.01587104 -0.9998741 0
vn -0.01587104 -0.9998741 0
vn -0.01587104 -0.9998741 0
vn -0.01587104 -0.9998741 0
vn -0.01587104 -0.9998741 0
vn -0.01587104 -0.9998741 0
vn -0.01587104 -0.9998741 0
vn -0.01587104 -0.9998741 0
vn -0.01587104 -0.9998741 0
vn -0.01587104 -0.9998741 0
vn -0.01587104 -0.9998741 0
vn -0.01587104 -0.9998741 0
vn -0.01587104 -0.9998741 0
vn -0.01587104 -0.9998741 0
vn 0.2698073 0.8411642 0.4686649
vn 0.2698073 0.8411642 0.4686649
vn 0.2698073 0.8411642 0.4686649
vn 0.2698073 0.8411642 0.4686649
vn 0.3332914 0.8411642 -0.4258634
vn 0.3332914 0.8411642 -0.4258634
vn 0.3332914 0.8411642 -0.4258634
vn 0.3332914 0.8411642 -0.4258634
vn -0.01587104 0.9998741 0
vn -0.01587104 0.9998741 0
vn -0.01587104 0.9998741 0
vn -0.01587104 0.9998741 0
vn -0.07935512 0.8094221 0.5818407
vn -0.07935512 0.8094221 0.5818407
vn -0.07935512 0.8094221 0.5818407
vn -0.04761314 0.8094221 0.5852938
vn -0.04761314 0.8094221 0.5852938
vn -0.3632082 0.931708 0
vn -0.3632082 0.931708 0
vn -0.3632082 0.931708 0
vn -0.3632082 0.931708 0
vn 0.2684582 0.9632913 0
vn 0.2684582 0.9632913 0
vn 0.2684582 0.9632913 0
vn 0.2684582 0.9632913 0
vn 0.07911626 0.9968654 0
vn 0.07911626 0.9968654 0
vn 0.07911626 0.9968654 0
vn 0.07911626 0.9968654 0
vn 0.2684582 0.9632913 0
vn 0.2684582 0.9632913 0
vn 0.2684582 0.9632913 0
vn 0.2684582 0.9632913 0
g SM_Prop_Dumpster_Rubbish_01_0
f 3/3/3 2/2/2 1/1/1
f 6/6/6 5/5/5 4/4/4
f 9/9/9 8/8/8 7/7/7
f 12/12/12 11/11/11 10/10/10
f 15/15/15 14/14/14 13/13/13
f 18/18/18 17/17/17 16/16/16
f 21/21/21 20/20/20 19/19/19
f 24/24/24 23/23/23 22/22/22
f 27/27/27 26/26/26 25/25/25
f 30/30/30 29/29/29 28/28/28
f 33/33/33 32/32/32 31/31/31
f 36/36/36 35/35/35 34/34/34
f 39/39/39 38/38/38 37/37/37
f 42/42/42 41/41/41 40/40/40
f 45/45/45 44/44/44 43/43/43
f 48/48/48 47/47/47 46/46/46
f 51/51/51 50/50/50 49/49/49
f 54/54/54 53/53/53 52/52/52
f 57/57/57 56/56/56 55/55/55
f 60/60/60 59/59/59 58/58/58
f 63/63/63 62/62/62 61/61/61
f 66/66/66 65/65/65 64/64/64
f 69/69/69 68/68/68 67/67/67
f 72/72/72 71/71/71 70/70/70
f 75/75/75 74/74/74 73/73/73
f 78/78/78 77/77/77 76/76/76
f 81/81/81 80/80/80 79/79/79
f 84/84/84 83/83/83 82/82/82
f 87/87/87 86/86/86 85/85/85
f 90/90/90 89/89/89 88/88/88
f 91/91/91 90/90/90 88/88/88
f 94/94/94 93/93/93 92/92/92
f 95/95/95 94/94/94 92/92/92
f 98/98/98 97/97/97 96/96/96
f 99/99/99 98/98/98 96/96/96
f 102/102/102 101/101/101 100/100/100
f 100/100/100 103/103/103 102/102/102
f 103/103/103 100/100/100 104/104/104
f 103/103/103 105/105/105 102/102/102
f 105/105/105 106/106/106 102/102/102
f 103/103/103 104/104/104 107/107/107
f 104/104/104 108/108/108 107/107/107
f 104/104/104 109/109/109 108/108/108
f 104/104/104 110/110/110 109/109/109
f 111/111/111 110/110/110 104/104/104
f 112/112/112 110/110/110 111/111/111
f 113/113/113 110/110/110 112/112/112
f 116/116/116 115/115/115 114/114/114
f 117/117/117 116/116/116 114/114/114
f 120/120/120 119/119/119 118/118/118
f 121/121/121 120/120/120 118/118/118
f 124/124/124 123/123/123 122/122/122
f 125/125/125 124/124/124 122/122/122
f 128/128/128 127/127/127 126/126/126
f 128/128/128 129/129/129 127/127/127
f 129/129/129 130/130/130 127/127/127
f 133/133/133 132/132/132 131/131/131
f 134/134/134 133/133/133 131/131/131
f 137/137/137 136/136/136 135/135/135
f 138/138/138 137/137/137 135/135/135
f 141/141/141 140/140/140 139/139/139
f 142/142/142 141/141/141 139/139/139
f 145/145/145 144/144/144 143/143/143
f 146/146/146 145/145/145 143/143/143
