g SM_Prop_Desk_Glass_01
v -0.05187021 1.06708 0.3810772
v 0.4467129 1.06708 0.3812376
v 0.4467129 1.06708 0.6745529
v -0.04227807 1.06708 0.6745529
v -0.3398865 1.06708 0.3602996
v -0.3906446 1.06708 0.6236076
v -0.8172701 1.06708 0.4674415
v -0.679163 1.06708 0.2423957
v -0.9504887 1.06708 -0.009555995
v -1.160607 1.06708 0.1913129
v -1.171732 1.06708 -0.3362455
v -1.428633 1.06708 -0.2277741
v -1.232928 1.06708 -0.7434795
v -1.530088 1.06708 -0.7434795
v -1.530135 1.06708 -1.096711
v -1.236772 1.06708 -1.096711
v -0.05187021 1.046644 0.3810772
v 0.4467129 1.046644 0.6745529
v 0.4467129 1.046644 0.3812376
v -0.04227807 1.046644 0.6745529
v -0.3906446 1.046644 0.6236076
v -0.3398865 1.046644 0.3602996
v -0.8172701 1.046644 0.4674415
v -0.679163 1.046644 0.2423957
v -0.9504887 1.046644 -0.009555995
v -1.160607 1.046644 0.1913129
v -1.171732 1.046644 -0.3362455
v -1.428633 1.046644 -0.2277741
v -1.232928 1.046644 -0.7434795
v -1.530088 1.046644 -0.7434795
v -1.530135 1.046644 -1.096711
v -1.236772 1.046644 -1.096711
v -0.04227807 1.046644 0.6745529
v -0.04227807 1.06708 0.6745529
v 0.4467129 1.06708 0.6745529
v 0.4467129 1.046644 0.6745529
v 0.4467129 1.046644 0.6745529
v 0.4467129 1.06708 0.6745529
v 0.4467129 1.06708 0.3812376
v 0.4467129 1.046644 0.3812376
v 0.4467129 1.046644 0.3812376
v 0.4467129 1.06708 0.3812376
v -0.05187021 1.06708 0.3810772
v -0.05187021 1.046644 0.3810772
v -0.3398865 1.06708 0.3602996
v -0.3398865 1.046644 0.3602996
v -0.3906446 1.06708 0.6236076
v -0.3906446 1.046644 0.6236076
v -0.8172701 1.046644 0.4674415
v -0.8172701 1.06708 0.4674415
v -1.530088 1.046644 -0.7434795
v -1.530088 1.06708 -0.7434795
v -1.428633 1.06708 -0.2277741
v -1.428633 1.046644 -0.2277741
v -1.171732 1.046644 -0.3362455
v -1.171732 1.06708 -0.3362455
v -1.232928 1.06708 -0.7434795
v -1.232928 1.046644 -0.7434795
v -0.3398865 1.06708 0.3602996
v -0.679163 1.06708 0.2423957
v -0.679163 1.046644 0.2423957
v -0.3398865 1.046644 0.3602996
v -1.530135 1.046644 -1.096711
v -1.530135 1.06708 -1.096711
v -1.530088 1.06708 -0.7434795
v -1.530088 1.046644 -0.7434795
v -1.232928 1.046644 -0.7434795
v -1.232928 1.06708 -0.7434795
v -1.236772 1.06708 -1.096711
v -1.236772 1.046644 -1.096711
v -1.236772 1.046644 -1.096711
v -1.236772 1.06708 -1.096711
v -1.530135 1.06708 -1.096711
v -1.530135 1.046644 -1.096711
v -1.428633 1.046644 -0.2277741
v -1.428633 1.06708 -0.2277741
v -1.160607 1.06708 0.1913129
v -1.160607 1.046644 0.1913129
v -0.9504887 1.046644 -0.009555995
v -0.9504887 1.06708 -0.009555995
v -1.171732 1.06708 -0.3362455
v -1.171732 1.046644 -0.3362455
v -0.3906446 1.06708 0.6236076
v -0.04227807 1.06708 0.6745529
v -0.04227807 1.046644 0.6745529
v -0.3906446 1.046644 0.6236076
v -0.679163 1.06708 0.2423957
v -0.9504887 1.06708 -0.009555995
v -0.9504887 1.046644 -0.009555995
v -0.679163 1.046644 0.2423957
v -1.160607 1.046644 0.1913129
v -1.160607 1.06708 0.1913129
v -0.8172701 1.06708 0.4674415
v -0.8172701 1.046644 0.4674415
vt 0.5542263 0.06108099
vt 0.5542263 0.06108099
vt 0.5542263 0.06108099
vt 0.5542263 0.06108099
vt 0.5542263 0.06108099
vt 0.5542263 0.06108099
vt 0.5542263 0.06108099
vt 0.5542263 0.06108099
vt 0.5542263 0.06108099
vt 0.5542263 0.06108099
vt 0.5542263 0.06108099
vt 0.5542263 0.06108099
vt 0.5542263 0.06108099
vt 0.5542263 0.06108099
vt 0.5542263 0.06108099
vt 0.5542263 0.06108099
vt 0.5542263 0.06108099
vt 0.5542263 0.06108099
vt 0.5542263 0.06108099
vt 0.5542263 0.06108099
vt 0.5542263 0.06108099
vt 0.5542263 0.06108099
vt 0.5542263 0.06108099
vt 0.5542263 0.06108099
vt 0.5542263 0.06108099
vt 0.5542263 0.06108099
vt 0.5542263 0.06108099
vt 0.5542263 0.06108099
vt 0.5542263 0.06108099
vt 0.5542263 0.06108099
vt 0.5542263 0.06108099
vt 0.5542263 0.06108099
vt 0.5542263 0.06108099
vt 0.5542263 0.06108099
vt 0.5542263 0.06108099
vt 0.5542263 0.06108099
vt 0.5542263 0.06108099
vt 0.5542263 0.06108099
vt 0.5542263 0.06108099
vt 0.5542263 0.06108099
vt 0.5542263 0.06108099
vt 0.5542263 0.06108099
vt 0.5542263 0.06108099
vt 0.5542263 0.06108099
vt 0.5542263 0.06108099
vt 0.5542263 0.06108099
vt 0.5542263 0.06108099
vt 0.5542263 0.06108099
vt 0.5542263 0.06108099
vt 0.5542263 0.06108099
vt 0.5542263 0.06108099
vt 0.5542263 0.06108099
vt 0.5542263 0.06108099
vt 0.5542263 0.06108099
vt 0.5542263 0.06108099
vt 0.5542263 0.06108099
vt 0.5542263 0.06108099
vt 0.5542263 0.06108099
vt 0.5542263 0.06108099
vt 0.5542263 0.06108099
vt 0.5542263 0.06108099
vt 0.5542263 0.06108099
vt 0.5542263 0.06108099
vt 0.5542263 0.06108099
vt 0.5542263 0.06108099
vt 0.5542263 0.06108099
vt 0.5542263 0.06108099
vt 0.5542263 0.06108099
vt 0.5542263 0.06108099
vt 0.5542263 0.06108099
vt 0.5542263 0.06108099
vt 0.5542263 0.06108099
vt 0.5542263 0.06108099
vt 0.5542263 0.06108099
vt 0.5542263 0.06108099
vt 0.5542263 0.06108099
vt 0.5542263 0.06108099
vt 0.5542263 0.06108099
vt 0.5542263 0.06108099
vt 0.5542263 0.06108099
vt 0.5542263 0.06108099
vt 0.5542263 0.06108099
vt 0.5542263 0.06108099
vt 0.5542263 0.06108099
vt 0.5542263 0.06108099
vt 0.5542263 0.06108099
vt 0.5542263 0.06108099
vt 0.5542263 0.06108099
vt 0.5542263 0.06108099
vt 0.5542263 0.06108099
vt 0.5542263 0.06108099
vt 0.5542263 0.06108099
vt 0.5542263 0.06108099
vt 0.5542263 0.06108099
vn 0 1 0
vn 0 1 0
vn 0 1 0
vn 0 1 0
vn 0 1 0
vn 0 1 0
vn 0 1 0
vn 0 1 0
vn 0 1 0
vn 0 1 0
vn 0 1 0
vn 0 1 0
vn 0 1 0
vn 0 1 0
vn 0 1 0
vn 0 1 0
vn 0 -1 0
vn 0 -1 0
vn 0 -1 0
vn 0 -1 0
vn 0 -1 0
vn 0 -1 0
vn 0 -1 0
vn 0 -1 0
vn 0 -1 0
vn 0 -1 0
vn 0 -1 0
vn 0 -1 0
vn 0 -1 0
vn 0 -1 0
vn 0 -1 0
vn 0 -1 0
vn 0 0 1
vn 0 0 1
vn 0 0 1
vn 0 0 1
vn 1 0 0
vn 1 0 0
vn 1 0 0
vn 1 0 0
vn 0 0 -1
vn 0 0 -1
vn 0.036 0 -0.9993518
vn 0.036 0 -0.9993518
vn 0.07195333 0 -0.997408
vn 0.07195333 0 -0.997408
vn -0.3437439 0 0.9390635
vn -0.3437439 0 0.9390635
vn -0.3437439 0 0.9390635
vn -0.3437439 0 0.9390635
vn -0.9811927 0 0.1930305
vn -0.9811927 0 0.1930305
vn -0.9811927 0 0.1930305
vn -0.9811927 0 0.1930305
vn 0.9888969 0 -0.1486031
vn 0.9888969 0 -0.1486031
vn 0.9888969 0 -0.1486031
vn 0.9888969 0 -0.1486031
vn 0.328259 0 -0.9445878
vn 0.328259 0 -0.9445878
vn 0.328259 0 -0.9445878
vn 0.328259 0 -0.9445878
vn -1 0 0
vn -1 0 0
vn -1 0 0
vn -1 0 0
vn 0.9999408 0 -0.01088282
vn 0.9999408 0 -0.01088282
vn 0.9999408 0 -0.01088282
vn 0.9999408 0 -0.01088282
vn 0 0 -1
vn 0 0 -1
vn 0 0 -1
vn 0 0 -1
vn -0.8424447 0 0.5387828
vn -0.8424447 0 0.5387828
vn -0.8424447 0 0.5387828
vn -0.8424447 0 0.5387828
vn 0.827992 0 -0.5607399
vn 0.827992 0 -0.5607399
vn 0.827992 0 -0.5607399
vn 0.827992 0 -0.5607399
vn -0.1447012 0 0.9894754
vn -0.1447012 0 0.9894754
vn -0.1447012 0 0.9894754
vn -0.1447012 0 0.9894754
vn 0.6804604 0 -0.7327849
vn 0.6804604 0 -0.7327849
vn 0.6804604 0 -0.7327849
vn 0.6804604 0 -0.7327849
vn -0.6267123 0 0.7792507
vn -0.6267123 0 0.7792507
vn -0.6267123 0 0.7792507
vn -0.6267123 0 0.7792507
g SM_Prop_Desk_Glass_01_0
f 3/3/3 2/2/2 1/1/1
f 4/4/4 3/3/3 1/1/1
f 4/4/4 1/1/1 5/5/5
f 6/6/6 4/4/4 5/5/5
f 7/7/7 6/6/6 5/5/5
f 8/8/8 7/7/7 5/5/5
f 7/7/7 8/8/8 9/9/9
f 10/10/10 7/7/7 9/9/9
f 10/10/10 9/9/9 11/11/11
f 12/12/12 10/10/10 11/11/11
f 12/12/12 11/11/11 13/13/13
f 14/14/14 12/12/12 13/13/13
f 14/14/14 13/13/13 15/15/15
f 13/13/13 16/16/16 15/15/15
f 19/19/19 18/18/18 17/17/17
f 18/18/18 20/20/20 17/17/17
f 17/17/17 20/20/20 21/21/21
f 22/22/22 17/17/17 21/21/21
f 21/21/21 23/23/23 22/22/22
f 23/23/23 24/24/24 22/22/22
f 24/24/24 23/23/23 25/25/25
f 23/23/23 26/26/26 25/25/25
f 25/25/25 26/26/26 27/27/27
f 26/26/26 28/28/28 27/27/27
f 27/27/27 28/28/28 29/29/29
f 28/28/28 30/30/30 29/29/29
f 29/29/29 30/30/30 31/31/31
f 32/32/32 29/29/29 31/31/31
f 35/35/35 34/34/34 33/33/33
f 36/36/36 35/35/35 33/33/33
f 39/39/39 38/38/38 37/37/37
f 40/40/40 39/39/39 37/37/37
f 43/43/43 42/42/42 41/41/41
f 44/44/44 43/43/43 41/41/41
f 45/45/45 43/43/43 44/44/44
f 46/46/46 45/45/45 44/44/44
f 49/49/49 48/48/48 47/47/47
f 50/50/50 49/49/49 47/47/47
f 53/53/53 52/52/52 51/51/51
f 54/54/54 53/53/53 51/51/51
f 57/57/57 56/56/56 55/55/55
f 58/58/58 57/57/57 55/55/55
f 61/61/61 60/60/60 59/59/59
f 62/62/62 61/61/61 59/59/59
f 65/65/65 64/64/64 63/63/63
f 66/66/66 65/65/65 63/63/63
f 69/69/69 68/68/68 67/67/67
f 70/70/70 69/69/69 67/67/67
f 73/73/73 72/72/72 71/71/71
f 74/74/74 73/73/73 71/71/71
f 77/77/77 76/76/76 75/75/75
f 78/78/78 77/77/77 75/75/75
f 81/81/81 80/80/80 79/79/79
f 82/82/82 81/81/81 79/79/79
f 85/85/85 84/84/84 83/83/83
f 86/86/86 85/85/85 83/83/83
f 89/89/89 88/88/88 87/87/87
f 90/90/90 89/89/89 87/87/87
f 93/93/93 92/92/92 91/91/91
f 94/94/94 93/93/93 91/91/91
