g SM_Prop_Fence_Ornate_Post_01
v -0.2146845 0.7609581 0.1300364
v -0.2146845 1.129102 0.2146831
v -0.1517997 0.8906209 0.2146831
v -0.2146845 0.4208364 0.2146831
v -0.2146845 0.7609581 0.1300364
v -0.1381116 0.6201629 0.2146831
v -0.2146845 0.7609581 0.1300364
v -0.1517997 0.8906209 0.2146831
v -0.1381116 0.6201629 0.2146831
v 0.1484103 1.32716 -0.2146859
v 0.214684 1.254939 -0.164669
v 0.2146845 1.51314 -0.162869
v 0.214684 1.254939 -0.164669
v 0.1484103 1.32716 -0.2146859
v 0.2146845 1.149311 -0.2146859
v 0.2146845 1.682531 -0.2146859
v 0.1484103 1.32716 -0.2146859
v 0.2146845 1.51314 -0.162869
v -0.2146845 1.478726 -0.2146859
v -0.2146845 1.328819 -0.1352262
v -0.1274567 1.328819 -0.2146859
v -0.2146845 1.328819 -0.1352262
v -0.2146845 1.048721 -0.2146859
v -0.1274567 1.328819 -0.2146859
v -0.1686764 0.8062563 -0.2146859
v -0.2146845 0.9516053 -0.2146859
v -0.214685 0.8062563 -0.1700826
v -0.2146845 0.7164007 -0.2146854
v -0.1686764 0.8062563 -0.2146859
v -0.214685 0.8062563 -0.1700826
v 0.2146845 0.6943236 0.1584115
v 0.1664953 0.720135 0.2146831
v 0.2146845 0.8211408 0.2146831
v 0.1664953 0.720135 0.2146831
v 0.2146845 0.6943236 0.1584115
v 0.2146845 0.4961519 0.2146831
v 0.1710815 1.485986 0.2146831
v 0.2146845 1.725492 0.2146835
v 0.2146845 1.644389 0.1836329
v 0.2146845 1.448736 0.1647134
v 0.1710815 1.485986 0.2146831
v 0.2146845 1.644389 0.1836329
v 0.1710815 1.485986 0.2146831
v 0.2146845 1.448736 0.1647134
v 0.2146845 1.333637 0.2146831
v -0.2440534 1.847054 0.2440524
v -0.2440534 1.901521 0.2027755
v -0.1820464 1.878884 0.2440529
v -0.08961487 2.012726 -9.536743E-07
v 0.1238337 1.976719 -0.06565714
v 0.04002285 1.999253 0.02456617
v 0.1238337 1.976719 -0.06565714
v 0.1963091 2.012726 -4.768372E-07
v 0.04002285 1.999253 0.02456617
v 0.1321039 1.878884 -0.2440548
v 0.03584528 1.896453 -0.212019
v 0.05029154 1.851681 -0.2440548
v 0.03584528 1.896453 -0.212019
v -0.07478619 1.878884 -0.2440548
v 0.05029154 1.851681 -0.2440548
v -0.2440534 1.901521 0.2027755
v -0.2440534 2.012726 -9.536743E-07
v -0.08961487 2.012726 -9.536743E-07
v 0.04002285 1.999253 0.02456617
v -0.1820464 1.878884 0.2440529
v 0.2440534 1.878884 0.2440524
v 0.2440534 2.012726 -9.536743E-07
v 0.1963091 2.012726 -4.768372E-07
v -0.2146845 1.048721 -0.2146859
v -0.2146845 0.9516053 -0.2146859
v -0.1686764 0.8062563 -0.2146859
v 0.2146845 1.149311 -0.2146859
v 0.1484103 1.32716 -0.2146859
v 0.2146845 0.6943236 -0.2146859
v -0.1274567 1.328819 -0.2146859
v -0.2146845 0 -0.2146859
v 0.2146845 0 -0.2146859
v -0.2146845 0.7164007 -0.2146854
v -0.2146845 1.795445 -0.2146859
v -0.2146845 1.478726 -0.2146859
v 0.2146845 1.795445 -0.2146859
v 0.2146845 1.682531 -0.2146859
v 0.2146845 0 0.2146831
v 0.2146845 0 -0.2146859
v -0.2146845 0 -0.2146859
v -0.2146845 0 0.2146831
v -0.2146845 1.795445 0.2146831
v -0.2440534 1.824773 0.2440524
v 0.2440534 1.824773 0.2440524
v 0.2146845 1.795445 0.2146831
v 0.2146845 1.795445 0.2146831
v 0.2440534 1.824773 0.2440524
v 0.2440534 1.948621 -9.536743E-07
v 0.2146845 1.905335 -1.430511E-06
v 0.2146845 1.795445 -0.2146859
v 0.2440534 1.824773 -0.2440548
v -0.2440534 1.824773 -0.2440548
v -0.2146845 1.795445 -0.2146859
v -0.2440534 1.948621 -9.536743E-07
v -0.2440534 1.824773 0.2440524
v -0.2146845 1.795445 0.2146831
v -0.2146845 1.905335 -1.430511E-06
v -0.1820464 1.878884 0.2440529
v 0.2440534 1.878884 0.2440524
v 0.2440534 1.824773 0.2440524
v -0.2440534 1.824773 0.2440524
v -0.2440534 1.847054 0.2440524
v 0.2440534 1.824773 0.2440524
v 0.2440534 1.878884 0.2440524
v 0.2440534 2.012726 -9.536743E-07
v 0.2440534 1.948621 -9.536743E-07
v 0.2440534 1.824773 -0.2440548
v 0.2440534 1.878884 -0.2440548
v 0.2440534 1.824773 -0.2440548
v 0.2440534 1.878884 -0.2440548
v 0.1321039 1.878884 -0.2440548
v 0.05029154 1.851681 -0.2440548
v -0.2440534 1.824773 -0.2440548
v -0.2440534 1.878884 -0.2440548
v -0.07478619 1.878884 -0.2440548
v -0.2440534 1.847054 0.2440524
v -0.2440534 1.824773 0.2440524
v -0.2440534 1.948621 -9.536743E-07
v -0.2440534 1.901521 0.2027755
v -0.2440534 2.012726 -9.536743E-07
v -0.2440534 1.824773 -0.2440548
v -0.2440534 1.878884 -0.2440548
v 0.2440534 1.948621 -9.536743E-07
v 0.2440534 1.824773 -0.2440548
v 0.2146845 1.795445 -0.2146859
v 0.2146845 1.905335 -1.430511E-06
v -0.2440534 2.012726 -9.536743E-07
v 0.1238337 1.976719 -0.06565714
v -0.08961487 2.012726 -9.536743E-07
v 0.03584528 1.896453 -0.212019
v -0.07478619 1.878884 -0.2440548
v -0.2440534 1.878884 -0.2440548
v 0.2440534 1.878884 -0.2440548
v 0.1321039 1.878884 -0.2440548
v 0.1963091 2.012726 -4.768372E-07
v 0.2440534 2.012726 -9.536743E-07
v -0.2146845 1.795445 -0.2146859
v -0.2440534 1.824773 -0.2440548
v -0.2440534 1.948621 -9.536743E-07
v -0.2146845 1.905335 -1.430511E-06
v -0.2146845 0.4208364 0.2146831
v -0.2146845 0 0.2146831
v -0.2146845 0 -0.2146859
v -0.2146845 0.7164007 -0.2146854
v -0.2146845 0.7609581 0.1300364
v -0.214685 0.8062563 -0.1700826
v -0.2146845 1.129102 0.2146831
v -0.2146845 0.9516053 -0.2146859
v -0.2146845 1.048721 -0.2146859
v -0.2146845 1.388413 0.2146831
v -0.2146845 1.328819 -0.1352262
v -0.2146845 1.478726 -0.2146859
v -0.2146845 1.905335 -1.430511E-06
v -0.2146845 1.795445 -0.2146859
v -0.2146845 1.795445 0.2146831
v 0.1664953 0.720135 0.2146831
v 0.2146845 0.4961519 0.2146831
v 0.2146845 0 0.2146831
v -0.1381116 0.6201629 0.2146831
v -0.2146845 0 0.2146831
v -0.2146845 0.4208364 0.2146831
v -0.1517997 0.8906209 0.2146831
v -0.2146845 1.129102 0.2146831
v 0.2146845 0.8211408 0.2146831
v 0.2146845 1.333637 0.2146831
v 0.1710815 1.485986 0.2146831
v -0.2146845 1.388413 0.2146831
v -0.2146845 1.795445 0.2146831
v 0.2146845 1.725492 0.2146835
v 0.2146845 1.795445 0.2146831
v 0.2146845 0.6943236 -0.2146859
v 0.2146845 0 -0.2146859
v 0.2146845 0 0.2146831
v 0.2146845 0.4961519 0.2146831
v 0.2146845 0.6943236 0.1584115
v 0.2146845 1.149311 -0.2146859
v 0.2146845 0.8211408 0.2146831
v 0.2146845 1.333637 0.2146831
v 0.214684 1.254939 -0.164669
v 0.2146845 1.448736 0.1647134
v 0.2146845 1.51314 -0.162869
v 0.2146845 1.644389 0.1836329
v 0.2146845 1.905335 -1.430511E-06
v 0.2146845 1.725492 0.2146835
v 0.2146845 1.795445 0.2146831
v 0.2146845 1.905335 -1.430511E-06
v 0.2146845 1.795445 -0.2146859
v 0.2146845 1.682531 -0.2146859
v 0.2146845 1.51314 -0.162869
vt 0.1019075 0.3008873
vt 0.1019075 0.3008873
vt 0.1019075 0.3008873
vt 0.1019075 0.3008873
vt 0.1019075 0.3008873
vt 0.1019075 0.3008873
vt 0.1019075 0.3008873
vt 0.1019075 0.3008873
vt 0.1019075 0.3008873
vt 0.1019074 0.3008873
vt 0.1019074 0.3008873
vt 0.1019074 0.3008873
vt 0.1019074 0.3008873
vt 0.1019074 0.3008873
vt 0.1019074 0.3008873
vt 0.1019074 0.3008873
vt 0.1019074 0.3008873
vt 0.1019074 0.3008873
vt 0.1019075 0.3008873
vt 0.1019075 0.3008873
vt 0.1019075 0.3008873
vt 0.1019075 0.3008873
vt 0.1019075 0.3008873
vt 0.1019075 0.3008873
vt 0.1019075 0.3008873
vt 0.1019075 0.3008873
vt 0.1019075 0.3008873
vt 0.1019075 0.3008873
vt 0.1019075 0.3008873
vt 0.1019075 0.3008873
vt 0.1019075 0.3008873
vt 0.1019075 0.3008873
vt 0.1019075 0.3008873
vt 0.1019075 0.3008873
vt 0.1019075 0.3008873
vt 0.1019075 0.3008873
vt 0.1019075 0.3008873
vt 0.1019075 0.3008873
vt 0.1019075 0.3008873
vt 0.1019075 0.3008873
vt 0.1019075 0.3008873
vt 0.1019075 0.3008873
vt 0.1019075 0.3008873
vt 0.1019075 0.3008873
vt 0.1019075 0.3008873
vt 0.1019075 0.3001831
vt 0.1019075 0.3001831
vt 0.1019075 0.3001831
vt 0.1019075 0.3001831
vt 0.1019075 0.3001831
vt 0.1019075 0.3001831
vt 0.1019075 0.3001831
vt 0.1019075 0.3001831
vt 0.1019075 0.3001831
vt 0.1019075 0.3001831
vt 0.1019075 0.3001831
vt 0.1019075 0.3001831
vt 0.1019075 0.3001831
vt 0.1019075 0.3001831
vt 0.1019075 0.3001831
vt 0.1019075 0.3001831
vt 0.1019075 0.3001831
vt 0.1019075 0.3001831
vt 0.1019075 0.3001831
vt 0.1019075 0.3001831
vt 0.1019075 0.3001831
vt 0.1019075 0.3001831
vt 0.1019075 0.3001831
vt 0.1019075 0.2754639
vt 0.1019075 0.2754639
vt 0.1019075 0.2754639
vt 0.1019075 0.2754639
vt 0.1019075 0.2754639
vt 0.1019075 0.2754639
vt 0.1019075 0.2754639
vt 0.1019075 0.2754639
vt 0.1019075 0.2754639
vt 0.1019075 0.2754639
vt 0.1019075 0.2754639
vt 0.1019075 0.2754639
vt 0.1019075 0.2754639
vt 0.1019075 0.2754639
vt 0.1019075 0.2754639
vt 0.1019075 0.2754639
vt 0.1019075 0.2754639
vt 0.1019075 0.2754639
vt 0.1019075 0.3001831
vt 0.1019075 0.3001831
vt 0.1019075 0.3001831
vt 0.1019075 0.3001831
vt 0.1019075 0.3001831
vt 0.1019075 0.3001831
vt 0.1019075 0.3001831
vt 0.1019075 0.3001831
vt 0.1019075 0.3001831
vt 0.1019075 0.3001831
vt 0.1019075 0.3001831
vt 0.1019075 0.3001831
vt 0.1019075 0.3001831
vt 0.1019075 0.3001831
vt 0.1019075 0.3001831
vt 0.1019075 0.3001831
vt 0.1019075 0.3001831
vt 0.1019075 0.3001831
vt 0.1019075 0.3001831
vt 0.1019075 0.3001831
vt 0.1019075 0.3001831
vt 0.1019075 0.3001831
vt 0.1019075 0.3001831
vt 0.1019075 0.3001831
vt 0.1019075 0.3001831
vt 0.1019075 0.3001831
vt 0.1019075 0.3001831
vt 0.1019075 0.3001831
vt 0.1019075 0.3001831
vt 0.1019075 0.3001831
vt 0.1019075 0.3001831
vt 0.1019075 0.3001831
vt 0.1019075 0.3001831
vt 0.1019075 0.3001831
vt 0.1019075 0.3001831
vt 0.1019075 0.3001831
vt 0.1019075 0.3001831
vt 0.1019075 0.3001831
vt 0.1019075 0.3001831
vt 0.1019075 0.3001831
vt 0.1019075 0.3001831
vt 0.1019075 0.3001831
vt 0.1019075 0.3001831
vt 0.1019075 0.3001831
vt 0.1019075 0.3001831
vt 0.1019075 0.3001831
vt 0.1019075 0.3001831
vt 0.1019075 0.3001831
vt 0.1019075 0.3001831
vt 0.1019075 0.3001831
vt 0.1019075 0.3001831
vt 0.1019075 0.3001831
vt 0.1019075 0.3001831
vt 0.1019075 0.3001831
vt 0.1019075 0.3001831
vt 0.1019075 0.3001831
vt 0.1019075 0.3001831
vt 0.1019075 0.3001831
vt 0.1019075 0.3001831
vt 0.1019075 0.2754639
vt 0.1019075 0.2754639
vt 0.1019075 0.2754639
vt 0.1019075 0.2754639
vt 0.1019075 0.2754639
vt 0.1019075 0.2754639
vt 0.1019075 0.2754639
vt 0.1019075 0.2754639
vt 0.1019075 0.2754639
vt 0.1019075 0.2754639
vt 0.1019075 0.2754639
vt 0.1019075 0.2754639
vt 0.1019075 0.2754639
vt 0.1019075 0.2754639
vt 0.1019075 0.2754639
vt 0.1019075 0.2754639
vt 0.1019075 0.2754639
vt 0.1019075 0.2754639
vt 0.1019075 0.2754639
vt 0.1019075 0.2754639
vt 0.1019075 0.2754639
vt 0.1019075 0.2754639
vt 0.1019075 0.2754639
vt 0.1019075 0.2754639
vt 0.1019075 0.2754639
vt 0.1019075 0.2754639
vt 0.1019075 0.2754639
vt 0.1019075 0.2754639
vt 0.1019075 0.2754639
vt 0.1019075 0.2754639
vt 0.1019074 0.2754639
vt 0.1019074 0.2754639
vt 0.1019075 0.2754639
vt 0.1019075 0.2754639
vt 0.1019075 0.2754639
vt 0.1019074 0.2754639
vt 0.1019075 0.2754639
vt 0.1019075 0.2754639
vt 0.1019074 0.2754639
vt 0.1019075 0.2754639
vt 0.1019074 0.2754639
vt 0.1019075 0.2754639
vt 0.1019075 0.2754639
vt 0.1019075 0.2754639
vt 0.1019075 0.2754639
vt 0.1019075 0.2754639
vt 0.1019074 0.2754639
vt 0.1019074 0.2754639
vt 0.1019074 0.2754639
vn -0.6475571 -0.170754 0.7426391
vn -0.6475571 -0.170754 0.7426391
vn -0.6475571 -0.170754 0.7426391
vn -0.5322257 0.2044588 0.8215427
vn -0.5322257 0.2044588 0.8215427
vn -0.5322257 0.2044588 0.8215427
vn -0.7725116 -0.0390974 0.6337958
vn -0.7725116 -0.0390974 0.6337958
vn -0.7725116 -0.0390974 0.6337958
vn 0.6062315 0.005543119 -0.7952688
vn 0.6062315 0.005543119 -0.7952688
vn 0.6062315 0.005543119 -0.7952688
vn 0.754172 0.2810371 -0.5935003
vn 0.754172 0.2810371 -0.5935003
vn 0.754172 0.2810371 -0.5935003
vn 0.8432134 -0.157253 -0.5140648
vn 0.8432134 -0.157253 -0.5140648
vn 0.8432134 -0.157253 -0.5140648
vn -0.6270036 -0.3648403 -0.6883008
vn -0.6270036 -0.3648403 -0.6883008
vn -0.6270036 -0.3648403 -0.6883008
vn -0.6590848 0.2052519 -0.7235184
vn -0.6590848 0.2052519 -0.7235184
vn -0.6590848 0.2052519 -0.7235184
vn -0.6797537 -0.2151662 -0.7011694
vn -0.6797537 -0.2151662 -0.7011694
vn -0.6797537 -0.2151662 -0.7011694
vn -0.6556616 0.33571 -0.6763184
vn -0.6556616 0.33571 -0.6763184
vn -0.6556616 0.33571 -0.6763184
vn 0.6477018 -0.3090142 0.6964141
vn 0.6477018 -0.3090142 0.6964141
vn 0.6477018 -0.3090142 0.6964141
vn 0.7855846 0.1690157 0.5952231
vn 0.7855846 0.1690157 0.5952231
vn 0.7855846 0.1690157 0.5952231
vn 0.8911313 -0.1622349 0.4237508
vn 0.8911313 -0.1622349 0.4237508
vn 0.8911313 -0.1622349 0.4237508
vn 0.7268979 -0.06609936 0.6835571
vn 0.7268979 -0.06609936 0.6835571
vn 0.7268979 -0.06609936 0.6835571
vn 0.8120421 0.23241 0.5353253
vn 0.8120421 0.23241 0.5353253
vn 0.8120421 0.23241 0.5353253
vn -0.2961436 0.5768989 0.7612401
vn -0.2961436 0.5768989 0.7612401
vn -0.2961436 0.5768989 0.7612401
vn 0.1265132 0.9836521 -0.1281525
vn 0.1265132 0.9836521 -0.1281525
vn 0.1265132 0.9836521 -0.1281525
vn -0.1357815 0.9241999 -0.3569563
vn -0.1357815 0.9241999 -0.3569563
vn -0.1357815 0.9241999 -0.3569563
vn -0.1775965 0.5341157 -0.8265469
vn -0.1775965 0.5341157 -0.8265469
vn -0.1775965 0.5341157 -0.8265469
vn 0.1314868 0.6045662 -0.7856278
vn 0.1314868 0.6045662 -0.7856278
vn 0.1314868 0.6045662 -0.7856278
vn 0 0.8768037 0.4808484
vn 0 0.876803 0.4808497
vn 0 0.8768032 0.4808494
vn 0 0.8768036 0.4808487
vn 0 0.876804 0.4808479
vn 0 0.8768032 0.4808496
vn 0 0.876803 0.48085
vn 0 0.876803 0.48085
vn 0 0 -1
vn 0 0 -1
vn 0 0 -1
vn 0 0 -1
vn 0 0 -1
vn 0 0 -1
vn 0 0 -1
vn 0 0 -1
vn 0 0 -1
vn 0 0 -1
vn 0 0 -1
vn 0 0 -1
vn 0 0 -1
vn 0 0 -1
vn 0 -1 0
vn 0 -1 0
vn 0 -1 0
vn 0 -1 0
vn 0 -0.7076035 0.7066097
vn 0 -0.7076035 0.7066097
vn 0 -0.7076035 0.7066097
vn 0 -0.7076035 0.7066097
vn 0.7989516 -0.5358471 -0.2730275
vn 0.7989516 -0.5358471 -0.2730275
vn 0.7989516 -0.5358471 -0.2730275
vn 0.7989516 -0.5358471 -0.2730275
vn 0 -0.7075977 -0.7066154
vn 0 -0.7075977 -0.7066154
vn 0 -0.7075977 -0.7066154
vn 0 -0.7075977 -0.7066154
vn -0.7989516 -0.5358471 -0.2730275
vn -0.7989516 -0.5358471 -0.2730275
vn -0.7989516 -0.5358471 -0.2730275
vn -0.7989516 -0.5358471 -0.2730275
vn 0 0 1
vn 0 0 1
vn 0 0 1
vn 0 0 1
vn 0 0 1
vn 1 0 0
vn 1 0 0
vn 1 0 0
vn 1 0 0
vn 1 0 0
vn 1 0 0
vn 0 0 -1
vn 0 0 -1
vn 0 0 -1
vn 0 0 -1
vn 0 0 -1
vn 0 0 -1
vn 0 0 -1
vn -1 0 0
vn -1 0 0
vn -1 0 0
vn -1 0 0
vn -1 0 0
vn -1 0 0
vn -1 0 0
vn 0.7989493 -0.5358501 0.2730288
vn 0.7989493 -0.5358501 0.2730288
vn 0.7989493 -0.5358501 0.2730288
vn 0.7989493 -0.5358501 0.2730288
vn 0 0.8768039 -0.4808482
vn 0 0.8768041 -0.4808478
vn 0 0.8768042 -0.4808474
vn 0 0.8768039 -0.4808482
vn 0 0.8768034 -0.480849
vn 0 0.8768034 -0.480849
vn 0 0.876804 -0.4808481
vn 0 0.876804 -0.4808481
vn 0 0.876804 -0.4808481
vn 0 0.876804 -0.4808481
vn -0.7989493 -0.5358501 0.2730288
vn -0.7989493 -0.5358501 0.2730288
vn -0.7989493 -0.5358501 0.2730288
vn -0.7989493 -0.5358501 0.2730288
vn -1 0 0
vn -1 0 0
vn -1 0 0
vn -1 0 0
vn -1 0 0
vn -1 0 0
vn -1 0 0
vn -1 0 0
vn -1 0 0
vn -1 0 0
vn -1 0 0
vn -1 0 0
vn -1 0 0
vn -1 0 0
vn -1 0 0
vn 0 0 1
vn 0 0 1
vn 0 0 1
vn 0 0 1
vn 0 0 1
vn 0 0 1
vn 0 0 1
vn 0 0 1
vn 0 0 1
vn 0 0 1
vn 0 0 1
vn 0 0 1
vn 0 0 1
vn 0 0 1
vn 0 0 1
vn 1 0 0
vn 1 0 0
vn 1 0 0
vn 1 0 0
vn 1 0 0
vn 1 0 0
vn 1 0 0
vn 1 0 0
vn 1 0 0
vn 1 0 0
vn 1 0 0
vn 1 0 0
vn 1 0 0
vn 1 0 0
vn 1 0 0
vn 1 0 0
vn 1 0 0
vn 1 0 0
vn 1 0 0
g SM_Prop_Fence_Ornate_Post_01_0
f 3/3/3 2/2/2 1/1/1
f 6/6/6 5/5/5 4/4/4
f 9/9/9 8/8/8 7/7/7
f 12/12/12 11/11/11 10/10/10
f 15/15/15 14/14/14 13/13/13
f 18/18/18 17/17/17 16/16/16
f 21/21/21 20/20/20 19/19/19
f 24/24/24 23/23/23 22/22/22
f 27/27/27 26/26/26 25/25/25
f 30/30/30 29/29/29 28/28/28
f 33/33/33 32/32/32 31/31/31
f 36/36/36 35/35/35 34/34/34
f 39/39/39 38/38/38 37/37/37
f 42/42/42 41/41/41 40/40/40
f 45/45/45 44/44/44 43/43/43
f 48/48/48 47/47/47 46/46/46
f 51/51/51 50/50/50 49/49/49
f 54/54/54 53/53/53 52/52/52
f 57/57/57 56/56/56 55/55/55
f 60/60/60 59/59/59 58/58/58
f 63/63/63 62/62/62 61/61/61
f 61/61/61 64/64/64 63/63/63
f 61/61/61 65/65/65 64/64/64
f 65/65/65 66/66/66 64/64/64
f 66/66/66 67/67/67 64/64/64
f 67/67/67 68/68/68 64/64/64
f 71/71/71 70/70/70 69/69/69
f 71/71/71 69/69/69 72/72/72
f 73/73/73 72/72/72 69/69/69
f 72/72/72 74/74/74 71/71/71
f 75/75/75 73/73/73 69/69/69
f 76/76/76 71/71/71 74/74/74
f 74/74/74 77/77/77 76/76/76
f 76/76/76 78/78/78 71/71/71
f 73/73/73 75/75/75 79/79/79
f 75/75/75 80/80/80 79/79/79
f 73/73/73 79/79/79 81/81/81
f 81/81/81 82/82/82 73/73/73
f 85/85/85 84/84/84 83/83/83
f 86/86/86 85/85/85 83/83/83
f 89/89/89 88/88/88 87/87/87
f 90/90/90 89/89/89 87/87/87
f 93/93/93 92/92/92 91/91/91
f 94/94/94 93/93/93 91/91/91
f 97/97/97 96/96/96 95/95/95
f 98/98/98 97/97/97 95/95/95
f 101/101/101 100/100/100 99/99/99
f 102/102/102 101/101/101 99/99/99
f 105/105/105 104/104/104 103/103/103
f 103/103/103 106/106/106 105/105/105
f 103/103/103 107/107/107 106/106/106
f 110/110/110 109/109/109 108/108/108
f 111/111/111 110/110/110 108/108/108
f 111/111/111 112/112/112 110/110/110
f 112/112/112 113/113/113 110/110/110
f 116/116/116 115/115/115 114/114/114
f 117/117/117 116/116/116 114/114/114
f 118/118/118 117/117/117 114/114/114
f 118/118/118 119/119/119 117/117/117
f 119/119/119 120/120/120 117/117/117
f 123/123/123 122/122/122 121/121/121
f 121/121/121 124/124/124 123/123/123
f 124/124/124 125/125/125 123/123/123
f 123/123/123 125/125/125 126/126/126
f 125/125/125 127/127/127 126/126/126
f 130/130/130 129/129/129 128/128/128
f 131/131/131 130/130/130 128/128/128
f 134/134/134 133/133/133 132/132/132
f 133/133/133 135/135/135 132/132/132
f 135/135/135 136/136/136 132/132/132
f 136/136/136 137/137/137 132/132/132
f 133/133/133 138/138/138 135/135/135
f 138/138/138 139/139/139 135/135/135
f 133/133/133 140/140/140 138/138/138
f 140/140/140 141/141/141 138/138/138
f 144/144/144 143/143/143 142/142/142
f 145/145/145 144/144/144 142/142/142
f 148/148/148 147/147/147 146/146/146
f 146/146/146 149/149/149 148/148/148
f 146/146/146 150/150/150 149/149/149
f 150/150/150 151/151/151 149/149/149
f 151/151/151 150/150/150 152/152/152
f 152/152/152 153/153/153 151/151/151
f 152/152/152 154/154/154 153/153/153
f 152/152/152 155/155/155 154/154/154
f 155/155/155 156/156/156 154/154/154
f 157/157/157 156/156/156 155/155/155
f 155/155/155 158/158/158 157/157/157
f 158/158/158 159/159/159 157/157/157
f 155/155/155 160/160/160 158/158/158
f 163/163/163 162/162/162 161/161/161
f 161/161/161 164/164/164 163/163/163
f 163/163/163 164/164/164 165/165/165
f 164/164/164 166/166/166 165/165/165
f 161/161/161 167/167/167 164/164/164
f 168/168/168 167/167/167 161/161/161
f 168/168/168 161/161/161 169/169/169
f 169/169/169 170/170/170 168/168/168
f 170/170/170 171/171/171 168/168/168
f 171/171/171 172/172/172 168/168/168
f 173/173/173 172/172/172 171/171/171
f 173/173/173 171/171/171 174/174/174
f 174/174/174 175/175/175 173/173/173
f 178/178/178 177/177/177 176/176/176
f 176/176/176 179/179/179 178/178/178
f 176/176/176 180/180/180 179/179/179
f 180/180/180 176/176/176 181/181/181
f 182/182/182 180/180/180 181/181/181
f 183/183/183 182/182/182 181/181/181
f 181/181/181 184/184/184 183/183/183
f 184/184/184 185/185/185 183/183/183
f 185/185/185 184/184/184 186/186/186
f 186/186/186 187/187/187 185/185/185
f 186/186/186 188/188/188 187/187/187
f 187/187/187 188/188/188 189/189/189
f 188/188/188 190/190/190 189/189/189
f 193/193/193 192/192/192 191/191/191
f 194/194/194 193/193/193 191/191/191
