g SM_Prop_GoldBar_01
v -0.04768012 0.06982622 0.1896255
v 0.04768012 0.06982622 0.1896255
v 0.05629051 0.0626034 0.2022025
v -0.05629051 0.0626034 0.2022025
v -0.05726907 0.06982622 0.1783829
v 0.04768012 0.06982622 0.1896255
v -0.04768012 0.06982622 0.1896255
v 0.05726907 0.06982622 0.1783829
v 0.03811653 0.06982622 0.1478554
v -0.03811653 0.06982622 0.1478554
v 0.03811653 0.06982622 0.1226167
v -0.05726907 0.06982622 -7.450581E-09
v 0.05726907 0.06982622 -1.490116E-08
v -0.03811654 0.06982622 0.1226167
v 2.245499E-10 0.06982622 -0.07952097
v -0.02890418 0.06982622 -0.09149344
v 0.02890419 0.06982622 -0.09149344
v -0.04087665 0.06982622 -0.1203976
v 0.04087665 0.06982622 -0.1203976
v -0.05726907 0.06982622 -0.178383
v 0.05726907 0.06982622 -0.178383
v -0.02890418 0.06982622 -0.1493018
v 0.02890418 0.06982622 -0.1493018
v 1.816044E-10 0.06982622 -0.1612743
v 0.04768012 0.06982622 -0.1896255
v -0.04768012 0.06982622 -0.1896255
v -0.06761111 0.0626034 0.1876069
v -0.05726907 0.06982622 0.1783829
v -0.04768012 0.06982622 0.1896255
v -0.05629051 0.0626034 0.2022025
v -0.07446532 0.007222817 0.2212647
v -0.05629051 0.0626034 0.2022025
v 0.05629051 0.0626034 0.2022025
v 0.07446532 0.007222817 0.2212647
v 0.04768012 0.06982622 0.1896255
v 0.05726907 0.06982622 0.1783829
v 0.06761111 0.0626034 0.1876069
v 0.05629051 0.0626034 0.2022025
v -0.05629051 0.0626034 0.2022025
v -0.07446532 0.007222817 0.2212647
v -0.08944105 0.007222816 0.2054993
v -0.06761111 0.0626034 0.1876069
v 0.07318834 0 0.2171047
v -0.07318834 0 0.2171047
v -0.07446532 0.007222817 0.2212647
v 0.07446532 0.007222817 0.2212647
v 0.05629051 0.0626034 0.2022025
v 0.06761111 0.0626034 0.1876069
v 0.08944105 0.007222816 0.2054993
v 0.07446532 0.007222817 0.2212647
v -0.06761111 0.06260339 0
v -0.06761111 0.06260338 -0.1876069
v -0.05726907 0.06982622 -0.178383
v -0.05726907 0.06982622 -7.450581E-09
v -0.05726907 0.06982622 0.1783829
v -0.06761111 0.0626034 0.1876069
v 0.06761111 0.06260339 0
v 0.06761111 0.0626034 0.1876069
v 0.05726907 0.06982622 0.1783829
v 0.05726907 0.06982622 -1.490116E-08
v 0.06761111 0.06260338 -0.1876069
v 0.05726907 0.06982622 -0.178383
v -0.06761111 0.06260338 -0.1876069
v -0.08944105 0.007222805 7.450581E-09
v -0.08944105 0.007222794 -0.2054993
v -0.06761111 0.06260339 0
v -0.08944105 0.007222816 0.2054993
v -0.06761111 0.0626034 0.1876069
v -0.07318834 0 0.2171047
v -0.08790726 0 0.2015946
v -0.08944105 0.007222816 0.2054993
v -0.07446532 0.007222817 0.2212647
v 0.08790726 0 0.2015946
v -0.07318834 0 0.2171047
v 0.07318834 0 0.2171047
v -0.08790726 0 0.2015946
v -0.08790726 0 -1.490116E-08
v 0.08790726 0 -1.490116E-08
v -0.08790726 0 -0.2015947
v 0.08790726 0 -0.2015947
v -0.07318834 0 -0.2171047
v 0.07318834 0 -0.2171047
v 0.08944105 0.007222816 0.2054993
v 0.08790726 0 0.2015946
v 0.07318834 0 0.2171047
v 0.07446532 0.007222817 0.2212647
v 0.06761111 0.06260339 0
v 0.06761111 0.06260338 -0.1876069
v 0.08944105 0.007222794 -0.2054993
v 0.08944105 0.007222805 7.450581E-09
v 0.08944105 0.007222816 0.2054993
v 0.06761111 0.0626034 0.1876069
v -0.06761111 0.06260338 -0.1876069
v -0.05629051 0.06260338 -0.2022025
v -0.04768012 0.06982622 -0.1896255
v -0.05726907 0.06982622 -0.178383
v 0.04768012 0.06982622 -0.1896255
v 0.05629051 0.06260338 -0.2022025
v 0.06761111 0.06260338 -0.1876069
v 0.05726907 0.06982622 -0.178383
v -0.05629051 0.06260338 -0.2022025
v 0.05629051 0.06260338 -0.2022025
v 0.04768012 0.06982622 -0.1896255
v -0.04768012 0.06982622 -0.1896255
v -0.08944105 0.007222794 -0.2054993
v -0.07446532 0.007222794 -0.2212647
v -0.05629051 0.06260338 -0.2022025
v -0.06761111 0.06260338 -0.1876069
v -0.08944105 0.007222794 -0.2054993
v -0.08790726 0 -1.490116E-08
v -0.08790726 0 -0.2015947
v -0.08944105 0.007222805 7.450581E-09
v -0.08790726 0 0.2015946
v -0.08944105 0.007222816 0.2054993
v 0.08944105 0.007222805 7.450581E-09
v 0.08944105 0.007222794 -0.2054993
v 0.08790726 0 -0.2015947
v 0.08790726 0 -1.490116E-08
v 0.08790726 0 0.2015946
v 0.08944105 0.007222816 0.2054993
v 0.05629051 0.06260338 -0.2022025
v 0.07446532 0.007222794 -0.2212647
v 0.08944105 0.007222794 -0.2054993
v 0.06761111 0.06260338 -0.1876069
v 0.05629051 0.06260338 -0.2022025
v -0.05629051 0.06260338 -0.2022025
v -0.07446532 0.007222794 -0.2212647
v 0.07446532 0.007222794 -0.2212647
v -0.07318834 0 -0.2171047
v -0.07446532 0.007222794 -0.2212647
v -0.08944105 0.007222794 -0.2054993
v -0.08790726 0 -0.2015947
v 0.08944105 0.007222794 -0.2054993
v 0.07446532 0.007222794 -0.2212647
v 0.07318834 0 -0.2171047
v 0.08790726 0 -0.2015947
v 0.07446532 0.007222794 -0.2212647
v -0.07446532 0.007222794 -0.2212647
v -0.07318834 0 -0.2171047
v 0.07318834 0 -0.2171047
v 0.02890418 0.06982622 -0.1493018
v 0.02407213 0.06307426 -0.1444698
v 7.651217E-10 0.06307426 -0.1544408
v 1.816044E-10 0.06982622 -0.1612743
v 0.04087665 0.06982622 -0.1203976
v 0.03404317 0.06307426 -0.1203976
v 0.02407213 0.06307426 -0.1444698
v 0.02890418 0.06982622 -0.1493018
v 1.816044E-10 0.06982622 -0.1612743
v 7.651217E-10 0.06307426 -0.1544408
v -0.02407213 0.06307426 -0.1444698
v -0.02890418 0.06982622 -0.1493018
v 0.02890419 0.06982622 -0.09149344
v 0.02407213 0.06307426 -0.09632549
v 0.03404317 0.06307426 -0.1203976
v 0.04087665 0.06982622 -0.1203976
v -0.02890418 0.06982622 -0.1493018
v -0.02407213 0.06307426 -0.1444698
v -0.03404317 0.06307426 -0.1203976
v -0.04087665 0.06982622 -0.1203976
v 2.245499E-10 0.06982622 -0.07952097
v 7.651217E-10 0.06307426 -0.08635445
v 0.02407213 0.06307426 -0.09632549
v 0.02890419 0.06982622 -0.09149344
v -0.02890418 0.06982622 -0.09149344
v -0.04087665 0.06982622 -0.1203976
v -0.03404317 0.06307426 -0.1203976
v -0.02407213 0.06307426 -0.09632549
v -0.02890418 0.06982622 -0.09149344
v -0.02407213 0.06307426 -0.09632549
v 7.651217E-10 0.06307426 -0.08635445
v 2.245499E-10 0.06982622 -0.07952097
v 0.03441307 0.06382069 0.1455419
v -0.03441307 0.06382069 0.1455419
v -0.03441308 0.06382069 0.1249302
v 0.03441307 0.06382069 0.1249302
v 0.03811653 0.06982622 0.1478554
v 0.03441307 0.06382069 0.1455419
v 0.03441307 0.06382069 0.1249302
v 0.03811653 0.06982622 0.1226167
v 0.03811653 0.06982622 0.1226167
v 0.03441307 0.06382069 0.1249302
v -0.03441308 0.06382069 0.1249302
v -0.03811654 0.06982622 0.1226167
v -0.03811654 0.06982622 0.1226167
v -0.03441308 0.06382069 0.1249302
v -0.03441307 0.06382069 0.1455419
v -0.03811653 0.06982622 0.1478554
v -0.03811653 0.06982622 0.1478554
v -0.03441307 0.06382069 0.1455419
v 0.03441307 0.06382069 0.1455419
v 0.03811653 0.06982622 0.1478554
v -0.02407213 0.06307426 -0.09632549
v -0.03404317 0.06307426 -0.1203976
v 7.651217E-10 0.06307426 -0.1203976
v 7.651217E-10 0.06307426 -0.08635445
v -0.02407213 0.06307426 -0.1444698
v 0.02407213 0.06307426 -0.09632549
v 7.651217E-10 0.06307426 -0.1544408
v 0.03404317 0.06307426 -0.1203976
v 0.02407213 0.06307426 -0.1444698
vt 0.04989883 0.2108013
vt 0.04989883 0.2108013
vt 0.04989883 0.2108013
vt 0.04989883 0.2108013
vt 0.04989883 0.2108013
vt 0.04989883 0.2108013
vt 0.04989883 0.2108013
vt 0.04989883 0.2108013
vt 0.04989883 0.2108013
vt 0.04989883 0.2108012
vt 0.0498988 0.2108013
vt 0.04989883 0.2108013
vt 0.0498988 0.2108013
vt 0.0498988 0.2108012
vt 0.04989886 0.2108012
vt 0.04989886 0.2108012
vt 0.04989886 0.2108012
vt 0.04989886 0.2108012
vt 0.04989886 0.2108012
vt 0.04989883 0.2108013
vt 0.04989883 0.2108013
vt 0.04989886 0.2108012
vt 0.04989886 0.2108012
vt 0.04989886 0.2108012
vt 0.04989883 0.2108013
vt 0.04989883 0.2108013
vt 0.04989883 0.2108013
vt 0.04989883 0.2108013
vt 0.04989883 0.2108013
vt 0.04989883 0.2108013
vt 0.04989883 0.2108013
vt 0.04989883 0.2108013
vt 0.04989883 0.2108013
vt 0.04989883 0.2108013
vt 0.04989883 0.2108013
vt 0.04989883 0.2108013
vt 0.0498988 0.2108013
vt 0.04989883 0.2108013
vt 0.04989883 0.2108013
vt 0.04989883 0.2108013
vt 0.04989883 0.2108013
vt 0.04989883 0.2108013
vt 0.04989883 0.2108013
vt 0.04989883 0.2108013
vt 0.04989883 0.2108013
vt 0.04989883 0.2108013
vt 0.04989883 0.2108013
vt 0.0498988 0.2108013
vt 0.04989883 0.2108013
vt 0.04989883 0.2108013
vt 0.04989886 0.2108013
vt 0.04989883 0.2108013
vt 0.04989883 0.2108013
vt 0.04989886 0.2108013
vt 0.04989883 0.2108013
vt 0.04989883 0.2108013
vt 0.04989883 0.2108013
vt 0.0498988 0.2108013
vt 0.04989883 0.2108013
vt 0.04989883 0.2108013
vt 0.04989883 0.2108013
vt 0.04989883 0.2108013
vt 0.04989883 0.2108013
vt 0.0498988 0.2108013
vt 0.04989883 0.2108013
vt 0.04989886 0.2108013
vt 0.04989883 0.2108013
vt 0.04989883 0.2108013
vt 0.04989883 0.2108013
vt 0.04989883 0.2108013
vt 0.04989883 0.2108013
vt 0.04989883 0.2108013
vt 0.04989883 0.2108013
vt 0.04989883 0.2108013
vt 0.04989883 0.2108013
vt 0.04989883 0.2108013
vt 0.04989883 0.2108013
vt 0.04989886 0.2108013
vt 0.0498988 0.2108013
vt 0.04989883 0.2108013
vt 0.04989883 0.2108013
vt 0.04989883 0.2108013
vt 0.04989883 0.2108013
vt 0.04989883 0.2108013
vt 0.04989883 0.2108013
vt 0.04989883 0.2108013
vt 0.04989883 0.2108013
vt 0.04989883 0.2108013
vt 0.04989883 0.2108013
vt 0.04989883 0.2108013
vt 0.04989883 0.2108013
vt 0.0498988 0.2108013
vt 0.04989883 0.2108013
vt 0.04989883 0.2108013
vt 0.04989883 0.2108013
vt 0.04989883 0.2108013
vt 0.04989883 0.2108013
vt 0.04989883 0.2108013
vt 0.04989883 0.2108013
vt 0.04989883 0.2108013
vt 0.04989883 0.2108013
vt 0.04989883 0.2108013
vt 0.04989883 0.2108013
vt 0.04989883 0.2108013
vt 0.04989883 0.2108013
vt 0.04989883 0.2108013
vt 0.04989883 0.2108013
vt 0.04989883 0.2108013
vt 0.04989883 0.2108013
vt 0.04989883 0.2108013
vt 0.0498988 0.2108013
vt 0.0498988 0.2108013
vt 0.04989883 0.2108013
vt 0.04989883 0.2108013
vt 0.04989883 0.2108013
vt 0.04989883 0.2108013
vt 0.04989883 0.2108013
vt 0.04989886 0.2108013
vt 0.04989883 0.2108013
vt 0.04989883 0.2108013
vt 0.04989883 0.2108013
vt 0.04989883 0.2108013
vt 0.04989883 0.2108013
vt 0.04989883 0.2108013
vt 0.04989883 0.2108013
vt 0.04989883 0.2108013
vt 0.04989883 0.2108013
vt 0.04989883 0.2108013
vt 0.04989883 0.2108013
vt 0.04989883 0.2108013
vt 0.04989883 0.2108013
vt 0.0498988 0.2108013
vt 0.04989883 0.2108013
vt 0.04989883 0.2108013
vt 0.04989883 0.2108013
vt 0.04989883 0.2108013
vt 0.04989883 0.2108013
vt 0.04989883 0.2108013
vt 0.04989883 0.2108013
vt 0.04989883 0.2108013
vt 0.0498988 0.2108013
vt 0.04989883 0.2108013
vt 0.04989883 0.2108013
vt 0.04989883 0.2108013
vt 0.04989883 0.2108013
vt 0.04989883 0.2108013
vt 0.04989883 0.2108013
vt 0.0498988 0.2108013
vt 0.04989883 0.2108013
vt 0.04989883 0.2108013
vt 0.04989883 0.2108013
vt 0.04989883 0.2108013
vt 0.04989883 0.2108013
vt 0.04989883 0.2108013
vt 0.04989883 0.2108013
vt 0.04989883 0.2108013
vt 0.04989883 0.2108013
vt 0.04989883 0.2108013
vt 0.04989883 0.2108013
vt 0.04989883 0.2108013
vt 0.04989883 0.2108013
vt 0.0498988 0.2108013
vt 0.04989883 0.2108013
vt 0.04989883 0.2108013
vt 0.04989883 0.2108013
vt 0.04989883 0.2108013
vt 0.04989883 0.2108013
vt 0.04989883 0.2108013
vt 0.04989883 0.2108013
vt 0.04989883 0.2108013
vt 0.0498988 0.2108013
vt 0.04989883 0.2108013
vt 0.04989883 0.2108013
vt 0.04989883 0.2108012
vt 0.0498988 0.2108012
vt 0.0498988 0.2108013
vt 0.04989883 0.2108013
vt 0.04989883 0.2108013
vt 0.0498988 0.2108013
vt 0.0498988 0.2108013
vt 0.0498988 0.2108013
vt 0.0498988 0.2108013
vt 0.0498988 0.2108012
vt 0.0498988 0.2108012
vt 0.0498988 0.2108012
vt 0.0498988 0.2108012
vt 0.04989883 0.2108012
vt 0.04989883 0.2108012
vt 0.04989883 0.2108012
vt 0.04989883 0.2108012
vt 0.04989883 0.2108013
vt 0.04989883 0.2108013
vt 0.04989883 0.2108013
vt 0.04989883 0.2108013
vt 0.04989883 0.2108013
vt 0.0498988 0.2108013
vt 0.04989883 0.2108013
vt 0.04989883 0.2108013
vt 0.04989883 0.2108013
vt 0.04989883 0.2108013
vt 0.04989883 0.2108013
vn 0 0.8671736 0.4980061
vn 0 0.8671736 0.4980061
vn 0 0.8671736 0.4980061
vn 0 0.8671736 0.4980061
vn 0 1 0
vn 0 1 0
vn 0 1 0
vn 0 1 0
vn 0 1 0
vn 0 1 0
vn 0 1 0
vn 0 1 0
vn 0 1 0
vn 0 1 0
vn 0 1 0
vn 0 1 0
vn 0 1 0
vn 0 1 0
vn 0 1 0
vn 0 1 0
vn 0 1 0
vn 0 1 0
vn 0 1 0
vn 0 1 0
vn 0 1 0
vn 0 1 0
vn -0.3519637 0.891625 0.284827
vn -0.3519637 0.891625 0.284827
vn -0.3519637 0.891625 0.284827
vn -0.3519637 0.891625 0.284827
vn 0 0.3254623 0.945555
vn 0 0.3254623 0.945555
vn 0 0.3254623 0.945555
vn 0 0.3254623 0.945555
vn 0.3519637 0.891625 0.284827
vn 0.3519637 0.891625 0.284827
vn 0.3519637 0.891625 0.284827
vn 0.3519637 0.891625 0.284827
vn -0.6783953 0.4410622 0.5875746
vn -0.6783953 0.4410622 0.5875746
vn -0.6783953 0.4410622 0.5875746
vn -0.6783953 0.4410622 0.5875746
vn 0 -0.4990875 0.8665516
vn 0 -0.4990875 0.8665516
vn 0 -0.4990875 0.8665516
vn 0 -0.4990875 0.8665516
vn 0.6783953 0.4410622 0.5875746
vn 0.6783953 0.4410622 0.5875746
vn 0.6783953 0.4410622 0.5875746
vn 0.6783953 0.4410622 0.5875746
vn -0.5725789 0.8198496 0
vn -0.5725792 0.8198494 0
vn -0.5725792 0.8198494 0
vn -0.5725789 0.8198496 0
vn -0.5725787 0.8198498 0
vn -0.5725787 0.8198498 0
vn 0.5725789 0.8198496 0
vn 0.5725785 0.8198498 0
vn 0.5725785 0.8198498 0
vn 0.5725789 0.8198496 0
vn 0.5725792 0.8198495 0
vn 0.5725792 0.8198495 0
vn -0.9303319 0.3667187 0
vn -0.9303319 0.3667187 0
vn -0.9303319 0.3667187 0
vn -0.9303319 0.3667187 0
vn -0.9303319 0.3667187 0
vn -0.9303319 0.3667187 0
vn -0.6419544 -0.4651826 0.6095078
vn -0.6419544 -0.4651826 0.6095078
vn -0.6419544 -0.4651826 0.6095078
vn -0.6419544 -0.4651826 0.6095078
vn 0 -1 0
vn 0 -1 0
vn 0 -1 0
vn 0 -1 0
vn 0 -1 0
vn 0 -1 0
vn 0 -1 0
vn 0 -1 0
vn 0 -1 0
vn 0 -1 0
vn 0.6419544 -0.4651826 0.6095078
vn 0.6419544 -0.4651826 0.6095078
vn 0.6419544 -0.4651826 0.6095078
vn 0.6419544 -0.4651826 0.6095078
vn 0.9303319 0.3667187 0
vn 0.9303319 0.3667187 0
vn 0.9303319 0.3667187 0
vn 0.9303319 0.3667187 0
vn 0.9303319 0.3667187 0
vn 0.9303319 0.3667187 0
vn -0.3519646 0.8916243 -0.2848283
vn -0.3519646 0.8916243 -0.2848283
vn -0.3519646 0.8916243 -0.2848283
vn -0.3519646 0.8916243 -0.2848283
vn 0.3519646 0.8916243 -0.2848283
vn 0.3519646 0.8916243 -0.2848283
vn 0.3519646 0.8916243 -0.2848283
vn 0.3519646 0.8916243 -0.2848283
vn 0 0.8671727 -0.4980076
vn 0 0.8671727 -0.4980076
vn 0 0.8671727 -0.4980076
vn 0 0.8671727 -0.4980076
vn -0.6783953 0.4410623 -0.5875747
vn -0.6783953 0.4410623 -0.5875747
vn -0.6783953 0.4410623 -0.5875747
vn -0.6783953 0.4410623 -0.5875747
vn -0.9781879 -0.2077222 0
vn -0.9781879 -0.2077221 0
vn -0.9781879 -0.2077222 0
vn -0.9781879 -0.2077221 0
vn -0.9781879 -0.2077219 0
vn -0.9781879 -0.2077219 0
vn 0.9781879 -0.2077221 0
vn 0.9781879 -0.2077222 0
vn 0.9781879 -0.2077222 0
vn 0.9781879 -0.2077221 0
vn 0.9781879 -0.2077219 0
vn 0.9781879 -0.2077219 0
vn 0.6783953 0.4410623 -0.5875747
vn 0.6783953 0.4410623 -0.5875747
vn 0.6783953 0.4410623 -0.5875747
vn 0.6783953 0.4410623 -0.5875747
vn 0 0.3254626 -0.945555
vn 0 0.3254626 -0.945555
vn 0 0.3254626 -0.945555
vn 0 0.3254626 -0.945555
vn -0.6419543 -0.4651823 -0.6095081
vn -0.6419543 -0.4651823 -0.6095081
vn -0.6419543 -0.4651823 -0.6095081
vn -0.6419543 -0.4651823 -0.6095081
vn 0.6419543 -0.4651823 -0.6095081
vn 0.6419543 -0.4651823 -0.6095081
vn 0.6419543 -0.4651823 -0.6095081
vn 0.6419543 -0.4651823 -0.6095081
vn 0 -0.4990887 -0.8665509
vn 0 -0.4990887 -0.8665509
vn 0 -0.4990887 -0.8665509
vn 0 -0.4990887 -0.8665509
vn -0.2795248 0.6829843 0.6748321
vn -0.2795248 0.6829843 0.6748321
vn -0.2795248 0.6829843 0.6748321
vn -0.2795248 0.6829843 0.6748321
vn -0.6748325 0.6829841 0.2795247
vn -0.6748325 0.6829841 0.2795247
vn -0.6748325 0.6829841 0.2795247
vn -0.6748325 0.6829841 0.2795247
vn 0.2795248 0.6829843 0.6748321
vn 0.2795248 0.6829843 0.6748321
vn 0.2795248 0.6829843 0.6748321
vn 0.2795248 0.6829843 0.6748321
vn -0.6748323 0.6829842 -0.2795246
vn -0.6748323 0.6829842 -0.2795246
vn -0.6748323 0.6829842 -0.2795246
vn -0.6748323 0.6829842 -0.2795246
vn 0.6748325 0.6829841 0.2795247
vn 0.6748325 0.6829841 0.2795247
vn 0.6748325 0.6829841 0.2795247
vn 0.6748325 0.6829841 0.2795247
vn -0.2795246 0.6829841 -0.6748323
vn -0.2795246 0.6829841 -0.6748323
vn -0.2795246 0.6829841 -0.6748323
vn -0.2795246 0.6829841 -0.6748323
vn 0.6748324 0.6829841 -0.2795246
vn 0.6748324 0.6829841 -0.2795246
vn 0.6748324 0.6829841 -0.2795246
vn 0.6748324 0.6829841 -0.2795246
vn 0.2795246 0.6829841 -0.6748324
vn 0.2795246 0.6829841 -0.6748324
vn 0.2795246 0.6829841 -0.6748324
vn 0.2795246 0.6829841 -0.6748324
vn 0 1 0
vn 0 1 0
vn 0 1 0
vn 0 1 0
vn -0.8511675 0.5248941 0
vn -0.8511675 0.5248941 0
vn -0.8511675 0.5248941 0
vn -0.8511675 0.5248941 0
vn 0 0.3594808 0.9331525
vn 0 0.3594808 0.9331525
vn 0 0.3594808 0.9331525
vn 0 0.3594808 0.9331525
vn 0.8511675 0.5248941 0
vn 0.8511675 0.5248941 0
vn 0.8511675 0.5248941 0
vn 0.8511675 0.5248941 0
vn 0 0.3594788 -0.9331532
vn 0 0.3594788 -0.9331532
vn 0 0.3594788 -0.9331532
vn 0 0.3594788 -0.9331532
vn 0 1 0
vn 0 1 0
vn 0 1 0
vn 0 1 0
vn 0 1 0
vn 0 1 0
vn 0 1 0
vn 0 1 0
vn 0 1 0
g SM_Prop_GoldBar_01_0
f 3/3/3 2/2/2 1/1/1
f 4/4/4 3/3/3 1/1/1
f 7/7/7 6/6/6 5/5/5
f 6/6/6 8/8/8 5/5/5
f 8/8/8 9/9/9 5/5/5
f 9/9/9 10/10/10 5/5/5
f 11/11/11 9/9/9 8/8/8
f 5/5/5 10/10/10 12/12/12
f 13/13/13 11/11/11 8/8/8
f 10/10/10 14/14/14 12/12/12
f 14/14/14 11/11/11 13/13/13
f 12/12/12 14/14/14 13/13/13
f 13/13/13 15/15/15 12/12/12
f 15/15/15 16/16/16 12/12/12
f 13/13/13 17/17/17 15/15/15
f 12/12/12 16/16/16 18/18/18
f 19/19/19 17/17/17 13/13/13
f 12/12/12 18/18/18 20/20/20
f 21/21/21 19/19/19 13/13/13
f 18/18/18 22/22/22 20/20/20
f 21/21/21 23/23/23 19/19/19
f 24/24/24 23/23/23 21/21/21
f 20/20/20 22/22/22 24/24/24
f 20/20/20 24/24/24 21/21/21
f 21/21/21 25/25/25 20/20/20
f 25/25/25 26/26/26 20/20/20
f 29/29/29 28/28/28 27/27/27
f 30/30/30 29/29/29 27/27/27
f 33/33/33 32/32/32 31/31/31
f 34/34/34 33/33/33 31/31/31
f 37/37/37 36/36/36 35/35/35
f 38/38/38 37/37/37 35/35/35
f 41/41/41 40/40/40 39/39/39
f 42/42/42 41/41/41 39/39/39
f 45/45/45 44/44/44 43/43/43
f 46/46/46 45/45/45 43/43/43
f 49/49/49 48/48/48 47/47/47
f 50/50/50 49/49/49 47/47/47
f 53/53/53 52/52/52 51/51/51
f 54/54/54 53/53/53 51/51/51
f 54/54/54 51/51/51 55/55/55
f 51/51/51 56/56/56 55/55/55
f 59/59/59 58/58/58 57/57/57
f 60/60/60 59/59/59 57/57/57
f 60/60/60 57/57/57 61/61/61
f 62/62/62 60/60/60 61/61/61
f 65/65/65 64/64/64 63/63/63
f 64/64/64 66/66/66 63/63/63
f 64/64/64 67/67/67 66/66/66
f 67/67/67 68/68/68 66/66/66
f 71/71/71 70/70/70 69/69/69
f 72/72/72 71/71/71 69/69/69
f 75/75/75 74/74/74 73/73/73
f 74/74/74 76/76/76 73/73/73
f 76/76/76 77/77/77 73/73/73
f 77/77/77 78/78/78 73/73/73
f 77/77/77 79/79/79 78/78/78
f 79/79/79 80/80/80 78/78/78
f 79/79/79 81/81/81 80/80/80
f 81/81/81 82/82/82 80/80/80
f 85/85/85 84/84/84 83/83/83
f 86/86/86 85/85/85 83/83/83
f 89/89/89 88/88/88 87/87/87
f 90/90/90 89/89/89 87/87/87
f 90/90/90 87/87/87 91/91/91
f 87/87/87 92/92/92 91/91/91
f 95/95/95 94/94/94 93/93/93
f 96/96/96 95/95/95 93/93/93
f 99/99/99 98/98/98 97/97/97
f 100/100/100 99/99/99 97/97/97
f 103/103/103 102/102/102 101/101/101
f 104/104/104 103/103/103 101/101/101
f 107/107/107 106/106/106 105/105/105
f 108/108/108 107/107/107 105/105/105
f 111/111/111 110/110/110 109/109/109
f 110/110/110 112/112/112 109/109/109
f 110/110/110 113/113/113 112/112/112
f 113/113/113 114/114/114 112/112/112
f 117/117/117 116/116/116 115/115/115
f 118/118/118 117/117/117 115/115/115
f 118/118/118 115/115/115 119/119/119
f 115/115/115 120/120/120 119/119/119
f 123/123/123 122/122/122 121/121/121
f 124/124/124 123/123/123 121/121/121
f 127/127/127 126/126/126 125/125/125
f 128/128/128 127/127/127 125/125/125
f 131/131/131 130/130/130 129/129/129
f 132/132/132 131/131/131 129/129/129
f 135/135/135 134/134/134 133/133/133
f 136/136/136 135/135/135 133/133/133
f 139/139/139 138/138/138 137/137/137
f 140/140/140 139/139/139 137/137/137
f 143/143/143 142/142/142 141/141/141
f 144/144/144 143/143/143 141/141/141
f 147/147/147 146/146/146 145/145/145
f 148/148/148 147/147/147 145/145/145
f 151/151/151 150/150/150 149/149/149
f 152/152/152 151/151/151 149/149/149
f 155/155/155 154/154/154 153/153/153
f 156/156/156 155/155/155 153/153/153
f 159/159/159 158/158/158 157/157/157
f 160/160/160 159/159/159 157/157/157
f 163/163/163 162/162/162 161/161/161
f 164/164/164 163/163/163 161/161/161
f 167/167/167 166/166/166 165/165/165
f 168/168/168 167/167/167 165/165/165
f 171/171/171 170/170/170 169/169/169
f 172/172/172 171/171/171 169/169/169
f 175/175/175 174/174/174 173/173/173
f 176/176/176 175/175/175 173/173/173
f 179/179/179 178/178/178 177/177/177
f 180/180/180 179/179/179 177/177/177
f 183/183/183 182/182/182 181/181/181
f 184/184/184 183/183/183 181/181/181
f 187/187/187 186/186/186 185/185/185
f 188/188/188 187/187/187 185/185/185
f 191/191/191 190/190/190 189/189/189
f 192/192/192 191/191/191 189/189/189
f 195/195/195 194/194/194 193/193/193
f 195/195/195 193/193/193 196/196/196
f 195/195/195 197/197/197 194/194/194
f 195/195/195 196/196/196 198/198/198
f 195/195/195 199/199/199 197/197/197
f 195/195/195 198/198/198 200/200/200
f 195/195/195 201/201/201 199/199/199
f 195/195/195 200/200/200 201/201/201
