g SM_Prop_Lockers_Drawer_05
v -0.1968352 1.306241E-08 -0.5201266
v 0.1968352 1.656503E-07 -0.5201266
v -0.1968352 1.306241E-08 0
v 0.1968352 1.656503E-07 0
v -0.1968352 0.302933 0
v 0.1968352 0.302933 0
v 0.1968352 0.302933 -0.5201266
v -0.1968352 0.302933 -0.5201266
v -0.1747608 0.302933 -0.02916515
v -0.1747608 0.302933 -0.4909614
v 0.1747608 0.302933 -0.02916515
v 0.1747608 0.302933 -0.4909615
v -0.1747608 0.03344899 -0.02916515
v -0.1747608 0.03344899 -0.4909614
v 0.1747608 0.03344899 -0.02916515
v 0.1747608 0.03344899 -0.4909615
v 0.07803597 0.264883 0
v 0.07803597 0.176493 0
v -0.0780355 0.264883 0
v -0.0780355 0.176493 0
v 0.07112297 0.2587799 0.02161375
v 0.07112297 0.2355944 0.02161375
v -0.0711225 0.2587799 0.02161375
v -0.0711225 0.2355944 0.02161375
v -0.06410167 0.1902497 0.005030918
v 0.06410183 0.1902497 0.005030918
v 0.05842316 0.2207768 0.0161949
v -0.05842277 0.2207768 0.0161949
v -0.05922599 0.215292 0.00503088
v 0.05922631 0.215292 0.00503088
v 0.1968352 1.656503E-07 -0.5201266
v -0.1968352 1.306241E-08 -0.5201266
v -0.1968352 1.306241E-08 0
v -0.1968352 1.306241E-08 -0.5201266
v -0.1968352 0.302933 -0.5201266
v 0.1968352 0.302933 -0.5201266
v 0.1968352 1.656503E-07 -0.5201266
v 0.1968352 1.656503E-07 0
v -0.1968352 0.302933 -0.5201266
v -0.1968352 0.302933 0
v 0.1968352 0.302933 0
v 0.1968352 0.302933 -0.5201266
v -0.1747608 0.302933 -0.4909614
v -0.1747608 0.03344899 -0.4909614
v -0.1747608 0.03344899 -0.02916515
v -0.1747608 0.302933 -0.02916515
v -0.1747608 0.302933 -0.02916515
v -0.1747608 0.03344899 -0.02916515
v 0.1747608 0.03344899 -0.02916515
v 0.1747608 0.302933 -0.02916515
v 0.1747608 0.302933 -0.02916515
v 0.1747608 0.03344899 -0.02916515
v 0.1747608 0.03344899 -0.4909615
v 0.1747608 0.302933 -0.4909615
v 0.1747608 0.302933 -0.4909615
v 0.1747608 0.03344899 -0.4909615
v -0.1747608 0.03344899 -0.4909614
v -0.1747608 0.302933 -0.4909614
v 0.1968352 1.656503E-07 0
v 0.1968352 0.302933 0
v -0.1968352 0.302933 0
v -0.1968352 1.306241E-08 0
v 0.07803597 0.176493 0
v 0.07112297 0.2355944 0.02161375
v 0.07112297 0.2587799 0.02161375
v 0.07803597 0.264883 0
v 0.07803597 0.264883 0
v 0.07112297 0.2587799 0.02161375
v -0.0711225 0.2587799 0.02161375
v -0.0780355 0.264883 0
v -0.0780355 0.264883 0
v -0.0711225 0.2587799 0.02161375
v -0.0711225 0.2355944 0.02161375
v -0.0780355 0.176493 0
v -0.0780355 0.176493 0
v 0.07803597 0.176493 0
v 0.07112297 0.2355944 0.02161375
v -0.0711225 0.2355944 0.02161375
v -0.06410167 0.1902497 0.005030918
v 0.06410183 0.1902497 0.005030918
v 0.06410183 0.1902497 0.005030918
v 0.05922631 0.215292 0.00503088
v 0.05842316 0.2207768 0.0161949
v 0.05842316 0.2207768 0.0161949
v 0.05922631 0.215292 0.00503088
v -0.05922599 0.215292 0.00503088
v -0.05842277 0.2207768 0.0161949
v -0.05842277 0.2207768 0.0161949
v -0.05922599 0.215292 0.00503088
v -0.06410167 0.1902497 0.005030918
vt 0.219726 0.2772255
vt 0.219726 0.2772345
vt 0.219726 0.2772307
vt 0.219726 0.2772399
vt 0.219726 0.2764553
vt 0.219726 0.2764539
vt 0.219726 0.2764549
vt 0.219726 0.2764563
vt 0.219726 0.2764553
vt 0.219726 0.2764563
vt 0.219726 0.2764539
vt 0.219726 0.2764549
vt 0.219726 0.2764553
vt 0.219726 0.2764563
vt 0.219726 0.2764539
vt 0.219726 0.2764549
vt 0.219726 0.2764539
vt 0.219726 0.2772399
vt 0.219726 0.2764553
vt 0.219726 0.2772307
vt 0.09036326 0.2292643
vt 0.09037369 0.2296459
vt 0.09129463 0.2292979
vt 0.09128444 0.229688
vt 0.09124383 0.2297901
vt 0.09044391 0.229751
vt 0.09046167 0.2296838
vt 0.09120345 0.2297188
vt 0.09121443 0.2297134
vt 0.09047216 0.2296785
vt 0.219726 0.2772345
vt 0.219726 0.2772255
vt 0.219726 0.2772307
vt 0.219726 0.2772255
vt 0.219726 0.2764563
vt 0.219726 0.2764549
vt 0.219726 0.2772345
vt 0.219726 0.2772399
vt 0.219726 0.2764563
vt 0.219726 0.2764553
vt 0.219726 0.2764539
vt 0.219726 0.2764549
vt 0.219726 0.2764563
vt 0.219726 0.2764563
vt 0.219726 0.2764553
vt 0.219726 0.2764553
vt 0.219726 0.2764553
vt 0.219726 0.2764553
vt 0.219726 0.2764539
vt 0.219726 0.2764539
vt 0.219726 0.2764539
vt 0.219726 0.2764539
vt 0.219726 0.2764549
vt 0.219726 0.2764549
vt 0.219726 0.2764549
vt 0.219726 0.2764549
vt 0.219726 0.2764563
vt 0.219726 0.2764563
vt 0.219726 0.2772399
vt 0.219726 0.2764539
vt 0.219726 0.2764553
vt 0.219726 0.2772307
vt 0.09036738 0.229777
vt 0.09037369 0.2296459
vt 0.09036326 0.2292643
vt 0.09035105 0.2291926
vt 0.09035105 0.2291926
vt 0.09036326 0.2292643
vt 0.09129463 0.2292979
vt 0.09135115 0.2292267
vt 0.09135115 0.2292267
vt 0.09129463 0.2292979
vt 0.09128444 0.229688
vt 0.09133369 0.2298251
vt 0.09133369 0.2298251
vt 0.09036738 0.229777
vt 0.09037369 0.2296459
vt 0.09128444 0.229688
vt 0.09124383 0.2297901
vt 0.09044391 0.229751
vt 0.09044391 0.229751
vt 0.09047216 0.2296785
vt 0.09046167 0.2296838
vt 0.09046167 0.2296838
vt 0.09047216 0.2296785
vt 0.09121443 0.2297134
vt 0.09120345 0.2297188
vt 0.09120345 0.2297188
vt 0.09121443 0.2297134
vt 0.09124383 0.2297901
vn 3.87603E-07 -1 0
vn 3.876031E-07 -1 0
vn 3.87603E-07 -1 0
vn 3.87603E-07 -1 0
vn -1 0 0
vn 1 0 0
vn -1.938015E-07 0 -1
vn -1.938015E-07 0 -1
vn 0 1 0
vn 0 1 0
vn 0 1 0
vn 0 1 0
vn 0 1 0
vn 0 1 0
vn 0 1 0
vn 0 1 0
vn 0 0 1
vn 0 0 1
vn 0 0 1
vn 0 0 1
vn 0 0 1
vn 0 0 1
vn 0 0 1
vn 0 0 1
vn -2.664698E-07 -0.3434595 0.9391674
vn 2.664666E-07 -0.3434595 0.9391674
vn 2.558089E-07 -0.3434583 0.939168
vn -2.558096E-07 -0.3434583 0.939168
vn 0 1.523303E-06 1
vn 0 1.523303E-06 1
vn -1.938015E-07 0 -1
vn -1.938015E-07 0 -1
vn -1 0 0
vn -1 0 0
vn -1 0 0
vn 1 0 0
vn 1 0 0
vn 1 0 0
vn 0 1 0
vn 0 1 0
vn 0 1 0
vn 0 1 0
vn 1 0 0
vn 1 0 0
vn 1 0 0
vn 1 0 0
vn 0 0 -1
vn 0 0 -1
vn 0 0 -1
vn 0 0 -1
vn -1 0 0
vn -1 0 0
vn -1 0 0
vn -1 0 0
vn 2.18281E-07 0 1
vn 2.18281E-07 0 1
vn 2.18281E-07 0 1
vn 2.18281E-07 0 1
vn 0 0 1
vn 0 0 1
vn 0 0 1
vn 0 0 1
vn 0.9524677 0 0.3046396
vn 0.9524677 0 0.3046396
vn 0.9524677 0 0.3046396
vn 0.9524677 0 0.3046396
vn 0 0.9623688 0.2717468
vn 0 0.9623688 0.2717468
vn 0 0.9623688 0.2717468
vn 0 0.9623688 0.2717468
vn -0.9524677 0 0.3046396
vn -0.9524677 0 0.3046396
vn -0.9524677 0 0.3046396
vn -0.9524677 0 0.3046396
vn 0 -0.3434595 0.9391674
vn 0 -0.3434595 0.9391674
vn 2.287624E-07 -0.3434582 0.939168
vn -2.287619E-07 -0.3434582 0.939168
vn 0 1.523303E-06 1
vn 0 1.523303E-06 1
vn -0.981304 -0.1910519 0.02326759
vn -0.981304 -0.1910519 0.02326759
vn -0.981304 -0.1910519 0.02326759
vn 0 -0.8975298 0.4409538
vn 0 -0.8975298 0.4409538
vn 0 -0.8975298 0.4409538
vn 0 -0.8975298 0.4409538
vn 0.9813032 -0.1910577 0.02326381
vn 0.9813032 -0.1910577 0.02326381
vn 0.9813032 -0.1910577 0.02326381
g SM_Prop_Lockers_Drawer_05_0
f 83/83/83 82/82/82 81/81/81
f 90/90/90 89/89/89 88/88/88
f 4/4/4 3/3/3 1/1/1
f 2/2/2 4/4/4 1/1/1
f 8/8/8 7/7/7 31/31/31
f 32/32/32 8/8/8 31/31/31
f 23/23/23 24/24/24 22/22/22
f 21/21/21 23/23/23 22/22/22
f 35/35/35 34/34/34 33/33/33
f 5/5/5 35/35/35 33/33/33
f 38/38/38 37/37/37 36/36/36
f 6/6/6 38/38/38 36/36/36
f 15/15/15 16/16/16 14/14/14
f 13/13/13 15/15/15 14/14/14
f 45/45/45 44/44/44 43/43/43
f 46/46/46 45/45/45 43/43/43
f 49/49/49 48/48/48 47/47/47
f 50/50/50 49/49/49 47/47/47
f 53/53/53 52/52/52 51/51/51
f 54/54/54 53/53/53 51/51/51
f 57/57/57 56/56/56 55/55/55
f 58/58/58 57/57/57 55/55/55
f 65/65/65 64/64/64 63/63/63
f 66/66/66 65/65/65 63/63/63
f 69/69/69 68/68/68 67/67/67
f 70/70/70 69/69/69 67/67/67
f 73/73/73 72/72/72 71/71/71
f 74/74/74 73/73/73 71/71/71
f 30/30/30 29/29/29 79/79/79
f 80/80/80 30/30/30 79/79/79
f 86/86/86 85/85/85 84/84/84
f 87/87/87 86/86/86 84/84/84
f 78/78/78 28/28/28 77/77/77
f 28/28/28 27/27/27 77/77/77
f 25/25/25 28/28/28 78/78/78
f 77/77/77 27/27/27 76/76/76
f 75/75/75 25/25/25 78/78/78
f 27/27/27 26/26/26 76/76/76
f 26/26/26 25/25/25 75/75/75
f 76/76/76 26/26/26 75/75/75
f 62/62/62 20/20/20 61/61/61
f 20/20/20 19/19/19 61/61/61
f 18/18/18 20/20/20 62/62/62
f 61/61/61 19/19/19 60/60/60
f 59/59/59 18/18/18 62/62/62
f 19/19/19 17/17/17 60/60/60
f 17/17/17 18/18/18 59/59/59
f 60/60/60 17/17/17 59/59/59
f 42/42/42 12/12/12 41/41/41
f 12/12/12 11/11/11 41/41/41
f 10/10/10 12/12/12 42/42/42
f 41/41/41 11/11/11 40/40/40
f 39/39/39 10/10/10 42/42/42
f 11/11/11 9/9/9 40/40/40
f 9/9/9 10/10/10 39/39/39
f 40/40/40 9/9/9 39/39/39
