g SM_Prop_Crate_Open_Lid_02
v -0.6499071 0.07826936 0.72282
v -0.7242783 0.05202067 0.7242783
v -0.7257365 0.07826936 0.5944932
v 0.2935868 0.07826936 0.7067792
v 0.1638017 0.05202067 0.7096957
v 0.1667182 0.07826936 0.6192837
v 0.1638017 0.05202067 0.7096957
v -0.009731174 0.07826936 0.7126123
v 0.1667182 0.07826936 0.6192837
v 0.6187786 0.07826936 -0.02235055
v 0.7237734 0.05493718 -0.02380878
v 0.7252316 0.07826936 0.02723026
v -0.3407561 0.09722674 -0.01943403
v -0.3086743 0.08264416 -0.02089226
v -0.307216 0.09722674 0.06077027
v -0.716987 -0.0004766583 0.7184453
v -0.7242783 0.01410592 0.7242783
v 0.7354394 0.01410592 0.7009461
v 0.7281481 -0.0004766583 0.6951131
v -0.7359444 0.01410592 -0.0004766583
v -0.7286531 -0.0004766583 0.005356371
v 0.716482 -0.0004766583 -0.01797575
v 0.7237734 0.01410592 -0.02380878
v 0.7281481 -0.0004766583 0.6951131
v 0.7354394 0.01410592 0.7009461
v 0.7237734 0.01410592 -0.02380878
v 0.716482 -0.0004766583 -0.01797575
v -0.7286531 -0.0004766583 0.005356371
v -0.7359444 0.01410592 -0.0004766583
v -0.7242783 0.01410592 0.7242783
v -0.716987 -0.0004766583 0.7184453
v -0.7359444 0.01410592 -0.0004766583
v 0.7237734 0.01410592 -0.02380878
v 0.7237734 0.05493718 -0.02380878
v 0.6187786 0.07826936 -0.02235055
v -0.7359444 0.07826936 -0.0004766583
v 0.7237734 0.05493718 -0.02380878
v 0.7237734 0.01410592 -0.02380878
v 0.7354394 0.01410592 0.7009461
v 0.7354394 0.07826936 0.7009461
v 0.7252316 0.07826936 0.02723026
v -0.7242783 0.01410592 0.7242783
v -0.7242783 0.05202067 0.7242783
v -0.6499071 0.07826936 0.72282
v -0.009731174 0.07826936 0.7126123
v 0.1638017 0.05202067 0.7096957
v 0.7354394 0.01410592 0.7009461
v 0.7354394 0.07826936 0.7009461
v 0.2935868 0.07826936 0.7067792
v 0.7354394 0.07826936 0.7009461
v 0.2935868 0.07826936 0.7067792
v 0.1667182 0.07826936 0.6192837
v 0.7252316 0.07826936 0.02723026
v 0.6187786 0.07826936 -0.02235055
v -0.7359444 0.07826936 -0.0004766583
v -0.7257365 0.07826936 0.5944932
v -0.6499071 0.07826936 0.72282
v -0.009731174 0.07826936 0.7126123
v -0.7242783 0.05202067 0.7242783
v -0.7242783 0.01410592 0.7242783
v -0.7359444 0.01410592 -0.0004766583
v -0.7359444 0.07826936 -0.0004766583
v -0.7257365 0.07826936 0.5944932
v -0.4005446 0.09722674 -0.01943403
v -0.3407561 0.09722674 -0.01943403
v -0.307216 0.09722674 0.06077027
v -0.3888786 0.09722674 0.7315696
v -0.2970083 0.09722674 0.7301114
v -0.4005446 0.03014678 -0.01943403
v -0.4005446 0.09722674 -0.01943403
v -0.3888786 0.09722674 0.7315696
v -0.3888786 0.03014678 0.7315696
v -0.3888786 0.03014678 0.7315696
v -0.3888786 0.09722674 0.7315696
v -0.2970083 0.09722674 0.7301114
v -0.2970083 0.03014678 0.7301114
v -0.3086743 0.08264416 -0.02089226
v -0.3086743 0.03014678 -0.02089226
v -0.2970083 0.03014678 0.7301114
v -0.2970083 0.09722674 0.7301114
v -0.307216 0.09722674 0.06077027
v -0.4005446 0.03014678 -0.01943403
v -0.3086743 0.03014678 -0.02089226
v -0.3086743 0.08264416 -0.02089226
v -0.3407561 0.09722674 -0.01943403
v -0.4005446 0.09722674 -0.01943403
v -0.4005446 0.03014678 -0.01943403
v -0.3888786 0.03014678 0.7315696
v -0.2970083 0.03014678 0.7301114
v -0.3086743 0.03014678 -0.02089226
v 0.2935868 0.09722674 -0.02964187
v 0.3927484 0.09722674 -0.03255838
v 0.4044145 0.09722674 0.7184453
v 0.3052529 0.09722674 0.7199035
v 0.2935868 0.03014678 -0.02964187
v 0.2935868 0.09722674 -0.02964187
v 0.3052529 0.09722674 0.7199035
v 0.3052529 0.03014678 0.7199035
v 0.3052529 0.03014678 0.7199035
v 0.3052529 0.09722674 0.7199035
v 0.4044145 0.09722674 0.7184453
v 0.4044145 0.03014678 0.7184453
v 0.4044145 0.03014678 0.7184453
v 0.4044145 0.09722674 0.7184453
v 0.3927484 0.09722674 -0.03255838
v 0.3927484 0.03014678 -0.03255838
v 0.3927484 0.03014678 -0.03255838
v 0.3927484 0.09722674 -0.03255838
v 0.2935868 0.09722674 -0.02964187
v 0.2935868 0.03014678 -0.02964187
v 0.3052529 0.03014678 0.7199035
v 0.4044145 0.03014678 0.7184453
v 0.3927484 0.03014678 -0.03255838
v 0.2935868 0.03014678 -0.02964187
v -0.01264769 -0.08505571 0.7563601
v -0.01264769 0.02431375 0.750527
v 0.03984964 0.02431375 0.7476104
v 0.03984964 -0.08505571 0.7549018
v -0.03743809 0.04764593 0.7374027
v -0.03889638 0.04764593 0.7067792
v 0.06464005 0.04764593 0.705321
v 0.06609833 0.04764593 0.7359444
v -0.01264769 -0.08505571 0.7330278
v -0.01264769 -0.08505571 0.7563601
v 0.03984964 -0.08505571 0.7549018
v 0.03984964 -0.08505571 0.7315696
v 0.06609833 -0.05734879 0.7359444
v 0.06609833 0.04764593 0.7359444
v 0.06464005 0.04764593 0.705321
v 0.06464005 -0.05734879 0.705321
v -0.03889638 -0.05734879 0.7067792
v -0.03889638 0.04764593 0.7067792
v -0.03743809 0.04764593 0.7374027
v -0.03743809 -0.05734879 0.7374027
v 0.06609833 -0.05734879 0.7359444
v 0.03984964 -0.05734879 0.7359444
v 0.03984964 0.02868855 0.7359444
v 0.06609833 0.04764593 0.7359444
v -0.01264769 0.02868855 0.7374027
v -0.03743809 0.04764593 0.7374027
v -0.01264769 -0.05734879 0.7374027
v -0.03743809 -0.05734879 0.7374027
v 0.06464005 -0.05734879 0.705321
v 0.03984964 -0.05734879 0.7359444
v 0.06609833 -0.05734879 0.7359444
v 0.03984964 -0.05734879 0.716987
v -0.03889638 -0.05734879 0.7067792
v -0.01264769 -0.05734879 0.7184453
v -0.03743809 -0.05734879 0.7374027
v -0.01264769 -0.05734879 0.7374027
v 0.03984964 -0.05734879 0.7359444
v 0.03984964 0.02431375 0.7476104
v 0.03984964 0.02868855 0.7359444
v 0.03984964 -0.08505571 0.7549018
v 0.03984964 -0.05734879 0.716987
v 0.03984964 -0.08505571 0.7315696
v 0.03984964 0.02868855 0.7359444
v 0.03984964 0.02431375 0.7476104
v -0.01264769 0.02431375 0.750527
v -0.01264769 0.02868855 0.7374027
v -0.01264769 0.02868855 0.7374027
v -0.01264769 0.02431375 0.750527
v -0.01264769 -0.08505571 0.7563601
v -0.01264769 -0.05734879 0.7374027
v -0.01264769 -0.08505571 0.7330278
v -0.01264769 -0.05734879 0.7184453
v -0.01264769 -0.05734879 0.7184453
v -0.01264769 -0.08505571 0.7330278
v 0.03984964 -0.08505571 0.7315696
v 0.03984964 -0.05734879 0.716987
v -0.716987 -0.0004766583 0.7184453
v 0.7281481 -0.0004766583 0.6951131
v 0.716482 -0.0004766583 -0.01797575
v -0.7286531 -0.0004766583 0.005356371
vt 0.1224694 0.1790633
vt 0.1224694 0.1790633
vt 0.1224694 0.1790633
vt 0.1224694 0.1790633
vt 0.1224694 0.1790633
vt 0.1224694 0.1790633
vt 0.1224694 0.1790633
vt 0.1224694 0.1790633
vt 0.1224694 0.1790633
vt 0.1224694 0.1790633
vt 0.1224694 0.1790633
vt 0.1224694 0.1790633
vt 0.1231596 0.157668
vt 0.1231596 0.157668
vt 0.1231596 0.157668
vt 0.1231596 0.157668
vt 0.1231596 0.157668
vt 0.1231596 0.157668
vt 0.1231596 0.157668
vt 0.1231596 0.157668
vt 0.1231596 0.157668
vt 0.1231596 0.157668
vt 0.1231596 0.157668
vt 0.1231596 0.157668
vt 0.1231596 0.157668
vt 0.1231596 0.157668
vt 0.1231596 0.157668
vt 0.1231596 0.157668
vt 0.1231596 0.157668
vt 0.1231596 0.157668
vt 0.1231596 0.157668
vt 0.1224694 0.1790633
vt 0.1224694 0.1790633
vt 0.1224694 0.1790633
vt 0.1224694 0.1790633
vt 0.1224694 0.1790633
vt 0.1224694 0.1790633
vt 0.1224694 0.1790633
vt 0.1224694 0.1790633
vt 0.1224694 0.1790633
vt 0.1224694 0.1790633
vt 0.1224694 0.1790633
vt 0.1224694 0.1790633
vt 0.1224694 0.1790633
vt 0.1224694 0.1790633
vt 0.1224694 0.1790633
vt 0.1224694 0.1790633
vt 0.1224694 0.1790633
vt 0.1224694 0.1790633
vt 0.1224694 0.1790633
vt 0.1224694 0.1790633
vt 0.1224694 0.1790633
vt 0.1224694 0.1790633
vt 0.1224694 0.1790633
vt 0.1224694 0.1790633
vt 0.1224694 0.1790633
vt 0.1224694 0.1790633
vt 0.1224694 0.1790633
vt 0.1224694 0.1790633
vt 0.1224694 0.1790633
vt 0.1224694 0.1790633
vt 0.1224694 0.1790633
vt 0.1224694 0.1790633
vt 0.1231596 0.157668
vt 0.1231596 0.157668
vt 0.1231596 0.157668
vt 0.1231596 0.157668
vt 0.1231596 0.157668
vt 0.1231596 0.157668
vt 0.1231596 0.157668
vt 0.1231596 0.157668
vt 0.1231596 0.157668
vt 0.1231596 0.157668
vt 0.1231596 0.157668
vt 0.1231596 0.157668
vt 0.1231596 0.157668
vt 0.1231596 0.157668
vt 0.1231596 0.157668
vt 0.1231596 0.157668
vt 0.1231596 0.157668
vt 0.1231596 0.157668
vt 0.1231596 0.157668
vt 0.1231596 0.157668
vt 0.1231596 0.157668
vt 0.1231596 0.157668
vt 0.1231596 0.157668
vt 0.1231596 0.157668
vt 0.1231596 0.157668
vt 0.1231596 0.157668
vt 0.1231596 0.157668
vt 0.1231596 0.157668
vt 0.1231596 0.157668
vt 0.1231596 0.157668
vt 0.1231596 0.157668
vt 0.1231596 0.157668
vt 0.1231596 0.157668
vt 0.1231596 0.157668
vt 0.1231596 0.157668
vt 0.1231596 0.157668
vt 0.1231596 0.157668
vt 0.1231596 0.157668
vt 0.1231596 0.157668
vt 0.1231596 0.157668
vt 0.1231596 0.157668
vt 0.1231596 0.157668
vt 0.1231596 0.157668
vt 0.1231596 0.157668
vt 0.1231596 0.157668
vt 0.1231596 0.157668
vt 0.1231596 0.157668
vt 0.1231596 0.157668
vt 0.1231596 0.157668
vt 0.1231596 0.157668
vt 0.1231596 0.157668
vt 0.1010742 0.2770672
vt 0.1010742 0.2770672
vt 0.1010742 0.2770672
vt 0.1010742 0.2770672
vt 0.1017644 0.2280652
vt 0.1017644 0.2280652
vt 0.1017644 0.2280652
vt 0.1017644 0.2280652
vt 0.1010742 0.2770672
vt 0.1010742 0.2770672
vt 0.1010742 0.2770672
vt 0.1010742 0.2770672
vt 0.1017644 0.2280652
vt 0.1017644 0.2280652
vt 0.1017644 0.2280652
vt 0.1017644 0.2280652
vt 0.1017644 0.2280652
vt 0.1017644 0.2280652
vt 0.1017644 0.2280652
vt 0.1017644 0.2280652
vt 0.1017644 0.2280652
vt 0.1017644 0.2280652
vt 0.1017644 0.2280652
vt 0.1017644 0.2280652
vt 0.1017644 0.2280652
vt 0.1017644 0.2280652
vt 0.1017644 0.2280652
vt 0.1017644 0.2280652
vt 0.1017644 0.2280652
vt 0.1017644 0.2280652
vt 0.1017644 0.2280652
vt 0.1017644 0.2280652
vt 0.1017644 0.2280652
vt 0.1017644 0.2280652
vt 0.1017644 0.2280652
vt 0.1017644 0.2280652
vt 0.1010742 0.2770672
vt 0.1010742 0.2770672
vt 0.1010742 0.2770672
vt 0.1010742 0.2770672
vt 0.1010742 0.2770672
vt 0.1010742 0.2770672
vt 0.1010742 0.2770672
vt 0.1010742 0.2770672
vt 0.1010742 0.2770672
vt 0.1010742 0.2770672
vt 0.1010742 0.2770672
vt 0.1010742 0.2770672
vt 0.1010742 0.2770672
vt 0.1010742 0.2770672
vt 0.1010742 0.2770672
vt 0.1010742 0.2770672
vt 0.1010742 0.2770672
vt 0.1010742 0.2770672
vt 0.1010742 0.2770672
vt 0.1010742 0.2770672
vt 0.1231596 0.157668
vt 0.1231596 0.157668
vt 0.1231596 0.157668
vt 0.1231596 0.157668
vn -0.3332913 0.9363899 0.1099582
vn -0.3332913 0.9363899 0.1099582
vn -0.3332913 0.9363899 0.1099582
vn -0.1745812 0.9363899 0.304459
vn -0.1745812 0.9363899 0.304459
vn -0.1745812 0.9363899 0.304459
vn 0.1428391 0.9363899 0.320579
vn 0.1428391 0.9363899 0.320579
vn 0.1428391 0.9363899 0.320579
vn 0.1745812 0.9046479 -0.3887589
vn 0.1745812 0.9046479 -0.3887589
vn 0.1745812 0.9046479 -0.3887589
vn 0.3967754 0.9046479 -0.1555036
vn 0.3967754 0.9046479 -0.1555036
vn 0.3967754 0.9046479 -0.1555036
vn 0.01587099 -0.3332914 0.9426903
vn 0.01587099 -0.3332914 0.9426903
vn 0.01587099 -0.3332914 0.9426903
vn 0.01587099 -0.3332914 0.9426903
vn -0.01587105 -0.3332914 -0.9426903
vn -0.01587105 -0.3332914 -0.9426903
vn -0.01587105 -0.3332914 -0.9426903
vn -0.01587105 -0.3332914 -0.9426903
vn 0.8729059 -0.4602594 -0.1618537
vn 0.8729059 -0.4602594 -0.1618537
vn 0.8729059 -0.4602594 -0.1618537
vn 0.8729059 -0.4602594 -0.1618537
vn -0.8729059 -0.4602594 0.1618537
vn -0.8729059 -0.4602594 0.1618537
vn -0.8729059 -0.4602594 0.1618537
vn -0.8729059 -0.4602594 0.1618537
vn -0.01587105 0.01587105 -0.9997481
vn -0.01587105 0.01587105 -0.9997481
vn -0.01587105 0.01587105 -0.9997481
vn -0.01587105 0.01587105 -0.9997481
vn -0.01587105 0.01587105 -0.9997481
vn 0.999874 -0.01587099 -0.000346655
vn 0.999874 0.01587105 -0.0003439156
vn 0.999874 0.01587105 -0.0003439156
vn 0.999874 -0.01587099 -0.000346655
vn 0.999874 -0.01587099 -0.000346655
vn 0.01587099 -0.01587099 0.9997481
vn 0.01587099 0.01587105 0.9997481
vn 0.01587099 -0.01587099 0.9997481
vn 0.01587099 -0.01587099 0.9997481
vn 0.01587099 -0.01587099 0.9997481
vn 0.01587099 -0.01587099 0.9997481
vn 0.01587099 0.01587105 0.9997481
vn 0.01587099 0.01587105 0.9997481
vn -0.01587105 0.999874 -0.000345267
vn -0.01587105 0.999874 -0.000345267
vn -0.01587105 0.999874 -0.000345267
vn -0.01587105 0.999874 -0.000345267
vn -0.01587105 0.999874 -0.000345267
vn -0.01587105 0.999874 -0.000345267
vn -0.01587105 0.999874 -0.000345267
vn -0.01587105 0.999874 -0.000345267
vn -0.01587105 0.999874 -0.000345267
vn -0.999874 0.01587105 -0.0003439156
vn -0.999874 0.01587105 -0.0003439156
vn -0.999874 0.01587105 -0.0003439156
vn -0.999874 0.01587105 -0.0003439156
vn -0.999874 0.01587105 -0.0003439156
vn -0.01587105 0.999874 -0.000345267
vn -0.01587105 0.999874 -0.000345267
vn -0.01587105 0.999874 -0.000345267
vn -0.01587105 0.999874 -0.000345267
vn -0.01587105 0.999874 -0.000345267
vn -0.999874 0.01587105 -0.0003439156
vn -0.999874 0.01587105 -0.0003439156
vn -0.999874 0.01587105 -0.0003439156
vn -0.999874 0.01587105 -0.0003439156
vn 0.01587099 0.01587105 0.9997481
vn 0.01587099 0.01587105 0.9997481
vn 0.01587099 0.01587105 0.9997481
vn 0.01587099 0.01587105 0.9997481
vn 0.999874 0.01587105 -0.0003439156
vn 0.999874 0.01587105 -0.0003439156
vn 0.999874 0.01587105 -0.0003439156
vn 0.999874 0.01587105 -0.0003439156
vn 0.999874 0.01587105 -0.0003439156
vn -0.01587105 -0.01587099 -0.9997481
vn -0.01587105 0.01587105 -0.9997481
vn -0.01587105 -0.01587099 -0.9997481
vn -0.01587105 -0.01587099 -0.9997481
vn -0.01587105 0.01587105 -0.9997481
vn -0.01587105 -0.999874 -0.000345267
vn -0.01587105 -0.999874 -0.000345267
vn -0.01587105 -0.999874 -0.000345267
vn -0.01587105 -0.999874 -0.000345267
vn -0.01587105 0.999874 -0.000345267
vn -0.01587105 0.999874 -0.000345267
vn -0.01587105 0.999874 -0.000345267
vn -0.01587105 0.999874 -0.000345267
vn -0.999874 0.01587105 -0.0003439156
vn -0.999874 0.01587105 -0.0003439156
vn -0.999874 0.01587105 -0.0003439156
vn -0.999874 0.01587105 -0.0003439156
vn 0.01587099 0.01587105 0.9997481
vn 0.01587099 0.01587105 0.9997481
vn 0.01587099 0.01587105 0.9997481
vn 0.01587099 0.01587105 0.9997481
vn 0.999874 0.01587105 -0.0003439156
vn 0.999874 0.01587105 -0.0003439156
vn 0.999874 0.01587105 -0.0003439156
vn 0.999874 0.01587105 -0.0003439156
vn -0.01587105 0.01587105 -0.9997481
vn -0.01587105 0.01587105 -0.9997481
vn -0.01587105 0.01587105 -0.9997481
vn -0.01587105 0.01587105 -0.9997481
vn -0.01587105 -0.999874 -0.000345267
vn -0.01587105 -0.999874 -0.000345267
vn -0.01587105 -0.999874 -0.000345267
vn -0.01587105 -0.999874 -0.000345267
vn 0.04761302 0.04761302 0.9977304
vn 0.04761302 0.04761302 0.9977304
vn 0.04761302 0.04761302 0.9977304
vn 0.04761302 0.04761302 0.9977304
vn -0.01587105 0.999874 -0.000345267
vn -0.01587105 0.999874 -0.000345267
vn -0.01587105 0.999874 -0.000345267
vn -0.01587105 0.999874 -0.000345267
vn -0.01587105 -0.999874 -0.000345267
vn -0.01587105 -0.999874 -0.000345267
vn -0.01587105 -0.999874 -0.000345267
vn -0.01587105 -0.999874 -0.000345267
vn 0.999874 0.01587105 -0.0003439156
vn 0.999874 0.01587105 -0.0003439156
vn 0.999874 0.01587105 -0.0003439156
vn 0.999874 0.01587105 -0.0003439156
vn -0.999874 0.01587105 -0.0003439156
vn -0.999874 0.01587105 -0.0003439156
vn -0.999874 0.01587105 -0.0003439156
vn -0.999874 0.01587105 -0.0003439156
vn -0.01587105 0.01587105 0.9997481
vn -0.01587105 0.01587105 0.9997481
vn 0.01587099 -0.01587099 0.9997481
vn 0.01587099 -0.01587099 0.9997481
vn 0.01587099 -0.01587099 0.9997481
vn 0.01587099 -0.01587099 0.9997481
vn -0.01587105 0.01587105 0.9997481
vn -0.01587105 0.01587105 0.9997481
vn -0.01587105 -0.999874 -0.000345267
vn -0.01587105 -0.999874 -0.000345267
vn -0.01587105 -0.999874 -0.000345267
vn -0.01587105 -0.999874 -0.000345267
vn -0.01587105 -0.999874 -0.000345267
vn -0.01587105 -0.999874 -0.000345267
vn -0.01587105 -0.999874 -0.000345267
vn -0.01587105 -0.999874 -0.000345267
vn 0.999874 -0.01587099 -0.000346655
vn 0.999874 -0.01587099 -0.000346655
vn 0.999874 -0.01587099 -0.000346655
vn 0.999874 -0.01587099 -0.000346655
vn 0.999874 -0.01587099 -0.000346655
vn 0.999874 -0.01587099 -0.000346655
vn 0.01587099 0.9363899 0.3506023
vn 0.01587099 0.9363899 0.3506023
vn 0.01587099 0.9363899 0.3506023
vn 0.01587099 0.9363899 0.3506023
vn -0.999874 0.01587105 -0.0003439156
vn -0.999874 0.01587105 -0.0003439156
vn -0.999874 0.01587105 -0.0003439156
vn -0.999874 0.01587105 -0.0003439156
vn -0.999874 0.01587105 -0.0003439156
vn -0.999874 0.01587105 -0.0003439156
vn -0.01587105 -0.4602594 -0.8876426
vn -0.01587105 -0.4602594 -0.8876426
vn -0.01587105 -0.4602594 -0.8876426
vn -0.01587105 -0.4602594 -0.8876426
vn -0.01587105 -0.999874 -0.000345267
vn -0.01587105 -0.999874 -0.000345267
vn -0.01587105 -0.999874 -0.000345267
vn -0.01587105 -0.999874 -0.000345267
g SM_Prop_Crate_Open_Lid_02_0
f 3/3/3 2/2/2 1/1/1
f 6/6/6 5/5/5 4/4/4
f 9/9/9 8/8/8 7/7/7
f 12/12/12 11/11/11 10/10/10
f 15/15/15 14/14/14 13/13/13
f 18/18/18 17/17/17 16/16/16
f 19/19/19 18/18/18 16/16/16
f 22/22/22 21/21/21 20/20/20
f 23/23/23 22/22/22 20/20/20
f 26/26/26 25/25/25 24/24/24
f 27/27/27 26/26/26 24/24/24
f 30/30/30 29/29/29 28/28/28
f 31/31/31 30/30/30 28/28/28
f 34/34/34 33/33/33 32/32/32
f 32/32/32 35/35/35 34/34/34
f 32/32/32 36/36/36 35/35/35
f 39/39/39 38/38/38 37/37/37
f 37/37/37 40/40/40 39/39/39
f 37/37/37 41/41/41 40/40/40
f 44/44/44 43/43/43 42/42/42
f 45/45/45 44/44/44 42/42/42
f 42/42/42 46/46/46 45/45/45
f 47/47/47 46/46/46 42/42/42
f 47/47/47 48/48/48 46/46/46
f 48/48/48 49/49/49 46/46/46
f 52/52/52 51/51/51 50/50/50
f 52/52/52 50/50/50 53/53/53
f 53/53/53 54/54/54 52/52/52
f 54/54/54 55/55/55 52/52/52
f 52/52/52 55/55/55 56/56/56
f 56/56/56 57/57/57 52/52/52
f 57/57/57 58/58/58 52/52/52
f 61/61/61 60/60/60 59/59/59
f 59/59/59 62/62/62 61/61/61
f 59/59/59 63/63/63 62/62/62
f 66/66/66 65/65/65 64/64/64
f 64/64/64 67/67/67 66/66/66
f 67/67/67 68/68/68 66/66/66
f 71/71/71 70/70/70 69/69/69
f 72/72/72 71/71/71 69/69/69
f 75/75/75 74/74/74 73/73/73
f 76/76/76 75/75/75 73/73/73
f 79/79/79 78/78/78 77/77/77
f 77/77/77 80/80/80 79/79/79
f 77/77/77 81/81/81 80/80/80
f 84/84/84 83/83/83 82/82/82
f 82/82/82 85/85/85 84/84/84
f 82/82/82 86/86/86 85/85/85
f 89/89/89 88/88/88 87/87/87
f 90/90/90 89/89/89 87/87/87
f 93/93/93 92/92/92 91/91/91
f 94/94/94 93/93/93 91/91/91
f 97/97/97 96/96/96 95/95/95
f 98/98/98 97/97/97 95/95/95
f 101/101/101 100/100/100 99/99/99
f 102/102/102 101/101/101 99/99/99
f 105/105/105 104/104/104 103/103/103
f 106/106/106 105/105/105 103/103/103
f 109/109/109 108/108/108 107/107/107
f 110/110/110 109/109/109 107/107/107
f 113/113/113 112/112/112 111/111/111
f 114/114/114 113/113/113 111/111/111
f 117/117/117 116/116/116 115/115/115
f 118/118/118 117/117/117 115/115/115
f 121/121/121 120/120/120 119/119/119
f 122/122/122 121/121/121 119/119/119
f 125/125/125 124/124/124 123/123/123
f 126/126/126 125/125/125 123/123/123
f 129/129/129 128/128/128 127/127/127
f 130/130/130 129/129/129 127/127/127
f 133/133/133 132/132/132 131/131/131
f 134/134/134 133/133/133 131/131/131
f 137/137/137 136/136/136 135/135/135
f 138/138/138 137/137/137 135/135/135
f 139/139/139 137/137/137 138/138/138
f 140/140/140 139/139/139 138/138/138
f 141/141/141 139/139/139 140/140/140
f 142/142/142 141/141/141 140/140/140
f 145/145/145 144/144/144 143/143/143
f 144/144/144 146/146/146 143/143/143
f 143/143/143 146/146/146 147/147/147
f 146/146/146 148/148/148 147/147/147
f 147/147/147 148/148/148 149/149/149
f 148/148/148 150/150/150 149/149/149
f 153/153/153 152/152/152 151/151/151
f 152/152/152 154/154/154 151/151/151
f 151/151/151 154/154/154 155/155/155
f 154/154/154 156/156/156 155/155/155
f 159/159/159 158/158/158 157/157/157
f 160/160/160 159/159/159 157/157/157
f 163/163/163 162/162/162 161/161/161
f 164/164/164 163/163/163 161/161/161
f 165/165/165 163/163/163 164/164/164
f 166/166/166 165/165/165 164/164/164
f 169/169/169 168/168/168 167/167/167
f 170/170/170 169/169/169 167/167/167
f 173/173/173 172/172/172 171/171/171
f 174/174/174 173/173/173 171/171/171
