g SM_Prop_Lockers_Door_04
v 0.09067976 0.9630902 -0.01765057
v 0.3048256 0.9630902 -0.01765068
v 0.09067976 0.9786993 0
v 0.3048256 0.9786993 0
v 0.09067976 1.029678 0
v 0.3048256 1.029678 0
v 0.3048256 1.014069 -0.01765068
v 0.09067976 1.014069 -0.01765057
v 0.1120943 0.9845227 0.02356619
v 0.1120943 1.023751 -0.01244839
v 0.1120943 1.035702 0.003479824
v 0.1120943 0.9964743 0.03949438
v 0.283411 0.9845227 0.02356611
v 0.283411 0.9964743 0.03949445
v 0.283411 1.035702 0.003479824
v 0.283411 1.023751 -0.01244846
v 0.09067976 1.042825 -0.01765057
v 0.3048256 1.042825 -0.01765068
v 0.09067976 1.058435 0
v 0.3048256 1.058435 0
v 0.09067976 1.109414 0
v 0.3048256 1.109414 0
v 0.3048256 1.093805 -0.01765068
v 0.09067976 1.093805 -0.01765057
v 0.1120943 1.064259 0.02356619
v 0.1120943 1.103486 -0.01244839
v 0.1120943 1.115438 0.003479824
v 0.1120943 1.07621 0.03949438
v 0.283411 1.064258 0.02356611
v 0.283411 1.07621 0.03949445
v 0.283411 1.115438 0.003479824
v 0.283411 1.103486 -0.01244846
v 0.09067976 1.122561 -0.01765057
v 0.3048256 1.122561 -0.01765068
v 0.09067976 1.138171 0
v 0.3048256 1.138171 0
v 0.09067976 1.189149 0
v 0.3048256 1.189149 0
v 0.3048256 1.17354 -0.01765068
v 0.09067976 1.17354 -0.01765057
v 0.1120943 1.143994 0.02356619
v 0.1120943 1.183222 -0.01244839
v 0.1120943 1.195173 0.003479824
v 0.1120943 1.155946 0.03949438
v 0.283411 1.143994 0.02356611
v 0.283411 1.155946 0.03949445
v 0.283411 1.195173 0.003479824
v 0.283411 1.183222 -0.01244846
v 3.623962E-07 1.356534 -0.01877529
v 0.3936704 1.356534 -0.01877529
v -1.907349E-08 -7.629394E-08 -0.01877522
v 0.3936704 0 -0.01877529
v -1.907349E-08 -7.629394E-08 0
v 0.3936704 0 0
v 0.3936704 1.356534 0
v 3.623962E-07 1.356534 0
v 0.09068003 0.9649472 0
v 0.3048255 0.9649472 0
v 0.3048255 1.188732 0
v 0.09068003 1.188732 0
v 0.09068003 1.188732 -0.01877529
v 0.3048255 1.188732 -0.01877529
v 0.3048255 0.9649472 -0.01877529
v 0.09068003 0.9649472 -0.01877522
v 0.1562082 1.295849 0
v 0.2392975 1.295849 0
v 0.1562083 1.247965 0
v 0.2392974 1.247965 0
v 0.1597386 1.292051 0.01827917
v 0.2357671 1.292051 0.01827917
v 0.1597386 1.251762 0.01827917
v 0.2357671 1.251762 0.01827917
v 0.3936704 0.7123149 -0.01877529
v 0.283411 0.9964743 0.03949445
v 0.1120943 0.9964743 0.03949438
v 0.1120943 0.9845227 0.02356619
v 0.283411 0.9845227 0.02356611
v 0.283411 1.035702 0.003479824
v 0.1120943 1.035702 0.003479824
v 0.1120943 1.023751 -0.01244839
v 0.283411 1.023751 -0.01244846
v 0.1120943 1.023751 -0.01244839
v 0.1120943 0.9845227 0.02356619
v 0.1120943 1.035702 0.003479824
v 0.09067976 1.014069 -0.01765057
v 0.1120943 1.023751 -0.01244839
v 0.09067976 1.029678 0
v 0.1120943 1.035702 0.003479824
v 0.1120943 0.9964743 0.03949438
v 0.09067976 0.9630902 -0.01765057
v 0.09067976 0.9786993 0
v 0.1120943 0.9964743 0.03949438
v 0.1120943 0.9845227 0.02356619
v 0.283411 0.9964743 0.03949445
v 0.283411 0.9845227 0.02356611
v 0.283411 1.035702 0.003479824
v 0.3048256 0.9786993 0
v 0.283411 0.9964743 0.03949445
v 0.3048256 1.029678 0
v 0.283411 1.035702 0.003479824
v 0.283411 1.023751 -0.01244846
v 0.3048256 0.9630902 -0.01765068
v 0.3048256 1.014069 -0.01765068
v 0.283411 1.023751 -0.01244846
v 0.283411 0.9845227 0.02356611
v 0.283411 1.07621 0.03949445
v 0.1120943 1.07621 0.03949438
v 0.1120943 1.064259 0.02356619
v 0.283411 1.064258 0.02356611
v 0.283411 1.115438 0.003479824
v 0.1120943 1.115438 0.003479824
v 0.1120943 1.103486 -0.01244839
v 0.283411 1.103486 -0.01244846
v 0.1120943 1.103486 -0.01244839
v 0.1120943 1.064259 0.02356619
v 0.1120943 1.115438 0.003479824
v 0.09067976 1.093805 -0.01765057
v 0.1120943 1.103486 -0.01244839
v 0.09067976 1.109414 0
v 0.1120943 1.115438 0.003479824
v 0.1120943 1.07621 0.03949438
v 0.09067976 1.042825 -0.01765057
v 0.09067976 1.058435 0
v 0.1120943 1.07621 0.03949438
v 0.1120943 1.064259 0.02356619
v 0.283411 1.07621 0.03949445
v 0.283411 1.064258 0.02356611
v 0.283411 1.115438 0.003479824
v 0.3048256 1.058435 0
v 0.283411 1.07621 0.03949445
v 0.3048256 1.109414 0
v 0.283411 1.115438 0.003479824
v 0.283411 1.103486 -0.01244846
v 0.3048256 1.042825 -0.01765068
v 0.3048256 1.093805 -0.01765068
v 0.283411 1.103486 -0.01244846
v 0.283411 1.064258 0.02356611
v 0.283411 1.155946 0.03949445
v 0.1120943 1.155946 0.03949438
v 0.1120943 1.143994 0.02356619
v 0.283411 1.143994 0.02356611
v 0.283411 1.195173 0.003479824
v 0.1120943 1.195173 0.003479824
v 0.1120943 1.183222 -0.01244839
v 0.283411 1.183222 -0.01244846
v 0.1120943 1.183222 -0.01244839
v 0.1120943 1.143994 0.02356619
v 0.1120943 1.195173 0.003479824
v 0.09067976 1.17354 -0.01765057
v 0.1120943 1.183222 -0.01244839
v 0.09067976 1.189149 0
v 0.1120943 1.195173 0.003479824
v 0.1120943 1.155946 0.03949438
v 0.09067976 1.122561 -0.01765057
v 0.09067976 1.138171 0
v 0.1120943 1.155946 0.03949438
v 0.1120943 1.143994 0.02356619
v 0.283411 1.155946 0.03949445
v 0.283411 1.143994 0.02356611
v 0.283411 1.195173 0.003479824
v 0.3048256 1.138171 0
v 0.283411 1.155946 0.03949445
v 0.3048256 1.189149 0
v 0.283411 1.195173 0.003479824
v 0.283411 1.183222 -0.01244846
v 0.3048256 1.122561 -0.01765068
v 0.3048256 1.17354 -0.01765068
v 0.283411 1.183222 -0.01244846
v 0.283411 1.143994 0.02356611
v 3.623962E-07 1.356534 -0.01877529
v 3.623962E-07 1.356534 0
v -1.907349E-08 -7.629394E-08 0
v -1.907349E-08 -7.629394E-08 -0.01877522
v 0.3936704 0 -0.01877529
v 0.3936704 0 0
v 0.3936704 1.356534 0
v 0.3936704 1.356534 -0.01877529
v 0.3936704 1.356534 0
v 0.3936704 0 0
v 3.623962E-07 1.356534 0
v -1.907349E-08 -7.629394E-08 0
v 3.623962E-07 1.356534 -0.01877529
v 0.3936704 1.356534 -0.01877529
v 0.3936704 0.7123149 -0.01877529
v 0.3936704 0 -0.01877529
v -1.907349E-08 -7.629394E-08 -0.01877522
v 0.3048255 1.188732 0
v 0.3048255 1.188732 -0.01877529
v 0.09068003 1.188732 -0.01877529
v 0.09068003 1.188732 0
v 0.09068003 1.188732 0
v 0.09068003 1.188732 -0.01877529
v 0.09068003 0.9649472 -0.01877522
v 0.09068003 0.9649472 0
v 0.3048255 1.188732 0
v 0.3048255 0.9649472 0
v 0.3048255 0.9649472 -0.01877529
v 0.3048255 1.188732 -0.01877529
v 0.3048255 0.9649472 0
v 0.09068003 0.9649472 0
v 0.09068003 0.9649472 -0.01877522
v 0.3048255 0.9649472 -0.01877529
v 0.2392975 1.295849 0
v 0.2357671 1.292051 0.01827917
v 0.1597386 1.292051 0.01827917
v 0.1562082 1.295849 0
v 0.1562082 1.295849 0
v 0.1597386 1.292051 0.01827917
v 0.1597386 1.251762 0.01827917
v 0.1562083 1.247965 0
v 0.1562083 1.247965 0
v 0.1597386 1.251762 0.01827917
v 0.2357671 1.251762 0.01827917
v 0.2392974 1.247965 0
v 0.2392974 1.247965 0
v 0.2357671 1.251762 0.01827917
v 0.2357671 1.292051 0.01827917
v 0.2392975 1.295849 0
vt 0.219726 0.2764572
vt 0.219726 0.2764558
vt 0.219726 0.276448
vt 0.219726 0.2764465
vt 0.219726 0.2764205
vt 0.219726 0.2764187
vt 0.219726 0.2764283
vt 0.219726 0.27643
vt 0.219726 0.2764434
vt 0.219726 0.2764243
vt 0.219726 0.2764168
vt 0.219726 0.2764359
vt 0.219726 0.2764421
vt 0.219726 0.2764346
vt 0.219726 0.2764153
vt 0.219726 0.2764229
vt 0.219726 0.2764146
vt 0.219726 0.2764127
vt 0.219726 0.276405
vt 0.219726 0.2764031
vt 0.219726 0.2763777
vt 0.219726 0.2763754
vt 0.219726 0.2763852
vt 0.219726 0.2763875
vt 0.219726 0.2764
vt 0.219726 0.2763817
vt 0.219726 0.276374
vt 0.219726 0.2763923
vt 0.219726 0.2763984
vt 0.219726 0.2763906
vt 0.219726 0.2763721
vt 0.219726 0.2763799
vt 0.219726 0.2763721
vt 0.219726 0.2763698
vt 0.219726 0.2763623
vt 0.219726 0.2763599
vt 0.219726 0.2763351
vt 0.219726 0.2763323
vt 0.219726 0.2763425
vt 0.219726 0.2763451
vt 0.219726 0.2763568
vt 0.219726 0.2763392
vt 0.219726 0.2763312
vt 0.219726 0.2763489
vt 0.219726 0.2763548
vt 0.219726 0.2763467
vt 0.219726 0.276329
vt 0.219726 0.276337
vt 0.219726 0.276251
vt 0.219726 0.2762426
vt 0.219726 0.2772255
vt 0.219726 0.2772345
vt 0.219726 0.2772307
vt 0.219726 0.2772399
vt 0.219726 0.2762399
vt 0.219726 0.2762485
vt 0.219726 0.2764553
vt 0.219726 0.2764539
vt 0.219726 0.2762892
vt 0.219726 0.2762926
vt 0.219726 0.2762947
vt 0.219726 0.2762915
vt 0.219726 0.2764549
vt 0.219726 0.2764563
vt 0.219726 0.2762519
vt 0.219726 0.2762504
vt 0.219726 0.2762675
vt 0.219726 0.2762661
vt 0.219726 0.2514405
vt 0.219726 0.2514402
vt 0.219726 0.2518656
vt 0.219726 0.2518665
vt 0.219726 0.2765926
vt 0.219726 0.2764346
vt 0.219726 0.2764359
vt 0.219726 0.2764434
vt 0.219726 0.2764421
vt 0.219726 0.2764153
vt 0.219726 0.2764168
vt 0.219726 0.2764243
vt 0.219726 0.2764229
vt 0.219726 0.2764243
vt 0.219726 0.2764434
vt 0.219726 0.2764168
vt 0.219726 0.27643
vt 0.219726 0.2764243
vt 0.219726 0.2764205
vt 0.219726 0.2764168
vt 0.219726 0.2764359
vt 0.219726 0.2764572
vt 0.219726 0.276448
vt 0.219726 0.2764359
vt 0.219726 0.2764434
vt 0.219726 0.2764346
vt 0.219726 0.2764421
vt 0.219726 0.2764153
vt 0.219726 0.2764465
vt 0.219726 0.2764346
vt 0.219726 0.2764187
vt 0.219726 0.2764153
vt 0.219726 0.2764229
vt 0.219726 0.2764558
vt 0.219726 0.2764283
vt 0.219726 0.2764229
vt 0.219726 0.2764421
vt 0.219726 0.2763906
vt 0.219726 0.2763923
vt 0.219726 0.2764
vt 0.219726 0.2763984
vt 0.219726 0.2763721
vt 0.219726 0.276374
vt 0.219726 0.2763817
vt 0.219726 0.2763799
vt 0.219726 0.2763817
vt 0.219726 0.2764
vt 0.219726 0.276374
vt 0.219726 0.2763875
vt 0.219726 0.2763817
vt 0.219726 0.2763777
vt 0.219726 0.276374
vt 0.219726 0.2763923
vt 0.219726 0.2764146
vt 0.219726 0.276405
vt 0.219726 0.2763923
vt 0.219726 0.2764
vt 0.219726 0.2763906
vt 0.219726 0.2763984
vt 0.219726 0.2763721
vt 0.219726 0.2764031
vt 0.219726 0.2763906
vt 0.219726 0.2763754
vt 0.219726 0.2763721
vt 0.219726 0.2763799
vt 0.219726 0.2764127
vt 0.219726 0.2763852
vt 0.219726 0.2763799
vt 0.219726 0.2763984
vt 0.219726 0.2763467
vt 0.219726 0.2763489
vt 0.219726 0.2763568
vt 0.219726 0.2763548
vt 0.219726 0.276329
vt 0.219726 0.2763312
vt 0.219726 0.2763392
vt 0.219726 0.276337
vt 0.219726 0.2763392
vt 0.219726 0.2763568
vt 0.219726 0.2763312
vt 0.219726 0.2763451
vt 0.219726 0.2763392
vt 0.219726 0.2763351
vt 0.219726 0.2763312
vt 0.219726 0.2763489
vt 0.219726 0.2763721
vt 0.219726 0.2763623
vt 0.219726 0.2763489
vt 0.219726 0.2763568
vt 0.219726 0.2763467
vt 0.219726 0.2763548
vt 0.219726 0.276329
vt 0.219726 0.2763599
vt 0.219726 0.2763467
vt 0.219726 0.2763323
vt 0.219726 0.276329
vt 0.219726 0.276337
vt 0.219726 0.2763698
vt 0.219726 0.2763425
vt 0.219726 0.276337
vt 0.219726 0.2763548
vt 0.219726 0.276251
vt 0.219726 0.2762485
vt 0.219726 0.2772307
vt 0.219726 0.2772255
vt 0.219726 0.2772345
vt 0.219726 0.2772399
vt 0.219726 0.2762399
vt 0.219726 0.2762426
vt 0.219726 0.2762399
vt 0.219726 0.2772399
vt 0.219726 0.2762485
vt 0.219726 0.2772307
vt 0.219726 0.276251
vt 0.219726 0.2762426
vt 0.219726 0.2765926
vt 0.219726 0.2772345
vt 0.219726 0.2772255
vt 0.219726 0.2762892
vt 0.219726 0.2762915
vt 0.219726 0.2762947
vt 0.219726 0.2762926
vt 0.219726 0.2762926
vt 0.219726 0.2762947
vt 0.219726 0.2764563
vt 0.219726 0.2764553
vt 0.219726 0.2762892
vt 0.219726 0.2764539
vt 0.219726 0.2764549
vt 0.219726 0.2762915
vt 0.219726 0.2764539
vt 0.219726 0.2764553
vt 0.219726 0.2764563
vt 0.219726 0.2764549
vt 0.219726 0.2514015
vt 0.219726 0.2514402
vt 0.219726 0.2514405
vt 0.219726 0.2514019
vt 0.219726 0.2514019
vt 0.219726 0.2514405
vt 0.219726 0.2518656
vt 0.219726 0.2519007
vt 0.219726 0.2519007
vt 0.219726 0.2518656
vt 0.219726 0.2518665
vt 0.219726 0.2519018
vt 0.219726 0.2519018
vt 0.219726 0.2518665
vt 0.219726 0.2514402
vt 0.219726 0.2514015
vn 0.7870702 -0.2287232 -0.5728927
vn 0.4385503 -0.6946778 0.5701723
vn -0.7511543 0.2447656 0.6130717
vn 0.4385503 -0.6946778 0.5701723
vn -0.1530088 0.7638759 -0.6269624
vn 0.7511544 0.244766 0.6130716
vn 0.1530089 0.7638776 -0.6269602
vn 0.7870702 -0.2287233 -0.5728927
vn 0 -0.7998698 0.6001735
vn -3.235778E-07 -0.676291 -0.7366346
vn -1.617899E-07 0.6762955 0.7366304
vn 0 -0.7998698 0.6001735
vn 0 -0.7998698 0.6001735
vn 0 -0.7998698 0.6001735
vn -1.617899E-07 0.6762955 0.7366304
vn -3.235778E-07 -0.6762909 -0.7366346
vn 0.7870713 -0.2287231 -0.5728914
vn 0.4385502 -0.6946747 0.570176
vn -0.7511562 0.2447637 0.6130701
vn 0.4385503 -0.6946747 0.570176
vn -0.1530083 0.7638709 -0.6269687
vn 0.7511561 0.2447642 0.6130701
vn 0.1530086 0.7638726 -0.6269665
vn 0.7870713 -0.2287231 -0.5728914
vn -1.071626E-06 -0.799868 0.600176
vn -1.234393E-06 -0.6762931 -0.7366326
vn -1.677818E-07 0.676294 0.7366319
vn -1.071626E-06 -0.7998679 0.6001759
vn -1.071626E-06 -0.7998679 0.600176
vn -1.071626E-06 -0.7998679 0.6001759
vn -1.677818E-07 0.676294 0.7366319
vn -1.234393E-06 -0.6762932 -0.7366326
vn 0.7870713 -0.2287231 -0.5728914
vn 0.4385503 -0.6946778 0.5701723
vn -0.7511552 0.2447659 0.6130706
vn 0.4385503 -0.6946778 0.5701723
vn -0.153023 0.763876 -0.6269589
vn 0.7511551 0.2447664 0.6130705
vn 0.1530233 0.7638776 -0.6269568
vn 0.7870713 -0.2287231 -0.5728914
vn 0 -0.7998698 0.6001735
vn -3.295693E-07 -0.6762896 -0.7366359
vn -1.617899E-07 0.6762955 0.7366304
vn 0 -0.7998698 0.6001735
vn 0 -0.7998698 0.6001735
vn 0 -0.7998698 0.6001735
vn -1.617899E-07 0.6762955 0.7366304
vn -3.295693E-07 -0.6762896 -0.7366359
vn 0 1 0
vn 0 1 0
vn 1.938016E-07 -1 0
vn 1.938016E-07 -1 0
vn 1.938016E-07 -1 0
vn 1.938016E-07 -1 0
vn 0 1 0
vn 0 1 0
vn 0 0 1
vn 0 0 1
vn 0 0 1
vn 0 0 1
vn 2.727926E-07 0 -1
vn 0 0 -1
vn -2.028312E-07 0 -1
vn 0 0 -1
vn 0 0 1
vn 0 0 1
vn 0 0 1
vn 0 0 1
vn 0 0 1
vn 0 0 1
vn 0 0 1
vn 0 0 1
vn 1 0 -4.027419E-06
vn -1.617899E-07 0.6762955 0.7366304
vn -1.617899E-07 0.6762955 0.7366304
vn -3.235778E-07 -0.6762909 -0.7366346
vn -3.235778E-07 -0.676291 -0.7366346
vn -1.342059E-07 0.7998806 -0.6001592
vn -1.342059E-07 0.7998806 -0.6001592
vn -1.342059E-07 0.7998806 -0.6001593
vn -1.342059E-07 0.7998806 -0.6001593
vn 0.7870703 -0.2287233 -0.5728928
vn 0.7870702 -0.2287233 -0.5728927
vn -0.1530088 0.763876 -0.6269624
vn -0.1530088 0.763876 -0.6269624
vn -0.1530088 0.763876 -0.6269624
vn -0.7511543 0.2447655 0.6130718
vn -0.7511543 0.2447655 0.6130717
vn -0.7511543 0.2447656 0.6130717
vn -0.4385556 -0.6946734 0.5701734
vn -0.4385556 -0.6946734 0.5701734
vn -0.4385556 -0.6946735 0.5701734
vn -0.4385556 -0.6946734 0.5701734
vn 0.4385503 -0.6946778 0.5701723
vn 0.4385502 -0.6946777 0.5701723
vn 0.7511543 0.244766 0.6130716
vn 0.7511544 0.244766 0.6130716
vn 0.7511544 0.244766 0.6130716
vn 0.1530089 0.7638776 -0.6269603
vn 0.153009 0.7638776 -0.6269603
vn 0.1530089 0.7638776 -0.6269603
vn -0.7870702 -0.2287233 -0.5728928
vn -0.7870702 -0.2287233 -0.5728928
vn -0.7870702 -0.2287233 -0.5728928
vn -0.7870702 -0.2287233 -0.5728928
vn -1.677817E-07 0.676294 0.7366318
vn -1.677818E-07 0.676294 0.7366319
vn -1.234393E-06 -0.6762932 -0.7366326
vn -1.234393E-06 -0.6762931 -0.7366326
vn -1.342041E-07 0.7998695 -0.600174
vn -1.342041E-07 0.7998695 -0.600174
vn -1.342041E-07 0.7998695 -0.6001738
vn -1.34204E-07 0.7998695 -0.6001738
vn 0.7870713 -0.2287231 -0.5728914
vn 0.7870713 -0.2287231 -0.5728914
vn -0.1530083 0.7638708 -0.6269687
vn -0.1530083 0.7638708 -0.6269687
vn -0.1530083 0.7638708 -0.6269687
vn -0.7511562 0.2447637 0.6130701
vn -0.7511562 0.2447637 0.6130702
vn -0.7511562 0.2447637 0.6130702
vn -0.4385377 -0.6946819 0.570177
vn -0.4385377 -0.6946819 0.570177
vn -0.4385377 -0.6946819 0.570177
vn -0.4385377 -0.6946819 0.5701771
vn 0.4385503 -0.6946747 0.570176
vn 0.4385503 -0.6946747 0.570176
vn 0.7511561 0.2447642 0.6130701
vn 0.751156 0.2447642 0.6130701
vn 0.7511561 0.2447642 0.6130701
vn 0.1530086 0.7638726 -0.6269665
vn 0.1530086 0.7638726 -0.6269665
vn 0.1530086 0.7638726 -0.6269665
vn -0.7870701 -0.2287227 -0.5728933
vn -0.7870701 -0.2287227 -0.5728933
vn -0.78707 -0.2287227 -0.5728933
vn -0.7870701 -0.2287227 -0.5728933
vn -1.617899E-07 0.6762955 0.7366304
vn -1.617899E-07 0.6762955 0.7366304
vn -3.295693E-07 -0.6762896 -0.7366359
vn -3.295693E-07 -0.6762896 -0.7366359
vn -1.342065E-07 0.7998842 -0.6001543
vn -1.342065E-07 0.7998842 -0.6001543
vn -1.342065E-07 0.7998842 -0.6001543
vn -1.342065E-07 0.7998843 -0.6001543
vn 0.7870713 -0.2287231 -0.5728914
vn 0.7870713 -0.2287231 -0.5728914
vn -0.153023 0.763876 -0.6269589
vn -0.153023 0.763876 -0.6269589
vn -0.1530231 0.763876 -0.6269589
vn -0.7511552 0.244766 0.6130706
vn -0.7511552 0.2447659 0.6130706
vn -0.7511552 0.244766 0.6130706
vn -0.4385556 -0.6946734 0.5701734
vn -0.4385556 -0.6946734 0.5701734
vn -0.4385556 -0.6946735 0.5701734
vn -0.4385556 -0.6946734 0.5701734
vn 0.4385503 -0.6946778 0.5701723
vn 0.4385502 -0.6946777 0.5701723
vn 0.7511551 0.2447664 0.6130705
vn 0.751155 0.2447664 0.6130705
vn 0.7511551 0.2447664 0.6130705
vn 0.1530233 0.7638776 -0.6269567
vn 0.1530233 0.7638776 -0.6269567
vn 0.1530233 0.7638776 -0.6269568
vn -0.7870711 -0.2287232 -0.5728914
vn -0.7870711 -0.2287232 -0.5728915
vn -0.7870711 -0.2287232 -0.5728914
vn -0.7870711 -0.2287232 -0.5728914
vn -1 2.81209E-07 0
vn -1 2.81209E-07 0
vn -1 2.81209E-07 0
vn -1 2.81209E-07 0
vn 1 1.071071E-07 0
vn 1 1.037365E-07 -1.278739E-07
vn 1 -1.138964E-07 -1.555054E-07
vn 1 -1.184285E-07 0
vn 0 0 1
vn 0 0 1
vn 0 0 1
vn 0 0 1
vn 1.667697E-07 0 -1
vn 0 0 -1
vn 0 0 -1
vn -2.493726E-07 0 -1
vn -2.407341E-07 0 -1
vn 0 -1 0
vn 0 -1 0
vn 0 -1 0
vn 0 -1 0
vn 1 0 0
vn 1 0 0
vn 1 0 0
vn 1 0 0
vn -1 0 0
vn -1 0 0
vn -1 0 0
vn -1 0 0
vn 0 1 0
vn 0 1 0
vn 0 1 0
vn 0 1 0
vn 0 0.9790899 0.2034281
vn 0 0.9790899 0.2034281
vn 0 0.9790899 0.2034281
vn 0 0.9790899 0.2034281
vn -0.9818557 -1.274885E-06 0.1896298
vn -0.9818557 -1.274885E-06 0.1896297
vn -0.9818557 -1.274885E-06 0.1896298
vn -0.9818557 -1.274885E-06 0.1896298
vn 0 -0.9790899 0.2034281
vn 0 -0.9790899 0.2034281
vn 0 -0.9790899 0.2034281
vn 0 -0.9790899 0.2034281
vn 0.9818555 0 0.1896308
vn 0.9818555 -4.266962E-07 0.1896308
vn 0.9818555 -4.266962E-07 0.1896308
vn 0.9818555 0 0.1896308
g SM_Prop_Lockers_Door_04_0
f 12/12/12 9/9/9 13/13/13
f 14/14/14 12/12/12 13/13/13
f 11/11/11 75/75/75 74/74/74
f 15/15/15 11/11/11 74/74/74
f 76/76/76 10/10/10 16/16/16
f 77/77/77 76/76/76 16/16/16
f 80/80/80 79/79/79 78/78/78
f 81/81/81 80/80/80 78/78/78
f 1/1/1 8/8/8 82/82/82
f 83/83/83 1/1/1 82/82/82
f 85/85/85 5/5/5 84/84/84
f 86/86/86 85/85/85 84/84/84
f 88/88/88 87/87/87 3/3/3
f 89/89/89 88/88/88 3/3/3
f 92/92/92 91/91/91 90/90/90
f 93/93/93 92/92/92 90/90/90
f 2/2/2 4/4/4 94/94/94
f 95/95/95 2/2/2 94/94/94
f 97/97/97 6/6/6 96/96/96
f 98/98/98 97/97/97 96/96/96
f 101/101/101 100/100/100 99/99/99
f 7/7/7 101/101/101 99/99/99
f 104/104/104 103/103/103 102/102/102
f 105/105/105 104/104/104 102/102/102
f 28/28/28 25/25/25 29/29/29
f 30/30/30 28/28/28 29/29/29
f 27/27/27 107/107/107 106/106/106
f 31/31/31 27/27/27 106/106/106
f 108/108/108 26/26/26 32/32/32
f 109/109/109 108/108/108 32/32/32
f 112/112/112 111/111/111 110/110/110
f 113/113/113 112/112/112 110/110/110
f 17/17/17 24/24/24 114/114/114
f 115/115/115 17/17/17 114/114/114
f 117/117/117 21/21/21 116/116/116
f 118/118/118 117/117/117 116/116/116
f 120/120/120 119/119/119 19/19/19
f 121/121/121 120/120/120 19/19/19
f 124/124/124 123/123/123 122/122/122
f 125/125/125 124/124/124 122/122/122
f 18/18/18 20/20/20 126/126/126
f 127/127/127 18/18/18 126/126/126
f 129/129/129 22/22/22 128/128/128
f 130/130/130 129/129/129 128/128/128
f 133/133/133 132/132/132 131/131/131
f 23/23/23 133/133/133 131/131/131
f 136/136/136 135/135/135 134/134/134
f 137/137/137 136/136/136 134/134/134
f 44/44/44 41/41/41 45/45/45
f 46/46/46 44/44/44 45/45/45
f 43/43/43 139/139/139 138/138/138
f 47/47/47 43/43/43 138/138/138
f 140/140/140 42/42/42 48/48/48
f 141/141/141 140/140/140 48/48/48
f 144/144/144 143/143/143 142/142/142
f 145/145/145 144/144/144 142/142/142
f 33/33/33 40/40/40 146/146/146
f 147/147/147 33/33/33 146/146/146
f 149/149/149 37/37/37 148/148/148
f 150/150/150 149/149/149 148/148/148
f 152/152/152 151/151/151 35/35/35
f 153/153/153 152/152/152 35/35/35
f 156/156/156 155/155/155 154/154/154
f 157/157/157 156/156/156 154/154/154
f 34/34/34 36/36/36 158/158/158
f 159/159/159 34/34/34 158/158/158
f 161/161/161 38/38/38 160/160/160
f 162/162/162 161/161/161 160/160/160
f 165/165/165 164/164/164 163/163/163
f 39/39/39 165/165/165 163/163/163
f 168/168/168 167/167/167 166/166/166
f 169/169/169 168/168/168 166/166/166
f 56/56/56 55/55/55 50/50/50
f 49/49/49 56/56/56 50/50/50
f 54/54/54 53/53/53 51/51/51
f 52/52/52 54/54/54 51/51/51
f 172/172/172 171/171/171 170/170/170
f 173/173/173 172/172/172 170/170/170
f 175/175/175 174/174/174 73/73/73
f 73/73/73 176/176/176 175/175/175
f 73/73/73 177/177/177 176/176/176
f 71/71/71 72/72/72 70/70/70
f 69/69/69 71/71/71 70/70/70
f 189/189/189 188/188/188 187/187/187
f 190/190/190 189/189/189 187/187/187
f 193/193/193 192/192/192 191/191/191
f 194/194/194 193/193/193 191/191/191
f 197/197/197 196/196/196 195/195/195
f 198/198/198 197/197/197 195/195/195
f 201/201/201 200/200/200 199/199/199
f 202/202/202 201/201/201 199/199/199
f 205/205/205 204/204/204 203/203/203
f 206/206/206 205/205/205 203/203/203
f 209/209/209 208/208/208 207/207/207
f 210/210/210 209/209/209 207/207/207
f 213/213/213 212/212/212 211/211/211
f 214/214/214 213/213/213 211/211/211
f 217/217/217 216/216/216 215/215/215
f 218/218/218 217/217/217 215/215/215
f 184/184/184 63/63/63 183/183/183
f 184/184/184 185/185/185 63/63/63
f 63/63/63 62/62/62 183/183/183
f 64/64/64 63/63/63 185/185/185
f 183/183/183 62/62/62 182/182/182
f 186/186/186 64/64/64 185/185/185
f 62/62/62 61/61/61 182/182/182
f 61/61/61 64/64/64 186/186/186
f 182/182/182 61/61/61 186/186/186
f 181/181/181 57/57/57 180/180/180
f 57/57/57 181/181/181 179/179/179
f 58/58/58 57/57/57 179/179/179
f 58/58/58 179/179/179 178/178/178
f 57/57/57 60/60/60 180/180/180
f 59/59/59 58/58/58 178/178/178
f 180/180/180 65/65/65 178/178/178
f 65/65/65 66/66/66 178/178/178
f 178/178/178 66/66/66 59/59/59
f 67/67/67 65/65/65 180/180/180
f 60/60/60 67/67/67 180/180/180
f 66/66/66 68/68/68 59/59/59
f 68/68/68 67/67/67 60/60/60
f 59/59/59 68/68/68 60/60/60
