g SM_Prop_Computer_Monitor_01
v 0.3155355 0.07416015 0.01141771
v 0.3294524 0.0867656 0.01141771
v 0.3294524 0.491654 0.01141771
v 0.3155355 0.5042595 0.01141771
v 0.1446222 0.3877758 0.01141771
v 0.1446222 0.1906438 0.01141771
v -0.1446216 0.3877758 0.01141771
v -0.3155333 0.07416015 0.01141771
v -0.3155333 0.5042595 0.01141771
v -0.1446216 0.1906438 0.01141771
v -0.3294523 0.0867656 0.01141771
v -0.3294523 0.491654 0.01141771
v -0.1157931 0.2102917 -0.02392831
v 0.1157937 0.2102917 -0.02392831
v 0.1157937 0.3681279 -0.02392831
v -0.1157931 0.3681279 -0.02392831
v 0.3155355 0.07416015 0.03466761
v 0.3294524 0.0867656 0.03466761
v 0.3294524 0.0867656 0.01141771
v 0.3155355 0.07416015 0.01141771
v 0.3294524 0.0867656 0.03466761
v 0.3294524 0.491654 0.03466761
v 0.3294524 0.491654 0.01141771
v 0.3294524 0.0867656 0.01141771
v 0.3294524 0.491654 0.03466761
v 0.3155355 0.5042595 0.03466761
v 0.3155355 0.5042595 0.01141771
v 0.3294524 0.491654 0.01141771
v -0.3155333 0.07416015 0.03466761
v 0.3155355 0.07416015 0.03466761
v 0.3155355 0.07416015 0.01141771
v -0.3155333 0.07416015 0.01141771
v 0.3155355 0.5042595 0.03466761
v -0.3155333 0.5042595 0.03466761
v -0.3155333 0.5042595 0.01141771
v 0.3155355 0.5042595 0.01141771
v -0.3294523 0.0867656 0.03466761
v -0.3155333 0.07416015 0.03466761
v -0.3155333 0.07416015 0.01141771
v -0.3294523 0.0867656 0.01141771
v -0.3155333 0.5042595 0.03466761
v -0.3294523 0.491654 0.03466761
v -0.3294523 0.491654 0.01141771
v -0.3155333 0.5042595 0.01141771
v -0.3294523 0.491654 0.03466761
v -0.3294523 0.0867656 0.03466761
v -0.3294523 0.0867656 0.01141771
v -0.3294523 0.491654 0.01141771
v 0.01625406 0.08052841 0.03466761
v -0.01625175 0.08052841 0.03466761
v -0.01555124 0.0997839 0.03466761
v 0.01555355 0.0997839 0.03466761
v 0.3019389 0.4827422 0.03466761
v 0.3096719 0.4752663 0.03466761
v 0.3064694 0.4723368 0.02541991
v 0.2988168 0.4796949 0.02541991
v 0.3096719 0.4752663 0.03466761
v 0.3096719 0.113628 0.03466761
v 0.3064694 0.1165576 0.02541991
v 0.3064694 0.4723368 0.02541991
v 0.3096719 0.113628 0.03466761
v 0.3019389 0.1061522 0.03466761
v 0.2988168 0.1091994 0.02541991
v 0.3064694 0.1165576 0.02541991
v -0.3019349 0.4827422 0.03466761
v 0.3019389 0.4827422 0.03466761
v 0.2988168 0.4796949 0.02541991
v -0.2988127 0.4796949 0.02541991
v 0.3019389 0.1061522 0.03466761
v -0.3019349 0.1061522 0.03466761
v -0.2988127 0.1091994 0.02541991
v 0.2988168 0.1091994 0.02541991
v -0.3096679 0.113628 0.03466761
v -0.3096679 0.4752663 0.03466761
v -0.3064654 0.4723368 0.02541991
v -0.3064654 0.1165576 0.02541991
v -0.3096679 0.4752663 0.03466761
v -0.3019349 0.4827422 0.03466761
v -0.2988127 0.4796949 0.02541991
v -0.3064654 0.4723368 0.02541991
v -0.3019349 0.1061522 0.03466761
v -0.3096679 0.113628 0.03466761
v -0.3064654 0.1165576 0.02541991
v -0.2988127 0.1091994 0.02541991
v -0.1446216 0.1906438 0.01141771
v 0.1446222 0.1906438 0.01141771
v 0.1157937 0.2102917 -0.02392831
v -0.1157931 0.2102917 -0.02392831
v 0.1446222 0.1906438 0.01141771
v 0.1446222 0.3877758 0.01141771
v 0.1157937 0.3681279 -0.02392831
v 0.1157937 0.2102917 -0.02392831
v 0.1446222 0.3877758 0.01141771
v -0.1446216 0.3877758 0.01141771
v -0.1157931 0.3681279 -0.02392831
v 0.1157937 0.3681279 -0.02392831
v -0.1446216 0.3877758 0.01141771
v -0.1446216 0.1906438 0.01141771
v -0.1157931 0.2102917 -0.02392831
v -0.1157931 0.3681279 -0.02392831
v -0.06409447 0.01610659 0.121648
v 0.06409454 0.01610659 0.121648
v 0.06699192 -2.612783E-18 0.1275598
v -0.06699186 -2.612783E-18 0.1275598
v -0.04561235 0.3249887 -0.01950525
v -0.04561235 0.3144034 -0.04554134
v 0.04561071 0.3144034 -0.04554134
v 0.04561071 0.3249887 -0.01950525
v -0.1286282 0.01610659 -0.06771546
v -0.1344429 -2.612783E-18 -0.07098807
v -0.06699186 -2.612783E-18 -0.131981
v -0.06409447 0.01610659 -0.1260704
v 0.1344429 -2.612783E-18 -0.07098807
v 0.06699192 -2.612783E-18 -0.131981
v -0.06699186 -2.612783E-18 -0.131981
v -0.1344429 -2.612783E-18 -0.07098807
v 0.1344429 -2.612783E-18 0.06656681
v -0.1344429 -2.612783E-18 0.06656681
v 0.06699192 -2.612783E-18 0.1275598
v -0.06699186 -2.612783E-18 0.1275598
v 0.1344429 -2.612783E-18 0.06656681
v 0.1286283 0.01610659 0.06329307
v 0.1286283 0.01610659 -0.06771546
v 0.1344429 -2.612783E-18 -0.07098807
v -0.1344429 -2.612783E-18 -0.07098807
v -0.1286282 0.01610659 -0.06771546
v -0.1286282 0.01610659 0.06329307
v -0.1344429 -2.612783E-18 0.06656681
v -0.04561235 0.01610659 -0.01950525
v -0.04561235 0.3249887 -0.01950525
v 0.04561071 0.3249887 -0.01950525
v 0.04561071 0.01610659 -0.01950525
v 0.04561071 0.01610659 -0.01950525
v 0.04561071 0.3249887 -0.01950525
v 0.04561071 0.3144034 -0.04554134
v 0.04561071 0.01610659 -0.04554134
v 0.04561071 0.01610659 -0.04554134
v 0.04561071 0.3144034 -0.04554134
v -0.04561235 0.3144034 -0.04554134
v -0.04561235 0.01610659 -0.04554134
v -0.04561235 0.01610659 -0.04554134
v -0.04561235 0.3144034 -0.04554134
v -0.04561235 0.3249887 -0.01950525
v -0.04561235 0.01610659 -0.01950525
v -0.1344429 -2.612783E-18 0.06656681
v -0.1286282 0.01610659 0.06329307
v -0.06409447 0.01610659 0.121648
v -0.06699186 -2.612783E-18 0.1275598
v 0.06409454 0.01610659 0.121648
v 0.1286283 0.01610659 0.06329307
v 0.1344429 -2.612783E-18 0.06656681
v 0.06699192 -2.612783E-18 0.1275598
v 0.06699192 -2.612783E-18 -0.131981
v 0.1344429 -2.612783E-18 -0.07098807
v 0.1286283 0.01610659 -0.06771546
v 0.06409454 0.01610659 -0.1260704
v -0.06699186 -2.612783E-18 -0.131981
v 0.06699192 -2.612783E-18 -0.131981
v 0.06409454 0.01610659 -0.1260704
v -0.06409447 0.01610659 -0.1260704
v -0.1286282 0.01610659 -0.06771546
v -0.04561235 0.01610659 -0.01950525
v -0.1286282 0.01610659 0.06329307
v -0.06409447 0.01610659 0.121648
v 0.06409454 0.01610659 0.121648
v -0.04561235 0.01610659 -0.04554134
v 0.04561071 0.01610659 -0.01950525
v -0.06409447 0.01610659 -0.1260704
v 0.1286283 0.01610659 0.06329307
v 0.04561071 0.01610659 -0.04554134
v 0.06409454 0.01610659 -0.1260704
v 0.1286283 0.01610659 -0.06771546
v -0.3019349 0.1061522 0.03466761
v -0.01555124 0.0997839 0.03466761
v -0.01625175 0.08052841 0.03466761
v 0.3019389 0.1061522 0.03466761
v 0.01555355 0.0997839 0.03466761
v -0.3155333 0.07416015 0.03466761
v -0.3096679 0.113628 0.03466761
v 0.01625406 0.08052841 0.03466761
v -0.3294523 0.0867656 0.03466761
v -0.3096679 0.4752663 0.03466761
v -0.3294523 0.491654 0.03466761
v -0.3019349 0.4827422 0.03466761
v -0.3155333 0.5042595 0.03466761
v 0.3019389 0.4827422 0.03466761
v 0.3155355 0.5042595 0.03466761
v 0.3096719 0.4752663 0.03466761
v 0.3294524 0.491654 0.03466761
v 0.3096719 0.113628 0.03466761
v 0.3294524 0.0867656 0.03466761
v 0.3155355 0.07416015 0.03466761
v 0.2988168 0.1091994 0.02541991
v 0.3064694 0.4723368 0.02541991
v 0.3064694 0.1165576 0.02541991
v 0.2988168 0.4796949 0.02541991
v -0.2988127 0.1091994 0.02541991
v -0.2988127 0.4796949 0.02541991
v -0.3064654 0.1165576 0.02541991
v -0.3064654 0.4723368 0.02541991
vt 0.0810222 0.2525664
vt 0.0810222 0.2525664
vt 0.0810222 0.2525664
vt 0.0810222 0.2525664
vt 0.0810222 0.2525664
vt 0.0810222 0.2525664
vt 0.0810222 0.2525664
vt 0.0810222 0.2525664
vt 0.0810222 0.2525664
vt 0.0810222 0.2525664
vt 0.08102222 0.2525664
vt 0.08102222 0.2525664
vt 0.0810222 0.2525664
vt 0.0810222 0.2525664
vt 0.0810222 0.2525664
vt 0.0810222 0.2525664
vt 0.0810222 0.2525664
vt 0.0810222 0.2525664
vt 0.0810222 0.2525664
vt 0.0810222 0.2525664
vt 0.0810222 0.2525664
vt 0.0810222 0.2525664
vt 0.0810222 0.2525664
vt 0.0810222 0.2525664
vt 0.0810222 0.2525664
vt 0.0810222 0.2525664
vt 0.0810222 0.2525664
vt 0.0810222 0.2525664
vt 0.0810222 0.2525664
vt 0.0810222 0.2525664
vt 0.0810222 0.2525664
vt 0.0810222 0.2525664
vt 0.0810222 0.2525664
vt 0.0810222 0.2525664
vt 0.0810222 0.2525664
vt 0.0810222 0.2525664
vt 0.08102222 0.2525664
vt 0.0810222 0.2525664
vt 0.0810222 0.2525664
vt 0.08102222 0.2525664
vt 0.0810222 0.2525664
vt 0.08102222 0.2525664
vt 0.08102222 0.2525664
vt 0.0810222 0.2525664
vt 0.08102222 0.2525664
vt 0.08102222 0.2525664
vt 0.08102222 0.2525664
vt 0.08102222 0.2525664
vt 0.1005031 0.3046037
vt 0.1015031 0.3044989
vt 0.101484 0.3043036
vt 0.1005247 0.3043976
vt 0.0810222 0.2525664
vt 0.0810222 0.2525664
vt 0.0810222 0.2525664
vt 0.0810222 0.2525664
vt 0.0810222 0.2525664
vt 0.0810222 0.2525664
vt 0.0810222 0.2525664
vt 0.0810222 0.2525664
vt 0.0810222 0.2525664
vt 0.0810222 0.2525664
vt 0.0810222 0.2525664
vt 0.0810222 0.2525664
vt 0.0810222 0.2525664
vt 0.0810222 0.2525664
vt 0.0810222 0.2525664
vt 0.0810222 0.2525664
vt 0.0810222 0.2525664
vt 0.0810222 0.2525664
vt 0.0810222 0.2525664
vt 0.0810222 0.2525664
vt 0.08102222 0.2525664
vt 0.08102222 0.2525664
vt 0.08102222 0.2525664
vt 0.08102222 0.2525664
vt 0.08102222 0.2525664
vt 0.0810222 0.2525664
vt 0.0810222 0.2525664
vt 0.08102222 0.2525664
vt 0.0810222 0.2525664
vt 0.08102222 0.2525664
vt 0.08102222 0.2525664
vt 0.0810222 0.2525664
vt 0.0810222 0.2525664
vt 0.0810222 0.2525664
vt 0.0810222 0.2525664
vt 0.0810222 0.2525664
vt 0.0810222 0.2525664
vt 0.0810222 0.2525664
vt 0.0810222 0.2525664
vt 0.0810222 0.2525664
vt 0.0810222 0.2525664
vt 0.0810222 0.2525664
vt 0.0810222 0.2525664
vt 0.0810222 0.2525664
vt 0.0810222 0.2525664
vt 0.0810222 0.2525664
vt 0.0810222 0.2525664
vt 0.0810222 0.2525664
vt 0.08102225 0.2525665
vt 0.08102222 0.2525665
vt 0.08102222 0.2525664
vt 0.08102225 0.2525664
vt 0.08102226 0.2525665
vt 0.08102226 0.2525665
vt 0.0810222 0.2525665
vt 0.0810222 0.2525665
vt 0.08102226 0.2525665
vt 0.08102226 0.2525664
vt 0.08102225 0.2525664
vt 0.08102225 0.2525665
vt 0.0810222 0.2525664
vt 0.08102222 0.2525664
vt 0.08102225 0.2525664
vt 0.08102226 0.2525664
vt 0.0810222 0.2525664
vt 0.08102226 0.2525664
vt 0.08102222 0.2525664
vt 0.08102225 0.2525664
vt 0.0810222 0.2525664
vt 0.0810222 0.2525665
vt 0.0810222 0.2525665
vt 0.0810222 0.2525664
vt 0.08102222 0.2525664
vt 0.08102222 0.2525665
vt 0.08102226 0.2525665
vt 0.08102226 0.2525664
vt 0.08102226 0.2525665
vt 0.08102226 0.2525665
vt 0.0810222 0.2525665
vt 0.0810222 0.2525665
vt 0.0810222 0.2525665
vt 0.0810222 0.2525665
vt 0.0810222 0.2525665
vt 0.0810222 0.2525665
vt 0.0810222 0.2525665
vt 0.0810222 0.2525665
vt 0.08102226 0.2525665
vt 0.08102226 0.2525665
vt 0.08102226 0.2525665
vt 0.08102226 0.2525665
vt 0.08102226 0.2525665
vt 0.08102226 0.2525665
vt 0.08102226 0.2525664
vt 0.08102226 0.2525665
vt 0.08102225 0.2525665
vt 0.08102225 0.2525664
vt 0.08102222 0.2525665
vt 0.0810222 0.2525665
vt 0.0810222 0.2525664
vt 0.08102222 0.2525664
vt 0.08102222 0.2525664
vt 0.0810222 0.2525664
vt 0.0810222 0.2525665
vt 0.08102222 0.2525665
vt 0.08102225 0.2525664
vt 0.08102222 0.2525664
vt 0.08102222 0.2525665
vt 0.08102225 0.2525665
vt 0.08102226 0.2525665
vt 0.08102226 0.2525665
vt 0.08102226 0.2525665
vt 0.08102225 0.2525665
vt 0.08102222 0.2525665
vt 0.08102226 0.2525665
vt 0.0810222 0.2525665
vt 0.08102225 0.2525665
vt 0.0810222 0.2525665
vt 0.0810222 0.2525665
vt 0.08102222 0.2525665
vt 0.0810222 0.2525665
vt 0.0810222 0.2525664
vt 0.0810222 0.2525664
vt 0.0810222 0.2525664
vt 0.0810222 0.2525664
vt 0.0810222 0.2525664
vt 0.0810222 0.2525664
vt 0.08102222 0.2525664
vt 0.0810222 0.2525664
vt 0.08102222 0.2525664
vt 0.08102222 0.2525664
vt 0.08102222 0.2525664
vt 0.0810222 0.2525664
vt 0.0810222 0.2525664
vt 0.0810222 0.2525664
vt 0.0810222 0.2525664
vt 0.0810222 0.2525664
vt 0.0810222 0.2525664
vt 0.0810222 0.2525664
vt 0.0810222 0.2525664
vt 0.0810222 0.2525664
vt 0.9875147 -5.960464E-08
vt 1 0.9801397
vt 1 0.01986033
vt 0.9875147 0.9999999
vt 0.01248527 -5.960464E-08
vt 0.01248527 0.9999999
vt 0 0.01986033
vt 0 0.9801397
vn 0 0 -1
vn 0 0 -1
vn 0 0 -1
vn 0 0 -1
vn 0 0 -1
vn 0 0 -1
vn 0 0 -1
vn 0 0 -1
vn 0 0 -1
vn 0 0 -1
vn 0 0 -1
vn 0 0 -1
vn 0 0 -1
vn 0 0 -1
vn 0 0 -1
vn 0 0 -1
vn 0.671325 -0.7411631 0
vn 0.671325 -0.7411631 0
vn 0.671325 -0.7411631 0
vn 0.671325 -0.7411631 0
vn 1 0 0
vn 1 0 0
vn 1 0 0
vn 1 0 0
vn 0.6713279 0.7411605 0
vn 0.6713279 0.7411605 0
vn 0.6713279 0.7411605 0
vn 0.6713279 0.7411605 0
vn 0 -1 0
vn 0 -1 0
vn 0 -1 0
vn 0 -1 0
vn 0 1 0
vn 0 1 0
vn 0 1 0
vn 0 1 0
vn -0.6712658 -0.7412167 0
vn -0.6712658 -0.7412167 0
vn -0.6712658 -0.7412167 0
vn -0.6712658 -0.7412167 0
vn -0.6712689 0.7412139 0
vn -0.6712689 0.7412139 0
vn -0.6712689 0.7412139 0
vn -0.6712689 0.7412139 0
vn -1 0 0
vn -1 0 0
vn -1 0 0
vn -1 0 0
vn 0 0 1
vn 0 0 1
vn 0 0 1
vn 0 0 1
vn -0.6281643 -0.6515301 0.4253446
vn -0.6281643 -0.6515302 0.4253447
vn -0.6281644 -0.6515301 0.4253446
vn -0.6281644 -0.6515301 0.4253446
vn -0.9449435 0 0.3272336
vn -0.9449435 0 0.3272336
vn -0.9449435 0 0.3272336
vn -0.9449435 0 0.3272336
vn -0.6281664 0.6515281 0.4253448
vn -0.6281663 0.6515281 0.4253447
vn -0.6281664 0.6515281 0.4253448
vn -0.6281664 0.6515281 0.4253448
vn 0 -0.9497668 0.3129585
vn 0 -0.9497668 0.3129585
vn 0 -0.9497668 0.3129585
vn 0 -0.9497668 0.3129585
vn 0 0.9497668 0.3129585
vn 0 0.9497668 0.3129585
vn 0 0.9497668 0.3129585
vn 0 0.9497668 0.3129585
vn 0.9449435 0 0.3272336
vn 0.9449435 0 0.3272336
vn 0.9449435 0 0.3272336
vn 0.9449435 0 0.3272336
vn 0.6281649 -0.6515285 0.4253463
vn 0.6281649 -0.6515285 0.4253463
vn 0.6281649 -0.6515285 0.4253462
vn 0.6281649 -0.6515285 0.4253463
vn 0.628167 0.6515265 0.4253463
vn 0.628167 0.6515265 0.4253463
vn 0.628167 0.6515265 0.4253464
vn 0.628167 0.6515265 0.4253463
vn 0 -0.8740396 -0.4858547
vn 0 -0.8740396 -0.4858547
vn 0 -0.8740396 -0.4858547
vn 0 -0.8740396 -0.4858547
vn 0.7749338 0 -0.6320425
vn 0.7749338 0 -0.6320424
vn 0.7749338 0 -0.6320425
vn 0.7749338 0 -0.6320425
vn 0 0.8740398 -0.4858543
vn 0 0.8740398 -0.4858543
vn 0 0.8740398 -0.4858544
vn 0 0.8740398 -0.4858544
vn -0.7749338 0 -0.6320424
vn -0.7749338 0 -0.6320425
vn -0.7749338 0 -0.6320425
vn -0.7749338 0 -0.6320425
vn 0 0.3445624 0.9387634
vn 0 0.3445624 0.9387634
vn 0 0.3445624 0.9387634
vn 0 0.3445624 0.9387634
vn 0 0.926366 -0.3766246
vn 0 0.926366 -0.3766246
vn 0 0.926366 -0.3766246
vn 0 0.926366 -0.3766246
vn -0.6242648 0.3656391 -0.6903633
vn -0.6242648 0.365639 -0.6903633
vn -0.6242648 0.365639 -0.6903633
vn -0.6242648 0.3656391 -0.6903633
vn 0 -1 0
vn 0 -1 0
vn 0 -1 0
vn 0 -1 0
vn 0 -1 0
vn 0 -1 0
vn 0 -1 0
vn 0 -1 0
vn 0.9405838 0.3395618 0
vn 0.9405837 0.3395617 0
vn 0.9405838 0.3395618 0
vn 0.9405838 0.3395618 0
vn -0.9405837 0.3395617 0
vn -0.9405837 0.3395617 0
vn -0.9405837 0.3395617 0
vn -0.9405837 0.3395617 0
vn 0 0 1
vn 0 0 1
vn 0 0 1
vn 0 0 1
vn 1 0 0
vn 1 0 0
vn 1 0 0
vn 1 0 0
vn 0 0 -1
vn 0 0 -1
vn 0 0 -1
vn 0 0 -1
vn -1 0 0
vn -1 0 0
vn -1 0 0
vn -1 0 0
vn -0.6242538 0.3656809 0.6903511
vn -0.6242538 0.3656809 0.6903511
vn -0.6242537 0.3656809 0.6903511
vn -0.6242537 0.3656809 0.6903511
vn 0.6242539 0.3656805 0.6903512
vn 0.6242539 0.3656805 0.6903511
vn 0.6242539 0.3656805 0.6903511
vn 0.6242539 0.3656805 0.6903511
vn 0.624265 0.3656385 -0.6903634
vn 0.624265 0.3656385 -0.6903635
vn 0.624265 0.3656384 -0.6903635
vn 0.624265 0.3656384 -0.6903635
vn 0 0.3445042 -0.9387848
vn 0 0.3445042 -0.9387848
vn 0 0.3445042 -0.9387848
vn 0 0.3445042 -0.9387848
vn 0 1 0
vn 0 1 0
vn 0 1 0
vn 0 1 0
vn 0 1 0
vn 0 1 0
vn 0 1 0
vn 0 1 0
vn 0 1 0
vn 0 1 0
vn 0 1 0
vn 0 1 0
vn 0 0 1
vn 0 0 1
vn 0 0 1
vn 0 0 1
vn 0 0 1
vn 0 0 1
vn 0 0 1
vn 0 0 1
vn 0 0 1
vn 0 0 1
vn 0 0 1
vn 0 0 1
vn 0 0 1
vn 0 0 1
vn 0 0 1
vn 0 0 1
vn 0 0 1
vn 0 0 1
vn 0 0 1
vn 0 0 1
vn 0 0 1
vn 0 0 1
vn 0 0 1
vn 0 0 1
vn 0 0 1
vn 0 0 1
vn 0 0 1
vn 0 0 1
g SM_Prop_Computer_Monitor_01_0
f 3/3/3 2/2/2 1/1/1
f 4/4/4 3/3/3 1/1/1
f 5/5/5 4/4/4 1/1/1
f 6/6/6 5/5/5 1/1/1
f 5/5/5 7/7/7 4/4/4
f 6/6/6 1/1/1 8/8/8
f 7/7/7 9/9/9 4/4/4
f 10/10/10 6/6/6 8/8/8
f 7/7/7 10/10/10 9/9/9
f 10/10/10 8/8/8 9/9/9
f 9/9/9 8/8/8 11/11/11
f 12/12/12 9/9/9 11/11/11
f 15/15/15 14/14/14 13/13/13
f 16/16/16 15/15/15 13/13/13
f 19/19/19 18/18/18 17/17/17
f 20/20/20 19/19/19 17/17/17
f 23/23/23 22/22/22 21/21/21
f 24/24/24 23/23/23 21/21/21
f 27/27/27 26/26/26 25/25/25
f 28/28/28 27/27/27 25/25/25
f 31/31/31 30/30/30 29/29/29
f 32/32/32 31/31/31 29/29/29
f 35/35/35 34/34/34 33/33/33
f 36/36/36 35/35/35 33/33/33
f 39/39/39 38/38/38 37/37/37
f 40/40/40 39/39/39 37/37/37
f 43/43/43 42/42/42 41/41/41
f 44/44/44 43/43/43 41/41/41
f 47/47/47 46/46/46 45/45/45
f 48/48/48 47/47/47 45/45/45
f 51/51/51 50/50/50 49/49/49
f 52/52/52 51/51/51 49/49/49
f 55/55/55 54/54/54 53/53/53
f 56/56/56 55/55/55 53/53/53
f 59/59/59 58/58/58 57/57/57
f 60/60/60 59/59/59 57/57/57
f 63/63/63 62/62/62 61/61/61
f 64/64/64 63/63/63 61/61/61
f 67/67/67 66/66/66 65/65/65
f 68/68/68 67/67/67 65/65/65
f 71/71/71 70/70/70 69/69/69
f 72/72/72 71/71/71 69/69/69
f 75/75/75 74/74/74 73/73/73
f 76/76/76 75/75/75 73/73/73
f 79/79/79 78/78/78 77/77/77
f 80/80/80 79/79/79 77/77/77
f 83/83/83 82/82/82 81/81/81
f 84/84/84 83/83/83 81/81/81
f 87/87/87 86/86/86 85/85/85
f 88/88/88 87/87/87 85/85/85
f 91/91/91 90/90/90 89/89/89
f 92/92/92 91/91/91 89/89/89
f 95/95/95 94/94/94 93/93/93
f 96/96/96 95/95/95 93/93/93
f 99/99/99 98/98/98 97/97/97
f 100/100/100 99/99/99 97/97/97
f 103/103/103 102/102/102 101/101/101
f 104/104/104 103/103/103 101/101/101
f 107/107/107 106/106/106 105/105/105
f 108/108/108 107/107/107 105/105/105
f 111/111/111 110/110/110 109/109/109
f 112/112/112 111/111/111 109/109/109
f 115/115/115 114/114/114 113/113/113
f 113/113/113 116/116/116 115/115/115
f 113/113/113 117/117/117 116/116/116
f 117/117/117 118/118/118 116/116/116
f 117/117/117 119/119/119 118/118/118
f 119/119/119 120/120/120 118/118/118
f 123/123/123 122/122/122 121/121/121
f 124/124/124 123/123/123 121/121/121
f 127/127/127 126/126/126 125/125/125
f 128/128/128 127/127/127 125/125/125
f 131/131/131 130/130/130 129/129/129
f 132/132/132 131/131/131 129/129/129
f 135/135/135 134/134/134 133/133/133
f 136/136/136 135/135/135 133/133/133
f 139/139/139 138/138/138 137/137/137
f 140/140/140 139/139/139 137/137/137
f 143/143/143 142/142/142 141/141/141
f 144/144/144 143/143/143 141/141/141
f 147/147/147 146/146/146 145/145/145
f 148/148/148 147/147/147 145/145/145
f 151/151/151 150/150/150 149/149/149
f 152/152/152 151/151/151 149/149/149
f 155/155/155 154/154/154 153/153/153
f 156/156/156 155/155/155 153/153/153
f 159/159/159 158/158/158 157/157/157
f 160/160/160 159/159/159 157/157/157
f 163/163/163 162/162/162 161/161/161
f 164/164/164 162/162/162 163/163/163
f 164/164/164 165/165/165 162/162/162
f 162/162/162 166/166/166 161/161/161
f 165/165/165 167/167/167 162/162/162
f 168/168/168 161/161/161 166/166/166
f 165/165/165 169/169/169 167/167/167
f 168/168/168 166/166/166 170/170/170
f 170/170/170 167/167/167 169/169/169
f 171/171/171 168/168/168 170/170/170
f 172/172/172 170/170/170 169/169/169
f 171/171/171 170/170/170 172/172/172
f 175/175/175 174/174/174 173/173/173
f 173/173/173 174/174/174 176/176/176
f 174/174/174 177/177/177 176/176/176
f 178/178/178 175/175/175 173/173/173
f 173/173/173 179/179/179 178/178/178
f 180/180/180 175/175/175 178/178/178
f 179/179/179 181/181/181 178/178/178
f 179/179/179 182/182/182 181/181/181
f 182/182/182 183/183/183 181/181/181
f 182/182/182 184/184/184 183/183/183
f 184/184/184 185/185/185 183/183/183
f 184/184/184 186/186/186 185/185/185
f 186/186/186 187/187/187 185/185/185
f 186/186/186 188/188/188 187/187/187
f 188/188/188 189/189/189 187/187/187
f 188/188/188 190/190/190 189/189/189
f 190/190/190 191/191/191 189/189/189
f 190/190/190 176/176/176 191/191/191
f 192/192/192 180/180/180 178/178/178
f 176/176/176 192/192/192 191/191/191
f 177/177/177 180/180/180 192/192/192
f 176/176/176 177/177/177 192/192/192
g SM_Prop_Computer_Monitor_01_1
f 195/195/195 194/194/194 193/193/193
f 194/194/194 196/196/196 193/193/193
f 193/193/193 196/196/196 197/197/197
f 196/196/196 198/198/198 197/197/197
f 197/197/197 198/198/198 199/199/199
f 198/198/198 200/200/200 199/199/199
