g SM_Prop_Road_Barrier_Base_01
v -0.1938974 -0.1381466 -0.1938972
v -0.1938974 -0.1381466 0.1938972
v -0.0797977 0.7100085 -0.07979774
v -0.0797977 0.7100085 0.07979774
v 0.07979855 0.7100085 -0.07979774
v 0.07979855 0.7100085 0.07979774
v 0.1938974 -0.1381466 -0.1938972
v 0.1938974 -0.1381466 0.1938972
v -0.1938974 0.09489947 -0.1938972
v -0.1938974 0.09489947 0.1938972
v 0.1938974 0.09489947 0.1938972
v 0.1938974 0.09489947 -0.1938972
v 0.07979855 0.09489939 0.07979774
v -0.0797977 0.09489953 0.07979774
v -0.0797977 0.09489953 -0.07979774
v 0.07979855 0.09489939 -0.07979774
v -0.1194049 0.7100085 -0.1485491
v -0.1194049 0.7100085 0.1485472
v 0.1194046 0.7100085 0.1485472
v 0.1194046 0.7100085 -0.1485491
v -0.1194049 1.17231 -0.1485491
v -0.1194049 1.17231 0.1485472
v 0.1194046 1.17231 0.1485472
v 0.1194046 1.17231 -0.1485491
v -0.1194049 1.10176 -0.059165
v 0.1194046 1.10176 -0.059165
v -0.1194049 1.10176 0.05916405
v 0.1194046 1.10176 0.05916405
v -0.1194049 1.17231 -0.09388822
v 0.1194046 1.17231 -0.09388822
v -0.1194049 1.17231 0.09388726
v 0.1194046 1.17231 0.09388726
v 0.07979855 0.09489939 0.07979774
v 0.07979855 0.09489939 -0.07979774
v -0.0797977 0.09489953 -0.07979774
v -0.1938974 0.09489947 -0.1938972
v -0.1938974 -0.1381466 -0.1938972
v -0.1938974 0.09489947 -0.1938972
v -0.1938974 0.09489947 0.1938972
v -0.1938974 -0.1381466 0.1938972
v -0.1938974 -0.1381466 0.1938972
v -0.1938974 0.09489947 0.1938972
v 0.1938974 0.09489947 0.1938972
v 0.1938974 -0.1381466 0.1938972
v 0.1938974 0.09489947 -0.1938972
v 0.1938974 -0.1381466 -0.1938972
v 0.1938974 -0.1381466 0.1938972
v 0.1938974 0.09489947 0.1938972
v 0.1938974 -0.1381466 -0.1938972
v 0.1938974 0.09489947 -0.1938972
v -0.1938974 0.09489947 -0.1938972
v -0.1938974 -0.1381466 -0.1938972
v -0.0797977 0.09489953 0.07979774
v 0.07979855 0.09489939 0.07979774
v -0.0797977 0.09489953 -0.07979774
v -0.0797977 0.7100085 0.07979774
v -0.0797977 0.09489953 0.07979774
v 0.07979855 0.09489939 -0.07979774
v -0.0797977 0.7100085 -0.07979774
v -0.0797977 0.09489953 -0.07979774
v 0.07979855 0.7100085 -0.07979774
v 0.07979855 0.09489939 -0.07979774
v 0.07979855 0.09489939 0.07979774
v 0.07979855 0.7100085 0.07979774
v -0.0797977 0.7100085 -0.07979774
v -0.0797977 0.7100085 0.07979774
v 0.07979855 0.7100085 0.07979774
v 0.07979855 0.7100085 -0.07979774
v -0.1194049 0.7100085 -0.1485491
v -0.1194049 1.17231 -0.1485491
v -0.1194049 0.7100085 0.1485472
v 0.1194046 0.7100085 0.1485472
v 0.1194046 1.17231 -0.1485491
v 0.1194046 0.7100085 -0.1485491
v 0.1194046 0.7100085 -0.1485491
v 0.1194046 1.17231 -0.1485491
v -0.1194049 1.17231 -0.1485491
v -0.1194049 0.7100085 -0.1485491
v -0.1194049 1.10176 -0.059165
v 0.1194046 1.10176 -0.059165
v 0.1194046 1.17231 0.1485472
v -0.1194049 1.17231 0.1485472
v -0.1194049 1.10176 0.05916405
v -0.1194049 1.17231 0.1485472
v -0.1194049 0.7100085 0.1485472
v 0.1194046 0.7100085 0.1485472
v 0.1194046 1.17231 0.1485472
v 0.1194046 1.10176 0.05916405
v -0.1194049 1.17231 -0.09388822
v -0.1194049 1.10176 -0.059165
v -0.1194049 1.17231 -0.09388822
v 0.1194046 1.17231 -0.09388822
v 0.1194046 1.10176 -0.059165
v 0.1194046 1.17231 -0.09388822
v 0.1194046 1.10176 0.05916405
v 0.1194046 1.17231 0.09388726
v -0.1194049 1.17231 0.09388726
v -0.1194049 1.10176 0.05916405
v -0.1194049 1.17231 0.09388726
v 0.1194046 1.17231 0.09388726
vt 0.1022259 0.2301917
vt 0.1022259 0.2301917
vt 0.1022259 0.2301918
vt 0.1022259 0.2301918
vt 0.1022259 0.2301918
vt 0.1022258 0.2301918
vt 0.1022259 0.2301917
vt 0.1022259 0.2301917
vt 0.1022259 0.2301918
vt 0.1022259 0.2301918
vt 0.1022259 0.2301917
vt 0.1022259 0.2301917
vt 0.1022259 0.2301917
vt 0.1022259 0.2301917
vt 0.1022259 0.2301917
vt 0.1022259 0.2301917
vt 0.1022259 0.2301918
vt 0.1022259 0.2301918
vt 0.1022259 0.2301917
vt 0.1022259 0.2301917
vt 0.1022259 0.2301918
vt 0.1022259 0.2301918
vt 0.1022259 0.2301917
vt 0.1022259 0.2301917
vt 0.1022259 0.2301918
vt 0.1022259 0.2301917
vt 0.1022259 0.2301918
vt 0.1022259 0.2301917
vt 0.1022259 0.2301918
vt 0.1022259 0.2301917
vt 0.1022259 0.2301918
vt 0.1022259 0.2301917
vt 0.1022258 0.2301918
vt 0.1022259 0.2301918
vt 0.1022259 0.2301917
vt 0.1022259 0.2301918
vt 0.1022259 0.2301917
vt 0.1022259 0.2301918
vt 0.1022259 0.2301918
vt 0.1022259 0.2301917
vt 0.1022259 0.2301917
vt 0.1022259 0.2301918
vt 0.1022258 0.2301918
vt 0.1022258 0.2301917
vt 0.1022259 0.2301917
vt 0.1022259 0.2301917
vt 0.1022259 0.2301917
vt 0.1022259 0.2301917
vt 0.1022259 0.2301917
vt 0.1022259 0.2301918
vt 0.1022259 0.2301918
vt 0.1022259 0.2301917
vt 0.1022259 0.2301917
vt 0.1022258 0.2301918
vt 0.1022259 0.2301917
vt 0.1022259 0.2301918
vt 0.1022259 0.2301917
vt 0.1022259 0.2301918
vt 0.1022259 0.2301918
vt 0.1022259 0.2301917
vt 0.1022259 0.2301917
vt 0.1022259 0.2301917
vt 0.1022259 0.2301917
vt 0.1022259 0.2301917
vt 0.1022259 0.2301918
vt 0.1022259 0.2301918
vt 0.1022259 0.2301917
vt 0.1022259 0.2301917
vt 0.1022259 0.2301918
vt 0.1022259 0.2301918
vt 0.1022259 0.2301918
vt 0.1022259 0.2301917
vt 0.1022259 0.2301917
vt 0.1022259 0.2301917
vt 0.1022259 0.2301917
vt 0.1022259 0.2301917
vt 0.1022259 0.2301918
vt 0.1022259 0.2301918
vt 0.1022259 0.2301918
vt 0.1022259 0.2301917
vt 0.1022259 0.2301917
vt 0.1022259 0.2301918
vt 0.1022259 0.2301918
vt 0.1022259 0.2301918
vt 0.1022259 0.2301918
vt 0.1022259 0.2301917
vt 0.1022259 0.2301917
vt 0.1022259 0.2301917
vt 0.1022259 0.2301918
vt 0.1022259 0.2301918
vt 0.1022259 0.2301918
vt 0.1022259 0.2301917
vt 0.1022259 0.2301917
vt 0.1022259 0.2301917
vt 0.1022259 0.2301917
vt 0.1022259 0.2301917
vt 0.1022259 0.2301918
vt 0.1022259 0.2301918
vt 0.1022259 0.2301918
vt 0.1022259 0.2301917
vn 0 -1 0
vn 0 -1 0
vn -1 0 0
vn 0 0 1
vn 0 0 -1
vn 0 0 1
vn 0 -1 0
vn 0 -1 0
vn -1.200818E-07 1 0
vn -1.200818E-07 1 0
vn -2.454541E-07 1 0
vn -2.454541E-07 1 0
vn -2.454566E-07 1 0
vn -1.200811E-07 1 0
vn -1.200811E-07 1 0
vn -2.454566E-07 1 0
vn 0 -1 0
vn 0 -1 0
vn 0 -1 0
vn 0 -1 0
vn 0 1 0
vn 0 0 1
vn 0 0 1
vn 0 1 0
vn -1 0 0
vn 1 0 0
vn 0 1 0
vn 0 1 0
vn 0 1 0
vn 0 1 0
vn 0 1 0
vn 0 1 0
vn -2.454566E-07 1 0
vn -2.454566E-07 1 0
vn -1.200811E-07 1 0
vn -1.200818E-07 1 0
vn -1 0 0
vn -1 0 0
vn -1 0 0
vn -1 0 0
vn 0 0 1
vn 0 0 1
vn 0 0 1
vn 0 0 1
vn 1 0 0
vn 1 0 0
vn 1 0 0
vn 1 0 0
vn 0 0 -1
vn 0 0 -1
vn 0 0 -1
vn 0 0 -1
vn 0 0 1
vn 0 0 1
vn -1 0 0
vn -1 0 0
vn -1 0 0
vn 0 0 -1
vn 0 0 -1
vn 0 0 -1
vn 1 0 0
vn 1 0 0
vn 1 0 0
vn 1 0 0
vn 0 -1 0
vn 0 -1 0
vn 0 -1 0
vn 0 -1 0
vn -1 0 0
vn -1 0 0
vn 0 0 1
vn 0 0 1
vn 1 0 0
vn 1 0 0
vn 0 0 -1
vn 0 0 -1
vn 0 0 -1
vn 0 0 -1
vn 0 1 0
vn 0 1 0
vn 0 1 0
vn 0 1 0
vn -1 0 0
vn -1 0 0
vn -1 0 0
vn 1 0 0
vn 1 0 0
vn 1 0 0
vn -1 0 0
vn 0 0.4415913 0.8972163
vn 0 0.4415913 0.8972163
vn 0 0.4415913 0.8972163
vn 0 0.4415913 0.8972163
vn 1 0 0
vn 0 0.4415913 -0.8972163
vn 0 0.4415913 -0.8972163
vn 0 0.4415913 -0.8972163
vn 0 0.4415913 -0.8972163
vn -1 0 0
vn 1 0 0
g SM_Prop_Road_Barrier_Base_01_0
f 14/14/14 15/15/15 9/9/9
f 10/10/10 14/14/14 9/9/9
f 33/33/33 14/14/14 10/10/10
f 11/11/11 33/33/33 10/10/10
f 13/13/13 11/11/11 16/16/16
f 11/11/11 12/12/12 16/16/16
f 35/35/35 34/34/34 12/12/12
f 36/36/36 35/35/35 12/12/12
f 30/30/30 24/24/24 21/21/21
f 29/29/29 30/30/30 21/21/21
f 2/2/2 1/1/1 7/7/7
f 8/8/8 2/2/2 7/7/7
f 39/39/39 38/38/38 37/37/37
f 40/40/40 39/39/39 37/37/37
f 43/43/43 42/42/42 41/41/41
f 44/44/44 43/43/43 41/41/41
f 47/47/47 46/46/46 45/45/45
f 48/48/48 47/47/47 45/45/45
f 51/51/51 50/50/50 49/49/49
f 52/52/52 51/51/51 49/49/49
f 6/6/6 4/4/4 53/53/53
f 54/54/54 6/6/6 53/53/53
f 56/56/56 3/3/3 55/55/55
f 57/57/57 56/56/56 55/55/55
f 59/59/59 5/5/5 58/58/58
f 60/60/60 59/59/59 58/58/58
f 63/63/63 62/62/62 61/61/61
f 64/64/64 63/63/63 61/61/61
f 23/23/23 22/22/22 71/71/71
f 72/72/72 23/23/23 71/71/71
f 77/77/77 76/76/76 75/75/75
f 78/78/78 77/77/77 75/75/75
f 79/79/79 27/27/27 28/28/28
f 80/80/80 79/79/79 28/28/28
f 82/82/82 81/81/81 32/32/32
f 31/31/31 82/82/82 32/32/32
f 25/25/25 89/89/89 70/70/70
f 25/25/25 70/70/70 69/69/69
f 83/83/83 25/25/25 69/69/69
f 85/85/85 83/83/83 69/69/69
f 85/85/85 84/84/84 83/83/83
f 84/84/84 99/99/99 83/83/83
f 92/92/92 91/91/91 90/90/90
f 93/93/93 92/92/92 90/90/90
f 73/73/73 94/94/94 26/26/26
f 74/74/74 73/73/73 26/26/26
f 74/74/74 26/26/26 86/86/86
f 26/26/26 88/88/88 86/86/86
f 88/88/88 87/87/87 86/86/86
f 88/88/88 100/100/100 87/87/87
f 97/97/97 96/96/96 95/95/95
f 98/98/98 97/97/97 95/95/95
f 68/68/68 20/20/20 67/67/67
f 20/20/20 19/19/19 67/67/67
f 17/17/17 20/20/20 68/68/68
f 67/67/67 19/19/19 66/66/66
f 65/65/65 17/17/17 68/68/68
f 19/19/19 18/18/18 66/66/66
f 18/18/18 17/17/17 65/65/65
f 66/66/66 18/18/18 65/65/65
