g SM_Prop_Crate_02
v -0.6491687 0.3069706 0.3673586
v -0.7239347 0.2810901 0.3687963
v -0.7253724 0.3069706 0.2393937
v -0.341478 0.3270999 -0.3745499
v -0.3084084 0.3112841 -0.3759877
v -0.3069706 0.3270999 -0.2940327
v 0.2940327 0.3069706 0.3529805
v 0.1646301 0.2810901 0.3544183
v 0.1675057 0.3069706 0.2638364
v 0.1646301 0.2810901 0.3544183
v -0.009344578 0.3069706 0.3572938
v 0.1675057 0.3069706 0.2638364
v 0.6189771 0.3069706 -0.3774255
v 0.723937 0.2839657 -0.3788633
v 0.723937 0.3069706 -0.3285401
v 0.7354394 0.04241413 0.3457915
v 0.7052455 0.1071154 0.3457915
v 0.7354394 0.1186179 0.3213487
v 0.7052455 0.1071154 0.3457915
v 0.7354394 0.1660655 0.3457915
v 0.7354394 0.1186179 0.3213487
v 0.2940327 0.3270999 -0.3846145
v 0.3918036 0.3270999 -0.3874901
v 0.403306 0.3270999 0.3644829
v 0.3055351 0.3270999 0.3659207
v 0.2940327 0.2580852 -0.3846145
v 0.2940327 0.3270999 -0.3846145
v 0.3055351 0.3270999 0.3659207
v 0.3055351 0.2580852 0.3659207
v 0.3055351 0.2580852 0.3659207
v 0.3055351 0.3270999 0.3659207
v 0.403306 0.3270999 0.3644829
v 0.403306 0.2580852 0.3644829
v 0.403306 0.2580852 0.3644829
v 0.403306 0.3270999 0.3644829
v 0.3918036 0.3270999 -0.3874901
v 0.3918036 0.2580852 -0.3874901
v 0.3918036 0.2580852 -0.3874901
v 0.3918036 0.3270999 -0.3874901
v 0.2940327 0.3270999 -0.3846145
v 0.2940327 0.2580852 -0.3846145
v -0.4004281 0.3270999 -0.3731121
v -0.341478 0.3270999 -0.3745499
v -0.3069706 0.3270999 -0.2940327
v -0.3889257 0.3270999 0.3774232
v -0.296906 0.3270999 0.3759854
v -0.4004281 0.2580852 -0.3731121
v -0.4004281 0.3270999 -0.3731121
v -0.3889257 0.3270999 0.3774232
v -0.3889257 0.2580852 0.3774232
v -0.3889257 0.2580852 0.3774232
v -0.3889257 0.3270999 0.3774232
v -0.296906 0.3270999 0.3759854
v -0.296906 0.2580852 0.3759854
v -0.3084084 0.3112841 -0.3759877
v -0.3084084 0.2580852 -0.3759877
v -0.296906 0.2580852 0.3759854
v -0.296906 0.3270999 0.3759854
v -0.3069706 0.3270999 -0.2940327
v -0.4004281 0.2580852 -0.3731121
v -0.3084084 0.2580852 -0.3759877
v -0.3084084 0.3112841 -0.3759877
v -0.341478 0.3270999 -0.3745499
v -0.4004281 0.3270999 -0.3731121
v 0.3055351 0.2580852 0.3659207
v 0.403306 0.2580852 0.3644829
v 0.3918036 0.2580852 -0.3874901
v 0.2940327 0.2580852 -0.3846145
v -0.4004281 0.2580852 -0.3731121
v -0.3889257 0.2580852 0.3774232
v -0.296906 0.2580852 0.3759854
v -0.3084084 0.2580852 -0.3759877
v -0.0122202 0.1444984 0.4018658
v -0.0122202 0.2537718 0.3946768
v 0.03954083 0.2537718 0.393239
v 0.03954083 0.1444984 0.3989903
v -0.03810072 0.2753389 0.3817366
v -0.03810072 0.2753389 0.3515426
v 0.0654214 0.2753389 0.3501048
v 0.0654214 0.2753389 0.3802987
v -0.0122202 0.1444984 0.3774232
v -0.0122202 0.1444984 0.4018658
v 0.03954083 0.1444984 0.3989903
v 0.03954083 0.1444984 0.3759854
v 0.0654214 0.1718168 0.3802987
v 0.0654214 0.2753389 0.3802987
v 0.0654214 0.2753389 0.3501048
v 0.0654214 0.1718168 0.3501048
v -0.03810072 0.1718168 0.3515426
v -0.03810072 0.2753389 0.3515426
v -0.03810072 0.2753389 0.3817366
v -0.03810072 0.1718168 0.3817366
v -0.7167456 0.2278913 0.3630451
v -0.7239347 0.2422693 0.3687963
v 0.7354394 0.2422693 0.3457915
v 0.7282504 0.2278913 0.3400402
v -0.735437 0.2422693 -0.3544206
v -0.728248 0.2278913 -0.3501072
v 0.7167479 0.2278913 -0.3731121
v 0.723937 0.2422693 -0.3788633
v -0.735437 0.0007177591 -0.3544206
v -0.7239347 0.0007177591 0.3687963
v 0.7354394 0.0007177591 0.3457915
v 0.723937 0.0007177591 -0.3788633
v 0.7282504 0.2278913 0.3400402
v 0.7354394 0.2422693 0.3457915
v 0.723937 0.2422693 -0.3788633
v 0.7167479 0.2278913 -0.3731121
v -0.735437 0.0007177591 -0.3544206
v -0.735437 0.2120754 -0.3544206
v -0.7239347 0.2120754 0.3687963
v -0.7239347 0.0007177591 0.3687963
v 0.7354394 0.0007177591 0.3457915
v 0.7354394 0.04241413 0.3457915
v 0.7354394 0.1186179 0.3213487
v 0.723937 0.0007177591 -0.3788633
v 0.723937 0.2120754 -0.3788633
v 0.7354394 0.2120754 0.3457915
v 0.7354394 0.1660655 0.3457915
v -0.735437 0.2120754 -0.3544206
v -0.735437 0.0007177591 -0.3544206
v 0.723937 0.0007177591 -0.3788633
v 0.723937 0.2120754 -0.3788633
v -0.728248 0.2278913 -0.3501072
v -0.735437 0.2422693 -0.3544206
v -0.7239347 0.2422693 0.3687963
v -0.7167456 0.2278913 0.3630451
v -0.735437 0.2422693 -0.3544206
v 0.723937 0.2422693 -0.3788633
v 0.723937 0.2839657 -0.3788633
v 0.6189771 0.3069706 -0.3774255
v -0.735437 0.3069706 -0.3544206
v 0.723937 0.2839657 -0.3788633
v 0.723937 0.2422693 -0.3788633
v 0.7354394 0.2422693 0.3457915
v 0.7354394 0.3069706 0.3457915
v 0.723937 0.3069706 -0.3285401
v 0.0654214 0.1718168 0.3802987
v 0.03954083 0.1718168 0.3802987
v 0.03954083 0.2580852 0.3802987
v 0.0654214 0.2753389 0.3802987
v -0.0122202 0.2580852 0.3817366
v -0.03810072 0.2753389 0.3817366
v -0.0122202 0.1718168 0.3817366
v -0.03810072 0.1718168 0.3817366
v 0.0654214 0.1718168 0.3501048
v 0.03954083 0.1718168 0.3802987
v 0.0654214 0.1718168 0.3802987
v 0.03954083 0.1718168 0.3616073
v -0.03810072 0.1718168 0.3515426
v -0.0122202 0.1718168 0.3630451
v -0.03810072 0.1718168 0.3817366
v -0.0122202 0.1718168 0.3817366
v 0.03954083 0.1718168 0.3802987
v 0.03954083 0.2537718 0.393239
v 0.03954083 0.2580852 0.3802987
v 0.03954083 0.1444984 0.3989903
v 0.03954083 0.1718168 0.3616073
v 0.03954083 0.1444984 0.3759854
v 0.03954083 0.2580852 0.3802987
v 0.03954083 0.2537718 0.393239
v -0.0122202 0.2537718 0.3946768
v -0.0122202 0.2580852 0.3817366
v -0.0122202 0.2580852 0.3817366
v -0.0122202 0.2537718 0.3946768
v -0.0122202 0.1444984 0.4018658
v -0.0122202 0.1718168 0.3817366
v -0.0122202 0.1444984 0.3774232
v -0.0122202 0.1718168 0.3630451
v -0.0122202 0.1718168 0.3630451
v -0.0122202 0.1444984 0.3774232
v 0.03954083 0.1444984 0.3759854
v 0.03954083 0.1718168 0.3616073
v 0.7354394 0.2120754 0.3457915
v 0.7282504 0.2278913 0.3400402
v 0.7167479 0.2278913 -0.3731121
v 0.723937 0.2120754 -0.3788633
v -0.728248 0.2278913 -0.3501072
v -0.735437 0.2120754 -0.3544206
v 0.723937 0.2120754 -0.3788633
v 0.7167479 0.2278913 -0.3731121
v -0.735437 0.2120754 -0.3544206
v -0.728248 0.2278913 -0.3501072
v -0.7167456 0.2278913 0.3630451
v -0.7239347 0.2120754 0.3687963
v -0.7239347 0.2120754 0.3687963
v -0.7167456 0.2278913 0.3630451
v 0.7282504 0.2278913 0.3400402
v 0.7354394 0.2120754 0.3457915
v -0.7239347 0.2422693 0.3687963
v -0.7239347 0.2810901 0.3687963
v -0.6491687 0.3069706 0.3673586
v -0.009344578 0.3069706 0.3572938
v 0.1646301 0.2810901 0.3544183
v 0.7354394 0.2422693 0.3457915
v 0.7354394 0.3069706 0.3457915
v 0.2940327 0.3069706 0.3529805
v 0.7354394 0.3069706 0.3457915
v 0.2940327 0.3069706 0.3529805
v 0.1675057 0.3069706 0.2638364
v 0.723937 0.3069706 -0.3285401
v 0.6189771 0.3069706 -0.3774255
v -0.735437 0.3069706 -0.3544206
v -0.7253724 0.3069706 0.2393937
v -0.6491687 0.3069706 0.3673586
v -0.009344578 0.3069706 0.3572938
v -0.7239347 0.2810901 0.3687963
v -0.7239347 0.2422693 0.3687963
v -0.735437 0.2422693 -0.3544206
v -0.735437 0.3069706 -0.3544206
v -0.7253724 0.3069706 0.2393937
v -0.7239347 0.0007177591 0.3687963
v 0.7354394 0.04241413 0.3457915
v 0.7354394 0.0007177591 0.3457915
v 0.7052455 0.1071154 0.3457915
v -0.7239347 0.2120754 0.3687963
v 0.7354394 0.1660655 0.3457915
v 0.7354394 0.2120754 0.3457915
vt 0.1224694 0.1790633
vt 0.1224694 0.1790633
vt 0.1224694 0.1790633
vt 0.1231596 0.157668
vt 0.1231596 0.157668
vt 0.1231596 0.157668
vt 0.1224694 0.1790633
vt 0.1224694 0.1790633
vt 0.1224694 0.1790633
vt 0.1224694 0.1790633
vt 0.1224694 0.1790633
vt 0.1224694 0.1790633
vt 0.1224694 0.1790633
vt 0.1224694 0.1790633
vt 0.1224694 0.1790633
vt 0.1224694 0.1790633
vt 0.1224694 0.1790633
vt 0.1224694 0.1790633
vt 0.1224694 0.1790633
vt 0.1224694 0.1790633
vt 0.1224694 0.1790633
vt 0.1231596 0.157668
vt 0.1231596 0.157668
vt 0.1231596 0.157668
vt 0.1231596 0.157668
vt 0.1231596 0.157668
vt 0.1231596 0.157668
vt 0.1231596 0.157668
vt 0.1231596 0.157668
vt 0.1231596 0.157668
vt 0.1231596 0.157668
vt 0.1231596 0.157668
vt 0.1231596 0.157668
vt 0.1231596 0.157668
vt 0.1231596 0.157668
vt 0.1231596 0.157668
vt 0.1231596 0.157668
vt 0.1231596 0.157668
vt 0.1231596 0.157668
vt 0.1231596 0.157668
vt 0.1231596 0.157668
vt 0.1231596 0.157668
vt 0.1231596 0.157668
vt 0.1231596 0.157668
vt 0.1231596 0.157668
vt 0.1231596 0.157668
vt 0.1231596 0.157668
vt 0.1231596 0.157668
vt 0.1231596 0.157668
vt 0.1231596 0.157668
vt 0.1231596 0.157668
vt 0.1231596 0.157668
vt 0.1231596 0.157668
vt 0.1231596 0.157668
vt 0.1231596 0.157668
vt 0.1231596 0.157668
vt 0.1231596 0.157668
vt 0.1231596 0.157668
vt 0.1231596 0.157668
vt 0.1231596 0.157668
vt 0.1231596 0.157668
vt 0.1231596 0.157668
vt 0.1231596 0.157668
vt 0.1231596 0.157668
vt 0.1231596 0.157668
vt 0.1231596 0.157668
vt 0.1231596 0.157668
vt 0.1231596 0.157668
vt 0.1231596 0.157668
vt 0.1231596 0.157668
vt 0.1231596 0.157668
vt 0.1231596 0.157668
vt 0.1010742 0.2770672
vt 0.1010742 0.2770672
vt 0.1010742 0.2770672
vt 0.1010742 0.2770672
vt 0.1017644 0.2280652
vt 0.1017644 0.2280652
vt 0.1017644 0.2280652
vt 0.1017644 0.2280652
vt 0.1010742 0.2770672
vt 0.1010742 0.2770672
vt 0.1010742 0.2770672
vt 0.1010742 0.2770672
vt 0.1017644 0.2280652
vt 0.1017644 0.2280652
vt 0.1017644 0.2280652
vt 0.1017644 0.2280652
vt 0.1017644 0.2280652
vt 0.1017644 0.2280652
vt 0.1017644 0.2280652
vt 0.1017644 0.2280652
vt 0.1231596 0.157668
vt 0.1231596 0.157668
vt 0.1231596 0.157668
vt 0.1231596 0.157668
vt 0.1231596 0.157668
vt 0.1231596 0.157668
vt 0.1231596 0.157668
vt 0.1231596 0.157668
vt 0.1224694 0.1631894
vt 0.1224694 0.1631894
vt 0.1224694 0.1631894
vt 0.1224694 0.1631894
vt 0.1231596 0.157668
vt 0.1231596 0.157668
vt 0.1231596 0.157668
vt 0.1231596 0.157668
vt 0.1224694 0.1631894
vt 0.1224694 0.1790633
vt 0.1224694 0.1790633
vt 0.1224694 0.1631894
vt 0.1224694 0.1631894
vt 0.1224694 0.1790633
vt 0.1224694 0.1790633
vt 0.1224694 0.1631894
vt 0.1224694 0.1790633
vt 0.1224694 0.1790633
vt 0.1224694 0.1790633
vt 0.1224694 0.1790633
vt 0.1224694 0.1631894
vt 0.1224694 0.1631894
vt 0.1224694 0.1790633
vt 0.1231596 0.157668
vt 0.1231596 0.157668
vt 0.1231596 0.157668
vt 0.1231596 0.157668
vt 0.1224694 0.1790633
vt 0.1224694 0.1790633
vt 0.1224694 0.1790633
vt 0.1224694 0.1790633
vt 0.1224694 0.1790633
vt 0.1224694 0.1790633
vt 0.1224694 0.1790633
vt 0.1224694 0.1790633
vt 0.1224694 0.1790633
vt 0.1224694 0.1790633
vt 0.1017644 0.2280652
vt 0.1017644 0.2280652
vt 0.1017644 0.2280652
vt 0.1017644 0.2280652
vt 0.1017644 0.2280652
vt 0.1017644 0.2280652
vt 0.1017644 0.2280652
vt 0.1017644 0.2280652
vt 0.1017644 0.2280652
vt 0.1017644 0.2280652
vt 0.1017644 0.2280652
vt 0.1017644 0.2280652
vt 0.1017644 0.2280652
vt 0.1017644 0.2280652
vt 0.1017644 0.2280652
vt 0.1017644 0.2280652
vt 0.1010742 0.2770672
vt 0.1010742 0.2770672
vt 0.1010742 0.2770672
vt 0.1010742 0.2770672
vt 0.1010742 0.2770672
vt 0.1010742 0.2770672
vt 0.1010742 0.2770672
vt 0.1010742 0.2770672
vt 0.1010742 0.2770672
vt 0.1010742 0.2770672
vt 0.1010742 0.2770672
vt 0.1010742 0.2770672
vt 0.1010742 0.2770672
vt 0.1010742 0.2770672
vt 0.1010742 0.2770672
vt 0.1010742 0.2770672
vt 0.1010742 0.2770672
vt 0.1010742 0.2770672
vt 0.1010742 0.2770672
vt 0.1010742 0.2770672
vt 0.1231596 0.157668
vt 0.1231596 0.157668
vt 0.1231596 0.157668
vt 0.1231596 0.157668
vt 0.1231596 0.157668
vt 0.1231596 0.157668
vt 0.1231596 0.157668
vt 0.1231596 0.157668
vt 0.1231596 0.157668
vt 0.1231596 0.157668
vt 0.1231596 0.157668
vt 0.1231596 0.157668
vt 0.1231596 0.157668
vt 0.1231596 0.157668
vt 0.1231596 0.157668
vt 0.1231596 0.157668
vt 0.1224694 0.1790633
vt 0.1224694 0.1790633
vt 0.1224694 0.1790633
vt 0.1224694 0.1790633
vt 0.1224694 0.1790633
vt 0.1224694 0.1790633
vt 0.1224694 0.1790633
vt 0.1224694 0.1790633
vt 0.1224694 0.1790633
vt 0.1224694 0.1790633
vt 0.1224694 0.1790633
vt 0.1224694 0.1790633
vt 0.1224694 0.1790633
vt 0.1224694 0.1790633
vt 0.1224694 0.1790633
vt 0.1224694 0.1790633
vt 0.1224694 0.1790633
vt 0.1224694 0.1790633
vt 0.1224694 0.1790633
vt 0.1224694 0.1790633
vt 0.1224694 0.1790633
vt 0.1224694 0.1790633
vt 0.1224694 0.1631894
vt 0.1224694 0.1790633
vt 0.1224694 0.1631894
vt 0.1224694 0.1790633
vt 0.1224694 0.1790633
vt 0.1224694 0.1790633
vt 0.1224694 0.1790633
vn -0.3332913 0.9363899 0.1099582
vn -0.3332913 0.9363899 0.1099582
vn -0.3332913 0.9363899 0.1099582
vn 0.3967754 0.9046479 -0.1555036
vn 0.3967754 0.9046479 -0.1555036
vn 0.3967754 0.9046479 -0.1555036
vn -0.1745812 0.9363899 0.304459
vn -0.1745812 0.9363899 0.304459
vn -0.1745812 0.9363899 0.304459
vn 0.1428391 0.9363899 0.320579
vn 0.1428391 0.9363899 0.320579
vn 0.1428391 0.9363899 0.320579
vn 0.1745812 0.9046479 -0.3887589
vn 0.1745812 0.9046479 -0.3887589
vn 0.1745812 0.9046479 -0.3887589
vn 0.5554855 0.2380652 0.7967187
vn 0.5554855 0.2380652 0.7967187
vn 0.5554855 0.2380652 0.7967187
vn 0.6507117 -0.3332914 0.6822692
vn 0.6507117 -0.3332914 0.6822692
vn 0.6507117 -0.3332914 0.6822692
vn -0.01587105 0.999874 -0.000345267
vn -0.01587105 0.999874 -0.000345267
vn -0.01587105 0.999874 -0.000345267
vn -0.01587105 0.999874 -0.000345267
vn -0.999874 0.01587105 -0.0003439156
vn -0.999874 0.01587105 -0.0003439156
vn -0.999874 0.01587105 -0.0003439156
vn -0.999874 0.01587105 -0.0003439156
vn 0.01587099 0.01587105 0.9997481
vn 0.01587099 0.01587105 0.9997481
vn 0.01587099 0.01587105 0.9997481
vn 0.01587099 0.01587105 0.9997481
vn 0.999874 0.01587105 -0.0003439156
vn 0.999874 0.01587105 -0.0003439156
vn 0.999874 0.01587105 -0.0003439156
vn 0.999874 0.01587105 -0.0003439156
vn -0.01587105 0.01587105 -0.9997481
vn -0.01587105 0.01587105 -0.9997481
vn -0.01587105 0.01587105 -0.9997481
vn -0.01587105 0.01587105 -0.9997481
vn -0.01587105 0.999874 -0.000345267
vn -0.01587105 0.999874 -0.000345267
vn -0.01587105 0.999874 -0.000345267
vn -0.01587105 0.999874 -0.000345267
vn -0.01587105 0.999874 -0.000345267
vn -0.999874 0.01587105 -0.0003439156
vn -0.999874 0.01587105 -0.0003439156
vn -0.999874 0.01587105 -0.0003439156
vn -0.999874 0.01587105 -0.0003439156
vn 0.01587099 0.01587105 0.9997481
vn 0.01587099 0.01587105 0.9997481
vn 0.01587099 0.01587105 0.9997481
vn 0.01587099 0.01587105 0.9997481
vn 0.999874 0.01587105 -0.0003439156
vn 0.999874 0.01587105 -0.0003439156
vn 0.999874 0.01587105 -0.0003439156
vn 0.999874 0.01587105 -0.0003439156
vn 0.999874 0.01587105 -0.0003439156
vn -0.01587105 -0.01587099 -0.9997481
vn -0.01587105 0.01587105 -0.9997481
vn -0.01587105 -0.01587099 -0.9997481
vn -0.01587105 -0.01587099 -0.9997481
vn -0.01587105 0.01587105 -0.9997481
vn -0.01587105 -0.999874 -0.000345267
vn -0.01587105 -0.999874 -0.000345267
vn -0.01587105 -0.999874 -0.000345267
vn -0.01587105 -0.999874 -0.000345267
vn -0.01587105 -0.999874 -0.000345267
vn -0.01587105 -0.999874 -0.000345267
vn -0.01587105 -0.999874 -0.000345267
vn -0.01587105 -0.999874 -0.000345267
vn 0.04761302 0.04761302 0.9977304
vn 0.04761302 0.04761302 0.9977304
vn 0.04761302 0.04761302 0.9977304
vn 0.04761302 0.04761302 0.9977304
vn -0.01587105 0.999874 -0.000345267
vn -0.01587105 0.999874 -0.000345267
vn -0.01587105 0.999874 -0.000345267
vn -0.01587105 0.999874 -0.000345267
vn -0.01587105 -0.999874 -0.000345267
vn -0.01587105 -0.999874 -0.000345267
vn -0.01587105 -0.999874 -0.000345267
vn -0.01587105 -0.999874 -0.000345267
vn 0.999874 0.01587105 -0.0003439156
vn 0.999874 0.01587105 -0.0003439156
vn 0.999874 0.01587105 -0.0003439156
vn 0.999874 0.01587105 -0.0003439156
vn -0.999874 0.01587105 -0.0003439156
vn -0.999874 0.01587105 -0.0003439156
vn -0.999874 0.01587105 -0.0003439156
vn -0.999874 0.01587105 -0.0003439156
vn 0.01587099 -0.3332914 0.9426903
vn 0.01587099 -0.3332914 0.9426903
vn 0.01587099 -0.3332914 0.9426903
vn 0.01587099 -0.3332914 0.9426903
vn -0.01587105 -0.3332914 -0.9426903
vn -0.01587105 -0.3332914 -0.9426903
vn -0.01587105 -0.3332914 -0.9426903
vn -0.01587105 -0.3332914 -0.9426903
vn -0.01587105 -0.999874 -0.000345267
vn -0.01587105 -0.999874 -0.000345267
vn -0.01587105 -0.999874 -0.000345267
vn -0.01587105 -0.999874 -0.000345267
vn 0.8729059 -0.4602594 -0.1618537
vn 0.8729059 -0.4602594 -0.1618537
vn 0.8729059 -0.4602594 -0.1618537
vn 0.8729059 -0.4602594 -0.1618537
vn -0.999874 0.01587105 -0.0003439156
vn -0.999874 0.01587105 -0.0003439156
vn -0.999874 0.01587105 -0.0003439156
vn -0.999874 0.01587105 -0.0003439156
vn 0.999874 0.01587105 -0.0003439156
vn 0.999874 0.01587105 -0.0003439156
vn 0.999874 0.01587105 -0.0003439156
vn 0.999874 0.01587105 -0.0003439156
vn 0.999874 0.01587105 -0.0003439156
vn 0.999874 0.01587105 -0.0003439156
vn 0.999874 0.01587105 -0.0003439156
vn -0.01587105 0.01587105 -0.9997481
vn -0.01587105 0.01587105 -0.9997481
vn -0.01587105 0.01587105 -0.9997481
vn -0.01587105 0.01587105 -0.9997481
vn -0.8729059 -0.4602594 0.1618537
vn -0.8729059 -0.4602594 0.1618537
vn -0.8729059 -0.4602594 0.1618537
vn -0.8729059 -0.4602594 0.1618537
vn -0.01587105 0.01587105 -0.9997481
vn -0.01587105 0.01587105 -0.9997481
vn -0.01587105 0.01587105 -0.9997481
vn -0.01587105 0.01587105 -0.9997481
vn -0.01587105 0.01587105 -0.9997481
vn 0.999874 -0.01587099 -0.000346655
vn 0.999874 0.01587105 -0.0003439156
vn 0.999874 0.01587105 -0.0003439156
vn 0.999874 -0.01587099 -0.000346655
vn 0.999874 -0.01587099 -0.000346655
vn -0.01587105 0.01587105 0.9997481
vn -0.01587105 0.01587105 0.9997481
vn 0.01587099 -0.01587099 0.9997481
vn 0.01587099 -0.01587099 0.9997481
vn 0.01587099 -0.01587099 0.9997481
vn 0.01587099 -0.01587099 0.9997481
vn -0.01587105 0.01587105 0.9997481
vn -0.01587105 0.01587105 0.9997481
vn -0.01587105 -0.999874 -0.000345267
vn -0.01587105 -0.999874 -0.000345267
vn -0.01587105 -0.999874 -0.000345267
vn -0.01587105 -0.999874 -0.000345267
vn -0.01587105 -0.999874 -0.000345267
vn -0.01587105 -0.999874 -0.000345267
vn -0.01587105 -0.999874 -0.000345267
vn -0.01587105 -0.999874 -0.000345267
vn 0.999874 -0.01587099 -0.000346655
vn 0.999874 -0.01587099 -0.000346655
vn 0.999874 -0.01587099 -0.000346655
vn 0.999874 -0.01587099 -0.000346655
vn 0.999874 -0.01587099 -0.000346655
vn 0.999874 -0.01587099 -0.000346655
vn 0.01587099 0.9363899 0.3506023
vn 0.01587099 0.9363899 0.3506023
vn 0.01587099 0.9363899 0.3506023
vn 0.01587099 0.9363899 0.3506023
vn -0.999874 0.01587105 -0.0003439156
vn -0.999874 0.01587105 -0.0003439156
vn -0.999874 0.01587105 -0.0003439156
vn -0.999874 0.01587105 -0.0003439156
vn -0.999874 0.01587105 -0.0003439156
vn -0.999874 0.01587105 -0.0003439156
vn -0.01587105 -0.4602594 -0.8876426
vn -0.01587105 -0.4602594 -0.8876426
vn -0.01587105 -0.4602594 -0.8876426
vn -0.01587105 -0.4602594 -0.8876426
vn 0.9037378 0.4280864 0
vn 0.9037378 0.4280864 0
vn 0.9037378 0.4280864 0
vn 0.9037378 0.4280864 0
vn -0.01587105 0.3015493 -0.9533185
vn -0.01587105 0.3015493 -0.9533185
vn -0.01587105 0.3015493 -0.9533185
vn -0.01587105 0.3015493 -0.9533185
vn -0.9037378 0.4280863 0
vn -0.9037378 0.4280863 0
vn -0.9037378 0.4280863 0
vn -0.9037378 0.4280863 0
vn 0.01587099 0.3015493 0.9533185
vn 0.01587099 0.3015493 0.9533185
vn 0.01587099 0.3015493 0.9533185
vn 0.01587099 0.3015493 0.9533185
vn 0.01587099 -0.01587099 0.9997481
vn 0.01587099 0.01587105 0.9997481
vn 0.01587099 -0.01587099 0.9997481
vn 0.01587099 -0.01587099 0.9997481
vn 0.01587099 -0.01587099 0.9997481
vn 0.01587099 -0.01587099 0.9997481
vn 0.01587099 0.01587105 0.9997481
vn 0.01587099 0.01587105 0.9997481
vn -0.01587105 0.999874 -0.000345267
vn -0.01587105 0.999874 -0.000345267
vn -0.01587105 0.999874 -0.000345267
vn -0.01587105 0.999874 -0.000345267
vn -0.01587105 0.999874 -0.000345267
vn -0.01587105 0.999874 -0.000345267
vn -0.01587105 0.999874 -0.000345267
vn -0.01587105 0.999874 -0.000345267
vn -0.01587105 0.999874 -0.000345267
vn -0.999874 0.01587105 -0.0003439156
vn -0.999874 0.01587105 -0.0003439156
vn -0.999874 0.01587105 -0.0003439156
vn -0.999874 0.01587105 -0.0003439156
vn -0.999874 0.01587105 -0.0003439156
vn 0.01587099 0.01587105 0.9997481
vn 0.01587099 0.01587105 0.9997481
vn 0.01587099 0.01587105 0.9997481
vn 0.01587099 0.01587105 0.9997481
vn 0.01587099 -0.01587099 0.9997481
vn 0.01587099 -0.01587099 0.9997481
vn 0.01587099 -0.01587099 0.9997481
g SM_Prop_Crate_02_0
f 3/3/3 2/2/2 1/1/1
f 6/6/6 5/5/5 4/4/4
f 9/9/9 8/8/8 7/7/7
f 12/12/12 11/11/11 10/10/10
f 15/15/15 14/14/14 13/13/13
f 18/18/18 17/17/17 16/16/16
f 21/21/21 20/20/20 19/19/19
f 24/24/24 23/23/23 22/22/22
f 25/25/25 24/24/24 22/22/22
f 28/28/28 27/27/27 26/26/26
f 29/29/29 28/28/28 26/26/26
f 32/32/32 31/31/31 30/30/30
f 33/33/33 32/32/32 30/30/30
f 36/36/36 35/35/35 34/34/34
f 37/37/37 36/36/36 34/34/34
f 40/40/40 39/39/39 38/38/38
f 41/41/41 40/40/40 38/38/38
f 44/44/44 43/43/43 42/42/42
f 42/42/42 45/45/45 44/44/44
f 45/45/45 46/46/46 44/44/44
f 49/49/49 48/48/48 47/47/47
f 50/50/50 49/49/49 47/47/47
f 53/53/53 52/52/52 51/51/51
f 54/54/54 53/53/53 51/51/51
f 57/57/57 56/56/56 55/55/55
f 55/55/55 58/58/58 57/57/57
f 55/55/55 59/59/59 58/58/58
f 62/62/62 61/61/61 60/60/60
f 60/60/60 63/63/63 62/62/62
f 60/60/60 64/64/64 63/63/63
f 67/67/67 66/66/66 65/65/65
f 68/68/68 67/67/67 65/65/65
f 71/71/71 70/70/70 69/69/69
f 72/72/72 71/71/71 69/69/69
f 75/75/75 74/74/74 73/73/73
f 76/76/76 75/75/75 73/73/73
f 79/79/79 78/78/78 77/77/77
f 80/80/80 79/79/79 77/77/77
f 83/83/83 82/82/82 81/81/81
f 84/84/84 83/83/83 81/81/81
f 87/87/87 86/86/86 85/85/85
f 88/88/88 87/87/87 85/85/85
f 91/91/91 90/90/90 89/89/89
f 92/92/92 91/91/91 89/89/89
f 95/95/95 94/94/94 93/93/93
f 96/96/96 95/95/95 93/93/93
f 99/99/99 98/98/98 97/97/97
f 100/100/100 99/99/99 97/97/97
f 103/103/103 102/102/102 101/101/101
f 104/104/104 103/103/103 101/101/101
f 107/107/107 106/106/106 105/105/105
f 108/108/108 107/107/107 105/105/105
f 111/111/111 110/110/110 109/109/109
f 112/112/112 111/111/111 109/109/109
f 115/115/115 114/114/114 113/113/113
f 116/116/116 115/115/115 113/113/113
f 116/116/116 117/117/117 115/115/115
f 117/117/117 118/118/118 115/115/115
f 118/118/118 119/119/119 115/115/115
f 122/122/122 121/121/121 120/120/120
f 123/123/123 122/122/122 120/120/120
f 126/126/126 125/125/125 124/124/124
f 127/127/127 126/126/126 124/124/124
f 130/130/130 129/129/129 128/128/128
f 128/128/128 131/131/131 130/130/130
f 128/128/128 132/132/132 131/131/131
f 135/135/135 134/134/134 133/133/133
f 133/133/133 136/136/136 135/135/135
f 133/133/133 137/137/137 136/136/136
f 140/140/140 139/139/139 138/138/138
f 141/141/141 140/140/140 138/138/138
f 142/142/142 140/140/140 141/141/141
f 143/143/143 142/142/142 141/141/141
f 144/144/144 142/142/142 143/143/143
f 145/145/145 144/144/144 143/143/143
f 148/148/148 147/147/147 146/146/146
f 147/147/147 149/149/149 146/146/146
f 146/146/146 149/149/149 150/150/150
f 149/149/149 151/151/151 150/150/150
f 150/150/150 151/151/151 152/152/152
f 151/151/151 153/153/153 152/152/152
f 156/156/156 155/155/155 154/154/154
f 155/155/155 157/157/157 154/154/154
f 154/154/154 157/157/157 158/158/158
f 157/157/157 159/159/159 158/158/158
f 162/162/162 161/161/161 160/160/160
f 163/163/163 162/162/162 160/160/160
f 166/166/166 165/165/165 164/164/164
f 167/167/167 166/166/166 164/164/164
f 168/168/168 166/166/166 167/167/167
f 169/169/169 168/168/168 167/167/167
f 172/172/172 171/171/171 170/170/170
f 173/173/173 172/172/172 170/170/170
f 176/176/176 175/175/175 174/174/174
f 177/177/177 176/176/176 174/174/174
f 180/180/180 179/179/179 178/178/178
f 181/181/181 180/180/180 178/178/178
f 184/184/184 183/183/183 182/182/182
f 185/185/185 184/184/184 182/182/182
f 188/188/188 187/187/187 186/186/186
f 189/189/189 188/188/188 186/186/186
f 192/192/192 191/191/191 190/190/190
f 193/193/193 192/192/192 190/190/190
f 190/190/190 194/194/194 193/193/193
f 195/195/195 194/194/194 190/190/190
f 195/195/195 196/196/196 194/194/194
f 196/196/196 197/197/197 194/194/194
f 200/200/200 199/199/199 198/198/198
f 200/200/200 198/198/198 201/201/201
f 201/201/201 202/202/202 200/200/200
f 202/202/202 203/203/203 200/200/200
f 200/200/200 203/203/203 204/204/204
f 204/204/204 205/205/205 200/200/200
f 205/205/205 206/206/206 200/200/200
f 209/209/209 208/208/208 207/207/207
f 207/207/207 210/210/210 209/209/209
f 207/207/207 211/211/211 210/210/210
f 214/214/214 213/213/213 212/212/212
f 213/213/213 215/215/215 212/212/212
f 215/215/215 216/216/216 212/212/212
f 215/215/215 217/217/217 216/216/216
f 217/217/217 218/218/218 216/216/216
