g SM_Prop_Crate_Open_Lid_05
v 0.6862113 0.09420639 0.6845967
v 0.729729 0.06519455 0.736818
v 0.5411522 0.09420639 0.736818
v 0.729729 0.06519455 0.736818
v 0.6862113 0.09420639 0.6845967
v 0.729729 0.09420639 0.6193201
v -0.729565 0.06519455 0.2233089
v -0.729565 0.09420639 0.08405226
v -0.6468814 0.09420639 0.216056
v -0.729565 0.09420639 0.3843245
v -0.729565 0.06519455 0.2233089
v -0.6468814 0.09420639 0.216056
v 0.2989036 0.1130641 -0.005884349
v 0.3975438 0.1130641 -0.005884349
v 0.3975438 0.1130641 0.7542251
v 0.2989036 0.1130641 0.7542251
v 0.2989036 0.05213928 -0.005884349
v 0.2989036 0.1130641 -0.005884349
v 0.2989036 0.1130641 0.7542251
v 0.2989036 0.05213928 0.7542251
v 0.2989036 0.05213928 0.7542251
v 0.2989036 0.1130641 0.7542251
v 0.3975438 0.1130641 0.7542251
v 0.3975438 0.05213928 0.7542251
v 0.3975438 0.05213928 0.7542251
v 0.3975438 0.1130641 0.7542251
v 0.3975438 0.1130641 -0.005884349
v 0.3975438 0.05213928 -0.005884349
v 0.3975438 0.05213928 -0.005884349
v 0.3975438 0.1130641 -0.005884349
v 0.2989036 0.1130641 -0.005884349
v 0.2989036 0.05213928 -0.005884349
v 0.2989036 0.05213928 0.7542251
v 0.3975438 0.05213928 0.7542251
v 0.3975438 0.05213928 -0.005884349
v 0.2989036 0.05213928 -0.005884349
v -0.3944786 0.1130641 -0.005884349
v -0.3016408 0.1130641 -0.005884349
v -0.3016408 0.1130641 0.7542251
v -0.3944786 0.1130641 0.7542251
v -0.3944786 0.05213928 -0.005884349
v -0.3944786 0.1130641 -0.005884349
v -0.3944786 0.1130641 0.7542251
v -0.3944786 0.05213928 0.7542251
v -0.3944786 0.05213928 0.7542251
v -0.3944786 0.1130641 0.7542251
v -0.3016408 0.1130641 0.7542251
v -0.3016408 0.05213928 0.7542251
v -0.3016408 0.05213928 0.7542251
v -0.3016408 0.1130641 0.7542251
v -0.3016408 0.1130641 -0.005884349
v -0.3016408 0.05213928 -0.005884349
v -0.3016408 0.05213928 -0.005884349
v -0.3016408 0.1130641 -0.005884349
v -0.3944786 0.1130641 -0.005884349
v -0.3944786 0.05213928 -0.005884349
v -0.3944786 0.05213928 -0.005884349
v -0.3944786 0.05213928 0.7542251
v -0.3016408 0.05213928 0.7542251
v -0.3016408 0.05213928 -0.005884349
v -0.4786128 0.03618276 0.02167684
v -0.4786128 0.03618276 -0.01458788
v 0.4802274 0.03618276 -0.01458788
v 0.4802274 0.03618276 0.02167684
v -0.4786128 -0.002983153 -0.01458788
v -0.4786128 0.03618276 -0.01458788
v -0.4786128 0.03618276 0.02167684
v -0.4786128 -0.002983153 0.02167684
v -0.4786128 0.03618276 -0.01458788
v -0.4786128 -0.002983153 -0.01458788
v 0.4802274 -0.002983153 -0.01458788
v 0.4802274 0.03618276 -0.01458788
v 0.4802274 -0.002983153 0.02167684
v 0.4802274 0.03618276 0.02167684
v 0.4802274 0.03618276 -0.01458788
v 0.4802274 -0.002983153 -0.01458788
v 0.4802274 -0.002983153 -0.01458788
v -0.4786128 -0.002983153 -0.01458788
v -0.4786128 -0.002983153 0.02167684
v 0.4802274 -0.002983153 0.02167684
v 0.4802274 -0.002983153 0.02167684
v -0.4786128 -0.002983153 0.02167684
v -0.4786128 0.03618276 0.02167684
v 0.4802274 0.03618276 0.02167684
v 0.5411522 0.09420639 0.736818
v 0.729729 0.06519455 0.736818
v 0.729729 0.01587451 0.736818
v -0.729565 0.01587451 0.736818
v -0.729565 0.09420639 0.736818
v -0.729565 0.09420639 0.01297331
v -0.729565 0.01587451 0.01297331
v 0.729729 0.01587451 0.01297331
v 0.729729 0.09420639 0.01297331
v 0.729729 0.09420639 0.01297331
v 0.729729 0.01587451 0.01297331
v 0.729729 0.01587451 0.736818
v 0.729729 0.06519455 0.736818
v 0.729729 0.09420639 0.6193201
v -0.2378148 0.09420639 0.2769808
v -0.1507794 0.09420639 0.2450678
v 0.21622 0.09420639 0.2450678
v 0.21622 0.09420639 0.3088937
v -0.1507794 0.09420639 0.3088937
v -0.2378148 0.09420639 0.4713599
v -0.1507794 0.09420639 0.4394469
v 0.21622 0.09420639 0.4394469
v 0.21622 0.09420639 0.5047235
v -0.1507794 0.09420639 0.5047235
v -0.2378148 0.09420639 0.3770716
v -0.1507794 0.09420639 0.343708
v 0.21622 0.09420639 0.343708
v 0.21622 0.09420639 0.4089845
v -0.1507794 0.09420639 0.4089845
v 0.7224761 -8.201599E-05 0.7310156
v 0.729729 0.01587451 0.736818
v 0.729729 0.01587451 0.01297331
v 0.7224761 -8.201599E-05 0.0187757
v -0.729565 0.01587451 0.01297331
v -0.722312 -8.201599E-05 0.0187757
v 0.7224761 -8.201599E-05 0.0187757
v 0.729729 0.01587451 0.01297331
v -0.722312 -8.201599E-05 0.0187757
v -0.729565 0.01587451 0.01297331
v -0.729565 0.01587451 0.736818
v -0.722312 -8.201599E-05 0.7310156
v -0.722312 -8.201599E-05 0.7310156
v -0.729565 0.01587451 0.736818
v 0.729729 0.01587451 0.736818
v 0.7224761 -8.201599E-05 0.7310156
v -0.729565 0.06519455 0.2233089
v -0.729565 0.09420639 0.3843245
v -0.729565 0.09420639 0.736818
v -0.729565 0.01587451 0.736818
v -0.729565 0.01587451 0.01297331
v -0.729565 0.09420639 0.08405226
v -0.729565 0.09420639 0.01297331
v 0.7224761 -8.201599E-05 0.7310156
v 0.7224761 -8.201599E-05 0.0187757
v -0.722312 -8.201599E-05 0.0187757
v -0.722312 -8.201599E-05 0.7310156
v 0.21622 0.09420639 0.4089845
v -0.1507794 0.09420639 0.4394469
v -0.1507794 0.09420639 0.4089845
v -0.2378148 0.09420639 0.3770716
v 0.21622 0.09420639 0.4394469
v -0.2378148 0.09420639 0.4713599
v 0.6862113 0.09420639 0.6845967
v 0.21622 0.09420639 0.5047235
v 0.729729 0.09420639 0.6193201
v 0.5411522 0.09420639 0.736818
v 0.729729 0.09420639 0.01297331
v -0.729565 0.09420639 0.736818
v -0.1507794 0.09420639 0.5047235
v -0.729565 0.09420639 0.3843245
v -0.6468814 0.09420639 0.216056
v 0.21622 0.09420639 0.343708
v -0.2378148 0.09420639 0.2769808
v -0.729565 0.09420639 0.08405226
v -0.729565 0.09420639 0.01297331
v -0.1507794 0.09420639 0.343708
v -0.1507794 0.09420639 0.2450678
v -0.1507794 0.09420639 0.3088937
v 0.21622 0.09420639 0.2450678
v 0.21622 0.09420639 0.3088937
vt 0.1232743 0.1830441
vt 0.1232743 0.1830441
vt 0.1232743 0.1830441
vt 0.1232743 0.1830441
vt 0.1232743 0.1830441
vt 0.1232743 0.1830441
vt 0.1232743 0.1632855
vt 0.1232743 0.1830441
vt 0.1232743 0.1682252
vt 0.1232743 0.1667432
vt 0.1232743 0.1632855
vt 0.1232743 0.1682252
vt 0.1232743 0.1598277
vt 0.1232743 0.1598277
vt 0.1232743 0.1598277
vt 0.1232743 0.1598277
vt 0.1232743 0.1598277
vt 0.1232743 0.1598277
vt 0.1232743 0.1598277
vt 0.1232743 0.1598277
vt 0.1232743 0.1598277
vt 0.1232743 0.1598277
vt 0.1232743 0.1598277
vt 0.1232743 0.1598277
vt 0.1232743 0.1598277
vt 0.1232743 0.1598277
vt 0.1232743 0.1598277
vt 0.1232743 0.1598277
vt 0.1232743 0.1598277
vt 0.1232743 0.1598277
vt 0.1232743 0.1598277
vt 0.1232743 0.1598277
vt 0.1232743 0.1598277
vt 0.1232743 0.1598277
vt 0.1232743 0.1598277
vt 0.1232743 0.1598277
vt 0.1232743 0.1598277
vt 0.1232743 0.1598277
vt 0.1232743 0.1598277
vt 0.1232743 0.1598277
vt 0.1232743 0.1598277
vt 0.1232743 0.1598277
vt 0.1232743 0.1598277
vt 0.1232743 0.1598277
vt 0.1232743 0.1598277
vt 0.1232743 0.1598277
vt 0.1232743 0.1598277
vt 0.1232743 0.1598277
vt 0.1232743 0.1598277
vt 0.1232743 0.1598277
vt 0.1232743 0.1598277
vt 0.1232743 0.1598277
vt 0.1232743 0.1598277
vt 0.1232743 0.1598277
vt 0.1232743 0.1598277
vt 0.1232743 0.1598277
vt 0.1232743 0.1598277
vt 0.1232743 0.1598277
vt 0.1232743 0.1598277
vt 0.1232743 0.1598277
vt 0.1035156 0.2294769
vt 0.1035156 0.2294769
vt 0.1035156 0.2294769
vt 0.1035156 0.2294769
vt 0.1035156 0.2294769
vt 0.1035156 0.2294769
vt 0.1035156 0.2294769
vt 0.1035156 0.2294769
vt 0.1035156 0.2294769
vt 0.1035156 0.2294769
vt 0.1035156 0.2294769
vt 0.1035156 0.2294769
vt 0.1035156 0.2294769
vt 0.1035156 0.2294769
vt 0.1035156 0.2294769
vt 0.1035156 0.2294769
vt 0.1035156 0.2294769
vt 0.1035156 0.2294769
vt 0.1035156 0.2294769
vt 0.1035156 0.2294769
vt 0.1035156 0.2294769
vt 0.1035156 0.2294769
vt 0.1035156 0.2294769
vt 0.1035156 0.2294769
vt 0.1232743 0.1830441
vt 0.1232743 0.1830441
vt 0.1232743 0.1830441
vt 0.1232743 0.1830441
vt 0.1232743 0.1830441
vt 0.1232743 0.1830441
vt 0.1232743 0.1830441
vt 0.1232743 0.1830441
vt 0.1232743 0.1652614
vt 0.1232743 0.1652614
vt 0.1232743 0.1830441
vt 0.1232743 0.1830441
vt 0.1232743 0.1830441
vt 0.1232743 0.1830441
vt 0.1321656 0.1825502
vt 0.1321656 0.1825502
vt 0.1321656 0.1825502
vt 0.1321656 0.1825502
vt 0.1321656 0.1825502
vt 0.1321656 0.1825502
vt 0.1321656 0.1825502
vt 0.1321656 0.1825502
vt 0.1321656 0.1825502
vt 0.1321656 0.1825502
vt 0.1321656 0.1825502
vt 0.1321656 0.1825502
vt 0.1321656 0.1825502
vt 0.1321656 0.1825502
vt 0.1321656 0.1825502
vt 0.1232743 0.1583458
vt 0.1232743 0.1583458
vt 0.1232743 0.1583458
vt 0.1232743 0.1583458
vt 0.1232743 0.1583458
vt 0.1232743 0.1583458
vt 0.1232743 0.1583458
vt 0.1232743 0.1583458
vt 0.1232743 0.1583458
vt 0.1232743 0.1583458
vt 0.1232743 0.1583458
vt 0.1232743 0.1583458
vt 0.1232743 0.1583458
vt 0.1232743 0.1583458
vt 0.1232743 0.1583458
vt 0.1232743 0.1583458
vt 0.1232743 0.1632855
vt 0.1232743 0.1667432
vt 0.1232743 0.1830441
vt 0.1232743 0.1830441
vt 0.1232743 0.1830441
vt 0.1232743 0.1830441
vt 0.1232743 0.1830441
vt 0.1232743 0.1583458
vt 0.1232743 0.1583458
vt 0.1232743 0.1583458
vt 0.1232743 0.1583458
vt 0.1232743 0.1830441
vt 0.1232743 0.1830441
vt 0.1232743 0.1830441
vt 0.1232743 0.1830441
vt 0.1232743 0.1830441
vt 0.1232743 0.1830441
vt 0.1232743 0.1830441
vt 0.1232743 0.1830441
vt 0.1232743 0.1830441
vt 0.1232743 0.1830441
vt 0.1232743 0.1652614
vt 0.1232743 0.1830441
vt 0.1232743 0.1830441
vt 0.1232743 0.1667432
vt 0.1232743 0.1682252
vt 0.1232743 0.1830441
vt 0.1232743 0.1830441
vt 0.1232743 0.1830441
vt 0.1232743 0.1830441
vt 0.1232743 0.1830441
vt 0.1232743 0.1830441
vt 0.1232743 0.1830441
vt 0.1232743 0.1830441
vt 0.1232743 0.1830441
vn 0.1428391 0.9046479 0.4015085
vn 0.1428391 0.9046479 0.4015085
vn 0.1428391 0.9046479 0.4015085
vn 0.3332914 0.9046479 0.2655728
vn 0.3332914 0.9046479 0.2655728
vn 0.3332914 0.9046479 0.2655728
vn -0.3015493 0.9363899 0.1795602
vn -0.3015493 0.9363899 0.1795602
vn -0.3015493 0.9363899 0.1795602
vn -0.3332913 0.9363899 -0.1099582
vn -0.3332913 0.9363899 -0.1099582
vn -0.3332913 0.9363899 -0.1099582
vn -0.01587105 0.999874 -0.000345267
vn -0.01587105 0.999874 -0.000345267
vn -0.01587105 0.999874 -0.000345267
vn -0.01587105 0.999874 -0.000345267
vn -0.999874 0.01587105 -0.0003439156
vn -0.999874 0.01587105 -0.0003439156
vn -0.999874 0.01587105 -0.0003439156
vn -0.999874 0.01587105 -0.0003439156
vn -0.01587105 0.01587105 0.9997481
vn -0.01587105 0.01587105 0.9997481
vn -0.01587105 0.01587105 0.9997481
vn -0.01587105 0.01587105 0.9997481
vn 0.999874 0.01587105 -0.0003439156
vn 0.999874 0.01587105 -0.0003439156
vn 0.999874 0.01587105 -0.0003439156
vn 0.999874 0.01587105 -0.0003439156
vn -0.01587105 0.01587105 -0.9997481
vn -0.01587105 0.01587105 -0.9997481
vn -0.01587105 0.01587105 -0.9997481
vn -0.01587105 0.01587105 -0.9997481
vn -0.01587105 -0.999874 -0.000345267
vn -0.01587105 -0.999874 -0.000345267
vn -0.01587105 -0.999874 -0.000345267
vn -0.01587105 -0.999874 -0.000345267
vn -0.01587105 0.999874 -0.000345267
vn -0.01587105 0.999874 -0.000345267
vn -0.01587105 0.999874 -0.000345267
vn -0.01587105 0.999874 -0.000345267
vn -0.999874 0.01587105 -0.0003439156
vn -0.999874 0.01587105 -0.0003439156
vn -0.999874 0.01587105 -0.0003439156
vn -0.999874 0.01587105 -0.0003439156
vn -0.01587105 0.01587105 0.9997481
vn -0.01587105 0.01587105 0.9997481
vn -0.01587105 0.01587105 0.9997481
vn -0.01587105 0.01587105 0.9997481
vn 0.999874 0.01587105 -0.0003439156
vn 0.999874 0.01587105 -0.0003439156
vn 0.999874 0.01587105 -0.0003439156
vn 0.999874 0.01587105 -0.0003439156
vn 0.01587099 0.01587105 -0.9997481
vn 0.01587099 0.01587105 -0.9997481
vn 0.01587099 0.01587105 -0.9997481
vn 0.01587099 0.01587105 -0.9997481
vn -0.01587105 -0.999874 -0.000345267
vn -0.01587105 -0.999874 -0.000345267
vn -0.01587105 -0.999874 -0.000345267
vn -0.01587105 -0.999874 -0.000345267
vn -0.01587105 0.999874 -0.000345267
vn -0.01587105 0.999874 -0.000345267
vn -0.01587105 0.999874 -0.000345267
vn -0.01587105 0.999874 -0.000345267
vn -0.999874 0.01587105 -0.0003439156
vn -0.999874 0.01587105 -0.0003439156
vn -0.999874 0.01587105 -0.0003439156
vn -0.999874 0.01587105 -0.0003439156
vn -0.01587105 0.01587105 -0.9997481
vn -0.01587105 0.01587105 -0.9997481
vn -0.01587105 0.01587105 -0.9997481
vn -0.01587105 0.01587105 -0.9997481
vn 0.999874 0.01587105 -0.0003439156
vn 0.999874 0.01587105 -0.0003439156
vn 0.999874 0.01587105 -0.0003439156
vn 0.999874 0.01587105 -0.0003439156
vn -0.01587105 -0.999874 -0.000345267
vn -0.01587105 -0.999874 -0.000345267
vn -0.01587105 -0.999874 -0.000345267
vn -0.01587105 -0.999874 -0.000345267
vn -0.01587105 0.01587105 0.9997481
vn -0.01587105 0.01587105 0.9997481
vn -0.01587105 0.01587105 0.9997481
vn -0.01587105 0.01587105 0.9997481
vn -0.01587105 0.01587105 0.9997481
vn -0.01587105 0.01587105 0.9997481
vn -0.01587105 0.01587105 0.9997481
vn -0.01587105 0.01587105 0.9997481
vn -0.01587105 0.01587105 0.9997481
vn -0.01587105 0.01587105 -0.9997481
vn -0.01587105 0.01587105 -0.9997481
vn -0.01587105 0.01587105 -0.9997481
vn -0.01587105 0.01587105 -0.9997481
vn 0.999874 0.01587105 -0.0003439156
vn 0.999874 0.01587105 -0.0003439156
vn 0.999874 0.01587105 -0.0003439156
vn 0.999874 0.01587105 -0.0003439156
vn 0.999874 0.01587105 -0.0003439156
vn -0.01587105 0.999874 -0.000345267
vn -0.01587105 0.999874 -0.000345267
vn -0.01587105 0.999874 -0.000345267
vn -0.01587105 0.999874 -0.000345267
vn -0.01587105 0.999874 -0.000345267
vn -0.01587105 0.999874 -0.000345267
vn -0.01587105 0.999874 -0.000345267
vn -0.01587105 0.999874 -0.000345267
vn -0.01587105 0.999874 -0.000345267
vn -0.01587105 0.999874 -0.000345267
vn -0.01587105 0.999874 -0.000345267
vn -0.01587105 0.999874 -0.000345267
vn -0.01587105 0.999874 -0.000345267
vn -0.01587105 0.999874 -0.000345267
vn -0.01587105 0.999874 -0.000345267
vn 0.9037378 -0.4280863 0
vn 0.9037378 -0.4280863 0
vn 0.9037378 -0.4280863 0
vn 0.9037378 -0.4280863 0
vn -0.01587105 -0.3332914 -0.9426903
vn -0.01587105 -0.3332914 -0.9426903
vn -0.01587105 -0.3332914 -0.9426903
vn -0.01587105 -0.3332914 -0.9426903
vn -0.9037378 -0.4280863 0
vn -0.9037378 -0.4280863 0
vn -0.9037378 -0.4280863 0
vn -0.9037378 -0.4280863 0
vn -0.01587105 -0.3332914 0.9426903
vn -0.01587105 -0.3332914 0.9426903
vn -0.01587105 -0.3332914 0.9426903
vn -0.01587105 -0.3332914 0.9426903
vn -0.999874 0.01587105 -0.0003439156
vn -0.999874 0.01587105 -0.0003439156
vn -0.999874 0.01587105 -0.0003439156
vn -0.999874 0.01587105 -0.0003439156
vn -0.999874 0.01587105 -0.0003439156
vn -0.999874 0.01587105 -0.0003439156
vn -0.999874 0.01587105 -0.0003439156
vn -0.01587105 -0.999874 -0.000345267
vn -0.01587105 -0.999874 -0.000345267
vn -0.01587105 -0.999874 -0.000345267
vn -0.01587105 -0.999874 -0.000345267
vn -0.01587105 0.999874 -0.000345267
vn -0.01587105 0.999874 -0.000345267
vn -0.01587105 0.999874 -0.000345267
vn -0.01587105 0.999874 -0.000345267
vn -0.01587105 0.999874 -0.000345267
vn -0.01587105 0.999874 -0.000345267
vn -0.01587105 0.999874 -0.000345267
vn -0.01587105 0.999874 -0.000345267
vn -0.01587105 0.999874 -0.000345267
vn -0.01587105 0.999874 -0.000345267
vn -0.01587105 0.999874 -0.000345267
vn -0.01587105 0.999874 -0.000345267
vn -0.01587105 0.999874 -0.000345267
vn -0.01587105 0.999874 -0.000345267
vn -0.01587105 0.999874 -0.000345267
vn -0.01587105 0.999874 -0.000345267
vn -0.01587105 0.999874 -0.000345267
vn -0.01587105 0.999874 -0.000345267
vn -0.01587105 0.999874 -0.000345267
vn -0.01587105 0.999874 -0.000345267
vn -0.01587105 0.999874 -0.000345267
vn -0.01587105 0.999874 -0.000345267
vn -0.01587105 0.999874 -0.000345267
vn -0.01587105 0.999874 -0.000345267
g SM_Prop_Crate_Open_Lid_05_0
f 3/3/3 2/2/2 1/1/1
f 6/6/6 5/5/5 4/4/4
f 9/9/9 8/8/8 7/7/7
f 12/12/12 11/11/11 10/10/10
f 15/15/15 14/14/14 13/13/13
f 16/16/16 15/15/15 13/13/13
f 19/19/19 18/18/18 17/17/17
f 20/20/20 19/19/19 17/17/17
f 23/23/23 22/22/22 21/21/21
f 24/24/24 23/23/23 21/21/21
f 27/27/27 26/26/26 25/25/25
f 28/28/28 27/27/27 25/25/25
f 31/31/31 30/30/30 29/29/29
f 32/32/32 31/31/31 29/29/29
f 35/35/35 34/34/34 33/33/33
f 36/36/36 35/35/35 33/33/33
f 39/39/39 38/38/38 37/37/37
f 40/40/40 39/39/39 37/37/37
f 43/43/43 42/42/42 41/41/41
f 44/44/44 43/43/43 41/41/41
f 47/47/47 46/46/46 45/45/45
f 48/48/48 47/47/47 45/45/45
f 51/51/51 50/50/50 49/49/49
f 52/52/52 51/51/51 49/49/49
f 55/55/55 54/54/54 53/53/53
f 56/56/56 55/55/55 53/53/53
f 59/59/59 58/58/58 57/57/57
f 60/60/60 59/59/59 57/57/57
f 63/63/63 62/62/62 61/61/61
f 64/64/64 63/63/63 61/61/61
f 67/67/67 66/66/66 65/65/65
f 68/68/68 67/67/67 65/65/65
f 71/71/71 70/70/70 69/69/69
f 72/72/72 71/71/71 69/69/69
f 75/75/75 74/74/74 73/73/73
f 76/76/76 75/75/75 73/73/73
f 79/79/79 78/78/78 77/77/77
f 80/80/80 79/79/79 77/77/77
f 83/83/83 82/82/82 81/81/81
f 84/84/84 83/83/83 81/81/81
f 87/87/87 86/86/86 85/85/85
f 85/85/85 88/88/88 87/87/87
f 85/85/85 89/89/89 88/88/88
f 92/92/92 91/91/91 90/90/90
f 93/93/93 92/92/92 90/90/90
f 96/96/96 95/95/95 94/94/94
f 94/94/94 97/97/97 96/96/96
f 94/94/94 98/98/98 97/97/97
f 101/101/101 100/100/100 99/99/99
f 99/99/99 102/102/102 101/101/101
f 99/99/99 103/103/103 102/102/102
f 106/106/106 105/105/105 104/104/104
f 104/104/104 107/107/107 106/106/106
f 104/104/104 108/108/108 107/107/107
f 111/111/111 110/110/110 109/109/109
f 109/109/109 112/112/112 111/111/111
f 109/109/109 113/113/113 112/112/112
f 116/116/116 115/115/115 114/114/114
f 117/117/117 116/116/116 114/114/114
f 120/120/120 119/119/119 118/118/118
f 121/121/121 120/120/120 118/118/118
f 124/124/124 123/123/123 122/122/122
f 125/125/125 124/124/124 122/122/122
f 128/128/128 127/127/127 126/126/126
f 129/129/129 128/128/128 126/126/126
f 132/132/132 131/131/131 130/130/130
f 133/133/133 132/132/132 130/130/130
f 133/133/133 130/130/130 134/134/134
f 130/130/130 135/135/135 134/134/134
f 135/135/135 136/136/136 134/134/134
f 139/139/139 138/138/138 137/137/137
f 140/140/140 139/139/139 137/137/137
f 143/143/143 142/142/142 141/141/141
f 142/142/142 143/143/143 144/144/144
f 142/142/142 145/145/145 141/141/141
f 146/146/146 142/142/142 144/144/144
f 141/141/141 145/145/145 147/147/147
f 147/147/147 145/145/145 148/148/148
f 149/149/149 141/141/141 147/147/147
f 150/150/150 147/147/147 148/148/148
f 149/149/149 151/151/151 141/141/141
f 150/150/150 148/148/148 152/152/152
f 148/148/148 153/153/153 152/152/152
f 152/152/152 153/153/153 146/146/146
f 154/154/154 152/152/152 146/146/146
f 154/154/154 146/146/146 144/144/144
f 144/144/144 155/155/155 154/154/154
f 151/151/151 156/156/156 141/141/141
f 155/155/155 144/144/144 157/157/157
f 158/158/158 155/155/155 157/157/157
f 157/157/157 159/159/159 158/158/158
f 144/144/144 160/160/160 157/157/157
f 157/157/157 161/161/161 159/159/159
f 159/159/159 161/161/161 151/151/151
f 160/160/160 162/162/162 157/157/157
f 161/161/161 163/163/163 151/151/151
f 151/151/151 163/163/163 156/156/156
f 162/162/162 160/160/160 164/164/164
f 160/160/160 156/156/156 164/164/164
f 163/163/163 164/164/164 156/156/156
