g SM_Prop_Sign_Danger_01
v -0.5012591 -0.1836822 0.03932196
v -0.4654192 -0.1279312 0.06421083
v -0.3917482 -0.1637712 0.06421083
v -0.5012591 -0.1836822 0.03932196
v -0.5032503 -0.07417125 0.06421083
v -0.4654192 -0.1279312 0.06421083
v -0.5012591 -0.1836822 0.03932196
v -0.3917482 -0.1637712 0.06421083
v -0.1816862 -0.1797 0.06421083
v 0.5012641 0.1836773 0.03533971
v 0.4624375 0.1428596 0.06421083
v 0.3768198 0.1677485 0.06421083
v 0.5012641 0.1836773 0.03533971
v 0.5032552 0.09009522 0.06421083
v 0.4624375 0.1428596 0.06421083
v 0.2235044 0.1796951 0.06421083
v 0.5012641 0.1836773 0.03533971
v 0.3768198 0.1677485 0.06421083
v -0.5082281 0.1279263 0.05325973
v -0.4763703 0.08710855 0.06421083
v -0.5072325 0.08213079 0.03832638
v -0.4763703 0.08710855 0.06421083
v -0.506237 0.04927748 0.06421083
v -0.5072325 0.08213079 0.03832638
v -0.4763703 0.08710855 0.06421083
v -0.5092236 0.1707351 0.04728639
v 0.2235044 0.1796951 0.06421083
v -0.4763703 0.08710855 0.06421083
v -0.5082281 0.1279263 0.05325973
v -0.5092236 0.1707351 0.04728639
v -0.5072325 0.08213079 0.03832638
v -0.506237 0.04927748 0.06421083
v -0.5032503 -0.07417125 0.06421083
v -0.5092236 0.1707351 0.0004953146
v -0.5012591 -0.1836822 0.0004953146
v 0.508233 -0.1468467 0.05525082
v 0.472393 -0.1179757 0.06421083
v 0.508233 -0.1100112 0.04927748
v 0.472393 -0.1179757 0.06421083
v 0.5062419 -0.06421572 0.06421083
v 0.508233 -0.1100112 0.04927748
v -0.5092236 0.1707351 0.04728639
v -0.5092236 0.1707351 0.0004953146
v 0.5012641 0.1836773 0.0004953146
v 0.5012641 0.1836773 0.03533971
v 0.2235044 0.1796951 0.06421083
v -0.5012591 -0.1836822 0.0004953146
v 0.5092285 -0.17074 0.0004953146
v 0.5012641 0.1836773 0.0004953146
v -0.5092236 0.1707351 0.0004953146
v 0.5092285 -0.17074 0.04828191
v 0.5092285 -0.17074 0.0004953146
v -0.5012591 -0.1836822 0.0004953146
v -0.5012591 -0.1836822 0.03932196
v -0.1816862 -0.1797 0.06421083
v -0.5092236 0.1707351 0.0004953146
v -0.5092236 0.1707351 0.04728639
v -0.5082281 0.1279263 0.05325973
v -0.5072325 0.08213079 0.03832638
v -0.5012591 -0.1836822 0.0004953146
v -0.5032503 -0.07417125 0.06421083
v -0.5012591 -0.1836822 0.03932196
v 0.5092285 -0.17074 0.04828191
v 0.508233 -0.1468467 0.05525082
v 0.508233 -0.1100112 0.04927748
v 0.5092285 -0.17074 0.0004953146
v 0.5012641 0.1836773 0.0004953146
v 0.2235044 0.1796951 0.06421083
v 0.3768198 0.1677485 0.06421083
v -0.4763703 0.08710855 0.06421083
v -0.1816862 -0.1797 0.06421083
v 0.4624375 0.1428596 0.06421083
v 0.5032552 0.09009522 0.06421083
v 0.472393 -0.1179757 0.06421083
v 0.5062419 -0.06421572 0.06421083
v -0.3917482 -0.1637712 0.06421083
v -0.4654192 -0.1279312 0.06421083
v -0.5032503 -0.07417125 0.06421083
v -0.506237 0.04927748 0.06421083
v 0.5012641 0.1836773 0.0004953146
v 0.508233 -0.1100112 0.04927748
v 0.5062419 -0.06421572 0.06421083
v 0.5032552 0.09009522 0.06421083
v 0.5012641 0.1836773 0.03533971
v -0.1816862 -0.1797 0.06421083
v 0.472393 -0.1179757 0.06421083
v 0.508233 -0.1468467 0.05525082
v 0.5092285 -0.17074 0.04828191
vt 0.1391022 0.02207563
vt 0.1421819 0.02515527
vt 0.1475713 0.02284554
vt 0.1391022 0.02207563
vt 0.1391022 0.02900483
vt 0.1421819 0.02515527
vt 0.1391022 0.02207563
vt 0.1475713 0.02284554
vt 0.1637394 0.02130571
vt 0.2176332 0.04440307
vt 0.2145536 0.04209334
vt 0.2083943 0.04363316
vt 0.2176332 0.04440307
vt 0.2176332 0.03824377
vt 0.2145536 0.04209334
vt 0.1960757 0.04440307
vt 0.2176332 0.04440307
vt 0.2083943 0.04363316
vt 0.1398721 0.04209334
vt 0.1421819 0.03901368
vt 0.1398721 0.03901368
vt 0.1421819 0.03901368
vt 0.1398721 0.03670395
vt 0.1398721 0.03901368
vt 0.1421819 0.03901368
vt 0.1398721 0.04517298
vt 0.1960757 0.04440307
vt 0.1421819 0.03901368
vt 0.1398721 0.04209334
vt 0.1398721 0.04517298
vt 0.1398721 0.03901368
vt 0.1398721 0.03670395
vt 0.1391022 0.02900483
vt 0.1398721 0.04517298
vt 0.1391022 0.02207563
vt 0.2168633 0.02284554
vt 0.2145536 0.02515527
vt 0.2168633 0.02515527
vt 0.2145536 0.02515527
vt 0.2168633 0.02823492
vt 0.2168633 0.02515527
vt 0.1398721 0.04517298
vt 0.1398721 0.04517298
vt 0.2176332 0.04440307
vt 0.2176332 0.04440307
vt 0.1960757 0.04440307
vt 0.1429518 0.04286325
vt 0.1429518 0.04286325
vt 0.1429518 0.04286325
vt 0.1429518 0.04286325
vt 0.2168633 0.02130571
vt 0.2168633 0.02130571
vt 0.1391022 0.02207563
vt 0.1391022 0.02207563
vt 0.1637394 0.02130571
vt 0.1398721 0.04517298
vt 0.1398721 0.04517298
vt 0.1398721 0.04209334
vt 0.1398721 0.03901368
vt 0.1391022 0.02207563
vt 0.1391022 0.02900483
vt 0.1391022 0.02207563
vt 0.2168633 0.02130571
vt 0.2168633 0.02284554
vt 0.2168633 0.02515527
vt 0.2168633 0.02130571
vt 0.2176332 0.04440307
vt 0.1960757 0.04440307
vt 0.2083943 0.04363316
vt 0.1421819 0.03901368
vt 0.1637394 0.02130571
vt 0.2145536 0.04209334
vt 0.2176332 0.03824377
vt 0.2145536 0.02515527
vt 0.2168633 0.02823492
vt 0.1475713 0.02284554
vt 0.1421819 0.02515527
vt 0.1391022 0.02900483
vt 0.1398721 0.03670395
vt 0.2176332 0.04440307
vt 0.2168633 0.02515527
vt 0.2168633 0.02823492
vt 0.2176332 0.03824377
vt 0.2176332 0.04440307
vt 0.1637394 0.02130571
vt 0.2145536 0.02515527
vt 0.2168633 0.02284554
vt 0.2168633 0.02130571
vn -0.1428392 -0.3015493 0.9426903
vn -0.1428392 -0.3015493 0.9426903
vn -0.1428392 -0.3015493 0.9426903
vn -0.3015493 -0.2063232 0.9308591
vn -0.3015493 -0.2063232 0.9308591
vn -0.3015493 -0.2063232 0.9308591
vn -0.04761302 -0.6507117 0.7578306
vn -0.04761302 -0.6507117 0.7578306
vn -0.04761302 -0.6507117 0.7578306
vn 0.1428391 0.4602596 0.8762181
vn 0.1428391 0.4602596 0.8762181
vn 0.1428391 0.4602596 0.8762181
vn 0.3650334 0.2698073 0.8910413
vn 0.3650334 0.2698073 0.8910413
vn 0.3650334 0.2698073 0.8910413
vn 0.04761302 0.7141958 0.6983246
vn 0.04761302 0.7141958 0.6983246
vn 0.04761302 0.7141958 0.6983246
vn -0.5872277 -0.2698073 0.7631302
vn -0.5872277 -0.2698073 0.7631302
vn -0.5872277 -0.2698073 0.7631302
vn -0.5872277 0.4920015 0.6427271
vn -0.5872277 0.4920015 0.6427271
vn -0.5872277 0.4920015 0.6427271
vn -0.01587105 0.1745812 0.9845148
vn -0.01587105 0.1745812 0.9845148
vn -0.01587105 0.1745812 0.9845148
vn -0.1428392 0.1428392 0.9793845
vn -0.1428392 0.1428392 0.9793845
vn -0.1428392 0.1428392 0.9793845
vn -0.9998741 -0.01587099 0
vn -0.9998741 -0.01587099 0
vn -0.9998741 -0.01587099 0
vn -0.9998741 -0.01587099 0
vn -0.9998741 -0.01587099 0
vn 0.3650334 0.1745812 0.9144791
vn 0.3650334 0.1745812 0.9144791
vn 0.3650334 0.1745812 0.9144791
vn 0.4285175 -0.2698073 0.862309
vn 0.4285175 -0.2698073 0.862309
vn 0.4285175 -0.2698073 0.862309
vn -0.01587105 0.9998741 0
vn -0.01587105 0.9998741 0
vn -0.01587105 0.9998741 0
vn -0.01587105 0.9998741 0
vn -0.01587105 0.9998741 0
vn -0.01587105 0.01587105 -0.9997481
vn -0.01587105 0.01587105 -0.9997481
vn -0.01587105 0.01587105 -0.9997481
vn -0.01587105 0.01587105 -0.9997481
vn 0.01587099 -0.9998741 0
vn 0.01587099 -0.9998741 0
vn 0.01587099 -0.9998741 0
vn 0.01587099 -0.9998741 0
vn 0.01587099 -0.9998741 0
vn -0.9998741 -0.01587099 0
vn -0.9998741 -0.01587099 0
vn -0.9998741 -0.01587099 0
vn -0.9998741 -0.01587099 0
vn -0.9998741 -0.01587099 0
vn -0.9998741 -0.01587099 0
vn -0.9998741 -0.01587099 0
vn 0.9998741 0.01587105 0
vn 0.9998741 0.01587105 0
vn 0.9998741 0.01587105 0
vn 0.9998741 0.01587105 0
vn 0.9998741 0.01587105 0
vn -0.01587105 0.01587105 0.9997481
vn -0.01587105 0.01587105 0.9997481
vn -0.01587105 0.01587105 0.9997481
vn -0.01587105 0.01587105 0.9997481
vn -0.01587105 0.01587105 0.9997481
vn -0.01587105 0.01587105 0.9997481
vn -0.01587105 0.01587105 0.9997481
vn -0.01587105 0.01587105 0.9997481
vn -0.01587105 0.01587105 0.9997481
vn -0.01587105 0.01587105 0.9997481
vn -0.01587105 0.01587105 0.9997481
vn -0.01587105 0.01587105 0.9997481
vn 0.9998741 0.01587105 0
vn 0.9998741 0.01587105 0
vn 0.9998741 0.01587105 0
vn 0.9998741 0.01587105 0
vn 0.9998741 0.01587105 0
vn 0.01587099 -0.2698073 0.9627835
vn 0.01587099 -0.2698073 0.9627835
vn 0.01587099 -0.2698073 0.9627835
vn 0.01587099 -0.2698073 0.9627835
g SM_Prop_Sign_Danger_01_0
f 3/3/3 2/2/2 1/1/1
f 6/6/6 5/5/5 4/4/4
f 9/9/9 8/8/8 7/7/7
f 12/12/12 11/11/11 10/10/10
f 15/15/15 14/14/14 13/13/13
f 18/18/18 17/17/17 16/16/16
f 21/21/21 20/20/20 19/19/19
f 24/24/24 23/23/23 22/22/22
f 27/27/27 26/26/26 25/25/25
f 30/30/30 29/29/29 28/28/28
f 33/33/33 32/32/32 31/31/31
f 35/35/35 31/31/31 34/34/34
f 38/38/38 37/37/37 36/36/36
f 41/41/41 40/40/40 39/39/39
f 44/44/44 43/43/43 42/42/42
f 42/42/42 45/45/45 44/44/44
f 42/42/42 46/46/46 45/45/45
f 49/49/49 48/48/48 47/47/47
f 50/50/50 49/49/49 47/47/47
f 53/53/53 52/52/52 51/51/51
f 51/51/51 54/54/54 53/53/53
f 51/51/51 55/55/55 54/54/54
f 58/58/58 57/57/57 56/56/56
f 59/59/59 58/58/58 56/56/56
f 61/61/61 59/59/59 60/60/60
f 60/60/60 62/62/62 61/61/61
f 65/65/65 64/64/64 63/63/63
f 66/66/66 65/65/65 63/63/63
f 66/66/66 67/67/67 65/65/65
f 70/70/70 69/69/69 68/68/68
f 69/69/69 70/70/70 71/71/71
f 72/72/72 69/69/69 71/71/71
f 71/71/71 73/73/73 72/72/72
f 73/73/73 71/71/71 74/74/74
f 75/75/75 73/73/73 74/74/74
f 76/76/76 71/71/71 70/70/70
f 70/70/70 77/77/77 76/76/76
f 70/70/70 78/78/78 77/77/77
f 70/70/70 79/79/79 78/78/78
f 82/82/82 81/81/81 80/80/80
f 80/80/80 83/83/83 82/82/82
f 80/80/80 84/84/84 83/83/83
f 87/87/87 86/86/86 85/85/85
f 88/88/88 87/87/87 85/85/85
