g SM_Prop_Crate_Ammo_Lid_01
v -0.1946213 0.04923014 0.7748585
v -0.1946213 0.07425104 0.7748585
v -0.3065819 0.04923014 0.7748585
v -0.3065819 0.07425104 0.7748585
v -0.3065819 0.04923014 0.01289474
v -0.3065819 0.07425104 0.01289474
v -0.1946213 0.04923014 0.01289474
v -0.1946213 0.07425104 0.01289474
v -0.2103348 0.09642543 0.04899025
v -0.2103348 0.09642543 0.738763
v -0.2908691 0.09642543 0.04899025
v -0.2908691 0.09642543 0.738763
v 0.3195655 0.04923014 0.7748585
v 0.3195655 0.07425104 0.7748585
v 0.2076049 0.04923014 0.7748585
v 0.2076049 0.07425104 0.7748585
v 0.2076049 0.04923014 0.01289474
v 0.2076049 0.07425104 0.01289474
v 0.3195655 0.04923014 0.01289474
v 0.3195655 0.07425104 0.01289474
v 0.303852 0.09642543 0.04899025
v 0.303852 0.09642543 0.738763
v 0.2233177 0.09642543 0.04899025
v 0.2233177 0.09642543 0.738763
v -0.5445229 0.04923014 0.7877536
v 0.5445236 0.04923014 0.7877536
v -0.5445229 0.04923014 3.814697E-07
v 0.5445236 0.04923014 3.814697E-07
v -0.5445229 4.768371E-09 3.814697E-07
v 0.5445236 4.768371E-09 3.814697E-07
v 0.5445236 4.768371E-09 0.7877536
v -0.5445229 4.768371E-09 0.7877536
v -0.3995858 0.06316065 -0.005959701
v -0.4563942 0.06316065 -0.005959701
v -0.3995858 0.06316065 0.1447651
v -0.4563942 0.06316065 0.1447651
v -0.3947319 0.03240168 0.1576054
v -0.461248 0.03240168 0.1576054
v -0.3947319 0.03240168 -0.01879997
v -0.461248 0.03240168 -0.01879997
v 0.4555358 0.06316065 -0.005959701
v 0.4002075 0.06316065 -0.005959701
v 0.4555358 0.06316065 0.1447651
v 0.4002075 0.06316065 0.1447651
v 0.4611297 0.03240168 0.1576054
v 0.3946136 0.03240168 0.1576054
v 0.4611297 0.03240168 -0.01879997
v 0.3946136 0.03240168 -0.01879997
v -0.3065819 0.04923014 0.7748585
v -0.3065819 0.07425104 0.7748585
v -0.3065819 0.04923014 0.01289474
v -0.3065819 0.07425104 0.01289474
v -0.1946213 0.04923014 0.01289474
v -0.1946213 0.04923014 0.7748585
v -0.1946213 0.07425104 0.7748585
v -0.1946213 0.07425104 0.01289474
v -0.1946213 0.07425104 0.7748585
v -0.2103348 0.09642543 0.738763
v -0.2103348 0.09642543 0.04899025
v -0.1946213 0.07425104 0.01289474
v -0.1946213 0.07425104 0.01289474
v -0.2103348 0.09642543 0.04899025
v -0.2908691 0.09642543 0.04899025
v -0.3065819 0.07425104 0.01289474
v -0.3065819 0.07425104 0.01289474
v -0.2908691 0.09642543 0.04899025
v -0.2908691 0.09642543 0.738763
v -0.3065819 0.07425104 0.7748585
v -0.3065819 0.07425104 0.7748585
v -0.2908691 0.09642543 0.738763
v -0.2103348 0.09642543 0.738763
v -0.1946213 0.07425104 0.7748585
v 0.2076049 0.04923014 0.7748585
v 0.2076049 0.07425104 0.7748585
v 0.2076049 0.04923014 0.01289474
v 0.2076049 0.07425104 0.01289474
v 0.3195655 0.04923014 0.01289474
v 0.3195655 0.04923014 0.7748585
v 0.3195655 0.07425104 0.7748585
v 0.3195655 0.07425104 0.01289474
v 0.3195655 0.07425104 0.7748585
v 0.303852 0.09642543 0.738763
v 0.303852 0.09642543 0.04899025
v 0.3195655 0.07425104 0.01289474
v 0.3195655 0.07425104 0.01289474
v 0.303852 0.09642543 0.04899025
v 0.2233177 0.09642543 0.04899025
v 0.2076049 0.07425104 0.01289474
v 0.2076049 0.07425104 0.01289474
v 0.2233177 0.09642543 0.04899025
v 0.2233177 0.09642543 0.738763
v 0.2076049 0.07425104 0.7748585
v 0.2076049 0.07425104 0.7748585
v 0.2233177 0.09642543 0.738763
v 0.303852 0.09642543 0.738763
v 0.3195655 0.07425104 0.7748585
v -0.5445229 0.04923014 3.814697E-07
v -0.5445229 4.768371E-09 3.814697E-07
v 0.5445236 4.768371E-09 3.814697E-07
v 0.5445236 0.04923014 3.814697E-07
v 0.5445236 0.04923014 3.814697E-07
v 0.5445236 4.768371E-09 3.814697E-07
v 0.5445236 4.768371E-09 0.7877536
v 0.5445236 0.04923014 0.7877536
v 0.5445236 0.04923014 0.7877536
v 0.5445236 4.768371E-09 0.7877536
v -0.5445229 4.768371E-09 0.7877536
v -0.5445229 0.04923014 0.7877536
v -0.5445229 0.04923014 0.7877536
v -0.5445229 4.768371E-09 0.7877536
v -0.5445229 4.768371E-09 3.814697E-07
v -0.5445229 0.04923014 3.814697E-07
v -0.3995858 0.06316065 0.1447651
v -0.4563942 0.06316065 0.1447651
v -0.3947319 0.03240168 0.1576054
v -0.461248 0.03240168 0.1576054
v -0.3947319 0.03240168 -0.01879997
v -0.3995858 0.06316065 -0.005959701
v -0.4563942 0.06316065 -0.005959701
v -0.461248 0.03240168 -0.01879997
v -0.4563942 0.06316065 -0.005959701
v -0.4563942 0.06316065 0.1447651
v -0.461248 0.03240168 0.1576054
v -0.461248 0.03240168 -0.01879997
v -0.3947319 0.03240168 -0.01879997
v -0.3947319 0.03240168 0.1576054
v -0.3995858 0.06316065 0.1447651
v -0.3995858 0.06316065 -0.005959701
v 0.4555358 0.06316065 0.1447651
v 0.4002075 0.06316065 0.1447651
v 0.4611297 0.03240168 0.1576054
v 0.3946136 0.03240168 0.1576054
v 0.4611297 0.03240168 -0.01879997
v 0.4555358 0.06316065 -0.005959701
v 0.4002075 0.06316065 -0.005959701
v 0.3946136 0.03240168 -0.01879997
v 0.4002075 0.06316065 -0.005959701
v 0.4002075 0.06316065 0.1447651
v 0.3946136 0.03240168 0.1576054
v 0.3946136 0.03240168 -0.01879997
v 0.4611297 0.03240168 -0.01879997
v 0.4611297 0.03240168 0.1576054
v 0.4555358 0.06316065 0.1447651
v 0.4555358 0.06316065 -0.005959701
vt 0.5026467 0.1848759
vt 0.5026467 0.1848759
vt 0.5026467 0.1848759
vt 0.5026467 0.1848759
vt 0.5026467 0.1848759
vt 0.5026467 0.1848759
vt 0.5026467 0.1848759
vt 0.5026467 0.1848759
vt 0.5026467 0.1848759
vt 0.5026467 0.1848759
vt 0.5026467 0.1848759
vt 0.5026467 0.1848759
vt 0.5026467 0.1848759
vt 0.5026467 0.1848759
vt 0.5026467 0.1848759
vt 0.5026467 0.1848759
vt 0.5026467 0.1848759
vt 0.5026467 0.1848759
vt 0.5026467 0.1848759
vt 0.5026467 0.1848759
vt 0.5026467 0.1848759
vt 0.5026467 0.1848759
vt 0.5026467 0.1848759
vt 0.5026467 0.1848759
vt 0.522904 0.1878225
vt 0.522904 0.1878225
vt 0.522904 0.1878224
vt 0.522904 0.1878224
vt 0.522904 0.1878224
vt 0.522904 0.1878224
vt 0.522904 0.1878225
vt 0.522904 0.1878225
vt 0.07926229 0.3021063
vt 0.07926226 0.3021063
vt 0.07926229 0.3021063
vt 0.07926226 0.3021063
vt 0.07926229 0.3021063
vt 0.07926226 0.3021063
vt 0.07926229 0.3021063
vt 0.07926226 0.3021063
vt 0.07926229 0.3021063
vt 0.07926226 0.3021063
vt 0.07926229 0.3021063
vt 0.07926226 0.3021063
vt 0.07926229 0.3021063
vt 0.07926226 0.3021063
vt 0.07926229 0.3021063
vt 0.07926226 0.3021063
vt 0.5026467 0.1848759
vt 0.5026467 0.1848759
vt 0.5026467 0.1848759
vt 0.5026467 0.1848759
vt 0.5026467 0.1848759
vt 0.5026467 0.1848759
vt 0.5026467 0.1848759
vt 0.5026467 0.1848759
vt 0.5026467 0.1848759
vt 0.5026467 0.1848759
vt 0.5026467 0.1848759
vt 0.5026467 0.1848759
vt 0.5026467 0.1848759
vt 0.5026467 0.1848759
vt 0.5026467 0.1848759
vt 0.5026467 0.1848759
vt 0.5026467 0.1848759
vt 0.5026467 0.1848759
vt 0.5026467 0.1848759
vt 0.5026467 0.1848759
vt 0.5026467 0.1848759
vt 0.5026467 0.1848759
vt 0.5026467 0.1848759
vt 0.5026467 0.1848759
vt 0.5026467 0.1848759
vt 0.5026467 0.1848759
vt 0.5026467 0.1848759
vt 0.5026467 0.1848759
vt 0.5026467 0.1848759
vt 0.5026467 0.1848759
vt 0.5026467 0.1848759
vt 0.5026467 0.1848759
vt 0.5026467 0.1848759
vt 0.5026467 0.1848759
vt 0.5026467 0.1848759
vt 0.5026467 0.1848759
vt 0.5026467 0.1848759
vt 0.5026467 0.1848759
vt 0.5026467 0.1848759
vt 0.5026467 0.1848759
vt 0.5026467 0.1848759
vt 0.5026467 0.1848759
vt 0.5026467 0.1848759
vt 0.5026467 0.1848759
vt 0.5026467 0.1848759
vt 0.5026467 0.1848759
vt 0.5026467 0.1848759
vt 0.5026467 0.1848759
vt 0.522904 0.1878224
vt 0.522904 0.1878224
vt 0.522904 0.1878224
vt 0.522904 0.1878224
vt 0.522904 0.1878224
vt 0.522904 0.1878224
vt 0.522904 0.1878225
vt 0.522904 0.1878225
vt 0.522904 0.1878225
vt 0.522904 0.1878225
vt 0.522904 0.1878225
vt 0.522904 0.1878225
vt 0.522904 0.1878225
vt 0.522904 0.1878225
vt 0.522904 0.1878224
vt 0.522904 0.1878224
vt 0.07926229 0.3021063
vt 0.07926226 0.3021063
vt 0.07926229 0.3021063
vt 0.07926226 0.3021063
vt 0.07926229 0.3021063
vt 0.07926229 0.3021063
vt 0.07926226 0.3021063
vt 0.07926226 0.3021063
vt 0.07926226 0.3021063
vt 0.07926226 0.3021063
vt 0.07926226 0.3021063
vt 0.07926226 0.3021063
vt 0.07926229 0.3021063
vt 0.07926229 0.3021063
vt 0.07926229 0.3021063
vt 0.07926229 0.3021063
vt 0.07926229 0.3021063
vt 0.07926226 0.3021063
vt 0.07926229 0.3021063
vt 0.07926226 0.3021063
vt 0.07926229 0.3021063
vt 0.07926229 0.3021063
vt 0.07926226 0.3021063
vt 0.07926226 0.3021063
vt 0.07926226 0.3021063
vt 0.07926226 0.3021063
vt 0.07926226 0.3021063
vt 0.07926226 0.3021063
vt 0.07926229 0.3021063
vt 0.07926229 0.3021063
vt 0.07926229 0.3021063
vt 0.07926229 0.3021063
vn 0 0 1
vn 0 0 1
vn 0 0 1
vn 0 0 1
vn -1 0 0
vn -1 0 0
vn 0 0 -1
vn 0 0 -1
vn 0 1 0
vn 0 1 0
vn 0 1 0
vn 0 1 0
vn 0 0 1
vn 0 0 1
vn 0 0 1
vn 0 0 1
vn -1 0 0
vn -1 0 0
vn 0 0 -1
vn 0 0 -1
vn 0 1 0
vn 0 1 0
vn 0 1 0
vn 0 1 0
vn 0 1 0
vn 0 1 0
vn 0 1 0
vn 0 1 0
vn 0 -1 0
vn 0 -1 0
vn 0 -1 0
vn 0 -1 0
vn 0 1 0
vn 0 1 0
vn 0 1 0
vn 0 1 0
vn 0 0.3852297 0.9228207
vn 0 0.3852297 0.9228207
vn 0 -1 0
vn 0 -1 0
vn 0 1 0
vn 0 1 0
vn 0 1 0
vn 0 1 0
vn 0 0.3852297 0.9228208
vn 0 0.3852297 0.9228208
vn 0 -1 0
vn 0 -1 0
vn -1 0 0
vn -1 0 0
vn 0 0 -1
vn 0 0 -1
vn 1 0 0
vn 1 0 0
vn 1 0 0
vn 1 0 0
vn 0.8159091 0.5781801 0
vn 0.8159091 0.5781801 0
vn 0.8159091 0.5781801 0
vn 0.8159091 0.5781801 0
vn 0 0.8520609 -0.5234427
vn 0 0.8520609 -0.5234426
vn 0 0.8520609 -0.5234426
vn 0 0.8520609 -0.5234426
vn -0.8159211 0.5781633 0
vn -0.8159211 0.5781633 0
vn -0.815921 0.5781633 0
vn -0.8159211 0.5781633 0
vn 0 0.8520604 0.5234435
vn 0 0.8520604 0.5234434
vn 0 0.8520604 0.5234434
vn 0 0.8520604 0.5234434
vn -1 0 0
vn -1 0 0
vn 0 0 -1
vn 0 0 -1
vn 1 0 0
vn 1 0 0
vn 1 0 0
vn 1 0 0
vn 0.8159091 0.5781801 0
vn 0.8159091 0.5781801 0
vn 0.8159091 0.5781801 0
vn 0.8159091 0.5781801 0
vn 0 0.8520609 -0.5234426
vn 0 0.8520609 -0.5234426
vn 0 0.8520609 -0.5234426
vn 0 0.8520609 -0.5234426
vn -0.8159224 0.5781615 0
vn -0.8159224 0.5781615 0
vn -0.8159224 0.5781615 0
vn -0.8159224 0.5781615 0
vn 0 0.8520604 0.5234434
vn 0 0.8520604 0.5234434
vn 0 0.8520604 0.5234434
vn 0 0.8520604 0.5234434
vn 0 0 -1
vn 0 0 -1
vn 0 0 -1
vn 0 0 -1
vn 1 0 0
vn 1 0 0
vn 1 0 0
vn 1 0 0
vn 0 0 1
vn 0 0 1
vn 0 0 1
vn 0 0 1
vn -1 0 0
vn -1 0 0
vn -1 0 0
vn -1 0 0
vn 0 0.3852297 0.9228208
vn 0 0.3852297 0.9228208
vn 0 -1 0
vn 0 -1 0
vn 0 0.3852297 -0.9228207
vn 0 0.3852297 -0.9228207
vn 0 0.3852297 -0.9228207
vn 0 0.3852297 -0.9228207
vn -0.9877771 0.155873 0
vn -0.9877771 0.155873 0
vn -0.9877771 0.155873 0
vn -0.9877771 0.155873 0
vn 0.9877771 0.155873 0
vn 0.9877771 0.155873 0
vn 0.9877771 0.155873 0
vn 0.9877771 0.155873 0
vn 0 0.3852297 0.9228207
vn 0 0.3852297 0.9228207
vn 0 -1 0
vn 0 -1 0
vn 0 0.3852297 -0.9228208
vn 0 0.3852297 -0.9228207
vn 0 0.3852297 -0.9228207
vn 0 0.3852297 -0.9228208
vn -0.9838623 0.1789267 0
vn -0.9838623 0.1789267 0
vn -0.9838625 0.1789267 0
vn -0.9838625 0.1789267 0
vn 0.9838625 0.1789267 0
vn 0.9838625 0.1789267 0
vn 0.9838625 0.1789267 0
vn 0.9838625 0.1789267 0
g SM_Prop_Crate_Ammo_Lid_01_0
f 4/4/4 3/3/3 1/1/1
f 2/2/2 4/4/4 1/1/1
f 6/6/6 5/5/5 49/49/49
f 50/50/50 6/6/6 49/49/49
f 8/8/8 7/7/7 51/51/51
f 52/52/52 8/8/8 51/51/51
f 55/55/55 54/54/54 53/53/53
f 56/56/56 55/55/55 53/53/53
f 11/11/11 12/12/12 10/10/10
f 9/9/9 11/11/11 10/10/10
f 59/59/59 58/58/58 57/57/57
f 60/60/60 59/59/59 57/57/57
f 63/63/63 62/62/62 61/61/61
f 64/64/64 63/63/63 61/61/61
f 67/67/67 66/66/66 65/65/65
f 68/68/68 67/67/67 65/65/65
f 71/71/71 70/70/70 69/69/69
f 72/72/72 71/71/71 69/69/69
f 16/16/16 15/15/15 13/13/13
f 14/14/14 16/16/16 13/13/13
f 18/18/18 17/17/17 73/73/73
f 74/74/74 18/18/18 73/73/73
f 20/20/20 19/19/19 75/75/75
f 76/76/76 20/20/20 75/75/75
f 79/79/79 78/78/78 77/77/77
f 80/80/80 79/79/79 77/77/77
f 23/23/23 24/24/24 22/22/22
f 21/21/21 23/23/23 22/22/22
f 83/83/83 82/82/82 81/81/81
f 84/84/84 83/83/83 81/81/81
f 87/87/87 86/86/86 85/85/85
f 88/88/88 87/87/87 85/85/85
f 91/91/91 90/90/90 89/89/89
f 92/92/92 91/91/91 89/89/89
f 95/95/95 94/94/94 93/93/93
f 96/96/96 95/95/95 93/93/93
f 31/31/31 32/32/32 29/29/29
f 30/30/30 31/31/31 29/29/29
f 26/26/26 28/28/28 27/27/27
f 25/25/25 26/26/26 27/27/27
f 99/99/99 98/98/98 97/97/97
f 100/100/100 99/99/99 97/97/97
f 103/103/103 102/102/102 101/101/101
f 104/104/104 103/103/103 101/101/101
f 107/107/107 106/106/106 105/105/105
f 108/108/108 107/107/107 105/105/105
f 111/111/111 110/110/110 109/109/109
f 112/112/112 111/111/111 109/109/109
f 36/36/36 35/35/35 33/33/33
f 34/34/34 36/36/36 33/33/33
f 38/38/38 37/37/37 113/113/113
f 114/114/114 38/38/38 113/113/113
f 40/40/40 39/39/39 115/115/115
f 116/116/116 40/40/40 115/115/115
f 119/119/119 118/118/118 117/117/117
f 120/120/120 119/119/119 117/117/117
f 123/123/123 122/122/122 121/121/121
f 124/124/124 123/123/123 121/121/121
f 127/127/127 126/126/126 125/125/125
f 128/128/128 127/127/127 125/125/125
f 44/44/44 43/43/43 41/41/41
f 42/42/42 44/44/44 41/41/41
f 46/46/46 45/45/45 129/129/129
f 130/130/130 46/46/46 129/129/129
f 48/48/48 47/47/47 131/131/131
f 132/132/132 48/48/48 131/131/131
f 135/135/135 134/134/134 133/133/133
f 136/136/136 135/135/135 133/133/133
f 139/139/139 138/138/138 137/137/137
f 140/140/140 139/139/139 137/137/137
f 143/143/143 142/142/142 141/141/141
f 144/144/144 143/143/143 141/141/141
