g SM_Prop_Puddle_02
v 1.1926 0.005 0.7242999
v -1.141047 0.005 0.9113079
v -1.018961 0.005 -0.8984261
v 0.9445733 0.005 -1.652035
v 1.583308 0.005 -1.200428
v 1.892553 0.005 -0.5331086
v 1.708425 0.005 0.2331007
v -1.647817 0.005 -0.5351197
v -1.018961 0.005 -0.8984261
v -1.141047 0.005 0.9113079
v -1.892553 0.005 0.06256731
v -1.644366 0.005 0.6427518
v -1.141047 0.005 0.9113079
v 1.1926 0.005 0.7242999
v 0.9147841 0.005 1.476957
v -0.7851481 0.005 1.501854
v 0.3231241 0.005 1.71925
v -0.2266642 0.005 1.771759
v -1.018961 0.005 -0.8984261
v -0.4784984 0.005 -1.482705
v 0.130959 0.005 -1.771759
v 0.9445733 0.005 -1.652035
vt 0.2304246 0.3040624
vt 0.2304246 0.3040625
vt 0.2304246 0.3040625
vt 0.2304246 0.3040625
vt 0.2304246 0.3040626
vt 0.2304246 0.3040625
vt 0.2304246 0.3040624
vt 0.2304246 0.3040625
vt 0.2304246 0.3040625
vt 0.2304246 0.3040625
vt 0.2304246 0.3040624
vt 0.2304246 0.3040624
vt 0.2304246 0.3040625
vt 0.2304246 0.3040624
vt 0.2304246 0.3040625
vt 0.2304246 0.3040625
vt 0.2304246 0.3040625
vt 0.2304246 0.3040625
vt 0.2304246 0.3040625
vt 0.2304246 0.3040625
vt 0.2304246 0.3040625
vt 0.2304246 0.3040625
vn 0 1 0
vn 0 1 0
vn 0 1 0
vn 0 1 0
vn 0 1 0
vn 0 1 0
vn 0 1 0
vn 0 1 0
vn 0 1 0
vn 0 1 0
vn 0 1 0
vn 0 1 0
vn 0 1 0
vn 0 1 0
vn 0 1 0
vn 0 1 0
vn 0 1 0
vn 0 1 0
vn 0 1 0
vn 0 1 0
vn 0 1 0
vn 0 1 0
g SM_Prop_Puddle_02_0
f 3/3/3 2/2/2 1/1/1
f 4/4/4 3/3/3 1/1/1
f 5/5/5 4/4/4 1/1/1
f 5/5/5 1/1/1 6/6/6
f 1/1/1 7/7/7 6/6/6
f 10/10/10 9/9/9 8/8/8
f 8/8/8 11/11/11 10/10/10
f 11/11/11 12/12/12 10/10/10
f 15/15/15 14/14/14 13/13/13
f 13/13/13 16/16/16 15/15/15
f 16/16/16 17/17/17 15/15/15
f 16/16/16 18/18/18 17/17/17
f 21/21/21 20/20/20 19/19/19
f 22/22/22 21/21/21 19/19/19
