g SM_Prop_Fence_Wood_01
v -0.0001983076 0.1159851 0.0245636
v 0.0008304 0.3042915 0.0245636
v 0.5610695 0.3061219 0.0245636
v 0.2419633 0.1345405 0.0245636
v 0.6455736 0.1585604 0.0245636
v 0.6402106 0.3291153 0.0245636
v 1.74707 0.1998225 0.0245636
v 1.742795 0.3357779 0.0245636
v 2.499249 0.1961289 0.0245636
v 2.500494 0.3844352 0.0245636
v 0.0008304 0.3042915 0.0245636
v 0.0008304 0.3042915 -0.0245636
v 0.5614881 0.2928089 -0.0245636
v 0.5610695 0.3061219 0.0245636
v 0.0008304 0.3042915 -0.0245636
v -0.0001983076 0.1159851 -0.0245636
v 0.2419633 0.1345405 -0.0245636
v 0.5614881 0.2928089 -0.0245636
v 0.6402106 0.3291153 -0.0245636
v 0.6455736 0.1585604 -0.0245636
v 1.742795 0.3357779 -0.0245636
v 1.74707 0.1998225 -0.0245636
v 2.500494 0.3844352 -0.0245636
v 2.499249 0.1961289 -0.0245636
v -0.0001983076 0.1159851 -0.0245636
v -0.0001983076 0.1159851 0.0245636
v 0.2419633 0.1345405 0.0245636
v 0.2419633 0.1345405 -0.0245636
v 0.6455736 0.1585604 -0.0245636
v 0.6455736 0.1585604 0.0245636
v 1.74707 0.1998225 -0.0245636
v 1.74707 0.1998225 0.0245636
v 2.499249 0.1961289 -0.0245636
v 2.499249 0.1961289 0.0245636
v 2.499249 0.1961289 0.0245636
v 2.500494 0.3844352 0.0245636
v 2.500494 0.3844352 -0.0245636
v 2.499249 0.1961289 -0.0245636
v -0.0001983076 0.1159851 -0.0245636
v 0.0008304 0.3042915 -0.0245636
v 0.0008304 0.3042915 0.0245636
v -0.0001983076 0.1159851 0.0245636
v 0.6402106 0.3291153 0.0245636
v 0.6402106 0.3291153 -0.0245636
v 1.742795 0.3357779 -0.0245636
v 1.742795 0.3357779 0.0245636
v 2.500494 0.3844352 -0.0245636
v 2.500494 0.3844352 0.0245636
v 0.5610695 0.3061219 0.0245636
v 0.5614881 0.2928089 -0.0245636
v 0.6402106 0.3291153 -0.0245636
v 0.6402106 0.3291153 0.0245636
v 0.0008799136 0.625051 0.0245636
v -0.0008798927 0.8131778 0.0245636
v 1.212817 0.7214701 0.0245636
v 0.5364593 0.6071796 0.0245636
v 1.265593 0.5641499 0.0245636
v 1.293885 0.6931668 0.0245636
v 1.407611 0.5553355 0.0245636
v 1.434033 0.7206133 0.0245636
v 2.501068 0.4879647 0.0245636
v 2.498931 0.6760917 0.0245636
v -0.0008798927 0.8131778 0.0245636
v -0.0008798927 0.8131778 -0.0245636
v 1.213505 0.7342475 -0.0245636
v 1.212817 0.7214701 0.0245636
v -0.0008798927 0.8131778 -0.0245636
v 0.0008799136 0.625051 -0.0245636
v 0.5364593 0.6071796 -0.0245636
v 1.213505 0.7342475 -0.0245636
v 1.294527 0.7050774 -0.0245636
v 1.265593 0.5641499 -0.0245636
v 1.434599 0.731146 -0.0245636
v 1.407611 0.5553355 -0.0245636
v 2.498931 0.6760917 -0.0245636
v 2.501068 0.4879647 -0.0245636
v 0.0008799136 0.625051 -0.0245636
v 0.0008799136 0.625051 0.0245636
v 0.5364593 0.6071796 0.0245636
v 0.5364593 0.6071796 -0.0245636
v 1.265593 0.5641499 -0.0245636
v 1.265593 0.5641499 0.0245636
v 1.407611 0.5553355 -0.0245636
v 1.407611 0.5553355 0.0245636
v 2.501068 0.4879647 -0.0245636
v 2.501068 0.4879647 0.0245636
v 2.501068 0.4879647 0.0245636
v 2.498931 0.6760917 0.0245636
v 2.498931 0.6760917 -0.0245636
v 2.501068 0.4879647 -0.0245636
v 0.0008799136 0.625051 -0.0245636
v -0.0008798927 0.8131778 -0.0245636
v -0.0008798927 0.8131778 0.0245636
v 0.0008799136 0.625051 0.0245636
v 1.212817 0.7214701 0.0245636
v 1.213505 0.7342475 -0.0245636
v 1.294527 0.7050774 -0.0245636
v 1.293885 0.6931668 0.0245636
v 1.293885 0.6931668 0.0245636
v 1.294527 0.7050774 -0.0245636
v 1.434599 0.731146 -0.0245636
v 1.434033 0.7206133 0.0245636
v 1.434599 0.731146 -0.0245636
v 2.498931 0.6760917 -0.0245636
v 2.498931 0.6760917 0.0245636
v 1.434033 0.7206133 0.0245636
v 0.0003202915 1.009595 0.0245636
v 0.0003202915 1.197995 0.0245636
v 0.600961 1.173578 0.0245636
v 0.5875 1.009595 0.0245636
v 1.644128 1.025324 0.0245636
v 1.215007 1.197995 0.0245636
v 1.732045 0.9980794 0.0245636
v 2.499614 1.009595 0.0245636
v 2.499614 1.197995 0.0245636
v 0.0003202915 1.197995 0.0245636
v 0.0003202915 1.197995 -0.0245636
v 0.600961 1.158182 -0.0245636
v 0.600961 1.173578 0.0245636
v 0.0003202915 1.197995 -0.0245636
v 0.0003202915 1.009595 -0.0245636
v 0.5875 1.009595 -0.0245636
v 0.600961 1.158182 -0.0245636
v 1.215007 1.197995 -0.0245636
v 1.644128 1.025324 -0.0245636
v 1.732045 0.9980794 -0.0245636
v 2.499614 1.197995 -0.0245636
v 2.499614 1.009595 -0.0245636
v 0.0003202915 1.009595 -0.0245636
v 0.0003202915 1.009595 0.0245636
v 0.5875 1.009595 0.0245636
v 0.5875 1.009595 -0.0245636
v 1.644128 1.025324 -0.0245636
v 1.644128 1.025324 0.0245636
v 2.499614 1.009595 0.0245636
v 2.499614 1.197995 0.0245636
v 2.499614 1.197995 -0.0245636
v 2.499614 1.009595 -0.0245636
v 0.0003202915 1.009595 -0.0245636
v 0.0003202915 1.197995 -0.0245636
v 0.0003202915 1.197995 0.0245636
v 0.0003202915 1.009595 0.0245636
v 1.644128 1.025324 0.0245636
v 1.732045 0.9980794 0.0245636
v 1.732045 0.9980794 -0.0245636
v 1.644128 1.025324 -0.0245636
v 0.600961 1.173578 0.0245636
v 0.600961 1.158182 -0.0245636
v 1.215007 1.197995 -0.0245636
v 1.215007 1.197995 0.0245636
v 1.732045 0.9980794 0.0245636
v 2.499614 1.009595 0.0245636
v 2.499614 1.009595 -0.0245636
v 1.732045 0.9980794 -0.0245636
v 1.215007 1.197995 -0.0245636
v 2.499614 1.197995 -0.0245636
v 2.499614 1.197995 0.0245636
v 1.215007 1.197995 0.0245636
vt 0.03858948 0.2539575
vt 0.03858948 0.2539575
vt 0.03858948 0.2539575
vt 0.03858948 0.2539575
vt 0.03858948 0.2539575
vt 0.03858948 0.2539575
vt 0.03858948 0.2539575
vt 0.03858948 0.2539575
vt 0.03858948 0.2539575
vt 0.03858948 0.2539575
vt 0.03858948 0.2539575
vt 0.03858948 0.2539575
vt 0.03858948 0.2539575
vt 0.03858948 0.2539575
vt 0.03858948 0.2539575
vt 0.03858948 0.2539575
vt 0.03858948 0.2539575
vt 0.03858948 0.2539575
vt 0.03858948 0.2539575
vt 0.03858948 0.2539575
vt 0.03858948 0.2539575
vt 0.03858948 0.2539575
vt 0.03858948 0.2539575
vt 0.03858948 0.2539575
vt 0.03858948 0.2539575
vt 0.03858948 0.2539575
vt 0.03858948 0.2539575
vt 0.03858948 0.2539575
vt 0.03858948 0.2539575
vt 0.03858948 0.2539575
vt 0.03858948 0.2539575
vt 0.03858948 0.2539575
vt 0.03858948 0.2539575
vt 0.03858948 0.2539575
vt 0.03858948 0.2539575
vt 0.03858948 0.2539575
vt 0.03858948 0.2539575
vt 0.03858948 0.2539575
vt 0.03858948 0.2539575
vt 0.03858948 0.2539575
vt 0.03858948 0.2539575
vt 0.03858948 0.2539575
vt 0.03858948 0.2539575
vt 0.03858948 0.2539575
vt 0.03858948 0.2539575
vt 0.03858948 0.2539575
vt 0.03858948 0.2539575
vt 0.03858948 0.2539575
vt 0.03858948 0.2539575
vt 0.03858948 0.2539575
vt 0.03858948 0.2539575
vt 0.03858948 0.2539575
vt 0.03858948 0.2539575
vt 0.03858948 0.2539575
vt 0.03858948 0.2539575
vt 0.03858948 0.2539575
vt 0.03858947 0.2539575
vt 0.03858947 0.2539575
vt 0.03858948 0.2539575
vt 0.03858948 0.2539575
vt 0.03858948 0.2539575
vt 0.03858948 0.2539575
vt 0.03858948 0.2539575
vt 0.03858948 0.2539575
vt 0.03858948 0.2539575
vt 0.03858948 0.2539575
vt 0.03858948 0.2539575
vt 0.03858948 0.2539575
vt 0.03858948 0.2539575
vt 0.03858948 0.2539575
vt 0.03858947 0.2539575
vt 0.03858947 0.2539575
vt 0.03858948 0.2539575
vt 0.03858948 0.2539575
vt 0.03858948 0.2539575
vt 0.03858948 0.2539575
vt 0.03858948 0.2539575
vt 0.03858948 0.2539575
vt 0.03858948 0.2539575
vt 0.03858948 0.2539575
vt 0.03858947 0.2539575
vt 0.03858947 0.2539575
vt 0.03858948 0.2539575
vt 0.03858948 0.2539575
vt 0.03858948 0.2539575
vt 0.03858948 0.2539575
vt 0.03858948 0.2539575
vt 0.03858948 0.2539575
vt 0.03858948 0.2539575
vt 0.03858948 0.2539575
vt 0.03858948 0.2539575
vt 0.03858948 0.2539575
vt 0.03858948 0.2539575
vt 0.03858948 0.2539575
vt 0.03858948 0.2539575
vt 0.03858948 0.2539575
vt 0.03858947 0.2539575
vt 0.03858947 0.2539575
vt 0.03858947 0.2539575
vt 0.03858947 0.2539575
vt 0.03858948 0.2539575
vt 0.03858948 0.2539575
vt 0.03858948 0.2539575
vt 0.03858948 0.2539575
vt 0.03858948 0.2539575
vt 0.03858948 0.2539575
vt 0.03858948 0.2539575
vt 0.03858948 0.2539575
vt 0.03858948 0.2539575
vt 0.03858948 0.2539575
vt 0.03858948 0.2539575
vt 0.03858948 0.2539575
vt 0.03858948 0.2539575
vt 0.03858948 0.2539575
vt 0.03858948 0.2539575
vt 0.03858948 0.2539575
vt 0.03858948 0.2539575
vt 0.03858948 0.2539575
vt 0.03858948 0.2539575
vt 0.03858948 0.2539575
vt 0.03858948 0.2539575
vt 0.03858948 0.2539575
vt 0.03858948 0.2539575
vt 0.03858948 0.2539575
vt 0.03858948 0.2539575
vt 0.03858948 0.2539575
vt 0.03858948 0.2539575
vt 0.03858948 0.2539575
vt 0.03858948 0.2539575
vt 0.03858948 0.2539575
vt 0.03858948 0.2539575
vt 0.03858948 0.2539575
vt 0.03858948 0.2539575
vt 0.03858948 0.2539575
vt 0.03858948 0.2539575
vt 0.03858948 0.2539575
vt 0.03858948 0.2539575
vt 0.03858948 0.2539575
vt 0.03858948 0.2539575
vt 0.03858948 0.2539575
vt 0.03858948 0.2539575
vt 0.03858948 0.2539575
vt 0.03858948 0.2539575
vt 0.03858948 0.2539575
vt 0.03858948 0.2539575
vt 0.03858948 0.2539575
vt 0.03858948 0.2539575
vt 0.03858948 0.2539575
vt 0.03858948 0.2539575
vt 0.03858948 0.2539575
vt 0.03858948 0.2539575
vt 0.03858948 0.2539575
vt 0.03858948 0.2539575
vt 0.03858948 0.2539575
vt 0.03858948 0.2539575
vt 0.03858948 0.2539575
vt 0.03858948 0.2539575
vt 0.03858948 0.2539575
vn 0 0 1
vn 0 0 1
vn 0 0 1
vn 0 0 1
vn 0 0 1
vn 0 0 1
vn 0 0 1
vn 0 0 1
vn 0 0 1
vn 0 0 1
vn 0.00853281 0.9909139 -0.1342269
vn 0.00853281 0.9909139 -0.1342269
vn 0.00853281 0.9909139 -0.1342269
vn 0.00853281 0.9909139 -0.1342269
vn 0 0 -1
vn 0 0 -1
vn 0 0 -1
vn 0 0 -1
vn 0 0 -1
vn 0 0 -1
vn 0 0 -1
vn 0 0 -1
vn 0 0 -1
vn 0 0 -1
vn 0.07640006 -0.9970772 0
vn 0.07640006 -0.9970772 0
vn 0.06790619 -0.9976918 0
vn 0.06790619 -0.9976918 0
vn 0.04842354 -0.9988269 0
vn 0.04842354 -0.9988269 0
vn 0.01626532 -0.9998677 0
vn 0.01626532 -0.9998677 0
vn -0.004910474 -0.999988 0
vn -0.004910474 -0.999988 0
vn 0.9999782 -0.006615286 0
vn 0.9999782 -0.006615286 0
vn 0.9999782 -0.006615286 0
vn 0.9999782 -0.006615286 0
vn -0.9999851 0.005462865 0
vn -0.9999851 0.005462865 0
vn -0.9999851 0.005462865 0
vn -0.9999851 0.005462865 0
vn -0.006042636 0.9999818 0
vn -0.006042636 0.9999818 0
vn -0.03507867 0.9993845 0
vn -0.03507867 0.9993845 0
vn -0.06408511 0.9979444 0
vn -0.06408511 0.9979444 0
vn -0.3487875 0.9285168 -0.1272947
vn -0.3487875 0.9285168 -0.1272947
vn -0.3487875 0.9285168 -0.1272947
vn -0.3487875 0.9285168 -0.1272947
vn 0 0 1
vn 0 0 1
vn 0 0 1
vn 0 0 1
vn 0 0 1
vn 0 0 1
vn 0 0 1
vn 0 0 1
vn 0 0 1
vn 0 0 1
vn 0.0695171 0.9891887 0.1291249
vn 0.0695171 0.9891887 0.1291249
vn 0.0695171 0.9891887 0.1291249
vn 0.0695171 0.9891887 0.1291249
vn 0 0 -1
vn 0 0 -1
vn 0 0 -1
vn 0 0 -1
vn 0 0 -1
vn 0 0 -1
vn 0 0 -1
vn 0 0 -1
vn 0 0 -1
vn 0 0 -1
vn -0.03334964 -0.9994437 0
vn -0.03334964 -0.9994437 0
vn -0.04613477 -0.9989352 0
vn -0.04613477 -0.9989352 0
vn -0.06042922 -0.9981725 0
vn -0.06042922 -0.9981725 0
vn -0.061721 -0.9980934 0
vn -0.061721 -0.9980934 0
vn -0.06149608 -0.9981073 0
vn -0.06149608 -0.9981073 0
vn 0.9999355 0.01135777 0
vn 0.9999355 0.01135777 0
vn 0.9999355 0.01135777 0
vn 0.9999355 0.01135777 0
vn -0.9999563 -0.009353952 0
vn -0.9999563 -0.009353952 0
vn -0.9999563 -0.009353952 0
vn -0.9999563 -0.009353952 0
vn 0.3248623 0.9162014 0.234605
vn 0.3248623 0.9162014 0.234605
vn 0.3248623 0.9162014 0.234605
vn 0.3248623 0.9162014 0.234605
vn -0.183125 0.9588914 0.2167779
vn -0.183125 0.9588914 0.2167779
vn -0.183125 0.9588914 0.2167779
vn -0.183125 0.9588914 0.2167779
vn 0.04644823 0.9932018 0.1067373
vn 0.04644823 0.9932018 0.1067373
vn 0.04644823 0.9932018 0.1067373
vn 0.04644823 0.9932018 0.1067373
vn 0 0 1
vn 0 0 1
vn 0 0 1
vn 0 0 1
vn 0 0 1
vn 0 0 1
vn 0 0 1
vn 0 0 1
vn 0 0 1
vn 0.05274986 0.9865688 -0.1545942
vn 0.05274986 0.9865688 -0.1545942
vn 0.05274986 0.9865688 -0.1545942
vn 0.05274986 0.9865688 -0.1545942
vn 0 0 -1
vn 0 0 -1
vn 0 0 -1
vn 0 0 -1
vn 0 0 -1
vn 0 0 -1
vn 0 0 -1
vn 0 0 -1
vn 0 0 -1
vn 0 -1 0
vn 0 -1 0
vn 0.007442354 -0.9999723 0
vn 0.007442354 -0.9999723 0
vn 0.0148843 -0.9998893 0
vn 0.0148843 -0.9998893 0
vn 1 0 0
vn 1 0 0
vn 1 0 0
vn 1 0 0
vn -1 0 0
vn -1 0 0
vn -1 0 0
vn -1 0 0
vn -0.2960057 -0.9551861 0
vn -0.2960057 -0.9551861 0
vn -0.2960057 -0.9551861 0
vn -0.2960057 -0.9551861 0
vn -0.05160139 0.9866281 -0.1546035
vn -0.05160139 0.9866281 -0.1546035
vn -0.05160139 0.9866281 -0.1546035
vn -0.05160139 0.9866281 -0.1546035
vn 0.01500139 -0.9998875 0
vn 0.01500139 -0.9998875 0
vn 0.01500139 -0.9998875 0
vn 0.01500139 -0.9998875 0
vn 0 1 0
vn 0 1 0
vn 0 1 0
vn 0 1 0
g SM_Prop_Fence_Wood_01_0
f 3/3/3 2/2/2 1/1/1
f 4/4/4 3/3/3 1/1/1
f 4/4/4 5/5/5 3/3/3
f 5/5/5 6/6/6 3/3/3
f 5/5/5 7/7/7 6/6/6
f 7/7/7 8/8/8 6/6/6
f 7/7/7 9/9/9 8/8/8
f 9/9/9 10/10/10 8/8/8
f 13/13/13 12/12/12 11/11/11
f 14/14/14 13/13/13 11/11/11
f 17/17/17 16/16/16 15/15/15
f 18/18/18 17/17/17 15/15/15
f 18/18/18 19/19/19 17/17/17
f 19/19/19 20/20/20 17/17/17
f 19/19/19 21/21/21 20/20/20
f 21/21/21 22/22/22 20/20/20
f 21/21/21 23/23/23 22/22/22
f 23/23/23 24/24/24 22/22/22
f 27/27/27 26/26/26 25/25/25
f 28/28/28 27/27/27 25/25/25
f 28/28/28 29/29/29 27/27/27
f 29/29/29 30/30/30 27/27/27
f 29/29/29 31/31/31 30/30/30
f 31/31/31 32/32/32 30/30/30
f 31/31/31 33/33/33 32/32/32
f 33/33/33 34/34/34 32/32/32
f 37/37/37 36/36/36 35/35/35
f 38/38/38 37/37/37 35/35/35
f 41/41/41 40/40/40 39/39/39
f 42/42/42 41/41/41 39/39/39
f 45/45/45 44/44/44 43/43/43
f 46/46/46 45/45/45 43/43/43
f 47/47/47 45/45/45 46/46/46
f 48/48/48 47/47/47 46/46/46
f 51/51/51 50/50/50 49/49/49
f 52/52/52 51/51/51 49/49/49
f 55/55/55 54/54/54 53/53/53
f 56/56/56 55/55/55 53/53/53
f 56/56/56 57/57/57 55/55/55
f 57/57/57 58/58/58 55/55/55
f 57/57/57 59/59/59 58/58/58
f 59/59/59 60/60/60 58/58/58
f 59/59/59 61/61/61 60/60/60
f 61/61/61 62/62/62 60/60/60
f 65/65/65 64/64/64 63/63/63
f 66/66/66 65/65/65 63/63/63
f 69/69/69 68/68/68 67/67/67
f 70/70/70 69/69/69 67/67/67
f 70/70/70 71/71/71 69/69/69
f 71/71/71 72/72/72 69/69/69
f 71/71/71 73/73/73 72/72/72
f 73/73/73 74/74/74 72/72/72
f 73/73/73 75/75/75 74/74/74
f 75/75/75 76/76/76 74/74/74
f 79/79/79 78/78/78 77/77/77
f 80/80/80 79/79/79 77/77/77
f 80/80/80 81/81/81 79/79/79
f 81/81/81 82/82/82 79/79/79
f 81/81/81 83/83/83 82/82/82
f 83/83/83 84/84/84 82/82/82
f 83/83/83 85/85/85 84/84/84
f 85/85/85 86/86/86 84/84/84
f 89/89/89 88/88/88 87/87/87
f 90/90/90 89/89/89 87/87/87
f 93/93/93 92/92/92 91/91/91
f 94/94/94 93/93/93 91/91/91
f 97/97/97 96/96/96 95/95/95
f 98/98/98 97/97/97 95/95/95
f 101/101/101 100/100/100 99/99/99
f 102/102/102 101/101/101 99/99/99
f 105/105/105 104/104/104 103/103/103
f 106/106/106 105/105/105 103/103/103
f 109/109/109 108/108/108 107/107/107
f 110/110/110 109/109/109 107/107/107
f 110/110/110 111/111/111 109/109/109
f 111/111/111 112/112/112 109/109/109
f 111/111/111 113/113/113 112/112/112
f 113/113/113 114/114/114 112/112/112
f 114/114/114 115/115/115 112/112/112
f 118/118/118 117/117/117 116/116/116
f 119/119/119 118/118/118 116/116/116
f 122/122/122 121/121/121 120/120/120
f 123/123/123 122/122/122 120/120/120
f 123/123/123 124/124/124 122/122/122
f 124/124/124 125/125/125 122/122/122
f 124/124/124 126/126/126 125/125/125
f 124/124/124 127/127/127 126/126/126
f 127/127/127 128/128/128 126/126/126
f 131/131/131 130/130/130 129/129/129
f 132/132/132 131/131/131 129/129/129
f 132/132/132 133/133/133 131/131/131
f 133/133/133 134/134/134 131/131/131
f 137/137/137 136/136/136 135/135/135
f 138/138/138 137/137/137 135/135/135
f 141/141/141 140/140/140 139/139/139
f 142/142/142 141/141/141 139/139/139
f 145/145/145 144/144/144 143/143/143
f 146/146/146 145/145/145 143/143/143
f 149/149/149 148/148/148 147/147/147
f 150/150/150 149/149/149 147/147/147
f 153/153/153 152/152/152 151/151/151
f 154/154/154 153/153/153 151/151/151
f 157/157/157 156/156/156 155/155/155
f 158/158/158 157/157/157 155/155/155
