g SM_Prop_Lab_Funnel_01
v 0.003712768 -1.278977E-15 -0.009348145
v 0 0.01740295 3.051758E-07
v 0.009235839 -1.278977E-15 -0.00398468
v -0.003984375 -1.278977E-15 -0.009235535
v 0 0.01740295 3.051758E-07
v 0.003712768 -1.278977E-15 -0.009348145
v -0.009348145 -1.278977E-15 -0.003712768
v 0 0.01740295 3.051758E-07
v -0.003984375 -1.278977E-15 -0.009235535
v -0.009235839 -1.278977E-15 0.003984985
v 0 0.01740295 3.051758E-07
v -0.009348145 -1.278977E-15 -0.003712768
v -0.003713379 -1.278977E-15 0.009348449
v 0 0.01740295 3.051758E-07
v -0.009235839 -1.278977E-15 0.003984985
v 0.003984375 -1.278977E-15 0.009235839
v 0 0.01740295 3.051758E-07
v -0.003713379 -1.278977E-15 0.009348449
v 0.009348145 -1.278977E-15 0.003713379
v 0 0.01740295 3.051758E-07
v 0.003984375 -1.278977E-15 0.009235839
v 0.009235839 -1.278977E-15 -0.00398468
v 0 0.01740295 3.051758E-07
v 0.009348145 -1.278977E-15 0.003713379
v 0.01659607 0.06886139 -0.007160339
v 0 0.05284103 3.051758E-07
v 0.006671753 0.06886139 -0.0167981
v 0.006671753 0.06886139 -0.0167981
v 0 0.05284103 3.051758E-07
v -0.007160034 0.06886139 -0.01659607
v -0.007160034 0.06886139 -0.01659607
v 0 0.05284103 3.051758E-07
v -0.0167987 0.06886139 -0.006671753
v -0.0167987 0.06886139 -0.006671753
v 0 0.05284103 3.051758E-07
v -0.01659607 0.06886139 0.007160645
v -0.01659607 0.06886139 0.007160645
v 0 0.05284103 3.051758E-07
v -0.006672363 0.06886139 0.0167984
v -0.006672363 0.06886139 0.0167984
v 0 0.05284103 3.051758E-07
v 0.007160034 0.06886139 0.01659638
v 0.007160034 0.06886139 0.01659638
v 0 0.05284103 3.051758E-07
v 0.0167981 0.06886139 0.006672363
v 0.0167981 0.06886139 0.006672363
v 0 0.05284103 3.051758E-07
v 0.01659607 0.06886139 -0.007160339
v 0.01518005 0.05284103 -0.006549072
v 0.08605835 0.1348972 -0.03712921
v 0.03459778 0.1348972 -0.08710632
v 0.006102905 0.05284103 -0.01536499
v 0.006102905 0.05284103 -0.01536499
v 0.03459778 0.1348972 -0.08710632
v -0.03712951 0.1348972 -0.08605774
v -0.006549072 0.05284103 -0.01518005
v -0.006549072 0.05284103 -0.01518005
v -0.03712951 0.1348972 -0.08605774
v -0.08710693 0.1348972 -0.03459747
v -0.01536499 0.05284103 -0.0061026
v -0.01536499 0.05284103 -0.0061026
v -0.08710693 0.1348972 -0.03459747
v -0.08605835 0.1348972 0.03712951
v -0.01518005 0.05284103 0.006549987
v -0.01518005 0.05284103 0.006549987
v -0.08605835 0.1348972 0.03712951
v -0.03459778 0.1348972 0.08710693
v -0.006102905 0.05284103 0.0153653
v -0.006102905 0.05284103 0.0153653
v -0.03459778 0.1348972 0.08710693
v 0.03712951 0.1348972 0.08605804
v 0.006549682 0.05284103 0.01518066
v 0.006549682 0.05284103 0.01518066
v 0.03712951 0.1348972 0.08605804
v 0.08710693 0.1348972 0.03459808
v 0.01536499 0.05284103 0.00610321
v 0.01536499 0.05284103 0.00610321
v 0.08710693 0.1348972 0.03459808
v 0.08605835 0.1348972 -0.03712921
v 0.01518005 0.05284103 -0.006549072
v 0.01518005 -1.278977E-15 -0.006549072
v 0.01518005 0.05284103 -0.006549072
v 0.006102905 0.05284103 -0.01536499
v 0.006102905 -1.278977E-15 -0.01536499
v 0.006102905 -1.278977E-15 -0.01536499
v 0.006102905 0.05284103 -0.01536499
v -0.006549072 0.05284103 -0.01518005
v -0.006549072 -1.278977E-15 -0.01518005
v -0.006549072 -1.278977E-15 -0.01518005
v -0.006549072 0.05284103 -0.01518005
v -0.01536499 0.05284103 -0.0061026
v -0.01536499 -1.278977E-15 -0.0061026
v -0.01536499 -1.278977E-15 -0.0061026
v -0.01536499 0.05284103 -0.0061026
v -0.01518005 0.05284103 0.006549987
v -0.01518005 -1.278977E-15 0.006549987
v -0.01518005 -1.278977E-15 0.006549987
v -0.01518005 0.05284103 0.006549987
v -0.006102905 0.05284103 0.0153653
v -0.006102905 -1.278977E-15 0.0153653
v -0.006102905 -1.278977E-15 0.0153653
v -0.006102905 0.05284103 0.0153653
v 0.006549682 0.05284103 0.01518066
v 0.006549682 -1.278977E-15 0.01518066
v 0.006549682 -1.278977E-15 0.01518066
v 0.006549682 0.05284103 0.01518066
v 0.01536499 0.05284103 0.00610321
v 0.01536499 -1.278977E-15 0.00610321
v 0.01536499 -1.278977E-15 0.00610321
v 0.01536499 0.05284103 0.00610321
v 0.01518005 0.05284103 -0.006549072
v 0.01518005 -1.278977E-15 -0.006549072
v 0.08605835 0.1348972 -0.03712921
v 0.07382812 0.1386508 -0.03185242
v 0.02968078 0.1386508 -0.07472778
v 0.03459778 0.1348972 -0.08710632
v 0.03459778 0.1348972 -0.08710632
v 0.02968078 0.1386508 -0.07472778
v -0.03185303 0.1386508 -0.07382812
v -0.03712951 0.1348972 -0.08605774
v -0.03712951 0.1348972 -0.08605774
v -0.03185303 0.1386508 -0.07382812
v -0.07472778 0.1386508 -0.02968078
v -0.08710693 0.1348972 -0.03459747
v -0.08710693 0.1348972 -0.03459747
v -0.07472778 0.1386508 -0.02968078
v -0.07382812 0.1386508 0.03185333
v -0.08605835 0.1348972 0.03712951
v -0.08605835 0.1348972 0.03712951
v -0.07382812 0.1386508 0.03185333
v -0.0296814 0.1386508 0.07472809
v -0.03459778 0.1348972 0.08710693
v -0.03459778 0.1348972 0.08710693
v -0.0296814 0.1386508 0.07472809
v 0.03185303 0.1386508 0.07382843
v 0.03712951 0.1348972 0.08605804
v 0.03712951 0.1348972 0.08605804
v 0.03185303 0.1386508 0.07382843
v 0.07472778 0.1386508 0.0296814
v 0.08710693 0.1348972 0.03459808
v 0.08710693 0.1348972 0.03459808
v 0.07472778 0.1386508 0.0296814
v 0.07382812 0.1386508 -0.03185242
v 0.08605835 0.1348972 -0.03712921
v 0.07382812 0.1386508 -0.03185242
v 0.01659607 0.06886139 -0.007160339
v 0.006671753 0.06886139 -0.0167981
v 0.02968078 0.1386508 -0.07472778
v 0.02968078 0.1386508 -0.07472778
v 0.006671753 0.06886139 -0.0167981
v -0.007160034 0.06886139 -0.01659607
v -0.03185303 0.1386508 -0.07382812
v -0.03185303 0.1386508 -0.07382812
v -0.007160034 0.06886139 -0.01659607
v -0.0167987 0.06886139 -0.006671753
v -0.07472778 0.1386508 -0.02968078
v -0.07472778 0.1386508 -0.02968078
v -0.0167987 0.06886139 -0.006671753
v -0.01659607 0.06886139 0.007160645
v -0.07382812 0.1386508 0.03185333
v -0.07382812 0.1386508 0.03185333
v -0.01659607 0.06886139 0.007160645
v -0.006672363 0.06886139 0.0167984
v -0.0296814 0.1386508 0.07472809
v -0.0296814 0.1386508 0.07472809
v -0.006672363 0.06886139 0.0167984
v 0.007160034 0.06886139 0.01659638
v 0.03185303 0.1386508 0.07382843
v 0.03185303 0.1386508 0.07382843
v 0.007160034 0.06886139 0.01659638
v 0.0167981 0.06886139 0.006672363
v 0.07472778 0.1386508 0.0296814
v 0.07472778 0.1386508 0.0296814
v 0.0167981 0.06886139 0.006672363
v 0.01659607 0.06886139 -0.007160339
v 0.07382812 0.1386508 -0.03185242
v 0.01536499 -1.278977E-15 0.00610321
v 0.009348145 -1.278977E-15 0.003713379
v 0.003984375 -1.278977E-15 0.009235839
v 0.006549682 -1.278977E-15 0.01518066
v 0.01518005 -1.278977E-15 -0.006549072
v -0.003713379 -1.278977E-15 0.009348449
v 0.009235839 -1.278977E-15 -0.00398468
v -0.006102905 -1.278977E-15 0.0153653
v 0.006102905 -1.278977E-15 -0.01536499
v -0.009235839 -1.278977E-15 0.003984985
v 0.003712768 -1.278977E-15 -0.009348145
v -0.01518005 -1.278977E-15 0.006549987
v -0.006549072 -1.278977E-15 -0.01518005
v -0.009348145 -1.278977E-15 -0.003712768
v -0.003984375 -1.278977E-15 -0.009235535
v -0.01536499 -1.278977E-15 -0.0061026
vt 0.08018637 0.2305908
vt 0.08018637 0.2305908
vt 0.08018637 0.2305908
vt 0.08018637 0.2305908
vt 0.08018637 0.2305908
vt 0.08018637 0.2305908
vt 0.08018637 0.2305908
vt 0.08018637 0.2305908
vt 0.08018637 0.2305908
vt 0.08018637 0.2305908
vt 0.08018637 0.2305908
vt 0.08018637 0.2305908
vt 0.08018637 0.2305908
vt 0.08018637 0.2305908
vt 0.08018637 0.2305908
vt 0.08018637 0.2305908
vt 0.08018637 0.2305908
vt 0.08018637 0.2305908
vt 0.08018637 0.2305908
vt 0.08018637 0.2305908
vt 0.08018637 0.2305908
vt 0.08018637 0.2305908
vt 0.08018637 0.2305908
vt 0.08018637 0.2305908
vt 0.08018637 0.2305908
vt 0.08018637 0.2305908
vt 0.08018637 0.2305908
vt 0.08018637 0.2305908
vt 0.08018637 0.2305908
vt 0.08018637 0.2305908
vt 0.08018637 0.2305908
vt 0.08018637 0.2305908
vt 0.08018637 0.2305908
vt 0.08018637 0.2305908
vt 0.08018637 0.2305908
vt 0.08018637 0.2305908
vt 0.08018637 0.2305908
vt 0.08018637 0.2305908
vt 0.08018637 0.2305908
vt 0.08018637 0.2305908
vt 0.08018637 0.2305908
vt 0.08018637 0.2305908
vt 0.08018637 0.2305908
vt 0.08018637 0.2305908
vt 0.08018637 0.2305908
vt 0.08018637 0.2305908
vt 0.08018637 0.2305908
vt 0.08018637 0.2305908
vt 0.337822 0.4479175
vt 0.337822 0.4479175
vt 0.337822 0.4479175
vt 0.337822 0.4479175
vt 0.337822 0.4479175
vt 0.337822 0.4479175
vt 0.337822 0.4479175
vt 0.337822 0.4479175
vt 0.337822 0.4479175
vt 0.337822 0.4479175
vt 0.337822 0.4479175
vt 0.337822 0.4479175
vt 0.337822 0.4479175
vt 0.337822 0.4479175
vt 0.337822 0.4479175
vt 0.337822 0.4479175
vt 0.337822 0.4479175
vt 0.337822 0.4479175
vt 0.337822 0.4479175
vt 0.337822 0.4479175
vt 0.337822 0.4479175
vt 0.337822 0.4479175
vt 0.337822 0.4479175
vt 0.337822 0.4479175
vt 0.337822 0.4479175
vt 0.337822 0.4479175
vt 0.337822 0.4479175
vt 0.337822 0.4479175
vt 0.337822 0.4479175
vt 0.337822 0.4479175
vt 0.337822 0.4479175
vt 0.337822 0.4479175
vt 0.337822 0.4479175
vt 0.337822 0.4479175
vt 0.337822 0.4479175
vt 0.337822 0.4479175
vt 0.337822 0.4479175
vt 0.337822 0.4479175
vt 0.337822 0.4479175
vt 0.337822 0.4479175
vt 0.337822 0.4479175
vt 0.337822 0.4479175
vt 0.337822 0.4479175
vt 0.337822 0.4479175
vt 0.337822 0.4479175
vt 0.337822 0.4479175
vt 0.337822 0.4479175
vt 0.337822 0.4479175
vt 0.337822 0.4479175
vt 0.337822 0.4479175
vt 0.337822 0.4479175
vt 0.337822 0.4479175
vt 0.337822 0.4479175
vt 0.337822 0.4479175
vt 0.337822 0.4479175
vt 0.337822 0.4479175
vt 0.337822 0.4479175
vt 0.337822 0.4479175
vt 0.337822 0.4479175
vt 0.337822 0.4479175
vt 0.337822 0.4479175
vt 0.337822 0.4479175
vt 0.337822 0.4479175
vt 0.337822 0.4479175
vt 0.337822 0.4479175
vt 0.337822 0.4479175
vt 0.337822 0.4479175
vt 0.337822 0.4479175
vt 0.337822 0.4479175
vt 0.337822 0.4479175
vt 0.337822 0.4479175
vt 0.337822 0.4479175
vt 0.337822 0.4479175
vt 0.337822 0.4479175
vt 0.337822 0.4479175
vt 0.337822 0.4479175
vt 0.337822 0.4479175
vt 0.337822 0.4479175
vt 0.337822 0.4479175
vt 0.337822 0.4479175
vt 0.337822 0.4479175
vt 0.337822 0.4479175
vt 0.337822 0.4479175
vt 0.337822 0.4479175
vt 0.337822 0.4479175
vt 0.337822 0.4479175
vt 0.337822 0.4479175
vt 0.337822 0.4479175
vt 0.337822 0.4479175
vt 0.337822 0.4479175
vt 0.337822 0.4479175
vt 0.337822 0.4479175
vt 0.337822 0.4479175
vt 0.337822 0.4479175
vt 0.337822 0.4479175
vt 0.337822 0.4479175
vt 0.337822 0.4479175
vt 0.337822 0.4479175
vt 0.337822 0.4479175
vt 0.337822 0.4479175
vt 0.337822 0.4479175
vt 0.337822 0.4479175
vt 0.337822 0.4479175
vt 0.337822 0.4479175
vt 0.337822 0.4479175
vt 0.337822 0.4479175
vt 0.337822 0.4479175
vt 0.337822 0.4479175
vt 0.337822 0.4479175
vt 0.337822 0.4479175
vt 0.337822 0.4479175
vt 0.337822 0.4479175
vt 0.337822 0.4479175
vt 0.337822 0.4479175
vt 0.337822 0.4479175
vt 0.337822 0.4479175
vt 0.337822 0.4479175
vt 0.337822 0.4479175
vt 0.337822 0.4479175
vt 0.337822 0.4479175
vt 0.337822 0.4479175
vt 0.337822 0.4479175
vt 0.337822 0.4479175
vt 0.337822 0.4479175
vt 0.337822 0.4479175
vt 0.337822 0.4479175
vt 0.337822 0.4479175
vt 0.337822 0.4479175
vt 0.337822 0.4479175
vt 0.337822 0.4479175
vt 0.337822 0.4479175
vt 0.337822 0.4479175
vt 0.337822 0.4479175
vt 0.337822 0.4479175
vt 0.337822 0.4479175
vt 0.337822 0.4479175
vt 0.337822 0.4479175
vt 0.337822 0.4479175
vt 0.337822 0.4479175
vt 0.337822 0.4479175
vt 0.337822 0.4479175
vt 0.337822 0.4479175
vt 0.337822 0.4479175
vt 0.337822 0.4479175
vn -0.6145354 -0.471043 0.6328229
vn -0.6145354 -0.471043 0.6328229
vn -0.6145354 -0.471043 0.6328229
vn 0.01290396 -0.4710445 0.8820152
vn 0.01290396 -0.4710445 0.8820152
vn 0.01290396 -0.4710445 0.8820152
vn 0.6327918 -0.4710343 0.6145741
vn 0.6327918 -0.4710343 0.6145741
vn 0.6327918 -0.4710343 0.6145741
vn 0.8820189 -0.4710384 -0.01286802
vn 0.8820189 -0.4710384 -0.01286802
vn 0.8820189 -0.4710384 -0.01286802
vn 0.6145704 -0.4710428 -0.632789
vn 0.6145704 -0.4710428 -0.632789
vn 0.6145704 -0.4710428 -0.632789
vn -0.01290303 -0.4710323 -0.8820217
vn -0.01290303 -0.4710323 -0.8820217
vn -0.01290303 -0.4710323 -0.8820217
vn -0.6327764 -0.47103 -0.6145931
vn -0.6327764 -0.47103 -0.6145931
vn -0.6327764 -0.47103 -0.6145931
vn -0.8820187 -0.4710385 0.01286751
vn -0.8820187 -0.4710385 0.01286751
vn -0.8820187 -0.4710385 0.01286751
vn -0.4823012 0.7216181 0.4966415
vn -0.4823012 0.7216181 0.4966415
vn -0.4823012 0.7216181 0.4966415
vn 0.01011044 0.7216216 0.6922141
vn 0.01011044 0.7216216 0.6922141
vn 0.01011044 0.7216216 0.6922141
vn 0.496617 0.7216203 0.4823233
vn 0.496617 0.7216203 0.4823233
vn 0.496617 0.7216203 0.4823233
vn 0.6922135 0.7216216 -0.01014053
vn 0.6922135 0.7216216 -0.01014053
vn 0.6922135 0.7216216 -0.01014053
vn 0.4823166 0.7216179 -0.4966268
vn 0.4823166 0.7216179 -0.4966268
vn 0.4823166 0.7216179 -0.4966268
vn -0.01011009 0.7216151 -0.6922206
vn -0.01011009 0.7216151 -0.6922206
vn -0.01011009 0.7216151 -0.6922206
vn -0.49663 0.7216135 -0.4823201
vn -0.49663 0.7216135 -0.4823201
vn -0.49663 0.7216135 -0.4823201
vn -0.6922204 0.7216152 0.01010987
vn -0.6922204 0.7216152 0.01010987
vn -0.6922204 0.7216152 0.01010987
vn 0.5258425 -0.6559917 -0.5414469
vn 0.5258425 -0.6559917 -0.5414469
vn 0.5258425 -0.6559917 -0.5414469
vn 0.5258425 -0.6559917 -0.5414469
vn -0.01103263 -0.6559901 -0.7546889
vn -0.01103263 -0.6559901 -0.7546889
vn -0.01103263 -0.6559901 -0.7546889
vn -0.01103263 -0.6559901 -0.7546889
vn -0.5414451 -0.6559923 -0.5258434
vn -0.5414451 -0.6559923 -0.5258434
vn -0.5414451 -0.6559923 -0.5258434
vn -0.5414451 -0.6559923 -0.5258434
vn -0.7546861 -0.6559932 0.01103255
vn -0.7546861 -0.6559932 0.01103255
vn -0.7546861 -0.6559932 0.01103255
vn -0.7546861 -0.6559932 0.01103255
vn -0.5258414 -0.6559911 0.5414486
vn -0.5258414 -0.6559911 0.5414486
vn -0.5258414 -0.6559911 0.5414486
vn -0.5258414 -0.6559911 0.5414486
vn 0.01103255 -0.6559901 0.7546889
vn 0.01103255 -0.6559901 0.7546889
vn 0.01103255 -0.6559901 0.7546889
vn 0.01103255 -0.6559901 0.7546889
vn 0.5414476 -0.6559906 0.5258431
vn 0.5414476 -0.6559906 0.5258431
vn 0.5414476 -0.6559906 0.5258431
vn 0.5414476 -0.6559906 0.5258431
vn 0.7546861 -0.6559932 -0.01103255
vn 0.7546861 -0.6559932 -0.01103255
vn 0.7546861 -0.6559932 -0.01103255
vn 0.7546861 -0.6559932 -0.01103255
vn 0.6967091 0 -0.7173538
vn 0.6967091 0 -0.7173538
vn 0.6967091 0 -0.7173538
vn 0.6967091 0 -0.7173538
vn -0.01461564 0 -0.9998932
vn -0.01461564 0 -0.9998932
vn -0.01461564 0 -0.9998932
vn -0.01461564 0 -0.9998932
vn -0.7173655 0 -0.6966971
vn -0.7173655 0 -0.6966971
vn -0.7173655 0 -0.6966971
vn -0.7173655 0 -0.6966971
vn -0.9998932 0 0.01461494
vn -0.9998932 0 0.01461494
vn -0.9998932 0 0.01461494
vn -0.9998932 0 0.01461494
vn -0.6966843 0 0.717378
vn -0.6966843 0 0.717378
vn -0.6966843 0 0.717378
vn -0.6966843 0 0.717378
vn 0.01459082 0 0.9998935
vn 0.01459082 0 0.9998935
vn 0.01459082 0 0.9998935
vn 0.01459082 0 0.9998935
vn 0.7173896 0 0.6966722
vn 0.7173896 0 0.6966722
vn 0.7173896 0 0.6966722
vn 0.7173896 0 0.6966722
vn 0.9998932 0 -0.01461529
vn 0.9998932 0 -0.01461529
vn 0.9998932 0 -0.01461529
vn 0.9998932 0 -0.01461529
vn 0.2032666 0.9564919 -0.2092987
vn 0.2032666 0.9564919 -0.2092987
vn 0.2032666 0.9564919 -0.2092987
vn 0.2032666 0.9564919 -0.2092987
vn -0.004265135 0.9564887 -0.2917382
vn -0.004265135 0.9564887 -0.2917382
vn -0.004265135 0.9564887 -0.2917382
vn -0.004265135 0.9564887 -0.2917382
vn -0.2093019 0.9564905 -0.2032698
vn -0.2093019 0.9564905 -0.2032698
vn -0.2093019 0.9564905 -0.2032698
vn -0.2093019 0.9564905 -0.2032698
vn -0.291725 0.9564928 0.004264941
vn -0.291725 0.9564928 0.004264941
vn -0.291725 0.9564928 0.004264941
vn -0.291725 0.9564928 0.004264941
vn -0.2032718 0.9564897 0.2093033
vn -0.2032718 0.9564897 0.2093033
vn -0.2032718 0.9564897 0.2093033
vn -0.2032718 0.9564897 0.2093033
vn 0.004265735 0.9564897 0.2917347
vn 0.004265735 0.9564897 0.2917347
vn 0.004265735 0.9564897 0.2917347
vn 0.004265735 0.9564897 0.2917347
vn 0.2093012 0.9564905 0.2032704
vn 0.2093012 0.9564905 0.2032704
vn 0.2093012 0.9564905 0.2032704
vn 0.2093012 0.9564905 0.2032704
vn 0.2917248 0.9564928 -0.00426494
vn 0.2917248 0.9564928 -0.00426494
vn 0.2917248 0.9564928 -0.00426494
vn 0.2917248 0.9564928 -0.00426494
vn -0.5373701 0.6364526 0.5533187
vn -0.5373701 0.6364526 0.5533187
vn -0.5373701 0.6364526 0.5533187
vn -0.5373701 0.6364526 0.5533187
vn 0.01127378 0.6364537 0.7712325
vn 0.01127378 0.6364537 0.7712325
vn 0.01127378 0.6364537 0.7712325
vn 0.01127378 0.6364537 0.7712325
vn 0.5533167 0.6364533 0.5373713
vn 0.5533167 0.6364533 0.5373713
vn 0.5533167 0.6364533 0.5373713
vn 0.5533167 0.6364533 0.5373713
vn 0.7712342 0.6364516 -0.01127988
vn 0.7712342 0.6364516 -0.01127988
vn 0.7712342 0.6364516 -0.01127988
vn 0.7712342 0.6364516 -0.01127988
vn 0.5373723 0.636454 -0.5533149
vn 0.5373723 0.636454 -0.5533149
vn 0.5373723 0.636454 -0.5533149
vn 0.5373723 0.636454 -0.5533149
vn -0.0112736 0.6364537 -0.7712325
vn -0.0112736 0.6364537 -0.7712325
vn -0.0112736 0.6364537 -0.7712325
vn -0.0112736 0.6364537 -0.7712325
vn -0.5533159 0.6364548 -0.5373703
vn -0.5533159 0.6364548 -0.5373703
vn -0.5533159 0.6364548 -0.5373703
vn -0.5533159 0.6364548 -0.5373703
vn -0.7712325 0.6364535 0.01127365
vn -0.7712325 0.6364535 0.01127365
vn -0.7712325 0.6364535 0.01127365
vn -0.7712325 0.6364535 0.01127365
vn 0 -1 0
vn 0 -1 0
vn 0 -1 0
vn 0 -1 0
vn 0 -1 0
vn 0 -1 0
vn 0 -1 0
vn 0 -1 0
vn 0 -1 0
vn 0 -1 0
vn 0 -1 0
vn 0 -1 0
vn 0 -1 0
vn 0 -1 0
vn 0 -1 0
vn 0 -1 0
g SM_Prop_Lab_Funnel_01_0
f 3/3/3 2/2/2 1/1/1
f 6/6/6 5/5/5 4/4/4
f 9/9/9 8/8/8 7/7/7
f 12/12/12 11/11/11 10/10/10
f 15/15/15 14/14/14 13/13/13
f 18/18/18 17/17/17 16/16/16
f 21/21/21 20/20/20 19/19/19
f 24/24/24 23/23/23 22/22/22
f 27/27/27 26/26/26 25/25/25
f 30/30/30 29/29/29 28/28/28
f 33/33/33 32/32/32 31/31/31
f 36/36/36 35/35/35 34/34/34
f 39/39/39 38/38/38 37/37/37
f 42/42/42 41/41/41 40/40/40
f 45/45/45 44/44/44 43/43/43
f 48/48/48 47/47/47 46/46/46
f 51/51/51 50/50/50 49/49/49
f 52/52/52 51/51/51 49/49/49
f 55/55/55 54/54/54 53/53/53
f 56/56/56 55/55/55 53/53/53
f 59/59/59 58/58/58 57/57/57
f 60/60/60 59/59/59 57/57/57
f 63/63/63 62/62/62 61/61/61
f 64/64/64 63/63/63 61/61/61
f 67/67/67 66/66/66 65/65/65
f 68/68/68 67/67/67 65/65/65
f 71/71/71 70/70/70 69/69/69
f 72/72/72 71/71/71 69/69/69
f 75/75/75 74/74/74 73/73/73
f 76/76/76 75/75/75 73/73/73
f 79/79/79 78/78/78 77/77/77
f 80/80/80 79/79/79 77/77/77
f 83/83/83 82/82/82 81/81/81
f 84/84/84 83/83/83 81/81/81
f 87/87/87 86/86/86 85/85/85
f 88/88/88 87/87/87 85/85/85
f 91/91/91 90/90/90 89/89/89
f 92/92/92 91/91/91 89/89/89
f 95/95/95 94/94/94 93/93/93
f 96/96/96 95/95/95 93/93/93
f 99/99/99 98/98/98 97/97/97
f 100/100/100 99/99/99 97/97/97
f 103/103/103 102/102/102 101/101/101
f 104/104/104 103/103/103 101/101/101
f 107/107/107 106/106/106 105/105/105
f 108/108/108 107/107/107 105/105/105
f 111/111/111 110/110/110 109/109/109
f 112/112/112 111/111/111 109/109/109
f 115/115/115 114/114/114 113/113/113
f 116/116/116 115/115/115 113/113/113
f 119/119/119 118/118/118 117/117/117
f 120/120/120 119/119/119 117/117/117
f 123/123/123 122/122/122 121/121/121
f 124/124/124 123/123/123 121/121/121
f 127/127/127 126/126/126 125/125/125
f 128/128/128 127/127/127 125/125/125
f 131/131/131 130/130/130 129/129/129
f 132/132/132 131/131/131 129/129/129
f 135/135/135 134/134/134 133/133/133
f 136/136/136 135/135/135 133/133/133
f 139/139/139 138/138/138 137/137/137
f 140/140/140 139/139/139 137/137/137
f 143/143/143 142/142/142 141/141/141
f 144/144/144 143/143/143 141/141/141
f 147/147/147 146/146/146 145/145/145
f 148/148/148 147/147/147 145/145/145
f 151/151/151 150/150/150 149/149/149
f 152/152/152 151/151/151 149/149/149
f 155/155/155 154/154/154 153/153/153
f 156/156/156 155/155/155 153/153/153
f 159/159/159 158/158/158 157/157/157
f 160/160/160 159/159/159 157/157/157
f 163/163/163 162/162/162 161/161/161
f 164/164/164 163/163/163 161/161/161
f 167/167/167 166/166/166 165/165/165
f 168/168/168 167/167/167 165/165/165
f 171/171/171 170/170/170 169/169/169
f 172/172/172 171/171/171 169/169/169
f 175/175/175 174/174/174 173/173/173
f 176/176/176 175/175/175 173/173/173
f 179/179/179 178/178/178 177/177/177
f 180/180/180 179/179/179 177/177/177
f 177/177/177 178/178/178 181/181/181
f 182/182/182 179/179/179 180/180/180
f 178/178/178 183/183/183 181/181/181
f 184/184/184 182/182/182 180/180/180
f 181/181/181 183/183/183 185/185/185
f 186/186/186 182/182/182 184/184/184
f 183/183/183 187/187/187 185/185/185
f 188/188/188 186/186/186 184/184/184
f 185/185/185 187/187/187 189/189/189
f 190/190/190 186/186/186 188/188/188
f 187/187/187 191/191/191 189/189/189
f 192/192/192 190/190/190 188/188/188
f 189/189/189 191/191/191 192/192/192
f 191/191/191 190/190/190 192/192/192
