g SM_Prop_Road_Barrier_01
v -0.2027667 -0.1381466 -0.1938972
v -0.2027667 -0.1381466 0.1938972
v -0.08866744 0.7100085 -0.07979774
v -0.08866744 0.7100085 0.07979774
v 0.07092895 0.7100085 -0.07979774
v 0.07092895 0.7100085 0.07979774
v 0.1850273 -0.1381466 -0.1938972
v 0.1850273 -0.1381466 0.1938972
v -0.202767 0.09489947 -0.1938972
v -0.202767 0.09489947 0.1938972
v 0.1850276 0.09489947 0.1938972
v 0.1850276 0.09489947 -0.1938972
v 0.07092895 0.09489939 0.07979774
v -0.08866744 0.09489953 0.07979774
v -0.08866744 0.09489953 -0.07979774
v 0.07092895 0.09489939 -0.07979774
v -0.1282745 0.7100085 -0.1485491
v -0.1282745 0.7100085 0.1485472
v 0.1105351 0.7100085 0.1485472
v 0.1105351 0.7100085 -0.1485491
v -0.1282745 1.17231 -0.1485491
v -0.1282745 1.17231 0.1485472
v 0.1105351 1.17231 0.1485472
v 0.1105351 1.17231 -0.1485491
v -0.1282745 1.10176 -0.059165
v 0.1105351 1.10176 -0.059165
v -0.1282745 1.10176 0.05916405
v 0.1105351 1.10176 0.05916405
v -0.1282745 1.17231 -0.09388822
v 0.1105351 1.17231 -0.09388822
v -0.1282745 1.17231 0.09388726
v 0.1105351 1.17231 0.09388726
v 0.05439132 0.9952366 0.1485472
v -0.07213073 0.9952366 0.1485472
v 0.05439132 1.129273 0.1485472
v -0.07213073 1.129273 0.1485472
v 0.0494873 1.000432 0.184963
v -0.06722672 1.000432 0.184963
v 0.0494873 1.124077 0.184963
v -0.06722672 1.124077 0.184963
v 0.03033005 1.023767 0.184963
v -0.04806946 1.023767 0.184963
v 0.03033005 1.100743 0.184963
v -0.04806946 1.100743 0.184963
v -0.04806946 1.085348 0.184963
v -0.04806931 1.069952 0.184963
v -0.04806946 1.054557 0.184963
v -0.04806961 1.039162 0.184963
v 0.03033005 1.039162 0.184963
v 0.03033005 1.054557 0.184963
v 0.03033005 1.069952 0.184963
v 0.03033005 1.085347 0.184963
v 0.07092895 0.09489939 0.07979774
v 0.07092895 0.09489939 -0.07979774
v -0.08866744 0.09489953 -0.07979774
v -0.202767 0.09489947 -0.1938972
v -0.2027667 -0.1381466 -0.1938972
v -0.202767 0.09489947 -0.1938972
v -0.202767 0.09489947 0.1938972
v -0.2027667 -0.1381466 0.1938972
v -0.2027667 -0.1381466 0.1938972
v -0.202767 0.09489947 0.1938972
v 0.1850276 0.09489947 0.1938972
v 0.1850273 -0.1381466 0.1938972
v 0.1850276 0.09489947 -0.1938972
v 0.1850273 -0.1381466 -0.1938972
v 0.1850273 -0.1381466 0.1938972
v 0.1850276 0.09489947 0.1938972
v 0.1850273 -0.1381466 -0.1938972
v 0.1850276 0.09489947 -0.1938972
v -0.202767 0.09489947 -0.1938972
v -0.2027667 -0.1381466 -0.1938972
v -0.08866744 0.09489953 0.07979774
v 0.07092895 0.09489939 0.07979774
v -0.08866744 0.09489953 -0.07979774
v -0.08866744 0.7100085 0.07979774
v -0.08866744 0.09489953 0.07979774
v 0.07092895 0.09489939 -0.07979774
v -0.08866744 0.7100085 -0.07979774
v -0.08866744 0.09489953 -0.07979774
v 0.07092895 0.7100085 -0.07979774
v 0.07092895 0.09489939 -0.07979774
v 0.07092895 0.09489939 0.07979774
v 0.07092895 0.7100085 0.07979774
v -0.08866744 0.7100085 -0.07979774
v -0.08866744 0.7100085 0.07979774
v 0.07092895 0.7100085 0.07979774
v 0.07092895 0.7100085 -0.07979774
v -0.1282745 0.7100085 -0.1485491
v -0.1282745 1.17231 -0.1485491
v 0.1105351 1.17231 -0.1485491
v 0.1105351 0.7100085 -0.1485491
v 0.1105351 0.7100085 -0.1485491
v 0.1105351 1.17231 -0.1485491
v -0.1282745 1.17231 -0.1485491
v -0.1282745 0.7100085 -0.1485491
v -0.1282745 1.10176 -0.059165
v 0.1105351 1.10176 -0.059165
v -0.1282745 1.10176 0.05916405
v -0.1282745 1.17231 0.1485472
v -0.1282745 0.7100085 0.1485472
v 0.1105351 0.7100085 0.1485472
v 0.1105351 1.17231 0.1485472
v 0.1105351 1.10176 0.05916405
v -0.1282745 1.17231 -0.09388822
v -0.1282745 1.10176 -0.059165
v -0.1282745 1.17231 -0.09388822
v 0.1105351 1.17231 -0.09388822
v 0.1105351 1.10176 -0.059165
v 0.1105351 1.17231 -0.09388822
v 0.1105351 1.10176 0.05916405
v 0.1105351 1.17231 0.09388726
v -0.1282745 1.17231 0.09388726
v -0.1282745 1.10176 0.05916405
v -0.1282745 1.17231 0.09388726
v 0.1105351 1.17231 0.09388726
v -0.1282745 0.7100085 0.1485472
v 0.1105351 0.7100085 0.1485472
v 0.1105351 1.17231 0.1485472
v -0.1282745 1.17231 0.1485472
v -0.07213073 0.9952366 0.1485472
v 0.05439132 0.9952366 0.1485472
v 0.05439132 0.9952366 0.1485472
v 0.0494873 1.000432 0.184963
v 0.05439132 1.129273 0.1485472
v 0.05439132 1.129273 0.1485472
v 0.0494873 1.124077 0.184963
v -0.07213073 1.129273 0.1485472
v -0.07213073 1.129273 0.1485472
v -0.06722672 1.124077 0.184963
v -0.06722672 1.000432 0.184963
v -0.07213073 0.9952366 0.1485472
v -0.06722672 1.000432 0.184963
v 0.0494873 1.000432 0.184963
v 0.03033005 1.100743 0.184963
v 0.0494873 1.124077 0.184963
v 0.03033005 1.023767 0.184963
v 0.03033005 1.085347 0.184963
v 0.03033005 1.100743 0.184963
v 0.03033005 1.023767 0.184963
v 0.03033005 1.054557 0.184963
v -0.04806946 1.100743 0.184963
v -0.06722672 1.124077 0.184963
v -0.04806946 1.085348 0.184963
v -0.04806961 1.039162 0.184963
v -0.06722672 1.124077 0.184963
v -0.04806946 1.054557 0.184963
v -0.04806946 1.085348 0.184963
v -0.04806946 1.054557 0.184963
v -0.04806931 1.069952 0.184963
v 0.03033005 1.069952 0.184963
v 0.03033005 1.054557 0.184963
v -0.04806931 1.069952 0.184963
v -0.04806946 1.085348 0.184963
v 0.03033005 1.085347 0.184963
v 0.03033005 1.069952 0.184963
v -0.04806946 1.023767 0.184963
v -0.04806961 1.039162 0.184963
v 0.03033005 1.039162 0.184963
v 0.03033005 1.023767 0.184963
v -0.04806961 1.039162 0.184963
v -0.04806946 1.054557 0.184963
v 0.03033005 1.054557 0.184963
v 0.03033005 1.039162 0.184963
vt 0.1022259 0.2301917
vt 0.1022259 0.2301917
vt 0.1022259 0.2301918
vt 0.1022259 0.2301918
vt 0.1022259 0.2301918
vt 0.1022258 0.2301918
vt 0.1022259 0.2301917
vt 0.1022259 0.2301917
vt 0.1022259 0.2301918
vt 0.1022259 0.2301918
vt 0.1022259 0.2301917
vt 0.1022259 0.2301917
vt 0.1022259 0.2301917
vt 0.1022259 0.2301917
vt 0.1022259 0.2301917
vt 0.1022259 0.2301917
vt 0.1022259 0.2301918
vt 0.1022259 0.2301918
vt 0.1022259 0.2301917
vt 0.1022259 0.2301917
vt 0.1022259 0.2301918
vt 0.1022259 0.2301918
vt 0.1022259 0.2301917
vt 0.1022259 0.2301917
vt 0.1022259 0.2301918
vt 0.1022259 0.2301917
vt 0.1022259 0.2301918
vt 0.1022259 0.2301917
vt 0.1022259 0.2301918
vt 0.1022259 0.2301917
vt 0.1022259 0.2301918
vt 0.1022259 0.2301917
vt 0.1022259 0.2301917
vt 0.1022259 0.2301918
vt 0.1022259 0.2301917
vt 0.1022259 0.2301918
vt 0.1334099 0.1796878
vt 0.1337866 0.1799126
vt 0.1333282 0.1790137
vt 0.1337307 0.1792088
vt 0.1334099 0.1796878
vt 0.1337866 0.1799126
vt 0.08138245 0.2522964
vt 0.0820623 0.2522948
vt 0.08205497 0.2525009
vt 0.1337531 0.1794903
vt 0.1337643 0.1796311
vt 0.1337754 0.1797718
vt 0.1333935 0.179553
vt 0.1333772 0.1794181
vt 0.1333609 0.1792833
vt 0.08138031 0.2524984
vt 0.1022258 0.2301918
vt 0.1022259 0.2301918
vt 0.1022259 0.2301917
vt 0.1022259 0.2301918
vt 0.1022259 0.2301917
vt 0.1022259 0.2301918
vt 0.1022259 0.2301918
vt 0.1022259 0.2301917
vt 0.1022259 0.2301917
vt 0.1022259 0.2301918
vt 0.1022258 0.2301918
vt 0.1022258 0.2301917
vt 0.1022259 0.2301917
vt 0.1022259 0.2301917
vt 0.1022259 0.2301917
vt 0.1022259 0.2301917
vt 0.1022259 0.2301917
vt 0.1022259 0.2301918
vt 0.1022259 0.2301918
vt 0.1022259 0.2301917
vt 0.1022259 0.2301917
vt 0.1022258 0.2301918
vt 0.1022259 0.2301917
vt 0.1022259 0.2301918
vt 0.1022259 0.2301917
vt 0.1022259 0.2301918
vt 0.1022259 0.2301918
vt 0.1022259 0.2301917
vt 0.1022259 0.2301917
vt 0.1022259 0.2301917
vt 0.1022259 0.2301917
vt 0.1022259 0.2301917
vt 0.1022259 0.2301918
vt 0.1022259 0.2301918
vt 0.1022259 0.2301917
vt 0.1022259 0.2301917
vt 0.1022259 0.2301918
vt 0.1022259 0.2301918
vt 0.1022259 0.2301917
vt 0.1022259 0.2301917
vt 0.1022259 0.2301917
vt 0.1022259 0.2301917
vt 0.1022259 0.2301918
vt 0.1022259 0.2301918
vt 0.1022259 0.2301918
vt 0.1022259 0.2301917
vt 0.1022259 0.2301918
vt 0.1022259 0.2301918
vt 0.1022259 0.2301918
vt 0.1022259 0.2301917
vt 0.1022259 0.2301917
vt 0.1022259 0.2301917
vt 0.1022259 0.2301918
vt 0.1022259 0.2301918
vt 0.1022259 0.2301918
vt 0.1022259 0.2301917
vt 0.1022259 0.2301917
vt 0.1022259 0.2301917
vt 0.1022259 0.2301917
vt 0.1022259 0.2301917
vt 0.1022259 0.2301918
vt 0.1022259 0.2301918
vt 0.1022259 0.2301918
vt 0.1022259 0.2301917
vt 0.1022259 0.2301918
vt 0.1022259 0.2301917
vt 0.1022259 0.2301917
vt 0.1022259 0.2301918
vt 0.1339388 0.179865
vt 0.1335315 0.1796311
vt 0.1335315 0.1796311
vt 0.1334099 0.1796878
vt 0.1334551 0.1789125
vt 0.1334551 0.1789125
vt 0.1333282 0.1790137
vt 0.133893 0.1791123
vt 0.133893 0.1791123
vt 0.1337307 0.1792088
vt 0.1337866 0.1799126
vt 0.1339388 0.179865
vt 0.1337866 0.1799126
vt 0.1334099 0.1796878
vt 0.1333282 0.1790137
vt 0.1333282 0.1790137
vt 0.1334099 0.1796878
vt 0.1333445 0.1791485
vt 0.1333282 0.1790137
vt 0.1334099 0.1796878
vt 0.1333772 0.1794181
vt 0.1337307 0.1792088
vt 0.1337307 0.1792088
vt 0.1337419 0.1793495
vt 0.1337754 0.1797718
vt 0.1337307 0.1792088
vt 0.1337643 0.1796311
vt 0.1337419 0.1793495
vt 0.08204063 0.2529038
vt 0.08204775 0.2527038
vt 0.08137822 0.2526976
vt 0.08137614 0.2528937
vt 0.1337531 0.1794903
vt 0.1337419 0.1793495
vt 0.1333445 0.1791485
vt 0.1333609 0.1792833
vt 0.08202668 0.2532948
vt 0.08203363 0.2531008
vt 0.08137405 0.2530871
vt 0.08137202 0.2532777
vt 0.1337754 0.1797718
vt 0.1337643 0.1796311
vt 0.1333772 0.1794181
vt 0.1333935 0.179553
vn 0 -1 0
vn 0 -1 0
vn -1 0 0
vn 0 0 1
vn 0 0 -1
vn 0 0 1
vn 0 -1 0
vn 0 -1 0
vn -1.200815E-07 1 0
vn -1.200815E-07 1 0
vn -2.454538E-07 1 0
vn -2.454538E-07 1 0
vn -2.454569E-07 1 0
vn -1.200813E-07 1 0
vn -1.200813E-07 1 0
vn -2.454569E-07 1 0
vn 0 -1 0
vn 0 -1 0
vn 0 -1 0
vn 0 -1 0
vn 0 1 0
vn 0 1 0
vn 0 1 0
vn 0 1 0
vn -1 0 0
vn 1 0 0
vn 0 1 0
vn 0 1 0
vn 0 1 0
vn 0 1 0
vn 0 1 0
vn 0 1 0
vn 0 0 1
vn 0 0 1
vn 0 0 1
vn 0 0 1
vn 0 -0.9899762 0.1412341
vn 0 -0.9899762 0.1412341
vn 0.9910539 0 0.1334625
vn 0 0.989976 0.1412361
vn 0 0 1
vn 0 0 1
vn 0 0 1
vn 0 0 1
vn 0 0 1
vn 0 1 0
vn 0 0 1
vn 0 0 1
vn 0 1 0
vn 0 1 0
vn 0 1 0
vn 0 0 1
vn -2.454569E-07 1 0
vn -2.454569E-07 1 0
vn -1.200813E-07 1 0
vn -1.200815E-07 1 0
vn -1 -1.309508E-06 0
vn -1 -1.309508E-06 0
vn -1 -1.309508E-06 0
vn -1 -1.309508E-06 0
vn 0 0 1
vn 0 0 1
vn 0 0 1
vn 0 0 1
vn 1 -1.309508E-06 0
vn 1 -1.309508E-06 0
vn 1 -1.309508E-06 0
vn 1 -1.309508E-06 0
vn 0 0 -1
vn 0 0 -1
vn 0 0 -1
vn 0 0 -1
vn 0 0 1
vn 0 0 1
vn -1 0 0
vn -1 0 0
vn -1 0 0
vn 0 0 -1
vn 0 0 -1
vn 0 0 -1
vn 1 0 0
vn 1 0 0
vn 1 0 0
vn 1 0 0
vn 0 -1 0
vn 0 -1 0
vn 0 -1 0
vn 0 -1 0
vn -1 0 0
vn -1 0 0
vn 1 0 0
vn 1 0 0
vn 0 0 -1
vn 0 0 -1
vn 0 0 -1
vn 0 0 -1
vn 0 1 0
vn 0 1 0
vn -1 0 0
vn -1 0 0
vn -1 0 0
vn 1 0 0
vn 1 0 0
vn 1 0 0
vn -1 0 0
vn 0 0.4415913 0.8972163
vn 0 0.4415913 0.8972163
vn 0 0.4415913 0.8972163
vn 0 0.4415913 0.8972163
vn 1 0 0
vn 0 0.4415913 -0.8972163
vn 0 0.4415913 -0.8972163
vn 0 0.4415913 -0.8972163
vn 0 0.4415913 -0.8972163
vn -1 0 0
vn 1 0 0
vn 0 0 1
vn 0 0 1
vn 0 0 1
vn 0 0 1
vn 0 -0.9899762 0.141234
vn 0 -0.9899762 0.141234
vn 0.9910539 0 0.1334625
vn 0.9910539 0 0.1334625
vn 0.9910539 0 0.1334625
vn 0 0.989976 0.1412361
vn 0 0.989976 0.1412361
vn 0 0.989976 0.1412361
vn -0.9910539 0 0.1334625
vn -0.9910539 0 0.1334625
vn -0.9910539 0 0.1334625
vn -0.9910539 0 0.1334625
vn 0 0 1
vn 0 0 1
vn 0 0 1
vn 0 0 1
vn 0 1 0
vn 0 1 0
vn 0 1 0
vn 0 1 0
vn 0 1 0
vn 0 0 1
vn 0 0 1
vn 0 0 1
vn 0 0 1
vn 0 0 1
vn 0 1 0
vn 0 1 0
vn 0 0 1
vn 0 0 1
vn 0 0 1
vn 0 0 1
vn 0 0 1
vn 0 0 1
vn 0 0 1
vn 0 0 1
vn 0 0 1
vn 0 0 1
vn 0 0 1
vn 0 0 1
vn 0 0 1
vn 0 0 1
vn 0 0 1
vn 0 0 1
g SM_Prop_Road_Barrier_01_0
f 141/141/141 49/49/49 140/140/140
f 46/46/46 148/148/148 147/147/147
f 14/14/14 15/15/15 9/9/9
f 10/10/10 14/14/14 9/9/9
f 53/53/53 14/14/14 10/10/10
f 11/11/11 53/53/53 10/10/10
f 13/13/13 11/11/11 16/16/16
f 11/11/11 12/12/12 16/16/16
f 55/55/55 54/54/54 12/12/12
f 56/56/56 55/55/55 12/12/12
f 30/30/30 24/24/24 21/21/21
f 29/29/29 30/30/30 21/21/21
f 2/2/2 1/1/1 7/7/7
f 8/8/8 2/2/2 7/7/7
f 59/59/59 58/58/58 57/57/57
f 60/60/60 59/59/59 57/57/57
f 63/63/63 62/62/62 61/61/61
f 64/64/64 63/63/63 61/61/61
f 67/67/67 66/66/66 65/65/65
f 68/68/68 67/67/67 65/65/65
f 71/71/71 70/70/70 69/69/69
f 72/72/72 71/71/71 69/69/69
f 6/6/6 4/4/4 73/73/73
f 74/74/74 6/6/6 73/73/73
f 76/76/76 3/3/3 75/75/75
f 77/77/77 76/76/76 75/75/75
f 79/79/79 5/5/5 78/78/78
f 80/80/80 79/79/79 78/78/78
f 83/83/83 82/82/82 81/81/81
f 84/84/84 83/83/83 81/81/81
f 43/43/43 44/44/44 45/45/45
f 52/52/52 43/43/43 45/45/45
f 95/95/95 94/94/94 93/93/93
f 96/96/96 95/95/95 93/93/93
f 97/97/97 27/27/27 28/28/28
f 98/98/98 97/97/97 28/28/28
f 22/22/22 23/23/23 32/32/32
f 31/31/31 22/22/22 32/32/32
f 25/25/25 105/105/105 90/90/90
f 25/25/25 90/90/90 89/89/89
f 99/99/99 25/25/25 89/89/89
f 101/101/101 99/99/99 89/89/89
f 101/101/101 100/100/100 99/99/99
f 100/100/100 115/115/115 99/99/99
f 108/108/108 107/107/107 106/106/106
f 109/109/109 108/108/108 106/106/106
f 91/91/91 110/110/110 26/26/26
f 92/92/92 91/91/91 26/26/26
f 92/92/92 26/26/26 102/102/102
f 26/26/26 104/104/104 102/102/102
f 104/104/104 103/103/103 102/102/102
f 104/104/104 116/116/116 103/103/103
f 113/113/113 112/112/112 111/111/111
f 114/114/114 113/113/113 111/111/111
f 37/37/37 38/38/38 121/121/121
f 122/122/122 37/37/37 121/121/121
f 39/39/39 124/124/124 123/123/123
f 125/125/125 39/39/39 123/123/123
f 40/40/40 127/127/127 126/126/126
f 128/128/128 40/40/40 126/126/126
f 131/131/131 130/130/130 129/129/129
f 132/132/132 131/131/131 129/129/129
f 139/139/139 138/138/138 137/137/137
f 138/138/138 51/51/51 137/137/137
f 51/51/51 50/50/50 137/137/137
f 143/143/143 48/48/48 47/47/47
f 143/143/143 47/47/47 144/144/144
f 144/144/144 142/142/142 143/143/143
f 143/143/143 142/142/142 136/136/136
f 142/142/142 135/135/135 136/136/136
f 134/134/134 136/136/136 135/135/135
f 135/135/135 41/41/41 134/134/134
f 134/134/134 41/41/41 133/133/133
f 41/41/41 42/42/42 133/133/133
f 133/133/133 42/42/42 145/145/145
f 145/145/145 146/146/146 133/133/133
f 151/151/151 150/150/150 149/149/149
f 152/152/152 151/151/151 149/149/149
f 155/155/155 154/154/154 153/153/153
f 156/156/156 155/155/155 153/153/153
f 159/159/159 158/158/158 157/157/157
f 160/160/160 159/159/159 157/157/157
f 163/163/163 162/162/162 161/161/161
f 164/164/164 163/163/163 161/161/161
f 120/120/120 36/36/36 119/119/119
f 36/36/36 35/35/35 119/119/119
f 34/34/34 36/36/36 120/120/120
f 119/119/119 35/35/35 118/118/118
f 117/117/117 34/34/34 120/120/120
f 35/35/35 33/33/33 118/118/118
f 33/33/33 34/34/34 117/117/117
f 118/118/118 33/33/33 117/117/117
f 88/88/88 20/20/20 87/87/87
f 20/20/20 19/19/19 87/87/87
f 17/17/17 20/20/20 88/88/88
f 87/87/87 19/19/19 86/86/86
f 85/85/85 17/17/17 88/88/88
f 19/19/19 18/18/18 86/86/86
f 18/18/18 17/17/17 85/85/85
f 86/86/86 18/18/18 85/85/85
