g SM_Prop_Kitchen_Fridge_Tray_01
v 0.4151925 0.2308777 -0.2890209
v 0.3990855 0.09933707 -0.2863364
v 0.06262788 0.1852411 -0.3015485
v -0.4384791 0.3355732 -0.3534489
v -0.4581655 0.2917264 0.3463112
v -0.4563758 0.2496692 0.3006747
v -0.4581655 0.2639865 0.3445216
v -0.3821046 0.09844223 -0.3087072
v 0.3990855 0.09933707 -0.2863364
v 0.3838733 0.06533334 0.2702504
v -0.3982116 0.06354371 0.2487743
v 0.4572497 0.3364681 -0.3283936
v 0.439353 0.2514589 0.3257301
v 0.4375633 0.293516 0.3713666
v 0.4375633 0.2648813 0.3695769
v 0.4277202 0.04385737 -0.3257091
v -0.4080548 0.04206768 -0.3489748
v -0.4259515 0.004484653 0.2639865
v 0.4107183 0.005379498 0.2872522
v -0.4581655 0.2639865 0.3445216
v -0.4581655 0.2917264 0.3463112
v 0.4375633 0.293516 0.3713666
v 0.4375633 0.2648813 0.3695769
v -0.4080548 0.04206768 -0.3489748
v -0.4384791 0.3355732 -0.3534489
v -0.4563758 0.2496692 0.3006747
v -0.4259515 0.004484653 0.2639865
v -0.4259515 0.004484653 0.2639865
v -0.4563758 0.2496692 0.3006747
v 0.439353 0.2514589 0.3257301
v 0.4107183 0.005379498 0.2872522
v 0.4572497 0.3364681 -0.3283936
v 0.4277202 0.04385737 -0.3257091
v 0.4107183 0.005379498 0.2872522
v 0.439353 0.2514589 0.3257301
v 0.4277202 0.04385737 -0.3257091
v 0.4572497 0.3364681 -0.3283936
v -0.4384791 0.3355732 -0.3534489
v -0.4080548 0.04206768 -0.3489748
v -0.4563758 0.2496692 0.3006747
v -0.4581655 0.2639865 0.3445216
v 0.4375633 0.2648813 0.3695769
v 0.439353 0.2514589 0.3257301
v -0.4107393 0.3328887 -0.3140762
v -0.4143186 0.1941895 0.2675658
v -0.4268463 0.2962005 0.282778
v -0.4053703 0.1861359 -0.05099505
v -0.3982116 0.2299828 -0.3113917
v -0.4268463 0.2962005 0.282778
v -0.4143186 0.1941895 0.2675658
v 0.3981906 0.1950843 0.2908315
v 0.4098235 0.2970953 0.3060437
v 0.4062441 0.1843463 0.02506584
v 0.4151925 0.2308777 -0.2890209
v 0.4268253 0.3346784 -0.2899157
v 0.4098235 0.2970953 0.3060437
v 0.3981906 0.1950843 0.2908315
v 0.4268253 0.3346784 -0.2899157
v -0.3982116 0.2299828 -0.3113917
v -0.4107393 0.3328887 -0.3140762
v 0.06262788 0.1852411 -0.3015485
v 0.4151925 0.2308777 -0.2890209
v -0.3821046 0.09844223 -0.3087072
v -0.3982116 0.06354371 0.2487743
v -0.4143186 0.1941895 0.2675658
v -0.4053703 0.1861359 -0.05099505
v -0.3982116 0.2299828 -0.3113917
v 0.3990855 0.09933707 -0.2863364
v -0.3821046 0.09844223 -0.3087072
v -0.3982116 0.2299828 -0.3113917
v 0.06262788 0.1852411 -0.3015485
v 0.3990855 0.09933707 -0.2863364
v 0.4151925 0.2308777 -0.2890209
v 0.4062441 0.1843463 0.02506584
v 0.3981906 0.1950843 0.2908315
v 0.3838733 0.06533334 0.2702504
v -0.4143186 0.1941895 0.2675658
v -0.3982116 0.06354371 0.2487743
v 0.3838733 0.06533334 0.2702504
v 0.3981906 0.1950843 0.2908315
v 0.4375633 0.293516 0.3713666
v 0.4268253 0.3346784 -0.2899157
v 0.4572497 0.3364681 -0.3283936
v 0.4098235 0.2970953 0.3060437
v -0.4107393 0.3328887 -0.3140762
v -0.4581655 0.2917264 0.3463112
v -0.4384791 0.3355732 -0.3534489
v -0.4268463 0.2962005 0.282778
vt 0.05918503 0.2758894
vt 0.05918503 0.2758894
vt 0.05918503 0.2758894
vt 0.1016761 0.3300655
vt 0.1016761 0.3300655
vt 0.1016761 0.3300655
vt 0.1016761 0.3300655
vt 0.05918503 0.2758894
vt 0.05918503 0.2758894
vt 0.05918503 0.2758894
vt 0.05918503 0.2758894
vt 0.1016761 0.3300655
vt 0.1016761 0.3300655
vt 0.1016761 0.3300655
vt 0.1016761 0.3300655
vt 0.1016761 0.3300655
vt 0.1016761 0.3300655
vt 0.1016761 0.3300655
vt 0.1016761 0.3300655
vt 0.1016761 0.3300655
vt 0.1016761 0.3300655
vt 0.1016761 0.3300655
vt 0.1016761 0.3300655
vt 0.1016761 0.3300655
vt 0.1016761 0.3300655
vt 0.1016761 0.3300655
vt 0.1016761 0.3300655
vt 0.1016761 0.3300655
vt 0.1016761 0.3300655
vt 0.1016761 0.3300655
vt 0.1016761 0.3300655
vt 0.1016761 0.3300655
vt 0.1016761 0.3300655
vt 0.1016761 0.3300655
vt 0.1016761 0.3300655
vt 0.1016761 0.3300655
vt 0.1016761 0.3300655
vt 0.1016761 0.3300655
vt 0.1016761 0.3300655
vt 0.1016761 0.3300655
vt 0.1016761 0.3300655
vt 0.1016761 0.3300655
vt 0.1016761 0.3300655
vt 0.1016761 0.3300655
vt 0.1016761 0.3300655
vt 0.1016761 0.3300655
vt 0.1016761 0.3300655
vt 0.1016761 0.3300655
vt 0.1016761 0.3300655
vt 0.1016761 0.3300655
vt 0.1016761 0.3300655
vt 0.1016761 0.3300655
vt 0.1016761 0.3300655
vt 0.1016761 0.3300655
vt 0.1016761 0.3300655
vt 0.1016761 0.3300655
vt 0.1016761 0.3300655
vt 0.1016761 0.3300655
vt 0.1016761 0.3300655
vt 0.1016761 0.3300655
vt 0.1016761 0.3300655
vt 0.1016761 0.3300655
vt 0.05918503 0.2758894
vt 0.05918503 0.2758894
vt 0.05918503 0.2758894
vt 0.05918503 0.2758894
vt 0.05918503 0.2758894
vt 0.05918503 0.2758894
vt 0.05918503 0.2758894
vt 0.05918503 0.2758894
vt 0.05918503 0.2758894
vt 0.05918503 0.2758894
vt 0.05918503 0.2758894
vt 0.05918503 0.2758894
vt 0.05918503 0.2758894
vt 0.05918503 0.2758894
vt 0.05918503 0.2758894
vt 0.05918503 0.2758894
vt 0.05918503 0.2758894
vt 0.05918503 0.2758894
vt 0.1016761 0.3300655
vt 0.1016761 0.3300655
vt 0.1016761 0.3300655
vt 0.1016761 0.3300655
vt 0.1016761 0.3300655
vt 0.1016761 0.3300655
vt 0.1016761 0.3300655
vt 0.1016761 0.3300655
vn -0.04760009 0.01586682 0.9987404
vn -0.01586682 0.04760009 0.9987404
vn -0.04760009 0.01586682 0.9987404
vn -0.9996017 -0.01586664 -0.02333981
vn -0.9996017 -0.01586664 -0.02333981
vn -0.9996017 -0.01586664 -0.02333981
vn -0.9996017 -0.01586664 -0.02333981
vn -0.01586682 0.9996017 0.02333938
vn -0.01586682 0.9996017 0.02333938
vn -0.01586682 0.9996017 0.02333938
vn -0.01586682 0.9996017 0.02333938
vn 0.9996015 0.01586682 0.0233448
vn 0.9996015 0.01586682 0.0233448
vn 0.9996015 0.01586682 0.0233448
vn 0.9996015 0.01586682 0.0233448
vn 0.01586664 -0.9996015 -0.02334449
vn 0.01586664 -0.9996015 -0.02334449
vn 0.01586664 -0.9996015 -0.02334449
vn 0.01586664 -0.9996015 -0.02334449
vn -0.01586682 -0.04760003 0.9987404
vn -0.01586682 -0.04760003 0.9987404
vn -0.01586682 -0.04760003 0.9987404
vn -0.01586682 -0.04760003 0.9987404
vn -0.9938837 -0.1104314 0
vn -0.9938837 -0.1104314 0
vn -0.9938837 -0.1104314 0
vn -0.9938837 -0.1104314 0
vn -0.01586682 -0.1428002 0.9896243
vn -0.01586682 -0.1428002 0.9896243
vn -0.01586682 -0.1428002 0.9896243
vn -0.01586682 -0.1428002 0.9896243
vn 0.9938837 -0.1104314 0
vn 0.9938837 -0.1104314 0
vn 0.9938837 -0.1104314 0
vn 0.9938837 -0.1104314 0
vn 0.01586664 -0.01586664 -0.9997482
vn 0.01586664 -0.01586664 -0.9997482
vn 0.01586664 -0.01586664 -0.9997482
vn 0.01586664 -0.01586664 -0.9997482
vn -0.01586682 -0.9678681 0.2509571
vn -0.01586682 -0.9678681 0.2509571
vn -0.01586682 -0.9678681 0.2509571
vn -0.01586682 -0.9678681 0.2509571
vn 0.9938837 0.1104316 0
vn 0.9938837 0.1104316 0
vn 0.9938837 0.1104316 0
vn 0.9938837 0.1104316 0
vn 0.9938837 0.1104316 0
vn 0.01586664 0.1428003 -0.9896243
vn 0.01586664 0.1428003 -0.9896243
vn 0.01586664 0.1428003 -0.9896243
vn 0.01586664 0.1428003 -0.9896243
vn -0.9938837 0.1104315 0
vn -0.9938837 0.1104315 0
vn -0.9938837 0.1104315 0
vn -0.9938837 0.1104315 0
vn -0.9938837 0.1104315 0
vn -0.04760009 0.01586682 0.9987404
vn -0.01586682 0.01586682 0.9997482
vn -0.01586682 0.01586682 0.9997482
vn -0.04760009 0.01586682 0.9987404
vn -0.04760009 0.01586682 0.9987404
vn 0.9899495 0.1414214 0
vn 0.9899495 0.1414214 0
vn 0.9938837 0.1104316 0
vn 0.9938837 0.1104316 0
vn 0.9938837 0.1104316 0
vn -0.01586682 0.04760009 0.9987404
vn -0.01586682 0.04760009 0.9987404
vn -0.01586682 0.01586682 0.9997482
vn -0.04760009 0.01586682 0.9987404
vn -0.9938837 0.1104315 0
vn -0.9938837 0.1104315 0
vn -0.9938837 0.1104315 0
vn -0.9938837 0.1104315 0
vn -0.9899496 0.1414214 0
vn 0.01586664 0.1428003 -0.9896243
vn 0.01586664 0.1428003 -0.9896243
vn 0.01586664 0.1428003 -0.9896243
vn 0.01586664 0.1428003 -0.9896243
vn -0.01586682 0.9996017 0.02333938
vn -0.01586682 0.9996017 0.02333938
vn -0.01586682 0.9996017 0.02333938
vn -0.01586682 0.9996017 0.02333938
vn -0.01586682 0.9996017 0.02333938
vn -0.01586682 0.9996017 0.02333938
vn -0.01586682 0.9996017 0.02333938
vn -0.01586682 0.9996017 0.02333938
g SM_Prop_Kitchen_Fridge_Tray_01_0
f 3/3/3 2/2/2 1/1/1
f 6/6/6 5/5/5 4/4/4
f 6/6/6 7/7/7 5/5/5
f 10/10/10 9/9/9 8/8/8
f 11/11/11 10/10/10 8/8/8
f 14/14/14 13/13/13 12/12/12
f 14/14/14 15/15/15 13/13/13
f 18/18/18 17/17/17 16/16/16
f 19/19/19 18/18/18 16/16/16
f 22/22/22 21/21/21 20/20/20
f 23/23/23 22/22/22 20/20/20
f 26/26/26 25/25/25 24/24/24
f 27/27/27 26/26/26 24/24/24
f 30/30/30 29/29/29 28/28/28
f 31/31/31 30/30/30 28/28/28
f 34/34/34 33/33/33 32/32/32
f 35/35/35 34/34/34 32/32/32
f 38/38/38 37/37/37 36/36/36
f 39/39/39 38/38/38 36/36/36
f 42/42/42 41/41/41 40/40/40
f 43/43/43 42/42/42 40/40/40
f 46/46/46 45/45/45 44/44/44
f 45/45/45 47/47/47 44/44/44
f 47/47/47 48/48/48 44/44/44
f 51/51/51 50/50/50 49/49/49
f 52/52/52 51/51/51 49/49/49
f 55/55/55 54/54/54 53/53/53
f 55/55/55 53/53/53 56/56/56
f 53/53/53 57/57/57 56/56/56
f 60/60/60 59/59/59 58/58/58
f 59/59/59 61/61/61 58/58/58
f 61/61/61 62/62/62 58/58/58
f 65/65/65 64/64/64 63/63/63
f 66/66/66 65/65/65 63/63/63
f 66/66/66 63/63/63 67/67/67
f 70/70/70 69/69/69 68/68/68
f 71/71/71 70/70/70 68/68/68
f 74/74/74 73/73/73 72/72/72
f 74/74/74 72/72/72 75/75/75
f 72/72/72 76/76/76 75/75/75
f 79/79/79 78/78/78 77/77/77
f 80/80/80 79/79/79 77/77/77
f 83/83/83 82/82/82 81/81/81
f 82/82/82 84/84/84 81/81/81
f 85/85/85 82/82/82 83/83/83
f 81/81/81 84/84/84 86/86/86
f 87/87/87 85/85/85 83/83/83
f 84/84/84 88/88/88 86/86/86
f 88/88/88 85/85/85 87/87/87
f 86/86/86 88/88/88 87/87/87
