g SM_Prop_Road_Barrier_Arm_01
v -5.605915 -0.03793871 0.0558438
v 0.9869476 -0.03793871 0.0558438
v -5.605915 0.03793813 0.0558438
v 0.9869476 0.03793813 0.0558438
v -5.605915 0.01255468 -0.0558438
v 0.9869476 0.03793813 -0.0558438
v -5.605915 -0.03793871 -0.0558438
v 0.9869476 -0.03793871 -0.0558438
v -2.309484 -0.03793871 0.0558438
v -2.309484 -0.03793871 -0.0558438
v -2.309484 0.03793813 -0.0558438
v -2.319781 0.03793813 0.01922836
v -0.6612679 -0.03793871 0.0558438
v -0.6612679 0.03793813 0.0558438
v -0.6612679 0.03793813 -0.0558438
v -0.6612679 -0.03793871 -0.0558438
v -3.957699 -0.03793871 0.0558438
v -3.957699 -0.03793871 -0.0558438
v -3.957699 0.03793813 -0.0558438
v -3.963079 0.03793813 0.01841695
v -4.781806 -0.03793871 0.0558438
v -4.781806 -0.03793871 -0.0558438
v -4.781806 0.03793813 -0.0558438
v -4.781806 0.03793813 0.0558438
v -3.133591 -0.03793871 0.0558438
v -3.133591 0.03793813 0.0558438
v -3.133591 0.03793813 -0.0558438
v -3.133591 -0.03793871 -0.0558438
v -1.485376 -0.03793871 0.0558438
v -1.485376 -0.03793871 -0.0558438
v -1.485376 0.006805855 -0.0558438
v -1.485376 0.03793813 0.0558438
v 0.1628399 -0.03793871 0.0558438
v 0.1628399 0.03793813 0.0558438
v 0.1628399 0.03793813 -0.0558438
v 0.1628399 -0.03793871 -0.0558438
v -2.71229 0.03793813 0.0558438
v -2.405204 0.03793813 0.0558438
v -2.542258 0.03793813 0.01607882
v -2.548992 0.001782204 0.05584381
v -2.367228 0.03793813 0.0558438
v -2.210032 0.03793813 0.0558438
v -2.309484 0.001909691 0.0558438
v -1.322209 0.03793813 -0.05584381
v -1.47147 0.03793813 -0.024876
v -1.565885 0.03793813 -0.0558438
v -5.486437 0.03793813 -0.0558438
v -5.605915 0.03793813 -0.01357782
v -4.100723 0.03793813 0.0558438
v -3.848897 0.03793813 0.0558438
v -3.957699 0.01503507 0.0558438
v -0.06377565 -0.03793864 0.05584381
v -0.06377565 -0.03793864 -0.05584381
v -0.06377565 0.03793813 -0.05584381
v -0.06377565 0.03793813 0.05584381
v 0.05236727 -0.03793864 0.05584381
v 0.05236727 0.03793813 0.05584381
v 0.05236727 0.03793813 -0.05584381
v 0.05236727 -0.03793864 -0.05584381
v -0.05666023 0.07064328 0.09312811
v -0.05666023 -0.07064379 0.09312811
v 0.04525185 -0.07064379 0.09312811
v 0.04525185 0.07064328 0.09312811
v -0.05666023 0.07064328 -0.09312811
v 0.04525185 0.07064328 -0.09312811
v -0.05666023 -0.07064379 -0.09312811
v 0.04525185 -0.07064379 -0.09312811
v 0.2047978 -0.03793871 -0.0332085
v 0.2047978 -0.03793871 0.0332085
v 0.9449897 -0.03793871 -0.0332085
v 0.9449897 -0.03793871 0.0332085
v 0.2832243 -0.1357817 -0.0332085
v 0.2832243 -0.1357817 0.0332085
v 0.8713941 -0.1357817 -0.0332085
v 0.8713941 -0.1357817 0.0332085
v -0.6612679 0.03793813 0.0558438
v -1.485376 0.03793813 0.0558438
v -0.6612679 0.03793813 -0.0558438
v -1.322209 0.03793813 -0.05584381
v -1.485376 -0.03793871 0.0558438
v -0.6612679 -0.03793871 0.0558438
v -0.6612679 -0.03793871 -0.0558438
v -1.485376 -0.03793871 -0.0558438
v -3.957699 -0.03793871 -0.0558438
v -3.133591 -0.03793871 -0.0558438
v -3.957699 0.03793813 -0.0558438
v -3.133591 0.03793813 -0.0558438
v -3.848897 0.03793813 0.0558438
v -3.133591 0.03793813 0.0558438
v -3.133591 -0.03793871 0.0558438
v -3.957699 -0.03793871 0.0558438
v 0.04525185 0.07064328 0.09312811
v -0.05666023 0.07064328 0.09312811
v 0.04525185 0.07064328 -0.09312811
v -0.05666023 0.07064328 -0.09312811
v -0.05666023 -0.07064379 0.09312811
v 0.04525185 -0.07064379 0.09312811
v 0.04525185 -0.07064379 -0.09312811
v -0.05666023 -0.07064379 -0.09312811
v -3.957699 -0.03793871 0.0558438
v -3.957699 -0.03793871 -0.0558438
v -4.781806 -0.03793871 -0.0558438
v -3.957699 -0.03793871 -0.0558438
v -3.957699 0.03793813 -0.0558438
v -4.781806 0.03793813 -0.0558438
v -3.957699 0.03793813 -0.0558438
v -3.963079 0.03793813 0.01841695
v -4.100723 0.03793813 0.0558438
v -3.957699 0.01503507 0.0558438
v -3.957699 -0.03793871 0.0558438
v -4.781806 -0.03793871 0.0558438
v -4.781806 0.03793813 0.0558438
v -5.605915 -0.03793871 -0.0558438
v -5.605915 -0.03793871 0.0558438
v -4.781806 -0.03793871 0.0558438
v -4.781806 -0.03793871 -0.0558438
v -5.605915 0.03793813 -0.01357782
v -4.781806 0.03793813 -0.0558438
v -4.781806 0.03793813 0.0558438
v -5.605915 0.03793813 0.0558438
v -5.605915 -0.03793871 0.0558438
v -5.605915 0.03793813 0.0558438
v -4.781806 0.03793813 0.0558438
v -4.781806 -0.03793871 0.0558438
v -3.133591 0.03793813 -0.0558438
v -3.133591 0.03793813 0.0558438
v -3.133591 -0.03793871 -0.0558438
v -3.133591 0.03793813 -0.0558438
v -3.133591 -0.03793871 0.0558438
v -2.309484 -0.03793871 0.0558438
v -2.309484 -0.03793871 -0.0558438
v -3.133591 -0.03793871 -0.0558438
v -2.309484 -0.03793871 0.0558438
v -1.485376 -0.03793871 0.0558438
v -1.485376 -0.03793871 -0.0558438
v -2.309484 -0.03793871 -0.0558438
v -2.309484 -0.03793871 -0.0558438
v -1.485376 -0.03793871 -0.0558438
v -1.485376 0.006805855 -0.0558438
v -2.309484 0.03793813 -0.0558438
v -2.309484 0.03793813 -0.0558438
v -1.565885 0.03793813 -0.0558438
v -1.47147 0.03793813 -0.024876
v -1.485376 0.03793813 0.0558438
v -2.210032 0.03793813 0.0558438
v -1.485376 0.03793813 0.0558438
v -1.485376 -0.03793871 0.0558438
v -2.309484 -0.03793871 0.0558438
v -2.309484 0.001909691 0.0558438
v 0.9869476 0.03793813 0.0558438
v 0.9869476 -0.03793871 0.0558438
v 0.9869476 0.03793813 -0.0558438
v 0.9869476 0.03793813 0.0558438
v 0.1628399 0.03793813 0.0558438
v 0.9869476 -0.03793871 -0.0558438
v 0.9869476 0.03793813 -0.0558438
v 0.1628399 0.03793813 -0.0558438
v -2.71229 0.03793813 0.0558438
v -2.542258 0.03793813 0.01607882
v -2.548992 0.001782204 0.05584381
v -2.319781 0.03793813 0.01922836
v -2.210032 0.03793813 0.0558438
v -2.309484 0.001909691 0.0558438
v -2.367228 0.03793813 0.0558438
v -2.319781 0.03793813 0.01922836
v -2.309484 0.001909691 0.0558438
v -2.542258 0.03793813 0.01607882
v -2.405204 0.03793813 0.0558438
v -2.548992 0.001782204 0.05584381
v -2.309484 0.03793813 -0.0558438
v -2.319781 0.03793813 0.01922836
v -2.405204 0.03793813 0.0558438
v -2.367228 0.03793813 0.0558438
v -3.133591 0.03793813 0.0558438
v -2.71229 0.03793813 0.0558438
v -3.133591 -0.03793871 0.0558438
v -1.485376 0.006805855 -0.0558438
v -1.322209 0.03793813 -0.05584381
v -1.47147 0.03793813 -0.024876
v -1.565885 0.03793813 -0.0558438
v -1.485376 0.006805855 -0.0558438
v -1.47147 0.03793813 -0.024876
v -5.605915 -0.03793871 -0.0558438
v -4.781806 -0.03793871 -0.0558438
v -4.781806 0.03793813 -0.0558438
v -5.486437 0.03793813 -0.0558438
v -5.605915 0.01255468 -0.0558438
v -5.605915 0.03793813 -0.01357782
v -5.605915 0.01255468 -0.0558438
v -5.486437 0.03793813 -0.0558438
v -3.963079 0.03793813 0.01841695
v -3.848897 0.03793813 0.0558438
v -3.957699 0.01503507 0.0558438
v -4.100723 0.03793813 0.0558438
v -3.963079 0.03793813 0.01841695
v -3.957699 0.01503507 0.0558438
v -0.6612679 -0.03793871 0.0558438
v -0.6612679 -0.03793871 -0.0558438
v -0.6612679 -0.03793871 -0.0558438
v -0.06377565 -0.03793864 -0.05584381
v -0.6612679 0.03793813 -0.0558438
v -0.6612679 0.03793813 -0.0558438
v -0.06377565 0.03793813 -0.05584381
v -0.6612679 0.03793813 0.0558438
v -0.6612679 0.03793813 0.0558438
v -0.06377565 0.03793813 0.05584381
v -0.06377565 -0.03793864 0.05584381
v -0.6612679 -0.03793871 0.0558438
v 0.1628399 0.03793813 0.0558438
v 0.1628399 -0.03793871 0.0558438
v 0.1628399 0.03793813 -0.0558438
v 0.1628399 0.03793813 0.0558438
v 0.05236727 0.03793813 0.05584381
v 0.1628399 -0.03793871 -0.0558438
v 0.1628399 0.03793813 -0.0558438
v 0.05236727 0.03793813 -0.05584381
v 0.05236727 -0.03793864 0.05584381
v 0.1628399 -0.03793871 0.0558438
v 0.1628399 -0.03793871 -0.0558438
v 0.05236727 -0.03793864 -0.05584381
v -0.06377565 0.03793813 0.05584381
v -0.05666023 0.07064328 0.09312811
v -0.05666023 -0.07064379 0.09312811
v -0.06377565 -0.03793864 0.05584381
v 0.05236727 -0.03793864 0.05584381
v 0.04525185 -0.07064379 0.09312811
v 0.04525185 0.07064328 0.09312811
v 0.05236727 0.03793813 0.05584381
v -0.06377565 0.03793813 -0.05584381
v -0.05666023 0.07064328 -0.09312811
v -0.05666023 0.07064328 0.09312811
v -0.06377565 0.03793813 0.05584381
v 0.05236727 0.03793813 0.05584381
v 0.04525185 0.07064328 0.09312811
v 0.04525185 0.07064328 -0.09312811
v 0.05236727 0.03793813 -0.05584381
v -0.06377565 -0.03793864 -0.05584381
v -0.05666023 -0.07064379 -0.09312811
v -0.05666023 0.07064328 -0.09312811
v -0.06377565 0.03793813 -0.05584381
v 0.05236727 0.03793813 -0.05584381
v 0.04525185 0.07064328 -0.09312811
v 0.04525185 -0.07064379 -0.09312811
v 0.05236727 -0.03793864 -0.05584381
v -0.06377565 -0.03793864 0.05584381
v -0.05666023 -0.07064379 0.09312811
v -0.05666023 -0.07064379 -0.09312811
v -0.06377565 -0.03793864 -0.05584381
v 0.05236727 -0.03793864 -0.05584381
v 0.04525185 -0.07064379 -0.09312811
v 0.04525185 -0.07064379 0.09312811
v 0.05236727 -0.03793864 0.05584381
v 0.1628399 -0.03793871 0.0558438
v 0.1628399 -0.03793871 -0.0558438
v 0.9869476 -0.03793871 -0.0558438
v 0.9869476 -0.03793871 0.0558438
v 0.2047978 -0.03793871 0.0332085
v 0.2832243 -0.1357817 0.0332085
v 0.2832243 -0.1357817 -0.0332085
v 0.2047978 -0.03793871 -0.0332085
v 0.2047978 -0.03793871 -0.0332085
v 0.2832243 -0.1357817 -0.0332085
v 0.8713941 -0.1357817 -0.0332085
v 0.9449897 -0.03793871 -0.0332085
v 0.9449897 -0.03793871 -0.0332085
v 0.8713941 -0.1357817 -0.0332085
v 0.8713941 -0.1357817 0.0332085
v 0.9449897 -0.03793871 0.0332085
v 0.9449897 -0.03793871 0.0332085
v 0.8713941 -0.1357817 0.0332085
v 0.2832243 -0.1357817 0.0332085
v 0.2047978 -0.03793871 0.0332085
vt 0.1049934 0.1831407
vt 0.1019421 0.3535023
vt 0.1049992 0.1831323
vt 0.1019402 0.3534925
vt 0.1049843 0.1831259
vt 0.1019431 0.3534812
vt 0.1049797 0.1831328
vt 0.1019449 0.3534909
vt 0.1025262 0.353478
vt 0.1025181 0.3534675
vt 0.1025212 0.353458
vt 0.1045206 0.1831469
vt 0.1022403 0.3534898
vt 0.1022412 0.3534802
vt 0.1022382 0.3534693
vt 0.1022374 0.3534789
vt 0.1047617 0.1831486
vt 0.1047527 0.1831405
vt 0.1047562 0.183132
vt 0.1047638 0.1831387
vt 0.1029337 0.353461
vt 0.1029183 0.3534511
vt 0.1029246 0.3534418
vt 0.1029402 0.3534516
vt 0.1046421 0.1831527
vt 0.1046446 0.1831441
vt 0.104638 0.1831359
vt 0.1046356 0.1831444
vt 0.1023848 0.3534839
vt 0.1023792 0.3534732
vt 0.1023808 0.3534656
vt 0.1023868 0.3534742
vt 0.1020928 0.353496
vt 0.1020923 0.3534862
vt 0.1020922 0.3534752
vt 0.1020927 0.3534848
vt 0.1025978 0.3534656
vt 0.1025458 0.3534677
vt 0.1025673 0.3534649
vt 0.1025685 0.3534713
vt 0.1025393 0.3534679
vt 0.1045061 0.1831488
vt 0.102528 0.3534729
vt 0.1023529 0.3534647
vt 0.102383 0.3534671
vt 0.104406 0.1831435
vt 0.1049688 0.1831251
vt 0.1049905 0.1831275
vt 0.1028294 0.3534561
vt 0.1047494 0.1831406
vt 0.1047643 0.1831426
vt 0.1042113 0.1831674
vt 0.1042143 0.1831585
vt 0.1042126 0.1831498
vt 0.1042096 0.1831587
vt 0.1041929 0.1831681
vt 0.104191 0.1831593
vt 0.1041944 0.1831504
vt 0.1041963 0.1831591
vt 0.1012745 0.2279115
vt 0.1012678 0.2281987
vt 0.1007097 0.228268
vt 0.1006786 0.2279832
vt 0.1011668 0.2272679
vt 0.1006112 0.2273302
vt 0.1011668 0.2275747
vt 0.1006442 0.2276353
vt 0.1020927 0.3534848
vt 0.1020928 0.353496
vt 0.1019449 0.3534909
vt 0.1019421 0.3535023
vt 0.1017803 0.2269892
vt 0.1017827 0.2270024
vt 0.1008152 0.2269988
vt 0.100783 0.2270127
vt 0.1022412 0.3534802
vt 0.1023868 0.3534742
vt 0.1022382 0.3534693
vt 0.1023529 0.3534647
vt 0.1023848 0.3534839
vt 0.1022403 0.3534898
vt 0.1022374 0.3534789
vt 0.1023792 0.3534732
vt 0.1047527 0.1831405
vt 0.1046356 0.1831444
vt 0.1047562 0.183132
vt 0.104638 0.1831359
vt 0.1047494 0.1831406
vt 0.1046446 0.1831441
vt 0.1046421 0.1831527
vt 0.1047617 0.1831486
vt 0.1006786 0.2279832
vt 0.1012745 0.2279115
vt 0.1006112 0.2273302
vt 0.1011668 0.2272679
vt 0.1012678 0.2281987
vt 0.1007097 0.228268
vt 0.1006442 0.2276353
vt 0.1011668 0.2275747
vt 0.1028006 0.3534665
vt 0.1027876 0.3534565
vt 0.1029183 0.3534511
vt 0.1027876 0.3534565
vt 0.1027928 0.3534471
vt 0.1029246 0.3534418
vt 0.1027928 0.3534471
vt 0.1028039 0.3534554
vt 0.1028294 0.3534561
vt 0.1028044 0.3534599
vt 0.1028006 0.3534665
vt 0.1029337 0.353461
vt 0.1029402 0.3534516
vt 0.1049797 0.1831328
vt 0.1049934 0.1831407
vt 0.1048788 0.1831446
vt 0.1048674 0.1831366
vt 0.1049905 0.1831275
vt 0.104872 0.1831283
vt 0.1048835 0.1831361
vt 0.1049992 0.1831323
vt 0.1049934 0.1831407
vt 0.1049992 0.1831323
vt 0.1048835 0.1831361
vt 0.1048788 0.1831446
vt 0.1026584 0.3534525
vt 0.1026692 0.3534626
vt 0.1026542 0.3534619
vt 0.1026584 0.3534525
vt 0.1026648 0.3534722
vt 0.1025262 0.353478
vt 0.1025181 0.3534675
vt 0.1026542 0.3534619
vt 0.1045199 0.1831569
vt 0.104395 0.1831611
vt 0.1043938 0.1831525
vt 0.104516 0.1831484
vt 0.104516 0.1831484
vt 0.1043938 0.1831525
vt 0.1043939 0.1831456
vt 0.1045173 0.1831399
vt 0.1045173 0.1831399
vt 0.104406 0.1831435
vt 0.1043943 0.1831467
vt 0.1043951 0.1831525
vt 0.1045061 0.1831488
vt 0.1043951 0.1831525
vt 0.104395 0.1831611
vt 0.1045199 0.1831569
vt 0.1045206 0.1831524
vt 0.1019402 0.3534925
vt 0.1019421 0.3535023
vt 0.1019431 0.3534812
vt 0.1019402 0.3534925
vt 0.1020923 0.3534862
vt 0.1019449 0.3534909
vt 0.1019431 0.3534812
vt 0.1020922 0.3534752
vt 0.1025978 0.3534656
vt 0.1025673 0.3534649
vt 0.1025685 0.3534713
vt 0.1045206 0.1831469
vt 0.1045061 0.1831488
vt 0.1045206 0.1831524
vt 0.1025393 0.3534679
vt 0.1025282 0.3534667
vt 0.102528 0.3534729
vt 0.1025673 0.3534649
vt 0.1025458 0.3534677
vt 0.1025685 0.3534713
vt 0.1025212 0.353458
vt 0.1025282 0.3534667
vt 0.1025458 0.3534677
vt 0.1025393 0.3534679
vt 0.1026692 0.3534626
vt 0.1025978 0.3534656
vt 0.1026648 0.3534722
vt 0.1023808 0.3534656
vt 0.1023529 0.3534647
vt 0.102383 0.3534671
vt 0.104406 0.1831435
vt 0.1043939 0.1831456
vt 0.1043943 0.1831467
vt 0.1049797 0.1831328
vt 0.1048674 0.1831366
vt 0.104872 0.1831283
vt 0.1049688 0.1831251
vt 0.1049843 0.1831259
vt 0.1049905 0.1831275
vt 0.1049843 0.1831259
vt 0.1049688 0.1831251
vt 0.1047638 0.1831387
vt 0.1047494 0.1831406
vt 0.1047643 0.1831426
vt 0.1028294 0.3534561
vt 0.1028039 0.3534554
vt 0.1028044 0.3534599
vt 0.1042673 0.1831655
vt 0.104269 0.1831567
vt 0.104269 0.1831567
vt 0.1042143 0.1831585
vt 0.1042678 0.183148
vt 0.1042678 0.183148
vt 0.1042126 0.1831498
vt 0.1042661 0.1831568
vt 0.1042661 0.1831568
vt 0.1042096 0.1831587
vt 0.1042113 0.1831674
vt 0.1042673 0.1831655
vt 0.1041342 0.1831612
vt 0.1041368 0.18317
vt 0.1041389 0.1831522
vt 0.1041342 0.1831612
vt 0.104191 0.1831593
vt 0.1041414 0.1831609
vt 0.1041389 0.1831522
vt 0.1041944 0.1831504
vt 0.1041929 0.1831681
vt 0.1041368 0.18317
vt 0.1041414 0.1831609
vt 0.1041963 0.1831591
vt 0.1012992 0.2278697
vt 0.1012745 0.2279115
vt 0.1012678 0.2281987
vt 0.1012936 0.2280626
vt 0.1006564 0.2281406
vt 0.1007097 0.228268
vt 0.1006786 0.2279832
vt 0.1006338 0.2279495
vt 0.1012182 0.2273954
vt 0.1011668 0.2272679
vt 0.1012745 0.2279115
vt 0.1012992 0.2278697
vt 0.1006338 0.2279495
vt 0.1006786 0.2279832
vt 0.1006112 0.2273302
vt 0.1005861 0.2274672
vt 0.1012161 0.2275978
vt 0.1011668 0.2275747
vt 0.1011668 0.2272679
vt 0.1012182 0.2273954
vt 0.1005861 0.2274672
vt 0.1006112 0.2273302
vt 0.1006442 0.2276353
vt 0.1006095 0.2276684
vt 0.1012936 0.2280626
vt 0.1012678 0.2281987
vt 0.1011668 0.2275747
vt 0.1012161 0.2275978
vt 0.1006095 0.2276684
vt 0.1006442 0.2276353
vt 0.1007097 0.228268
vt 0.1006564 0.2281406
vt 0.1020928 0.353496
vt 0.1020927 0.3534848
vt 0.1019449 0.3534909
vt 0.1019421 0.3535023
vt 0.101783 0.2268172
vt 0.1017827 0.2270024
vt 0.1017803 0.2269892
vt 0.1017806 0.2268104
vt 0.1017806 0.2268104
vt 0.1017803 0.2269892
vt 0.1008152 0.2269988
vt 0.1008208 0.2268154
vt 0.1008208 0.2268154
vt 0.1008152 0.2269988
vt 0.100783 0.2270127
vt 0.100789 0.2268226
vt 0.100789 0.2268226
vt 0.100783 0.2270127
vt 0.1017827 0.2270024
vt 0.101783 0.2268172
vn -1 0 0
vn 1 0 0
vn -1 0 0
vn 1 0 0
vn -1 0 0
vn 1 0 0
vn -1 0 0
vn 1 0 0
vn 0 0 1
vn 0 0 -1
vn 0 0 -1
vn 0 1 0
vn 0 0 1
vn 0 0 1
vn 0 1 0
vn 0 0 -1
vn 0 -1 0
vn 0 -1 0
vn 0 0 -1
vn 0 1 0
vn 0 -1 0
vn 0 -1 0
vn 0 0 -1
vn 0 1 0
vn 0 -1 0
vn 0 1 0
vn 0 0 -1
vn 0 -1 0
vn 0 0 1
vn 0 0 -1
vn 0 0 -1
vn 0 0 1
vn 0 0 1
vn 0 0 1
vn 0 1 0
vn 0 0 -1
vn 0 1 0
vn 0 0 1
vn 0 1 0
vn 0 0 1
vn 0 0 1
vn 0 1 0
vn 0 0 1
vn 0 1 0
vn 0 1 0
vn 0 0 -1
vn 0 1 0
vn -1 0 0
vn 0 1 0
vn 0 1 0
vn 0 0 1
vn 1.276903E-07 -1 0
vn 1.276903E-07 -1 0
vn 0 0 -1
vn 0 1 0
vn 0 0 1
vn 0 0 1
vn 0 1 0
vn 0 0 -1
vn 0 0 1
vn 0 0 1
vn 0 0 1
vn 0 0 1
vn 0 1 0
vn 0 1 0
vn 0 0 -1
vn 0 0 -1
vn 0 -1 0
vn 0 -1 0
vn 0 -1 0
vn 0 -1 0
vn 0 -1 0
vn 0 -1 0
vn 0 -1 0
vn 0 -1 0
vn 0 1 0
vn 0 1 0
vn 0 0 -1
vn 0 0 -1
vn 0 -1 0
vn 0 -1 0
vn 0 -1 0
vn 0 -1 0
vn 0 0 -1
vn 0 0 -1
vn 0 1 0
vn 0 1 0
vn 0 0 1
vn 0 0 1
vn 0 0 1
vn 0 0 1
vn 0 1 0
vn 0 1 0
vn 0 0 -1
vn 0 0 -1
vn 0 -1 0
vn 0 -1 0
vn 0 -1 0
vn 0 -1 0
vn 0 -1 0
vn 0 -1 0
vn 0 0 -1
vn 0 0 -1
vn 0 0 -1
vn 0 1 0
vn 0 1 0
vn 0 1 0
vn 0 0 1
vn 0 0 1
vn 0 0 1
vn 0 0 1
vn 0 0 1
vn 0 -1 0
vn 0 -1 0
vn 0 -1 0
vn 0 -1 0
vn 0 1 0
vn 0 1 0
vn 0 1 0
vn 0 1 0
vn 0 0 1
vn 0 0 1
vn 0 0 1
vn 0 0 1
vn 0 1 0
vn 0 1 0
vn 0 0 -1
vn 0 0 -1
vn 0 -1 0
vn 0 -1 0
vn 0 -1 0
vn 0 -1 0
vn 0 -1 0
vn 0 -1 0
vn 0 -1 0
vn 0 -1 0
vn 0 0 -1
vn 0 0 -1
vn 0 0 -1
vn 0 0 -1
vn 0 1 0
vn 0 1 0
vn 0 1 0
vn 0 1 0
vn 0 0 1
vn 0 0 1
vn 0 0 1
vn 0 0 1
vn 0 0 1
vn 0 0 1
vn 0 0 1
vn 0 1 0
vn 0 1 0
vn 0 1 0
vn 0 0 -1
vn 0 0 -1
vn 0 0 -1
vn 0.1587459 0.7169742 0.678784
vn 0.1587459 0.7169742 0.678784
vn 0.1587459 0.7169742 0.678784
vn -0.2383422 0.657907 0.7143888
vn -0.2383421 0.6579069 0.7143889
vn -0.2383421 0.6579069 0.7143889
vn 0.4365232 0.6996321 0.5656521
vn 0.4365232 0.699632 0.5656522
vn 0.4365232 0.6996321 0.5656522
vn -0.18668 0.7424076 0.643414
vn -0.18668 0.7424075 0.643414
vn -0.18668 0.7424076 0.643414
vn 0 1 0
vn 0 1 0
vn 0 1 0
vn 0 1 0
vn 0 0 1
vn 0 0 1
vn 0 0 1
vn -0.1390764 0.7289115 -0.6703326
vn -0.1390764 0.7289115 -0.6703326
vn -0.1390764 0.7289115 -0.6703326
vn 0.2426576 0.6275236 -0.7398184
vn 0.2426576 0.6275237 -0.7398184
vn 0.2426576 0.6275237 -0.7398184
vn 0 0 -1
vn 0 0 -1
vn 0 0 -1
vn 0 0 -1
vn 0 0 -1
vn -0.1791845 0.8434047 -0.5065191
vn -0.1791845 0.8434047 -0.5065191
vn -0.1791845 0.8434047 -0.506519
vn -0.1744072 0.828533 0.5320858
vn -0.1744072 0.828533 0.5320857
vn -0.1744072 0.828533 0.5320858
vn 0.1366891 0.8535879 0.5026967
vn 0.1366891 0.8535879 0.5026967
vn 0.1366891 0.8535879 0.5026966
vn 0 -1 0
vn 0 -1 0
vn 0 0 -1
vn 0 0 -1
vn 0 0 -1
vn 0 1 0
vn 0 1 0
vn 0 1 0
vn 0 0 1
vn 0 0 1
vn 0 0 1
vn 0 0 1
vn 0 0 1
vn 0 0 1
vn 0 1 0
vn 0 1 0
vn 0 1 0
vn 0 0 -1
vn 0 0 -1
vn 0 0 -1
vn -6.906138E-07 -1 0
vn -4.161893E-07 -1 0
vn -4.161893E-07 -1 0
vn -6.906138E-07 -1 0
vn -0.9822724 0 0.1874591
vn -0.9822724 0 0.1874591
vn -0.9822724 0 0.1874591
vn -0.9822724 0 0.1874591
vn 0.9822724 0 0.1874591
vn 0.9822724 0 0.1874591
vn 0.9822724 0 0.1874591
vn 0.9822724 0 0.1874591
vn -0.9771416 0.2125895 0
vn -0.9771416 0.2125895 0
vn -0.9771416 0.2125895 0
vn -0.9771416 0.2125895 0
vn 0.9771416 0.2125895 0
vn 0.9771416 0.2125895 0
vn 0.9771416 0.2125895 0
vn 0.9771416 0.2125895 0
vn -0.9822724 0 -0.1874591
vn -0.9822724 0 -0.1874591
vn -0.9822724 0 -0.1874591
vn -0.9822724 0 -0.1874591
vn 0.9822724 0 -0.1874591
vn 0.9822724 0 -0.1874591
vn 0.9822724 0 -0.1874591
vn 0.9822724 0 -0.1874591
vn -0.9771416 -0.2125895 0
vn -0.9771416 -0.2125895 0
vn -0.9771416 -0.2125895 0
vn -0.9771416 -0.2125895 0
vn 0.9771416 -0.2125895 0
vn 0.9771416 -0.2125895 0
vn 0.9771416 -0.2125895 0
vn 0.9771416 -0.2125895 0
vn -4.161893E-07 -1 0
vn -4.161893E-07 -1 0
vn 0 -1 0
vn 0 -1 0
vn -0.7802768 -0.6254343 0
vn -0.7802768 -0.6254343 0
vn -0.7802768 -0.6254343 0
vn -0.7802768 -0.6254343 0
vn 0 0 -1
vn 0 0 -1
vn 0 0 -1
vn 0 0 -1
vn 0.7991626 -0.601115 0
vn 0.7991626 -0.601115 0
vn 0.7991626 -0.601115 0
vn 0.7991626 -0.601115 0
vn 0 0 1
vn 0 0 1
vn 0 0 1
vn 0 0 1
g SM_Prop_Road_Barrier_Arm_01_0
f 160/160/160 159/159/159 158/158/158
f 163/163/163 162/162/162 161/161/161
f 166/166/166 165/165/165 164/164/164
f 169/169/169 168/168/168 167/167/167
f 179/179/179 178/178/178 177/177/177
f 182/182/182 181/181/181 180/180/180
f 190/190/190 189/189/189 188/188/188
f 193/193/193 192/192/192 191/191/191
f 196/196/196 195/195/195 194/194/194
f 13/13/13 14/14/14 32/32/32
f 29/29/29 13/13/13 32/32/32
f 15/15/15 44/44/44 45/45/45
f 45/45/45 76/76/76 15/15/15
f 45/45/45 77/77/77 76/76/76
f 78/78/78 16/16/16 30/30/30
f 30/30/30 79/79/79 78/78/78
f 30/30/30 31/31/31 79/79/79
f 82/82/82 81/81/81 80/80/80
f 83/83/83 82/82/82 80/80/80
f 6/6/6 4/4/4 2/2/2
f 8/8/8 6/6/6 2/2/2
f 7/7/7 1/1/1 3/3/3
f 3/3/3 5/5/5 7/7/7
f 3/3/3 48/48/48 5/5/5
f 28/28/28 25/25/25 17/17/17
f 18/18/18 28/28/28 17/17/17
f 27/27/27 85/85/85 84/84/84
f 19/19/19 27/27/27 84/84/84
f 87/87/87 86/86/86 20/20/20
f 20/20/20 26/26/26 87/87/87
f 20/20/20 50/50/50 26/26/26
f 90/90/90 89/89/89 88/88/88
f 88/88/88 91/91/91 90/90/90
f 88/88/88 51/51/51 91/91/91
f 62/62/62 63/63/63 60/60/60
f 61/61/61 62/62/62 60/60/60
f 92/92/92 65/65/65 64/64/64
f 93/93/93 92/92/92 64/64/64
f 94/94/94 67/67/67 66/66/66
f 95/95/95 94/94/94 66/66/66
f 98/98/98 97/97/97 96/96/96
f 99/99/99 98/98/98 96/96/96
f 101/101/101 100/100/100 21/21/21
f 22/22/22 101/101/101 21/21/21
f 104/104/104 103/103/103 102/102/102
f 23/23/23 104/104/104 102/102/102
f 106/106/106 105/105/105 24/24/24
f 24/24/24 107/107/107 106/106/106
f 24/24/24 49/49/49 107/107/107
f 110/110/110 109/109/109 108/108/108
f 108/108/108 111/111/111 110/110/110
f 108/108/108 112/112/112 111/111/111
f 115/115/115 114/114/114 113/113/113
f 116/116/116 115/115/115 113/113/113
f 118/118/118 47/47/47 117/117/117
f 117/117/117 119/119/119 118/118/118
f 117/117/117 120/120/120 119/119/119
f 123/123/123 122/122/122 121/121/121
f 124/124/124 123/123/123 121/121/121
f 9/9/9 43/43/43 41/41/41
f 41/41/41 40/40/40 9/9/9
f 41/41/41 38/38/38 40/40/40
f 176/176/176 9/9/9 40/40/40
f 176/176/176 40/40/40 174/174/174
f 40/40/40 175/175/175 174/174/174
f 126/126/126 37/37/37 125/125/125
f 37/37/37 39/39/39 125/125/125
f 39/39/39 170/170/170 125/125/125
f 171/171/171 170/170/170 39/39/39
f 39/39/39 172/172/172 171/171/171
f 172/172/172 173/173/173 171/171/171
f 11/11/11 10/10/10 127/127/127
f 128/128/128 11/11/11 127/127/127
f 131/131/131 130/130/130 129/129/129
f 132/132/132 131/131/131 129/129/129
f 135/135/135 134/134/134 133/133/133
f 136/136/136 135/135/135 133/133/133
f 139/139/139 138/138/138 137/137/137
f 137/137/137 46/46/46 139/139/139
f 137/137/137 140/140/140 46/46/46
f 142/142/142 141/141/141 12/12/12
f 12/12/12 143/143/143 142/142/142
f 12/12/12 144/144/144 143/143/143
f 12/12/12 42/42/42 144/144/144
f 147/147/147 146/146/146 145/145/145
f 145/145/145 148/148/148 147/147/147
f 145/145/145 149/149/149 148/148/148
f 151/151/151 150/150/150 34/34/34
f 33/33/33 151/151/151 34/34/34
f 153/153/153 152/152/152 35/35/35
f 154/154/154 153/153/153 35/35/35
f 156/156/156 155/155/155 36/36/36
f 157/157/157 156/156/156 36/36/36
f 74/74/74 75/75/75 73/73/73
f 72/72/72 74/74/74 73/73/73
f 185/185/185 184/184/184 183/183/183
f 183/183/183 186/186/186 185/185/185
f 183/183/183 187/187/187 186/186/186
f 53/53/53 52/52/52 197/197/197
f 198/198/198 53/53/53 197/197/197
f 54/54/54 200/200/200 199/199/199
f 201/201/201 54/54/54 199/199/199
f 55/55/55 203/203/203 202/202/202
f 204/204/204 55/55/55 202/202/202
f 207/207/207 206/206/206 205/205/205
f 208/208/208 207/207/207 205/205/205
f 210/210/210 209/209/209 57/57/57
f 56/56/56 210/210/210 57/57/57
f 212/212/212 211/211/211 58/58/58
f 213/213/213 212/212/212 58/58/58
f 215/215/215 214/214/214 59/59/59
f 216/216/216 215/215/215 59/59/59
f 219/219/219 218/218/218 217/217/217
f 220/220/220 219/219/219 217/217/217
f 223/223/223 222/222/222 221/221/221
f 224/224/224 223/223/223 221/221/221
f 227/227/227 226/226/226 225/225/225
f 228/228/228 227/227/227 225/225/225
f 231/231/231 230/230/230 229/229/229
f 232/232/232 231/231/231 229/229/229
f 235/235/235 234/234/234 233/233/233
f 236/236/236 235/235/235 233/233/233
f 239/239/239 238/238/238 237/237/237
f 240/240/240 239/239/239 237/237/237
f 243/243/243 242/242/242 241/241/241
f 244/244/244 243/243/243 241/241/241
f 247/247/247 246/246/246 245/245/245
f 248/248/248 247/247/247 245/245/245
f 251/251/251 250/250/250 249/249/249
f 252/252/252 251/251/251 249/249/249
f 259/259/259 258/258/258 257/257/257
f 260/260/260 259/259/259 257/257/257
f 263/263/263 262/262/262 261/261/261
f 264/264/264 263/263/263 261/261/261
f 267/267/267 266/266/266 265/265/265
f 268/268/268 267/267/267 265/265/265
f 271/271/271 270/270/270 269/269/269
f 272/272/272 271/271/271 269/269/269
f 256/256/256 71/71/71 255/255/255
f 71/71/71 70/70/70 255/255/255
f 69/69/69 71/71/71 256/256/256
f 255/255/255 70/70/70 254/254/254
f 253/253/253 69/69/69 256/256/256
f 70/70/70 68/68/68 254/254/254
f 68/68/68 69/69/69 253/253/253
f 254/254/254 68/68/68 253/253/253
