g SM_Prop_Electronics_Shelf_01
v 0.8597229 0.478932 -0.2865921
v 0.8341583 0.4388327 -0.2865921
v -0.8389893 2.132667 -0.2793961
v -0.8640686 2.092568 -0.2793961
v -0.8389893 2.132667 -0.3037338
v -0.8640686 2.092568 -0.3037338
v 0.8597229 0.478932 -0.3109329
v 0.8341583 0.4388327 -0.3109329
v -0.8681304 0.478932 -0.2858872
v -0.8425659 0.4388327 -0.2858872
v 0.8376037 2.12649 -0.2773865
v 0.86268 2.086391 -0.2773865
v 0.8376037 2.12649 -0.3055984
v 0.86268 2.086391 -0.3055984
v -0.8681304 0.478932 -0.3140991
v -0.8425659 0.4388327 -0.3140991
v -0.01526489 1.302711 -0.3235901
v 0.01005859 1.262612 -0.3235901
v 0.01005859 1.262612 -0.2953781
v -0.01526489 1.302711 -0.2953781
v -0.8945404 0.4337406 0.2445099
v 0.8945404 0.4337406 0.2445099
v -0.8945404 0.4789188 0.2445099
v 0.8945404 0.4789188 0.2445099
v -0.8945404 0.4789188 -0.3229156
v 0.8945404 0.4789188 -0.3229156
v -0.8945404 0.4337406 -0.3229156
v 0.8945404 0.4337406 -0.3229156
v -0.8561981 0.4789188 0.2061676
v 0.8561981 0.4789188 0.2061676
v 0.8561981 0.4789188 -0.2845733
v -0.8561981 0.4789188 -0.2845733
v -0.8945404 0.9918435 0.2445099
v 0.8945404 0.9918435 0.2445099
v -0.8945404 1.037022 0.2445099
v 0.8945404 1.037022 0.2445099
v -0.8945404 1.037022 -0.3229156
v 0.8945404 1.037022 -0.3229156
v -0.8945404 0.9918435 -0.3229156
v 0.8945404 0.9918435 -0.3229156
v -0.8561981 1.037022 0.2061676
v 0.8561981 1.037022 0.2061676
v 0.8561981 1.037022 -0.2845733
v -0.8561981 1.037022 -0.2845733
v -0.8945404 1.549946 0.2445099
v 0.8945404 1.549946 0.2445099
v -0.8945404 1.595124 0.2445099
v 0.8945404 1.595124 0.2445099
v -0.8945404 1.595124 -0.3229156
v 0.8945404 1.595124 -0.3229156
v -0.8945404 1.549946 -0.3229156
v 0.8945404 1.549946 -0.3229156
v -0.8561981 1.595124 0.2061676
v 0.8561981 1.595124 0.2061676
v 0.8561981 1.595124 -0.2845733
v -0.8561981 1.595124 -0.2845733
v -0.8945404 2.108049 0.2445099
v 0.8945404 2.108049 0.2445099
v -0.8945404 2.153228 0.2445099
v 0.8945404 2.153228 0.2445099
v -0.8945404 2.153228 -0.3229156
v 0.8945404 2.153228 -0.3229156
v -0.8945404 2.108049 -0.3229156
v 0.8945404 2.108049 -0.3229156
v -0.8561981 2.153228 0.2061676
v 0.8561981 2.153228 0.2061676
v 0.8561981 2.153228 -0.2845733
v -0.8561981 2.153228 -0.2845733
v 0.8319793 0 0.2354919
v 0.882785 0 0.2354919
v 0.8319793 2.108049 0.2354919
v 0.882785 2.108049 0.2354919
v 0.8319793 2.108049 0.1855423
v 0.882785 2.108049 0.1855423
v 0.8319793 0 0.1855423
v 0.882785 0 0.1855423
v 0.8319793 0 -0.2639481
v 0.882785 0 -0.2639481
v 0.8319793 2.108049 -0.2639481
v 0.882785 2.108049 -0.2639481
v 0.8319793 2.108049 -0.3138977
v 0.882785 2.108049 -0.3138977
v 0.8319793 0 -0.3138977
v 0.882785 0 -0.3138977
v -0.882785 0 0.2354919
v -0.8319793 0 0.2354919
v -0.882785 2.108049 0.2354919
v -0.8319793 2.108049 0.2354919
v -0.882785 2.108049 0.1855423
v -0.8319793 2.108049 0.1855423
v -0.882785 0 0.1855423
v -0.8319793 0 0.1855423
v -0.882785 0 -0.2639481
v -0.8319793 0 -0.2639481
v -0.882785 2.108049 -0.2639481
v -0.8319793 2.108049 -0.2639481
v -0.882785 2.108049 -0.3138977
v -0.8319793 2.108049 -0.3138977
v -0.882785 0 -0.3138977
v -0.8319793 0 -0.3138977
v 0.8597229 0.478932 -0.3109329
v 0.8341583 0.4388327 -0.3109329
v 0.8341583 0.4388327 -0.2865921
v 0.8597229 0.478932 -0.2865921
v 0.8341583 0.4388327 -0.2865921
v 0.8341583 0.4388327 -0.3109329
v -0.8640686 2.092568 -0.3037338
v -0.8640686 2.092568 -0.2793961
v 0.8597229 0.478932 -0.3109329
v 0.8597229 0.478932 -0.2865921
v -0.8389893 2.132667 -0.2793961
v -0.8389893 2.132667 -0.3037338
v -0.8681304 0.478932 -0.3140991
v -0.8681304 0.478932 -0.2858872
v -0.8425659 0.4388327 -0.2858872
v -0.8425659 0.4388327 -0.3140991
v -0.8425659 0.4388327 -0.2858872
v 0.01005859 1.262612 -0.2953781
v 0.01005859 1.262612 -0.3235901
v -0.8425659 0.4388327 -0.3140991
v -0.8681304 0.478932 -0.3140991
v -0.01526489 1.302711 -0.3235901
v -0.01526489 1.302711 -0.2953781
v -0.8681304 0.478932 -0.2858872
v 0.86268 2.086391 -0.3055984
v 0.86268 2.086391 -0.2773865
v 0.8376037 2.12649 -0.3055984
v 0.8376037 2.12649 -0.2773865
v -0.8945404 0.4337406 -0.3229156
v -0.8945404 0.4337406 0.2445099
v 0.8945404 0.4337406 0.2445099
v 0.8945404 0.4337406 -0.3229156
v 0.8945404 0.4337406 0.2445099
v 0.8945404 0.4789188 0.2445099
v 0.8945404 0.4789188 -0.3229156
v 0.8945404 0.4337406 -0.3229156
v -0.8945404 0.4337406 -0.3229156
v -0.8945404 0.4789188 -0.3229156
v -0.8945404 0.4789188 0.2445099
v -0.8945404 0.4337406 0.2445099
v -0.8945404 0.4789188 0.2445099
v -0.8561981 0.4789188 0.2061676
v 0.8561981 0.4789188 0.2061676
v 0.8945404 0.4789188 0.2445099
v 0.8561981 0.4789188 -0.2845733
v 0.8945404 0.4789188 -0.3229156
v -0.8561981 0.4789188 -0.2845733
v -0.8945404 0.4789188 -0.3229156
v -0.8945404 0.9918435 -0.3229156
v -0.8945404 0.9918435 0.2445099
v 0.8945404 0.9918435 0.2445099
v 0.8945404 0.9918435 -0.3229156
v 0.8945404 0.9918435 0.2445099
v 0.8945404 1.037022 0.2445099
v 0.8945404 1.037022 -0.3229156
v 0.8945404 0.9918435 -0.3229156
v -0.8945404 0.9918435 -0.3229156
v -0.8945404 1.037022 -0.3229156
v -0.8945404 1.037022 0.2445099
v -0.8945404 0.9918435 0.2445099
v -0.8945404 1.037022 0.2445099
v -0.8561981 1.037022 0.2061676
v 0.8561981 1.037022 0.2061676
v 0.8945404 1.037022 0.2445099
v 0.8561981 1.037022 -0.2845733
v 0.8945404 1.037022 -0.3229156
v -0.8561981 1.037022 -0.2845733
v -0.8945404 1.037022 -0.3229156
v -0.8945404 1.549946 -0.3229156
v -0.8945404 1.549946 0.2445099
v 0.8945404 1.549946 0.2445099
v 0.8945404 1.549946 -0.3229156
v 0.8945404 1.549946 0.2445099
v 0.8945404 1.595124 0.2445099
v 0.8945404 1.595124 -0.3229156
v 0.8945404 1.549946 -0.3229156
v -0.8945404 1.549946 -0.3229156
v -0.8945404 1.595124 -0.3229156
v -0.8945404 1.595124 0.2445099
v -0.8945404 1.549946 0.2445099
v -0.8945404 1.595124 0.2445099
v -0.8561981 1.595124 0.2061676
v 0.8561981 1.595124 0.2061676
v 0.8945404 1.595124 0.2445099
v 0.8561981 1.595124 -0.2845733
v 0.8945404 1.595124 -0.3229156
v -0.8561981 1.595124 -0.2845733
v -0.8945404 1.595124 -0.3229156
v -0.8945404 2.108049 -0.3229156
v -0.8945404 2.108049 0.2445099
v 0.8945404 2.108049 0.2445099
v 0.8945404 2.108049 -0.3229156
v 0.8945404 2.108049 0.2445099
v 0.8945404 2.153228 0.2445099
v 0.8945404 2.153228 -0.3229156
v 0.8945404 2.108049 -0.3229156
v -0.8945404 2.108049 -0.3229156
v -0.8945404 2.153228 -0.3229156
v -0.8945404 2.153228 0.2445099
v -0.8945404 2.108049 0.2445099
v -0.8945404 2.153228 0.2445099
v -0.8561981 2.153228 0.2061676
v 0.8561981 2.153228 0.2061676
v 0.8945404 2.153228 0.2445099
v 0.8561981 2.153228 -0.2845733
v 0.8945404 2.153228 -0.3229156
v -0.8561981 2.153228 -0.2845733
v -0.8945404 2.153228 -0.3229156
v 0.8319793 0 0.1855423
v 0.8319793 0 0.2354919
v 0.882785 0 0.2354919
v 0.882785 0 0.1855423
v 0.882785 0 0.2354919
v 0.882785 2.108049 0.2354919
v 0.882785 2.108049 0.1855423
v 0.882785 0 0.1855423
v 0.8319793 0 0.1855423
v 0.8319793 2.108049 0.1855423
v 0.8319793 2.108049 0.2354919
v 0.8319793 0 0.2354919
v 0.8319793 0 -0.3138977
v 0.8319793 0 -0.2639481
v 0.882785 0 -0.2639481
v 0.882785 0 -0.3138977
v 0.882785 0 -0.2639481
v 0.882785 2.108049 -0.2639481
v 0.882785 2.108049 -0.3138977
v 0.882785 0 -0.3138977
v 0.8319793 0 -0.3138977
v 0.8319793 2.108049 -0.3138977
v 0.8319793 2.108049 -0.2639481
v 0.8319793 0 -0.2639481
v -0.882785 0 0.1855423
v -0.882785 0 0.2354919
v -0.8319793 0 0.2354919
v -0.8319793 0 0.1855423
v -0.8319793 0 0.2354919
v -0.8319793 2.108049 0.2354919
v -0.8319793 2.108049 0.1855423
v -0.8319793 0 0.1855423
v -0.882785 0 0.1855423
v -0.882785 2.108049 0.1855423
v -0.882785 2.108049 0.2354919
v -0.882785 0 0.2354919
v -0.882785 0 -0.3138977
v -0.882785 0 -0.2639481
v -0.8319793 0 -0.2639481
v -0.8319793 0 -0.3138977
v -0.8319793 0 -0.2639481
v -0.8319793 2.108049 -0.2639481
v -0.8319793 2.108049 -0.3138977
v -0.8319793 0 -0.3138977
v -0.882785 0 -0.3138977
v -0.882785 2.108049 -0.3138977
v -0.882785 2.108049 -0.2639481
v -0.882785 0 -0.2639481
vt 0.07961401 0.2790436
vt 0.07961401 0.2790436
vt 0.07961401 0.2790436
vt 0.07961401 0.2790436
vt 0.07961401 0.2790436
vt 0.07961401 0.2790436
vt 0.07961401 0.2790436
vt 0.07961401 0.2790436
vt 0.07961401 0.2790436
vt 0.07961401 0.2790436
vt 0.07961401 0.2790436
vt 0.07961401 0.2790436
vt 0.07961401 0.2790436
vt 0.07961401 0.2790436
vt 0.07961401 0.2790436
vt 0.07961401 0.2790436
vt 0.07961401 0.2790436
vt 0.07961401 0.2790436
vt 0.07961401 0.2790436
vt 0.07961401 0.2790436
vt 0.08188334 0.2806126
vt 0.08188334 0.2806126
vt 0.08188334 0.2806126
vt 0.08188334 0.2806126
vt 0.08188334 0.2806126
vt 0.08188334 0.2806126
vt 0.08188334 0.2806126
vt 0.08188334 0.2806126
vt 0.01528065 0.3320349
vt 0.01528065 0.3320349
vt 0.01528065 0.3320349
vt 0.01528065 0.3320349
vt 0.08188334 0.2806126
vt 0.08188334 0.2806126
vt 0.08188334 0.2806126
vt 0.08188334 0.2806126
vt 0.08188334 0.2806126
vt 0.08188334 0.2806126
vt 0.08188334 0.2806126
vt 0.08188334 0.2806126
vt 0.01528065 0.3320349
vt 0.01528065 0.3320349
vt 0.01528065 0.3320349
vt 0.01528065 0.3320349
vt 0.08188334 0.2806126
vt 0.08188334 0.2806126
vt 0.08188334 0.2806126
vt 0.08188334 0.2806126
vt 0.08188334 0.2806126
vt 0.08188334 0.2806126
vt 0.08188334 0.2806126
vt 0.08188334 0.2806126
vt 0.01528065 0.3320349
vt 0.01528065 0.3320349
vt 0.01528065 0.3320349
vt 0.01528065 0.3320349
vt 0.08188334 0.2806126
vt 0.08188334 0.2806126
vt 0.08188334 0.2806126
vt 0.08188334 0.2806126
vt 0.08188334 0.2806126
vt 0.08188334 0.2806126
vt 0.08188334 0.2806126
vt 0.08188334 0.2806126
vt 0.01528065 0.3320349
vt 0.01528065 0.3320349
vt 0.01528065 0.3320349
vt 0.01528065 0.3320349
vt 0.081258 0.2762351
vt 0.081258 0.2762351
vt 0.081258 0.2762351
vt 0.081258 0.2762351
vt 0.081258 0.2762351
vt 0.081258 0.2762351
vt 0.081258 0.2762351
vt 0.081258 0.2762351
vt 0.081258 0.2762351
vt 0.081258 0.2762351
vt 0.081258 0.2762351
vt 0.081258 0.2762351
vt 0.081258 0.2762351
vt 0.081258 0.2762351
vt 0.081258 0.2762351
vt 0.081258 0.2762351
vt 0.081258 0.2762351
vt 0.081258 0.2762351
vt 0.081258 0.2762351
vt 0.081258 0.2762351
vt 0.081258 0.2762351
vt 0.081258 0.2762351
vt 0.081258 0.2762351
vt 0.081258 0.2762351
vt 0.081258 0.2762351
vt 0.081258 0.2762351
vt 0.081258 0.2762351
vt 0.081258 0.2762351
vt 0.081258 0.2762351
vt 0.081258 0.2762351
vt 0.081258 0.2762351
vt 0.081258 0.2762351
vt 0.07961401 0.2790436
vt 0.07961401 0.2790436
vt 0.07961401 0.2790436
vt 0.07961401 0.2790436
vt 0.07961401 0.2790436
vt 0.07961401 0.2790436
vt 0.07961401 0.2790436
vt 0.07961401 0.2790436
vt 0.07961401 0.2790436
vt 0.07961401 0.2790436
vt 0.07961401 0.2790436
vt 0.07961401 0.2790436
vt 0.07961401 0.2790436
vt 0.07961401 0.2790436
vt 0.07961401 0.2790436
vt 0.07961401 0.2790436
vt 0.07961401 0.2790436
vt 0.07961401 0.2790436
vt 0.07961401 0.2790436
vt 0.07961401 0.2790436
vt 0.07961401 0.2790436
vt 0.07961401 0.2790436
vt 0.07961401 0.2790436
vt 0.07961401 0.2790436
vt 0.07961401 0.2790436
vt 0.07961401 0.2790436
vt 0.07961401 0.2790436
vt 0.07961401 0.2790436
vt 0.08188334 0.2806126
vt 0.08188334 0.2806126
vt 0.08188334 0.2806126
vt 0.08188334 0.2806126
vt 0.08188334 0.2806126
vt 0.08188334 0.2806126
vt 0.08188334 0.2806126
vt 0.08188334 0.2806126
vt 0.08188334 0.2806126
vt 0.08188334 0.2806126
vt 0.08188334 0.2806126
vt 0.08188334 0.2806126
vt 0.08188334 0.2806126
vt 0.08188334 0.2806126
vt 0.08188334 0.2806126
vt 0.08188334 0.2806126
vt 0.08188334 0.2806126
vt 0.08188334 0.2806126
vt 0.08188334 0.2806126
vt 0.08188334 0.2806126
vt 0.08188334 0.2806126
vt 0.08188334 0.2806126
vt 0.08188334 0.2806126
vt 0.08188334 0.2806126
vt 0.08188334 0.2806126
vt 0.08188334 0.2806126
vt 0.08188334 0.2806126
vt 0.08188334 0.2806126
vt 0.08188334 0.2806126
vt 0.08188334 0.2806126
vt 0.08188334 0.2806126
vt 0.08188334 0.2806126
vt 0.08188334 0.2806126
vt 0.08188334 0.2806126
vt 0.08188334 0.2806126
vt 0.08188334 0.2806126
vt 0.08188334 0.2806126
vt 0.08188334 0.2806126
vt 0.08188334 0.2806126
vt 0.08188334 0.2806126
vt 0.08188334 0.2806126
vt 0.08188334 0.2806126
vt 0.08188334 0.2806126
vt 0.08188334 0.2806126
vt 0.08188334 0.2806126
vt 0.08188334 0.2806126
vt 0.08188334 0.2806126
vt 0.08188334 0.2806126
vt 0.08188334 0.2806126
vt 0.08188334 0.2806126
vt 0.08188334 0.2806126
vt 0.08188334 0.2806126
vt 0.08188334 0.2806126
vt 0.08188334 0.2806126
vt 0.08188334 0.2806126
vt 0.08188334 0.2806126
vt 0.08188334 0.2806126
vt 0.08188334 0.2806126
vt 0.08188334 0.2806126
vt 0.08188334 0.2806126
vt 0.08188334 0.2806126
vt 0.08188334 0.2806126
vt 0.08188334 0.2806126
vt 0.08188334 0.2806126
vt 0.08188334 0.2806126
vt 0.08188334 0.2806126
vt 0.08188334 0.2806126
vt 0.08188334 0.2806126
vt 0.08188334 0.2806126
vt 0.08188334 0.2806126
vt 0.08188334 0.2806126
vt 0.08188334 0.2806126
vt 0.08188334 0.2806126
vt 0.08188334 0.2806126
vt 0.08188334 0.2806126
vt 0.08188334 0.2806126
vt 0.08188334 0.2806126
vt 0.08188334 0.2806126
vt 0.08188334 0.2806126
vt 0.08188334 0.2806126
vt 0.081258 0.2762351
vt 0.081258 0.2762351
vt 0.081258 0.2762351
vt 0.081258 0.2762351
vt 0.081258 0.2762351
vt 0.081258 0.2762351
vt 0.081258 0.2762351
vt 0.081258 0.2762351
vt 0.081258 0.2762351
vt 0.081258 0.2762351
vt 0.081258 0.2762351
vt 0.081258 0.2762351
vt 0.081258 0.2762351
vt 0.081258 0.2762351
vt 0.081258 0.2762351
vt 0.081258 0.2762351
vt 0.081258 0.2762351
vt 0.081258 0.2762351
vt 0.081258 0.2762351
vt 0.081258 0.2762351
vt 0.081258 0.2762351
vt 0.081258 0.2762351
vt 0.081258 0.2762351
vt 0.081258 0.2762351
vt 0.081258 0.2762351
vt 0.081258 0.2762351
vt 0.081258 0.2762351
vt 0.081258 0.2762351
vt 0.081258 0.2762351
vt 0.081258 0.2762351
vt 0.081258 0.2762351
vt 0.081258 0.2762351
vt 0.081258 0.2762351
vt 0.081258 0.2762351
vt 0.081258 0.2762351
vt 0.081258 0.2762351
vt 0.081258 0.2762351
vt 0.081258 0.2762351
vt 0.081258 0.2762351
vt 0.081258 0.2762351
vt 0.081258 0.2762351
vt 0.081258 0.2762351
vt 0.081258 0.2762351
vt 0.081258 0.2762351
vt 0.081258 0.2762351
vt 0.081258 0.2762351
vt 0.081258 0.2762351
vt 0.081258 0.2762351
vn 0.002623631 -0.001656773 0.9999952
vn 0.002623631 -0.001656774 0.9999952
vn 0.002623631 -0.001656774 0.9999952
vn 0.002623631 -0.001656774 0.9999952
vn -0.002624745 0.001657471 -0.9999952
vn -0.002624745 0.001657472 -0.9999952
vn -0.002624745 0.001657471 -0.9999952
vn -0.002624745 0.001657471 -0.9999952
vn 0.006900016 0.004378219 0.9999666
vn 0.006900016 0.004378219 0.9999666
vn -0.01312681 -0.008249356 0.9998798
vn 0.6948383 -0.719166 0
vn 0.01312682 0.008249357 -0.9998798
vn 0.01312682 0.008249357 -0.9998798
vn -0.006900016 -0.004378219 -0.9999666
vn -0.006900016 -0.00437822 -0.9999666
vn 0.004401477 0.00274774 -0.9999865
vn 0.001789756 0.001100964 -0.9999979
vn -0.001789752 -0.001100964 0.9999979
vn -0.004401472 -0.002747739 0.9999865
vn 0 0 1
vn 0 0 1
vn 0 0 1
vn 0 0 1
vn 0 0 -1
vn 0 0 -1
vn 0 0 -1
vn 0 0 -1
vn 0 1 0
vn 0 1 0
vn 0 1 0
vn 0 1 0
vn 0 0 1
vn 0 0 1
vn 0 0 1
vn 0 0 1
vn 0 0 -1
vn 0 0 -1
vn 0 0 -1
vn 0 0 -1
vn 0 1 0
vn 0 1 0
vn 0 1 0
vn 0 1 0
vn 0 0 1
vn 0 0 1
vn 0 0 1
vn 0 0 1
vn 0 0 -1
vn 0 0 -1
vn 0 0 -1
vn 0 0 -1
vn 0 1 0
vn 0 1 0
vn 0 1 0
vn 0 1 0
vn 0 0 1
vn 0 0 1
vn 0 0 1
vn 0 0 1
vn 0 0 -1
vn 0 0 -1
vn 0 0 -1
vn 0 0 -1
vn 0 1 0
vn 0 1 0
vn 0 1 0
vn 0 1 0
vn 0 0 1
vn 0 0 1
vn 0 0 1
vn 0 0 1
vn 0 0 -1
vn 0 0 -1
vn 0 0 -1
vn 0 0 -1
vn 0 0 1
vn 0 0 1
vn 0 0 1
vn 0 0 1
vn 0 0 -1
vn 0 0 -1
vn 0 0 -1
vn 0 0 -1
vn 0 0 1
vn 0 0 1
vn 0 0 1
vn 0 0 1
vn 0 0 -1
vn 0 0 -1
vn 0 0 -1
vn 0 0 -1
vn 0 0 1
vn 0 0 1
vn 0 0 1
vn 0 0 1
vn 0 0 -1
vn 0 0 -1
vn 0 0 -1
vn 0 0 -1
vn 0.8432152 -0.537576 0
vn 0.8432152 -0.537576 0
vn 0.8432152 -0.537576 0
vn 0.8432152 -0.537576 0
vn -0.6976597 -0.7164293 0
vn -0.6976597 -0.7164293 0
vn -0.6976597 -0.7164293 0
vn -0.6976597 -0.7164293 0
vn 0.6975573 0.716529 0
vn 0.6975574 0.716529 0
vn 0.6975573 0.716529 0
vn 0.6975573 0.716529 0
vn -0.8432152 -0.537576 0
vn -0.8432152 -0.537576 0
vn -0.8432152 -0.537576 0
vn -0.8432152 -0.537576 0
vn 0.694837 -0.7191674 0
vn 0.6948376 -0.7191666 0
vn 0.6948376 -0.7191666 0
vn 0.6948369 -0.7191674 0
vn -0.6947354 0.7192655 0
vn -0.6947347 0.7192661 0
vn -0.6947347 0.7192661 0
vn -0.6947353 0.7192655 0
vn 0.6948382 -0.719166 0
vn -0.01312681 -0.008249355 0.9998798
vn -0.6947341 0.7192667 0
vn -0.694734 0.7192667 0
vn 0 -1 0
vn 0 -1 0
vn 0 -1 0
vn 0 -1 0
vn 1 0 0
vn 1 0 0
vn 1 0 0
vn 1 0 0
vn -1 0 0
vn -1 0 0
vn -1 0 0
vn -1 0 0
vn 0 1 0
vn 0 1 0
vn 0 1 0
vn 0 1 0
vn 0 1 0
vn 0 1 0
vn 0 1 0
vn 0 1 0
vn 0 -1 0
vn 0 -1 0
vn 0 -1 0
vn 0 -1 0
vn 1 0 0
vn 1 0 0
vn 1 0 0
vn 1 0 0
vn -1 0 0
vn -1 0 0
vn -1 0 0
vn -1 0 0
vn 0 1 0
vn 0 1 0
vn 0 1 0
vn 0 1 0
vn 0 1 0
vn 0 1 0
vn 0 1 0
vn 0 1 0
vn 0 -1 0
vn 0 -1 0
vn 0 -1 0
vn 0 -1 0
vn 1 0 0
vn 1 0 0
vn 1 0 0
vn 1 0 0
vn -1 0 0
vn -1 0 0
vn -1 0 0
vn -1 0 0
vn 0 1 0
vn 0 1 0
vn 0 1 0
vn 0 1 0
vn 0 1 0
vn 0 1 0
vn 0 1 0
vn 0 1 0
vn 0 -1 0
vn 0 -1 0
vn 0 -1 0
vn 0 -1 0
vn 1 0 0
vn 1 0 0
vn 1 0 0
vn 1 0 0
vn -1 0 0
vn -1 0 0
vn -1 0 0
vn -1 0 0
vn 0 1 0
vn 0 1 0
vn 0 1 0
vn 0 1 0
vn 0 1 0
vn 0 1 0
vn 0 1 0
vn 0 1 0
vn 0 -1 0
vn 0 -1 0
vn 0 -1 0
vn 0 -1 0
vn 1 0 0
vn 1 0 0
vn 1 0 0
vn 1 0 0
vn -1 0 0
vn -1 0 0
vn -1 0 0
vn -1 0 0
vn 0 -1 0
vn 0 -1 0
vn 0 -1 0
vn 0 -1 0
vn 1 0 0
vn 1 0 0
vn 1 0 0
vn 1 0 0
vn -1 0 0
vn -1 0 0
vn -1 0 0
vn -1 0 0
vn 0 -1 0
vn 0 -1 0
vn 0 -1 0
vn 0 -1 0
vn 1 0 0
vn 1 0 0
vn 1 0 0
vn 1 0 0
vn -1 0 0
vn -1 0 0
vn -1 0 0
vn -1 0 0
vn 0 -1 0
vn 0 -1 0
vn 0 -1 0
vn 0 -1 0
vn 1 0 0
vn 1 0 0
vn 1 0 0
vn 1 0 0
vn -1 0 0
vn -1 0 0
vn -1 0 0
vn -1 0 0
g SM_Prop_Electronics_Shelf_01_0
f 4/4/4 2/2/2 1/1/1
f 3/3/3 4/4/4 1/1/1
f 8/8/8 6/6/6 5/5/5
f 7/7/7 8/8/8 5/5/5
f 103/103/103 102/102/102 101/101/101
f 104/104/104 103/103/103 101/101/101
f 107/107/107 106/106/106 105/105/105
f 108/108/108 107/107/107 105/105/105
f 111/111/111 110/110/110 109/109/109
f 112/112/112 111/111/111 109/109/109
f 10/10/10 19/19/19 9/9/9
f 19/19/19 20/20/20 9/9/9
f 19/19/19 126/126/126 20/20/20
f 126/126/126 11/11/11 20/20/20
f 16/16/16 15/15/15 17/17/17
f 18/18/18 16/16/16 17/17/17
f 18/18/18 17/17/17 13/13/13
f 14/14/14 18/18/18 13/13/13
f 115/115/115 114/114/114 113/113/113
f 116/116/116 115/115/115 113/113/113
f 120/120/120 119/119/119 117/117/117
f 119/119/119 118/118/118 117/117/117
f 119/119/119 125/125/125 118/118/118
f 125/125/125 12/12/12 118/118/118
f 124/124/124 123/123/123 121/121/121
f 123/123/123 122/122/122 121/121/121
f 123/123/123 128/128/128 122/122/122
f 128/128/128 127/127/127 122/122/122
f 24/24/24 23/23/23 21/21/21
f 22/22/22 24/24/24 21/21/21
f 31/31/31 32/32/32 29/29/29
f 30/30/30 31/31/31 29/29/29
f 28/28/28 27/27/27 25/25/25
f 26/26/26 28/28/28 25/25/25
f 131/131/131 130/130/130 129/129/129
f 132/132/132 131/131/131 129/129/129
f 135/135/135 134/134/134 133/133/133
f 136/136/136 135/135/135 133/133/133
f 139/139/139 138/138/138 137/137/137
f 140/140/140 139/139/139 137/137/137
f 36/36/36 35/35/35 33/33/33
f 34/34/34 36/36/36 33/33/33
f 43/43/43 44/44/44 41/41/41
f 42/42/42 43/43/43 41/41/41
f 40/40/40 39/39/39 37/37/37
f 38/38/38 40/40/40 37/37/37
f 151/151/151 150/150/150 149/149/149
f 152/152/152 151/151/151 149/149/149
f 155/155/155 154/154/154 153/153/153
f 156/156/156 155/155/155 153/153/153
f 159/159/159 158/158/158 157/157/157
f 160/160/160 159/159/159 157/157/157
f 48/48/48 47/47/47 45/45/45
f 46/46/46 48/48/48 45/45/45
f 55/55/55 56/56/56 53/53/53
f 54/54/54 55/55/55 53/53/53
f 52/52/52 51/51/51 49/49/49
f 50/50/50 52/52/52 49/49/49
f 171/171/171 170/170/170 169/169/169
f 172/172/172 171/171/171 169/169/169
f 175/175/175 174/174/174 173/173/173
f 176/176/176 175/175/175 173/173/173
f 179/179/179 178/178/178 177/177/177
f 180/180/180 179/179/179 177/177/177
f 60/60/60 59/59/59 57/57/57
f 58/58/58 60/60/60 57/57/57
f 67/67/67 68/68/68 65/65/65
f 66/66/66 67/67/67 65/65/65
f 64/64/64 63/63/63 61/61/61
f 62/62/62 64/64/64 61/61/61
f 191/191/191 190/190/190 189/189/189
f 192/192/192 191/191/191 189/189/189
f 195/195/195 194/194/194 193/193/193
f 196/196/196 195/195/195 193/193/193
f 199/199/199 198/198/198 197/197/197
f 200/200/200 199/199/199 197/197/197
f 72/72/72 71/71/71 69/69/69
f 70/70/70 72/72/72 69/69/69
f 76/76/76 75/75/75 73/73/73
f 74/74/74 76/76/76 73/73/73
f 211/211/211 210/210/210 209/209/209
f 212/212/212 211/211/211 209/209/209
f 215/215/215 214/214/214 213/213/213
f 216/216/216 215/215/215 213/213/213
f 219/219/219 218/218/218 217/217/217
f 220/220/220 219/219/219 217/217/217
f 80/80/80 79/79/79 77/77/77
f 78/78/78 80/80/80 77/77/77
f 84/84/84 83/83/83 81/81/81
f 82/82/82 84/84/84 81/81/81
f 223/223/223 222/222/222 221/221/221
f 224/224/224 223/223/223 221/221/221
f 227/227/227 226/226/226 225/225/225
f 228/228/228 227/227/227 225/225/225
f 231/231/231 230/230/230 229/229/229
f 232/232/232 231/231/231 229/229/229
f 88/88/88 87/87/87 85/85/85
f 86/86/86 88/88/88 85/85/85
f 92/92/92 91/91/91 89/89/89
f 90/90/90 92/92/92 89/89/89
f 235/235/235 234/234/234 233/233/233
f 236/236/236 235/235/235 233/233/233
f 239/239/239 238/238/238 237/237/237
f 240/240/240 239/239/239 237/237/237
f 243/243/243 242/242/242 241/241/241
f 244/244/244 243/243/243 241/241/241
f 96/96/96 95/95/95 93/93/93
f 94/94/94 96/96/96 93/93/93
f 100/100/100 99/99/99 97/97/97
f 98/98/98 100/100/100 97/97/97
f 247/247/247 246/246/246 245/245/245
f 248/248/248 247/247/247 245/245/245
f 251/251/251 250/250/250 249/249/249
f 252/252/252 251/251/251 249/249/249
f 255/255/255 254/254/254 253/253/253
f 256/256/256 255/255/255 253/253/253
f 208/208/208 207/207/207 206/206/206
f 207/207/207 205/205/205 206/206/206
f 202/202/202 207/207/207 208/208/208
f 206/206/206 205/205/205 204/204/204
f 201/201/201 202/202/202 208/208/208
f 205/205/205 203/203/203 204/204/204
f 203/203/203 202/202/202 201/201/201
f 204/204/204 203/203/203 201/201/201
f 188/188/188 187/187/187 186/186/186
f 187/187/187 185/185/185 186/186/186
f 182/182/182 187/187/187 188/188/188
f 186/186/186 185/185/185 184/184/184
f 181/181/181 182/182/182 188/188/188
f 185/185/185 183/183/183 184/184/184
f 183/183/183 182/182/182 181/181/181
f 184/184/184 183/183/183 181/181/181
f 168/168/168 167/167/167 166/166/166
f 167/167/167 165/165/165 166/166/166
f 162/162/162 167/167/167 168/168/168
f 166/166/166 165/165/165 164/164/164
f 161/161/161 162/162/162 168/168/168
f 165/165/165 163/163/163 164/164/164
f 163/163/163 162/162/162 161/161/161
f 164/164/164 163/163/163 161/161/161
f 148/148/148 147/147/147 146/146/146
f 147/147/147 145/145/145 146/146/146
f 142/142/142 147/147/147 148/148/148
f 146/146/146 145/145/145 144/144/144
f 141/141/141 142/142/142 148/148/148
f 145/145/145 143/143/143 144/144/144
f 143/143/143 142/142/142 141/141/141
f 144/144/144 143/143/143 141/141/141
