g SM_Prop_Powerpole_Single_Line_01
v 0.004476715 5.316232 15.01697
v -0.01022138 5.33093 15.01697
v 0.004476715 5.345628 15.01697
v 0.0191748 5.33093 15.01697
v -0.01022138 5.33093 15.01697
v -0.05431565 4.845893 11.28366
v 0.004476715 5.345628 15.01697
v -0.06901374 4.845893 11.28366
v -0.06901374 4.669516 7.535644
v -0.09840991 4.654818 7.535644
v -0.05431565 4.845893 3.802329
v -0.06901374 4.845893 3.802329
v 0.004476715 5.345628 0.06901374
v -0.01022138 5.33093 0.06901374
v -0.01022138 5.33093 0.06901374
v 0.004476715 5.316232 0.06901374
v 0.0191748 5.33093 0.06901374
v 0.004476715 5.345628 0.06901374
v -0.06901374 4.831195 11.28366
v 0.004476715 5.316232 15.01697
v 0.0191748 5.33093 15.01697
v -0.03961755 4.831195 11.28366
v -0.08371183 4.64012 7.535644
v -0.05431565 4.654818 7.535644
v -0.06901374 4.831195 3.802329
v -0.03961755 4.831195 3.802329
v 0.004476715 5.316232 0.06901374
v 0.0191748 5.33093 0.06901374
v 0.0191748 5.33093 15.01697
v 0.004476715 5.345628 15.01697
v -0.05431565 4.845893 11.28366
v -0.03961755 4.831195 11.28366
v -0.05431565 4.654818 7.535644
v -0.06901374 4.669516 7.535644
v -0.03961755 4.831195 3.802329
v -0.05431565 4.845893 3.802329
v 0.0191748 5.33093 0.06901374
v 0.004476715 5.345628 0.06901374
v -0.06901374 4.831195 11.28366
v -0.01022138 5.33093 15.01697
v 0.004476715 5.316232 15.01697
v -0.06901374 4.845893 11.28366
v -0.08371183 4.64012 7.535644
v -0.09840991 4.654818 7.535644
v -0.06901374 4.831195 3.802329
v -0.06901374 4.845893 3.802329
v 0.004476715 5.316232 0.06901374
v -0.01022138 5.33093 0.06901374
vt 0.07904994 0.2293048
vt 0.07904994 0.2293048
vt 0.07904994 0.2293048
vt 0.07904994 0.2293048
vt 0.07904994 0.2293048
vt 0.07904994 0.2293048
vt 0.07904994 0.2293048
vt 0.07904994 0.2293048
vt 0.07904994 0.2293048
vt 0.07904994 0.2293048
vt 0.07904994 0.2293048
vt 0.07904994 0.2293048
vt 0.07904994 0.2293048
vt 0.07904994 0.2293048
vt 0.07904994 0.2293048
vt 0.07904994 0.2293048
vt 0.07904994 0.2293048
vt 0.07904994 0.2293048
vt 0.07904994 0.2293048
vt 0.07904994 0.2293048
vt 0.07904994 0.2293048
vt 0.07904994 0.2293048
vt 0.07904994 0.2293048
vt 0.07904994 0.2293048
vt 0.07904994 0.2293048
vt 0.07904994 0.2293048
vt 0.07904994 0.2293048
vt 0.07904994 0.2293048
vt 0.07904994 0.2293048
vt 0.07904994 0.2293048
vt 0.07904994 0.2293048
vt 0.07904994 0.2293048
vt 0.07904994 0.2293048
vt 0.07904994 0.2293048
vt 0.07904994 0.2293048
vt 0.07904994 0.2293048
vt 0.07904994 0.2293048
vt 0.07904994 0.2293048
vt 0.07904994 0.2293048
vt 0.07904994 0.2293048
vt 0.07904994 0.2293048
vt 0.07904994 0.2293048
vt 0.07904994 0.2293048
vt 0.07904994 0.2293048
vt 0.07904994 0.2293048
vt 0.07904994 0.2293048
vt 0.07904994 0.2293048
vt 0.07904994 0.2293048
vn -0.01437902 0.01437902 0.9997932
vn -0.01437902 0.01437902 0.9997932
vn -0.01437902 0.01437902 0.9997932
vn -0.01437902 0.01437902 0.9997932
vn -0.4175977 0.9072204 -0.0506302
vn -0.4175977 0.9072204 -0.0506302
vn -0.4175977 0.9072204 -0.0506302
vn -0.4175977 0.9072204 -0.0506302
vn -0.4175977 0.9072204 -0.0506302
vn -0.4175977 0.9072204 -0.0506302
vn -0.4175977 0.9072204 0.0506302
vn -0.4175977 0.9072204 0.0506302
vn -0.4175977 0.9072204 0.0506302
vn -0.4175977 0.9072204 0.0506302
vn -0.01437902 0.01437902 -0.9997932
vn -0.01437902 0.01437902 -0.9997932
vn -0.01437902 0.01437902 -0.9997932
vn -0.01437902 0.01437902 -0.9997932
vn 0.417641 -0.9072638 0.04948171
vn 0.417641 -0.9072638 0.04948171
vn 0.417641 -0.9072638 0.04948171
vn 0.417641 -0.9072638 0.04948171
vn 0.417641 -0.9072638 -0.04948171
vn 0.417641 -0.9072638 -0.04948171
vn 0.417641 -0.9072638 -0.04948171
vn 0.417641 -0.9072638 -0.04948171
vn 0.417641 -0.9072638 -0.04948171
vn 0.417641 -0.9072638 -0.04948171
vn 0.8208597 0.5616044 -0.103874
vn 0.8208597 0.5616044 -0.103874
vn 0.8208597 0.5616044 -0.103874
vn 0.8208597 0.5616044 -0.103874
vn 0.8208597 0.5616044 -0.103874
vn 0.8208597 0.5616044 -0.103874
vn 0.8208597 0.5616044 0.103874
vn 0.8208597 0.5616044 0.103874
vn 0.8208597 0.5616044 0.103874
vn 0.8208597 0.5616044 0.103874
vn -0.8208164 -0.5616477 0.1039821
vn -0.8208164 -0.5616477 0.1039821
vn -0.8208164 -0.5616477 0.1039821
vn -0.8208164 -0.5616477 0.1039821
vn -0.8208164 -0.5616477 -0.1039821
vn -0.8208164 -0.5616477 -0.1039821
vn -0.8208164 -0.5616477 -0.1039821
vn -0.8208164 -0.5616477 -0.1039821
vn -0.8208164 -0.5616477 -0.1039821
vn -0.8208164 -0.5616477 -0.1039821
g SM_Prop_Powerpole_Single_Line_01_0
f 3/3/3 2/2/2 1/1/1
f 4/4/4 3/3/3 1/1/1
f 7/7/7 6/6/6 5/5/5
f 6/6/6 8/8/8 5/5/5
f 6/6/6 9/9/9 8/8/8
f 9/9/9 10/10/10 8/8/8
f 9/9/9 11/11/11 10/10/10
f 11/11/11 12/12/12 10/10/10
f 11/11/11 13/13/13 12/12/12
f 13/13/13 14/14/14 12/12/12
f 17/17/17 16/16/16 15/15/15
f 18/18/18 17/17/17 15/15/15
f 21/21/21 20/20/20 19/19/19
f 22/22/22 21/21/21 19/19/19
f 22/22/22 19/19/19 23/23/23
f 24/24/24 22/22/22 23/23/23
f 24/24/24 23/23/23 25/25/25
f 26/26/26 24/24/24 25/25/25
f 26/26/26 25/25/25 27/27/27
f 28/28/28 26/26/26 27/27/27
f 31/31/31 30/30/30 29/29/29
f 32/32/32 31/31/31 29/29/29
f 32/32/32 33/33/33 31/31/31
f 33/33/33 34/34/34 31/31/31
f 33/33/33 35/35/35 34/34/34
f 35/35/35 36/36/36 34/34/34
f 35/35/35 37/37/37 36/36/36
f 37/37/37 38/38/38 36/36/36
f 41/41/41 40/40/40 39/39/39
f 40/40/40 42/42/42 39/39/39
f 39/39/39 42/42/42 43/43/43
f 42/42/42 44/44/44 43/43/43
f 43/43/43 44/44/44 45/45/45
f 44/44/44 46/46/46 45/45/45
f 45/45/45 46/46/46 47/47/47
f 46/46/46 48/48/48 47/47/47
