g SM_Prop_ArcadeMachine_01_Stick_01
v 0.01207344 0.1109802 -0.0120734
v 9.22551E-10 0.116528 0
v 9.22551E-10 0.1109802 -0.01707436
v 9.22551E-10 0.1109802 -0.01707436
v 9.22551E-10 0.116528 0
v -0.0120734 0.1109802 -0.0120734
v -0.0120734 0.1109802 -0.0120734
v 9.22551E-10 0.116528 0
v -0.01707439 0.1109802 0
v -0.01707439 0.1109802 0
v 9.22551E-10 0.116528 0
v -0.0120734 0.1109802 0.0120734
v -0.0120734 0.1109802 0.0120734
v 9.22551E-10 0.116528 0
v 9.22551E-10 0.1109802 0.01707436
v 9.22551E-10 0.1109802 0.01707436
v 9.22551E-10 0.116528 0
v 0.01207344 0.1109802 0.0120734
v 0.01207344 0.1109802 0.0120734
v 9.22551E-10 0.116528 0
v 0.01707438 0.1109802 0
v 0.01707438 0.1109802 0
v 9.22551E-10 0.116528 0
v 0.01207344 0.1109802 -0.0120734
v 0.01207344 0.06397858 -0.0120734
v 0.01953522 0.0785028 -0.01953514
v 9.22551E-10 0.0785028 -0.02762688
v 9.22551E-10 0.06397858 -0.01707436
v 9.22551E-10 0.06397858 -0.01707436
v 9.22551E-10 0.0785028 -0.02762688
v -0.01953514 0.0785028 -0.01953514
v -0.0120734 0.06397858 -0.0120734
v -0.0120734 0.06397858 -0.0120734
v -0.01953514 0.0785028 -0.01953514
v -0.02762691 0.0785028 0
v -0.01707439 0.06397858 0
v -0.01707439 0.06397858 0
v -0.02762691 0.0785028 0
v -0.01953514 0.0785028 0.01953514
v -0.0120734 0.06397858 0.0120734
v -0.0120734 0.06397858 0.0120734
v -0.01953514 0.0785028 0.01953514
v 9.22551E-10 0.0785028 0.02762688
v 9.22551E-10 0.06397858 0.01707436
v 9.22551E-10 0.06397858 0.01707436
v 9.22551E-10 0.0785028 0.02762688
v 0.01953522 0.0785028 0.01953514
v 0.01207344 0.06397858 0.0120734
v 0.01207344 0.06397858 0.0120734
v 0.01953522 0.0785028 0.01953514
v 0.02762691 0.0785028 0
v 0.01707438 0.06397858 0
v 0.01707438 0.06397858 0
v 0.02762691 0.0785028 0
v 0.01953522 0.0785028 -0.01953514
v 0.01207344 0.06397858 -0.0120734
v 0.01953522 0.0785028 -0.01953514
v 0.01953522 0.09645599 -0.01953514
v 9.22551E-10 0.09645599 -0.02762688
v 9.22551E-10 0.0785028 -0.02762688
v 9.22551E-10 0.0785028 -0.02762688
v 9.22551E-10 0.09645599 -0.02762688
v -0.01953514 0.09645599 -0.01953514
v -0.01953514 0.0785028 -0.01953514
v -0.01953514 0.0785028 -0.01953514
v -0.01953514 0.09645599 -0.01953514
v -0.02762691 0.09645599 0
v -0.02762691 0.0785028 0
v -0.02762691 0.0785028 0
v -0.02762691 0.09645599 0
v -0.01953514 0.09645599 0.01953514
v -0.01953514 0.0785028 0.01953514
v -0.01953514 0.0785028 0.01953514
v -0.01953514 0.09645599 0.01953514
v 9.22551E-10 0.09645599 0.02762688
v 9.22551E-10 0.0785028 0.02762688
v 9.22551E-10 0.0785028 0.02762688
v 9.22551E-10 0.09645599 0.02762688
v 0.01953522 0.09645599 0.01953514
v 0.01953522 0.0785028 0.01953514
v 0.01953522 0.0785028 0.01953514
v 0.01953522 0.09645599 0.01953514
v 0.02762691 0.09645599 0
v 0.02762691 0.0785028 0
v 0.02762691 0.0785028 0
v 0.02762691 0.09645599 0
v 0.01953522 0.09645599 -0.01953514
v 0.01953522 0.0785028 -0.01953514
v 0.01953522 0.09645599 -0.01953514
v 0.01207344 0.1109802 -0.0120734
v 9.22551E-10 0.1109802 -0.01707436
v 9.22551E-10 0.09645599 -0.02762688
v 9.22551E-10 0.09645599 -0.02762688
v 9.22551E-10 0.1109802 -0.01707436
v -0.0120734 0.1109802 -0.0120734
v -0.01953514 0.09645599 -0.01953514
v -0.01953514 0.09645599 -0.01953514
v -0.0120734 0.1109802 -0.0120734
v -0.01707439 0.1109802 0
v -0.02762691 0.09645599 0
v -0.02762691 0.09645599 0
v -0.01707439 0.1109802 0
v -0.0120734 0.1109802 0.0120734
v -0.01953514 0.09645599 0.01953514
v -0.01953514 0.09645599 0.01953514
v -0.0120734 0.1109802 0.0120734
v 9.22551E-10 0.1109802 0.01707436
v 9.22551E-10 0.09645599 0.02762688
v 9.22551E-10 0.09645599 0.02762688
v 9.22551E-10 0.1109802 0.01707436
v 0.01207344 0.1109802 0.0120734
v 0.01953522 0.09645599 0.01953514
v 0.01953522 0.09645599 0.01953514
v 0.01207344 0.1109802 0.0120734
v 0.01707438 0.1109802 0
v 0.02762691 0.09645599 0
v 0.02762691 0.09645599 0
v 0.01707438 0.1109802 0
v 0.01207344 0.1109802 -0.0120734
v 0.01953522 0.09645599 -0.01953514
v 0.005317861 0 -0.00531784
v 9.22551E-10 0 -0.007520561
v -0.005317763 0 -0.00531784
v 0.007520562 0 0
v -0.007520483 0 0
v 0.005317861 0 0.00531784
v -0.005317763 0 0.00531784
v 9.22551E-10 0 0.007520561
v 0.01707438 0.06397858 0
v 0.007520562 0.06004272 0
v 0.005317861 0.06004272 0.00531784
v 0.01207344 0.06397858 0.0120734
v 0.01207344 0.06397858 0.0120734
v 0.005317861 0.06004272 0.00531784
v 9.22551E-10 0.06004272 0.007520561
v 9.22551E-10 0.06397858 0.01707436
v 9.22551E-10 0.06397858 0.01707436
v 9.22551E-10 0.06004272 0.007520561
v -0.005317763 0.06004272 0.00531784
v -0.0120734 0.06397858 0.0120734
v -0.0120734 0.06397858 0.0120734
v -0.005317763 0.06004272 0.00531784
v -0.007520483 0.06004272 0
v -0.01707439 0.06397858 0
v -0.01707439 0.06397858 0
v -0.007520483 0.06004272 0
v -0.005317763 0.06004272 -0.00531784
v -0.0120734 0.06397858 -0.0120734
v -0.0120734 0.06397858 -0.0120734
v -0.005317763 0.06004272 -0.00531784
v 9.22551E-10 0.06004272 -0.007520561
v 9.22551E-10 0.06397858 -0.01707436
v 9.22551E-10 0.06397858 -0.01707436
v 9.22551E-10 0.06004272 -0.007520561
v 0.005317861 0.06004272 -0.00531784
v 0.01207344 0.06397858 -0.0120734
v 0.01207344 0.06397858 -0.0120734
v 0.005317861 0.06004272 -0.00531784
v 0.007520562 0.06004272 0
v 0.01707438 0.06397858 0
v 0.005317861 0.06004272 0.00531784
v 0.005317861 0 0.00531784
v 9.22551E-10 0 0.007520561
v 9.22551E-10 0.06004272 0.007520561
v 9.22551E-10 0.06004272 0.007520561
v 9.22551E-10 0 0.007520561
v -0.005317763 0 0.00531784
v -0.005317763 0.06004272 0.00531784
v -0.005317763 0.06004272 0.00531784
v -0.005317763 0 0.00531784
v -0.007520483 0 0
v -0.007520483 0.06004272 0
v -0.007520483 0.06004272 0
v -0.007520483 0 0
v -0.005317763 0 -0.00531784
v -0.005317763 0.06004272 -0.00531784
v -0.005317763 0.06004272 -0.00531784
v -0.005317763 0 -0.00531784
v 9.22551E-10 0 -0.007520561
v 9.22551E-10 0.06004272 -0.007520561
v 9.22551E-10 0.06004272 -0.007520561
v 9.22551E-10 0 -0.007520561
v 0.005317861 0 -0.00531784
v 0.005317861 0.06004272 -0.00531784
v 0.005317861 0.06004272 -0.00531784
v 0.005317861 0 -0.00531784
v 0.007520562 0 0
v 0.007520562 0.06004272 0
v 0.007520562 0.06004272 0
v 0.007520562 0 0
v 0.005317861 0 0.00531784
v 0.005317861 0.06004272 0.00531784
vt 0.348445 0.4470547
vt 0.348597 0.4470186
vt 0.3486719 0.4470475
vt 0.3486719 0.4470475
vt 0.348597 0.4470186
vt 0.3488561 0.4470792
vt 0.3488561 0.4470792
vt 0.348597 0.4470186
vt 0.3488906 0.4471321
vt 0.3488906 0.4471321
vt 0.348597 0.4470186
vt 0.3487521 0.4471754
vt 0.3487521 0.4471754
vt 0.348597 0.4470186
vt 0.3485205 0.447183
vt 0.3485205 0.447183
vt 0.348597 0.4470186
vt 0.3483351 0.4471502
vt 0.3483351 0.4471502
vt 0.348597 0.4470186
vt 0.3483051 0.447097
vt 0.3483051 0.447097
vt 0.348597 0.4470186
vt 0.348445 0.4470547
vt 0.3484463 0.4478514
vt 0.3483539 0.4475674
vt 0.3487166 0.4475548
vt 0.3486712 0.4478433
vt 0.3486712 0.4478433
vt 0.3487166 0.4475548
vt 0.3490121 0.4476098
vt 0.3488537 0.4478787
vt 0.3488537 0.4478787
vt 0.3490121 0.4476098
vt 0.3490699 0.4477022
vt 0.3488879 0.4479379
vt 0.3488879 0.4479379
vt 0.3490699 0.4477022
vt 0.3488477 0.4477786
vt 0.3487506 0.4479863
vt 0.3487506 0.4479863
vt 0.3488477 0.4477786
vt 0.3484732 0.4477921
vt 0.3485211 0.4479948
vt 0.3485211 0.4479948
vt 0.3484732 0.4477921
vt 0.3481743 0.4477341
vt 0.3483373 0.4479581
vt 0.3483373 0.4479581
vt 0.3481743 0.4477341
vt 0.3481284 0.4476408
vt 0.3483076 0.4478987
vt 0.3483076 0.4478987
vt 0.3481284 0.4476408
vt 0.3483539 0.4475674
vt 0.3484463 0.4478514
vt 0.3483539 0.4475674
vt 0.3483531 0.4472647
vt 0.3487171 0.4472526
vt 0.3487166 0.4475548
vt 0.3487166 0.4475548
vt 0.3487171 0.4472526
vt 0.3490136 0.4473054
vt 0.3490121 0.4476098
vt 0.3490121 0.4476098
vt 0.3490136 0.4473054
vt 0.3490715 0.447394
vt 0.3490699 0.4477022
vt 0.3490699 0.4477022
vt 0.3490715 0.447394
vt 0.3488486 0.4474672
vt 0.3488477 0.4477786
vt 0.3488477 0.4477786
vt 0.3488486 0.4474672
vt 0.3484727 0.4474801
vt 0.3484732 0.4477921
vt 0.3484732 0.4477921
vt 0.3484727 0.4474801
vt 0.3481728 0.4474245
vt 0.3481743 0.4477341
vt 0.3481743 0.4477341
vt 0.3481728 0.4474245
vt 0.3481268 0.4473351
vt 0.3481284 0.4476408
vt 0.3481284 0.4476408
vt 0.3481268 0.4473351
vt 0.3483531 0.4472647
vt 0.3483539 0.4475674
vt 0.3483531 0.4472647
vt 0.348445 0.4470547
vt 0.3486719 0.4470475
vt 0.3487171 0.4472526
vt 0.3487171 0.4472526
vt 0.3486719 0.4470475
vt 0.3488561 0.4470792
vt 0.3490136 0.4473054
vt 0.3490136 0.4473054
vt 0.3488561 0.4470792
vt 0.3488906 0.4471321
vt 0.3490715 0.447394
vt 0.3490715 0.447394
vt 0.3488906 0.4471321
vt 0.3487521 0.4471754
vt 0.3488486 0.4474672
vt 0.3488486 0.4474672
vt 0.3487521 0.4471754
vt 0.3485205 0.447183
vt 0.3484727 0.4474801
vt 0.3484727 0.4474801
vt 0.3485205 0.447183
vt 0.3483351 0.4471502
vt 0.3481728 0.4474245
vt 0.3481728 0.4474245
vt 0.3483351 0.4471502
vt 0.3483051 0.447097
vt 0.3481268 0.4473351
vt 0.3481268 0.4473351
vt 0.3483051 0.447097
vt 0.348445 0.4470547
vt 0.3483531 0.4472647
vt 0.123168 0.3750972
vt 0.1232594 0.3750934
vt 0.1233334 0.37511
vt 0.1231121 0.3751194
vt 0.1233467 0.3751376
vt 0.1231246 0.375147
vt 0.123291 0.37516
vt 0.1231988 0.3751639
vt 0.3483076 0.4478987
vt 0.3484694 0.4479761
vt 0.3484831 0.4480025
vt 0.3483373 0.4479581
vt 0.3483373 0.4479581
vt 0.3484831 0.4480025
vt 0.3485638 0.4480187
vt 0.3485211 0.4479948
vt 0.3485211 0.4479948
vt 0.3485638 0.4480187
vt 0.3486642 0.4480149
vt 0.3487506 0.4479863
vt 0.3487506 0.4479863
vt 0.3486642 0.4480149
vt 0.3487248 0.4479936
vt 0.3488879 0.4479379
vt 0.3488879 0.4479379
vt 0.3487248 0.4479936
vt 0.3487103 0.4479673
vt 0.3488537 0.4478787
vt 0.3488537 0.4478787
vt 0.3487103 0.4479673
vt 0.3486298 0.4479514
vt 0.3486712 0.4478433
vt 0.3486712 0.4478433
vt 0.3486298 0.4479514
vt 0.3485303 0.447955
vt 0.3484463 0.4478514
vt 0.3484463 0.4478514
vt 0.3485303 0.447955
vt 0.3484694 0.4479761
vt 0.3483076 0.4478987
vt 0.1231235 0.3742115
vt 0.1231246 0.375147
vt 0.1231988 0.3751639
vt 0.1231985 0.3742265
vt 0.1231985 0.3742265
vt 0.1231988 0.3751639
vt 0.123291 0.37516
vt 0.1232918 0.374223
vt 0.1232918 0.374223
vt 0.123291 0.37516
vt 0.1233467 0.3751376
vt 0.1233481 0.3742031
vt 0.1233481 0.3742031
vt 0.1233467 0.3751376
vt 0.1233334 0.37511
vt 0.1233347 0.3741787
vt 0.1233347 0.3741787
vt 0.1233334 0.37511
vt 0.1232594 0.3750934
vt 0.1232599 0.3741639
vt 0.1232599 0.3741639
vt 0.1232594 0.3750934
vt 0.123168 0.3750972
vt 0.1231674 0.3741673
vt 0.1231674 0.3741673
vt 0.123168 0.3750972
vt 0.1231121 0.3751194
vt 0.1231108 0.3741869
vt 0.1231108 0.3741869
vt 0.1231121 0.3751194
vt 0.1231246 0.375147
vt 0.1231235 0.3742115
vn 0.1269624 0.9433602 -0.3065161
vn 0.1269624 0.9433602 -0.3065161
vn 0.1269624 0.9433602 -0.3065161
vn -0.1269628 0.9433601 -0.306516
vn -0.1269628 0.9433601 -0.3065161
vn -0.1269628 0.9433601 -0.3065161
vn -0.3065154 0.9433602 -0.1269635
vn -0.3065154 0.9433602 -0.1269635
vn -0.3065154 0.9433602 -0.1269635
vn -0.3065154 0.9433602 0.1269635
vn -0.3065154 0.9433602 0.1269635
vn -0.3065154 0.9433602 0.1269635
vn -0.1269628 0.9433601 0.3065161
vn -0.1269628 0.9433601 0.3065161
vn -0.1269628 0.9433601 0.306516
vn 0.1269624 0.9433602 0.3065161
vn 0.1269624 0.9433602 0.3065161
vn 0.1269624 0.9433602 0.3065161
vn 0.3065158 0.9433603 0.1269622
vn 0.3065158 0.9433603 0.1269622
vn 0.3065158 0.9433603 0.1269622
vn 0.3065158 0.9433603 -0.1269622
vn 0.3065158 0.9433603 -0.1269622
vn 0.3065158 0.9433603 -0.1269622
vn 0.3177386 -0.5573266 -0.7670915
vn 0.3177386 -0.5573266 -0.7670914
vn 0.3177387 -0.5573266 -0.7670915
vn 0.3177387 -0.5573265 -0.7670915
vn -0.3177397 -0.5573263 -0.7670912
vn -0.3177397 -0.5573263 -0.7670912
vn -0.3177396 -0.5573262 -0.7670912
vn -0.3177397 -0.5573263 -0.7670912
vn -0.7670905 -0.5573263 -0.3177412
vn -0.7670905 -0.5573263 -0.3177412
vn -0.7670906 -0.5573263 -0.3177413
vn -0.7670905 -0.5573263 -0.3177412
vn -0.7670905 -0.5573263 0.3177412
vn -0.7670906 -0.5573263 0.3177413
vn -0.7670905 -0.5573263 0.3177412
vn -0.7670905 -0.5573263 0.3177412
vn -0.3177397 -0.5573263 0.7670912
vn -0.3177397 -0.5573262 0.7670912
vn -0.3177397 -0.5573263 0.7670912
vn -0.3177397 -0.5573263 0.7670912
vn 0.3177385 -0.5573265 0.7670915
vn 0.3177386 -0.5573266 0.7670915
vn 0.3177386 -0.5573266 0.7670915
vn 0.3177386 -0.5573266 0.7670915
vn 0.7670911 -0.5573274 0.3177382
vn 0.7670912 -0.5573273 0.3177382
vn 0.7670912 -0.5573273 0.3177382
vn 0.7670911 -0.5573274 0.3177382
vn 0.7670911 -0.5573274 -0.3177382
vn 0.7670912 -0.5573273 -0.3177382
vn 0.7670912 -0.5573273 -0.3177382
vn 0.7670911 -0.5573274 -0.3177382
vn 0.3826827 0 -0.9238798
vn 0.3826827 0 -0.9238798
vn 0.3826827 0 -0.9238798
vn 0.3826827 0 -0.9238798
vn -0.3826841 0 -0.9238793
vn -0.3826841 0 -0.9238793
vn -0.3826841 0 -0.9238793
vn -0.3826841 0 -0.9238793
vn -0.9238786 0 -0.3826856
vn -0.9238786 0 -0.3826856
vn -0.9238786 0 -0.3826856
vn -0.9238786 0 -0.3826856
vn -0.9238786 0 0.3826856
vn -0.9238786 0 0.3826856
vn -0.9238786 0 0.3826856
vn -0.9238786 0 0.3826856
vn -0.3826841 0 0.9238793
vn -0.3826841 0 0.9238793
vn -0.3826841 0 0.9238793
vn -0.3826841 0 0.9238793
vn 0.3826827 0 0.9238798
vn 0.3826827 0 0.9238798
vn 0.3826827 0 0.9238798
vn 0.3826827 0 0.9238798
vn 0.9238799 0 0.3826825
vn 0.9238799 0 0.3826825
vn 0.9238799 0 0.3826825
vn 0.9238799 0 0.3826825
vn 0.9238799 0 -0.3826825
vn 0.9238799 0 -0.3826825
vn 0.9238799 0 -0.3826825
vn 0.9238799 0 -0.3826825
vn 0.3177386 0.5573266 -0.7670914
vn 0.3177386 0.5573266 -0.7670915
vn 0.3177387 0.5573265 -0.7670915
vn 0.3177387 0.5573266 -0.7670915
vn -0.3177397 0.5573262 -0.7670912
vn -0.3177397 0.5573263 -0.7670912
vn -0.3177397 0.5573262 -0.7670912
vn -0.3177396 0.5573262 -0.7670912
vn -0.7670906 0.5573263 -0.3177413
vn -0.7670905 0.5573263 -0.3177412
vn -0.7670906 0.5573263 -0.3177413
vn -0.7670906 0.5573263 -0.3177413
vn -0.7670906 0.5573263 0.3177412
vn -0.7670906 0.5573263 0.3177413
vn -0.7670905 0.5573263 0.3177412
vn -0.7670906 0.5573263 0.3177412
vn -0.3177397 0.5573262 0.7670912
vn -0.3177397 0.5573262 0.7670912
vn -0.3177397 0.5573263 0.7670912
vn -0.3177397 0.5573262 0.7670912
vn 0.3177386 0.5573266 0.7670915
vn 0.3177385 0.5573265 0.7670915
vn 0.3177386 0.5573266 0.7670915
vn 0.3177386 0.5573266 0.7670915
vn 0.7670912 0.5573273 0.3177382
vn 0.7670911 0.5573274 0.3177382
vn 0.7670911 0.5573274 0.3177382
vn 0.7670912 0.5573273 0.3177382
vn 0.7670912 0.5573273 -0.3177382
vn 0.7670911 0.5573274 -0.3177382
vn 0.7670911 0.5573274 -0.3177382
vn 0.7670912 0.5573273 -0.3177382
vn 0 -1 0
vn 0 -1 0
vn 0 -1 0
vn 0 -1 0
vn 0 -1 0
vn 0 -1 0
vn 0 -1 0
vn 0 -1 0
vn 0.3762551 -0.9133143 0.1558488
vn 0.3762551 -0.9133143 0.1558488
vn 0.3762551 -0.9133143 0.1558488
vn 0.3762551 -0.9133143 0.1558488
vn 0.1558494 -0.9133142 0.3762555
vn 0.1558494 -0.9133142 0.3762555
vn 0.1558494 -0.9133142 0.3762555
vn 0.1558494 -0.9133142 0.3762555
vn -0.1558502 -0.9133143 0.3762547
vn -0.1558502 -0.9133143 0.3762547
vn -0.1558502 -0.9133143 0.3762547
vn -0.1558502 -0.9133143 0.3762547
vn -0.376252 -0.9133155 0.1558492
vn -0.3762521 -0.9133155 0.1558492
vn -0.376252 -0.9133155 0.1558492
vn -0.3762521 -0.9133155 0.1558492
vn -0.3762521 -0.9133155 -0.1558492
vn -0.376252 -0.9133157 -0.1558492
vn -0.376252 -0.9133155 -0.1558492
vn -0.376252 -0.9133155 -0.1558492
vn -0.1558502 -0.9133143 -0.3762547
vn -0.1558501 -0.9133143 -0.3762547
vn -0.1558502 -0.9133143 -0.3762547
vn -0.1558502 -0.9133143 -0.3762547
vn 0.1558493 -0.9133142 -0.3762555
vn 0.1558493 -0.9133142 -0.3762555
vn 0.1558493 -0.9133142 -0.3762555
vn 0.1558493 -0.9133142 -0.3762555
vn 0.3762552 -0.9133143 -0.1558488
vn 0.3762552 -0.9133143 -0.1558488
vn 0.3762552 -0.9133143 -0.1558488
vn 0.3762552 -0.9133143 -0.1558488
vn 0.3826822 0 0.92388
vn 0.3826822 0 0.92388
vn 0.3826822 0 0.92388
vn 0.3826822 0 0.92388
vn -0.382688 0 0.9238776
vn -0.382688 0 0.9238776
vn -0.382688 0 0.9238776
vn -0.382688 0 0.9238776
vn -0.9238796 0 0.3826833
vn -0.9238796 0 0.3826833
vn -0.9238796 0 0.3826833
vn -0.9238796 0 0.3826833
vn -0.9238796 0 -0.3826833
vn -0.9238796 0 -0.3826833
vn -0.9238796 0 -0.3826833
vn -0.9238796 0 -0.3826833
vn -0.382688 0 -0.9238776
vn -0.382688 0 -0.9238776
vn -0.382688 0 -0.9238776
vn -0.382688 0 -0.9238776
vn 0.3826822 0 -0.92388
vn 0.3826822 0 -0.92388
vn 0.3826822 0 -0.92388
vn 0.3826822 0 -0.92388
vn 0.9238808 0 -0.3826804
vn 0.9238808 0 -0.3826804
vn 0.9238808 0 -0.3826804
vn 0.9238808 0 -0.3826804
vn 0.9238808 0 0.3826804
vn 0.9238808 0 0.3826804
vn 0.9238808 0 0.3826804
vn 0.9238808 0 0.3826804
g SM_Prop_ArcadeMachine_01_Stick_01_0
f 3/3/3 2/2/2 1/1/1
f 6/6/6 5/5/5 4/4/4
f 9/9/9 8/8/8 7/7/7
f 12/12/12 11/11/11 10/10/10
f 15/15/15 14/14/14 13/13/13
f 18/18/18 17/17/17 16/16/16
f 21/21/21 20/20/20 19/19/19
f 24/24/24 23/23/23 22/22/22
f 27/27/27 26/26/26 25/25/25
f 28/28/28 27/27/27 25/25/25
f 31/31/31 30/30/30 29/29/29
f 32/32/32 31/31/31 29/29/29
f 35/35/35 34/34/34 33/33/33
f 36/36/36 35/35/35 33/33/33
f 39/39/39 38/38/38 37/37/37
f 40/40/40 39/39/39 37/37/37
f 43/43/43 42/42/42 41/41/41
f 44/44/44 43/43/43 41/41/41
f 47/47/47 46/46/46 45/45/45
f 48/48/48 47/47/47 45/45/45
f 51/51/51 50/50/50 49/49/49
f 52/52/52 51/51/51 49/49/49
f 55/55/55 54/54/54 53/53/53
f 56/56/56 55/55/55 53/53/53
f 59/59/59 58/58/58 57/57/57
f 60/60/60 59/59/59 57/57/57
f 63/63/63 62/62/62 61/61/61
f 64/64/64 63/63/63 61/61/61
f 67/67/67 66/66/66 65/65/65
f 68/68/68 67/67/67 65/65/65
f 71/71/71 70/70/70 69/69/69
f 72/72/72 71/71/71 69/69/69
f 75/75/75 74/74/74 73/73/73
f 76/76/76 75/75/75 73/73/73
f 79/79/79 78/78/78 77/77/77
f 80/80/80 79/79/79 77/77/77
f 83/83/83 82/82/82 81/81/81
f 84/84/84 83/83/83 81/81/81
f 87/87/87 86/86/86 85/85/85
f 88/88/88 87/87/87 85/85/85
f 91/91/91 90/90/90 89/89/89
f 92/92/92 91/91/91 89/89/89
f 95/95/95 94/94/94 93/93/93
f 96/96/96 95/95/95 93/93/93
f 99/99/99 98/98/98 97/97/97
f 100/100/100 99/99/99 97/97/97
f 103/103/103 102/102/102 101/101/101
f 104/104/104 103/103/103 101/101/101
f 107/107/107 106/106/106 105/105/105
f 108/108/108 107/107/107 105/105/105
f 111/111/111 110/110/110 109/109/109
f 112/112/112 111/111/111 109/109/109
f 115/115/115 114/114/114 113/113/113
f 116/116/116 115/115/115 113/113/113
f 119/119/119 118/118/118 117/117/117
f 120/120/120 119/119/119 117/117/117
f 123/123/123 122/122/122 121/121/121
f 121/121/121 124/124/124 123/123/123
f 124/124/124 125/125/125 123/123/123
f 124/124/124 126/126/126 125/125/125
f 126/126/126 127/127/127 125/125/125
f 126/126/126 128/128/128 127/127/127
f 131/131/131 130/130/130 129/129/129
f 132/132/132 131/131/131 129/129/129
f 135/135/135 134/134/134 133/133/133
f 136/136/136 135/135/135 133/133/133
f 139/139/139 138/138/138 137/137/137
f 140/140/140 139/139/139 137/137/137
f 143/143/143 142/142/142 141/141/141
f 144/144/144 143/143/143 141/141/141
f 147/147/147 146/146/146 145/145/145
f 148/148/148 147/147/147 145/145/145
f 151/151/151 150/150/150 149/149/149
f 152/152/152 151/151/151 149/149/149
f 155/155/155 154/154/154 153/153/153
f 156/156/156 155/155/155 153/153/153
f 159/159/159 158/158/158 157/157/157
f 160/160/160 159/159/159 157/157/157
f 163/163/163 162/162/162 161/161/161
f 164/164/164 163/163/163 161/161/161
f 167/167/167 166/166/166 165/165/165
f 168/168/168 167/167/167 165/165/165
f 171/171/171 170/170/170 169/169/169
f 172/172/172 171/171/171 169/169/169
f 175/175/175 174/174/174 173/173/173
f 176/176/176 175/175/175 173/173/173
f 179/179/179 178/178/178 177/177/177
f 180/180/180 179/179/179 177/177/177
f 183/183/183 182/182/182 181/181/181
f 184/184/184 183/183/183 181/181/181
f 187/187/187 186/186/186 185/185/185
f 188/188/188 187/187/187 185/185/185
f 191/191/191 190/190/190 189/189/189
f 192/192/192 191/191/191 189/189/189
