g SM_Prop_Gold_Coins_04
v -0.3184631 0 -0.1251269
v -0.2729931 0 -0.166416
v -0.2729931 0.0197924 -0.166416
v -0.3184631 0.0197924 -0.1251269
v -0.2729931 0 -0.166416
v -0.2140234 0 -0.1474121
v -0.2140234 0.0197924 -0.1474121
v -0.2729931 0.0197924 -0.166416
v -0.2140234 0 -0.1474121
v -0.2012354 0 -0.08702148
v -0.2012354 0.0197924 -0.08702148
v -0.2140234 0.0197924 -0.1474121
v -0.2012354 0 -0.08702148
v -0.247417 0 -0.04564453
v -0.247417 0.0197924 -0.04564453
v -0.2012354 0.0197924 -0.08702148
v -0.247417 0 -0.04564453
v -0.305675 0 -0.06464843
v -0.305675 0.0197924 -0.06464843
v -0.247417 0.0197924 -0.04564453
v -0.305675 0 -0.06464843
v -0.3184631 0 -0.1251269
v -0.3184631 0.0197924 -0.1251269
v -0.305675 0.0197924 -0.06464843
v -0.3184631 0.0197924 -0.1251269
v -0.2729931 0.0197924 -0.166416
v -0.2140234 0.0197924 -0.1474121
v -0.2012354 0.0197924 -0.08702148
v -0.305675 0.0197924 -0.06464843
v -0.247417 0.0197924 -0.04564453
v 0.2431531 0 0.01759766
v 0.302832 0 0.03375977
v 0.302832 0.0197924 0.03375977
v 0.2431531 0.0197924 0.01759766
v 0.302832 0 0.03375977
v 0.3184631 0 0.09353516
v 0.3184631 0.0197924 0.09353516
v 0.302832 0.0197924 0.03375977
v 0.3184631 0 0.09353516
v 0.2744141 0 0.1370508
v 0.2744141 0.0197924 0.1370508
v 0.3184631 0.0197924 0.09353516
v 0.2744141 0 0.1370508
v 0.2147339 0 0.120791
v 0.2147339 0.0197924 0.120791
v 0.2744141 0.0197924 0.1370508
v 0.2147339 0 0.120791
v 0.199104 0 0.06111328
v 0.199104 0.0197924 0.06111328
v 0.2147339 0.0197924 0.120791
v 0.199104 0 0.06111328
v 0.2431531 0 0.01759766
v 0.2431531 0.0197924 0.01759766
v 0.199104 0.0197924 0.06111328
v 0.199104 0.0197924 0.06111328
v 0.2431531 0.0197924 0.01759766
v 0.302832 0.0197924 0.03375977
v 0.3184631 0.0197924 0.09353516
v 0.2147339 0.0197924 0.120791
v 0.2744141 0.0197924 0.1370508
v -0.07588379 0.0197924 -0.1445996
v -0.03467529 0.0197924 -0.1904297
v 0.02571411 0.0197924 -0.1775488
v 0.04489746 0.0197924 -0.1187598
v -0.05670044 0.0197924 -0.08581054
v 0.003688965 0.0197924 -0.07292969
v -0.05670044 0.0197924 -0.08581054
v -0.05670044 1.818989E-14 -0.08581054
v -0.07588379 1.818989E-14 -0.1445996
v -0.07588379 0.0197924 -0.1445996
v -0.07588379 0.0197924 -0.1445996
v -0.07588379 1.818989E-14 -0.1445996
v -0.03467529 1.818989E-14 -0.1904297
v -0.03467529 0.0197924 -0.1904297
v -0.03467529 0.0197924 -0.1904297
v -0.03467529 1.818989E-14 -0.1904297
v 0.02571411 1.818989E-14 -0.1775488
v 0.02571411 0.0197924 -0.1775488
v 0.02571411 0.0197924 -0.1775488
v 0.02571411 1.818989E-14 -0.1775488
v 0.04489746 1.818989E-14 -0.1187598
v 0.04489746 0.0197924 -0.1187598
v 0.04489746 0.0197924 -0.1187598
v 0.04489746 1.818989E-14 -0.1187598
v 0.003688965 1.818989E-14 -0.07292969
v 0.003688965 0.0197924 -0.07292969
v 0.003688965 0.0197924 -0.07292969
v 0.003688965 1.818989E-14 -0.07292969
v -0.05670044 1.818989E-14 -0.08581054
v -0.05670044 0.0197924 -0.08581054
v 0.08660644 0.0197924 0.1002441
v 0.148418 0.0197924 0.09970703
v 0.1796777 0.0197924 0.1529102
v 0.05605591 0.0197924 0.1539746
v 0.1491284 0.0197924 0.2066406
v 0.08731689 0.0197924 0.207168
v 0.1491284 0.0197924 0.2066406
v 0.1491284 1.818989E-14 0.2066406
v 0.08731689 1.818989E-14 0.207168
v 0.08731689 0.0197924 0.207168
v 0.08731689 0.0197924 0.207168
v 0.08731689 1.818989E-14 0.207168
v 0.05605591 1.818989E-14 0.1539746
v 0.05605591 0.0197924 0.1539746
v 0.05605591 0.0197924 0.1539746
v 0.05605591 1.818989E-14 0.1539746
v 0.08660644 1.818989E-14 0.1002441
v 0.08660644 0.0197924 0.1002441
v 0.08660644 0.0197924 0.1002441
v 0.08660644 1.818989E-14 0.1002441
v 0.148418 1.818989E-14 0.09970703
v 0.148418 0.0197924 0.09970703
v 0.148418 0.0197924 0.09970703
v 0.148418 1.818989E-14 0.09970703
v 0.1796777 1.818989E-14 0.1529102
v 0.1796777 0.0197924 0.1529102
v 0.1796777 0.0197924 0.1529102
v 0.1796777 1.818989E-14 0.1529102
v 0.1491284 1.818989E-14 0.2066406
v 0.1491284 0.0197924 0.2066406
v 0.2241894 5.684342E-16 0.2863184
v 0.1872449 5.684342E-16 0.2364941
v 0.1872449 0.0197924 0.2364941
v 0.2241894 0.0197924 0.2863184
v 0.1872449 5.684342E-16 0.2364941
v 0.2121118 5.684342E-16 0.1799219
v 0.2121118 0.0197924 0.1799219
v 0.1872449 0.0197924 0.2364941
v 0.2121118 5.684342E-16 0.1799219
v 0.2739221 5.684342E-16 0.1731738
v 0.2739221 0.0197924 0.1731738
v 0.2121118 0.0197924 0.1799219
v 0.2739221 5.684342E-16 0.1731738
v 0.3101563 5.684342E-16 0.2229102
v 0.3101563 0.0197924 0.2229102
v 0.2739221 0.0197924 0.1731738
v 0.3101563 5.684342E-16 0.2229102
v 0.2852905 5.684342E-16 0.2794824
v 0.2852905 0.0197924 0.2794824
v 0.3101563 0.0197924 0.2229102
v 0.2852905 5.684342E-16 0.2794824
v 0.2241894 5.684342E-16 0.2863184
v 0.2241894 0.0197924 0.2863184
v 0.2852905 0.0197924 0.2794824
v 0.2121118 0.0197924 0.1799219
v 0.2739221 0.0197924 0.1731738
v 0.3101563 0.0197924 0.2229102
v 0.1872449 0.0197924 0.2364941
v 0.2852905 0.0197924 0.2794824
v 0.2241894 0.0197924 0.2863184
v 0.06219116 0.0197924 -0.2793164
v 0.1240027 0.0197924 -0.2863281
v 0.1609473 0.0197924 -0.2366797
v 0.03803589 0.0197924 -0.2226563
v 0.1360803 0.0197924 -0.1800195
v 0.07498047 0.0197924 -0.1730078
v 0.1360803 0.0197924 -0.1800195
v 0.1360803 1.818989E-14 -0.1800195
v 0.07498047 1.818989E-14 -0.1730078
v 0.07498047 0.0197924 -0.1730078
v 0.07498047 0.0197924 -0.1730078
v 0.07498047 1.818989E-14 -0.1730078
v 0.03803589 1.818989E-14 -0.2226563
v 0.03803589 0.0197924 -0.2226563
v 0.03803589 0.0197924 -0.2226563
v 0.03803589 1.818989E-14 -0.2226563
v 0.06219116 1.818989E-14 -0.2793164
v 0.06219116 0.0197924 -0.2793164
v 0.06219116 0.0197924 -0.2793164
v 0.06219116 1.818989E-14 -0.2793164
v 0.1240027 1.818989E-14 -0.2863281
v 0.1240027 0.0197924 -0.2863281
v 0.1240027 0.0197924 -0.2863281
v 0.1240027 1.818989E-14 -0.2863281
v 0.1609473 1.818989E-14 -0.2366797
v 0.1609473 0.0197924 -0.2366797
v 0.1609473 0.0197924 -0.2366797
v 0.1609473 1.818989E-14 -0.2366797
v 0.1360803 1.818989E-14 -0.1800195
v 0.1360803 0.0197924 -0.1800195
vt 0.2785887 0.5000653
vt 0.2785966 0.5000576
vt 0.2785972 0.5000573
vt 0.2785892 0.5000649
vt 0.2785966 0.5000576
vt 0.2786075 0.5000614
vt 0.2786081 0.500061
vt 0.2785972 0.5000573
vt 0.2786075 0.5000614
vt 0.2786104 0.5000728
vt 0.278611 0.5000725
vt 0.2786081 0.500061
vt 0.2786104 0.5000728
vt 0.2786022 0.5000805
vt 0.2786028 0.5000802
vt 0.278611 0.5000725
vt 0.2786022 0.5000805
vt 0.2785915 0.5000767
vt 0.2785921 0.5000764
vt 0.2786028 0.5000802
vt 0.2785915 0.5000767
vt 0.2785887 0.5000653
vt 0.2785892 0.5000649
vt 0.2785921 0.5000764
vt 0.2785892 0.5000649
vt 0.2785972 0.5000573
vt 0.2786081 0.500061
vt 0.278611 0.5000725
vt 0.2785921 0.5000764
vt 0.2786028 0.5000802
vt 0.1217737 0.4250269
vt 0.1217853 0.4250287
vt 0.1217858 0.4250296
vt 0.1217741 0.4250278
vt 0.1217853 0.4250287
vt 0.1217894 0.4250395
vt 0.1217898 0.4250404
vt 0.1217858 0.4250296
vt 0.1217894 0.4250395
vt 0.1217818 0.4250485
vt 0.1217822 0.4250495
vt 0.1217898 0.4250404
vt 0.1217818 0.4250485
vt 0.1217701 0.4250467
vt 0.1217705 0.4250476
vt 0.1217822 0.4250495
vt 0.1217701 0.4250467
vt 0.121766 0.4250359
vt 0.1217664 0.4250368
vt 0.1217705 0.4250476
vt 0.121766 0.4250359
vt 0.1217737 0.4250269
vt 0.1217741 0.4250278
vt 0.1217664 0.4250368
vt 0.1217664 0.4250368
vt 0.1217741 0.4250278
vt 0.1217858 0.4250296
vt 0.1217898 0.4250404
vt 0.1217705 0.4250476
vt 0.1217822 0.4250495
vt 0.1187744 0.4224274
vt 0.1187744 0.4224274
vt 0.1187744 0.4224274
vt 0.1187744 0.4224274
vt 0.1187744 0.4224274
vt 0.1187744 0.4224274
vt 0.1187744 0.4224274
vt 0.1187744 0.4224275
vt 0.1187744 0.4224275
vt 0.1187744 0.4224274
vt 0.1187744 0.4224274
vt 0.1187744 0.4224275
vt 0.1187744 0.4224275
vt 0.1187744 0.4224274
vt 0.1187744 0.4224274
vt 0.1187744 0.4224275
vt 0.1187744 0.4224275
vt 0.1187744 0.4224274
vt 0.1187744 0.4224274
vt 0.1187744 0.4224275
vt 0.1187744 0.4224275
vt 0.1187744 0.4224274
vt 0.1187744 0.4224274
vt 0.1187744 0.4224275
vt 0.1187744 0.4224275
vt 0.1187744 0.4224274
vt 0.1187744 0.4224274
vt 0.1187744 0.4224275
vt 0.1187744 0.4224275
vt 0.1187744 0.4224274
vt 0.2803345 0.5051609
vt 0.2803345 0.5051609
vt 0.2803345 0.5051609
vt 0.2803345 0.5051609
vt 0.2803345 0.5051609
vt 0.2803345 0.5051609
vt 0.2803345 0.5051609
vt 0.2803345 0.5051609
vt 0.2803345 0.5051609
vt 0.2803345 0.5051609
vt 0.2803345 0.5051609
vt 0.2803345 0.5051609
vt 0.2803345 0.5051609
vt 0.2803345 0.5051609
vt 0.2803345 0.5051609
vt 0.2803345 0.5051609
vt 0.2803345 0.5051609
vt 0.2803345 0.5051609
vt 0.2803345 0.5051609
vt 0.2803345 0.5051609
vt 0.2803345 0.5051609
vt 0.2803345 0.5051609
vt 0.2803345 0.5051609
vt 0.2803345 0.5051609
vt 0.2803345 0.5051609
vt 0.2803345 0.5051609
vt 0.2803345 0.5051609
vt 0.2803345 0.5051609
vt 0.2803345 0.5051609
vt 0.2803345 0.5051609
vt 0.1218429 0.42498
vt 0.121835 0.4249714
vt 0.1218355 0.4249723
vt 0.1218435 0.4249809
vt 0.121835 0.4249714
vt 0.1218387 0.4249603
vt 0.1218393 0.4249611
vt 0.1218355 0.4249723
vt 0.1218387 0.4249603
vt 0.1218505 0.4249578
vt 0.1218511 0.4249586
vt 0.1218393 0.4249611
vt 0.1218505 0.4249578
vt 0.1218583 0.4249664
vt 0.1218589 0.4249672
vt 0.1218511 0.4249586
vt 0.1218583 0.4249664
vt 0.1218545 0.4249775
vt 0.1218551 0.4249784
vt 0.1218589 0.4249672
vt 0.1218545 0.4249775
vt 0.1218429 0.42498
vt 0.1218435 0.4249809
vt 0.1218551 0.4249784
vt 0.1218393 0.4249611
vt 0.1218511 0.4249586
vt 0.1218589 0.4249672
vt 0.1218355 0.4249723
vt 0.1218551 0.4249784
vt 0.1218435 0.4249809
vt 0.2748413 0.5011714
vt 0.2748413 0.5011714
vt 0.2748413 0.5011714
vt 0.2748413 0.5011714
vt 0.2748413 0.5011714
vt 0.2748413 0.5011714
vt 0.2748413 0.5011714
vt 0.2748413 0.5011714
vt 0.2748413 0.5011714
vt 0.2748413 0.5011714
vt 0.2748413 0.5011714
vt 0.2748413 0.5011714
vt 0.2748413 0.5011714
vt 0.2748413 0.5011714
vt 0.2748413 0.5011714
vt 0.2748413 0.5011714
vt 0.2748413 0.5011714
vt 0.2748413 0.5011714
vt 0.2748413 0.5011714
vt 0.2748413 0.5011714
vt 0.2748413 0.5011714
vt 0.2748413 0.5011714
vt 0.2748413 0.5011714
vt 0.2748413 0.5011714
vt 0.2748413 0.5011714
vt 0.2748413 0.5011714
vt 0.2748413 0.5011714
vt 0.2748413 0.5011714
vt 0.2748413 0.5011714
vt 0.2748413 0.5011714
vn -0.6722935 0 -0.7402846
vn -0.6722935 0 -0.7402846
vn -0.6722935 0 -0.7402846
vn -0.6722935 0 -0.7402846
vn 0.3067364 0 -0.9517946
vn 0.3067364 0 -0.9517946
vn 0.3067364 0 -0.9517946
vn 0.3067364 0 -0.9517946
vn 0.9783046 0 -0.2071719
vn 0.9783046 0 -0.2071719
vn 0.9783046 0 -0.2071719
vn 0.9783046 0 -0.2071719
vn 0.6673728 0 0.7447239
vn 0.6673728 0 0.7447239
vn 0.6673728 0 0.7447239
vn 0.6673728 0 0.7447239
vn -0.3101161 0 0.9506987
vn -0.3101161 0 0.9506987
vn -0.3101161 0 0.9506987
vn -0.3101161 0 0.9506987
vn -0.9783682 0 0.2068709
vn -0.9783682 0 0.2068709
vn -0.9783682 0 0.2068709
vn -0.9783682 0 0.2068709
vn 0 1 0
vn 0 1 0
vn 0 1 0
vn 0 1 0
vn 0 1 0
vn 0 1 0
vn 0.2614346 0 -0.9652212
vn 0.2614346 0 -0.9652212
vn 0.2614346 0 -0.9652212
vn 0.2614346 0 -0.9652212
vn 0.9674673 0 -0.252996
vn 0.9674673 0 -0.252996
vn 0.9674673 0 -0.252996
vn 0.9674673 0 -0.252996
vn 0.7027862 0 0.7114011
vn 0.7027862 0 0.7114011
vn 0.7027862 0 0.7114011
vn 0.7027862 0 0.7114011
vn -0.2627953 0 0.9648516
vn -0.2627953 0 0.9648516
vn -0.2627953 0 0.9648516
vn -0.2627953 0 0.9648516
vn -0.9673699 0 0.2533683
vn -0.9673699 0 0.2533683
vn -0.9673699 0 0.2533683
vn -0.9673699 0 0.2533683
vn -0.7028027 0 -0.7113848
vn -0.7028027 0 -0.7113848
vn -0.7028027 0 -0.7113848
vn -0.7028027 0 -0.7113848
vn 0 1 0
vn 0 1 0
vn 0 1 0
vn 0 1 0
vn 0 1 0
vn 0 1 0
vn 0 1 0
vn 0 1 0
vn 0 1 0
vn 0 1 0
vn 0 1 0
vn 0 1 0
vn -0.9506678 0 0.3102106
vn -0.9506678 0 0.3102106
vn -0.9506678 0 0.3102106
vn -0.9506678 0 0.3102106
vn -0.7436053 0 -0.6686189
vn -0.7436053 0 -0.6686189
vn -0.7436053 0 -0.6686189
vn -0.7436053 0 -0.6686189
vn 0.2086041 0 -0.9780002
vn 0.2086041 0 -0.9780002
vn 0.2086041 0 -0.9780002
vn 0.2086041 0 -0.9780002
vn 0.9506678 0 -0.3102106
vn 0.9506678 0 -0.3102106
vn 0.9506678 0 -0.3102106
vn 0.9506678 0 -0.3102106
vn 0.7436053 0 0.6686188
vn 0.7436053 0 0.6686188
vn 0.7436053 0 0.6686188
vn 0.7436053 0 0.6686188
vn -0.2086042 0 0.9780001
vn -0.2086042 0 0.9780001
vn -0.2086042 0 0.9780001
vn -0.2086042 0 0.9780001
vn 0 1 0
vn 0 1 0
vn 0 1 0
vn 0 1 0
vn 0 1 0
vn 0 1 0
vn 0.008531163 0 0.9999636
vn 0.008531163 0 0.9999636
vn 0.008531163 0 0.9999636
vn 0.008531163 0 0.9999636
vn -0.8621411 0 0.5066682
vn -0.8621411 0 0.5066682
vn -0.8621411 0 0.5066682
vn -0.8621411 0 0.5066682
vn -0.8693047 0 -0.4942768
vn -0.8693047 0 -0.4942768
vn -0.8693047 0 -0.4942768
vn -0.8693047 0 -0.4942768
vn -0.00868908 0 -0.9999623
vn -0.00868908 0 -0.9999623
vn -0.00868908 0 -0.9999623
vn -0.00868908 0 -0.9999623
vn 0.8621905 0 -0.5065843
vn 0.8621905 0 -0.5065843
vn 0.8621905 0 -0.5065843
vn 0.8621905 0 -0.5065843
vn 0.8693131 0 0.4942619
vn 0.8693131 0 0.4942619
vn 0.8693131 0 0.4942619
vn 0.8693131 0 0.4942619
vn -0.803238 0 0.5956581
vn -0.803238 0 0.5956581
vn -0.803238 0 0.5956581
vn -0.803238 0 0.5956581
vn -0.9154652 0 -0.4023972
vn -0.9154652 0 -0.4023972
vn -0.9154652 0 -0.4023972
vn -0.9154652 0 -0.4023972
vn -0.1085669 0 -0.9940891
vn -0.1085669 0 -0.9940891
vn -0.1085669 0 -0.9940891
vn -0.1085669 0 -0.9940891
vn 0.808241 0 -0.5888519
vn 0.808241 0 -0.5888519
vn 0.808241 0 -0.5888519
vn 0.808241 0 -0.5888519
vn 0.9154652 0 0.4023972
vn 0.9154652 0 0.4023972
vn 0.9154652 0 0.4023972
vn 0.9154652 0 0.4023972
vn 0.1111866 0 0.9937995
vn 0.1111866 0 0.9937995
vn 0.1111866 0 0.9937995
vn 0.1111866 0 0.9937995
vn 0 1 0
vn 0 1 0
vn 0 1 0
vn 0 1 0
vn 0 1 0
vn 0 1 0
vn 0 1 0
vn 0 1 0
vn 0 1 0
vn 0 1 0
vn 0 1 0
vn 0 1 0
vn 0.11401 0 0.9934796
vn 0.11401 0 0.9934796
vn 0.11401 0 0.9934796
vn 0.11401 0 0.9934796
vn -0.8022571 0 0.5969787
vn -0.8022571 0 0.5969787
vn -0.8022571 0 0.5969787
vn -0.8022571 0 0.5969787
vn -0.9198938 0 -0.3921677
vn -0.9198938 0 -0.3921677
vn -0.9198938 0 -0.3921677
vn -0.9198938 0 -0.3921677
vn -0.1127141 0 -0.9936275
vn -0.1127141 0 -0.9936275
vn -0.1127141 0 -0.9936275
vn -0.1127141 0 -0.9936275
vn 0.8022571 0 -0.5969787
vn 0.8022571 0 -0.5969787
vn 0.8022571 0 -0.5969787
vn 0.8022571 0 -0.5969787
vn 0.9156931 0 0.4018783
vn 0.9156931 0 0.4018783
vn 0.9156931 0 0.4018783
vn 0.9156931 0 0.4018783
g SM_Prop_Gold_Coins_04_0
f 3/3/3 2/2/2 1/1/1
f 4/4/4 3/3/3 1/1/1
f 7/7/7 6/6/6 5/5/5
f 8/8/8 7/7/7 5/5/5
f 11/11/11 10/10/10 9/9/9
f 12/12/12 11/11/11 9/9/9
f 15/15/15 14/14/14 13/13/13
f 16/16/16 15/15/15 13/13/13
f 19/19/19 18/18/18 17/17/17
f 20/20/20 19/19/19 17/17/17
f 23/23/23 22/22/22 21/21/21
f 24/24/24 23/23/23 21/21/21
f 27/27/27 26/26/26 25/25/25
f 25/25/25 28/28/28 27/27/27
f 25/25/25 29/29/29 28/28/28
f 29/29/29 30/30/30 28/28/28
f 33/33/33 32/32/32 31/31/31
f 34/34/34 33/33/33 31/31/31
f 37/37/37 36/36/36 35/35/35
f 38/38/38 37/37/37 35/35/35
f 41/41/41 40/40/40 39/39/39
f 42/42/42 41/41/41 39/39/39
f 45/45/45 44/44/44 43/43/43
f 46/46/46 45/45/45 43/43/43
f 49/49/49 48/48/48 47/47/47
f 50/50/50 49/49/49 47/47/47
f 53/53/53 52/52/52 51/51/51
f 54/54/54 53/53/53 51/51/51
f 57/57/57 56/56/56 55/55/55
f 55/55/55 58/58/58 57/57/57
f 55/55/55 59/59/59 58/58/58
f 59/59/59 60/60/60 58/58/58
f 63/63/63 62/62/62 61/61/61
f 61/61/61 64/64/64 63/63/63
f 61/61/61 65/65/65 64/64/64
f 65/65/65 66/66/66 64/64/64
f 69/69/69 68/68/68 67/67/67
f 70/70/70 69/69/69 67/67/67
f 73/73/73 72/72/72 71/71/71
f 74/74/74 73/73/73 71/71/71
f 77/77/77 76/76/76 75/75/75
f 78/78/78 77/77/77 75/75/75
f 81/81/81 80/80/80 79/79/79
f 82/82/82 81/81/81 79/79/79
f 85/85/85 84/84/84 83/83/83
f 86/86/86 85/85/85 83/83/83
f 89/89/89 88/88/88 87/87/87
f 90/90/90 89/89/89 87/87/87
f 93/93/93 92/92/92 91/91/91
f 91/91/91 94/94/94 93/93/93
f 94/94/94 95/95/95 93/93/93
f 94/94/94 96/96/96 95/95/95
f 99/99/99 98/98/98 97/97/97
f 100/100/100 99/99/99 97/97/97
f 103/103/103 102/102/102 101/101/101
f 104/104/104 103/103/103 101/101/101
f 107/107/107 106/106/106 105/105/105
f 108/108/108 107/107/107 105/105/105
f 111/111/111 110/110/110 109/109/109
f 112/112/112 111/111/111 109/109/109
f 115/115/115 114/114/114 113/113/113
f 116/116/116 115/115/115 113/113/113
f 119/119/119 118/118/118 117/117/117
f 120/120/120 119/119/119 117/117/117
f 123/123/123 122/122/122 121/121/121
f 124/124/124 123/123/123 121/121/121
f 127/127/127 126/126/126 125/125/125
f 128/128/128 127/127/127 125/125/125
f 131/131/131 130/130/130 129/129/129
f 132/132/132 131/131/131 129/129/129
f 135/135/135 134/134/134 133/133/133
f 136/136/136 135/135/135 133/133/133
f 139/139/139 138/138/138 137/137/137
f 140/140/140 139/139/139 137/137/137
f 143/143/143 142/142/142 141/141/141
f 144/144/144 143/143/143 141/141/141
f 147/147/147 146/146/146 145/145/145
f 145/145/145 148/148/148 147/147/147
f 148/148/148 149/149/149 147/147/147
f 148/148/148 150/150/150 149/149/149
f 153/153/153 152/152/152 151/151/151
f 151/151/151 154/154/154 153/153/153
f 154/154/154 155/155/155 153/153/153
f 154/154/154 156/156/156 155/155/155
f 159/159/159 158/158/158 157/157/157
f 160/160/160 159/159/159 157/157/157
f 163/163/163 162/162/162 161/161/161
f 164/164/164 163/163/163 161/161/161
f 167/167/167 166/166/166 165/165/165
f 168/168/168 167/167/167 165/165/165
f 171/171/171 170/170/170 169/169/169
f 172/172/172 171/171/171 169/169/169
f 175/175/175 174/174/174 173/173/173
f 176/176/176 175/175/175 173/173/173
f 179/179/179 178/178/178 177/177/177
f 180/180/180 179/179/179 177/177/177
