g SM_Prop_Sign_Radioactive_01
v 0.1243325 -0.1260204 -0.01529339
v 0.1425619 -0.07740854 -0.01529339
v 0.02879669 0.125816 -0.01529339
v -0.1248033 -0.1239949 -0.01529339
v -0.02757956 0.125816 -0.01529339
v -0.14202 -0.07673338 -0.01529339
v 0.02879669 0.125816 0.01508901
v 0.1425619 -0.07740854 0.01508901
v 0.1243325 -0.1260204 0.01508901
v -0.1248033 -0.1239949 0.01508901
v -0.02757956 0.125816 0.01508901
v -0.14202 -0.07673338 0.01508901
v 0.1445874 -0.1537021 0.01508901
v 0.1445874 -0.1537021 -0.01529339
v -0.1453958 -0.1513391 -0.01529339
v -0.1453958 -0.1513391 0.01508901
v -0.1453958 -0.1513391 0.01508901
v -0.1453958 -0.1513391 -0.01529339
v -0.1724024 -0.0686314 -0.01529339
v -0.1724024 -0.0686314 0.01508901
v -0.04344593 0.1528226 0.01508901
v -0.04344593 0.1528226 -0.01529339
v 0.04466306 0.152485 -0.01529339
v 0.04466306 0.152485 0.01508901
v 0.1729443 -0.06964415 0.01508901
v 0.1729443 -0.06964415 -0.01529339
v 0.1445874 -0.1537021 -0.01529339
v 0.1445874 -0.1537021 0.01508901
v -0.1724024 -0.0686314 0.01508901
v -0.1724024 -0.0686314 -0.01529339
v -0.04344593 0.1528226 -0.01529339
v -0.04344593 0.1528226 0.01508901
v 0.04466306 0.152485 0.01508901
v 0.04466306 0.152485 -0.01529339
v 0.1729443 -0.06964415 -0.01529339
v 0.1729443 -0.06964415 0.01508901
v 0.1425619 -0.07740854 0.01508901
v 0.1729443 -0.06964415 0.01508901
v 0.1445874 -0.1537021 0.01508901
v 0.1243325 -0.1260204 0.01508901
v 0.02879669 0.125816 0.01508901
v -0.1453958 -0.1513391 0.01508901
v 0.04466306 0.152485 0.01508901
v -0.1248033 -0.1239949 0.01508901
v -0.02757956 0.125816 0.01508901
v -0.1724024 -0.0686314 0.01508901
v -0.04344593 0.1528226 0.01508901
v -0.14202 -0.07673338 0.01508901
v 0.1425619 -0.07740854 -0.01529339
v 0.1243325 -0.1260204 -0.01529339
v 0.1445874 -0.1537021 -0.01529339
v 0.1729443 -0.06964415 -0.01529339
v -0.1453958 -0.1513391 -0.01529339
v 0.02879669 0.125816 -0.01529339
v -0.1248033 -0.1239949 -0.01529339
v 0.04466306 0.152485 -0.01529339
v -0.1724024 -0.0686314 -0.01529339
v -0.02757956 0.125816 -0.01529339
v -0.14202 -0.07673338 -0.01529339
v -0.04344593 0.1528226 -0.01529339
vt 0.2432963 0.0222578
vt 0.2441666 0.02660895
vt 0.2337238 0.04575402
vt 0.2198001 0.0222578
vt 0.2293726 0.04575402
vt 0.2189299 0.02660895
vt 0.2337238 0.04575402
vt 0.2441666 0.02660895
vt 0.2432963 0.0222578
vt 0.2198001 0.0222578
vt 0.2293726 0.04575402
vt 0.2189299 0.02660895
vt 0.2258917 0.02834941
vt 0.2258917 0.02834941
vt 0.2258917 0.02834941
vt 0.2258917 0.02834941
vt 0.2258917 0.02834941
vt 0.2258917 0.02834941
vt 0.2258917 0.02834941
vt 0.2258917 0.02834941
vt 0.2258917 0.02834941
vt 0.2258917 0.02834941
vt 0.2258917 0.02834941
vt 0.2258917 0.02834941
vt 0.2258917 0.02834941
vt 0.2258917 0.02834941
vt 0.2258917 0.02834941
vt 0.2258917 0.02834941
vt 0.2258917 0.02834941
vt 0.2258917 0.02834941
vt 0.2258917 0.02834941
vt 0.2258917 0.02834941
vt 0.2258917 0.02834941
vt 0.2258917 0.02834941
vt 0.2258917 0.02834941
vt 0.2258917 0.02834941
vt 0.2258917 0.02834941
vt 0.2258917 0.02834941
vt 0.2258917 0.02834941
vt 0.2258917 0.02834941
vt 0.2258917 0.02834941
vt 0.2258917 0.02834941
vt 0.2258917 0.02834941
vt 0.2258917 0.02834941
vt 0.2258917 0.02834941
vt 0.2258917 0.02834941
vt 0.2258917 0.02834941
vt 0.2258917 0.02834941
vt 0.2258917 0.02834941
vt 0.2258917 0.02834941
vt 0.2258917 0.02834941
vt 0.2258917 0.02834941
vt 0.2258917 0.02834941
vt 0.2258917 0.02834941
vt 0.2258917 0.02834941
vt 0.2258917 0.02834941
vt 0.2258917 0.02834941
vt 0.2258917 0.02834941
vt 0.2258917 0.02834941
vt 0.2258917 0.02834941
vn -0.01587117 0.01587117 -0.9997481
vn -0.01587117 -0.01587087 -0.9997481
vn -0.01587117 -0.01587087 -0.9997481
vn 0.01587087 0.01587117 -0.9997481
vn 0.01587087 -0.01587087 -0.9997481
vn 0.01587087 -0.01587087 -0.9997481
vn 0.01587087 -0.01587087 0.9997481
vn 0.01587087 -0.01587087 0.9997481
vn 0.01587087 -0.01587087 0.9997481
vn 0.01587087 -0.01587087 0.9997481
vn 0.01587087 -0.01587087 0.9997481
vn 0.01587087 -0.01587087 0.9997481
vn -0.01587117 -0.9998739 -0.00059802
vn -0.01587117 -0.9998739 -0.00059802
vn -0.01587117 -0.9998739 -0.00059802
vn -0.01587117 -0.9998739 -0.00059802
vn -0.93639 -0.3015492 -0.17956
vn -0.93639 -0.3015492 -0.17956
vn -0.93639 -0.3015492 -0.17956
vn -0.93639 -0.3015492 -0.17956
vn 0.01587087 0.9998741 0
vn 0.01587087 0.9998741 0
vn 0.01587087 0.9998741 0
vn 0.01587087 0.9998741 0
vn 0.9363898 -0.3332912 -0.1099595
vn 0.9363898 -0.3332912 -0.1099595
vn 0.9363898 -0.3332912 -0.1099595
vn 0.9363898 -0.3332912 -0.1099595
vn -0.8711522 0.4910131 0
vn -0.8711522 0.4910131 0
vn -0.8711522 0.4910131 0
vn -0.8711522 0.4910131 0
vn 0.871152 0.4910132 0
vn 0.871152 0.4910132 0
vn 0.871152 0.4910132 0
vn 0.871152 0.4910132 0
vn 0.01587087 -0.01587087 0.9997481
vn 0.01587087 -0.01587087 0.9997481
vn 0.01587087 -0.01587087 0.9997481
vn 0.01587087 -0.01587087 0.9997481
vn 0.01587087 -0.01587087 0.9997481
vn 0.01587087 -0.01587087 0.9997481
vn 0.01587087 -0.01587087 0.9997481
vn 0.01587087 -0.01587087 0.9997481
vn 0.01587087 -0.01587087 0.9997481
vn 0.01587087 -0.01587087 0.9997481
vn 0.01587087 -0.01587087 0.9997481
vn 0.01587087 -0.01587087 0.9997481
vn -0.01587117 -0.01587087 -0.9997481
vn -0.01587117 0.01587117 -0.9997481
vn -0.01587117 0.01587117 -0.9997481
vn -0.01587117 -0.01587087 -0.9997481
vn 0.01587087 0.01587117 -0.9997481
vn -0.01587117 -0.01587087 -0.9997481
vn 0.01587087 0.01587117 -0.9997481
vn -0.01587117 -0.01587087 -0.9997481
vn 0.01587087 -0.01587087 -0.9997481
vn 0.01587087 -0.01587087 -0.9997481
vn 0.01587087 -0.01587087 -0.9997481
vn 0.01587087 -0.01587087 -0.9997481
g SM_Prop_Sign_Radioactive_01_0
f 3/3/3 2/2/2 1/1/1
f 1/1/1 4/4/4 3/3/3
f 4/4/4 5/5/5 3/3/3
f 4/4/4 6/6/6 5/5/5
f 9/9/9 8/8/8 7/7/7
f 7/7/7 10/10/10 9/9/9
f 7/7/7 11/11/11 10/10/10
f 11/11/11 12/12/12 10/10/10
f 15/15/15 14/14/14 13/13/13
f 16/16/16 15/15/15 13/13/13
f 19/19/19 18/18/18 17/17/17
f 20/20/20 19/19/19 17/17/17
f 23/23/23 22/22/22 21/21/21
f 24/24/24 23/23/23 21/21/21
f 27/27/27 26/26/26 25/25/25
f 28/28/28 27/27/27 25/25/25
f 31/31/31 30/30/30 29/29/29
f 32/32/32 31/31/31 29/29/29
f 35/35/35 34/34/34 33/33/33
f 36/36/36 35/35/35 33/33/33
f 39/39/39 38/38/38 37/37/37
f 40/40/40 39/39/39 37/37/37
f 37/37/37 38/38/38 41/41/41
f 42/42/42 39/39/39 40/40/40
f 38/38/38 43/43/43 41/41/41
f 44/44/44 42/42/42 40/40/40
f 41/41/41 43/43/43 45/45/45
f 46/46/46 42/42/42 44/44/44
f 43/43/43 47/47/47 45/45/45
f 48/48/48 46/46/46 44/44/44
f 45/45/45 47/47/47 48/48/48
f 47/47/47 46/46/46 48/48/48
f 51/51/51 50/50/50 49/49/49
f 52/52/52 51/51/51 49/49/49
f 51/51/51 53/53/53 50/50/50
f 52/52/52 49/49/49 54/54/54
f 53/53/53 55/55/55 50/50/50
f 56/56/56 52/52/52 54/54/54
f 53/53/53 57/57/57 55/55/55
f 56/56/56 54/54/54 58/58/58
f 57/57/57 59/59/59 55/55/55
f 60/60/60 56/56/56 58/58/58
f 60/60/60 58/58/58 59/59/59
f 57/57/57 60/60/60 59/59/59
