g SM_Prop_Lab_Clamp_01
v -0.08064026 0.01582092 0.08064033
v -0.06778412 0.03567245 0.06778425
v 0.06778442 0.03567245 0.06778425
v 0.08064026 0.01582092 0.08064033
v -0.06778412 0.03567245 0.06778425
v -0.06778412 0.03567245 -0.06778425
v 0.06778442 0.03567245 -0.06778425
v 0.06778442 0.03567245 0.06778425
v -0.06778412 0.03567245 -0.06778425
v -0.08064026 0.01582092 -0.08064033
v 0.08064026 0.01582092 -0.08064033
v 0.06778442 0.03567245 -0.06778425
v -0.08064026 0 -0.08064033
v -0.08064026 0 0.08064033
v 0.08064026 0 0.08064033
v 0.08064026 0 -0.08064033
v 0.08064026 0.01582092 0.08064033
v 0.06778442 0.03567245 0.06778425
v 0.06778442 0.03567245 -0.06778425
v 0.08064026 0.01582092 -0.08064033
v -0.08064026 0.01582092 -0.08064033
v -0.06778412 0.03567245 -0.06778425
v -0.06778412 0.03567245 0.06778425
v -0.08064026 0.01582092 0.08064033
v -0.08064026 0.01582092 -0.08064033
v -0.08064026 0 -0.08064033
v 0.08064026 0 -0.08064033
v 0.08064026 0.01582092 -0.08064033
v 0.08064026 0.01582092 -0.08064033
v 0.08064026 0 -0.08064033
v 0.08064026 0 0.08064033
v 0.08064026 0.01582092 0.08064033
v 0.08064026 0.01582092 0.08064033
v 0.08064026 0 0.08064033
v -0.08064026 0 0.08064033
v -0.08064026 0.01582092 0.08064033
v -0.08064026 0.01582092 0.08064033
v -0.08064026 0 0.08064033
v -0.08064026 0 -0.08064033
v -0.08064026 0.01582092 -0.08064033
v 0.009226379 0.7237283 -0.01598045
v 0.006402283 0.7318855 -0.01108896
v -0.006402283 0.7318855 -0.01108897
v -0.009226379 0.7237283 -0.01598045
v -0.009226379 0.7237283 -0.01598045
v -0.006402283 0.7318855 -0.01108897
v -0.01280457 0.7318855 -1.526407E-09
v -0.01845276 0.7237283 -2.199725E-09
v -0.01845276 0.7237283 -2.199725E-09
v -0.01280457 0.7318855 -1.526407E-09
v -0.006402283 0.7318855 0.01108896
v -0.009226379 0.7237283 0.01598045
v -0.009226379 0.7237283 0.01598045
v -0.006402283 0.7318855 0.01108896
v 0.006402283 0.7318855 0.01108897
v 0.009226379 0.7237283 0.01598045
v 0.009226379 0.7237283 0.01598045
v 0.006402283 0.7318855 0.01108897
v 0.01280457 0.7318855 3.816019E-10
v 0.01845276 0.7237283 5.499313E-10
v 0.01845276 0.7237283 5.499313E-10
v 0.01280457 0.7318855 3.816019E-10
v 0.006402283 0.7318855 -0.01108896
v 0.009226379 0.7237283 -0.01598045
v 0.009226379 0.03567245 -0.01598045
v 0.009226379 0.7237283 -0.01598045
v -0.009226379 0.7237283 -0.01598045
v -0.009226379 0.03567245 -0.01598045
v -0.009226379 0.03567245 -0.01598045
v -0.009226379 0.7237283 -0.01598045
v -0.01845276 0.7237283 -2.199725E-09
v -0.01845276 0.03567245 -2.199725E-09
v -0.01845276 0.03567245 -2.199725E-09
v -0.01845276 0.7237283 -2.199725E-09
v -0.009226379 0.7237283 0.01598045
v -0.009226379 0.03567245 0.01598045
v -0.009226379 0.03567245 0.01598045
v -0.009226379 0.7237283 0.01598045
v 0.009226379 0.7237283 0.01598045
v 0.009226379 0.03567245 0.01598045
v 0.009226379 0.03567245 0.01598045
v 0.009226379 0.7237283 0.01598045
v 0.01845276 0.7237283 5.499313E-10
v 0.01845276 0.03567245 5.499313E-10
v 0.01845276 0.03567245 5.499313E-10
v 0.01845276 0.7237283 5.499313E-10
v 0.009226379 0.7237283 -0.01598045
v 0.009226379 0.03567245 -0.01598045
v 0.006402283 0.7318855 0.01108897
v 0 0.7318855 5.18277E-10
v 0.01280457 0.7318855 3.816019E-10
v -0.006402283 0.7318855 0.01108896
v 0.006402283 0.7318855 -0.01108896
v -0.01280457 0.7318855 -1.526407E-09
v -0.006402283 0.7318855 -0.01108897
v 0.01845276 0.03567245 5.499313E-10
v 0 0.03567245 5.499313E-10
v 0.009226379 0.03567245 0.01598045
v 0.009226379 0.03567245 -0.01598045
v -0.009226379 0.03567245 0.01598045
v -0.009226379 0.03567245 -0.01598045
v -0.01845276 0.03567245 -2.199725E-09
vt 0.1019142 0.2293257
vt 0.1019142 0.2293257
vt 0.1019142 0.2293257
vt 0.1019142 0.2293257
vt 0.1019142 0.2293257
vt 0.1019142 0.2293257
vt 0.1019142 0.2293257
vt 0.1019142 0.2293257
vt 0.1019142 0.2293257
vt 0.1019142 0.2293257
vt 0.1019142 0.2293257
vt 0.1019142 0.2293257
vt 0.1019142 0.2293257
vt 0.1019142 0.2293257
vt 0.1019142 0.2293257
vt 0.1019142 0.2293257
vt 0.1019142 0.2293257
vt 0.1019142 0.2293257
vt 0.1019142 0.2293257
vt 0.1019142 0.2293257
vt 0.1019142 0.2293257
vt 0.1019142 0.2293257
vt 0.1019142 0.2293257
vt 0.1019142 0.2293257
vt 0.1019142 0.2293257
vt 0.1019142 0.2293257
vt 0.1019142 0.2293257
vt 0.1019142 0.2293257
vt 0.1019142 0.2293257
vt 0.1019142 0.2293257
vt 0.1019142 0.2293257
vt 0.1019142 0.2293257
vt 0.1019142 0.2293257
vt 0.1019142 0.2293257
vt 0.1019142 0.2293257
vt 0.1019142 0.2293257
vt 0.1019142 0.2293257
vt 0.1019142 0.2293257
vt 0.1019142 0.2293257
vt 0.1019142 0.2293257
vt 0.1019142 0.2293257
vt 0.1019142 0.2293257
vt 0.1019142 0.2293257
vt 0.1019142 0.2293257
vt 0.1019142 0.2293257
vt 0.1019142 0.2293257
vt 0.1019142 0.2293257
vt 0.1019142 0.2293257
vt 0.1019142 0.2293257
vt 0.1019142 0.2293257
vt 0.1019142 0.2293257
vt 0.1019142 0.2293257
vt 0.1019142 0.2293257
vt 0.1019142 0.2293257
vt 0.1019142 0.2293257
vt 0.1019142 0.2293257
vt 0.1019142 0.2293257
vt 0.1019142 0.2293257
vt 0.1019142 0.2293257
vt 0.1019142 0.2293257
vt 0.1019142 0.2293257
vt 0.1019142 0.2293257
vt 0.1019142 0.2293257
vt 0.1019142 0.2293257
vt 0.1019142 0.2293257
vt 0.1019142 0.2293257
vt 0.1019142 0.2293257
vt 0.1019142 0.2293257
vt 0.1019142 0.2293257
vt 0.1019142 0.2293257
vt 0.1019142 0.2293257
vt 0.1019142 0.2293257
vt 0.1019142 0.2293257
vt 0.1019142 0.2293257
vt 0.1019142 0.2293257
vt 0.1019142 0.2293257
vt 0.1019142 0.2293257
vt 0.1019142 0.2293257
vt 0.1019142 0.2293257
vt 0.1019142 0.2293257
vt 0.1019142 0.2293257
vt 0.1019142 0.2293257
vt 0.1019142 0.2293257
vt 0.1019142 0.2293257
vt 0.1019142 0.2293257
vt 0.1019142 0.2293257
vt 0.1019142 0.2293257
vt 0.1019142 0.2293257
vt 0.1019142 0.2293257
vt 0.1019142 0.2293257
vt 0.1019142 0.2293257
vt 0.1019142 0.2293257
vt 0.1019142 0.2293257
vt 0.1019142 0.2293257
vt 0.1019142 0.2293257
vt 0.1019142 0.2293257
vt 0.1019142 0.2293257
vt 0.1019142 0.2293257
vt 0.1019142 0.2293257
vt 0.1019142 0.2293257
vt 0.1019142 0.2293257
vt 0.1019142 0.2293257
vn 0 0.5435783 0.8393584
vn 0 0.5435783 0.8393584
vn 0 0.5435783 0.8393584
vn 0 0.5435783 0.8393584
vn 0 1 0
vn 0 1 0
vn 0 1 0
vn 0 1 0
vn 0 0.5435783 -0.8393584
vn 0 0.5435783 -0.8393584
vn 0 0.5435783 -0.8393584
vn 0 0.5435783 -0.8393584
vn 0 -1 0
vn 0 -1 0
vn 0 -1 0
vn 0 -1 0
vn 0.8393632 0.5435709 0
vn 0.8393632 0.5435709 0
vn 0.8393632 0.5435709 0
vn 0.8393632 0.5435709 0
vn -0.8393574 0.5435801 0
vn -0.8393574 0.5435801 0
vn -0.8393574 0.5435801 0
vn -0.8393574 0.5435801 0
vn 0 0 -1
vn 0 0 -1
vn 0 0 -1
vn 0 0 -1
vn 1 0 0
vn 1 0 0
vn 1 0 0
vn 1 0 0
vn 0 0 1
vn 0 0 1
vn 0 0 1
vn 0 0 1
vn -1 0 0
vn -1 0 0
vn -1 0 0
vn -1 0 0
vn 0 0.5142766 -0.8576244
vn 0 0.5142766 -0.8576244
vn 0 0.5142766 -0.8576244
vn 0 0.5142766 -0.8576244
vn -0.7427231 0.5142764 -0.4288149
vn -0.7427231 0.5142764 -0.4288149
vn -0.7427231 0.5142764 -0.4288149
vn -0.7427231 0.5142764 -0.4288149
vn -0.7427232 0.5142763 0.4288149
vn -0.7427232 0.5142763 0.4288149
vn -0.7427232 0.5142763 0.4288149
vn -0.7427232 0.5142763 0.4288149
vn 0 0.5142766 0.8576244
vn 0 0.5142766 0.8576244
vn 0 0.5142766 0.8576244
vn 0 0.5142766 0.8576244
vn 0.7427231 0.5142763 0.4288149
vn 0.7427231 0.5142763 0.4288149
vn 0.7427231 0.5142763 0.4288149
vn 0.7427231 0.5142763 0.4288149
vn 0.7427231 0.5142764 -0.4288149
vn 0.7427231 0.5142764 -0.4288149
vn 0.7427231 0.5142764 -0.4288149
vn 0.7427231 0.5142764 -0.4288149
vn 0 0 -1
vn 0 0 -1
vn 0 0 -1
vn 0 0 -1
vn -0.8660239 0 -0.5000026
vn -0.8660239 0 -0.5000026
vn -0.8660239 0 -0.5000026
vn -0.8660239 0 -0.5000026
vn -0.866024 0 0.5000026
vn -0.866024 0 0.5000026
vn -0.866024 0 0.5000026
vn -0.866024 0 0.5000026
vn 0 0 1
vn 0 0 1
vn 0 0 1
vn 0 0 1
vn 0.8660239 0 0.5000026
vn 0.8660239 0 0.5000026
vn 0.8660239 0 0.5000026
vn 0.8660239 0 0.5000026
vn 0.8660239 0 -0.5000026
vn 0.8660239 0 -0.5000026
vn 0.8660239 0 -0.5000026
vn 0.8660239 0 -0.5000026
vn 0 1 0
vn 0 1 0
vn 0 1 0
vn 0 1 0
vn 0 1 0
vn 0 1 0
vn 0 1 0
vn 0 -1 0
vn 0 -1 0
vn 0 -1 0
vn 0 -1 0
vn 0 -1 0
vn 0 -1 0
vn 0 -1 0
g SM_Prop_Lab_Clamp_01_0
f 3/3/3 2/2/2 1/1/1
f 4/4/4 3/3/3 1/1/1
f 7/7/7 6/6/6 5/5/5
f 8/8/8 7/7/7 5/5/5
f 11/11/11 10/10/10 9/9/9
f 12/12/12 11/11/11 9/9/9
f 15/15/15 14/14/14 13/13/13
f 16/16/16 15/15/15 13/13/13
f 19/19/19 18/18/18 17/17/17
f 20/20/20 19/19/19 17/17/17
f 23/23/23 22/22/22 21/21/21
f 24/24/24 23/23/23 21/21/21
f 27/27/27 26/26/26 25/25/25
f 28/28/28 27/27/27 25/25/25
f 31/31/31 30/30/30 29/29/29
f 32/32/32 31/31/31 29/29/29
f 35/35/35 34/34/34 33/33/33
f 36/36/36 35/35/35 33/33/33
f 39/39/39 38/38/38 37/37/37
f 40/40/40 39/39/39 37/37/37
f 43/43/43 42/42/42 41/41/41
f 44/44/44 43/43/43 41/41/41
f 47/47/47 46/46/46 45/45/45
f 48/48/48 47/47/47 45/45/45
f 51/51/51 50/50/50 49/49/49
f 52/52/52 51/51/51 49/49/49
f 55/55/55 54/54/54 53/53/53
f 56/56/56 55/55/55 53/53/53
f 59/59/59 58/58/58 57/57/57
f 60/60/60 59/59/59 57/57/57
f 63/63/63 62/62/62 61/61/61
f 64/64/64 63/63/63 61/61/61
f 67/67/67 66/66/66 65/65/65
f 68/68/68 67/67/67 65/65/65
f 71/71/71 70/70/70 69/69/69
f 72/72/72 71/71/71 69/69/69
f 75/75/75 74/74/74 73/73/73
f 76/76/76 75/75/75 73/73/73
f 79/79/79 78/78/78 77/77/77
f 80/80/80 79/79/79 77/77/77
f 83/83/83 82/82/82 81/81/81
f 84/84/84 83/83/83 81/81/81
f 87/87/87 86/86/86 85/85/85
f 88/88/88 87/87/87 85/85/85
f 91/91/91 90/90/90 89/89/89
f 89/89/89 90/90/90 92/92/92
f 93/93/93 90/90/90 91/91/91
f 92/92/92 90/90/90 94/94/94
f 95/95/95 90/90/90 93/93/93
f 94/94/94 90/90/90 95/95/95
f 98/98/98 97/97/97 96/96/96
f 96/96/96 97/97/97 99/99/99
f 100/100/100 97/97/97 98/98/98
f 99/99/99 97/97/97 101/101/101
f 102/102/102 97/97/97 100/100/100
f 101/101/101 97/97/97 102/102/102
