g SM_Prop_Locker_01
v -0.3082137 0.4610442 0.2904078
v 0.3082137 0.4610442 0.2904078
v -0.3082137 0.4610442 -0.3048283
v 0.3082137 0.4610442 -0.3048283
v -0.3082133 0.4982353 0.2904078
v 0.3082133 0.4982353 0.2904078
v -0.3082133 0.4982353 -0.3048278
v 0.3082133 0.4982353 -0.3048278
v -0.3082137 0.9135294 0.2904078
v 0.3082137 0.9135294 0.2904078
v -0.3082137 0.9135294 -0.3048283
v 0.3082137 0.9135294 -0.3048283
v -0.3082133 0.9507205 0.2904078
v 0.3082133 0.9507205 0.2904078
v -0.3082133 0.9507205 -0.3048278
v 0.3082133 0.9507205 -0.3048278
v -0.3286523 0 0.3158592
v 0.3286523 0 0.3158592
v -0.3035188 2.29519 0.3158592
v 0.3286523 2.318057 0.3158592
v -0.3286523 2.318057 -0.3414454
v 0.3286523 2.269971 -0.3414454
v -0.3286523 0 -0.3414454
v 0.3286523 0 -0.3414454
v -0.2877747 0.03719116 0.3158592
v 0.2877747 0.03719116 0.3158592
v 0.2877747 2.280866 0.3158592
v -0.2877747 2.280866 0.3158592
v -0.2877747 0.03719116 -0.2862635
v 0.2877747 0.03719116 -0.2862635
v 0.2877747 2.280866 -0.2862635
v -0.2877747 2.280866 -0.2862635
v -0.03638643 0.9507207 -0.3048278
v -0.03638643 0.9507207 0.2904078
v -0.03638648 0.9135295 0.2904078
v -0.03638648 0.9135295 -0.3048283
v 0.1645111 0.9507207 -0.3048278
v 0.1645111 0.9360315 0.2467364
v 0.1645113 0.8988404 0.2467364
v 0.1645113 0.9135295 -0.3048283
v -0.3286523 0.9078973 0.3158592
v -0.2877747 0.9159557 0.3158592
v -0.2877747 0.9159557 -0.2862635
v 0.2877747 0.9159557 -0.2862635
v 0.2877747 0.9159557 0.3158592
v 0.3286523 0.9078973 0.241894
v 0.3286523 0.9078973 -0.3414454
v -0.2987415 0.9078973 -0.3414454
v 0.3286523 2.318057 -0.146274
v 0.1772711 2.318057 -0.3414454
v 0.2960965 2.318057 -0.2941419
v 0.3066895 0.9140009 0.3158592
v 0.3286523 1.064063 0.3158592
v 0.3286523 0.7357037 0.3158592
v -0.3286523 1.104697 -0.3414454
v -0.3286523 0.9078973 -0.274414
v -0.3286523 0.7266955 -0.3414454
v -0.3286523 2.318058 0.1020123
v -0.3286523 2.201805 0.3158592
v -0.2468619 2.318057 0.3158592
v -0.3082137 0.4610442 0.2904078
v 0.3082137 0.4610442 0.2904078
v -0.3082133 0.4982353 0.2904078
v 0.3082133 0.4982353 0.2904078
v 0.3082137 0.9135294 0.2904078
v 0.1645113 0.8988404 0.2467364
v 0.3082133 0.9507205 0.2904078
v 0.1645111 0.9360315 0.2467364
v 0.3286523 2.269971 -0.3414454
v 0.3286523 0.9078973 -0.3414454
v -0.3286523 2.318058 0.1020123
v -0.3035188 2.29519 0.3158592
v -0.3286523 0 0.3158592
v 0.3286523 0 0.3158592
v 0.3286523 2.318057 0.3158592
v 0.3286523 1.064063 0.3158592
v -0.2877747 0.03719116 0.3158592
v 0.2877747 0.03719116 0.3158592
v 0.2877747 0.9159557 -0.2862635
v 0.2877747 2.280866 -0.2862635
v 0.2877747 2.280866 0.3158592
v 0.2877747 0.9159557 0.3158592
v 0.2877747 2.280866 0.3158592
v 0.2877747 2.280866 -0.2862635
v -0.2877747 2.280866 -0.2862635
v -0.2877747 2.280866 0.3158592
v -0.2877747 2.280866 -0.2862635
v -0.2877747 0.9159557 -0.2862635
v -0.3082133 0.9507205 0.2904078
v -0.03638643 0.9507207 0.2904078
v -0.3082137 0.9135294 0.2904078
v -0.03638648 0.9135295 0.2904078
v -0.03638643 0.9507207 0.2904078
v 0.1645111 0.9360315 0.2467364
v 0.1645113 0.8988404 0.2467364
v -0.03638648 0.9135295 0.2904078
v -0.2877747 0.9159557 0.3158592
v -0.2877747 0.03719116 -0.2862635
v -0.2877747 0.03719116 0.3158592
v -0.2877747 0.03719116 -0.2862635
v 0.2877747 0.03719116 -0.2862635
v 0.2877747 0.03719116 0.3158592
v 0.2877747 0.03719116 -0.2862635
v 0.3286523 0 -0.3414454
v 0.3286523 0 0.3158592
v 0.3286523 0.7357037 0.3158592
v -0.3286523 0 -0.3414454
v 0.3286523 0 -0.3414454
v -0.3286523 0.9078973 0.3158592
v -0.3286523 0 0.3158592
v -0.3286523 0 -0.3414454
v -0.3286523 0.7266955 -0.3414454
v 0.1772711 2.318057 -0.3414454
v 0.3286523 2.269971 -0.3414454
v 0.3286523 2.269971 -0.3414454
v 0.3286523 2.318057 -0.146274
v 0.2960965 2.318057 -0.2941419
v 0.3286523 1.064063 0.3158592
v 0.3286523 0.9078973 0.241894
v 0.3066895 0.9140009 0.3158592
v 0.3066895 0.9140009 0.3158592
v 0.3286523 0.9078973 0.241894
v 0.3286523 0.7357037 0.3158592
v -0.2987415 0.9078973 -0.3414454
v -0.3286523 1.104697 -0.3414454
v -0.3286523 0.9078973 -0.274414
v -0.3286523 0.7266955 -0.3414454
v -0.2987415 0.9078973 -0.3414454
v -0.3286523 0.9078973 -0.274414
v -0.3286523 2.201805 0.3158592
v -0.3286523 1.104697 -0.3414454
v -0.3286523 2.318057 -0.3414454
v -0.3286523 2.318058 0.1020123
v -0.3035188 2.29519 0.3158592
v -0.2877747 2.280866 0.3158592
v -0.3286523 2.201805 0.3158592
v -0.2468619 2.318057 0.3158592
v -0.3286523 2.318058 0.1020123
v -0.3286523 2.318057 -0.3414454
v 0.1772711 2.318057 -0.3414454
v 0.2960965 2.318057 -0.2941419
v 0.3286523 2.318057 -0.146274
v 0.3286523 2.318057 0.3158592
v -0.2468619 2.318057 0.3158592
vt 0.219726 0.3096909
vt 0.219726 0.3097074
vt 0.219726 0.2832275
vt 0.219726 0.2713252
vt 0.219726 0.3096809
vt 0.219726 0.3096974
vt 0.219726 0.2832175
vt 0.219726 0.2713151
vt 0.219726 0.2933315
vt 0.219726 0.3097074
vt 0.219726 0.2711809
vt 0.219726 0.3095602
vt 0.219726 0.2933215
vt 0.219726 0.3096974
vt 0.219726 0.2711709
vt 0.219726 0.3095501
vt 0.219726 0.3098762
vt 0.219726 0.2744278
vt 0.219726 0.3089367
vt 0.219726 0.3089285
vt 0.219726 0.3088921
vt 0.219726 0.3089031
vt 0.219726 0.3097327
vt 0.219726 0.3097446
vt 0.219726 0.3098716
vt 0.219726 0.2744213
vt 0.219726 0.3089708
vt 0.219726 0.3089655
vt 0.219726 0.2806461
vt 0.219726 0.2803797
vt 0.219726 0.3089272
vt 0.219726 0.3089245
vt 0.219726 0.2789174
vt 0.219726 0.3096882
vt 0.219726 0.3096982
vt 0.219726 0.2789274
vt 0.219726 0.2929235
vt 0.219726 0.3096936
vt 0.219726 0.3097036
vt 0.219726 0.2929336
vt 0.219726 0.3095033
vt 0.219726 0.3095167
vt 0.219726 0.3094193
vt 0.219726 0.3094268
vt 0.219726 0.3095273
vt 0.219726 0.3095089
vt 0.219726 0.3094116
vt 0.219726 0.3094038
vt 0.219726 0.3089045
vt 0.219726 0.3088938
vt 0.219726 0.3088967
vt 0.219726 0.3095243
vt 0.219726 0.3094498
vt 0.219726 0.3028601
vt 0.219726 0.3093321
vt 0.219726 0.3094188
vt 0.219726 0.3094692
vt 0.219726 0.3089136
vt 0.219726 0.3089717
vt 0.219726 0.3089246
vt 0.219726 0.3096909
vt 0.219726 0.3097074
vt 0.219726 0.3096809
vt 0.219726 0.3096974
vt 0.219726 0.3097074
vt 0.219726 0.3097036
vt 0.219726 0.3096974
vt 0.219726 0.3096936
vt 0.219726 0.3089031
vt 0.219726 0.3094116
vt 0.219726 0.3089136
vt 0.219726 0.3089367
vt 0.219726 0.3098762
vt 0.219726 0.2744278
vt 0.219726 0.3089285
vt 0.219726 0.3094498
vt 0.219726 0.3098716
vt 0.219726 0.2744213
vt 0.219726 0.3094268
vt 0.219726 0.3089272
vt 0.219726 0.3089708
vt 0.219726 0.3095273
vt 0.219726 0.3089708
vt 0.219726 0.3089272
vt 0.219726 0.3089245
vt 0.219726 0.3089655
vt 0.219726 0.3089245
vt 0.219726 0.3094193
vt 0.219726 0.2933215
vt 0.219726 0.3096882
vt 0.219726 0.2933315
vt 0.219726 0.3096982
vt 0.219726 0.3096882
vt 0.219726 0.3096936
vt 0.219726 0.3097036
vt 0.219726 0.3096982
vt 0.219726 0.3095167
vt 0.219726 0.2806461
vt 0.219726 0.3098716
vt 0.219726 0.2806461
vt 0.219726 0.2803797
vt 0.219726 0.2744213
vt 0.219726 0.2803797
vt 0.219726 0.3097446
vt 0.219726 0.2744278
vt 0.219726 0.3028601
vt 0.219726 0.3097327
vt 0.219726 0.3097446
vt 0.219726 0.3095033
vt 0.219726 0.3098762
vt 0.219726 0.3097327
vt 0.219726 0.3094692
vt 0.219726 0.3088938
vt 0.219726 0.3089031
vt 0.219726 0.3089031
vt 0.219726 0.3089045
vt 0.219726 0.3088967
vt 0.219726 0.3094498
vt 0.219726 0.3095089
vt 0.219726 0.3095243
vt 0.219726 0.3095243
vt 0.219726 0.3095089
vt 0.219726 0.3028601
vt 0.219726 0.3094038
vt 0.219726 0.3093321
vt 0.219726 0.3094188
vt 0.219726 0.3094692
vt 0.219726 0.3094038
vt 0.219726 0.3094188
vt 0.219726 0.3089717
vt 0.219726 0.3093321
vt 0.219726 0.3088921
vt 0.219726 0.3089136
vt 0.219726 0.3089367
vt 0.219726 0.3089655
vt 0.219726 0.3089717
vt 0.219726 0.3089246
vt 0.219726 0.3089136
vt 0.219726 0.3088921
vt 0.219726 0.3088938
vt 0.219726 0.3088967
vt 0.219726 0.3089045
vt 0.219726 0.3089285
vt 0.219726 0.3089246
vn 0 -1 0
vn 0 -1 0
vn 0 -1 0
vn 0 -1 0
vn 0 0 1
vn 0 0 1
vn 0 1 0
vn 0 1 0
vn 0 0 1
vn 0.05297639 -0.9985139 -0.01278973
vn 2.806708E-07 -1 0
vn 0.0529764 -0.9985139 -0.01278973
vn -2.806711E-07 1 0
vn -0.2907708 -2.534086E-06 0.9567927
vn -2.806711E-07 1 0
vn -0.05297646 0.9985139 0.01278974
vn 0 -1 0
vn 0 -1 0
vn -0.3704935 0.9179621 0.141704
vn 1 0 0
vn 0 0 -1
vn 0 0 -1
vn 0 -1 0
vn 0 -1 0
vn 0 0 1
vn 0 0 1
vn 0 0 1
vn 0 -1 0
vn 0 1 0
vn 0 1 0
vn 0 0 1
vn 0 0 1
vn 0.01578035 0.9998612 0.005326068
vn 0.01445273 0.9998837 0.00487799
vn 0 0 1
vn -0.01578032 -0.9998612 -0.005326064
vn 2.261257E-07 0.999918 0.01280773
vn -0.2907708 -2.534086E-06 0.9567927
vn 0.0009661326 -0.9999175 -0.01280771
vn -2.162936E-07 -0.999918 -0.01280772
vn 0 0 1
vn 1 0 0
vn 0 0 1
vn 0 0 1
vn 0 0 1
vn 1 0 0
vn 0 0 -1
vn 0 0 -1
vn 1 0 0
vn 0 0 -1
vn 0.2409766 0.758623 -0.6053275
vn 0 0 1
vn 1 0 0
vn 0 0 1
vn 0 0 -1
vn -1 0 0
vn 0 0 -1
vn -0.3704935 0.9179623 0.141704
vn -0.9561428 0.2573342 0.139893
vn -0.3704935 0.9179621 0.141704
vn 0 0 1
vn 0 0 1
vn 0 1 0
vn 0 1 0
vn -0.2907708 -2.534086E-06 0.9567927
vn -0.2907709 -2.534086E-06 0.9567927
vn -0.05297646 0.9985139 0.01278974
vn -0.0009661283 0.9999175 0.01280772
vn 1 0 0
vn 1 0 0
vn -0.9561428 0.2573342 0.139893
vn -0.9561428 0.2573341 0.139893
vn 0 0 1
vn 0 0 1
vn 0 0 1
vn 0 0 1
vn 0 1 0
vn 0 1 0
vn -1 0 0
vn -1 0 0
vn -1 0 0
vn -1 0 0
vn 0 -1 0
vn 0 -1 0
vn 0 -1 0
vn 1 0 0
vn 1 0 0
vn 1 0 0
vn 0 0 1
vn 0 0 1
vn 2.806708E-07 -1 0
vn -0.01445271 -0.9998837 -0.004877987
vn 0.2124204 5.505892E-07 0.9771783
vn 0.2124204 5.505892E-07 0.9771783
vn 0.2124204 5.505893E-07 0.9771783
vn 0.2124205 5.505893E-07 0.9771783
vn 0 0 1
vn 1 0 0
vn 1 0 0
vn 0 0 1
vn 0 0 1
vn -1 0 0
vn -1 0 0
vn 1 0 0
vn 1 0 0
vn 1 0 0
vn 0 0 -1
vn 0 0 -1
vn -1 0 0
vn -1 0 0
vn -1 0 0
vn -1 0 0
vn 0.2409766 0.7586229 -0.6053276
vn 0.2409766 0.758623 -0.6053275
vn 0.7358078 0.6575276 -0.1620013
vn 0.7358078 0.6575276 -0.1620013
vn 0.7358078 0.6575276 -0.1620013
vn 0.9462178 -0.1384868 0.2923922
vn 0.9462178 -0.1384868 0.2923922
vn 0.9462178 -0.1384868 0.2923922
vn 0.954587 0.1175867 0.2737462
vn 0.954587 0.1175867 0.2737462
vn 0.954587 0.1175867 0.2737462
vn -0.9045379 -0.1374772 -0.4036226
vn -0.9045379 -0.1374772 -0.4036226
vn -0.9045379 -0.1374772 -0.4036226
vn -0.9030069 0.1490581 -0.4029395
vn -0.9030069 0.1490581 -0.4029394
vn -0.9030069 0.1490581 -0.4029395
vn -1 0 0
vn -1 0 0
vn -1 0 0
vn -1 0 0
vn 0 0 1
vn 0 0 1
vn 0 0 1
vn 0 0 1
vn 0 1 0
vn 0 1 -3.440866E-07
vn 0 1 -2.911848E-07
vn 1.710955E-07 1 -1.153495E-07
vn 2.262687E-07 1 0
vn 2.107616E-07 1 0
vn 0 1 7.135383E-07
g SM_Prop_Locker_01_0
f 60/60/60 58/58/58 19/19/19
f 59/59/59 72/72/72 71/71/71
f 51/51/51 114/114/114 113/113/113
f 117/117/117 116/116/116 115/115/115
f 120/120/120 119/119/119 118/118/118
f 123/123/123 122/122/122 121/121/121
f 126/126/126 125/125/125 124/124/124
f 129/129/129 128/128/128 127/127/127
f 2/2/2 1/1/1 3/3/3
f 4/4/4 2/2/2 3/3/3
f 6/6/6 5/5/5 61/61/61
f 62/62/62 6/6/6 61/61/61
f 8/8/8 7/7/7 63/63/63
f 64/64/64 8/8/8 63/63/63
f 12/12/12 10/10/10 39/39/39
f 40/40/40 12/12/12 39/39/39
f 40/40/40 39/39/39 92/92/92
f 36/36/36 40/40/40 92/92/92
f 36/36/36 92/92/92 11/11/11
f 92/92/92 91/91/91 11/11/11
f 65/65/65 14/14/14 38/38/38
f 66/66/66 65/65/65 38/38/38
f 67/67/67 16/16/16 37/37/37
f 68/68/68 67/67/67 37/37/37
f 68/68/68 37/37/37 33/33/33
f 34/34/34 68/68/68 33/33/33
f 34/34/34 33/33/33 13/13/13
f 33/33/33 15/15/15 13/13/13
f 31/31/31 32/32/32 43/43/43
f 44/44/44 31/31/31 43/43/43
f 44/44/44 43/43/43 100/100/100
f 101/101/101 44/44/44 100/100/100
f 48/48/48 55/55/55 21/21/21
f 48/48/48 21/21/21 50/50/50
f 48/48/48 50/50/50 22/22/22
f 22/22/22 47/47/47 48/48/48
f 107/107/107 48/48/48 47/47/47
f 47/47/47 108/108/108 107/107/107
f 107/107/107 57/57/57 48/48/48
f 18/18/18 17/17/17 23/23/23
f 24/24/24 18/18/18 23/23/23
f 69/69/69 49/49/49 20/20/20
f 69/69/69 20/20/20 53/53/53
f 69/69/69 53/53/53 46/46/46
f 46/46/46 70/70/70 69/69/69
f 70/70/70 46/46/46 106/106/106
f 70/70/70 106/106/106 105/105/105
f 105/105/105 104/104/104 70/70/70
f 30/30/30 29/29/29 77/77/77
f 78/78/78 30/30/30 77/77/77
f 81/81/81 80/80/80 79/79/79
f 82/82/82 81/81/81 79/79/79
f 82/82/82 79/79/79 102/102/102
f 79/79/79 103/103/103 102/102/102
f 85/85/85 84/84/84 83/83/83
f 28/28/28 85/85/85 83/83/83
f 88/88/88 87/87/87 86/86/86
f 42/42/42 88/88/88 86/86/86
f 42/42/42 99/99/99 88/88/88
f 99/99/99 98/98/98 88/88/88
f 90/90/90 89/89/89 9/9/9
f 35/35/35 90/90/90 9/9/9
f 95/95/95 94/94/94 93/93/93
f 96/96/96 95/95/95 93/93/93
f 74/74/74 54/54/54 52/52/52
f 52/52/52 26/26/26 74/74/74
f 74/74/74 26/26/26 73/73/73
f 52/52/52 45/45/45 26/26/26
f 26/26/26 25/25/25 73/73/73
f 27/27/27 45/45/45 52/52/52
f 73/73/73 25/25/25 97/97/97
f 27/27/27 52/52/52 76/76/76
f 76/76/76 75/75/75 27/27/27
f 27/27/27 75/75/75 137/137/137
f 137/137/137 135/135/135 27/27/27
f 137/137/137 134/134/134 135/135/135
f 97/97/97 135/135/135 134/134/134
f 41/41/41 73/73/73 97/97/97
f 134/134/134 41/41/41 97/97/97
f 134/134/134 136/136/136 41/41/41
f 111/111/111 110/110/110 109/109/109
f 109/109/109 112/112/112 111/111/111
f 109/109/109 56/56/56 112/112/112
f 56/56/56 109/109/109 130/130/130
f 130/130/130 131/131/131 56/56/56
f 130/130/130 132/132/132 131/131/131
f 130/130/130 133/133/133 132/132/132
f 140/140/140 139/139/139 138/138/138
f 138/138/138 141/141/141 140/140/140
f 138/138/138 142/142/142 141/141/141
f 138/138/138 143/143/143 142/142/142
f 138/138/138 144/144/144 143/143/143
