g SM_Prop_Table_01
v 0.5697218 0.5742508 0.5876669
v 0.5697218 0.6010647 -1.038622
v 0.5697217 0.598815 0.5876669
v 0.5632208 0.6244814 -1.028706
v -0.4900243 0.6244814 0.5777515
v -0.4965252 0.6016427 -1.038622
v -0.4965252 0.6034476 0.5876669
v -0.4965252 0.5742508 -1.038622
v 0.513833 0 -0.9066956
v 0.513833 0 -0.9763443
v 0.513833 0.5903478 -0.9066956
v 0.513833 0.5903478 -0.9763443
v 0.4480814 0.5903478 -0.9066957
v 0.4480814 0.5903478 -0.9763443
v 0.4480814 0 -0.9066957
v 0.4480814 0 -0.9763443
v -0.3748846 0 -0.9066957
v -0.3748847 0 -0.9763444
v -0.3748846 0.5903478 -0.9066957
v -0.3748847 0.5903478 -0.9763444
v -0.4406363 0.5903478 -0.9066957
v -0.4406364 0.5903478 -0.9763444
v -0.4406363 0 -0.9066957
v -0.4406364 0 -0.9763444
v -0.3748846 0 0.5253895
v -0.3748847 0 0.4557406
v -0.3748846 0.5903478 0.5253895
v -0.3748847 0.5903478 0.4557406
v -0.4406364 0.5903478 0.5253896
v -0.4406364 0.5903478 0.4557407
v -0.4406364 0 0.5253896
v -0.4406364 0 0.4557407
v 0.513833 0 0.5253895
v 0.513833 0 0.4557407
v 0.513833 0.5903478 0.5253895
v 0.513833 0.5903478 0.4557407
v 0.4480813 0.5903478 0.5253895
v 0.4480813 0.5903478 0.4557407
v 0.4480813 0 0.5253895
v 0.4480813 0 0.4557407
v -0.5066853 0.5817313 0.3035282
v -0.4912207 0.6244814 0.2893652
v 0.5644172 0.6244814 0.2893652
v 0.5798818 0.5817313 0.3035282
v 0.5644171 0.6244814 -0.6316339
v -0.4912207 0.6244814 -0.6316339
v -0.5066853 0.5817313 -0.6444552
v 0.5798817 0.5817313 -0.6444553
v 0.5632208 0.6244814 0.3905167
v 0.4543532 0.6244814 0.5777515
v -0.4965253 0.5742508 0.4537987
v -0.4141485 0.5742508 0.5876669
v -0.3784872 0.6244814 -1.028706
v -0.4900243 0.6244814 -0.6986912
v 0.5455198 0.5742508 -1.038622
v 0.5697218 0.5742508 -0.8708767
v 0.5644171 0.6244814 -0.6316339
v 0.5644172 0.6244814 0.2893652
v -0.4912207 0.6244814 -0.6316339
v -0.4912207 0.6244814 0.2893652
v 0.5798818 0.5817313 0.3035282
v 0.5798817 0.5817313 -0.6444553
v -0.5066853 0.5817313 -0.6444552
v -0.5066853 0.5817313 0.3035282
v 0.4480814 0 -0.9066957
v 0.513833 0 -0.9066956
v 0.513833 0 -0.9763443
v 0.4480814 0 -0.9763443
v 0.513833 0 -0.9763443
v 0.513833 0.5903478 -0.9763443
v 0.4480814 0.5903478 -0.9763443
v 0.4480814 0 -0.9763443
v 0.4480814 0 -0.9066957
v 0.4480814 0.5903478 -0.9066957
v 0.513833 0.5903478 -0.9066956
v 0.513833 0 -0.9066956
v -0.4406363 0 -0.9066957
v -0.3748846 0 -0.9066957
v -0.3748847 0 -0.9763444
v -0.4406364 0 -0.9763444
v -0.3748847 0 -0.9763444
v -0.3748847 0.5903478 -0.9763444
v -0.4406364 0.5903478 -0.9763444
v -0.4406364 0 -0.9763444
v -0.4406363 0 -0.9066957
v -0.4406363 0.5903478 -0.9066957
v -0.3748846 0.5903478 -0.9066957
v -0.3748846 0 -0.9066957
v -0.4406364 0 0.5253896
v -0.3748846 0 0.5253895
v -0.3748847 0 0.4557406
v -0.4406364 0 0.4557407
v -0.3748847 0 0.4557406
v -0.3748847 0.5903478 0.4557406
v -0.4406364 0.5903478 0.4557407
v -0.4406364 0 0.4557407
v -0.4406364 0 0.5253896
v -0.4406364 0.5903478 0.5253896
v -0.3748846 0.5903478 0.5253895
v -0.3748846 0 0.5253895
v 0.4480813 0 0.5253895
v 0.513833 0 0.5253895
v 0.513833 0 0.4557407
v 0.4480813 0 0.4557407
v 0.513833 0 0.4557407
v 0.513833 0.5903478 0.4557407
v 0.4480813 0.5903478 0.4557407
v 0.4480813 0 0.4557407
v 0.4480813 0 0.5253895
v 0.4480813 0.5903478 0.5253895
v 0.513833 0.5903478 0.5253895
v 0.513833 0 0.5253895
v 0.5632208 0.6244814 0.3905167
v -0.4965253 0.5742508 0.4537987
v 0.5697218 0.5742508 -0.8708767
v 0.4543532 0.6244814 0.5777515
v 0.4543532 0.6244814 0.5777515
v 0.5697217 0.598815 0.5876669
v -0.4141485 0.5742508 0.5876669
v 0.5697218 0.5742508 0.5876669
v -0.4965253 0.5742508 0.4537987
v -0.4141485 0.5742508 0.5876669
v -0.4900243 0.6244814 -0.6986912
v -0.3784872 0.6244814 -1.028706
v -0.3784872 0.6244814 -1.028706
v -0.4965252 0.6016427 -1.038622
v -0.4965252 0.5742508 -1.038622
v 0.5455198 0.5742508 -1.038622
v 0.5697218 0.5742508 -0.8708767
v 0.5455198 0.5742508 -1.038622
v -0.4900243 0.6244814 -0.6986912
v 0.5632208 0.6244814 0.3905167
v -0.4965252 0.6034476 0.5876669
v -0.4900243 0.6244814 0.5777515
v 0.5697218 0.6010647 -1.038622
v 0.5632208 0.6244814 -1.028706
v -0.5066853 0.5817313 -0.6444552
v -0.4965252 0.5742508 -1.038622
v -0.4965252 0.6016427 -1.038622
v -0.4900243 0.6244814 -0.6986912
v -0.4900243 0.6244814 0.5777515
v -0.4965252 0.6034476 0.5876669
v -0.4965253 0.5742508 0.4537987
v -0.4912207 0.6244814 0.2893652
v 0.5697218 0.5742508 0.5876669
v 0.5697217 0.598815 0.5876669
v 0.5632208 0.6244814 0.3905167
v 0.5798818 0.5817313 0.3035282
v 0.5644171 0.6244814 -0.6316339
v 0.5632208 0.6244814 -1.028706
v 0.5697218 0.6010647 -1.038622
v 0.5697218 0.5742508 -0.8708767
vt 0.03746542 0.3275672
vt 0.03746542 0.3275672
vt 0.03746542 0.3275672
vt 0.03746542 0.3275672
vt 0.03746542 0.3275672
vt 0.03746542 0.3275672
vt 0.03746542 0.3275672
vt 0.03746542 0.3275672
vt 0.03746542 0.305027
vt 0.03746542 0.305027
vt 0.03746542 0.305027
vt 0.03746542 0.305027
vt 0.03746542 0.305027
vt 0.03746542 0.305027
vt 0.03746542 0.305027
vt 0.03746542 0.305027
vt 0.03746542 0.305027
vt 0.03746542 0.305027
vt 0.03746542 0.305027
vt 0.03746542 0.305027
vt 0.03746542 0.305027
vt 0.03746542 0.305027
vt 0.03746542 0.305027
vt 0.03746542 0.305027
vt 0.03746542 0.305027
vt 0.03746542 0.305027
vt 0.03746542 0.305027
vt 0.03746542 0.305027
vt 0.03746542 0.305027
vt 0.03746542 0.305027
vt 0.03746542 0.305027
vt 0.03746542 0.305027
vt 0.03746542 0.305027
vt 0.03746542 0.305027
vt 0.03746542 0.305027
vt 0.03746542 0.305027
vt 0.03746542 0.305027
vt 0.03746542 0.305027
vt 0.03746542 0.305027
vt 0.03746542 0.305027
vt 0.03746542 0.3275672
vt 0.03746542 0.3275672
vt 0.03746542 0.3275672
vt 0.03746542 0.3275672
vt 0.03746542 0.3275672
vt 0.03746542 0.3275672
vt 0.03746542 0.3275672
vt 0.03746542 0.3275672
vt 0.03746542 0.3275672
vt 0.03746542 0.3275672
vt 0.03746542 0.3275672
vt 0.03746542 0.3275672
vt 0.03746542 0.3275672
vt 0.03746542 0.3275672
vt 0.03746542 0.3275672
vt 0.03746542 0.3275672
vt 0.03746542 0.3275672
vt 0.03746542 0.3275672
vt 0.03746542 0.3275672
vt 0.03746542 0.3275672
vt 0.03746542 0.3275672
vt 0.03746542 0.3275672
vt 0.03746542 0.3275672
vt 0.03746542 0.3275672
vt 0.03746542 0.305027
vt 0.03746542 0.305027
vt 0.03746542 0.305027
vt 0.03746542 0.305027
vt 0.03746542 0.305027
vt 0.03746542 0.305027
vt 0.03746542 0.305027
vt 0.03746542 0.305027
vt 0.03746542 0.305027
vt 0.03746542 0.305027
vt 0.03746542 0.305027
vt 0.03746542 0.305027
vt 0.03746542 0.305027
vt 0.03746542 0.305027
vt 0.03746542 0.305027
vt 0.03746542 0.305027
vt 0.03746542 0.305027
vt 0.03746542 0.305027
vt 0.03746542 0.305027
vt 0.03746542 0.305027
vt 0.03746542 0.305027
vt 0.03746542 0.305027
vt 0.03746542 0.305027
vt 0.03746542 0.305027
vt 0.03746542 0.305027
vt 0.03746542 0.305027
vt 0.03746542 0.305027
vt 0.03746542 0.305027
vt 0.03746542 0.305027
vt 0.03746542 0.305027
vt 0.03746542 0.305027
vt 0.03746542 0.305027
vt 0.03746542 0.305027
vt 0.03746542 0.305027
vt 0.03746542 0.305027
vt 0.03746542 0.305027
vt 0.03746542 0.305027
vt 0.03746542 0.305027
vt 0.03746542 0.305027
vt 0.03746542 0.305027
vt 0.03746542 0.305027
vt 0.03746542 0.305027
vt 0.03746542 0.305027
vt 0.03746542 0.305027
vt 0.03746542 0.305027
vt 0.03746542 0.305027
vt 0.03746542 0.305027
vt 0.03746542 0.305027
vt 0.03746542 0.3275672
vt 0.03746542 0.3275672
vt 0.03746542 0.3275672
vt 0.03746542 0.3275672
vt 0.03746542 0.3275672
vt 0.03746542 0.3275672
vt 0.03746542 0.3275672
vt 0.03746542 0.3275672
vt 0.03746542 0.3275672
vt 0.03746542 0.3275672
vt 0.03746542 0.3275672
vt 0.03746542 0.3275672
vt 0.03746542 0.3275672
vt 0.03746542 0.3275672
vt 0.03746542 0.3275672
vt 0.03746542 0.3275672
vt 0.03746542 0.3275672
vt 0.03746542 0.3275672
vt 0.03746542 0.3275672
vt 0.03746542 0.3275672
vt 0.03746542 0.3275672
vt 0.03746542 0.3275672
vt 0.03746542 0.3275672
vt 0.03746542 0.3275672
vt 0.03746542 0.3275672
vt 0.03746542 0.3275672
vt 0.03746542 0.3275672
vt 0.03746542 0.3275672
vt 0.03746542 0.3275672
vt 0.03746542 0.3275672
vt 0.03746542 0.3275672
vt 0.03746542 0.3275672
vt 0.03746542 0.3275672
vt 0.03746542 0.3275672
vt 0.03746542 0.3275672
vt 0.03746542 0.3275672
vt 0.03746542 0.3275672
vt 0.03746542 0.3275672
vt 0.03746542 0.3275672
vt 0.03746542 0.3275672
vn -0.004581852 0.1835199 0.9830053
vn 0.7381152 -0.666217 -0.1064939
vn 0.2057935 0.9712523 0.1196585
vn 0 1 0
vn 0 1 0
vn -0.18454 0.980844 -0.06237008
vn -0.3272258 -0.9232427 0.2013607
vn -0.001486607 -0.9999542 0.009449396
vn 1 0 0
vn 1 0 0
vn 1 0 0
vn 1 0 0
vn -1 0 0
vn -1 0 0
vn -1 0 0
vn -1 0 0
vn 1 0 0
vn 1 0 0
vn 1 0 0
vn 1 0 0
vn -1 0 0
vn -1 0 0
vn -1 0 0
vn -1 0 0
vn 1 0 0
vn 1 0 0
vn 1 0 0
vn 1 0 0
vn -1 0 0
vn -1 0 0
vn -1 0 0
vn -1 0 0
vn 1 0 0
vn 1 0 0
vn 1 0 0
vn 1 0 0
vn -1 0 0
vn -1 0 0
vn -1 0 0
vn -1 0 0
vn -0.935233 0.3517146 0.04044811
vn 0 1 0
vn 0.9397591 0.3417923 0.005553795
vn 0.9397591 0.3417923 0.005553795
vn 0.9374272 0.3471481 -0.02680569
vn 0 1 0
vn -0.939525 0.342378 -0.008373197
vn 0.9374272 0.3471481 -0.02680569
vn 0.2057935 0.9712523 0.1196585
vn 0.2057935 0.9712523 0.1196585
vn -0.9284227 0.3626274 0.08082359
vn -0.3272258 -0.9232427 0.2013607
vn 0 1 0
vn -0.9386149 0.3445598 -0.01674576
vn 0 -1 0
vn -0.0009911176 -0.9998497 0.01730756
vn 0 1 0
vn 0 1 0
vn -0.939525 0.342378 -0.008373197
vn -0.935233 0.3517146 0.04044811
vn 0 -0.9999135 -0.01316006
vn 0 -0.9998636 0.01651223
vn -0.0009911176 -0.9998497 0.01730756
vn 0.002098918 -0.9996728 -0.02549218
vn 0 -1 0
vn 0 -1 0
vn 0 -1 0
vn 0 -1 0
vn 0 0 -1
vn 0 0 -1
vn 0 0 -1
vn 0 0 -1
vn 0 0 1
vn 0 0 1
vn 0 0 1
vn 0 0 1
vn 0 -1 0
vn 0 -1 0
vn 0 -1 0
vn 0 -1 0
vn 0 0 -1
vn 0 0 -1
vn 0 0 -1
vn 0 0 -1
vn 0 0 1
vn 0 0 1
vn 0 0 1
vn 0 0 1
vn 0 -1 0
vn 0 -1 0
vn 0 -1 0
vn 0 -1 0
vn 0 0 -1
vn 0 0 -1
vn 0 0 -1
vn 0 0 -1
vn 0 0 1
vn 0 0 1
vn 0 0 1
vn 0 0 1
vn 0 -1 0
vn 0 -1 0
vn 0 -1 0
vn 0 -1 0
vn 0 0 -1
vn 0 0 -1
vn 0 0 -1
vn 0 0 -1
vn 0 0 1
vn 0 0 1
vn 0 0 1
vn 0 0 1
vn 0.9391229 0.343402 0.01110744
vn -0.3272258 -0.9232427 0.2013607
vn 0.9337634 0.3538559 -0.05359055
vn 0 1 0
vn 0.0005812126 0.1927727 0.9812433
vn -0.004581852 0.1835199 0.9830053
vn 0.0005812126 0.1927727 0.9812433
vn 0.002098918 -0.9996728 -0.02549218
vn 0.003148709 -0.9996805 -0.02507917
vn 0 -1 0
vn -0.18454 0.980844 -0.06237008
vn -0.18454 0.980844 -0.06237008
vn -0.0003112164 0.1891464 -0.9819488
vn 0.004804698 0.1827805 -0.983142
vn 0.004804698 0.1827805 -0.983142
vn -0.0003112164 0.1891464 -0.9819488
vn 0.7381152 -0.666217 -0.1064939
vn 0.7381152 -0.666217 -0.1064939
vn 0 1 0
vn 0 1 0
vn 0.00574421 0.2020031 0.979368
vn 0.00574421 0.2020031 0.979368
vn -0.00542711 0.1954994 -0.9806888
vn -0.00542711 0.1954994 -0.9806888
vn -0.9752116 0.2208321 -0.01398173
vn -0.9752116 0.2208321 -0.01398173
vn -0.9752116 0.2208321 -0.01398173
vn -0.9752116 0.2208321 -0.01398173
vn -0.9892531 0.1460311 -0.007294422
vn -0.9892531 0.1460311 -0.007294422
vn -0.9892531 0.1460311 -0.007294422
vn -0.9892531 0.1460311 -0.007294422
vn 0.976761 0.2131882 0.02210861
vn 0.976761 0.2131882 0.02210861
vn 0.976761 0.2131882 0.02210861
vn 0.976761 0.2131882 0.02210861
vn 0.9897391 0.1428094 0.004683392
vn 0.9897391 0.1428094 0.004683392
vn 0.9897391 0.1428094 0.004683392
vn 0.9897391 0.1428094 0.004683392
g SM_Prop_Table_01_0
f 49/49/49 50/50/50 3/3/3
f 114/114/114 52/52/52 7/7/7
f 124/124/124 6/6/6 123/123/123
f 130/130/130 2/2/2 129/129/129
f 12/12/12 11/11/11 9/9/9
f 10/10/10 12/12/12 9/9/9
f 16/16/16 15/15/15 13/13/13
f 14/14/14 16/16/16 13/13/13
f 67/67/67 66/66/66 65/65/65
f 68/68/68 67/67/67 65/65/65
f 71/71/71 70/70/70 69/69/69
f 72/72/72 71/71/71 69/69/69
f 75/75/75 74/74/74 73/73/73
f 76/76/76 75/75/75 73/73/73
f 20/20/20 19/19/19 17/17/17
f 18/18/18 20/20/20 17/17/17
f 24/24/24 23/23/23 21/21/21
f 22/22/22 24/24/24 21/21/21
f 79/79/79 78/78/78 77/77/77
f 80/80/80 79/79/79 77/77/77
f 83/83/83 82/82/82 81/81/81
f 84/84/84 83/83/83 81/81/81
f 87/87/87 86/86/86 85/85/85
f 88/88/88 87/87/87 85/85/85
f 28/28/28 27/27/27 25/25/25
f 26/26/26 28/28/28 25/25/25
f 32/32/32 31/31/31 29/29/29
f 30/30/30 32/32/32 29/29/29
f 91/91/91 90/90/90 89/89/89
f 92/92/92 91/91/91 89/89/89
f 95/95/95 94/94/94 93/93/93
f 96/96/96 95/95/95 93/93/93
f 99/99/99 98/98/98 97/97/97
f 100/100/100 99/99/99 97/97/97
f 36/36/36 35/35/35 33/33/33
f 34/34/34 36/36/36 33/33/33
f 40/40/40 39/39/39 37/37/37
f 38/38/38 40/40/40 37/37/37
f 103/103/103 102/102/102 101/101/101
f 104/104/104 103/103/103 101/101/101
f 107/107/107 106/106/106 105/105/105
f 108/108/108 107/107/107 105/105/105
f 111/111/111 110/110/110 109/109/109
f 112/112/112 111/111/111 109/109/109
f 60/60/60 41/41/41 51/51/51
f 60/60/60 59/59/59 41/41/41
f 59/59/59 47/47/47 41/41/41
f 59/59/59 54/54/54 47/47/47
f 44/44/44 43/43/43 113/113/113
f 44/44/44 48/48/48 43/43/43
f 48/48/48 45/45/45 43/43/43
f 48/48/48 115/115/115 45/45/45
f 57/57/57 4/4/4 53/53/53
f 57/57/57 53/53/53 46/46/46
f 53/53/53 131/131/131 46/46/46
f 57/57/57 46/46/46 42/42/42
f 58/58/58 57/57/57 42/42/42
f 58/58/58 42/42/42 116/116/116
f 42/42/42 5/5/5 116/116/116
f 132/132/132 58/58/58 116/116/116
f 8/8/8 55/55/55 56/56/56
f 56/56/56 63/63/63 8/8/8
f 56/56/56 62/62/62 63/63/63
f 63/63/63 62/62/62 61/61/61
f 64/64/64 63/63/63 61/61/61
f 64/64/64 61/61/61 120/120/120
f 120/120/120 121/121/121 64/64/64
f 120/120/120 122/122/122 121/121/121
f 1/1/1 118/118/118 117/117/117
f 119/119/119 1/1/1 117/117/117
f 119/119/119 117/117/117 133/133/133
f 117/117/117 134/134/134 133/133/133
f 127/127/127 126/126/126 125/125/125
f 128/128/128 127/127/127 125/125/125
f 128/128/128 125/125/125 135/135/135
f 125/125/125 136/136/136 135/135/135
f 139/139/139 138/138/138 137/137/137
f 140/140/140 139/139/139 137/137/137
f 143/143/143 142/142/142 141/141/141
f 144/144/144 143/143/143 141/141/141
f 147/147/147 146/146/146 145/145/145
f 148/148/148 147/147/147 145/145/145
f 151/151/151 150/150/150 149/149/149
f 152/152/152 151/151/151 149/149/149
