g SM_Prop_Bed_Gurney_Legs_r
v -0.386514 -0.007217169 0.04160124
v -0.386514 0.0076406 -0.04117781
v 0.3860905 0.0076406 -0.04117781
v 0.3860905 -0.007217169 0.04160124
v 0.3860905 0.0076406 -0.04117781
v 0.4285414 -0.05072922 -0.05179054
v 0.4285414 -0.06558704 0.03098851
v 0.3860905 -0.007217169 0.04160124
v -0.4003105 -0.4773598 -0.1069766
v -0.4003105 -0.4327864 -0.1218343
v -0.4289648 -0.4242963 -0.1207731
v -0.4289648 -0.4709921 -0.1059153
v -0.4003105 -0.4476442 -0.03905529
v -0.4003105 -0.4847887 -0.06877083
v -0.4289648 -0.478421 -0.06770957
v -0.4289648 -0.4402153 -0.03799403
v 0.3998871 -0.07195467 -0.05603558
v 0.3627426 -0.0273813 -0.04754543
v 0.3627426 -0.04223907 0.03523362
v 0.3998871 -0.0878737 0.02674347
v 0.3627426 -0.04223907 0.03523362
v 0.3627426 -0.0273813 -0.04754543
v -0.363166 -0.0273813 -0.04754543
v -0.363166 -0.04223907 0.03523362
v -0.363166 -0.04223907 0.03523362
v -0.363166 -0.0273813 -0.04754543
v -0.4003105 -0.07195467 -0.05603558
v -0.4003105 -0.0878737 0.02674347
v -0.386514 -0.007217169 0.04160124
v -0.4289648 -0.06558704 0.03098851
v -0.4289648 -0.05072922 -0.05179054
v -0.386514 0.0076406 -0.04117781
v 0.3998871 -0.4847887 -0.06877083
v 0.3998871 -0.4476442 -0.03905529
v 0.4285414 -0.4402153 -0.03799403
v 0.4285414 -0.478421 -0.06770957
v 0.3998871 -0.4327864 -0.1218343
v 0.3998871 -0.4773598 -0.1069766
v 0.4285414 -0.4709921 -0.1059153
v 0.4285414 -0.4242963 -0.1207731
v -0.4289648 -0.6567144 -0.09954768
v -0.4003105 -0.6567144 -0.09954768
v -0.4003105 -0.6482242 -0.1377534
v -0.4289648 -0.6482242 -0.1377534
v 0.4285414 -0.6567144 -0.09954768
v 0.4285414 -0.6482242 -0.1377534
v 0.3998871 -0.6482242 -0.1377534
v 0.3998871 -0.6567144 -0.09954768
v -0.4003105 -0.4847887 -0.06877083
v -0.4003105 -0.6567144 -0.09954768
v -0.4289648 -0.6567144 -0.09954768
v -0.4289648 -0.478421 -0.06770957
v -0.4003105 -0.4773598 -0.1069766
v -0.4003105 -0.6482242 -0.1377534
v -0.4003105 -0.6567144 -0.09954768
v -0.4003105 -0.4847887 -0.06877083
v -0.4003105 -0.4327864 -0.1218343
v -0.4003105 -0.4476442 -0.03905529
v -0.4003105 -0.07195467 -0.05603558
v -0.4003105 -0.0878737 0.02674347
v -0.4289648 -0.6482242 -0.1377534
v -0.4003105 -0.6482242 -0.1377534
v -0.4003105 -0.4773598 -0.1069766
v -0.4289648 -0.4709921 -0.1059153
v -0.4289648 -0.478421 -0.06770957
v -0.4289648 -0.6567144 -0.09954768
v -0.4289648 -0.6482242 -0.1377534
v -0.4289648 -0.4709921 -0.1059153
v -0.4289648 -0.4402153 -0.03799403
v -0.4289648 -0.4242963 -0.1207731
v -0.4289648 -0.06558704 0.03098851
v -0.4289648 -0.05072922 -0.05179054
v 0.4285414 -0.4709921 -0.1059153
v 0.4285414 -0.6482242 -0.1377534
v 0.4285414 -0.6567144 -0.09954768
v 0.4285414 -0.478421 -0.06770957
v 0.4285414 -0.4242963 -0.1207731
v 0.4285414 -0.4402153 -0.03799403
v 0.4285414 -0.05072922 -0.05179054
v 0.4285414 -0.06558704 0.03098851
v 0.3998871 -0.4773598 -0.1069766
v 0.3998871 -0.6482242 -0.1377534
v 0.4285414 -0.6482242 -0.1377534
v 0.4285414 -0.4709921 -0.1059153
v 0.3998871 -0.6567144 -0.09954768
v 0.3998871 -0.6482242 -0.1377534
v 0.3998871 -0.4773598 -0.1069766
v 0.3998871 -0.4847887 -0.06877083
v 0.3998871 -0.4476442 -0.03905529
v 0.3998871 -0.4327864 -0.1218343
v 0.3998871 -0.0878737 0.02674347
v 0.3998871 -0.07195467 -0.05603558
v 0.4285414 -0.6567144 -0.09954768
v 0.3998871 -0.6567144 -0.09954768
v 0.3998871 -0.4847887 -0.06877083
v 0.4285414 -0.478421 -0.06770957
v 0.3998871 -0.4476442 -0.03905529
v 0.4285414 -0.06558704 0.03098851
v 0.4285414 -0.4402153 -0.03799403
v 0.3998871 -0.0878737 0.02674347
v 0.3860905 -0.007217169 0.04160124
v 0.3627426 -0.04223907 0.03523362
v -0.363166 -0.04223907 0.03523362
v -0.386514 -0.007217169 0.04160124
v -0.4003105 -0.0878737 0.02674347
v -0.4289648 -0.06558704 0.03098851
v -0.4289648 -0.4402153 -0.03799403
v -0.4003105 -0.4476442 -0.03905529
v 0.3998871 -0.07195467 -0.05603558
v 0.3998871 -0.4327864 -0.1218343
v 0.4285414 -0.4242963 -0.1207731
v 0.4285414 -0.05072922 -0.05179054
v 0.3860905 0.0076406 -0.04117781
v 0.3627426 -0.0273813 -0.04754543
v -0.386514 0.0076406 -0.04117781
v -0.363166 -0.0273813 -0.04754543
v -0.4003105 -0.07195467 -0.05603558
v -0.4289648 -0.05072922 -0.05179054
v -0.4003105 -0.4327864 -0.1218343
v -0.4289648 -0.4242963 -0.1207731
vt 0.1020532 0.2765493
vt 0.1020532 0.2765493
vt 0.1020532 0.2765493
vt 0.1020532 0.2765493
vt 0.1020532 0.2765493
vt 0.1020532 0.2765493
vt 0.1020532 0.2765493
vt 0.1020532 0.2765493
vt 0.1020532 0.296469
vt 0.1020532 0.2948754
vt 0.1020532 0.2948754
vt 0.1020532 0.296469
vt 0.1020532 0.2948754
vt 0.1020532 0.296469
vt 0.1020532 0.296469
vt 0.1020532 0.2948754
vt 0.1020532 0.2765493
vt 0.1020532 0.2765493
vt 0.1020532 0.2765493
vt 0.1020532 0.2765493
vt 0.1020532 0.2765493
vt 0.1020532 0.2765493
vt 0.1020532 0.2765493
vt 0.1020532 0.2765493
vt 0.1020532 0.2765493
vt 0.1020532 0.2765493
vt 0.1020532 0.2765493
vt 0.1020532 0.2765493
vt 0.1020532 0.2765493
vt 0.1020532 0.2765493
vt 0.1020532 0.2765493
vt 0.1020532 0.2765493
vt 0.1020532 0.296469
vt 0.1020532 0.2948754
vt 0.1020532 0.2948754
vt 0.1020532 0.296469
vt 0.1020532 0.2948754
vt 0.1020532 0.296469
vt 0.1020532 0.296469
vt 0.1020532 0.2948754
vt 0.1020532 0.3052337
vt 0.1020532 0.3052337
vt 0.1020532 0.3052337
vt 0.1020532 0.3052337
vt 0.1020532 0.3052337
vt 0.1020532 0.3052337
vt 0.1020532 0.3052337
vt 0.1020532 0.3052337
vt 0.1020532 0.296469
vt 0.1020532 0.3052337
vt 0.1020532 0.3052337
vt 0.1020532 0.296469
vt 0.1020532 0.296469
vt 0.1020532 0.3052337
vt 0.1020532 0.3052337
vt 0.1020532 0.296469
vt 0.1020532 0.2948754
vt 0.1020532 0.2948754
vt 0.1020532 0.2765493
vt 0.1020532 0.2765493
vt 0.1020532 0.3052337
vt 0.1020532 0.3052337
vt 0.1020532 0.296469
vt 0.1020532 0.296469
vt 0.1020532 0.296469
vt 0.1020532 0.3052337
vt 0.1020532 0.3052337
vt 0.1020532 0.296469
vt 0.1020532 0.2948754
vt 0.1020532 0.2948754
vt 0.1020532 0.2765493
vt 0.1020532 0.2765493
vt 0.1020532 0.296469
vt 0.1020532 0.3052337
vt 0.1020532 0.3052337
vt 0.1020532 0.296469
vt 0.1020532 0.2948754
vt 0.1020532 0.2948754
vt 0.1020532 0.2765493
vt 0.1020532 0.2765493
vt 0.1020532 0.296469
vt 0.1020532 0.3052337
vt 0.1020532 0.3052337
vt 0.1020532 0.296469
vt 0.1020532 0.3052337
vt 0.1020532 0.3052337
vt 0.1020532 0.296469
vt 0.1020532 0.296469
vt 0.1020532 0.2948754
vt 0.1020532 0.2948754
vt 0.1020532 0.2765493
vt 0.1020532 0.2765493
vt 0.1020532 0.3052337
vt 0.1020532 0.3052337
vt 0.1020532 0.296469
vt 0.1020532 0.296469
vt 0.1020532 0.2948754
vt 0.1020532 0.2765493
vt 0.1020532 0.2948754
vt 0.1020532 0.2765493
vt 0.1020532 0.2765493
vt 0.1020532 0.2765493
vt 0.1020532 0.2765493
vt 0.1020532 0.2765493
vt 0.1020532 0.2765493
vt 0.1020532 0.2765493
vt 0.1020532 0.2948754
vt 0.1020532 0.2948754
vt 0.1020532 0.2765493
vt 0.1020532 0.2948754
vt 0.1020532 0.2948754
vt 0.1020532 0.2765493
vt 0.1020532 0.2765493
vt 0.1020532 0.2765493
vt 0.1020532 0.2765493
vt 0.1020532 0.2765493
vt 0.1020532 0.2765493
vt 0.1020532 0.2765493
vt 0.1020532 0.2948754
vt 0.1020532 0.2948754
vn -0.01587105 0.968132 0.249937
vn -0.01587105 0.968132 0.249937
vn -0.01587105 0.968132 0.249937
vn -0.01587105 0.968132 0.249937
vn 0.8094218 0.5872276 -0.000422864
vn 0.8094218 0.5872276 -0.000422864
vn 0.8094218 0.5872276 -0.000422864
vn 0.8094218 0.5872276 -0.000422864
vn -0.1110971 -0.3015493 -0.9469559
vn -0.1110971 -0.3015493 -0.9469559
vn -0.1110971 -0.3015493 -0.9469559
vn -0.1110971 -0.3015493 -0.9469559
vn -0.1110971 -0.6189696 0.7775179
vn -0.1110971 -0.6189696 0.7775179
vn -0.1110971 -0.6189696 0.7775179
vn -0.1110971 -0.6189696 0.7775179
vn -0.7776798 -0.6189696 -0.1099579
vn -0.7776798 -0.6189696 -0.1099579
vn -0.7776798 -0.6189696 -0.1099579
vn -0.7776798 -0.6189696 -0.1099579
vn -0.01587105 -0.968132 -0.2499373
vn -0.01587105 -0.968132 -0.2499373
vn -0.01587105 -0.968132 -0.2499373
vn -0.01587105 -0.968132 -0.2499373
vn 0.7776798 -0.6189696 -0.1099579
vn 0.7776798 -0.6189696 -0.1099579
vn 0.7776798 -0.6189696 -0.1099579
vn 0.7776798 -0.6189696 -0.1099579
vn -0.8094218 0.5872276 -0.000422864
vn -0.8094218 0.5872276 -0.000422864
vn -0.8094218 0.5872276 -0.000422864
vn -0.8094218 0.5872276 -0.000422864
vn 0.1110971 -0.6189696 0.7775179
vn 0.1110971 -0.6189696 0.7775179
vn 0.1110971 -0.6189696 0.7775179
vn 0.1110971 -0.6189696 0.7775179
vn 0.1110971 -0.3015493 -0.9469559
vn 0.1110971 -0.3015493 -0.9469559
vn 0.1110971 -0.3015493 -0.9469559
vn 0.1110971 -0.3015493 -0.9469559
vn -0.01587105 -0.968132 -0.2499373
vn -0.01587105 -0.968132 -0.2499373
vn -0.01587105 -0.968132 -0.2499373
vn -0.01587105 -0.968132 -0.2499373
vn -0.01587105 -0.968132 -0.2499373
vn -0.01587105 -0.968132 -0.2499373
vn -0.01587105 -0.968132 -0.2499373
vn -0.01587105 -0.968132 -0.2499373
vn -0.01587105 -0.1745812 0.9845148
vn -0.01587105 -0.1745812 0.9845148
vn -0.01587105 -0.1745812 0.9845148
vn -0.01587105 -0.1745812 0.9845148
vn 0.999874 0.01587105 -0.0003439156
vn 0.999874 0.01587105 -0.0003439156
vn 0.999874 0.01587105 -0.0003439156
vn 0.999874 0.01587105 -0.0003439156
vn 0.999874 0.01587105 -0.0003439156
vn 0.999874 0.01587105 -0.0003439156
vn 0.999874 0.01587105 -0.0003439156
vn 0.999874 0.01587105 -0.0003439156
vn -0.01587105 0.1745812 -0.9845148
vn -0.01587105 0.1745812 -0.9845148
vn -0.01587105 0.1745812 -0.9845148
vn -0.01587105 0.1745812 -0.9845148
vn -0.999874 0.01587105 -0.0003439156
vn -0.999874 0.01587105 -0.0003439156
vn -0.999874 0.01587105 -0.0003439156
vn -0.999874 0.01587105 -0.0003439156
vn -0.999874 0.01587105 -0.0003439156
vn -0.999874 0.01587105 -0.0003439156
vn -0.999874 0.01587105 -0.0003439156
vn -0.999874 0.01587105 -0.0003439156
vn 0.999874 0.01587105 -0.0003439156
vn 0.999874 0.01587105 -0.0003439156
vn 0.999874 0.01587105 -0.0003439156
vn 0.999874 0.01587105 -0.0003439156
vn 0.999874 0.01587105 -0.0003439156
vn 0.999874 0.01587105 -0.0003439156
vn 0.999874 0.01587105 -0.0003439156
vn 0.999874 0.01587105 -0.0003439156
vn -0.01587105 0.1745812 -0.9845148
vn -0.01587105 0.1745812 -0.9845148
vn -0.01587105 0.1745812 -0.9845148
vn -0.01587105 0.1745812 -0.9845148
vn -0.999874 0.01587105 -0.0003439156
vn -0.999874 0.01587105 -0.0003439156
vn -0.999874 0.01587105 -0.0003439156
vn -0.999874 0.01587105 -0.0003439156
vn -0.999874 0.01587105 -0.0003439156
vn -0.999874 0.01587105 -0.0003439156
vn -0.999874 0.01587105 -0.0003439156
vn -0.999874 0.01587105 -0.0003439156
vn -0.01587105 -0.1745812 0.9845148
vn -0.01587105 -0.1745812 0.9845148
vn -0.01587105 -0.1745812 0.9845148
vn -0.01587105 -0.1745812 0.9845148
vn 0.01587099 -0.1745812 0.9845148
vn 0.01587099 -0.1745812 0.9845148
vn 0.01587099 -0.1745812 0.9845148
vn 0.01587099 -0.1745812 0.9845148
vn 0.01587099 -0.1745812 0.9845148
vn 0.01587099 -0.1745812 0.9845148
vn -0.01587105 -0.1745812 0.9845148
vn -0.01587105 -0.1745812 0.9845148
vn -0.01587105 -0.1745812 0.9845148
vn -0.01587105 -0.1745812 0.9845148
vn -0.01587105 -0.1745812 0.9845148
vn -0.01587105 -0.1745812 0.9845148
vn 0.01587099 0.1745812 -0.9845148
vn -0.01587105 0.1745812 -0.9845148
vn -0.01587105 0.1745812 -0.9845148
vn 0.01587099 0.1745812 -0.9845148
vn -0.01587105 0.1745812 -0.9845148
vn -0.01587105 0.1745812 -0.9845148
vn -0.01587105 0.1745812 -0.9845148
vn -0.01587105 0.1745812 -0.9845148
vn -0.01587105 0.1745812 -0.9845148
vn -0.01587105 0.1745812 -0.9845148
vn -0.01587105 0.1745812 -0.9845148
vn -0.01587105 0.1745812 -0.9845148
g SM_Prop_Bed_Gurney_Legs_r_0
f 3/3/3 2/2/2 1/1/1
f 4/4/4 3/3/3 1/1/1
f 7/7/7 6/6/6 5/5/5
f 8/8/8 7/7/7 5/5/5
f 11/11/11 10/10/10 9/9/9
f 12/12/12 11/11/11 9/9/9
f 15/15/15 14/14/14 13/13/13
f 16/16/16 15/15/15 13/13/13
f 19/19/19 18/18/18 17/17/17
f 20/20/20 19/19/19 17/17/17
f 23/23/23 22/22/22 21/21/21
f 24/24/24 23/23/23 21/21/21
f 27/27/27 26/26/26 25/25/25
f 28/28/28 27/27/27 25/25/25
f 31/31/31 30/30/30 29/29/29
f 32/32/32 31/31/31 29/29/29
f 35/35/35 34/34/34 33/33/33
f 36/36/36 35/35/35 33/33/33
f 39/39/39 38/38/38 37/37/37
f 40/40/40 39/39/39 37/37/37
f 43/43/43 42/42/42 41/41/41
f 44/44/44 43/43/43 41/41/41
f 47/47/47 46/46/46 45/45/45
f 48/48/48 47/47/47 45/45/45
f 51/51/51 50/50/50 49/49/49
f 52/52/52 51/51/51 49/49/49
f 55/55/55 54/54/54 53/53/53
f 56/56/56 55/55/55 53/53/53
f 56/56/56 53/53/53 57/57/57
f 58/58/58 56/56/56 57/57/57
f 58/58/58 57/57/57 59/59/59
f 60/60/60 58/58/58 59/59/59
f 63/63/63 62/62/62 61/61/61
f 64/64/64 63/63/63 61/61/61
f 67/67/67 66/66/66 65/65/65
f 68/68/68 67/67/67 65/65/65
f 68/68/68 65/65/65 69/69/69
f 70/70/70 68/68/68 69/69/69
f 70/70/70 69/69/69 71/71/71
f 72/72/72 70/70/70 71/71/71
f 75/75/75 74/74/74 73/73/73
f 76/76/76 75/75/75 73/73/73
f 76/76/76 73/73/73 77/77/77
f 78/78/78 76/76/76 77/77/77
f 78/78/78 77/77/77 79/79/79
f 80/80/80 78/78/78 79/79/79
f 83/83/83 82/82/82 81/81/81
f 84/84/84 83/83/83 81/81/81
f 87/87/87 86/86/86 85/85/85
f 88/88/88 87/87/87 85/85/85
f 88/88/88 89/89/89 87/87/87
f 89/89/89 90/90/90 87/87/87
f 89/89/89 91/91/91 90/90/90
f 91/91/91 92/92/92 90/90/90
f 95/95/95 94/94/94 93/93/93
f 96/96/96 95/95/95 93/93/93
f 99/99/99 98/98/98 97/97/97
f 98/98/98 100/100/100 97/97/97
f 98/98/98 101/101/101 100/100/100
f 101/101/101 102/102/102 100/100/100
f 103/103/103 102/102/102 101/101/101
f 104/104/104 103/103/103 101/101/101
f 105/105/105 103/103/103 104/104/104
f 106/106/106 105/105/105 104/104/104
f 106/106/106 107/107/107 105/105/105
f 107/107/107 108/108/108 105/105/105
f 111/111/111 110/110/110 109/109/109
f 112/112/112 111/111/111 109/109/109
f 112/112/112 109/109/109 113/113/113
f 109/109/109 114/114/114 113/113/113
f 113/113/113 114/114/114 115/115/115
f 114/114/114 116/116/116 115/115/115
f 115/115/115 116/116/116 117/117/117
f 118/118/118 115/115/115 117/117/117
f 118/118/118 117/117/117 119/119/119
f 120/120/120 118/118/118 119/119/119
