g SM_Prop_Lab_Clamp_01_Arm_02
v 0.0249765 -0.02916942 0.1848427
v -0.008320312 -0.02948242 0.1862255
v -0.007227173 -0.02948242 0.2125365
v 0.02606964 -0.02916942 0.2111537
v 0.02552338 0.02903931 0.211176
v -0.007773438 0.02872628 0.2125593
v -0.008866577 0.02872628 0.1862483
v 0.02443024 0.02903931 0.1848652
v 0.02443024 0.02903931 0.1848652
v -0.008866577 0.02872628 0.1862483
v -0.009290772 -0.0003780696 0.1694473
v 0.02400604 -6.503559E-05 0.168064
v 0.02400604 -6.503559E-05 0.168064
v -0.009290772 -0.0003780696 0.1694473
v -0.008320312 -0.02948242 0.1862255
v 0.0249765 -0.02916942 0.1848427
v 0.02443024 0.02903931 0.1848652
v 0.02569336 0.02069043 0.2133875
v 0.02552338 0.02903931 0.211176
v 0.02470856 0.02069043 0.1896784
v 0.02400604 -6.503559E-05 0.168064
v 0.02440613 -6.507373E-05 0.1776965
v 0.0249765 -0.02916942 0.1848427
v 0.02509827 -0.02082057 0.1896619
v 0.02606964 -0.02916942 0.2111537
v 0.02608307 -0.02082057 0.2133709
v -0.007227173 -0.02948242 0.2125365
v -0.007213745 -0.02113361 0.214754
v 0.02608307 -0.02082057 0.2133709
v 0.02606964 -0.02916942 0.2111537
v 0.02552338 0.02903931 0.211176
v 0.02569336 0.02069043 0.2133875
v -0.007603454 0.02037743 0.2147702
v -0.007773438 0.02872628 0.2125593
v -0.007773438 0.02872628 0.2125593
v -0.007603454 0.02037743 0.2147702
v -0.008588256 0.02037743 0.1910611
v -0.008866577 0.02872628 0.1862483
v -0.008890686 -0.0003780696 0.1790799
v -0.009290772 -0.0003780696 0.1694473
v -0.008198853 -0.02113361 0.1910449
v -0.008320312 -0.02948242 0.1862255
v -0.007213745 -0.02113361 0.214754
v -0.007227173 -0.02948242 0.2125365
v 0.02470856 0.02069043 0.1896784
v -0.008588256 0.02037743 0.1910611
v -0.007603454 0.02037743 0.2147702
v 0.02569336 0.02069043 0.2133875
v 0.02440613 -6.507373E-05 0.1776965
v -0.008890686 -0.0003780696 0.1790799
v -0.008588256 0.02037743 0.1910611
v 0.02470856 0.02069043 0.1896784
v 0.02608307 -0.02082057 0.2133709
v -0.007213745 -0.02113361 0.214754
v -0.008198853 -0.02113361 0.1910449
v 0.02509827 -0.02082057 0.1896619
v 0.02509827 -0.02082057 0.1896619
v -0.008198853 -0.02113361 0.1910449
v -0.008890686 -0.0003780696 0.1790799
v 0.02440613 -6.507373E-05 0.1776965
v -0.008382263 0.005497556 0.02763809
v -0.002187805 0.005497556 0.1767635
v -0.002187805 -0.005497546 0.1767635
v -0.008382263 -0.005497546 0.02763809
v -0.008382263 -0.005497546 0.02763809
v -0.002187805 -0.005497546 0.1767635
v 0.007332764 -0.01099506 0.1765314
v 0.001329346 -0.01099506 0.0320047
v 0.001329346 -0.01099506 0.0320047
v 0.007332764 -0.01099506 0.1765314
v 0.0168399 -0.005497546 0.175973
v 0.01064545 -0.005497546 0.02684738
v 0.01064545 -0.005497546 0.02684738
v 0.0168399 -0.005497546 0.175973
v 0.0168399 0.005497556 0.175973
v 0.01064545 0.005497556 0.02684738
v 0.01064545 0.005497556 0.02684738
v 0.0168399 0.005497556 0.175973
v 0.007332764 0.01099507 0.1765314
v 0.001329346 0.01099507 0.0320047
v 0.001329346 0.01099507 0.0320047
v 0.007332764 0.01099507 0.1765314
v -0.002187805 0.005497556 0.1767635
v -0.008382263 0.005497556 0.02763809
v 0.02838318 -0.01443534 -0.01799731
v 0.001394958 -0.01443534 0.0335794
v 0.02977783 -0.01443534 0.01558148
v -0.001394958 -0.01443534 -0.03357941
v -0.02838318 -0.01443534 0.01799731
v -0.02977783 -0.01443534 -0.01558148
v -0.02977783 -0.01443534 -0.01558148
v -0.02977783 0.01443535 -0.01558148
v -0.02838318 0.01443535 0.01799731
v -0.02838318 -0.01443534 0.01799731
v -0.02838318 -0.01443534 0.01799731
v -0.02838318 0.01443535 0.01799731
v 0.001394958 0.01443535 0.0335794
v 0.001394958 -0.01443534 0.0335794
v 0.001394958 -0.01443534 0.0335794
v 0.001394958 0.01443535 0.0335794
v 0.02977783 0.01443535 0.01558148
v 0.02977783 -0.01443534 0.01558148
v 0.02977783 -0.01443534 0.01558148
v 0.02977783 0.01443535 0.01558148
v 0.02838318 0.01443535 -0.01799731
v 0.02838318 -0.01443534 -0.01799731
v 0.02838318 -0.01443534 -0.01799731
v 0.02838318 0.01443535 -0.01799731
v -0.001394958 0.01443535 -0.03357941
v -0.001394958 -0.01443534 -0.03357941
v -0.001394958 -0.01443534 -0.03357941
v -0.001394958 0.01443535 -0.03357941
v -0.02977783 0.01443535 -0.01558148
v -0.02977783 -0.01443534 -0.01558148
v -0.001394958 0.01443535 -0.03357941
v 0.02838318 0.01443535 -0.01799731
v 0.02977783 0.01443535 0.01558148
v 0.001394958 0.01443535 0.0335794
v -0.02838318 0.01443535 0.01799731
v -0.02977783 0.01443535 -0.01558148
vt 0.1019142 0.2293257
vt 0.1019142 0.2293257
vt 0.1019142 0.2293257
vt 0.1019142 0.2293257
vt 0.1019142 0.2293257
vt 0.1019142 0.2293257
vt 0.1019142 0.2293257
vt 0.1019142 0.2293257
vt 0.1019142 0.2293257
vt 0.1019142 0.2293257
vt 0.1019142 0.2293257
vt 0.1019142 0.2293257
vt 0.1019142 0.2293257
vt 0.1019142 0.2293257
vt 0.1019142 0.2293257
vt 0.1019142 0.2293257
vt 0.1019142 0.2293257
vt 0.1019142 0.2293257
vt 0.1019142 0.2293257
vt 0.1019142 0.2293257
vt 0.1019142 0.2293257
vt 0.1019142 0.2293257
vt 0.1019142 0.2293257
vt 0.1019142 0.2293257
vt 0.1019142 0.2293257
vt 0.1019142 0.2293257
vt 0.1019142 0.2293257
vt 0.1019142 0.2293257
vt 0.1019142 0.2293257
vt 0.1019142 0.2293257
vt 0.1019142 0.2293257
vt 0.1019142 0.2293257
vt 0.1019142 0.2293257
vt 0.1019142 0.2293257
vt 0.1019142 0.2293257
vt 0.1019142 0.2293257
vt 0.1019142 0.2293257
vt 0.1019142 0.2293257
vt 0.1019142 0.2293257
vt 0.1019142 0.2293257
vt 0.1019142 0.2293257
vt 0.1019142 0.2293257
vt 0.1019142 0.2293257
vt 0.1019142 0.2293257
vt 0.1019142 0.2293257
vt 0.1019142 0.2293257
vt 0.1019142 0.2293257
vt 0.1019142 0.2293257
vt 0.1019142 0.2293257
vt 0.1019142 0.2293257
vt 0.1019142 0.2293257
vt 0.1019142 0.2293257
vt 0.1019142 0.2293257
vt 0.1019142 0.2293257
vt 0.1019142 0.2293257
vt 0.1019142 0.2293257
vt 0.1019142 0.2293257
vt 0.1019142 0.2293257
vt 0.1019142 0.2293257
vt 0.1019142 0.2293257
vt 0.1019142 0.2293257
vt 0.1019142 0.2293257
vt 0.1019142 0.2293257
vt 0.1019142 0.2293257
vt 0.1019142 0.2293257
vt 0.1019142 0.2293257
vt 0.1019142 0.2293257
vt 0.1019142 0.2293257
vt 0.1019142 0.2293257
vt 0.1019142 0.2293257
vt 0.1019142 0.2293257
vt 0.1019142 0.2293257
vt 0.1019142 0.2293257
vt 0.1019142 0.2293257
vt 0.1019142 0.2293257
vt 0.1019142 0.2293257
vt 0.1019142 0.2293257
vt 0.1019142 0.2293257
vt 0.1019142 0.2293257
vt 0.1019142 0.2293257
vt 0.1019142 0.2293257
vt 0.1019142 0.2293257
vt 0.1019142 0.2293257
vt 0.1019142 0.2293257
vt 0.1019142 0.2293257
vt 0.1019142 0.2293257
vt 0.1019142 0.2293257
vt 0.1019142 0.2293257
vt 0.1019142 0.2293257
vt 0.1019142 0.2293257
vt 0.1019142 0.2293257
vt 0.1019142 0.2293257
vt 0.1019142 0.2293257
vt 0.1019142 0.2293257
vt 0.1019142 0.2293257
vt 0.1019142 0.2293257
vt 0.1019142 0.2293257
vt 0.1019142 0.2293257
vt 0.1019142 0.2293257
vt 0.1019142 0.2293257
vt 0.1019142 0.2293257
vt 0.1019142 0.2293257
vt 0.1019142 0.2293257
vt 0.1019142 0.2293257
vt 0.1019142 0.2293257
vt 0.1019142 0.2293257
vt 0.1019142 0.2293257
vt 0.1019142 0.2293257
vt 0.1019142 0.2293257
vt 0.1019142 0.2293257
vt 0.1019142 0.2293257
vt 0.1019142 0.2293257
vt 0.1019142 0.2293257
vt 0.1019142 0.2293257
vt 0.1019142 0.2293257
vt 0.1019142 0.2293257
vt 0.1019142 0.2293257
vt 0.1019142 0.2293257
vt 0.1019142 0.2293257
vt 0.1019142 0.2293257
vn 0.009383571 -0.9999559 -0.0003898577
vn 0.009383571 -0.9999559 -0.0003898577
vn 0.009383571 -0.9999559 -0.0003898577
vn 0.009383571 -0.9999559 -0.0003898577
vn -0.00938471 0.9999559 0.000389907
vn -0.00938471 0.9999559 0.000389907
vn -0.00938471 0.9999559 0.000389907
vn -0.00938471 0.9999559 0.000389907
vn -0.04063755 0.4999805 -0.8650827
vn -0.04063755 0.4999805 -0.8650827
vn -0.04063755 0.4999805 -0.8650827
vn -0.04063755 0.4999805 -0.8650827
vn -0.03124913 -0.4999805 -0.8654727
vn -0.03124913 -0.4999805 -0.8654727
vn -0.03124913 -0.4999805 -0.8654727
vn -0.03124913 -0.4999805 -0.8654727
vn 0.9990946 0.009377657 -0.04149824
vn 0.9990944 0.009363077 -0.04150473
vn 0.9990944 0.009363077 -0.04150473
vn 0.9990946 0.009377657 -0.04149824
vn 0.9990945 0.00939092 -0.0414967
vn 0.9990945 0.00939092 -0.0414967
vn 0.9990942 0.009395163 -0.04150308
vn 0.9990942 0.009395163 -0.04150308
vn 0.9990941 0.009400717 -0.0415045
vn 0.9990941 0.009400717 -0.0415045
vn 0.04251552 -0.2565233 0.9656025
vn 0.04251552 -0.2565233 0.9656025
vn 0.04251552 -0.2565233 0.9656025
vn 0.04251552 -0.2565233 0.9656025
vn 0.03770453 0.2565571 0.9657934
vn 0.03770453 0.2565571 0.9657934
vn 0.03770453 0.2565571 0.9657934
vn 0.03770453 0.2565571 0.9657934
vn -0.9990944 -0.009365505 0.04150448
vn -0.9990944 -0.009365505 0.04150448
vn -0.9990945 -0.009378784 0.04149862
vn -0.9990945 -0.009378784 0.04149862
vn -0.9990948 -0.009393583 0.04148781
vn -0.9990948 -0.009393583 0.04148781
vn -0.9990944 -0.009409102 0.04149672
vn -0.9990944 -0.009409102 0.04149672
vn -0.9990937 -0.0094231 0.04151057
vn -0.9990937 -0.0094231 0.04151057
vn 0.009383576 -0.9999559 -0.0003897644
vn 0.009383576 -0.9999559 -0.0003897644
vn 0.009383576 -0.9999559 -0.0003897644
vn 0.009383576 -0.9999559 -0.0003897644
vn 0.04063305 -0.4999789 0.8650838
vn 0.04063305 -0.4999789 0.8650838
vn 0.04063305 -0.4999789 0.8650838
vn 0.04063305 -0.4999789 0.8650838
vn -0.009384669 0.9999559 0.0003898706
vn -0.009384669 0.9999559 0.0003898706
vn -0.009384669 0.9999559 0.0003898706
vn -0.009384669 0.9999559 0.0003898706
vn 0.03125317 0.4999735 0.8654766
vn 0.03125317 0.4999735 0.8654766
vn 0.03125317 0.4999735 0.8654766
vn 0.03125317 0.4999735 0.8654766
vn -0.9991384 0 0.0415028
vn -0.9991384 0 0.0415028
vn -0.9991384 0 0.0415028
vn -0.9991384 0 0.0415028
vn -0.4995678 -0.8660262 0.02075132
vn -0.4995678 -0.8660262 0.02075132
vn -0.4995678 -0.8660262 0.02075132
vn -0.4995678 -0.8660262 0.02075132
vn 0.4995634 -0.8660287 -0.02075111
vn 0.4995634 -0.8660287 -0.02075111
vn 0.4995634 -0.8660287 -0.02075111
vn 0.4995634 -0.8660287 -0.02075111
vn 0.9991384 0 -0.04150272
vn 0.9991384 0 -0.04150272
vn 0.9991384 0 -0.04150272
vn 0.9991384 0 -0.04150272
vn 0.4995634 0.8660287 -0.02075111
vn 0.4995634 0.8660287 -0.02075111
vn 0.4995634 0.8660287 -0.02075111
vn 0.4995634 0.8660287 -0.02075111
vn -0.4995678 0.8660262 0.02075132
vn -0.4995678 0.8660262 0.02075132
vn -0.4995678 0.8660262 0.02075132
vn -0.4995678 0.8660262 0.02075132
vn 0 -1 0
vn 0 -1 0
vn 0 -1 0
vn 0 -1 0
vn 0 -1 0
vn 0 -1 0
vn -0.9991386 0 0.04149798
vn -0.9991386 0 0.04149798
vn -0.9991386 0 0.04149798
vn -0.9991386 0 0.04149798
vn -0.4636339 0 0.8860269
vn -0.4636339 0 0.8860269
vn -0.4636339 0 0.8860269
vn -0.4636339 0 0.8860269
vn 0.5355213 0 0.8445217
vn 0.5355213 0 0.8445217
vn 0.5355213 0 0.8445217
vn 0.5355213 0 0.8445217
vn 0.9991386 0 -0.04149797
vn 0.9991386 0 -0.04149797
vn 0.9991386 0 -0.04149797
vn 0.9991386 0 -0.04149797
vn 0.463634 0 -0.8860269
vn 0.463634 0 -0.8860269
vn 0.463634 0 -0.8860269
vn 0.463634 0 -0.8860269
vn -0.5355215 0 -0.8445216
vn -0.5355215 0 -0.8445216
vn -0.5355215 0 -0.8445216
vn -0.5355215 0 -0.8445216
vn 0 1 0
vn 0 1 0
vn 0 1 0
vn 0 1 0
vn 0 1 0
vn 0 1 0
g SM_Prop_Lab_Clamp_01_Arm_02_0
f 3/3/3 2/2/2 1/1/1
f 4/4/4 3/3/3 1/1/1
f 7/7/7 6/6/6 5/5/5
f 8/8/8 7/7/7 5/5/5
f 11/11/11 10/10/10 9/9/9
f 12/12/12 11/11/11 9/9/9
f 15/15/15 14/14/14 13/13/13
f 16/16/16 15/15/15 13/13/13
f 19/19/19 18/18/18 17/17/17
f 18/18/18 20/20/20 17/17/17
f 17/17/17 20/20/20 21/21/21
f 20/20/20 22/22/22 21/21/21
f 21/21/21 22/22/22 23/23/23
f 22/22/22 24/24/24 23/23/23
f 23/23/23 24/24/24 25/25/25
f 24/24/24 26/26/26 25/25/25
f 29/29/29 28/28/28 27/27/27
f 30/30/30 29/29/29 27/27/27
f 33/33/33 32/32/32 31/31/31
f 34/34/34 33/33/33 31/31/31
f 37/37/37 36/36/36 35/35/35
f 38/38/38 37/37/37 35/35/35
f 39/39/39 37/37/37 38/38/38
f 40/40/40 39/39/39 38/38/38
f 41/41/41 39/39/39 40/40/40
f 42/42/42 41/41/41 40/40/40
f 43/43/43 41/41/41 42/42/42
f 44/44/44 43/43/43 42/42/42
f 47/47/47 46/46/46 45/45/45
f 48/48/48 47/47/47 45/45/45
f 51/51/51 50/50/50 49/49/49
f 52/52/52 51/51/51 49/49/49
f 55/55/55 54/54/54 53/53/53
f 56/56/56 55/55/55 53/53/53
f 59/59/59 58/58/58 57/57/57
f 60/60/60 59/59/59 57/57/57
f 63/63/63 62/62/62 61/61/61
f 64/64/64 63/63/63 61/61/61
f 67/67/67 66/66/66 65/65/65
f 68/68/68 67/67/67 65/65/65
f 71/71/71 70/70/70 69/69/69
f 72/72/72 71/71/71 69/69/69
f 75/75/75 74/74/74 73/73/73
f 76/76/76 75/75/75 73/73/73
f 79/79/79 78/78/78 77/77/77
f 80/80/80 79/79/79 77/77/77
f 83/83/83 82/82/82 81/81/81
f 84/84/84 83/83/83 81/81/81
f 87/87/87 86/86/86 85/85/85
f 86/86/86 88/88/88 85/85/85
f 88/88/88 86/86/86 89/89/89
f 90/90/90 88/88/88 89/89/89
f 93/93/93 92/92/92 91/91/91
f 94/94/94 93/93/93 91/91/91
f 97/97/97 96/96/96 95/95/95
f 98/98/98 97/97/97 95/95/95
f 101/101/101 100/100/100 99/99/99
f 102/102/102 101/101/101 99/99/99
f 105/105/105 104/104/104 103/103/103
f 106/106/106 105/105/105 103/103/103
f 109/109/109 108/108/108 107/107/107
f 110/110/110 109/109/109 107/107/107
f 113/113/113 112/112/112 111/111/111
f 114/114/114 113/113/113 111/111/111
f 117/117/117 116/116/116 115/115/115
f 118/118/118 117/117/117 115/115/115
f 118/118/118 115/115/115 119/119/119
f 115/115/115 120/120/120 119/119/119
