g SM_Prop_Sign_Quarantine_01
v -0.1566765 -0.0002428144 0.001647785
v -0.1459632 0.05584483 0.01677254
v -0.1138231 0.01929334 0.01677254
v 0.1565319 0.4856399 0.002908185
v 0.0695646 0.4805983 0.01677254
v -0.1591973 0.4831191 0.01677254
v -0.1566765 -0.0002428144 0.001647785
v -0.05647503 0.00542897 0.01677254
v 0.1590527 0.004168585 0.01677254
v -0.1566765 -0.0002428144 0.001647785
v -0.1573067 0.1491141 0.01677254
v -0.1459632 0.05584483 0.01677254
v -0.1566765 -0.0002428144 0.001647785
v -0.1138231 0.01929334 0.01677254
v -0.05647503 0.00542897 0.01677254
v 0.1565319 0.4856399 0.002908185
v 0.1445582 0.4308127 0.01677254
v 0.1174597 0.463583 0.01677254
v 0.1565319 0.4856399 0.002908185
v 0.1571621 0.3589701 0.01677254
v 0.1445582 0.4308127 0.01677254
v 0.0695646 0.4805983 0.01677254
v 0.1565319 0.4856399 0.002908185
v 0.1174597 0.463583 0.01677254
v -0.1585671 0.4238805 0.01677254
v -0.1365102 0.3652721 0.01677254
v -0.1585671 0.3614909 0.001017585
v -0.1365102 0.3652721 0.01677254
v -0.1579369 0.3167468 0.01677254
v -0.1585671 0.3614909 0.001017585
v 0.1590527 0.03630868 0.01677254
v 0.1395166 0.08735473 0.01677254
v 0.1584225 0.08735473 0.002277985
v 0.1395166 0.08735473 0.01677254
v 0.1584225 0.1491141 0.01677254
v 0.1584225 0.08735473 0.002277985
v -0.1591973 0.4831191 0.01677254
v -0.1591973 0.4831191 -0.01473737
v 0.1565319 0.4856399 -0.01473737
v 0.1565319 0.4856399 0.002908185
v -0.1566765 -0.0002428144 -0.01473737
v 0.1590527 0.004168585 -0.01473737
v 0.1565319 0.4856399 -0.01473737
v -0.1591973 0.4831191 -0.01473737
v 0.1590527 0.004168585 0.01677254
v 0.1590527 0.004168585 -0.01473737
v -0.1566765 -0.0002428144 -0.01473737
v -0.1566765 -0.0002428144 0.001647785
v -0.1591973 0.4831191 -0.01473737
v -0.1591973 0.4831191 0.01677254
v -0.1585671 0.4238805 0.01677254
v -0.1585671 0.3614909 0.001017585
v 0.1590527 0.004168585 0.01677254
v 0.1590527 0.03630868 0.01677254
v 0.1584225 0.08735473 0.002277985
v 0.1590527 0.004168585 -0.01473737
v -0.1365102 0.3652721 0.01677254
v -0.1585671 0.4238805 0.01677254
v -0.1591973 0.4831191 0.01677254
v 0.0695646 0.4805983 0.01677254
v 0.1174597 0.463583 0.01677254
v -0.05647503 0.00542897 0.01677254
v 0.1445582 0.4308127 0.01677254
v 0.1571621 0.3589701 0.01677254
v -0.1138231 0.01929334 0.01677254
v -0.1459632 0.05584483 0.01677254
v -0.1579369 0.3167468 0.01677254
v -0.1573067 0.1491141 0.01677254
v 0.1395166 0.08735473 0.01677254
v 0.1584225 0.1491141 0.01677254
v 0.1590527 0.03630868 0.01677254
v 0.1590527 0.004168585 0.01677254
v -0.1573067 0.1491141 0.01677254
v -0.1566765 -0.0002428144 0.001647785
v -0.1566765 -0.0002428144 -0.01473737
v -0.1585671 0.3614909 0.001017585
v -0.1591973 0.4831191 -0.01473737
v -0.1579369 0.3167468 0.01677254
v 0.1571621 0.3589701 0.01677254
v 0.1565319 0.4856399 0.002908185
v 0.1565319 0.4856399 -0.01473737
v 0.1584225 0.1491141 0.01677254
v 0.1584225 0.08735473 0.002277985
v 0.1590527 0.004168585 -0.01473737
vt 0.3295512 0.08016083
vt 0.3306646 0.08572759
vt 0.3340046 0.08238754
vt 0.3295512 0.1324883
vt 0.3295512 0.1324883
vt 0.3295512 0.1324883
vt 0.3295512 0.1324883
vt 0.3295512 0.1324883
vt 0.3295512 0.1324883
vt 0.3295512 0.08016083
vt 0.3295512 0.09686108
vt 0.3306646 0.08572759
vt 0.3295512 0.08016083
vt 0.3340046 0.08238754
vt 0.3406847 0.08127418
vt 0.3640651 0.1336016
vt 0.3629517 0.1269215
vt 0.3596117 0.1302616
vt 0.3640651 0.1336016
vt 0.3640651 0.1191281
vt 0.3629517 0.1269215
vt 0.3540449 0.1324883
vt 0.3640651 0.1336016
vt 0.3596117 0.1302616
vt 0.3295512 0.1269215
vt 0.3317779 0.1202414
vt 0.3295512 0.1191281
vt 0.3317779 0.1202414
vt 0.3295512 0.1146747
vt 0.3295512 0.1191281
vt 0.3640651 0.08461423
vt 0.3618384 0.09018099
vt 0.3640651 0.09018099
vt 0.3618384 0.09018099
vt 0.3640651 0.09686108
vt 0.3640651 0.09018099
vt 0.3295512 0.1324883
vt 0.3295512 0.1324883
vt 0.3295512 0.1324883
vt 0.3295512 0.1324883
vt 0.3295512 0.1324883
vt 0.3295512 0.1324883
vt 0.3295512 0.1324883
vt 0.3295512 0.1324883
vt 0.3295512 0.1324883
vt 0.3295512 0.1324883
vt 0.3295512 0.1324883
vt 0.3295512 0.1324883
vt 0.3295512 0.1324883
vt 0.3295512 0.1324883
vt 0.3295512 0.1269215
vt 0.3295512 0.1191281
vt 0.3640651 0.08016083
vt 0.3640651 0.08461423
vt 0.3640651 0.09018099
vt 0.3640651 0.08016083
vt 0.3317779 0.1202414
vt 0.3295512 0.1269215
vt 0.3295512 0.1324883
vt 0.3540449 0.1324883
vt 0.3596117 0.1302616
vt 0.3406847 0.08127418
vt 0.3629517 0.1269215
vt 0.3640651 0.1191281
vt 0.3340046 0.08238754
vt 0.3306646 0.08572759
vt 0.3295512 0.1146747
vt 0.3295512 0.09686108
vt 0.3618384 0.09018099
vt 0.3640651 0.09686108
vt 0.3640651 0.08461423
vt 0.3640651 0.08016083
vt 0.3295512 0.1324883
vt 0.3295512 0.1324883
vt 0.3295512 0.1324883
vt 0.3295512 0.1324883
vt 0.3295512 0.1324883
vt 0.3295512 0.1324883
vt 0.3295512 0.1324883
vt 0.3295512 0.1324883
vt 0.3295512 0.1324883
vt 0.3295512 0.1324883
vt 0.3295512 0.1324883
vt 0.3295512 0.1324883
vn -0.2380652 -0.2063232 0.9490815
vn -0.2380652 -0.2063232 0.9490815
vn -0.2380652 -0.2063232 0.9490815
vn 0.01587099 0.93639 0.3506021
vn 0.01587099 0.93639 0.3506021
vn 0.01587099 0.93639 0.3506021
vn -0.01587105 -0.93639 0.3506021
vn -0.01587105 -0.93639 0.3506021
vn -0.01587105 -0.93639 0.3506021
vn -0.6507118 -0.07935506 0.7551668
vn -0.6507118 -0.07935506 0.7551668
vn -0.6507118 -0.07935506 0.7551668
vn -0.1110971 -0.4285175 0.8966773
vn -0.1110971 -0.4285175 0.8966773
vn -0.1110971 -0.4285175 0.8966773
vn 0.2380652 0.1745812 0.9554299
vn 0.2380652 0.1745812 0.9554299
vn 0.2380652 0.1745812 0.9554299
vn 0.5237436 0.07935512 0.8481718
vn 0.5237436 0.07935512 0.8481718
vn 0.5237436 0.07935512 0.8481718
vn 0.1428391 0.3650334 0.9199715
vn 0.1428391 0.3650334 0.9199715
vn 0.1428391 0.3650334 0.9199715
vn -0.5237436 -0.2063232 0.8265128
vn -0.5237436 -0.2063232 0.8265128
vn -0.5237436 -0.2063232 0.8265128
vn -0.5872277 0.2698073 0.7631302
vn -0.5872277 0.2698073 0.7631302
vn -0.5872277 0.2698073 0.7631302
vn 0.5872276 0.2063233 0.7826841
vn 0.5872276 0.2063233 0.7826841
vn 0.5872276 0.2063233 0.7826841
vn 0.5872276 -0.1745812 0.7903702
vn 0.5872276 -0.1745812 0.7903702
vn 0.5872276 -0.1745812 0.7903702
vn -0.01587105 0.9998741 0
vn -0.01587105 0.9998741 0
vn -0.01587105 0.9998741 0
vn -0.01587105 0.9998741 0
vn 0.01587099 -0.01587099 -0.9997481
vn 0.01587099 -0.01587099 -0.9997481
vn 0.01587099 -0.01587099 -0.9997481
vn 0.01587099 -0.01587099 -0.9997481
vn 0.01587099 -0.9998741 0
vn 0.01587099 -0.9998741 0
vn 0.01587099 -0.9998741 0
vn 0.01587099 -0.9998741 0
vn -0.9998741 -0.01587099 0
vn -0.9998741 -0.01587099 0
vn -0.9998741 -0.01587099 0
vn -0.9998741 -0.01587099 0
vn 0.9998741 0.01587105 0
vn 0.9998741 0.01587105 0
vn 0.9998741 0.01587105 0
vn 0.9998741 0.01587105 0
vn 0.01587099 -0.01587099 0.9997481
vn 0.01587099 -0.01587099 0.9997481
vn 0.01587099 -0.01587099 0.9997481
vn 0.01587099 -0.01587099 0.9997481
vn 0.01587099 -0.01587099 0.9997481
vn 0.01587099 -0.01587099 0.9997481
vn 0.01587099 -0.01587099 0.9997481
vn 0.01587099 -0.01587099 0.9997481
vn 0.01587099 -0.01587099 0.9997481
vn 0.01587099 -0.01587099 0.9997481
vn 0.01587099 -0.01587099 0.9997481
vn 0.01587099 -0.01587099 0.9997481
vn 0.01587099 -0.01587099 0.9997481
vn 0.01587099 -0.01587099 0.9997481
vn 0.01587099 -0.01587099 0.9997481
vn 0.01587099 -0.01587099 0.9997481
vn -0.9998741 -0.01587099 0
vn -0.9998741 -0.01587099 0
vn -0.9998741 -0.01587099 0
vn -0.9998741 -0.01587099 0
vn -0.9998741 -0.01587099 0
vn -0.9998741 -0.01587099 0
vn 0.9998741 0.01587105 0
vn 0.9998741 0.01587105 0
vn 0.9998741 0.01587105 0
vn 0.9998741 0.01587105 0
vn 0.9998741 0.01587105 0
vn 0.9998741 0.01587105 0
g SM_Prop_Sign_Quarantine_01_0
f 3/3/3 2/2/2 1/1/1
f 6/6/6 5/5/5 4/4/4
f 9/9/9 8/8/8 7/7/7
f 12/12/12 11/11/11 10/10/10
f 15/15/15 14/14/14 13/13/13
f 18/18/18 17/17/17 16/16/16
f 21/21/21 20/20/20 19/19/19
f 24/24/24 23/23/23 22/22/22
f 27/27/27 26/26/26 25/25/25
f 30/30/30 29/29/29 28/28/28
f 33/33/33 32/32/32 31/31/31
f 36/36/36 35/35/35 34/34/34
f 39/39/39 38/38/38 37/37/37
f 37/37/37 40/40/40 39/39/39
f 43/43/43 42/42/42 41/41/41
f 44/44/44 43/43/43 41/41/41
f 47/47/47 46/46/46 45/45/45
f 45/45/45 48/48/48 47/47/47
f 51/51/51 50/50/50 49/49/49
f 52/52/52 51/51/51 49/49/49
f 55/55/55 54/54/54 53/53/53
f 56/56/56 55/55/55 53/53/53
f 59/59/59 58/58/58 57/57/57
f 60/60/60 59/59/59 57/57/57
f 57/57/57 61/61/61 60/60/60
f 61/61/61 57/57/57 62/62/62
f 63/63/63 61/61/61 62/62/62
f 62/62/62 64/64/64 63/63/63
f 65/65/65 62/62/62 57/57/57
f 57/57/57 66/66/66 65/65/65
f 57/57/57 67/67/67 66/66/66
f 67/67/67 68/68/68 66/66/66
f 64/64/64 62/62/62 69/69/69
f 70/70/70 64/64/64 69/69/69
f 71/71/71 69/69/69 62/62/62
f 72/72/72 71/71/71 62/62/62
f 75/75/75 74/74/74 73/73/73
f 73/73/73 76/76/76 75/75/75
f 75/75/75 76/76/76 77/77/77
f 73/73/73 78/78/78 76/76/76
f 81/81/81 80/80/80 79/79/79
f 81/81/81 79/79/79 82/82/82
f 82/82/82 83/83/83 81/81/81
f 84/84/84 81/81/81 83/83/83
