g SM_Prop_ShoppingCart_Wheel_fl
v -0.01824163 0.03098895 -0.07494564
v -0.01824163 -0.03098938 -0.07494564
v 0.01824207 -0.03098938 -0.07494564
v 0.01824207 0.03098895 -0.07494564
v -0.01824163 -0.03098938 -0.07494564
v -0.01824163 -0.07494564 -0.03098938
v 0.01824207 -0.07494564 -0.03098938
v 0.01824207 -0.03098938 -0.07494564
v -0.01824163 -0.07494564 -0.03098938
v -0.01824163 -0.07494564 0.03098895
v 0.01824207 -0.07494564 0.03098895
v 0.01824207 -0.07494564 -0.03098938
v -0.01824163 -0.07494564 0.03098895
v -0.01824163 -0.03098938 0.07494521
v 0.01824207 -0.03098938 0.07494521
v 0.01824207 -0.07494564 0.03098895
v -0.01824163 -0.03098938 0.07494521
v -0.01824163 0.03098895 0.07494521
v 0.01824207 0.03098895 0.07494521
v 0.01824207 -0.03098938 0.07494521
v -0.01824163 0.03098895 0.07494521
v -0.01824163 0.07494521 0.03098895
v 0.01824207 0.07494521 0.03098895
v 0.01824207 0.03098895 0.07494521
v -0.01824163 0.07494521 0.03098895
v -0.01824163 0.07494521 -0.03098938
v 0.01824207 0.07494521 -0.03098938
v 0.01824207 0.07494521 0.03098895
v -0.01824163 0.07494521 -0.03098938
v -0.01824163 0.03098895 -0.07494564
v 0.01824207 0.03098895 -0.07494564
v 0.01824207 0.07494521 -0.03098938
v -0.01824163 -0.03098938 -0.07494564
v -0.01824163 0.03098895 -0.07494564
v -0.0236629 0.01985336 -0.0479858
v -0.0236629 -0.0198538 -0.0479858
v -0.01824163 -0.07494564 -0.03098938
v -0.01824163 -0.03098938 -0.07494564
v -0.0236629 -0.0198538 -0.0479858
v -0.0236629 -0.0479858 -0.0198538
v -0.01824163 -0.07494564 0.03098895
v -0.01824163 -0.07494564 -0.03098938
v -0.0236629 -0.0479858 -0.0198538
v -0.0236629 -0.0479858 0.01985336
v -0.01824163 -0.03098938 0.07494521
v -0.01824163 -0.07494564 0.03098895
v -0.0236629 -0.0479858 0.01985336
v -0.0236629 -0.0198538 0.04798537
v -0.01824163 0.03098895 0.07494521
v -0.01824163 -0.03098938 0.07494521
v -0.0236629 -0.0198538 0.04798537
v -0.0236629 0.01985336 0.04798537
v -0.01824163 0.07494521 0.03098895
v -0.01824163 0.03098895 0.07494521
v -0.0236629 0.01985336 0.04798537
v -0.0236629 0.04798537 0.01985336
v -0.01824163 0.07494521 -0.03098938
v -0.01824163 0.07494521 0.03098895
v -0.0236629 0.04798537 0.01985336
v -0.0236629 0.04798537 -0.0198538
v -0.01824163 0.03098895 -0.07494564
v -0.01824163 0.07494521 -0.03098938
v -0.0236629 0.04798537 -0.0198538
v -0.0236629 0.01985336 -0.0479858
v 0.01824207 0.03098895 -0.07494564
v 0.01824207 -0.03098938 -0.07494564
v 0.02366334 -0.0198538 -0.0479858
v 0.02366334 0.01985336 -0.0479858
v 0.01824207 -0.03098938 -0.07494564
v 0.01824207 -0.07494564 -0.03098938
v 0.02366334 -0.0479858 -0.0198538
v 0.02366334 -0.0198538 -0.0479858
v 0.01824207 -0.07494564 -0.03098938
v 0.01824207 -0.07494564 0.03098895
v 0.02366334 -0.0479858 0.01985336
v 0.02366334 -0.0479858 -0.0198538
v 0.01824207 -0.07494564 0.03098895
v 0.01824207 -0.03098938 0.07494521
v 0.02366334 -0.0198538 0.04798537
v 0.02366334 -0.0479858 0.01985336
v 0.01824207 -0.03098938 0.07494521
v 0.01824207 0.03098895 0.07494521
v 0.02366334 0.01985336 0.04798537
v 0.02366334 -0.0198538 0.04798537
v 0.01824207 0.03098895 0.07494521
v 0.01824207 0.07494521 0.03098895
v 0.02366334 0.04798537 0.01985336
v 0.02366334 0.01985336 0.04798537
v 0.01824207 0.07494521 0.03098895
v 0.01824207 0.07494521 -0.03098938
v 0.02366334 0.04798537 -0.0198538
v 0.02366334 0.04798537 0.01985336
v 0.01824207 0.07494521 -0.03098938
v 0.01824207 0.03098895 -0.07494564
v 0.02366334 0.01985336 -0.0479858
v 0.02366334 0.04798537 -0.0198538
v 0.02366334 0.04798537 0.01985336
v 0.02366334 0.04798537 -0.0198538
v 0.02366334 7.304549E-05 -7.347763E-05
v 0.02366334 0.01985336 0.04798537
v 0.02366334 0.01985336 -0.0479858
v 0.02366334 -0.0198538 0.04798537
v 0.02366334 -0.0198538 -0.0479858
v 0.02366334 -0.0479858 0.01985336
v 0.02366334 -0.0479858 -0.0198538
v -0.0236629 0.04798537 -0.0198538
v -0.0236629 0.04798537 0.01985336
v -0.0236629 7.304549E-05 -7.347763E-05
v -0.0236629 0.01985336 -0.0479858
v -0.0236629 0.01985336 0.04798537
v -0.0236629 -0.0198538 -0.0479858
v -0.0236629 -0.0198538 0.04798537
v -0.0236629 -0.0479858 -0.0198538
v -0.0236629 -0.0479858 0.01985336
vt 0.09040807 0.2279437
vt 0.09040807 0.2279437
vt 0.09040807 0.2279437
vt 0.09040807 0.2279437
vt 0.09040807 0.2279437
vt 0.09040807 0.2279437
vt 0.09040807 0.2279437
vt 0.09040807 0.2279437
vt 0.09040807 0.2279437
vt 0.09040807 0.2279437
vt 0.09040807 0.2279437
vt 0.09040807 0.2279437
vt 0.09040807 0.2279437
vt 0.09040807 0.2279437
vt 0.09040807 0.2279437
vt 0.09040807 0.2279437
vt 0.09040807 0.2279437
vt 0.09040807 0.2279437
vt 0.09040807 0.2279437
vt 0.09040807 0.2279437
vt 0.09040807 0.2279437
vt 0.09040807 0.2279437
vt 0.09040807 0.2279437
vt 0.09040807 0.2279437
vt 0.09040807 0.2279437
vt 0.09040807 0.2279437
vt 0.09040807 0.2279437
vt 0.09040807 0.2279437
vt 0.09040807 0.2279437
vt 0.09040807 0.2279437
vt 0.09040807 0.2279437
vt 0.09040807 0.2279437
vt 0.09040807 0.2279437
vt 0.09040807 0.2279437
vt 0.09040807 0.2279437
vt 0.09040807 0.2279437
vt 0.09040807 0.2279437
vt 0.09040807 0.2279437
vt 0.09040807 0.2279437
vt 0.09040807 0.2279437
vt 0.09040807 0.2279437
vt 0.09040807 0.2279437
vt 0.09040807 0.2279437
vt 0.09040807 0.2279437
vt 0.09040807 0.2279437
vt 0.09040807 0.2279437
vt 0.09040807 0.2279437
vt 0.09040807 0.2279437
vt 0.09040807 0.2279437
vt 0.09040807 0.2279437
vt 0.09040807 0.2279437
vt 0.09040807 0.2279437
vt 0.09040807 0.2279437
vt 0.09040807 0.2279437
vt 0.09040807 0.2279437
vt 0.09040807 0.2279437
vt 0.09040807 0.2279437
vt 0.09040807 0.2279437
vt 0.09040807 0.2279437
vt 0.09040807 0.2279437
vt 0.09040807 0.2279437
vt 0.09040807 0.2279437
vt 0.09040807 0.2279437
vt 0.09040807 0.2279437
vt 0.09040807 0.2279437
vt 0.09040807 0.2279437
vt 0.09040807 0.2279437
vt 0.09040807 0.2279437
vt 0.09040807 0.2279437
vt 0.09040807 0.2279437
vt 0.09040807 0.2279437
vt 0.09040807 0.2279437
vt 0.09040807 0.2279437
vt 0.09040807 0.2279437
vt 0.09040807 0.2279437
vt 0.09040807 0.2279437
vt 0.09040807 0.2279437
vt 0.09040807 0.2279437
vt 0.09040807 0.2279437
vt 0.09040807 0.2279437
vt 0.09040807 0.2279437
vt 0.09040807 0.2279437
vt 0.09040807 0.2279437
vt 0.09040807 0.2279437
vt 0.09040807 0.2279437
vt 0.09040807 0.2279437
vt 0.09040807 0.2279437
vt 0.09040807 0.2279437
vt 0.09040807 0.2279437
vt 0.09040807 0.2279437
vt 0.09040807 0.2279437
vt 0.09040807 0.2279437
vt 0.09040807 0.2279437
vt 0.09040807 0.2279437
vt 0.09040807 0.2279437
vt 0.09040807 0.2279437
vt 0.02543064 0.3015848
vt 0.02543064 0.3015848
vt 0.02543064 0.3015848
vt 0.02543064 0.3015848
vt 0.02543064 0.3015848
vt 0.02543064 0.3015848
vt 0.02543064 0.3015848
vt 0.02543064 0.3015848
vt 0.02543064 0.3015848
vt 0.02543064 0.3015848
vt 0.02543064 0.3015848
vt 0.02543064 0.3015848
vt 0.02543064 0.3015848
vt 0.02543064 0.3015848
vt 0.02543064 0.3015848
vt 0.02543064 0.3015848
vt 0.02543064 0.3015848
vt 0.02543064 0.3015848
vn -0.01587105 0.01587105 -0.9997481
vn -0.01587105 0.01587105 -0.9997481
vn -0.01587105 0.01587105 -0.9997481
vn -0.01587105 0.01587105 -0.9997481
vn -0.01587105 -0.7141957 -0.6997661
vn -0.01587105 -0.7141957 -0.6997661
vn -0.01587105 -0.7141957 -0.6997661
vn -0.01587105 -0.7141957 -0.6997661
vn -0.01587105 -0.999874 -0.000345267
vn -0.01587105 -0.999874 -0.000345267
vn -0.01587105 -0.999874 -0.000345267
vn -0.01587105 -0.999874 -0.000345267
vn -0.01587105 -0.7141957 0.6997661
vn -0.01587105 -0.7141957 0.6997661
vn -0.01587105 -0.7141957 0.6997661
vn -0.01587105 -0.7141957 0.6997661
vn -0.01587105 0.01587105 0.9997481
vn -0.01587105 0.01587105 0.9997481
vn -0.01587105 0.01587105 0.9997481
vn -0.01587105 0.01587105 0.9997481
vn -0.01587105 0.7141957 0.6997661
vn -0.01587105 0.7141957 0.6997661
vn -0.01587105 0.7141957 0.6997661
vn -0.01587105 0.7141957 0.6997661
vn -0.01587105 0.999874 -0.000345267
vn -0.01587105 0.999874 -0.000345267
vn -0.01587105 0.999874 -0.000345267
vn -0.01587105 0.999874 -0.000345267
vn -0.01587105 0.7141957 -0.6997661
vn -0.01587105 0.7141957 -0.6997661
vn -0.01587105 0.7141957 -0.6997661
vn -0.01587105 0.7141957 -0.6997661
vn -0.968132 0.01587105 -0.249937
vn -0.968132 0.01587105 -0.249937
vn -0.968132 0.01587105 -0.249937
vn -0.968132 0.01587105 -0.249937
vn -0.968132 -0.1428391 -0.2057119
vn -0.968132 -0.1428391 -0.2057119
vn -0.968132 -0.1428391 -0.2057119
vn -0.968132 -0.1428391 -0.2057119
vn -0.968132 -0.2063232 -0.1419548
vn -0.968132 -0.2063232 -0.1419548
vn -0.968132 -0.2063232 -0.1419548
vn -0.968132 -0.2063232 -0.1419548
vn -0.968132 -0.1428391 0.2057119
vn -0.968132 -0.1428391 0.2057119
vn -0.968132 -0.1428391 0.2057119
vn -0.968132 -0.1428391 0.2057119
vn -0.968132 0.01587105 0.249937
vn -0.968132 0.01587105 0.249937
vn -0.968132 0.01587105 0.249937
vn -0.968132 0.01587105 0.249937
vn -0.968132 0.1428392 0.2057119
vn -0.968132 0.1428392 0.2057119
vn -0.968132 0.1428392 0.2057119
vn -0.968132 0.1428392 0.2057119
vn -0.968132 0.2063233 -0.1419547
vn -0.968132 0.2063233 -0.1419547
vn -0.968132 0.2063233 -0.1419547
vn -0.968132 0.2063233 -0.1419547
vn -0.968132 0.1428392 -0.2057119
vn -0.968132 0.1428392 -0.2057119
vn -0.968132 0.1428392 -0.2057119
vn -0.968132 0.1428392 -0.2057119
vn 0.968132 0.01587105 -0.2499373
vn 0.968132 0.01587105 -0.2499373
vn 0.968132 0.01587105 -0.2499373
vn 0.968132 0.01587105 -0.2499373
vn 0.968132 -0.1428391 -0.2057122
vn 0.968132 -0.1428391 -0.2057122
vn 0.968132 -0.1428391 -0.2057122
vn 0.968132 -0.1428391 -0.2057122
vn 0.968132 -0.2063232 -0.1419552
vn 0.968132 -0.2063232 -0.1419552
vn 0.968132 -0.2063232 -0.1419552
vn 0.968132 -0.2063232 -0.1419552
vn 0.968132 -0.1428391 0.2057122
vn 0.968132 -0.1428391 0.2057122
vn 0.968132 -0.1428391 0.2057122
vn 0.968132 -0.1428391 0.2057122
vn 0.968132 0.01587105 0.2499373
vn 0.968132 0.01587105 0.2499373
vn 0.968132 0.01587105 0.2499373
vn 0.968132 0.01587105 0.2499373
vn 0.968132 0.1428392 0.2057122
vn 0.968132 0.1428392 0.2057122
vn 0.968132 0.1428392 0.2057122
vn 0.968132 0.1428392 0.2057122
vn 0.968132 0.2063233 -0.1419551
vn 0.968132 0.2063233 -0.1419551
vn 0.968132 0.2063233 -0.1419551
vn 0.968132 0.2063233 -0.1419551
vn 0.968132 0.1428392 -0.2057122
vn 0.968132 0.1428392 -0.2057122
vn 0.968132 0.1428392 -0.2057122
vn 0.968132 0.1428392 -0.2057122
vn 0.999874 0.01587105 -0.0003439156
vn 0.999874 0.01587105 -0.0003439156
vn 0.999874 0.01587105 -0.0003439156
vn 0.999874 0.01587105 -0.0003439156
vn 0.999874 0.01587105 -0.0003439156
vn 0.999874 0.01587105 -0.0003439156
vn 0.999874 0.01587105 -0.0003439156
vn 0.999874 0.01587105 -0.0003439156
vn 0.999874 0.01587105 -0.0003439156
vn -0.999874 0.01587105 -0.0003439156
vn -0.999874 0.01587105 -0.0003439156
vn -0.999874 0.01587105 -0.0003439156
vn -0.999874 0.01587105 -0.0003439156
vn -0.999874 0.01587105 -0.0003439156
vn -0.999874 0.01587105 -0.0003439156
vn -0.999874 0.01587105 -0.0003439156
vn -0.999874 0.01587105 -0.0003439156
vn -0.999874 0.01587105 -0.0003439156
g SM_Prop_ShoppingCart_Wheel_fl_0
f 3/3/3 2/2/2 1/1/1
f 4/4/4 3/3/3 1/1/1
f 7/7/7 6/6/6 5/5/5
f 8/8/8 7/7/7 5/5/5
f 11/11/11 10/10/10 9/9/9
f 12/12/12 11/11/11 9/9/9
f 15/15/15 14/14/14 13/13/13
f 16/16/16 15/15/15 13/13/13
f 19/19/19 18/18/18 17/17/17
f 20/20/20 19/19/19 17/17/17
f 23/23/23 22/22/22 21/21/21
f 24/24/24 23/23/23 21/21/21
f 27/27/27 26/26/26 25/25/25
f 28/28/28 27/27/27 25/25/25
f 31/31/31 30/30/30 29/29/29
f 32/32/32 31/31/31 29/29/29
f 35/35/35 34/34/34 33/33/33
f 36/36/36 35/35/35 33/33/33
f 39/39/39 38/38/38 37/37/37
f 40/40/40 39/39/39 37/37/37
f 43/43/43 42/42/42 41/41/41
f 44/44/44 43/43/43 41/41/41
f 47/47/47 46/46/46 45/45/45
f 48/48/48 47/47/47 45/45/45
f 51/51/51 50/50/50 49/49/49
f 52/52/52 51/51/51 49/49/49
f 55/55/55 54/54/54 53/53/53
f 56/56/56 55/55/55 53/53/53
f 59/59/59 58/58/58 57/57/57
f 60/60/60 59/59/59 57/57/57
f 63/63/63 62/62/62 61/61/61
f 64/64/64 63/63/63 61/61/61
f 67/67/67 66/66/66 65/65/65
f 68/68/68 67/67/67 65/65/65
f 71/71/71 70/70/70 69/69/69
f 72/72/72 71/71/71 69/69/69
f 75/75/75 74/74/74 73/73/73
f 76/76/76 75/75/75 73/73/73
f 79/79/79 78/78/78 77/77/77
f 80/80/80 79/79/79 77/77/77
f 83/83/83 82/82/82 81/81/81
f 84/84/84 83/83/83 81/81/81
f 87/87/87 86/86/86 85/85/85
f 88/88/88 87/87/87 85/85/85
f 91/91/91 90/90/90 89/89/89
f 92/92/92 91/91/91 89/89/89
f 95/95/95 94/94/94 93/93/93
f 96/96/96 95/95/95 93/93/93
f 99/99/99 98/98/98 97/97/97
f 99/99/99 97/97/97 100/100/100
f 99/99/99 101/101/101 98/98/98
f 99/99/99 100/100/100 102/102/102
f 99/99/99 103/103/103 101/101/101
f 99/99/99 102/102/102 104/104/104
f 99/99/99 105/105/105 103/103/103
f 99/99/99 104/104/104 105/105/105
f 108/108/108 107/107/107 106/106/106
f 108/108/108 106/106/106 109/109/109
f 108/108/108 110/110/110 107/107/107
f 108/108/108 109/109/109 111/111/111
f 108/108/108 112/112/112 110/110/110
f 108/108/108 111/111/111 113/113/113
f 108/108/108 114/114/114 112/112/112
f 108/108/108 113/113/113 114/114/114
