g SM_Prop_Papers_02
v -0.2262583 0.004573584 0.1299438
v -0.1277916 0.004573584 -0.04439075
v 0.03524357 0.004573584 0.04761916
v -0.02179182 0.004573584 0.1482382
v -0.1202586 0.004573584 0.1815985
v -0.2176492 0.009416223 0.05461407
v -0.2267964 0.02179182 0.005111665
v -0.05299985 0.02179182 -0.08151756
v -0.03416744 0.009416223 0.01963955
v -0.2068878 0.009416223 -0.2531618
v -0.08958861 0.009416223 -0.2752227
v -0.05299985 0.02179182 -0.08151756
v -0.2628471 0.009416223 -0.1864412
v -0.2267964 0.02179182 0.005111665
v 0.1810605 0.006187797 0.05945671
v 0.2628471 0.006187797 0.1482382
v 0.2101162 0.008340091 0.2041975
v 0.1277916 0.008340091 0.115954
v 0.04385269 0.006187797 0.1869792
v 0.1261774 0.006187797 0.2752227
v 0.07559879 0.004573584 -0.04439075
v 0.05569021 0.004573584 -0.1089591
v 0.2214157 0.004573584 -0.1509286
v 0.2407862 0.004573584 -0.08636019
vt 0.1395761 0.1968227
vt 0.1395761 0.216407
vt 0.1621734 0.216407
vt 0.1621734 0.2049577
vt 0.1537371 0.1974253
vt 0.1633786 0.1868798
vt 0.1633786 0.1920019
vt 0.1859759 0.197124
vt 0.1859759 0.1868798
vt 0.1715136 0.216407
vt 0.1859759 0.216407
vt 0.1859759 0.197124
vt 0.1633786 0.2109837
vt 0.1633786 0.1920019
vt 0.1633786 0.1944123
vt 0.1633786 0.2061629
vt 0.1727188 0.2061629
vt 0.1727188 0.1944123
vt 0.1859759 0.1944123
vt 0.1859759 0.2061629
vt 0.1395761 0.1904954
vt 0.1395761 0.197124
vt 0.1621734 0.197124
vt 0.1621734 0.1904954
vn 0.001997635 0.9999981 0
vn 0.001997635 0.9999981 0
vn 0.001997635 0.9999981 0
vn 0.001997635 0.9999981 0
vn 0.001997635 0.9999981 0
vn 0.05209742 0.9832982 0.1743861
vn 0.05209742 0.9832982 0.1743861
vn 0.05209742 0.9832982 0.1743861
vn 0.05209742 0.9832982 0.1743861
vn -0.03138682 0.9995073 0
vn -0.01470073 0.999892 0
vn -0.03138682 0.9995073 0
vn -0.03138682 0.9995073 0
vn -0.03138682 0.9995073 0
vn 0.01869433 0.9998253 0
vn 0.01869433 0.9998253 0
vn 0.001997635 0.9999981 0
vn 0.001997635 0.9999981 0
vn -0.01470073 0.999892 0
vn -0.01470073 0.999892 0
vn 0.001997635 0.9999981 0
vn 0.001997635 0.9999981 0
vn 0.001997635 0.9999981 0
vn 0.001997635 0.9999981 0
g SM_Prop_Papers_02_0
f 3/3/3 2/2/2 1/1/1
f 1/1/1 4/4/4 3/3/3
f 1/1/1 5/5/5 4/4/4
f 8/8/8 7/7/7 6/6/6
f 9/9/9 8/8/8 6/6/6
f 12/12/12 11/11/11 10/10/10
f 10/10/10 13/13/13 12/12/12
f 13/13/13 14/14/14 12/12/12
f 17/17/17 16/16/16 15/15/15
f 18/18/18 17/17/17 15/15/15
f 18/18/18 19/19/19 17/17/17
f 19/19/19 20/20/20 17/17/17
f 23/23/23 22/22/22 21/21/21
f 24/24/24 23/23/23 21/21/21
