g SM_Prop_Lab_Clamp_01_Arm_01
v -0.1857199 -0.01666348 -0.02910565
v -0.1857199 0.01666354 -0.02910565
v -0.2120535 0.01666354 -0.02910566
v -0.2120535 -0.01666348 -0.02910566
v -0.2120535 -0.01666348 0.02910566
v -0.2120535 0.01666354 0.02910566
v -0.1857199 0.01666354 0.02910566
v -0.1857199 -0.01666348 0.02910566
v -0.1857199 -0.01666348 0.02910566
v -0.1857199 0.01666354 0.02910566
v -0.1689157 0.01666354 2.11944E-09
v -0.1689157 -0.01666348 2.11944E-09
v -0.1689157 -0.01666348 2.11944E-09
v -0.1689157 0.01666354 2.11944E-09
v -0.1857199 0.01666354 -0.02910565
v -0.1857199 -0.01666348 -0.02910565
v -0.1857199 -0.01666348 0.02910566
v -0.2142697 -0.01666348 0.02075654
v -0.2120535 -0.01666348 0.02910566
v -0.1905401 -0.01666348 0.02075654
v -0.1689157 -0.01666348 2.11944E-09
v -0.1785565 -0.01666348 1.587403E-09
v -0.1857199 -0.01666348 -0.02910565
v -0.1905401 -0.01666348 -0.02075654
v -0.2120535 -0.01666348 -0.02910566
v -0.2142697 -0.01666348 -0.02075654
v -0.2120535 0.01666354 -0.02910566
v -0.2142697 0.01666354 -0.02075654
v -0.2142697 -0.01666348 -0.02075654
v -0.2120535 -0.01666348 -0.02910566
v -0.2120535 -0.01666348 0.02910566
v -0.2142697 -0.01666348 0.02075654
v -0.2142697 0.01666354 0.02075654
v -0.2120535 0.01666354 0.02910566
v -0.2120535 0.01666354 0.02910566
v -0.2142697 0.01666354 0.02075654
v -0.1905401 0.01666354 0.02075654
v -0.1857199 0.01666354 0.02910566
v -0.1785565 0.01666354 1.587403E-09
v -0.1689157 0.01666354 2.11944E-09
v -0.1905401 0.01666354 -0.02075654
v -0.1857199 0.01666354 -0.02910565
v -0.2142697 0.01666354 -0.02075654
v -0.2120535 0.01666354 -0.02910566
v -0.1905401 -0.01666348 0.02075654
v -0.1905401 0.01666354 0.02075654
v -0.2142697 0.01666354 0.02075654
v -0.2142697 -0.01666348 0.02075654
v -0.1785565 -0.01666348 1.587403E-09
v -0.1785565 0.01666354 1.587403E-09
v -0.1905401 0.01666354 0.02075654
v -0.1905401 -0.01666348 0.02075654
v -0.2142697 -0.01666348 -0.02075654
v -0.2142697 0.01666354 -0.02075654
v -0.1905401 0.01666354 -0.02075654
v -0.1905401 -0.01666348 -0.02075654
v -0.1905401 -0.01666348 -0.02075654
v -0.1905401 0.01666354 -0.02075654
v -0.1785565 0.01666354 1.587403E-09
v -0.1785565 -0.01666348 1.587403E-09
v -0.02726623 0.005497544 -0.009521944
v -0.1765204 0.005497544 -0.009521944
v -0.1765204 -0.005497482 -0.009521946
v -0.02726623 -0.005497482 -0.009521946
v -0.02726623 -0.005497482 -0.009521946
v -0.1765204 -0.005497482 -0.009521946
v -0.1708707 -0.01099507 -2.144901E-11
v -0.03203217 -0.01099507 -2.144901E-11
v -0.03203217 -0.01099507 -2.144901E-11
v -0.1708707 -0.01099507 -2.144901E-11
v -0.1765204 -0.005497482 0.009521948
v -0.02726623 -0.005497482 0.009521948
v -0.02726623 -0.005497482 0.009521948
v -0.1765204 -0.005497482 0.009521948
v -0.1765204 0.005497544 0.009521949
v -0.02726623 0.005497544 0.009521949
v -0.02726623 0.005497544 0.009521949
v -0.1765204 0.005497544 0.009521949
v -0.1708707 0.01099513 1.495478E-09
v -0.03203217 0.01099513 1.495478E-09
v -0.03203217 0.01099513 1.495478E-09
v -0.1708707 0.01099513 1.495478E-09
v -0.1765204 0.005497544 -0.009521944
v -0.02726623 0.005497544 -0.009521944
v 0.01680389 -0.01443532 0.02910566
v -0.0336084 -0.01443532 -2.517293E-09
v -0.01680389 -0.01443532 0.02910565
v 0.0336084 -0.01443532 2.11944E-09
v -0.01680389 -0.01443532 -0.02910565
v 0.01680389 -0.01443532 -0.02910565
v 0.01680389 -0.01443532 -0.02910565
v 0.01680389 0.01443538 -0.02910565
v -0.01680389 0.01443538 -0.02910565
v -0.01680389 -0.01443532 -0.02910565
v -0.01680389 -0.01443532 -0.02910565
v -0.01680389 0.01443538 -0.02910565
v -0.0336084 0.01443538 -2.517293E-09
v -0.0336084 -0.01443532 -2.517293E-09
v -0.0336084 -0.01443532 -2.517293E-09
v -0.0336084 0.01443538 -2.517293E-09
v -0.01680389 0.01443538 0.02910565
v -0.01680389 -0.01443532 0.02910565
v -0.01680389 -0.01443532 0.02910565
v -0.01680389 0.01443538 0.02910565
v 0.01680389 0.01443538 0.02910566
v 0.01680389 -0.01443532 0.02910566
v 0.01680389 -0.01443532 0.02910566
v 0.01680389 0.01443538 0.02910566
v 0.0336084 0.01443538 2.11944E-09
v 0.0336084 -0.01443532 2.11944E-09
v 0.0336084 -0.01443532 2.11944E-09
v 0.0336084 0.01443538 2.11944E-09
v 0.01680389 0.01443538 -0.02910565
v 0.01680389 -0.01443532 -0.02910565
v 0.0336084 0.01443538 2.11944E-09
v 0.01680389 0.01443538 0.02910566
v -0.01680389 0.01443538 0.02910565
v -0.0336084 0.01443538 -2.517293E-09
v -0.01680389 0.01443538 -0.02910565
v 0.01680389 0.01443538 -0.02910565
vt 0.1019142 0.2293257
vt 0.1019142 0.2293257
vt 0.1019142 0.2293257
vt 0.1019142 0.2293257
vt 0.1019142 0.2293257
vt 0.1019142 0.2293257
vt 0.1019142 0.2293257
vt 0.1019142 0.2293257
vt 0.1019142 0.2293257
vt 0.1019142 0.2293257
vt 0.1019142 0.2293257
vt 0.1019142 0.2293257
vt 0.1019142 0.2293257
vt 0.1019142 0.2293257
vt 0.1019142 0.2293257
vt 0.1019142 0.2293257
vt 0.1019142 0.2293257
vt 0.1019142 0.2293257
vt 0.1019142 0.2293257
vt 0.1019142 0.2293257
vt 0.1019142 0.2293257
vt 0.1019142 0.2293257
vt 0.1019142 0.2293257
vt 0.1019142 0.2293257
vt 0.1019142 0.2293257
vt 0.1019142 0.2293257
vt 0.1019142 0.2293257
vt 0.1019142 0.2293257
vt 0.1019142 0.2293257
vt 0.1019142 0.2293257
vt 0.1019142 0.2293257
vt 0.1019142 0.2293257
vt 0.1019142 0.2293257
vt 0.1019142 0.2293257
vt 0.1019142 0.2293257
vt 0.1019142 0.2293257
vt 0.1019142 0.2293257
vt 0.1019142 0.2293257
vt 0.1019142 0.2293257
vt 0.1019142 0.2293257
vt 0.1019142 0.2293257
vt 0.1019142 0.2293257
vt 0.1019142 0.2293257
vt 0.1019142 0.2293257
vt 0.1019142 0.2293257
vt 0.1019142 0.2293257
vt 0.1019142 0.2293257
vt 0.1019142 0.2293257
vt 0.1019142 0.2293257
vt 0.1019142 0.2293257
vt 0.1019142 0.2293257
vt 0.1019142 0.2293257
vt 0.1019142 0.2293257
vt 0.1019142 0.2293257
vt 0.1019142 0.2293257
vt 0.1019142 0.2293257
vt 0.1019142 0.2293257
vt 0.1019142 0.2293257
vt 0.1019142 0.2293257
vt 0.1019142 0.2293257
vt 0.1019142 0.2293257
vt 0.1019142 0.2293257
vt 0.1019142 0.2293257
vt 0.1019142 0.2293257
vt 0.1019142 0.2293257
vt 0.1019142 0.2293257
vt 0.1019142 0.2293257
vt 0.1019142 0.2293257
vt 0.1019142 0.2293257
vt 0.1019142 0.2293257
vt 0.1019142 0.2293257
vt 0.1019142 0.2293257
vt 0.1019142 0.2293257
vt 0.1019142 0.2293257
vt 0.1019142 0.2293257
vt 0.1019142 0.2293257
vt 0.1019142 0.2293257
vt 0.1019142 0.2293257
vt 0.1019142 0.2293257
vt 0.1019142 0.2293257
vt 0.1019142 0.2293257
vt 0.1019142 0.2293257
vt 0.1019142 0.2293257
vt 0.1019142 0.2293257
vt 0.1019142 0.2293257
vt 0.1019142 0.2293257
vt 0.1019142 0.2293257
vt 0.1019142 0.2293257
vt 0.1019142 0.2293257
vt 0.1019142 0.2293257
vt 0.1019142 0.2293257
vt 0.1019142 0.2293257
vt 0.1019142 0.2293257
vt 0.1019142 0.2293257
vt 0.1019142 0.2293257
vt 0.1019142 0.2293257
vt 0.1019142 0.2293257
vt 0.1019142 0.2293257
vt 0.1019142 0.2293257
vt 0.1019142 0.2293257
vt 0.1019142 0.2293257
vt 0.1019142 0.2293257
vt 0.1019142 0.2293257
vt 0.1019142 0.2293257
vt 0.1019142 0.2293257
vt 0.1019142 0.2293257
vt 0.1019142 0.2293257
vt 0.1019142 0.2293257
vt 0.1019142 0.2293257
vt 0.1019142 0.2293257
vt 0.1019142 0.2293257
vt 0.1019142 0.2293257
vt 0.1019142 0.2293257
vt 0.1019142 0.2293257
vt 0.1019142 0.2293257
vt 0.1019142 0.2293257
vt 0.1019142 0.2293257
vt 0.1019142 0.2293257
vt 0.1019142 0.2293257
vt 0.1019142 0.2293257
vn 0 0 -1
vn 0 0 -1
vn 0 0 -1
vn 0 0 -1
vn 0 0 1
vn 0 0 1
vn 0 0 1
vn 0 0 1
vn 0.8660249 0 0.500001
vn 0.8660249 0 0.500001
vn 0.8660249 0 0.500001
vn 0.8660249 0 0.500001
vn 0.8660249 0 -0.500001
vn 0.8660249 0 -0.500001
vn 0.8660249 0 -0.500001
vn 0.8660249 0 -0.500001
vn 0 -1 0
vn 0 -1 0
vn 0 -1 0
vn 0 -1 0
vn 0 -1 0
vn 0 -1 0
vn 0 -1 0
vn 0 -1 0
vn 0 -1 0
vn 0 -1 0
vn -0.9665295 0 -0.2565553
vn -0.9665295 0 -0.2565553
vn -0.9665295 0 -0.2565553
vn -0.9665295 0 -0.2565553
vn -0.9665295 0 0.2565553
vn -0.9665295 0 0.2565553
vn -0.9665295 0 0.2565553
vn -0.9665295 0 0.2565553
vn 0 1 0
vn 0 1 0
vn 0 1 0
vn 0 1 0
vn 0 1 0
vn 0 1 0
vn 0 1 0
vn 0 1 0
vn 0 1 0
vn 0 1 0
vn 0 0 -1
vn 0 0 -1
vn 0 0 -1
vn 0 0 -1
vn -0.8660282 0 -0.4999952
vn -0.8660282 0 -0.4999952
vn -0.8660282 0 -0.4999952
vn -0.8660282 0 -0.4999952
vn 0 0 1
vn 0 0 1
vn 0 0 1
vn 0 0 1
vn -0.8660281 0 0.4999953
vn -0.8660281 0 0.4999953
vn -0.8660281 0 0.4999953
vn -0.8660281 0 0.4999953
vn 0 0 -1
vn 0 0 -1
vn 0 0 -1
vn 0 0 -1
vn 0 -0.8660219 -0.5000061
vn 0 -0.8660219 -0.5000061
vn 0 -0.8660219 -0.5000061
vn 0 -0.8660219 -0.5000061
vn 0 -0.8660219 0.500006
vn 0 -0.8660219 0.500006
vn 0 -0.8660219 0.500006
vn 0 -0.8660219 0.500006
vn 0 0 1
vn 0 0 1
vn 0 0 1
vn 0 0 1
vn 0 0.8660219 0.5000061
vn 0 0.8660219 0.5000061
vn 0 0.8660219 0.5000061
vn 0 0.8660219 0.5000061
vn 0 0.8660219 -0.5000061
vn 0 0.8660219 -0.5000061
vn 0 0.8660219 -0.5000061
vn 0 0.8660219 -0.5000061
vn 0 -1 0
vn 0 -1 0
vn 0 -1 0
vn 0 -1 0
vn 0 -1 0
vn 0 -1 0
vn 0 0 -1
vn 0 0 -1
vn 0 0 -1
vn 0 0 -1
vn -0.866021 0 -0.5000078
vn -0.866021 0 -0.5000078
vn -0.866021 0 -0.5000078
vn -0.866021 0 -0.5000078
vn -0.866021 0 0.5000077
vn -0.866021 0 0.5000077
vn -0.866021 0 0.5000077
vn -0.866021 0 0.5000077
vn 0 0 1
vn 0 0 1
vn 0 0 1
vn 0 0 1
vn 0.866021 0 0.5000077
vn 0.866021 0 0.5000077
vn 0.866021 0 0.5000077
vn 0.866021 0 0.5000077
vn 0.866021 0 -0.5000078
vn 0.866021 0 -0.5000078
vn 0.866021 0 -0.5000078
vn 0.866021 0 -0.5000078
vn 0 1 0
vn 0 1 0
vn 0 1 0
vn 0 1 0
vn 0 1 0
vn 0 1 0
g SM_Prop_Lab_Clamp_01_Arm_01_0
f 3/3/3 2/2/2 1/1/1
f 4/4/4 3/3/3 1/1/1
f 7/7/7 6/6/6 5/5/5
f 8/8/8 7/7/7 5/5/5
f 11/11/11 10/10/10 9/9/9
f 12/12/12 11/11/11 9/9/9
f 15/15/15 14/14/14 13/13/13
f 16/16/16 15/15/15 13/13/13
f 19/19/19 18/18/18 17/17/17
f 18/18/18 20/20/20 17/17/17
f 17/17/17 20/20/20 21/21/21
f 20/20/20 22/22/22 21/21/21
f 21/21/21 22/22/22 23/23/23
f 22/22/22 24/24/24 23/23/23
f 23/23/23 24/24/24 25/25/25
f 24/24/24 26/26/26 25/25/25
f 29/29/29 28/28/28 27/27/27
f 30/30/30 29/29/29 27/27/27
f 33/33/33 32/32/32 31/31/31
f 34/34/34 33/33/33 31/31/31
f 37/37/37 36/36/36 35/35/35
f 38/38/38 37/37/37 35/35/35
f 39/39/39 37/37/37 38/38/38
f 40/40/40 39/39/39 38/38/38
f 41/41/41 39/39/39 40/40/40
f 42/42/42 41/41/41 40/40/40
f 43/43/43 41/41/41 42/42/42
f 44/44/44 43/43/43 42/42/42
f 47/47/47 46/46/46 45/45/45
f 48/48/48 47/47/47 45/45/45
f 51/51/51 50/50/50 49/49/49
f 52/52/52 51/51/51 49/49/49
f 55/55/55 54/54/54 53/53/53
f 56/56/56 55/55/55 53/53/53
f 59/59/59 58/58/58 57/57/57
f 60/60/60 59/59/59 57/57/57
f 63/63/63 62/62/62 61/61/61
f 64/64/64 63/63/63 61/61/61
f 67/67/67 66/66/66 65/65/65
f 68/68/68 67/67/67 65/65/65
f 71/71/71 70/70/70 69/69/69
f 72/72/72 71/71/71 69/69/69
f 75/75/75 74/74/74 73/73/73
f 76/76/76 75/75/75 73/73/73
f 79/79/79 78/78/78 77/77/77
f 80/80/80 79/79/79 77/77/77
f 83/83/83 82/82/82 81/81/81
f 84/84/84 83/83/83 81/81/81
f 87/87/87 86/86/86 85/85/85
f 86/86/86 88/88/88 85/85/85
f 88/88/88 86/86/86 89/89/89
f 90/90/90 88/88/88 89/89/89
f 93/93/93 92/92/92 91/91/91
f 94/94/94 93/93/93 91/91/91
f 97/97/97 96/96/96 95/95/95
f 98/98/98 97/97/97 95/95/95
f 101/101/101 100/100/100 99/99/99
f 102/102/102 101/101/101 99/99/99
f 105/105/105 104/104/104 103/103/103
f 106/106/106 105/105/105 103/103/103
f 109/109/109 108/108/108 107/107/107
f 110/110/110 109/109/109 107/107/107
f 113/113/113 112/112/112 111/111/111
f 114/114/114 113/113/113 111/111/111
f 117/117/117 116/116/116 115/115/115
f 118/118/118 117/117/117 115/115/115
f 118/118/118 115/115/115 119/119/119
f 115/115/115 120/120/120 119/119/119
