g SM_Prop_ToolBox_01
v -0.05098522 0.2077288 0.1564521
v -0.04457563 0.2036499 0.1885
v -0.05215058 0.1984057 0.1721847
v 0.05215088 0.1984057 0.1721847
v 0.0445759 0.2036499 0.1885
v 0.0509855 0.2077288 0.1564521
v 0.2770691 0.2077288 0.1273176
v 0.2770691 0.1727674 0.1273176
v 0.2770691 0.2077288 0.05331597
v -0.2770688 0.1430502 0.1273176
v -0.2770688 0.2077288 0.1273176
v -0.2770688 0.2077288 0.09526962
v -0.2770688 0.2077288 0.1273176
v -0.2770688 0.1430502 0.1273176
v -0.1931615 0.2077288 0.1273176
v 0.298046 0.1984057 0.1721847
v 0.2910537 0.2077288 0.1564521
v 0.2910537 0.2077288 0.05564672
v 0.298046 0.1984057 0.06496978
v -0.2910534 0.2077288 0.1564521
v -0.2980457 0.1984057 0.1721847
v -0.2980457 0.1984057 0.09060812
v -0.2910534 0.2077288 0.08827737
v -0.2980457 0.0002911985 0.1721847
v 0.298046 0.0002911985 0.1721847
v 0.298046 0.0002911985 -0.2048156
v -0.2980457 0.0002911985 -0.2048156
v 0.298046 0.1984057 -0.2048156
v 0.2910537 0.2077288 -0.1896657
v -0.2910534 0.2077288 -0.1896657
v -0.2980457 0.1984057 -0.2048156
v -0.05098522 0.2077288 0.1564521
v 0.0509855 0.2077288 0.1564521
v 0.0445759 0.2036499 0.1885
v -0.04457563 0.2036499 0.1885
v -0.2980457 0.1984057 0.1721847
v -0.2980457 0.1558694 0.1721847
v -0.2980457 0.1587828 0.1022619
v -0.2980457 0.1984057 0.09060812
v -0.04457563 0.2036499 0.1885
v 0.0445759 0.2036499 0.1885
v 0.0445759 0.1459636 0.1885
v -0.04457563 0.1459636 0.1885
v 0.298046 0.1599482 0.1721847
v 0.298046 0.1984057 0.1721847
v 0.298046 0.1984057 0.06496978
v 0.298046 0.1611136 0.1016792
v 0.298046 0.0002911985 -0.2048156
v 0.298046 0.1984057 -0.2048156
v -0.2980457 0.1984057 -0.2048156
v -0.2980457 0.0002911985 -0.2048156
v -0.2980457 0.1984057 0.1721847
v -0.2910534 0.2077288 0.1564521
v -0.1937442 0.2077288 0.1564521
v -0.2176345 0.1984057 0.1721847
v 0.1069237 0.2077288 0.1564521
v 0.2910537 0.2077288 0.1564521
v 0.298046 0.1984057 0.1721847
v 0.1098372 0.1984057 0.1721847
v 0.2671634 0.09177351 0.1721847
v 0.281148 0.1482944 0.1721847
v 0.298046 0.1599482 0.1721847
v 0.298046 0.0002911985 0.1721847
v 0.2135559 0.08769467 0.1721847
v -0.2980457 0.0002911985 0.1721847
v 0.05215088 0.1372233 0.1721847
v 0.1750984 0.1389714 0.1721847
v 0.1261525 0.1436329 0.1721847
v 0.1098372 0.1984057 0.1721847
v 0.05215088 0.1984057 0.1721847
v -0.05215058 0.1372233 0.1721847
v -0.2252094 0.1756808 0.1721847
v -0.2176345 0.1984057 0.1721847
v -0.05215058 0.1984057 0.1721847
v -0.2625016 0.1570348 0.1721847
v -0.256092 0.1762635 0.1721847
v -0.2980457 0.1558694 0.1721847
v 0.1098372 0.1984057 0.1721847
v 0.1750984 0.1389714 0.1721847
v 0.1261525 0.1436329 0.1721847
v 0.298046 0.1984057 0.1721847
v 0.281148 0.1482944 0.1721847
v 0.298046 0.1599482 0.1721847
v 0.2135559 0.08769467 0.1721847
v 0.2671634 0.09177351 0.1721847
v -0.05215058 0.1984057 0.1721847
v -0.04457563 0.2036499 0.1885
v -0.04457563 0.1459636 0.1885
v -0.05215058 0.1372233 0.1721847
v -0.05215058 0.1372233 0.1721847
v -0.04457563 0.1459636 0.1885
v 0.0445759 0.1459636 0.1885
v 0.05215088 0.1372233 0.1721847
v 0.05215088 0.1372233 0.1721847
v 0.0445759 0.1459636 0.1885
v 0.0445759 0.2036499 0.1885
v 0.05215088 0.1984057 0.1721847
v 0.2770691 0.02185073 0.1273176
v -0.2770688 0.02185073 0.1273176
v -0.2770688 0.02185073 -0.1599485
v 0.2770691 0.02185073 -0.1599485
v 0.1150814 0.2077288 0.1465463
v 0.2910537 0.2077288 0.1564521
v 0.1069237 0.2077288 0.1564521
v 0.2770691 0.2077288 0.1273176
v 0.130814 0.2077288 0.1273176
v 0.2770691 0.2077288 0.05331597
v 0.2910537 0.2077288 0.05564672
v -0.2770688 0.2077288 0.09526962
v -0.2910534 0.2077288 0.1564521
v -0.2910534 0.2077288 0.08827737
v -0.2770688 0.2077288 0.1273176
v -0.1931615 0.2077288 0.1273176
v -0.1937442 0.2077288 0.1564521
v 0.2770691 0.2077288 -0.1599485
v 0.2770691 0.02185073 -0.1599485
v -0.2770688 0.02185073 -0.1599485
v -0.2770688 0.2077288 -0.1599485
v -0.1937442 0.2077288 0.1564521
v -0.05098522 0.2077288 0.1564521
v -0.05215058 0.1984057 0.1721847
v -0.2176345 0.1984057 0.1721847
v -0.1931615 0.2077288 0.1273176
v -0.05098522 0.2077288 0.1564521
v -0.1937442 0.2077288 0.1564521
v 0.1150814 0.2077288 0.1465463
v 0.130814 0.2077288 0.1273176
v 0.0509855 0.2077288 0.1564521
v 0.1069237 0.2077288 0.1564521
v 0.2770691 0.1727674 0.1273176
v 0.2770691 0.2077288 0.1273176
v 0.130814 0.2077288 0.1273176
v 0.1867522 0.1704366 0.1273176
v -0.2770688 0.2077288 -0.1599485
v -0.2770688 0.02185073 -0.1599485
v -0.2770688 0.02185073 0.1273176
v -0.2770688 0.1430502 0.1273176
v -0.2770688 0.2077288 0.09526962
v -0.2910534 0.2077288 -0.1896657
v -0.2770688 0.2077288 0.09526962
v -0.2910534 0.2077288 0.08827737
v -0.2770688 0.2077288 -0.1599485
v 0.2910537 0.2077288 -0.1896657
v 0.2770691 0.2077288 -0.1599485
v 0.2770691 0.2077288 0.05331597
v 0.2910537 0.2077288 0.05564672
v -0.2980457 0.1984057 0.09060812
v -0.2980457 0.1984057 -0.2048156
v -0.2910534 0.2077288 -0.1896657
v -0.2910534 0.2077288 0.08827737
v -0.2980457 0.1558694 0.1721847
v -0.2980457 0.0002911985 0.1721847
v -0.2980457 0.0002911985 -0.2048156
v -0.2980457 0.1587828 0.1022619
v -0.2980457 0.1984057 0.09060812
v -0.2980457 0.1984057 -0.2048156
v -0.2980457 0.1558694 0.1721847
v -0.256092 0.1762635 0.1721847
v -0.2625016 0.1570348 0.1721847
v -0.2980457 0.1984057 0.1721847
v -0.2252094 0.1756808 0.1721847
v -0.2176345 0.1984057 0.1721847
v 0.298046 0.1611136 0.1016792
v 0.298046 0.1984057 0.06496978
v 0.298046 0.1984057 -0.2048156
v 0.298046 0.0002911985 -0.2048156
v 0.298046 0.0002911985 0.1721847
v 0.298046 0.1599482 0.1721847
v 0.2910537 0.2077288 0.05564672
v 0.2910537 0.2077288 -0.1896657
v 0.298046 0.1984057 -0.2048156
v 0.298046 0.1984057 0.06496978
v 0.2770691 0.1727674 0.1273176
v 0.2770691 0.02185073 0.1273176
v 0.2770691 0.02185073 -0.1599485
v 0.2770691 0.2077288 -0.1599485
v 0.2770691 0.2077288 0.05331597
v 0.2770691 0.02185073 0.1273176
v 0.2770691 0.1727674 0.1273176
v 0.1867522 0.1704366 0.1273176
v -0.2770688 0.02185073 0.1273176
v 0.130814 0.2077288 0.1273176
v -0.1931615 0.2077288 0.1273176
v -0.2770688 0.1430502 0.1273176
v 0.0509855 0.2077288 0.1564521
v 0.1069237 0.2077288 0.1564521
v 0.1098372 0.1984057 0.1721847
v 0.05215088 0.1984057 0.1721847
vt 0.09995738 0.2532037
vt 0.09995738 0.2532037
vt 0.09995738 0.2532037
vt 0.09995738 0.2532037
vt 0.09995738 0.2532037
vt 0.09995738 0.2532037
vt 0.9695414 0.07501029
vt 0.9695414 0.07501029
vt 0.9695414 0.07501029
vt 0.9659775 0.07501029
vt 0.9659775 0.1035212
vt 0.9695414 0.09995738
vt 0.9659775 0.1035212
vt 0.9659775 0.07501029
vt 0.9410304 0.07857417
vt 0.9731053 0.0857019
vt 0.9731053 0.08926577
vt 0.9766691 0.09282964
vt 0.980233 0.09282964
vt 0.951722 0.08926577
vt 0.951722 0.08213803
vt 0.9410304 0.09282964
vt 0.9445943 0.09639351
vt 0.1142129 0.2033096
vt 0.1142129 0.2033096
vt 0.1142129 0.2033096
vt 0.1142129 0.2033096
vt 0.1142129 0.2033096
vt 0.1142129 0.2033096
vt 0.1142129 0.2033096
vt 0.1142129 0.2033096
vt 0.09995738 0.2532037
vt 0.09995738 0.2532037
vt 0.09995738 0.2532037
vt 0.09995738 0.2532037
vt 0.951722 0.08213803
vt 0.951722 0.07501029
vt 0.9445943 0.08213803
vt 0.9410304 0.09282964
vt 0.09995738 0.2532037
vt 0.09995738 0.2532037
vt 0.09995738 0.2532037
vt 0.09995738 0.2532037
vt 0.9766691 0.07857417
vt 0.9731053 0.0857019
vt 0.980233 0.09282964
vt 0.980233 0.0857019
vt 0.1142129 0.2033096
vt 0.1142129 0.2033096
vt 0.1142129 0.2033096
vt 0.1142129 0.2033096
vt 0.951722 0.08213803
vt 0.951722 0.08926577
vt 0.9766691 0.1070851
vt 0.9731053 0.09639351
vt 0.9303389 0.09282964
vt 0.9731053 0.08926577
vt 0.9731053 0.0857019
vt 0.9303389 0.08926577
vt 0.1142129 0.2033096
vt 0.1142129 0.2033096
vt 0.1142129 0.2033096
vt 0.1142129 0.2033096
vt 0.1142129 0.2033096
vt 0.1142129 0.2033096
vt 0.1142129 0.2033096
vt 0.1142129 0.2033096
vt 0.1142129 0.2033096
vt 0.1142129 0.2033096
vt 0.1142129 0.2033096
vt 0.1142129 0.2033096
vt 0.1142129 0.2033096
vt 0.1142129 0.2033096
vt 0.1142129 0.2033096
vt 0.1142129 0.2033096
vt 0.1142129 0.2033096
vt 0.1142129 0.2033096
vt 0.9303389 0.08926577
vt 0.9481582 0.07857417
vt 0.9374666 0.08213803
vt 0.9731053 0.0857019
vt 0.9731053 0.07857417
vt 0.9766691 0.07857417
vt 0.9624137 0.07144643
vt 0.9731053 0.07144643
vt 0.09995738 0.2532037
vt 0.09995738 0.2532037
vt 0.09995738 0.2532037
vt 0.09995738 0.2532037
vt 0.09995738 0.2532037
vt 0.09995738 0.2532037
vt 0.09995738 0.2532037
vt 0.09995738 0.2532037
vt 0.09995738 0.2532037
vt 0.09995738 0.2532037
vt 0.09995738 0.2532037
vt 0.09995738 0.2532037
vt 0.1142129 0.2033096
vt 0.1142129 0.2033096
vt 0.1142129 0.2033096
vt 0.1142129 0.2033096
vt 0.9303389 0.09282964
vt 0.9731053 0.08926577
vt 0.9303389 0.09282964
vt 0.9695414 0.08926577
vt 0.9374666 0.09282964
vt 0.9731053 0.09639351
vt 0.9766691 0.09282964
vt 0.9481582 0.09639351
vt 0.951722 0.08926577
vt 0.9445943 0.09639351
vt 0.951722 0.09282964
vt 0.9731053 0.110649
vt 0.9766691 0.1070851
vt 0.1142129 0.2033096
vt 0.1142129 0.2033096
vt 0.1142129 0.2033096
vt 0.1142129 0.2033096
vt 0.1142129 0.2033096
vt 0.1142129 0.2033096
vt 0.1142129 0.2033096
vt 0.1142129 0.2033096
vt 0.1142129 0.2033096
vt 0.1142129 0.2033096
vt 0.1142129 0.2033096
vt 0.1142129 0.2033096
vt 0.1142129 0.2033096
vt 0.1142129 0.2033096
vt 0.1142129 0.2033096
vt 0.9695414 0.07501029
vt 0.9695414 0.07501029
vt 0.9695414 0.07501029
vt 0.9695414 0.07501029
vt 0.1142129 0.2033096
vt 0.1142129 0.2033096
vt 0.1142129 0.2033096
vt 0.1142129 0.2033096
vt 0.1142129 0.2033096
vt 0.1142129 0.2033096
vt 0.1142129 0.2033096
vt 0.1142129 0.2033096
vt 0.1142129 0.2033096
vt 0.1142129 0.2033096
vt 0.1142129 0.2033096
vt 0.1142129 0.2033096
vt 0.1142129 0.2033096
vt 0.1142129 0.2033096
vt 0.1142129 0.2033096
vt 0.1142129 0.2033096
vt 0.1142129 0.2033096
vt 0.1142129 0.2033096
vt 0.1142129 0.2033096
vt 0.1142129 0.2033096
vt 0.1142129 0.2033096
vt 0.1142129 0.2033096
vt 0.1142129 0.2033096
vt 0.951722 0.07501029
vt 0.9624137 0.0857019
vt 0.9624137 0.08213803
vt 0.951722 0.08213803
vt 0.9695414 0.09282964
vt 0.9731053 0.09639351
vt 0.1142129 0.2033096
vt 0.1142129 0.2033096
vt 0.1142129 0.2033096
vt 0.1142129 0.2033096
vt 0.1142129 0.2033096
vt 0.1142129 0.2033096
vt 0.1142129 0.2033096
vt 0.1142129 0.2033096
vt 0.1142129 0.2033096
vt 0.1142129 0.2033096
vt 0.1142129 0.2033096
vt 0.1142129 0.2033096
vt 0.1142129 0.2033096
vt 0.1142129 0.2033096
vt 0.1142129 0.2033096
vt 0.1142129 0.2033096
vt 0.1142129 0.2033096
vt 0.1142129 0.2033096
vt 0.1142129 0.2033096
vt 0.1142129 0.2033096
vt 0.1142129 0.2033096
vt 0.1142129 0.2033096
vt 0.1142129 0.2033096
vt 0.1142129 0.2033096
vt 0.1142129 0.2033096
vt 0.1142129 0.2033096
vn -0.8411639 0.4920015 0.2244501
vn -0.8411639 0.4920015 0.2244501
vn -0.8411639 0.4920015 0.2244501
vn 0.8411638 0.4920015 0.2244503
vn 0.8411638 0.4920015 0.2244503
vn 0.8411638 0.4920015 0.2244503
vn -0.999874 0.01587105 -0.0003439156
vn -0.999874 0.01587105 -0.0003439156
vn -0.999874 0.01587105 -0.0003439156
vn 0.999874 0.01587105 -0.0003439156
vn 0.999874 0.01587105 -0.0003439156
vn 0.999874 0.01587105 -0.0003439156
vn -0.01587105 0.01587105 -0.9997481
vn -0.01587105 0.01587105 -0.9997481
vn -0.01587105 0.01587105 -0.9997481
vn 0.8094218 0.5872276 -0.000422864
vn 0.8094218 0.5872276 -0.000422864
vn 0.8094218 0.5872276 -0.000422864
vn 0.8094218 0.5872276 -0.000422864
vn -0.8094218 0.5872276 -0.000422864
vn -0.8094218 0.5872276 -0.000422864
vn -0.8094218 0.5872276 -0.000422864
vn -0.8094218 0.5872276 -0.000422864
vn -0.01587105 -0.999874 -0.000345267
vn -0.01587105 -0.999874 -0.000345267
vn -0.01587105 -0.999874 -0.000345267
vn -0.01587105 -0.999874 -0.000345267
vn -0.01587105 0.8411639 -0.5405474
vn -0.01587105 0.8411639 -0.5405474
vn -0.01587105 0.8411639 -0.5405474
vn -0.01587105 0.8411639 -0.5405474
vn -0.01587105 0.999874 -0.000345267
vn -0.01587105 0.999874 -0.000345267
vn -0.01587105 0.999874 -0.000345267
vn -0.01587105 0.999874 -0.000345267
vn -0.999874 0.01587105 -0.0003439156
vn -0.999874 0.01587105 -0.0003439156
vn -0.999874 0.01587105 -0.0003439156
vn -0.999874 0.01587105 -0.0003439156
vn -0.01587105 0.01587105 0.9997481
vn -0.01587105 0.01587105 0.9997481
vn -0.01587105 0.01587105 0.9997481
vn -0.01587105 0.01587105 0.9997481
vn 0.999874 0.01587105 -0.0003439156
vn 0.999874 0.01587105 -0.0003439156
vn 0.999874 0.01587105 -0.0003439156
vn 0.999874 0.01587105 -0.0003439156
vn -0.01587105 0.01587105 -0.9997481
vn -0.01587105 0.01587105 -0.9997481
vn -0.01587105 0.01587105 -0.9997481
vn -0.01587105 0.01587105 -0.9997481
vn -0.01587105 0.8411639 0.5405474
vn -0.01587105 0.8411639 0.5405474
vn -0.01587105 0.8411639 0.5405474
vn -0.01587105 0.8411639 0.5405474
vn -0.01587105 0.8411639 0.5405474
vn -0.01587105 0.8411639 0.5405474
vn -0.01587105 0.8411639 0.5405474
vn -0.01587105 0.8411639 0.5405474
vn -0.01587105 0.01587105 0.9997481
vn -0.01587105 0.01587105 0.9997481
vn -0.01587105 0.01587105 0.9997481
vn -0.01587105 0.01587105 0.9997481
vn -0.01587105 0.01587105 0.9997481
vn -0.01587105 0.01587105 0.9997481
vn -0.01587105 0.01587105 0.9997481
vn -0.01587105 0.01587105 0.9997481
vn -0.01587105 0.01587105 0.9997481
vn -0.01587105 0.01587105 0.9997481
vn -0.01587105 0.01587105 0.9997481
vn -0.01587105 0.01587105 0.9997481
vn -0.01587105 0.01587105 0.9997481
vn -0.01587105 0.01587105 0.9997481
vn -0.01587105 0.01587105 0.9997481
vn -0.01587105 0.01587105 0.9997481
vn -0.01587105 0.01587105 0.9997481
vn -0.01587105 0.01587105 0.9997481
vn -0.01587105 0.01587105 0.9997481
vn -0.01587105 0.01587105 0.9997481
vn -0.01587105 0.01587105 0.9997481
vn -0.01587105 0.01587105 0.9997481
vn -0.01587105 0.01587105 0.9997481
vn -0.01587105 0.01587105 0.9997481
vn -0.01587105 0.01587105 0.9997481
vn -0.01587105 0.01587105 0.9997481
vn -0.9046479 0.01587105 0.425864
vn -0.9046479 0.01587105 0.425864
vn -0.9046479 0.01587105 0.425864
vn -0.9046479 0.01587105 0.425864
vn -0.01587105 -0.8729059 0.4876305
vn -0.01587105 -0.8729059 0.4876305
vn -0.01587105 -0.8729059 0.4876305
vn -0.01587105 -0.8729059 0.4876305
vn 0.9046479 0.01587105 0.4258642
vn 0.9046479 0.01587105 0.4258642
vn 0.9046479 0.01587105 0.4258642
vn 0.9046479 0.01587105 0.4258642
vn -0.01587105 0.999874 -0.000345267
vn -0.01587105 0.999874 -0.000345267
vn -0.01587105 0.999874 -0.000345267
vn -0.01587105 0.999874 -0.000345267
vn -0.01587105 0.999874 -0.000345267
vn -0.01587105 0.999874 -0.000345267
vn -0.01587105 0.999874 -0.000345267
vn -0.01587105 0.999874 -0.000345267
vn -0.01587105 0.999874 -0.000345267
vn -0.01587105 0.999874 -0.000345267
vn -0.01587105 0.999874 -0.000345267
vn -0.01587105 0.999874 -0.000345267
vn -0.01587105 0.999874 -0.000345267
vn -0.01587105 0.999874 -0.000345267
vn -0.01587105 0.999874 -0.000345267
vn -0.01587105 0.999874 -0.000345267
vn -0.01587105 0.999874 -0.000345267
vn -0.01587105 0.01587105 0.9997481
vn -0.01587105 0.01587105 0.9997481
vn -0.01587105 0.01587105 0.9997481
vn -0.01587105 0.01587105 0.9997481
vn -0.01587105 0.8411639 0.5405474
vn -0.01587105 0.8411639 0.5405474
vn -0.01587105 0.8411639 0.5405474
vn -0.01587105 0.8411639 0.5405474
vn -0.01587105 0.999874 -0.000345267
vn -0.01587105 0.999874 -0.000345267
vn -0.01587105 0.999874 -0.000345267
vn -0.01587105 0.999874 -0.000345267
vn -0.01587105 0.999874 -0.000345267
vn -0.01587105 0.999874 -0.000345267
vn -0.01587105 0.999874 -0.000345267
vn -0.01587105 0.01587105 -0.9997481
vn -0.01587105 0.01587105 -0.9997481
vn -0.01587105 0.01587105 -0.9997481
vn -0.01587105 0.01587105 -0.9997481
vn 0.999874 0.01587105 -0.0003439156
vn 0.999874 0.01587105 -0.0003439156
vn 0.999874 0.01587105 -0.0003439156
vn 0.999874 0.01587105 -0.0003439156
vn 0.999874 0.01587105 -0.0003439156
vn -0.01587105 0.999874 -0.000345267
vn -0.01587105 0.999874 -0.000345267
vn -0.01587105 0.999874 -0.000345267
vn -0.01587105 0.999874 -0.000345267
vn -0.01587105 0.999874 -0.000345267
vn -0.01587105 0.999874 -0.000345267
vn -0.01587105 0.999874 -0.000345267
vn -0.01587105 0.999874 -0.000345267
vn -0.8094218 0.5872276 -0.000422864
vn -0.8094218 0.5872276 -0.000422864
vn -0.8094218 0.5872276 -0.000422864
vn -0.8094218 0.5872276 -0.000422864
vn -0.999874 0.01587105 -0.0003439156
vn -0.999874 0.01587105 -0.0003439156
vn -0.999874 0.01587105 -0.0003439156
vn -0.999874 0.01587105 -0.0003439156
vn -0.999874 0.01587105 -0.0003439156
vn -0.999874 0.01587105 -0.0003439156
vn -0.01587105 0.01587105 0.9997481
vn -0.01587105 0.01587105 0.9997481
vn -0.01587105 0.01587105 0.9997481
vn -0.01587105 0.01587105 0.9997481
vn -0.01587105 0.01587105 0.9997481
vn -0.01587105 0.01587105 0.9997481
vn 0.999874 0.01587105 -0.0003439156
vn 0.999874 0.01587105 -0.0003439156
vn 0.999874 0.01587105 -0.0003439156
vn 0.999874 0.01587105 -0.0003439156
vn 0.999874 0.01587105 -0.0003439156
vn 0.999874 0.01587105 -0.0003439156
vn 0.8094218 0.5872276 -0.000422864
vn 0.8094218 0.5872276 -0.000422864
vn 0.8094218 0.5872276 -0.000422864
vn 0.8094218 0.5872276 -0.000422864
vn -0.999874 0.01587105 -0.0003439156
vn -0.999874 0.01587105 -0.0003439156
vn -0.999874 0.01587105 -0.0003439156
vn -0.999874 0.01587105 -0.0003439156
vn -0.999874 0.01587105 -0.0003439156
vn -0.01587105 0.01587105 -0.9997481
vn -0.01587105 0.01587105 -0.9997481
vn -0.01587105 0.01587105 -0.9997481
vn -0.01587105 0.01587105 -0.9997481
vn -0.01587105 0.01587105 -0.9997481
vn -0.01587105 0.01587105 -0.9997481
vn -0.01587105 0.01587105 -0.9997481
vn -0.01587105 0.8411639 0.5405474
vn -0.01587105 0.8411639 0.5405474
vn -0.01587105 0.8411639 0.5405474
vn -0.01587105 0.8411639 0.5405474
g SM_Prop_ToolBox_01_0
f 3/3/3 2/2/2 1/1/1
f 6/6/6 5/5/5 4/4/4
f 9/9/9 8/8/8 7/7/7
f 12/12/12 11/11/11 10/10/10
f 15/15/15 14/14/14 13/13/13
f 18/18/18 17/17/17 16/16/16
f 19/19/19 18/18/18 16/16/16
f 22/22/22 21/21/21 20/20/20
f 23/23/23 22/22/22 20/20/20
f 26/26/26 25/25/25 24/24/24
f 27/27/27 26/26/26 24/24/24
f 30/30/30 29/29/29 28/28/28
f 31/31/31 30/30/30 28/28/28
f 34/34/34 33/33/33 32/32/32
f 35/35/35 34/34/34 32/32/32
f 38/38/38 37/37/37 36/36/36
f 39/39/39 38/38/38 36/36/36
f 42/42/42 41/41/41 40/40/40
f 43/43/43 42/42/42 40/40/40
f 46/46/46 45/45/45 44/44/44
f 47/47/47 46/46/46 44/44/44
f 50/50/50 49/49/49 48/48/48
f 51/51/51 50/50/50 48/48/48
f 54/54/54 53/53/53 52/52/52
f 55/55/55 54/54/54 52/52/52
f 58/58/58 57/57/57 56/56/56
f 59/59/59 58/58/58 56/56/56
f 62/62/62 61/61/61 60/60/60
f 63/63/63 62/62/62 60/60/60
f 63/63/63 60/60/60 64/64/64
f 65/65/65 63/63/63 64/64/64
f 65/65/65 64/64/64 66/66/66
f 64/64/64 67/67/67 66/66/66
f 67/67/67 68/68/68 66/66/66
f 68/68/68 69/69/69 66/66/66
f 69/69/69 70/70/70 66/66/66
f 71/71/71 65/65/65 66/66/66
f 65/65/65 71/71/71 72/72/72
f 73/73/73 72/72/72 71/71/71
f 74/74/74 73/73/73 71/71/71
f 75/75/75 65/65/65 72/72/72
f 76/76/76 75/75/75 72/72/72
f 75/75/75 77/77/77 65/65/65
f 80/80/80 79/79/79 78/78/78
f 79/79/79 81/81/81 78/78/78
f 79/79/79 82/82/82 81/81/81
f 82/82/82 83/83/83 81/81/81
f 79/79/79 84/84/84 82/82/82
f 84/84/84 85/85/85 82/82/82
f 88/88/88 87/87/87 86/86/86
f 89/89/89 88/88/88 86/86/86
f 92/92/92 91/91/91 90/90/90
f 93/93/93 92/92/92 90/90/90
f 96/96/96 95/95/95 94/94/94
f 97/97/97 96/96/96 94/94/94
f 100/100/100 99/99/99 98/98/98
f 101/101/101 100/100/100 98/98/98
f 104/104/104 103/103/103 102/102/102
f 103/103/103 105/105/105 102/102/102
f 102/102/102 105/105/105 106/106/106
f 107/107/107 105/105/105 103/103/103
f 108/108/108 107/107/107 103/103/103
f 111/111/111 110/110/110 109/109/109
f 110/110/110 112/112/112 109/109/109
f 113/113/113 112/112/112 110/110/110
f 114/114/114 113/113/113 110/110/110
f 117/117/117 116/116/116 115/115/115
f 118/118/118 117/117/117 115/115/115
f 121/121/121 120/120/120 119/119/119
f 122/122/122 121/121/121 119/119/119
f 125/125/125 124/124/124 123/123/123
f 123/123/123 124/124/124 126/126/126
f 126/126/126 127/127/127 123/123/123
f 124/124/124 128/128/128 126/126/126
f 129/129/129 126/126/126 128/128/128
f 132/132/132 131/131/131 130/130/130
f 133/133/133 132/132/132 130/130/130
f 136/136/136 135/135/135 134/134/134
f 134/134/134 137/137/137 136/136/136
f 134/134/134 138/138/138 137/137/137
f 141/141/141 140/140/140 139/139/139
f 140/140/140 142/142/142 139/139/139
f 139/139/139 142/142/142 143/143/143
f 142/142/142 144/144/144 143/143/143
f 143/143/143 144/144/144 145/145/145
f 146/146/146 143/143/143 145/145/145
f 149/149/149 148/148/148 147/147/147
f 150/150/150 149/149/149 147/147/147
f 153/153/153 152/152/152 151/151/151
f 154/154/154 153/153/153 151/151/151
f 154/154/154 155/155/155 153/153/153
f 155/155/155 156/156/156 153/153/153
f 159/159/159 158/158/158 157/157/157
f 158/158/158 160/160/160 157/157/157
f 158/158/158 161/161/161 160/160/160
f 161/161/161 162/162/162 160/160/160
f 165/165/165 164/164/164 163/163/163
f 166/166/166 165/165/165 163/163/163
f 166/166/166 163/163/163 167/167/167
f 163/163/163 168/168/168 167/167/167
f 171/171/171 170/170/170 169/169/169
f 172/172/172 171/171/171 169/169/169
f 175/175/175 174/174/174 173/173/173
f 173/173/173 176/176/176 175/175/175
f 173/173/173 177/177/177 176/176/176
f 180/180/180 179/179/179 178/178/178
f 180/180/180 178/178/178 181/181/181
f 182/182/182 180/180/180 181/181/181
f 181/181/181 183/183/183 182/182/182
f 181/181/181 184/184/184 183/183/183
f 187/187/187 186/186/186 185/185/185
f 188/188/188 187/187/187 185/185/185
