g SM_Prop_Crate_Open_Lid_01
v -0.3534653 0.05546933 0.4125786
v -0.4036711 0.0004048645 0.4141982
v -0.4052907 0.05546933 0.2813956
v 0.4036712 0.02712733 -0.4141982
v 0.3704706 0.05546933 -0.3826171
v 0.3064986 0.05546933 -0.4125787
v 0.3704706 0.05546933 -0.3826171
v 0.4036712 0.02712733 -0.4141982
v 0.4069103 0.05546933 -0.1745058
v 0.2911129 0.02631757 -0.304879
v 0.2984009 0.02631757 0.2975911
v -0.2911129 0.02631757 0.304879
v -0.2984008 0.02631757 -0.2975911
v -0.4141982 0.05546933 -0.4036712
v 0.3064986 0.05546933 -0.4125787
v 0.3704706 0.05546933 -0.3826171
v -0.3129767 0.05546933 -0.312167
v 0.3056888 0.05546933 -0.3202647
v 0.4069103 0.05546933 -0.1745058
v -0.3056888 0.05546933 0.3202647
v -0.4052907 0.05546933 0.2813956
v -0.3534653 0.05546933 0.4125786
v 0.3129768 0.05546933 0.312167
v 0.4141982 0.05546933 0.4036711
v 0.3056888 0.05546933 -0.3202647
v 0.2911129 0.02631757 -0.304879
v -0.2984008 0.02631757 -0.2975911
v -0.3129767 0.05546933 -0.312167
v -0.3129767 0.05546933 -0.312167
v -0.2984008 0.02631757 -0.2975911
v -0.2911129 0.02631757 0.304879
v -0.3056888 0.05546933 0.3202647
v -0.3056888 0.05546933 0.3202647
v -0.2911129 0.02631757 0.304879
v 0.2984009 0.02631757 0.2975911
v 0.3129768 0.05546933 0.312167
v 0.3129768 0.05546933 0.312167
v 0.2984009 0.02631757 0.2975911
v 0.2911129 0.02631757 -0.304879
v 0.3056888 0.05546933 -0.3202647
v -0.4141982 0.0004048645 -0.4036712
v -0.4141982 0.05546933 -0.4036712
v -0.4052907 0.05546933 0.2813956
v -0.4036711 0.0004048645 0.4141982
v -0.4141982 0.0004048645 -0.4036712
v 0.4036712 0.0004048645 -0.4141982
v 0.4036712 0.02712733 -0.4141982
v 0.3064986 0.05546933 -0.4125787
v -0.4141982 0.05546933 -0.4036712
v 0.4036712 0.02712733 -0.4141982
v 0.4036712 0.0004048645 -0.4141982
v 0.4141982 0.0004048645 0.4036711
v 0.4141982 0.05546933 0.4036711
v 0.4069103 0.05546933 -0.1745058
v 0.4141982 0.05546933 0.4036711
v 0.4141982 0.0004048645 0.4036711
v -0.4036711 0.0004048645 0.4141982
v -0.3534653 0.05546933 0.4125786
v 0.3793781 0.04251301 -0.2959716
v -0.2854445 0.04251301 0.3850464
v -0.3591337 0.04251301 0.3129767
v 0.3056888 0.04251301 -0.3680412
v 0.3056888 0.04251301 -0.3680412
v -0.3591337 0.04251301 0.3129767
v -0.3591337 0.006883055 0.3129767
v 0.3056888 0.006883055 -0.3680412
v 0.3793781 0.006883055 -0.2959716
v -0.2854445 0.006883055 0.3850464
v -0.2854445 0.04251301 0.3850464
v 0.3793781 0.04251301 -0.2959716
v -0.294352 0.0004048645 0.3016399
v -0.2862543 0.01660031 0.2935422
v -0.2935422 0.01660031 -0.2862543
v -0.3016399 0.0004048645 -0.294352
v -0.3016399 0.0004048645 -0.294352
v -0.2935422 0.01660031 -0.2862543
v 0.2862543 0.01660031 -0.2935422
v 0.294352 0.0004048645 -0.30164
v 0.294352 0.0004048645 -0.30164
v 0.2862543 0.01660031 -0.2935422
v 0.2935422 0.01660031 0.2862543
v 0.30164 0.0004048645 0.294352
v 0.30164 0.0004048645 0.294352
v 0.2935422 0.01660031 0.2862543
v -0.2862543 0.01660031 0.2935422
v -0.294352 0.0004048645 0.3016399
v 0.2935422 0.01660031 0.2862543
v 0.2862543 0.01660031 -0.2935422
v -0.2935422 0.01660031 -0.2862543
v -0.2862543 0.01660031 0.2935422
v -0.3591337 0.006883055 0.3129767
v -0.2854445 0.006883055 0.3850464
v 0.3793781 0.006883055 -0.2959716
v 0.3056888 0.006883055 -0.3680412
v 0.4036712 0.0004048645 -0.4141982
v 0.30164 0.0004048645 0.294352
v 0.4141982 0.0004048645 0.4036711
v 0.294352 0.0004048645 -0.30164
v -0.294352 0.0004048645 0.3016399
v -0.4141982 0.0004048645 -0.4036712
v -0.4036711 0.0004048645 0.4141982
v -0.3016399 0.0004048645 -0.294352
vt 0.04875625 0.3012569
vt 0.04875625 0.3012569
vt 0.04875625 0.3012569
vt 0.04875625 0.3012569
vt 0.04875625 0.3012569
vt 0.04875625 0.3012569
vt 0.04875625 0.3012569
vt 0.04875625 0.3012569
vt 0.04875625 0.3012569
vt 0.04875625 0.2779335
vt 0.04875625 0.2779335
vt 0.04875625 0.2779335
vt 0.04875625 0.2779335
vt 0.04875625 0.3012569
vt 0.04875625 0.3012569
vt 0.04875625 0.3012569
vt 0.04875625 0.3012569
vt 0.04875625 0.3012569
vt 0.04875625 0.3012569
vt 0.04875625 0.3012569
vt 0.04875625 0.3012569
vt 0.04875625 0.3012569
vt 0.04875625 0.3012569
vt 0.04875625 0.3012569
vt 0.04875625 0.3012569
vt 0.04875625 0.3012569
vt 0.04875625 0.3012569
vt 0.04875625 0.3012569
vt 0.04875625 0.3012569
vt 0.04875625 0.3012569
vt 0.04875625 0.3012569
vt 0.04875625 0.3012569
vt 0.04875625 0.3012569
vt 0.04875625 0.3012569
vt 0.04875625 0.3012569
vt 0.04875625 0.3012569
vt 0.04875625 0.3012569
vt 0.04875625 0.3012569
vt 0.04875625 0.3012569
vt 0.04875625 0.3012569
vt 0.04875625 0.3012569
vt 0.04875625 0.3012569
vt 0.04875625 0.3012569
vt 0.04875625 0.3012569
vt 0.04875625 0.3012569
vt 0.04875625 0.3012569
vt 0.04875625 0.3012569
vt 0.04875625 0.3012569
vt 0.04875625 0.3012569
vt 0.04875625 0.3012569
vt 0.04875625 0.3012569
vt 0.04875625 0.3012569
vt 0.04875625 0.3012569
vt 0.04875625 0.3012569
vt 0.04875625 0.3012569
vt 0.04875625 0.3012569
vt 0.04875625 0.3012569
vt 0.04875625 0.3012569
vt 0.04875625 0.3012569
vt 0.04875625 0.3012569
vt 0.04875625 0.3012569
vt 0.04875625 0.3012569
vt 0.04875625 0.3012569
vt 0.04875625 0.3012569
vt 0.04875625 0.3012569
vt 0.04875625 0.3012569
vt 0.04875625 0.3012569
vt 0.04875625 0.3012569
vt 0.04875625 0.3012569
vt 0.04875625 0.3012569
vt 0.04672813 0.3053131
vt 0.04672813 0.3053131
vt 0.04672813 0.3053131
vt 0.04672813 0.3053131
vt 0.04672813 0.3053131
vt 0.04672813 0.3053131
vt 0.04672813 0.3053131
vt 0.04672813 0.3053131
vt 0.04672813 0.3053131
vt 0.04672813 0.3053131
vt 0.04672813 0.3053131
vt 0.04672813 0.3053131
vt 0.04672813 0.3053131
vt 0.04672813 0.3053131
vt 0.04672813 0.3053131
vt 0.04672813 0.3053131
vt 0.04875625 0.2769195
vt 0.04875625 0.2769195
vt 0.04875625 0.2769195
vt 0.04875625 0.2769195
vt 0.04875625 0.3012569
vt 0.04875625 0.3012569
vt 0.04875625 0.3012569
vt 0.04875625 0.3012569
vt 0.04672813 0.3053131
vt 0.04672813 0.3053131
vt 0.04672813 0.3053131
vt 0.04672813 0.3053131
vt 0.04672813 0.3053131
vt 0.04672813 0.3053131
vt 0.04672813 0.3053131
vt 0.04672813 0.3053131
vn -0.7141957 0.6507117 0.2578737
vn -0.7141957 0.6507117 0.2578737
vn -0.7141957 0.6507117 0.2578737
vn 0.2380652 0.8411639 -0.4855597
vn 0.2380652 0.8411639 -0.4855597
vn 0.2380652 0.8411639 -0.4855597
vn 0.5872276 0.8094218 -0.000422864
vn 0.5872276 0.8094218 -0.000422864
vn 0.5872276 0.8094218 -0.000422864
vn -0.01587105 0.999874 -0.000345267
vn -0.01587105 0.999874 -0.000345267
vn -0.01587105 0.999874 -0.000345267
vn -0.01587105 0.999874 -0.000345267
vn -0.01587105 0.999874 -0.000345267
vn -0.01587105 0.999874 -0.000345267
vn -0.01587105 0.999874 -0.000345267
vn -0.01587105 0.999874 -0.000345267
vn -0.01587105 0.999874 -0.000345267
vn -0.01587105 0.999874 -0.000345267
vn -0.01587105 0.999874 -0.000345267
vn -0.01587105 0.999874 -0.000345267
vn -0.01587105 0.999874 -0.000345267
vn -0.01587105 0.999874 -0.000345267
vn -0.01587105 0.999874 -0.000345267
vn 0.01587099 0.4602594 0.8876426
vn 0.01587099 0.4602594 0.8876426
vn 0.01587099 0.4602594 0.8876426
vn 0.01587099 0.4602594 0.8876426
vn 0.8729059 0.4602594 -0.1618537
vn 0.8729059 0.4602594 -0.1618537
vn 0.8729059 0.4602594 -0.1618537
vn 0.8729059 0.4602594 -0.1618537
vn -0.01587105 0.4602594 -0.8876426
vn -0.01587105 0.4602594 -0.8876426
vn -0.01587105 0.4602594 -0.8876426
vn -0.01587105 0.4602594 -0.8876426
vn -0.8729059 0.4602594 0.1618537
vn -0.8729059 0.4602594 0.1618537
vn -0.8729059 0.4602594 0.1618537
vn -0.8729059 0.4602594 0.1618537
vn -0.999874 -0.01587099 -0.000346655
vn -0.999874 -0.01587099 -0.000346655
vn -0.999874 -0.01587099 -0.000346655
vn -0.999874 -0.01587099 -0.000346655
vn -0.01587105 0.01587105 -0.9997481
vn -0.01587105 0.01587105 -0.9997481
vn -0.01587105 0.01587105 -0.9997481
vn -0.01587105 0.01587105 -0.9997481
vn -0.01587105 0.01587105 -0.9997481
vn 0.999874 -0.01587099 -0.000346655
vn 0.999874 0.01587105 -0.0003439156
vn 0.999874 0.01587105 -0.0003439156
vn 0.999874 -0.01587099 -0.000346655
vn 0.999874 -0.01587099 -0.000346655
vn 0.01587099 0.01587105 0.9997481
vn 0.01587099 0.01587105 0.9997481
vn 0.01587099 0.01587105 0.9997481
vn 0.01587099 0.01587105 0.9997481
vn -0.01587105 0.999874 -0.000345267
vn -0.01587105 0.999874 -0.000345267
vn -0.01587105 0.999874 -0.000345267
vn -0.01587105 0.999874 -0.000345267
vn -0.7141957 0.01587105 -0.6997661
vn -0.7141957 0.01587105 -0.6997661
vn -0.7141957 0.01587105 -0.6997661
vn -0.7141957 0.01587105 -0.6997661
vn 0.7141957 0.01587105 0.6997661
vn 0.7141957 0.01587105 0.6997661
vn 0.7141957 0.01587105 0.6997661
vn 0.7141957 0.01587105 0.6997661
vn 0.9037378 -0.4280863 0
vn 0.9037378 -0.4280863 0
vn 0.9037378 -0.4280863 0
vn 0.9037378 -0.4280863 0
vn 0.01587099 -0.4285174 0.9033942
vn 0.01587099 -0.4285174 0.9033942
vn 0.01587099 -0.4285174 0.9033942
vn 0.01587099 -0.4285174 0.9033942
vn -0.9037378 -0.4280863 0
vn -0.9037378 -0.4280863 0
vn -0.9037378 -0.4280863 0
vn -0.9037378 -0.4280863 0
vn -0.01587105 -0.4285174 -0.9033942
vn -0.01587105 -0.4285174 -0.9033942
vn -0.01587105 -0.4285174 -0.9033942
vn -0.01587105 -0.4285174 -0.9033942
vn -0.01587105 -0.999874 -0.000345267
vn -0.01587105 -0.999874 -0.000345267
vn -0.01587105 -0.999874 -0.000345267
vn -0.01587105 -0.999874 -0.000345267
vn -0.01587105 -0.999874 -0.000345267
vn -0.01587105 -0.999874 -0.000345267
vn -0.01587105 -0.999874 -0.000345267
vn -0.01587105 -0.999874 -0.000345267
vn -0.01587105 -0.999874 -0.000345267
vn -0.01587105 -0.999874 -0.000345267
vn -0.01587105 -0.999874 -0.000345267
vn -0.01587105 -0.999874 -0.000345267
vn -0.01587105 -0.999874 -0.000345267
vn -0.01587105 -0.999874 -0.000345267
vn -0.01587105 -0.999874 -0.000345267
vn -0.01587105 -0.999874 -0.000345267
g SM_Prop_Crate_Open_Lid_01_0
f 3/3/3 2/2/2 1/1/1
f 6/6/6 5/5/5 4/4/4
f 9/9/9 8/8/8 7/7/7
f 12/12/12 11/11/11 10/10/10
f 13/13/13 12/12/12 10/10/10
f 16/16/16 15/15/15 14/14/14
f 14/14/14 17/17/17 16/16/16
f 17/17/17 18/18/18 16/16/16
f 19/19/19 16/16/16 18/18/18
f 20/20/20 17/17/17 14/14/14
f 21/21/21 20/20/20 14/14/14
f 21/21/21 22/22/22 20/20/20
f 18/18/18 23/23/23 19/19/19
f 23/23/23 20/20/20 22/22/22
f 23/23/23 24/24/24 19/19/19
f 24/24/24 23/23/23 22/22/22
f 27/27/27 26/26/26 25/25/25
f 28/28/28 27/27/27 25/25/25
f 31/31/31 30/30/30 29/29/29
f 32/32/32 31/31/31 29/29/29
f 35/35/35 34/34/34 33/33/33
f 36/36/36 35/35/35 33/33/33
f 39/39/39 38/38/38 37/37/37
f 40/40/40 39/39/39 37/37/37
f 43/43/43 42/42/42 41/41/41
f 44/44/44 43/43/43 41/41/41
f 47/47/47 46/46/46 45/45/45
f 45/45/45 48/48/48 47/47/47
f 45/45/45 49/49/49 48/48/48
f 52/52/52 51/51/51 50/50/50
f 50/50/50 53/53/53 52/52/52
f 50/50/50 54/54/54 53/53/53
f 57/57/57 56/56/56 55/55/55
f 58/58/58 57/57/57 55/55/55
f 61/61/61 60/60/60 59/59/59
f 62/62/62 61/61/61 59/59/59
f 65/65/65 64/64/64 63/63/63
f 66/66/66 65/65/65 63/63/63
f 69/69/69 68/68/68 67/67/67
f 70/70/70 69/69/69 67/67/67
f 73/73/73 72/72/72 71/71/71
f 74/74/74 73/73/73 71/71/71
f 77/77/77 76/76/76 75/75/75
f 78/78/78 77/77/77 75/75/75
f 81/81/81 80/80/80 79/79/79
f 82/82/82 81/81/81 79/79/79
f 85/85/85 84/84/84 83/83/83
f 86/86/86 85/85/85 83/83/83
f 89/89/89 88/88/88 87/87/87
f 90/90/90 89/89/89 87/87/87
f 93/93/93 92/92/92 91/91/91
f 94/94/94 93/93/93 91/91/91
f 97/97/97 96/96/96 95/95/95
f 96/96/96 98/98/98 95/95/95
f 99/99/99 96/96/96 97/97/97
f 95/95/95 98/98/98 100/100/100
f 101/101/101 99/99/99 97/97/97
f 98/98/98 102/102/102 100/100/100
f 102/102/102 99/99/99 101/101/101
f 100/100/100 102/102/102 101/101/101
