g SM_Prop_Bank_Booth_Pillar_01
v -0.1762703 2.824592 0.1521947
v -0.1349978 2.800516 0.2347397
v -0.1349978 2.766122 0.2175429
v 0.1779857 2.824592 0.1521947
v 0.1332738 2.766122 0.2175429
v 0.1332738 2.797077 0.2347397
v -0.1762703 0.8297522 0.2519366
v -0.1349978 0.9019792 0.3207242
v -0.1349978 0.8331916 0.3447999
v -0.04213458 1.177129 0.06277084
v 0.02665299 1.693036 0.04901332
v 0.04384989 1.177129 0.06277084
v -0.04213458 1.693036 0.04901332
v 0.04384989 2.332761 0.06277084
v -0.02837706 2.325882 0.06277084
v 0.04384989 2.704213 0.06277084
v -0.04213458 2.704213 0.06277084
v 0.04384989 1.177129 0.06277084
v 0.07480431 1.717112 0.01118016
v 0.07480431 1.232159 0.01118016
v 0.02665299 1.693036 0.04901332
v 0.07480431 2.319003 0.01118016
v 0.04384989 2.332761 0.06277084
v -0.07308894 1.232159 0.01118016
v -0.04213458 1.693036 0.04901332
v -0.04213458 1.177129 0.06277084
v -0.07308894 1.717112 0.01118016
v -0.02837706 2.325882 0.06277084
v -0.07308894 2.319003 0.01118016
v -0.04213458 2.704213 0.06277084
v -0.07308894 2.66638 0.01118016
v -0.1762703 0.1797097 -0.4324996
v 0.1779857 0.1797097 -0.4324996
v 0.1779857 1.221841 -0.4324996
v -0.1762703 1.221841 -0.4324996
v -0.1762703 2.442821 -0.4324996
v 0.1779857 2.442821 -0.4324996
v 0.1779857 2.707653 -0.4324996
v -0.1762703 2.707653 -0.4324996
v 0.1779857 2.824592 -0.4324996
v -0.1762703 2.824592 -0.4324996
v 0.1779857 3 -0.4324996
v -0.1762703 3 -0.4324996
v 0.2433338 0.0008620024 0.3516786
v 0.2433338 0.0008620024 -0.5184841
v -0.2450579 0.0008620024 -0.5184841
v -0.2450579 0.0008620024 0.3516786
v 0.1848644 0.0008620024 0.4342237
v -0.1831491 0.0008620024 0.4342237
v 0.1779857 0.1797097 0.2622548
v 0.1779857 0.8297522 0.2519366
v 0.1779857 0.9742061 0.100604
v 0.1779857 0.1797097 -0.4324996
v 0.1779857 1.221841 -0.07136494
v 0.1779857 1.221841 -0.4324996
v 0.1779857 2.442821 -0.4324996
v 0.1779857 1.758384 -0.1023193
v 0.1779857 2.707653 -0.4324996
v 0.1779857 2.707653 -0.07136494
v 0.1779857 2.824592 -0.4324996
v 0.1779857 2.824592 0.1521947
v 0.1779857 3 -0.4324996
v 0.1779857 3 0.1521947
v -0.1762703 0.1797097 0.2622548
v -0.1762703 1.0086 0.1040434
v -0.1762703 0.8297522 0.2519366
v -0.1762703 0.1797097 -0.4324996
v -0.1762703 1.221841 -0.07136494
v -0.1762703 1.221841 -0.4324996
v -0.1762703 2.435942 -0.09544057
v -0.1762703 2.442821 -0.4324996
v -0.1762703 2.707653 -0.07136494
v -0.1762703 2.707653 -0.4324996
v -0.1762703 2.824592 0.1521947
v -0.1762703 2.824592 -0.4324996
v -0.1762703 3 0.1521947
v -0.1762703 3 -0.4324996
v -0.1762703 3 0.1521947
v -0.1762703 3 -0.4324996
v 0.1779857 3 -0.4324996
v 0.1779857 3 0.1521947
v -0.1349978 3 0.2347397
v 0.1332738 3 0.2347397
v -0.1762703 1.221841 -0.07136494
v -0.1143615 2.387791 0.01118016
v -0.1349978 1.259675 0.01118016
v -0.1762703 2.435942 -0.09544057
v -0.1349978 2.649183 0.01118016
v -0.1762703 2.707653 -0.07136494
v -0.1762703 2.707653 -0.07136494
v -0.1762703 2.824592 0.1521947
v -0.1349978 2.766122 0.2175429
v -0.1349978 2.649183 0.01118016
v -0.1349978 0.1797097 0.3447999
v -0.1831491 0.1040434 0.4342237
v -0.2450579 0.1040434 0.3516786
v -0.1762703 0.1797097 0.2622548
v -0.2450579 0.1040434 0.3516786
v -0.2450579 0.1040434 -0.5184841
v -0.1762703 0.1797097 -0.4324996
v -0.1762703 0.1797097 0.2622548
v -0.2450579 0.1040434 -0.5184841
v 0.2433338 0.1040434 -0.5184841
v 0.1779857 0.1797097 -0.4324996
v -0.1762703 0.1797097 -0.4324996
v 0.2433338 0.1040434 -0.5184841
v 0.2433338 0.1040434 0.3516786
v 0.1779857 0.1797097 0.2622548
v 0.1779857 0.1797097 -0.4324996
v -0.1831491 0.1040434 0.4342237
v -0.1831491 0.0008620024 0.4342237
v -0.2450579 0.0008620024 0.3516786
v -0.2450579 0.1040434 0.3516786
v -0.2450579 0.0008620024 0.3516786
v -0.2450579 0.0008620024 -0.5184841
v -0.2450579 0.1040434 -0.5184841
v -0.2450579 0.1040434 0.3516786
v -0.2450579 0.0008620024 -0.5184841
v 0.2433338 0.0008620024 -0.5184841
v 0.2433338 0.1040434 -0.5184841
v -0.2450579 0.1040434 -0.5184841
v 0.2433338 0.0008620024 -0.5184841
v 0.2433338 0.0008620024 0.3516786
v 0.2433338 0.1040434 0.3516786
v 0.2433338 0.1040434 -0.5184841
v 0.1195162 1.723991 0.01118016
v 0.1779857 1.221841 -0.07136494
v 0.1332738 1.259675 0.01118016
v 0.1779857 1.758384 -0.1023193
v 0.1332738 2.649183 0.01118016
v 0.1779857 2.707653 -0.07136494
v 0.1332738 2.766122 0.2175429
v 0.1779857 2.824592 0.1521947
v 0.1779857 2.707653 -0.07136494
v 0.1332738 2.649183 0.01118016
v 0.2433338 0.1040434 0.3516786
v 0.2433338 0.0008620024 0.3516786
v 0.1848644 0.0008620024 0.4342237
v 0.1848644 0.1040434 0.4342237
v 0.1779857 0.1797097 0.2622548
v 0.2433338 0.1040434 0.3516786
v 0.1848644 0.1040434 0.4342237
v 0.1332738 0.1797097 0.3447999
v -0.1143615 2.387791 0.01118016
v 0.1332738 1.259675 0.01118016
v -0.1349978 1.259675 0.01118016
v 0.1195162 1.723991 0.01118016
v -0.1349978 2.649183 0.01118016
v 0.1332738 2.649183 0.01118016
v -0.1349978 2.766122 0.2175429
v 0.1332738 2.766122 0.2175429
v 0.1332738 2.649183 0.01118016
v -0.1349978 2.649183 0.01118016
v 0.1332738 2.797077 0.2347397
v 0.1332738 2.766122 0.2175429
v -0.1349978 2.766122 0.2175429
v -0.1349978 2.800516 0.2347397
v 0.1848644 0.1040434 0.4342237
v 0.1848644 0.0008620024 0.4342237
v -0.1831491 0.0008620024 0.4342237
v -0.1831491 0.1040434 0.4342237
v 0.1332738 0.1797097 0.3447999
v 0.1848644 0.1040434 0.4342237
v -0.1831491 0.1040434 0.4342237
v -0.1349978 0.1797097 0.3447999
v -0.1349978 0.9019792 0.3207242
v 0.1332738 0.9019792 0.3207242
v 0.1126375 0.8022372 0.3447999
v -0.1349978 0.8331916 0.3447999
v 0.1779857 0.8297522 0.2519366
v 0.1126375 0.8022372 0.3447999
v 0.1332738 0.9019792 0.3207242
v 0.1779857 0.1797097 0.2622548
v 0.1332738 0.1797097 0.3447999
v -0.1762703 0.1797097 0.2622548
v -0.1762703 0.8297522 0.2519366
v -0.1349978 0.8331916 0.3447999
v -0.1349978 0.1797097 0.3447999
v -0.1762703 0.8297522 0.2519366
v -0.1762703 1.0086 0.1040434
v -0.1178009 1.053312 0.1453159
v -0.1349978 0.9019792 0.3207242
v 0.1332738 0.9019792 0.3207242
v 0.1779857 0.9742061 0.100604
v 0.1779857 0.8297522 0.2519366
v 0.1332738 1.06363 0.1797097
v 0.1779857 1.221841 -0.07136494
v 0.1332738 1.259675 0.01118016
v -0.1349978 0.9019792 0.3207242
v -0.1178009 1.053312 0.1453159
v 0.1332738 1.06363 0.1797097
v 0.1332738 0.9019792 0.3207242
v -0.1349978 0.8331916 0.3447999
v 0.1126375 0.8022372 0.3447999
v 0.1332738 0.1797097 0.3447999
v -0.1349978 0.1797097 0.3447999
v 0.04384989 2.332761 0.06277084
v 0.04384989 2.704213 0.06277084
v 0.07480431 2.66638 0.01118016
v 0.07480431 2.319003 0.01118016
v -0.1178009 1.053312 0.1453159
v -0.1349978 1.259675 0.01118016
v 0.1332738 1.259675 0.01118016
v 0.1332738 1.06363 0.1797097
v -0.1762703 1.0086 0.1040434
v -0.1762703 1.221841 -0.07136494
v -0.1349978 1.259675 0.01118016
v -0.1178009 1.053312 0.1453159
v 0.1332738 3 0.2347397
v 0.1779857 3 0.1521947
v 0.1779857 2.824592 0.1521947
v 0.1332738 2.797077 0.2347397
v -0.1349978 3 0.2347397
v 0.1332738 3 0.2347397
v 0.1332738 2.797077 0.2347397
v -0.1349978 2.800516 0.2347397
v -0.1762703 2.824592 0.1521947
v -0.1762703 3 0.1521947
v -0.1349978 3 0.2347397
v -0.1349978 2.800516 0.2347397
vt 0.05109066 0.2098779
vt 0.05109066 0.2098779
vt 0.05109066 0.2098779
vt 0.05109066 0.2098779
vt 0.05109066 0.2098779
vt 0.05109066 0.2098779
vt 0.05109066 0.2098779
vt 0.05109066 0.2098779
vt 0.05109066 0.2098779
vt 0.2699596 0.2302628
vt 0.2699596 0.2302628
vt 0.2699596 0.2302628
vt 0.2699596 0.2302628
vt 0.2699596 0.2302628
vt 0.2699596 0.2302628
vt 0.2699596 0.2302628
vt 0.2699596 0.2302628
vt 0.2699596 0.2302628
vt 0.2699596 0.2302628
vt 0.2699596 0.2302628
vt 0.2699596 0.2302628
vt 0.2699596 0.2302628
vt 0.2699596 0.2302628
vt 0.2699596 0.2302628
vt 0.2699596 0.2302628
vt 0.2699596 0.2302628
vt 0.2699596 0.2302628
vt 0.2699596 0.2302628
vt 0.2699596 0.2302628
vt 0.2699596 0.2302628
vt 0.2699596 0.2302628
vt 0.2710325 0.3246768
vt 0.2710325 0.3246768
vt 0.2710325 0.3246768
vt 0.2710325 0.3246768
vt 0.2710325 0.3246768
vt 0.2710325 0.3246768
vt 0.2710325 0.3246768
vt 0.2710325 0.3246768
vt 0.2710325 0.3246768
vt 0.2710325 0.3246768
vt 0.2710325 0.3246768
vt 0.2710325 0.3246768
vt 0.2356272 0.2774698
vt 0.2356272 0.2774698
vt 0.2356272 0.2774698
vt 0.2356272 0.2774698
vt 0.2356272 0.2774698
vt 0.2356272 0.2774698
vt 0.2710325 0.3246768
vt 0.2710325 0.3246768
vt 0.2710325 0.3246768
vt 0.2710325 0.3246768
vt 0.2710325 0.3246768
vt 0.2710325 0.3246768
vt 0.2710325 0.3246768
vt 0.2710325 0.3246768
vt 0.2710325 0.3246768
vt 0.2710325 0.3246768
vt 0.2710325 0.3246768
vt 0.2710325 0.3246768
vt 0.2710325 0.3246768
vt 0.2710325 0.3246768
vt 0.2710325 0.3246768
vt 0.2710325 0.3246768
vt 0.2710325 0.3246768
vt 0.2710325 0.3246768
vt 0.2710325 0.3246768
vt 0.2710325 0.3246768
vt 0.2710325 0.3246768
vt 0.2710325 0.3246768
vt 0.2710325 0.3246768
vt 0.2710325 0.3246768
vt 0.2710325 0.3246768
vt 0.2710325 0.3246768
vt 0.2710325 0.3246768
vt 0.2710325 0.3246768
vt 0.2710325 0.3246768
vt 0.2710325 0.3246768
vt 0.2710325 0.3246768
vt 0.2710325 0.3246768
vt 0.2710325 0.3246768
vt 0.2710325 0.3246768
vt 0.05109066 0.2098779
vt 0.05109066 0.2098779
vt 0.05109066 0.2098779
vt 0.05109066 0.2098779
vt 0.05109066 0.2098779
vt 0.05109066 0.2098779
vt 0.05109066 0.2098779
vt 0.05109066 0.2098779
vt 0.05109066 0.2098779
vt 0.05109066 0.2098779
vt 0.2356272 0.2774698
vt 0.2356272 0.2774698
vt 0.2356272 0.2774698
vt 0.2356272 0.2774698
vt 0.2356272 0.2774698
vt 0.2356272 0.2774698
vt 0.2356272 0.2774698
vt 0.2356272 0.2774698
vt 0.2356272 0.2774698
vt 0.2356272 0.2774698
vt 0.2356272 0.2774698
vt 0.2356272 0.2774698
vt 0.2356272 0.2774698
vt 0.2356272 0.2774698
vt 0.2356272 0.2774698
vt 0.2356272 0.2774698
vt 0.2356272 0.2774698
vt 0.2356272 0.2774698
vt 0.2356272 0.2774698
vt 0.2356272 0.2774698
vt 0.2356272 0.2774698
vt 0.2356272 0.2774698
vt 0.2356272 0.2774698
vt 0.2356272 0.2774698
vt 0.2356272 0.2774698
vt 0.2356272 0.2774698
vt 0.2356272 0.2774698
vt 0.2356272 0.2774698
vt 0.2356272 0.2774698
vt 0.2356272 0.2774698
vt 0.2356272 0.2774698
vt 0.2356272 0.2774698
vt 0.05109066 0.2098779
vt 0.05109066 0.2098779
vt 0.05109066 0.2098779
vt 0.05109066 0.2098779
vt 0.05109066 0.2098779
vt 0.05109066 0.2098779
vt 0.05109066 0.2098779
vt 0.05109066 0.2098779
vt 0.05109066 0.2098779
vt 0.05109066 0.2098779
vt 0.2356272 0.2774698
vt 0.2356272 0.2774698
vt 0.2356272 0.2774698
vt 0.2356272 0.2774698
vt 0.2356272 0.2774698
vt 0.2356272 0.2774698
vt 0.2356272 0.2774698
vt 0.2356272 0.2774698
vt 0.2710325 0.3246768
vt 0.2710325 0.3246768
vt 0.2710325 0.3246768
vt 0.2710325 0.3246768
vt 0.2710325 0.3246768
vt 0.2710325 0.3246768
vt 0.2710325 0.3246768
vt 0.2710325 0.3246768
vt 0.2710325 0.3246768
vt 0.2710325 0.3246768
vt 0.2710325 0.3246768
vt 0.2710325 0.3246768
vt 0.2710325 0.3246768
vt 0.2710325 0.3246768
vt 0.2356272 0.2774698
vt 0.2356272 0.2774698
vt 0.2356272 0.2774698
vt 0.2356272 0.2774698
vt 0.2356272 0.2774698
vt 0.2356272 0.2774698
vt 0.2356272 0.2774698
vt 0.2356272 0.2774698
vt 0.2710325 0.3246768
vt 0.2710325 0.3246768
vt 0.2710325 0.3246768
vt 0.2710325 0.3246768
vt 0.05109066 0.2098779
vt 0.05109066 0.2098779
vt 0.05109066 0.2098779
vt 0.05109066 0.2098779
vt 0.05109066 0.2098779
vt 0.05109066 0.2098779
vt 0.05109066 0.2098779
vt 0.05109066 0.2098779
vt 0.05109066 0.2098779
vt 0.05109066 0.2098779
vt 0.05109066 0.2098779
vt 0.05109066 0.2098779
vt 0.05109066 0.2098779
vt 0.05109066 0.2098779
vt 0.05109066 0.2098779
vt 0.05109066 0.2098779
vt 0.05109066 0.2098779
vt 0.05109066 0.2098779
vt 0.05109066 0.2098779
vt 0.2710325 0.3246768
vt 0.2710325 0.3246768
vt 0.2710325 0.3246768
vt 0.2710325 0.3246768
vt 0.2710325 0.3246768
vt 0.2710325 0.3246768
vt 0.2710325 0.3246768
vt 0.2710325 0.3246768
vt 0.2699596 0.2302628
vt 0.2699596 0.2302628
vt 0.2699596 0.2302628
vt 0.2699596 0.2302628
vt 0.2710325 0.3246768
vt 0.2710325 0.3246768
vt 0.2710325 0.3246768
vt 0.2710325 0.3246768
vt 0.05109066 0.2098779
vt 0.05109066 0.2098779
vt 0.05109066 0.2098779
vt 0.05109066 0.2098779
vt 0.05109066 0.2098779
vt 0.05109066 0.2098779
vt 0.05109066 0.2098779
vt 0.05109066 0.2098779
vt 0.2710325 0.3246768
vt 0.2710325 0.3246768
vt 0.2710325 0.3246768
vt 0.2710325 0.3246768
vt 0.05109066 0.2098779
vt 0.05109066 0.2098779
vt 0.05109066 0.2098779
vt 0.05109066 0.2098779
vn -0.8729059 -0.2063232 0.4421155
vn -0.8729059 -0.2063232 0.4421155
vn -0.8729059 -0.2063232 0.4421155
vn 0.8729059 -0.2380652 0.4258642
vn 0.8729059 -0.2380652 0.4258642
vn 0.8729059 -0.2380652 0.4258642
vn -0.9046479 0.1428392 0.4015085
vn -0.9046479 0.1428392 0.4015085
vn -0.9046479 0.1428392 0.4015085
vn -0.01587105 0.01587105 0.9997481
vn 0.01587099 0.01587105 0.9997481
vn -0.01587105 0.01587105 0.9997481
vn 0.01587099 0.01587105 0.9997481
vn 0.01587099 -0.01587099 0.9997481
vn 0.01587099 -0.01587099 0.9997481
vn -0.01587105 0.01587105 0.9997481
vn -0.01587105 0.01587105 0.9997481
vn 0.7459377 0.01587105 0.6658266
vn 0.7459377 0.01587105 0.6658266
vn 0.7459377 0.01587105 0.6658266
vn 0.7459377 0.01587105 0.6658266
vn 0.7459377 -0.01587099 0.6658266
vn 0.7459377 -0.01587099 0.6658266
vn -0.8094218 0.01587105 0.5870132
vn -0.7776798 0.01587105 0.6284602
vn -0.8094218 0.01587105 0.5870132
vn -0.7776798 0.01587105 0.6284602
vn -0.7776798 -0.01587099 0.6284602
vn -0.7776798 -0.01587099 0.6284602
vn -0.8094218 -0.01587099 0.5870132
vn -0.8094218 -0.01587099 0.5870132
vn -0.01587105 0.01587105 -0.9997481
vn -0.01587105 0.01587105 -0.9997481
vn -0.01587105 0.01587105 -0.9997481
vn -0.01587105 0.01587105 -0.9997481
vn -0.01587105 0.01587105 -0.9997481
vn -0.01587105 0.01587105 -0.9997481
vn -0.01587105 0.01587105 -0.9997481
vn -0.01587105 0.01587105 -0.9997481
vn -0.01587105 0.01587105 -0.9997481
vn -0.01587105 0.01587105 -0.9997481
vn -0.01587105 0.01587105 -0.9997481
vn -0.01587105 0.01587105 -0.9997481
vn -0.01587105 -0.999874 -0.000345267
vn -0.01587105 -0.999874 -0.000345267
vn -0.01587105 -0.999874 -0.000345267
vn -0.01587105 -0.999874 -0.000345267
vn -0.01587105 -0.999874 -0.000345267
vn -0.01587105 -0.999874 -0.000345267
vn 0.999874 0.01587105 -0.0003439156
vn 0.999874 0.01587105 -0.0003439156
vn 0.999874 0.01587105 -0.0003439156
vn 0.999874 0.01587105 -0.0003439156
vn 0.999874 0.01587105 -0.0003439156
vn 0.999874 0.01587105 -0.0003439156
vn 0.999874 0.01587105 -0.0003439156
vn 0.999874 0.01587105 -0.0003439156
vn 0.999874 0.01587105 -0.0003439156
vn 0.999874 0.01587105 -0.0003439156
vn 0.999874 0.01587105 -0.0003439156
vn 0.999874 0.01587105 -0.0003439156
vn 0.999874 0.01587105 -0.0003439156
vn 0.999874 0.01587105 -0.0003439156
vn -0.999874 0.01587105 -0.0003439156
vn -0.999874 0.01587105 -0.0003439156
vn -0.999874 0.01587105 -0.0003439156
vn -0.999874 0.01587105 -0.0003439156
vn -0.999874 0.01587105 -0.0003439156
vn -0.999874 0.01587105 -0.0003439156
vn -0.999874 0.01587105 -0.0003439156
vn -0.999874 0.01587105 -0.0003439156
vn -0.999874 0.01587105 -0.0003439156
vn -0.999874 0.01587105 -0.0003439156
vn -0.999874 0.01587105 -0.0003439156
vn -0.999874 0.01587105 -0.0003439156
vn -0.999874 0.01587105 -0.0003439156
vn -0.999874 0.01587105 -0.0003439156
vn -0.01587105 0.999874 -0.000345267
vn -0.01587105 0.999874 -0.000345267
vn -0.01587105 0.999874 -0.000345267
vn -0.01587105 0.999874 -0.000345267
vn -0.01587105 0.999874 -0.000345267
vn -0.01587105 0.999874 -0.000345267
vn -0.8729059 0.01587105 0.4876305
vn -0.8729059 -0.01587099 0.4876305
vn -0.8729059 0.01587105 0.4876305
vn -0.8729059 -0.01587099 0.4876305
vn -0.8729059 -0.04761302 0.4855599
vn -0.8729059 -0.04761302 0.4855599
vn -0.9046479 -0.3967754 0.1555036
vn -0.9046479 -0.3967754 0.1555036
vn -0.9046479 -0.3967754 0.1555036
vn -0.9046479 -0.3967754 0.1555036
vn -0.5237435 0.7776798 0.3477167
vn -0.5237435 0.7776798 0.3477167
vn -0.5237435 0.7776798 0.3477167
vn -0.5237435 0.7776798 0.3477167
vn -0.7459378 0.6507117 -0.1419546
vn -0.7459378 0.6507117 -0.1419546
vn -0.7459378 0.6507117 -0.1419546
vn -0.7459378 0.6507117 -0.1419546
vn -0.01587105 0.7459378 -0.6658264
vn -0.01587105 0.7459378 -0.6658264
vn -0.01587105 0.7459378 -0.6658264
vn -0.01587105 0.7459378 -0.6658264
vn 0.7459377 0.6507117 -0.1419552
vn 0.7459377 0.6507117 -0.1419552
vn 0.7459377 0.6507117 -0.1419552
vn 0.7459377 0.6507117 -0.1419552
vn -0.8094218 0.01587105 0.5870132
vn -0.8094218 0.01587105 0.5870132
vn -0.8094218 0.01587105 0.5870132
vn -0.8094218 0.01587105 0.5870132
vn -0.999874 0.01587105 -0.0003439156
vn -0.999874 0.01587105 -0.0003439156
vn -0.999874 0.01587105 -0.0003439156
vn -0.999874 0.01587105 -0.0003439156
vn -0.01587105 0.01587105 -0.9997481
vn -0.01587105 0.01587105 -0.9997481
vn -0.01587105 0.01587105 -0.9997481
vn -0.01587105 0.01587105 -0.9997481
vn 0.999874 0.01587105 -0.0003439156
vn 0.999874 0.01587105 -0.0003439156
vn 0.999874 0.01587105 -0.0003439156
vn 0.999874 0.01587105 -0.0003439156
vn 0.9046479 0.01587105 0.4258642
vn 0.9046479 0.01587105 0.4258642
vn 0.9046479 0.01587105 0.4258642
vn 0.9046479 0.01587105 0.4258642
vn 0.9046479 -0.01587099 0.4258642
vn 0.9046479 -0.01587099 0.4258642
vn 0.9046479 -0.3967754 0.155504
vn 0.9046479 -0.3967754 0.155504
vn 0.9046479 -0.3967754 0.155504
vn 0.9046479 -0.3967754 0.155504
vn 0.8094218 0.01587105 0.5870132
vn 0.8094218 0.01587105 0.5870132
vn 0.8094218 0.01587105 0.5870132
vn 0.8094218 0.01587105 0.5870132
vn 0.5237435 0.7776798 0.3477167
vn 0.5237435 0.7776798 0.3477167
vn 0.5237435 0.7776798 0.3477167
vn 0.5237435 0.7776798 0.3477167
vn -0.01587105 0.01587105 0.9997481
vn -0.01587105 0.01587105 0.9997481
vn -0.01587105 0.01587105 0.9997481
vn -0.01587105 0.01587105 0.9997481
vn -0.01587105 0.01587105 0.9997481
vn -0.01587105 0.01587105 0.9997481
vn -0.01587105 -0.8729059 0.4876305
vn -0.01587105 -0.8729059 0.4876305
vn -0.01587105 -0.8729059 0.4876305
vn -0.01587105 -0.8729059 0.4876305
vn -0.01587105 -0.4920015 0.8704497
vn -0.01587105 -0.4920015 0.8704497
vn -0.01587105 -0.4920015 0.8704497
vn -0.01587105 -0.4920015 0.8704497
vn -0.01587105 0.01587105 0.9997481
vn -0.01587105 0.01587105 0.9997481
vn -0.01587105 0.01587105 0.9997481
vn -0.01587105 0.01587105 0.9997481
vn -0.01587105 0.7459378 0.6658264
vn -0.01587105 0.7459378 0.6658264
vn -0.01587105 0.7459378 0.6658264
vn -0.01587105 0.7459378 0.6658264
vn 0.01587099 0.3015493 0.9533185
vn 0.01587099 0.3015493 0.9533185
vn 0.01587099 0.3015493 0.9533185
vn 0.01587099 0.3015493 0.9533185
vn 0.8411638 -0.01587099 0.5405475
vn 0.8411638 -0.01587099 0.5405475
vn 0.8411638 -0.04761302 0.5386803
vn 0.8411638 0.01587105 0.5405475
vn 0.8411638 0.01587105 0.5405475
vn -0.9046479 0.01587105 0.425864
vn -0.9046479 0.01587105 0.425864
vn -0.9046479 0.01587105 0.425864
vn -0.9046479 0.01587105 0.425864
vn -0.8411639 0.3967754 0.3674407
vn -0.8411639 0.3967754 0.3674407
vn -0.8411639 0.3967754 0.3674407
vn -0.8411639 0.3967754 0.3674407
vn 0.9363899 0.2380652 0.2578737
vn 0.9363899 0.2380652 0.2578737
vn 0.9363899 0.2380652 0.2578737
vn 0.9363899 0.2380652 0.2578737
vn 0.9046479 0.2380652 0.3534645
vn 0.9046479 0.2380652 0.3534645
vn -0.04761302 0.7141957 0.6983248
vn -0.04761302 0.7141957 0.6983248
vn -0.04761302 0.7141957 0.6983248
vn -0.04761302 0.7141957 0.6983248
vn -0.01587105 0.01587105 0.9997481
vn -0.01587105 0.01587105 0.9997481
vn -0.01587105 0.01587105 0.9997481
vn -0.01587105 0.01587105 0.9997481
vn 0.8411638 0.01587105 0.5405475
vn 0.8411638 0.01587105 0.5405475
vn 0.8411638 0.01587105 0.5405475
vn 0.8411638 0.01587105 0.5405475
vn -0.07935512 0.5872276 0.8055225
vn -0.07935512 0.5872276 0.8055225
vn -0.07935512 0.5872276 0.8055225
vn -0.07935512 0.5872276 0.8055225
vn -0.8094218 0.3015493 0.5038893
vn -0.8094218 0.3015493 0.5038893
vn -0.8094218 0.3015493 0.5038893
vn -0.8094218 0.3015493 0.5038893
vn 0.8729059 -0.01587099 0.4876305
vn 0.8729059 -0.01587099 0.4876305
vn 0.8729059 -0.01587099 0.4876305
vn 0.8729059 -0.01587099 0.4876305
vn -0.01587105 -0.01587099 0.9997481
vn -0.01587105 -0.01587099 0.9997481
vn -0.01587105 -0.01587099 0.9997481
vn -0.01587105 -0.01587099 0.9997481
vn -0.8729059 -0.01587099 0.4876305
vn -0.8729059 -0.01587099 0.4876305
vn -0.8729059 -0.01587099 0.4876305
vn -0.8729059 -0.01587099 0.4876305
g SM_Prop_Bank_Booth_Pillar_01_0
f 3/3/3 2/2/2 1/1/1
f 6/6/6 5/5/5 4/4/4
f 9/9/9 8/8/8 7/7/7
f 12/12/12 11/11/11 10/10/10
f 11/11/11 13/13/13 10/10/10
f 11/11/11 14/14/14 13/13/13
f 14/14/14 15/15/15 13/13/13
f 14/14/14 16/16/16 15/15/15
f 16/16/16 17/17/17 15/15/15
f 20/20/20 19/19/19 18/18/18
f 19/19/19 21/21/21 18/18/18
f 19/19/19 22/22/22 21/21/21
f 22/22/22 23/23/23 21/21/21
f 26/26/26 25/25/25 24/24/24
f 25/25/25 27/27/27 24/24/24
f 25/25/25 28/28/28 27/27/27
f 28/28/28 29/29/29 27/27/27
f 28/28/28 30/30/30 29/29/29
f 30/30/30 31/31/31 29/29/29
f 34/34/34 33/33/33 32/32/32
f 35/35/35 34/34/34 32/32/32
f 35/35/35 36/36/36 34/34/34
f 36/36/36 37/37/37 34/34/34
f 38/38/38 37/37/37 36/36/36
f 39/39/39 38/38/38 36/36/36
f 40/40/40 38/38/38 39/39/39
f 41/41/41 40/40/40 39/39/39
f 42/42/42 40/40/40 41/41/41
f 43/43/43 42/42/42 41/41/41
f 46/46/46 45/45/45 44/44/44
f 44/44/44 47/47/47 46/46/46
f 44/44/44 48/48/48 47/47/47
f 48/48/48 49/49/49 47/47/47
f 52/52/52 51/51/51 50/50/50
f 50/50/50 53/53/53 52/52/52
f 53/53/53 54/54/54 52/52/52
f 53/53/53 55/55/55 54/54/54
f 55/55/55 56/56/56 54/54/54
f 56/56/56 57/57/57 54/54/54
f 56/56/56 58/58/58 57/57/57
f 58/58/58 59/59/59 57/57/57
f 58/58/58 60/60/60 59/59/59
f 60/60/60 61/61/61 59/59/59
f 60/60/60 62/62/62 61/61/61
f 62/62/62 63/63/63 61/61/61
f 66/66/66 65/65/65 64/64/64
f 64/64/64 65/65/65 67/67/67
f 65/65/65 68/68/68 67/67/67
f 68/68/68 69/69/69 67/67/67
f 68/68/68 70/70/70 69/69/69
f 70/70/70 71/71/71 69/69/69
f 70/70/70 72/72/72 71/71/71
f 72/72/72 73/73/73 71/71/71
f 72/72/72 74/74/74 73/73/73
f 74/74/74 75/75/75 73/73/73
f 74/74/74 76/76/76 75/75/75
f 76/76/76 77/77/77 75/75/75
f 80/80/80 79/79/79 78/78/78
f 78/78/78 81/81/81 80/80/80
f 78/78/78 82/82/82 81/81/81
f 82/82/82 83/83/83 81/81/81
f 86/86/86 85/85/85 84/84/84
f 85/85/85 87/87/87 84/84/84
f 85/85/85 88/88/88 87/87/87
f 88/88/88 89/89/89 87/87/87
f 92/92/92 91/91/91 90/90/90
f 93/93/93 92/92/92 90/90/90
f 96/96/96 95/95/95 94/94/94
f 97/97/97 96/96/96 94/94/94
f 100/100/100 99/99/99 98/98/98
f 101/101/101 100/100/100 98/98/98
f 104/104/104 103/103/103 102/102/102
f 105/105/105 104/104/104 102/102/102
f 108/108/108 107/107/107 106/106/106
f 109/109/109 108/108/108 106/106/106
f 112/112/112 111/111/111 110/110/110
f 113/113/113 112/112/112 110/110/110
f 116/116/116 115/115/115 114/114/114
f 117/117/117 116/116/116 114/114/114
f 120/120/120 119/119/119 118/118/118
f 121/121/121 120/120/120 118/118/118
f 124/124/124 123/123/123 122/122/122
f 125/125/125 124/124/124 122/122/122
f 128/128/128 127/127/127 126/126/126
f 127/127/127 129/129/129 126/126/126
f 126/126/126 129/129/129 130/130/130
f 129/129/129 131/131/131 130/130/130
f 134/134/134 133/133/133 132/132/132
f 135/135/135 134/134/134 132/132/132
f 138/138/138 137/137/137 136/136/136
f 139/139/139 138/138/138 136/136/136
f 142/142/142 141/141/141 140/140/140
f 143/143/143 142/142/142 140/140/140
f 146/146/146 145/145/145 144/144/144
f 145/145/145 147/147/147 144/144/144
f 144/144/144 147/147/147 148/148/148
f 147/147/147 149/149/149 148/148/148
f 152/152/152 151/151/151 150/150/150
f 153/153/153 152/152/152 150/150/150
f 156/156/156 155/155/155 154/154/154
f 157/157/157 156/156/156 154/154/154
f 160/160/160 159/159/159 158/158/158
f 161/161/161 160/160/160 158/158/158
f 164/164/164 163/163/163 162/162/162
f 165/165/165 164/164/164 162/162/162
f 168/168/168 167/167/167 166/166/166
f 169/169/169 168/168/168 166/166/166
f 172/172/172 171/171/171 170/170/170
f 173/173/173 170/170/170 171/171/171
f 174/174/174 173/173/173 171/171/171
f 177/177/177 176/176/176 175/175/175
f 178/178/178 177/177/177 175/175/175
f 181/181/181 180/180/180 179/179/179
f 182/182/182 181/181/181 179/179/179
f 185/185/185 184/184/184 183/183/183
f 184/184/184 186/186/186 183/183/183
f 184/184/184 187/187/187 186/186/186
f 187/187/187 188/188/188 186/186/186
f 191/191/191 190/190/190 189/189/189
f 192/192/192 191/191/191 189/189/189
f 195/195/195 194/194/194 193/193/193
f 196/196/196 195/195/195 193/193/193
f 199/199/199 198/198/198 197/197/197
f 200/200/200 199/199/199 197/197/197
f 203/203/203 202/202/202 201/201/201
f 204/204/204 203/203/203 201/201/201
f 207/207/207 206/206/206 205/205/205
f 208/208/208 207/207/207 205/205/205
f 211/211/211 210/210/210 209/209/209
f 212/212/212 211/211/211 209/209/209
f 215/215/215 214/214/214 213/213/213
f 216/216/216 215/215/215 213/213/213
f 219/219/219 218/218/218 217/217/217
f 220/220/220 219/219/219 217/217/217
