g SM_Prop_GraphicsTablet_01
v 0.1326877 0.02287564 -0.1364388
v 0.1564875 0.02287564 -0.08979702
v 0.1564874 0.02287564 -0.08111318
v 0.1564875 0.02287564 -0.05343577
v 0.1660527 0.02287564 -0.03972709
v 0.1442433 0.02287564 -0.01673966
v 0.1564875 0.02287564 0.07651431
v 0.1564875 0.02287564 0.08519813
v 0.1326877 0.02287564 0.1364388
v 0.1233367 0.02287564 0.1515969
v 0.2114 0.02287564 0.1515969
v 0.2114 0 0.1515969
v 0.1233367 0 0.1515969
v -0.2114 0.02287564 0.1515969
v -0.2114 0 0.1515969
v 0.1233367 0 -0.1515969
v 0.2114 0 -0.1515969
v 0.2114 0.02287564 -0.1515969
v 0.1233367 0.02287564 -0.1515969
v -0.2114 0 -0.1515969
v -0.2114 0.02287564 -0.1515969
v 0.2265581 0.02287564 0.1364388
v 0.2265581 0.02287564 -0.1364388
v 0.2265581 0 -0.1364388
v 0.2265581 0 0.1364388
v -0.2265581 0.02287564 -0.1364388
v -0.2265581 0.02287564 0.1364388
v -0.2265581 0 0.1364388
v -0.2265581 0 -0.1364388
v 0.1564875 0.02287564 -0.1161339
v 0.2027584 0.02287564 -0.1161339
v 0.2027584 0.02287564 -0.08979698
v 0.1564875 0.02287564 -0.08979702
v -0.2265581 0 0.1364388
v -0.2265581 0.02287564 0.1364388
v -0.2114 0.02287564 0.1515969
v -0.2114 0 0.1515969
v 0.2114 0 0.1515969
v 0.2114 0.02287564 0.1515969
v 0.2265581 0.02287564 0.1364388
v 0.2265581 0 0.1364388
v -0.2265581 0.02287564 -0.1364388
v -0.2265581 0 -0.1364388
v -0.2114 0 -0.1515969
v -0.2114 0.02287564 -0.1515969
v 0.2114 0.02287564 -0.1515969
v 0.2114 0 -0.1515969
v 0.2265581 0 -0.1364388
v 0.2265581 0.02287564 -0.1364388
v 0.1233367 0.02287564 -0.1515969
v 0.2114 0.02287564 -0.1515969
v 0.2265581 0.02287564 -0.1364388
v 0.1326877 0.02287564 -0.1364388
v -0.2114 0.02287564 -0.1515969
v -0.2113998 0.02287564 -0.1364388
v -0.2265581 0.02287564 -0.1364388
v 0.1564875 0.02287564 -0.1161339
v 0.1564875 0.02287564 -0.08979702
v 0.2027584 0.02287564 -0.1161339
v 0.2027584 0.02287564 -0.08979698
v 0.1564874 0.02287564 -0.08111318
v 0.2027584 0.02287564 -0.08111317
v 0.2150025 0.02287564 -0.01673966
v 0.2027584 0.02287564 -0.05343575
v 0.1931932 0.02287564 -0.03972709
v 0.1660527 0.02287564 -0.03972709
v 0.1564875 0.02287564 -0.05343577
v 0.1233367 0 0.1515969
v 0.2114 0 0.1515969
v 0.2265581 0 0.1364388
v 0.1326877 0 0.1364388
v 0.2265581 0 -0.1364388
v -0.2265581 0 0.1364388
v -0.2114 0 0.1515969
v -0.2265581 0 -0.1364388
v 0.1326877 0 -0.1364388
v 0.2114 0 -0.1515969
v 0.1233367 0 -0.1515969
v -0.2114 0 -0.1515969
v -0.2113998 0.02287564 -0.1364388
v 0.1326877 0.02287564 -0.1364388
v 0.1326877 0.02287564 0.1364388
v -0.2114 0.02287564 0.1364388
v -0.2265581 0.02287564 0.1364388
v -0.2265581 0.02287564 -0.1364388
v -0.2113998 0.02287564 -0.1364388
v -0.2114 0.02287564 0.1364388
v -0.2265581 0.02287564 0.1364388
v -0.2114 0.02287564 0.1364388
v -0.2114 0.02287564 0.1515969
v 0.1233367 0.02287564 0.1515969
v 0.1326877 0.02287564 0.1364388
v 0.2114 0.02287564 0.1515969
v 0.2265581 0.02287564 0.1364388
v 0.2027584 0.02287564 0.1161339
v 0.1564875 0.02287564 0.1161339
v 0.1564875 0.02287564 0.08519813
v 0.2027584 0.02287564 0.08519817
v 0.2027584 0.02287564 0.07651433
v 0.1564875 0.02287564 0.07651431
v 0.2027584 0.02287564 0.08519817
v 0.2027584 0.02287564 0.1161339
v 0.1564875 0.02287564 0.1161339
v 0.1564875 0.02287564 0.08519813
v 0.2027584 0.02287564 0.05015994
v 0.2027584 0.02287564 0.07651433
v 0.1564875 0.02287564 0.07651431
v 0.1564875 0.02287564 0.05015992
v 0.2150025 0.02287564 0.01345433
v 0.1931932 0.02287564 0.03645126
v 0.1660527 0.02287564 0.03645125
v 0.1442433 0.02287564 0.01345433
v 0.1442433 0.02287564 -0.01673966
v 0.2150025 0.02287564 -0.01673966
v 0.1931932 0.02287564 -0.03972709
v 0.1660527 0.02287564 -0.03972709
v 0.2027584 0.02287564 -0.08111317
v 0.2027584 0.02287564 -0.05343575
v 0.1564875 0.02287564 -0.05343577
v 0.1564874 0.02287564 -0.08111318
v 0.2150025 0.02287564 0.01345433
v 0.2027584 0.02287564 0.05015994
v 0.1931932 0.02287564 0.03645126
v 0.1660527 0.02287564 0.03645125
v 0.1564875 0.02287564 0.05015992
v 0.1442433 0.02287564 0.01345433
v 0.1564875 0.02287564 0.07651431
v 0.1326877 0.02287564 0.1364388
v 0.1326877 0.02287564 -0.1364388
v 0.1564874 0.02287564 -0.08111318
v 0.1564875 0.02287564 -0.05343577
v 0.1442433 0.02287564 -0.01673966
v 0.2150025 0.02287564 0.01345433
v 0.2150025 0.02287564 -0.01673966
v 0.2265581 0.02287564 -0.1364388
v 0.2265581 0.02287564 0.1364388
v 0.2027584 0.02287564 0.07651433
v 0.2027584 0.02287564 0.05015994
v 0.1442433 0.02287564 0.01345433
v 0.1326877 0.02287564 0.1364388
v 0.1326877 0.02287564 -0.1364388
v 0.1442433 0.02287564 -0.01673966
vt 0.07810913 0.2765559
vt 0.07810832 0.2765986
vt 0.07810751 0.2766414
vt 0.0781067 0.2766841
vt 0.0781059 0.2767268
vt 0.07810508 0.2767696
vt 0.07810104 0.2769834
vt 0.07810023 0.2770261
vt 0.07809942 0.2770689
vt 0.07811974 0.2770996
vt 0.07794011 0.2771035
vt 0.07794648 0.277122
vt 0.07812344 0.2771182
vt 0.07887788 0.2770834
vt 0.07887028 0.2771022
vt 0.07813179 0.2765541
vt 0.0779708 0.2765573
vt 0.07796532 0.2765326
vt 0.07812852 0.2765295
vt 0.07881121 0.2765409
vt 0.07881729 0.2765161
vt 0.07790786 0.2770729
vt 0.07793343 0.2765593
vt 0.07793933 0.2765837
vt 0.07791477 0.2770919
vt 0.07884704 0.2764196
vt 0.07891153 0.2771734
vt 0.07889988 0.2770709
vt 0.07884412 0.276566
vt 0.07885991 0.330584
vt 0.07866202 0.3305882
vt 0.07866482 0.3306932
vt 0.0788645 0.3306889
vt 0.07889988 0.2770709
vt 0.07891153 0.2771734
vt 0.07887788 0.2770834
vt 0.07887028 0.2771022
vt 0.07794648 0.277122
vt 0.07794011 0.2771035
vt 0.07790786 0.2770729
vt 0.07791477 0.2770919
vt 0.07884704 0.2764196
vt 0.07884412 0.276566
vt 0.07881121 0.2765409
vt 0.07881729 0.2765161
vt 0.07796532 0.2765326
vt 0.0779708 0.2765573
vt 0.07793933 0.2765837
vt 0.07793343 0.2765593
vt 0.07812852 0.2765295
vt 0.07796532 0.2765326
vt 0.07793343 0.2765593
vt 0.07810913 0.2765559
vt 0.07881729 0.2765161
vt 0.07881999 0.276542
vt 0.07884704 0.2764196
vt 0.07810913 0.2765559
vt 0.07810832 0.2765986
vt 0.07793343 0.2765593
vt 0.0779313 0.2766021
vt 0.07810751 0.2766414
vt 0.07792917 0.2766449
vt 0.07792278 0.2767733
vt 0.07792704 0.2766877
vt 0.07792491 0.2767305
vt 0.0781059 0.2767268
vt 0.0781067 0.2766841
vt 0.07812344 0.2771182
vt 0.07794648 0.277122
vt 0.07791477 0.2770919
vt 0.07810348 0.2770878
vt 0.07793933 0.2765837
vt 0.07889988 0.2770709
vt 0.07887028 0.2771022
vt 0.07884412 0.276566
vt 0.07811265 0.2765803
vt 0.0779708 0.2765573
vt 0.07813179 0.2765541
vt 0.07881121 0.2765409
vt 0.08112135 0.2272241
vt 0.08027583 0.2272502
vt 0.08028877 0.2278695
vt 0.08123496 0.2278367
vt 0.07891153 0.2771734
vt 0.07884704 0.2764196
vt 0.07878809 0.2763016
vt 0.07885944 0.277299
vt 0.07891153 0.2771734
vt 0.07887443 0.2770524
vt 0.07887788 0.2770834
vt 0.07811974 0.2770996
vt 0.07809942 0.2770689
vt 0.07794011 0.2771035
vt 0.07790786 0.2770729
vt 0.07790786 0.2770729
vt 0.07809942 0.2770689
vt 0.07810023 0.2770261
vt 0.07791 0.2770301
vt 0.07791211 0.2769873
vt 0.07810104 0.2769834
vt 0.07868488 0.3314416
vt 0.07868867 0.331584
vt 0.07890354 0.3315791
vt 0.07889728 0.3314368
vt 0.07868068 0.3312842
vt 0.07868384 0.3314022
vt 0.07889555 0.3313974
vt 0.07889037 0.3312795
vt 0.07865183 0.3311243
vt 0.07873289 0.3311906
vt 0.07883166 0.3311884
vt 0.07890789 0.3311187
vt 0.07890196 0.3309891
vt 0.07864861 0.3309946
vt 0.07872467 0.3309272
vt 0.07882132 0.3309251
vt 0.07866578 0.3307282
vt 0.07866882 0.3308412
vt 0.078871 0.3308368
vt 0.07886605 0.3307239
vt 0.07791851 0.2768589
vt 0.07791425 0.2769445
vt 0.07791638 0.2769017
vt 0.07810266 0.2768978
vt 0.07810184 0.2769406
vt 0.07810347 0.2768551
vt 0.07810104 0.2769834
vt 0.07809942 0.2770689
vt 0.07810913 0.2765559
vt 0.07810751 0.2766414
vt 0.0781067 0.2766841
vt 0.07810508 0.2767696
vt 0.07791851 0.2768589
vt 0.07792278 0.2767733
vt 0.07793343 0.2765593
vt 0.07790786 0.2770729
vt 0.07791211 0.2769873
vt 0.07791425 0.2769445
vt 0.07810347 0.2768551
vt 0.07809942 0.2770689
vt 0.07810913 0.2765559
vt 0.07810508 0.2767696
vn 0 1 0
vn 0 1 0
vn 0 1 0
vn 0 1 0
vn 0 1 0
vn 0 1 0
vn 0 1 0
vn 0 1 0
vn 0 1 0
vn 0 0 1
vn 0 0 1
vn 0 0 1
vn 0 0 1
vn 0 0 1
vn 0 0 1
vn 0 0 -1
vn 0 0 -1
vn 0 0 -1
vn 0 0 -1
vn 0 0 -1
vn 0 0 -1
vn 1 0 0
vn 1 0 0
vn 1 0 0
vn 1 0 0
vn -1 0 0
vn -1 0 0
vn -1 0 0
vn -1 0 0
vn 0 1 0
vn 0 1 0
vn 0 1 0
vn 0 1 0
vn -0.7071068 0 0.7071068
vn -0.7071068 0 0.7071068
vn -0.7071068 0 0.7071068
vn -0.7071068 0 0.7071068
vn 0.7071068 0 0.7071068
vn 0.7071068 0 0.7071068
vn 0.7071068 0 0.7071068
vn 0.7071068 0 0.7071068
vn -0.7071068 0 -0.7071068
vn -0.7071068 0 -0.7071068
vn -0.7071068 0 -0.7071068
vn -0.7071068 0 -0.7071068
vn 0.7071068 0 -0.7071068
vn 0.7071068 0 -0.7071068
vn 0.7071068 0 -0.7071068
vn 0.7071068 0 -0.7071068
vn 0 1 0
vn 0 1 0
vn 0 1 0
vn 0 1 0
vn 0 1 0
vn 0 1 0
vn 0 1 0
vn 0 1 0
vn 0 1 0
vn 0 1 0
vn 0 1 0
vn 0 1 0
vn 0 1 0
vn 0 1 0
vn 0 1 0
vn 0 1 0
vn 0 1 0
vn 0 1 0
vn 0 -1 0
vn 0 -1 0
vn 0 -1 0
vn 0 -1 0
vn 0 -1 0
vn 0 -1 0
vn 0 -1 0
vn 0 -1 0
vn 0 -1 0
vn 0 -1 0
vn 0 -1 0
vn 0 -1 0
vn 0 1 0
vn 0 1 0
vn 0 1 0
vn 0 1 0
vn 0 1 0
vn 0 1 0
vn 0 1 0
vn 0 1 0
vn 0 1 0
vn 0 1 0
vn 0 1 0
vn 0 1 0
vn 0 1 0
vn 0 1 0
vn 0 1 0
vn 0 1 0
vn 0 1 0
vn 0 1 0
vn 0 1 0
vn 0 1 0
vn 0 1 0
vn 0 1 0
vn 0 1 0
vn 0 1 0
vn 0 1 0
vn 0 1 0
vn 0 1 0
vn 0 1 0
vn 0 1 0
vn 0 1 0
vn 0 1 0
vn 0 1 0
vn 0 1 0
vn 0 1 0
vn 0 1 0
vn 0 1 0
vn 0 1 0
vn 0 1 0
vn 0 1 0
vn 0 1 0
vn 0 1 0
vn 0 1 0
vn 0 1 0
vn 0 1 0
vn 0 1 0
vn 0 1 0
vn 0 1 0
vn 0 1 0
vn 0 1 0
vn 0 1 0
vn 0 1 0
vn 0 1 0
vn 0 1 0
vn 0 1 0
vn 0 1 0
vn 0 1 0
vn 0 1 0
vn 0 1 0
vn 0 1 0
vn 0 1 0
vn 0 1 0
vn 0 1 0
vn 0 1 0
g SM_Prop_GraphicsTablet_01_0
f 3/3/3 2/2/2 1/1/1
f 6/6/6 5/5/5 4/4/4
f 9/9/9 8/8/8 7/7/7
f 12/12/12 11/11/11 10/10/10
f 13/13/13 12/12/12 10/10/10
f 13/13/13 10/10/10 14/14/14
f 15/15/15 13/13/13 14/14/14
f 18/18/18 17/17/17 16/16/16
f 19/19/19 18/18/18 16/16/16
f 19/19/19 16/16/16 20/20/20
f 21/21/21 19/19/19 20/20/20
f 24/24/24 23/23/23 22/22/22
f 25/25/25 24/24/24 22/22/22
f 28/28/28 27/27/27 26/26/26
f 29/29/29 28/28/28 26/26/26
f 32/32/32 31/31/31 30/30/30
f 33/33/33 32/32/32 30/30/30
f 36/36/36 35/35/35 34/34/34
f 37/37/37 36/36/36 34/34/34
f 40/40/40 39/39/39 38/38/38
f 41/41/41 40/40/40 38/38/38
f 44/44/44 43/43/43 42/42/42
f 45/45/45 44/44/44 42/42/42
f 48/48/48 47/47/47 46/46/46
f 49/49/49 48/48/48 46/46/46
f 52/52/52 51/51/51 50/50/50
f 53/53/53 52/52/52 50/50/50
f 53/53/53 50/50/50 54/54/54
f 55/55/55 53/53/53 54/54/54
f 55/55/55 54/54/54 56/56/56
f 53/53/53 57/57/57 52/52/52
f 58/58/58 57/57/57 53/53/53
f 57/57/57 59/59/59 52/52/52
f 52/52/52 59/59/59 60/60/60
f 58/58/58 61/61/61 60/60/60
f 61/61/61 62/62/62 60/60/60
f 52/52/52 60/60/60 62/62/62
f 52/52/52 62/62/62 63/63/63
f 62/62/62 64/64/64 63/63/63
f 64/64/64 65/65/65 63/63/63
f 66/66/66 65/65/65 64/64/64
f 67/67/67 66/66/66 64/64/64
f 70/70/70 69/69/69 68/68/68
f 71/71/71 70/70/70 68/68/68
f 72/72/72 70/70/70 71/71/71
f 71/71/71 68/68/68 73/73/73
f 68/68/68 74/74/74 73/73/73
f 71/71/71 73/73/73 75/75/75
f 76/76/76 72/72/72 71/71/71
f 76/76/76 71/71/71 75/75/75
f 77/77/77 72/72/72 76/76/76
f 78/78/78 77/77/77 76/76/76
f 78/78/78 76/76/76 75/75/75
f 79/79/79 78/78/78 75/75/75
f 82/82/82 81/81/81 80/80/80
f 83/83/83 82/82/82 80/80/80
f 86/86/86 85/85/85 84/84/84
f 87/87/87 86/86/86 84/84/84
f 90/90/90 89/89/89 88/88/88
f 90/90/90 91/91/91 89/89/89
f 91/91/91 92/92/92 89/89/89
f 91/91/91 93/93/93 92/92/92
f 93/93/93 94/94/94 92/92/92
f 94/94/94 95/95/95 92/92/92
f 95/95/95 96/96/96 92/92/92
f 92/92/92 96/96/96 97/97/97
f 98/98/98 95/95/95 94/94/94
f 99/99/99 98/98/98 94/94/94
f 97/97/97 98/98/98 99/99/99
f 100/100/100 97/97/97 99/99/99
f 103/103/103 102/102/102 101/101/101
f 104/104/104 103/103/103 101/101/101
f 107/107/107 106/106/106 105/105/105
f 108/108/108 107/107/107 105/105/105
f 111/111/111 110/110/110 109/109/109
f 112/112/112 111/111/111 109/109/109
f 113/113/113 112/112/112 109/109/109
f 114/114/114 113/113/113 109/109/109
f 113/113/113 114/114/114 115/115/115
f 116/116/116 113/113/113 115/115/115
f 119/119/119 118/118/118 117/117/117
f 120/120/120 119/119/119 117/117/117
f 123/123/123 122/122/122 121/121/121
f 123/123/123 124/124/124 122/122/122
f 124/124/124 125/125/125 122/122/122
f 125/125/125 124/124/124 126/126/126
f 127/127/127 125/125/125 126/126/126
f 128/128/128 127/127/127 126/126/126
f 131/131/131 130/130/130 129/129/129
f 132/132/132 131/131/131 129/129/129
f 135/135/135 134/134/134 133/133/133
f 136/136/136 135/135/135 133/133/133
f 137/137/137 136/136/136 133/133/133
f 138/138/138 137/137/137 133/133/133
f 141/141/141 140/140/140 139/139/139
f 142/142/142 141/141/141 139/139/139
