g SM_Veh_Car_Van_Door_r
v 0.7079192 -0.1262775 -0.01977997
v 0.6884155 -0.1424453 -0.01977997
v 0.6884155 -0.2691971 -0.01977997
v 0.7079192 -0.1469626 -0.01977997
v 0.7534328 -0.1262775 -0.01977997
v 0.7534328 -0.1469626 -0.01977997
v 0.7079192 -0.2646799 -0.01977997
v 0.7079192 -0.285365 -0.01977997
v 0.7534328 -0.2646799 -0.01977997
v 0.7534328 -0.285365 -0.01977997
v 0.6884155 -0.2691971 -0.01977997
v 0.6884155 -0.1424453 -0.01977997
v 0.6884155 -0.1424453 0.002433777
v 0.6884155 -0.2691971 0.002433777
v 0.766862 -0.2584862 0.002433777
v 0.766862 -0.1531563 0.002433777
v 0.7584571 -0.1586811 -0.01288681
v 0.7584571 -0.2529614 -0.01288681
v 0.7079192 -0.1262775 -0.01977997
v 0.7079192 -0.1262775 0.002433777
v 0.6884155 -0.1424453 0.002433777
v 0.6884155 -0.1424453 -0.01977997
v 0.7079192 -0.285365 0.002433777
v 0.7079192 -0.285365 -0.01977997
v 0.6884155 -0.2691971 -0.01977997
v 0.6884155 -0.2691971 0.002433777
v 0.7595527 -0.285365 0.002433777
v 0.7534328 -0.285365 -0.01977997
v 0.7079192 -0.285365 -0.01977997
v 0.7079192 -0.285365 0.002433777
v 0.7584571 -0.2529614 -0.01288681
v 0.7584571 -0.1586811 -0.01288681
v 0.7189243 -0.1586811 -0.01282501
v 0.7189243 -0.2529614 -0.01282501
v 0.7534328 -0.1262775 -0.01977997
v 0.7595527 -0.1262775 0.002433777
v 0.7079192 -0.1262775 0.002433777
v 0.7079192 -0.1262775 -0.01977997
v 0.7595527 -0.1262775 0.002433777
v 0.7534328 -0.1262775 -0.01977997
v 0.7534328 -0.1469626 -0.01977997
v 0.7595527 -0.1469626 0.002433777
v 0.7534328 -0.285365 -0.01977997
v 0.7595527 -0.285365 0.002433777
v 0.7595527 -0.2646799 0.002433777
v 0.7534328 -0.2646799 -0.01977997
v 0.7595527 -0.2646799 0.002433777
v 0.7595527 -0.1469626 0.002433777
v 0.766862 -0.1531563 0.002433777
v 0.766862 -0.2584862 0.002433777
v 0.7595527 -0.1469626 0.002433777
v 0.7534328 -0.1469626 -0.01977997
v 0.7584571 -0.1586811 -0.01288681
v 0.766862 -0.1531563 0.002433777
v 0.7534328 -0.2646799 -0.01977997
v 0.7595527 -0.2646799 0.002433777
v 0.766862 -0.2584862 0.002433777
v 0.7584571 -0.2529614 -0.01288681
v 0.7534328 -0.1469626 -0.01977997
v 0.7079192 -0.1469626 -0.01977997
v 0.7189243 -0.1586811 -0.01282501
v 0.7584571 -0.1586811 -0.01288681
v 0.7079192 -0.1469626 -0.01977997
v 0.7079192 -0.2646799 -0.01977997
v 0.7189243 -0.2529614 -0.01282501
v 0.7189243 -0.1586811 -0.01282501
v 0.7079192 -0.2646799 -0.01977997
v 0.7534328 -0.2646799 -0.01977997
v 0.7584571 -0.2529614 -0.01288681
v 0.7189243 -0.2529614 -0.01282501
v 0.788528 -0.006788349 -0.01013832
v 0.4451736 -0.0357583 -0.01013832
v 0.788528 -0.0357583 -0.01013832
v 0.4451736 -0.006788349 -0.01013832
v 0.0177391 -0.006788349 -0.01013832
v 0.0177391 -0.0357583 -0.01013832
v 0.8062686 -0.04254684 3.552713E-16
v 0.4471079 -0.3576178 3.552713E-16
v 0.8062686 -0.3576178 3.552713E-16
v 0.4471079 -0.04254684 3.552713E-16
v -1.065814E-15 -0.04254684 3.552713E-16
v -1.065814E-15 -0.3576178 3.552713E-16
v 0.8062686 0.2221127 3.552713E-16
v 0.4471079 0 3.552713E-16
v 0.8062686 0 3.552713E-16
v 0.4471079 0.2221127 3.552713E-16
v -1.065814E-15 0.2221127 3.552713E-16
v -1.065814E-15 0 3.552713E-16
v 0.8062686 0.7668748 0.1529556
v 0.4490633 0.7271785 0.143503
v 0.7452688 0.7271785 0.1428261
v 0.4471079 0.7668748 0.1537029
v 0.1395128 0.7271785 0.1445179
v 0.07842235 0.766875 0.1546232
v 0.07563781 0.506079 0.06384048
v -1.065814E-15 0.5072081 0.06312408
v 0.8062686 0.5080523 0.05810985
v 0.8062686 0.7668748 0.1529556
v 0.7452688 0.7271785 0.1428261
v 0.765949 0.506079 0.05978508
v 0.8062686 0.2221127 3.552713E-16
v 0.8062686 0.5080523 0.05810985
v 0.765949 0.506079 0.05978508
v 0.7543266 0.2471534 0.007164764
v 0.4471079 0.2221127 3.552713E-16
v 0.4490633 0.2471534 0.007164764
v -1.065814E-15 0.2221127 3.552713E-16
v 0.07337875 0.2471534 0.007164764
v -1.065814E-15 0.5072081 0.06312408
v 0.07563781 0.506079 0.06384048
v 0.7452688 0.7271785 0.1428261
v 0.4451832 0.7047031 0.1653154
v 0.7301944 0.7046379 0.1646431
v 0.4490633 0.7271785 0.143503
v 0.1505955 0.7047683 0.1663118
v 0.1395128 0.7271785 0.1445179
v 0.765949 0.506079 0.05978508
v 0.7452688 0.7271785 0.1428261
v 0.7301944 0.7046379 0.1646431
v 0.7508617 0.4952715 0.08578815
v 0.7543266 0.2471534 0.007164764
v 0.739228 0.2496585 0.03608417
v 0.4490633 0.2471534 0.007164764
v 0.7543266 0.2471534 0.007164764
v 0.739228 0.2496585 0.03608417
v 0.4451525 0.2495279 0.03605651
v 0.07337875 0.2471534 0.007164764
v 0.08863067 0.2493972 0.03602886
v 0.1395128 0.7271785 0.1445179
v 0.07563781 0.506079 0.06384048
v 0.08904762 0.4952061 0.08967037
v 0.1505955 0.7047683 0.1663118
v 0.07563781 0.506079 0.06384048
v 0.07337875 0.2471534 0.007164764
v 0.08863067 0.2493972 0.03602886
v 0.08904762 0.4952061 0.08967037
v 0.8062686 0 3.552713E-16
v 0.4451736 -0.006788349 -0.01013832
v 0.788528 -0.006788349 -0.01013832
v 0.4471079 0 3.552713E-16
v 0.0177391 -0.006788349 -0.01013832
v -1.065814E-15 0 3.552713E-16
v 0.4471079 -0.04254684 3.552713E-16
v 0.8062686 -0.04254684 3.552713E-16
v 0.788528 -0.0357583 -0.01013832
v 0.4451736 -0.0357583 -0.01013832
v -1.065814E-15 -0.04254684 3.552713E-16
v 0.0177391 -0.0357583 -0.01013832
v 0.8062686 -0.04254684 3.552713E-16
v 0.8062686 0 3.552713E-16
v 0.788528 -0.006788349 -0.01013832
v 0.788528 -0.0357583 -0.01013832
v -1.065814E-15 0 3.552713E-16
v -1.065814E-15 -0.04254684 3.552713E-16
v 0.0177391 -0.0357583 -0.01013832
v 0.0177391 -0.006788349 -0.01013832
v 0.8062686 -0.04254684 3.552713E-16
v 0.8062686 -0.3576178 3.552713E-16
v 0.8062686 -0.3576178 0.04649334
v 0.8062686 -0.04254684 0.04649334
v 0.8062686 0 3.552713E-16
v 0.8062686 0.2221127 3.552713E-16
v 0.8062686 0.2221127 0.04649334
v 0.8062686 0.5080523 0.05810985
v 0.8062686 0.5080523 0.1046034
v 0.8062686 0.7668748 0.1529556
v 0.8062686 0.7668748 0.1994493
v 0.8062686 -0.3576178 3.552713E-16
v 0.4471079 -0.3576178 0.04649334
v 0.8062686 -0.3576178 0.04649334
v 0.4471079 -0.3576178 3.552713E-16
v -1.065814E-15 -0.3576178 0.04649334
v -1.065814E-15 -0.3576178 3.552713E-16
v 0.4471079 0.7668748 0.1537029
v 0.8062686 0.7668748 0.1529556
v 0.8062686 0.7668748 0.1994493
v 0.4471079 0.7668748 0.2001964
v 0.07842235 0.766875 0.1546232
v 0.07842235 0.766875 0.2011167
v -1.065814E-15 -0.3576178 3.552713E-16
v -1.065814E-15 -0.04254684 0.04649334
v -1.065814E-15 -0.3576178 0.04649334
v -1.065814E-15 -0.04254684 3.552713E-16
v -1.065814E-15 0 3.552713E-16
v -1.065814E-15 0.2221127 0.04649334
v -1.065814E-15 0.2221127 3.552713E-16
v -1.065814E-15 0.5072081 0.1096176
v -1.065814E-15 0.5072081 0.06312408
v -1.065814E-15 0.5072081 0.06312408
v 0.07842235 0.766875 0.1546232
v 0.07842235 0.766875 0.2011167
v -1.065814E-15 0.5072081 0.1096176
v 0.8062686 -0.04254684 0.04649334
v -1.065814E-15 0.2221127 0.04649334
v 0.8062686 0.2221127 0.04649334
v -1.065814E-15 -0.04254684 0.04649334
v 0.4471079 -0.3576178 0.04649334
v 0.8062686 -0.3576178 0.04649334
v -1.065814E-15 -0.3576178 0.04649334
v 0.8062686 0.7668748 0.1994493
v 0.8062686 0.5080523 0.1046034
v 0.7701555 0.5068377 0.1063232
v 0.7701555 0.7424755 0.1926731
v 0.4471079 0.7668748 0.2001964
v 0.4431696 0.7424755 0.1933533
v 0.07842235 0.766875 0.2011167
v 0.107509 0.7424756 0.1941912
v -1.065814E-15 0.5072081 0.1096176
v 0.03611336 0.5060692 0.1108885
v 0.8062686 0.2221127 0.04649334
v -1.065814E-15 0.2221127 0.04649334
v 0.03611336 0.2392548 0.05341873
v 0.7701555 0.2392548 0.05341873
v -1.065814E-15 0.2221127 0.04649334
v -1.065814E-15 0.5072081 0.1096176
v 0.03611336 0.5060692 0.1108885
v 0.03611336 0.2392548 0.05341873
v 0.8062686 0.5080523 0.1046034
v 0.8062686 0.2221127 0.04649334
v 0.7701555 0.2392548 0.05341873
v 0.7701555 0.5068377 0.1063232
v 0.4431696 0.7424755 0.1933533
v 0.7701555 0.7424755 0.1926731
v 0.7301944 0.7046379 0.1646431
v 0.4451832 0.7047031 0.1653154
v 0.107509 0.7424756 0.1941912
v 0.1505955 0.7047683 0.1663118
v 0.7701555 0.7424755 0.1926731
v 0.7701555 0.5068377 0.1063232
v 0.7508617 0.4952715 0.08578815
v 0.7301944 0.7046379 0.1646431
v 0.4451525 0.2495279 0.03605651
v 0.03611336 0.2392548 0.05341873
v 0.08863067 0.2493972 0.03602886
v 0.7701555 0.2392548 0.05341873
v 0.739228 0.2496585 0.03608417
v 0.03611336 0.2392548 0.05341873
v 0.03611336 0.5060692 0.1108885
v 0.08904762 0.4952061 0.08967037
v 0.08863067 0.2493972 0.03602886
v 0.7701555 0.5068377 0.1063232
v 0.7701555 0.2392548 0.05341873
v 0.739228 0.2496585 0.03608417
v 0.7508617 0.4952715 0.08578815
v 0.03611336 0.5060692 0.1108885
v 0.107509 0.7424756 0.1941912
v 0.1505955 0.7047683 0.1663118
v 0.08904762 0.4952061 0.08967037
vt 0.1027896 0.2306001
vt 0.1027896 0.2306001
vt 0.1027896 0.2306001
vt 0.1027896 0.2306001
vt 0.1027896 0.2306001
vt 0.1027896 0.2306001
vt 0.1027896 0.2306001
vt 0.1027896 0.2306001
vt 0.1027896 0.2306001
vt 0.1027896 0.2306001
vt 0.1027896 0.2306001
vt 0.1027896 0.2306001
vt 0.1027896 0.2306001
vt 0.1027896 0.2306001
vt 0.1027896 0.2306001
vt 0.1027896 0.2306001
vt 0.1027896 0.2306
vt 0.1027896 0.2306
vt 0.1027896 0.2306001
vt 0.1027895 0.2306001
vt 0.1027895 0.2306001
vt 0.1027896 0.2306001
vt 0.1027896 0.2306001
vt 0.1027896 0.2306001
vt 0.1027896 0.2306001
vt 0.1027896 0.2306001
vt 0.1027896 0.2306001
vt 0.1027896 0.2306001
vt 0.1027896 0.2306001
vt 0.1027896 0.2306001
vt 0.1027896 0.2306001
vt 0.1027896 0.2306001
vt 0.1027896 0.2306001
vt 0.1027896 0.2306001
vt 0.1027896 0.2306001
vt 0.1027895 0.2306001
vt 0.1027895 0.2306001
vt 0.1027896 0.2306001
vt 0.1027896 0.2306001
vt 0.1027896 0.2306
vt 0.1027896 0.2306
vt 0.1027896 0.2306001
vt 0.1027896 0.2306
vt 0.1027896 0.2306001
vt 0.1027896 0.2306001
vt 0.1027896 0.2306
vt 0.1027896 0.2306001
vt 0.1027896 0.2306001
vt 0.1027896 0.2306001
vt 0.1027896 0.2306001
vt 0.1027896 0.2306001
vt 0.1027896 0.2306
vt 0.1027896 0.2306
vt 0.1027896 0.2306001
vt 0.1027896 0.2306
vt 0.1027896 0.2306001
vt 0.1027896 0.2306001
vt 0.1027896 0.2306
vt 0.1027896 0.2306001
vt 0.1027896 0.2306001
vt 0.1027896 0.2306001
vt 0.1027896 0.2306001
vt 0.1027896 0.2306001
vt 0.1027896 0.2306001
vt 0.1027896 0.2306001
vt 0.1027896 0.2306001
vt 0.1027896 0.2306001
vt 0.1027896 0.2306001
vt 0.1027896 0.2306001
vt 0.1027896 0.2306001
vt 0.4217408 0.08918852
vt 0.4217408 0.08918858
vt 0.4217408 0.08918858
vt 0.4217408 0.08918852
vt 0.4217408 0.08918852
vt 0.4217408 0.08918858
vt 0.4217408 0.08918852
vt 0.4217408 0.08918858
vt 0.4217408 0.08918858
vt 0.4217408 0.08918852
vt 0.4217408 0.08918852
vt 0.4217408 0.08918861
vt 0.4217408 0.08918855
vt 0.4217408 0.08918858
vt 0.4217408 0.08918858
vt 0.4217408 0.08918855
vt 0.4217408 0.08918855
vt 0.4217408 0.08918858
vt 0.4217408 0.08918852
vt 0.4217408 0.08918852
vt 0.4217408 0.08918852
vt 0.4217408 0.08918852
vt 0.4217408 0.08918858
vt 0.4217408 0.08918852
vt 0.4217408 0.08918858
vt 0.4217408 0.08918858
vt 0.4217408 0.08918852
vt 0.4217408 0.08918858
vt 0.4217408 0.08918852
vt 0.4217408 0.08918852
vt 0.4217408 0.08918858
vt 0.4217408 0.08918855
vt 0.4217408 0.08918852
vt 0.4217408 0.08918852
vt 0.4217408 0.08918855
vt 0.4217408 0.08918855
vt 0.4217408 0.08918852
vt 0.4217408 0.08918855
vt 0.4217408 0.08918855
vt 0.4217408 0.08918855
vt 0.09124947 0.2514954
vt 0.09124947 0.2514973
vt 0.09124947 0.2514973
vt 0.09124947 0.2514954
vt 0.09124947 0.2514973
vt 0.09124947 0.2514954
vt 0.09124947 0.2514973
vt 0.09124947 0.2514954
vt 0.09124947 0.2514973
vt 0.09124947 0.2514973
vt 0.09124947 0.2514973
vt 0.09124947 0.2514973
vt 0.09124947 0.2514973
vt 0.09124947 0.2514973
vt 0.09124947 0.2514973
vt 0.09124947 0.2514973
vt 0.09124947 0.2514973
vt 0.09124947 0.2514973
vt 0.09124947 0.2514954
vt 0.09124947 0.2514973
vt 0.09124947 0.2514973
vt 0.09124947 0.2514973
vt 0.09124947 0.2514973
vt 0.09124947 0.2514973
vt 0.09124947 0.2514973
vt 0.09124947 0.2514973
vt 0.4217408 0.08918852
vt 0.4217408 0.08918852
vt 0.4217408 0.08918852
vt 0.4217408 0.08918852
vt 0.4217408 0.08918852
vt 0.4217408 0.08918852
vt 0.4217408 0.08918858
vt 0.4217408 0.08918858
vt 0.4217408 0.08918858
vt 0.4217408 0.08918858
vt 0.4217408 0.08918858
vt 0.4217408 0.08918858
vt 0.4217408 0.08918858
vt 0.4217408 0.08918852
vt 0.4217408 0.08918852
vt 0.4217408 0.08918858
vt 0.4217408 0.08918852
vt 0.4217408 0.08918858
vt 0.4217408 0.08918858
vt 0.4217408 0.08918852
vt 0.08135414 0.2526016
vt 0.08135414 0.2526011
vt 0.08135414 0.2526011
vt 0.08135414 0.2526016
vt 0.08135414 0.2526016
vt 0.08135414 0.2526016
vt 0.08135414 0.2526016
vt 0.08135414 0.2526016
vt 0.08135414 0.2526016
vt 0.08135414 0.2526016
vt 0.08135414 0.2526016
vt 0.08135414 0.2526011
vt 0.08135414 0.2526011
vt 0.08135414 0.2526011
vt 0.08135414 0.2526011
vt 0.08135414 0.2526011
vt 0.08135414 0.2526011
vt 0.08135414 0.2526016
vt 0.08135414 0.2526016
vt 0.08135414 0.2526016
vt 0.08135414 0.2526016
vt 0.08135414 0.2526016
vt 0.08135414 0.2526016
vt 0.08135414 0.2526011
vt 0.08135414 0.2526016
vt 0.08135414 0.2526011
vt 0.08135414 0.2526016
vt 0.08135414 0.2526016
vt 0.08135414 0.2526016
vt 0.08135414 0.2526016
vt 0.08135414 0.2526016
vt 0.08135414 0.2526016
vt 0.08135414 0.2526016
vt 0.08135414 0.2526016
vt 0.08135414 0.2526016
vt 0.08135414 0.2526016
vt 0 1
vt 0 1
vt 0 1
vt 0 1
vt 0 1
vt 0 1
vt 0 1
vt 0 1
vt 0 1
vt 0 1
vt 0 1
vt 0 1
vt 0 1
vt 0 1
vt 0 1
vt 0 1
vt 0 1
vt 0 1
vt 0 1
vt 0 1
vt 0 1
vt 0 1
vt 0 1
vt 0 1
vt 0 1
vt 0 1
vt 0 1
vt 0 1
vt 0 1
vt 0 1
vt 0 1
vt 0 1
vt 0 1
vt 0 1
vt 0 1
vt 0 1
vt 0 1
vt 0 1
vt 0 1
vt 0 1
vt 0 1
vt 0 1
vt 0 1
vt 0 1
vt 0 1
vt 0 1
vt 0 1
vt 0 1
vt 0 1
vt 0 1
vt 0 1
vt 0 1
vt 0 1
vt 0 1
vt 0 1
vt 0 1
vn 0 0 -1
vn 0 0 -1
vn 0 0 -1
vn 0 0 -1
vn 0 0 -1
vn 0 0 -1
vn 0 0 -1
vn 0 0 -1
vn 0 0 -1
vn 0 0 -1
vn -1 0 0
vn -1 0 0
vn -1 0 0
vn -1 0 0
vn 0.8767325 0 -0.4809782
vn 0.8767325 0 -0.4809782
vn 0.8767325 0 -0.4809782
vn 0.8767325 0 -0.4809782
vn -0.6381924 0.7698769 0
vn -0.6381924 0.7698769 0
vn -0.6381924 0.7698769 0
vn -0.6381924 0.7698769 0
vn -0.6381958 -0.7698742 0
vn -0.6381958 -0.7698742 0
vn -0.6381958 -0.7698742 0
vn -0.6381958 -0.7698742 0
vn 0 -1 0
vn 0 -1 0
vn 0 -1 0
vn 0 -1 0
vn -0.001563207 0 -0.9999988
vn -0.001563207 0 -0.9999988
vn -0.001563207 0 -0.9999988
vn -0.001563207 0 -0.9999988
vn 0 1 0
vn 0 1 0
vn 0 1 0
vn 0 1 0
vn 0.9640817 0 -0.265606
vn 0.9640817 0 -0.265606
vn 0.9640817 0 -0.265606
vn 0.9640817 0 -0.265606
vn 0.9640817 0 -0.2656059
vn 0.9640817 0 -0.2656059
vn 0.9640817 0 -0.2656059
vn 0.9640817 0 -0.2656059
vn 0 0 1
vn 0 0 1
vn 0 0 1
vn 0 0 1
vn 0.8235506 0.4206012 -0.3806033
vn 0.8235506 0.4206012 -0.3806033
vn 0.8235506 0.4206012 -0.3806033
vn 0.8235506 0.4206012 -0.3806033
vn 0.8235517 -0.4206 -0.3806025
vn 0.8235517 -0.4206 -0.3806025
vn 0.8235517 -0.4206 -0.3806025
vn 0.8235517 -0.4206 -0.3806025
vn -0.0006254578 -0.5090195 -0.8607547
vn -0.0006254578 -0.5090195 -0.8607547
vn -0.0006254578 -0.5090195 -0.8607547
vn -0.0006254578 -0.5090195 -0.8607547
vn 0.5342355 0 -0.8453357
vn 0.5342355 0 -0.8453357
vn 0.5342355 0 -0.8453357
vn 0.5342355 0 -0.8453357
vn -0.0006254578 0.5090195 -0.8607547
vn -0.0006254578 0.5090195 -0.8607547
vn -0.0006254578 0.5090195 -0.8607547
vn -0.0006254578 0.5090195 -0.8607547
vn 0 0 -1
vn 0 0 -1
vn 0 0 -1
vn 0 0 -1
vn 0 0 -1
vn 0 0 -1
vn 0 0 -1
vn 0 0 -1
vn 0 0 -1
vn 0 0 -1
vn 0 0 -1
vn 0 0 -1
vn 0 0 -1
vn 0 0 -1
vn 0 0 -1
vn 0 0 -1
vn 0 0 -1
vn 0 0 -1
vn -0.002104415 0.2495272 -0.9683656
vn -0.002435072 0.2476232 -0.9688533
vn -0.002104415 0.2495272 -0.9683656
vn -0.002435072 0.2476232 -0.9688533
vn 0.0152285 0.2872999 -0.9577196
vn 0.0152285 0.2872999 -0.9577196
vn 0.03318941 0.328253 -0.9440066
vn 0.03318941 0.328253 -0.9440066
vn -0.06350217 0.3444427 -0.9366572
vn -0.06350217 0.3444427 -0.9366572
vn -0.06350217 0.3444427 -0.9366572
vn -0.06350217 0.3444427 -0.9366572
vn -0.02193072 0.2377078 -0.9710892
vn -0.0438182 0.1998602 -0.9788441
vn -0.0438182 0.1998602 -0.9788441
vn -0.02193072 0.2377078 -0.9710892
vn 0 0.2750867 -0.9614195
vn 0 0.2750867 -0.9614195
vn 0.008579786 0.2451498 -0.9694472
vn 0.008579786 0.2451498 -0.9694472
vn 0.0171507 0.2149594 -0.9764723
vn 0.0171507 0.2149594 -0.9764723
vn -0.001745895 -0.6955805 -0.7184461
vn -0.002104188 -0.6962972 -0.7177505
vn -0.001745895 -0.6955805 -0.7184461
vn -0.002104188 -0.6962972 -0.7177505
vn -0.002462479 -0.6970131 -0.7170542
vn -0.002462479 -0.6970131 -0.7170542
vn -0.8741446 0.1157543 -0.4716696
vn -0.8710376 0.09740932 -0.4814613
vn -0.8710376 0.09740932 -0.4814613
vn -0.8741446 0.1157543 -0.4716696
vn -0.8768652 0.1340482 -0.4616694
vn -0.8768652 0.1340482 -0.4616694
vn -0.0001940857 0.9966383 -0.0819264
vn -0.0002131793 0.9964508 -0.0841775
vn -0.0002131793 0.9964508 -0.0841775
vn -0.0001940857 0.9966383 -0.0819264
vn -0.0001749911 0.9968209 -0.0796749
vn -0.0001749911 0.9968209 -0.0796749
vn 0.8658808 -0.07129934 -0.495143
vn 0.8658808 -0.07129934 -0.495143
vn 0.8658808 -0.07129934 -0.495143
vn 0.8658808 -0.07129934 -0.495143
vn 0.887852 0.09375122 -0.4504772
vn 0.887852 0.09375122 -0.4504772
vn 0.887852 0.09375122 -0.4504772
vn 0.887852 0.09375122 -0.4504772
vn 0 0.8309339 -0.5563712
vn 0 0.8309339 -0.5563712
vn 0 0.8309339 -0.5563712
vn 0 0.8309339 -0.5563712
vn 0 0.8309339 -0.5563712
vn 0 0.8309339 -0.5563712
vn 0 -0.8309267 -0.556382
vn 0 -0.8309267 -0.556382
vn 0 -0.8309267 -0.556382
vn 0 -0.8309267 -0.556382
vn 0 -0.8309267 -0.556382
vn 0 -0.8309267 -0.556382
vn 0.4961691 0 -0.8682259
vn 0.4961691 0 -0.8682259
vn 0.4961691 0 -0.8682259
vn 0.4961691 0 -0.8682259
vn -0.4962012 0 -0.8682075
vn -0.4962012 0 -0.8682075
vn -0.4962012 0 -0.8682075
vn -0.4962012 0 -0.8682075
vn 1 0 0
vn 1 0 0
vn 1 0 0
vn 1 0 0
vn 1 0 0
vn 1 0 0
vn 1 0 0
vn 1 0 0
vn 1 0 0
vn 1 0 0
vn 1 0 0
vn 0 -1 0
vn 0 -1 0
vn 0 -1 0
vn 0 -1 0
vn 0 -1 0
vn 0 -1 0
vn 0 1 0
vn 0 1 0
vn 0 1 0
vn 0 1 0
vn 0 1 0
vn 0 1 0
vn -1 0 0
vn -1 0 0
vn -1 0 0
vn -1 0 0
vn -1 0 0
vn -1 0 0
vn -1 0 0
vn -1 0 0
vn -1 0 0
vn -0.9572947 0.2891138 0
vn -0.9572947 0.2891138 0
vn -0.9572947 0.2891138 0
vn -0.9572947 0.2891138 0
vn 0 0 1
vn 0 0 1
vn 0 0 1
vn 0 0 1
vn 0 0 1
vn 0 0 1
vn 0 0 1
vn 0.02913375 -0.307282 0.9511724
vn 0.05619974 -0.3435329 0.9374575
vn 0.05619974 -0.3435329 0.9374575
vn 0.02913375 -0.307282 0.9511724
vn 0.002202862 -0.2703741 0.9627528
vn 0.002202862 -0.2703741 0.9627528
vn -0.02051261 -0.295553 0.9551061
vn -0.02051261 -0.295553 0.9551061
vn -0.04340333 -0.3203429 0.9463068
vn -0.04340333 -0.3203429 0.9463068
vn 0 -0.3745849 0.9271927
vn 0 -0.3745849 0.9271927
vn 0 -0.3745849 0.9271927
vn 0 -0.3745849 0.9271927
vn -0.06343819 -0.2130368 0.9749826
vn -0.06343819 -0.2130368 0.9749826
vn -0.06343819 -0.2130368 0.9749826
vn -0.06343819 -0.2130368 0.9749826
vn 0.07379344 -0.1961081 0.9778017
vn 0.07379344 -0.1961081 0.9778017
vn 0.07379344 -0.1961081 0.9778017
vn 0.07379344 -0.1961081 0.9778017
vn 0.001994753 -0.5952929 0.8035064
vn 0.001710707 -0.5961952 0.8028378
vn 0.001710707 -0.5961952 0.8028378
vn 0.001994753 -0.5952929 0.8035064
vn 0.002278797 -0.5943897 0.8041739
vn 0.002278797 -0.5943897 0.8041739
vn -0.4155522 -0.3334601 0.8462391
vn -0.4155522 -0.3334601 0.8462391
vn -0.4155522 -0.3334601 0.8462391
vn -0.4155522 -0.3334601 0.8462391
vn -0.0002616531 0.8606835 0.5091403
vn -0.0001779923 0.8624636 0.5061192
vn -0.0003559823 0.8642845 0.5030032
vn -0.0002144832 0.8588668 0.5121992
vn -0.0004289638 0.8570917 0.5151637
vn 0.3356656 -0.199802 0.9205476
vn 0.3356656 -0.199802 0.9205476
vn 0.3356656 -0.199802 0.9205476
vn 0.3356656 -0.199802 0.9205476
vn -0.5935838 -0.1448234 0.791634
vn -0.5935838 -0.1448234 0.791634
vn -0.5935838 -0.1448234 0.791634
vn -0.5935838 -0.1448234 0.791634
vn 0.2534491 -0.3926259 0.8840863
vn 0.2534491 -0.3926259 0.8840863
vn 0.2534491 -0.3926259 0.8840863
vn 0.2534491 -0.3926259 0.8840863
g SM_Veh_Car_Van_Door_r_0
f 3/3/3 2/2/2 1/1/1
f 3/3/3 1/1/1 4/4/4
f 4/4/4 1/1/1 5/5/5
f 6/6/6 4/4/4 5/5/5
f 3/3/3 4/4/4 7/7/7
f 7/7/7 8/8/8 3/3/3
f 7/7/7 9/9/9 8/8/8
f 9/9/9 10/10/10 8/8/8
f 13/13/13 12/12/12 11/11/11
f 14/14/14 13/13/13 11/11/11
f 17/17/17 16/16/16 15/15/15
f 18/18/18 17/17/17 15/15/15
f 21/21/21 20/20/20 19/19/19
f 22/22/22 21/21/21 19/19/19
f 25/25/25 24/24/24 23/23/23
f 26/26/26 25/25/25 23/23/23
f 29/29/29 28/28/28 27/27/27
f 30/30/30 29/29/29 27/27/27
f 33/33/33 32/32/32 31/31/31
f 34/34/34 33/33/33 31/31/31
f 37/37/37 36/36/36 35/35/35
f 38/38/38 37/37/37 35/35/35
f 41/41/41 40/40/40 39/39/39
f 42/42/42 41/41/41 39/39/39
f 45/45/45 44/44/44 43/43/43
f 46/46/46 45/45/45 43/43/43
f 49/49/49 48/48/48 47/47/47
f 50/50/50 49/49/49 47/47/47
f 53/53/53 52/52/52 51/51/51
f 54/54/54 53/53/53 51/51/51
f 57/57/57 56/56/56 55/55/55
f 58/58/58 57/57/57 55/55/55
f 61/61/61 60/60/60 59/59/59
f 62/62/62 61/61/61 59/59/59
f 65/65/65 64/64/64 63/63/63
f 66/66/66 65/65/65 63/63/63
f 69/69/69 68/68/68 67/67/67
f 70/70/70 69/69/69 67/67/67
f 73/73/73 72/72/72 71/71/71
f 72/72/72 74/74/74 71/71/71
f 75/75/75 74/74/74 72/72/72
f 76/76/76 75/75/75 72/72/72
f 79/79/79 78/78/78 77/77/77
f 78/78/78 80/80/80 77/77/77
f 81/81/81 80/80/80 78/78/78
f 82/82/82 81/81/81 78/78/78
f 85/85/85 84/84/84 83/83/83
f 84/84/84 86/86/86 83/83/83
f 87/87/87 86/86/86 84/84/84
f 88/88/88 87/87/87 84/84/84
f 91/91/91 90/90/90 89/89/89
f 90/90/90 92/92/92 89/89/89
f 90/90/90 93/93/93 92/92/92
f 93/93/93 94/94/94 92/92/92
f 93/93/93 95/95/95 94/94/94
f 95/95/95 96/96/96 94/94/94
f 99/99/99 98/98/98 97/97/97
f 100/100/100 99/99/99 97/97/97
f 103/103/103 102/102/102 101/101/101
f 104/104/104 103/103/103 101/101/101
f 104/104/104 101/101/101 105/105/105
f 106/106/106 104/104/104 105/105/105
f 106/106/106 105/105/105 107/107/107
f 108/108/108 106/106/106 107/107/107
f 108/108/108 107/107/107 109/109/109
f 110/110/110 108/108/108 109/109/109
f 113/113/113 112/112/112 111/111/111
f 112/112/112 114/114/114 111/111/111
f 112/112/112 115/115/115 114/114/114
f 115/115/115 116/116/116 114/114/114
f 119/119/119 118/118/118 117/117/117
f 120/120/120 119/119/119 117/117/117
f 120/120/120 117/117/117 121/121/121
f 122/122/122 120/120/120 121/121/121
f 125/125/125 124/124/124 123/123/123
f 126/126/126 125/125/125 123/123/123
f 126/126/126 123/123/123 127/127/127
f 128/128/128 126/126/126 127/127/127
f 131/131/131 130/130/130 129/129/129
f 132/132/132 131/131/131 129/129/129
f 135/135/135 134/134/134 133/133/133
f 136/136/136 135/135/135 133/133/133
f 139/139/139 138/138/138 137/137/137
f 138/138/138 140/140/140 137/137/137
f 138/138/138 141/141/141 140/140/140
f 141/141/141 142/142/142 140/140/140
f 145/145/145 144/144/144 143/143/143
f 146/146/146 145/145/145 143/143/143
f 146/146/146 143/143/143 147/147/147
f 148/148/148 146/146/146 147/147/147
f 151/151/151 150/150/150 149/149/149
f 152/152/152 151/151/151 149/149/149
f 155/155/155 154/154/154 153/153/153
f 156/156/156 155/155/155 153/153/153
f 159/159/159 158/158/158 157/157/157
f 160/160/160 159/159/159 157/157/157
f 160/160/160 157/157/157 161/161/161
f 160/160/160 161/161/161 162/162/162
f 163/163/163 160/160/160 162/162/162
f 163/163/163 162/162/162 164/164/164
f 165/165/165 163/163/163 164/164/164
f 165/165/165 164/164/164 166/166/166
f 167/167/167 165/165/165 166/166/166
f 170/170/170 169/169/169 168/168/168
f 169/169/169 171/171/171 168/168/168
f 169/169/169 172/172/172 171/171/171
f 172/172/172 173/173/173 171/171/171
f 176/176/176 175/175/175 174/174/174
f 177/177/177 176/176/176 174/174/174
f 177/177/177 174/174/174 178/178/178
f 179/179/179 177/177/177 178/178/178
f 182/182/182 181/181/181 180/180/180
f 181/181/181 183/183/183 180/180/180
f 181/181/181 184/184/184 183/183/183
f 181/181/181 185/185/185 184/184/184
f 185/185/185 186/186/186 184/184/184
f 185/185/185 187/187/187 186/186/186
f 187/187/187 188/188/188 186/186/186
f 191/191/191 190/190/190 189/189/189
f 192/192/192 191/191/191 189/189/189
f 195/195/195 194/194/194 193/193/193
f 194/194/194 196/196/196 193/193/193
f 196/196/196 197/197/197 193/193/193
f 197/197/197 198/198/198 193/193/193
f 199/199/199 197/197/197 196/196/196
f 202/202/202 201/201/201 200/200/200
f 203/203/203 202/202/202 200/200/200
f 203/203/203 200/200/200 204/204/204
f 205/205/205 203/203/203 204/204/204
f 205/205/205 204/204/204 206/206/206
f 207/207/207 205/205/205 206/206/206
f 207/207/207 206/206/206 208/208/208
f 209/209/209 207/207/207 208/208/208
f 212/212/212 211/211/211 210/210/210
f 213/213/213 212/212/212 210/210/210
f 216/216/216 215/215/215 214/214/214
f 217/217/217 216/216/216 214/214/214
f 220/220/220 219/219/219 218/218/218
f 221/221/221 220/220/220 218/218/218
f 224/224/224 223/223/223 222/222/222
f 225/225/225 224/224/224 222/222/222
f 225/225/225 222/222/222 226/226/226
f 227/227/227 225/225/225 226/226/226
f 230/230/230 229/229/229 228/228/228
f 231/231/231 230/230/230 228/228/228
f 234/234/234 233/233/233 232/232/232
f 232/232/232 233/233/233 235/235/235
f 236/236/236 232/232/232 235/235/235
f 239/239/239 238/238/238 237/237/237
f 240/240/240 239/239/239 237/237/237
f 243/243/243 242/242/242 241/241/241
f 244/244/244 243/243/243 241/241/241
f 247/247/247 246/246/246 245/245/245
f 248/248/248 247/247/247 245/245/245
