g SM_Veh_Light_Armored_Car_Glass_01
v -1.054031 -0.2364096 0.5729551
v -1.054031 -0.2384743 0.1001375
v -1.054031 0.1125257 0.09394336
v -1.051967 0.110461 0.566761
v -1.056096 0.1125257 -0.7732332
v -1.056096 0.1145904 -0.2818332
v -1.056096 -0.2364096 -0.2880273
v -1.056096 -0.2343449 -0.7773626
v -0.04851985 -0.1930508 0.777361
v -1.023061 -0.1951155 0.7752963
v -1.004479 0.1517551 0.7257433
v -0.9982845 0.1889198 0.7216139
v -0.9714433 0.2178257 0.7174845
v -0.938408 0.2322786 0.7154198
v -0.04645514 0.2384727 0.7154198
v 1.054033 -0.2364096 0.5729551
v 1.054033 0.1125257 0.09394336
v 1.054033 -0.2384743 0.1001375
v 1.051968 0.110461 0.566761
v 1.056098 0.1125257 -0.7732332
v 1.056098 -0.2364096 -0.2880273
v 1.056098 0.1145904 -0.2818332
v 1.056098 -0.2343449 -0.7773626
v 0.0485214 -0.1930508 0.777361
v 1.00448 0.1517551 0.7257433
v 1.023063 -0.1951155 0.7752963
v 0.9982861 0.1889198 0.7216139
v 0.9714449 0.2178257 0.7174845
v 0.9384096 0.2322786 0.7154198
v 0.04645669 0.2384727 0.7154198
v -1.054031 -0.2364096 0.5729551
v -1.054031 0.1125257 0.09394336
v -1.054031 -0.2384743 0.1001375
v -1.054031 0.110461 0.566761
v -1.056096 0.1125257 -0.7732332
v -1.056096 -0.2364096 -0.2880273
v -1.056096 0.1145904 -0.2818332
v -1.056096 -0.2343449 -0.7773626
v -0.04851985 -0.1930508 0.777361
v -1.004479 0.1538198 0.7257433
v -1.023061 -0.1951155 0.777361
v -0.9982845 0.1889198 0.7216139
v -0.9714433 0.2178257 0.7174845
v -0.938408 0.2322786 0.7154198
v -0.04645514 0.2384727 0.7154198
v 1.054033 -0.2364096 0.5729551
v 1.054033 -0.2384743 0.1001375
v 1.054033 0.1125257 0.09394336
v 1.054033 0.110461 0.566761
v 1.056098 0.1125257 -0.7732332
v 1.056098 0.1145904 -0.2818332
v 1.056098 -0.2364096 -0.2880273
v 1.056098 -0.2343449 -0.7773626
v 0.0485214 -0.1930508 0.777361
v 1.023063 -0.1951155 0.777361
v 1.00448 0.1538198 0.7257433
v 0.9982861 0.1889198 0.7216139
v 0.9714449 0.2178257 0.7174845
v 0.9384096 0.2322786 0.7154198
v 0.04645669 0.2384727 0.7154198
vt 0.09079792 0.01047237
vt 0.09048168 0.01047237
vt 0.09048168 0.01015612
vt 0.09079792 0.01015612
vt 0.09048168 0.01015612
vt 0.09048168 0.01015612
vt 0.09048168 0.01015612
vt 0.09048168 0.01015612
vt 0.09048168 0.01047237
vt 0.09079792 0.01047237
vt 0.09079792 0.01015612
vt 0.09079792 0.01015612
vt 0.09079792 0.01015612
vt 0.09079792 0.01015612
vt 0.09048168 0.01015612
vt 0.09016544 0.01047237
vt 0.09016544 0.01047237
vt 0.09016544 0.01047237
vt 0.09016544 0.01047237
vt 0.08984919 0.01015612
vt 0.08984919 0.01047237
vt 0.08984919 0.01015612
vt 0.08984919 0.01047237
vt 0.09048168 0.01047237
vt 0.09016544 0.01047237
vt 0.09016544 0.01047237
vt 0.09016544 0.01047237
vt 0.09016544 0.01047237
vt 0.09016544 0.01047237
vt 0.09048168 0.01015612
vt 0.09079792 0.01047237
vt 0.09048168 0.01015612
vt 0.09048168 0.01047237
vt 0.09079792 0.01015612
vt 0.09048168 0.01015612
vt 0.09048168 0.01015612
vt 0.09048168 0.01015612
vt 0.09048168 0.01015612
vt 0.09048168 0.01047237
vt 0.09079792 0.01015612
vt 0.09079792 0.01047237
vt 0.09079792 0.01015612
vt 0.09079792 0.01015612
vt 0.09079792 0.01015612
vt 0.09048168 0.01015612
vt 0.09016544 0.01047237
vt 0.09016544 0.01047237
vt 0.09016544 0.01047237
vt 0.09016544 0.01047237
vt 0.08984919 0.01015612
vt 0.08984919 0.01015612
vt 0.08984919 0.01047237
vt 0.08984919 0.01047237
vt 0.09048168 0.01047237
vt 0.09016544 0.01047237
vt 0.09016544 0.01047237
vt 0.09016544 0.01047237
vt 0.09016544 0.01047237
vt 0.09016544 0.01047237
vt 0.09048168 0.01015612
vn -0.999874 0.01587105 -0.0003439156
vn -0.999874 0.01587105 -0.0003439156
vn -0.999874 0.01587105 -0.0003439156
vn -0.999874 0.01587105 -0.0003439156
vn -0.999874 0.01587105 -0.0003439156
vn -0.999874 0.01587105 -0.0003439156
vn -0.999874 0.01587105 -0.0003439156
vn -0.999874 0.01587105 -0.0003439156
vn -0.01587105 0.1428392 0.9896187
vn -0.01587105 0.1428392 0.9896187
vn -0.01587105 0.1428392 0.9896187
vn -0.01587105 0.1110971 0.9936828
vn 0.01587099 0.1428392 0.9896187
vn -0.01587105 0.1428392 0.9896187
vn -0.01587105 0.1428392 0.9896187
vn 0.999874 0.01587105 -0.0003439156
vn 0.999874 0.01587105 -0.0003439156
vn 0.999874 0.01587105 -0.0003439156
vn 0.999874 0.01587105 -0.0003439156
vn 0.999874 0.01587105 -0.0003439156
vn 0.999874 0.01587105 -0.0003439156
vn 0.999874 0.01587105 -0.0003439156
vn 0.999874 0.01587105 -0.0003439156
vn 0.01587099 0.1428392 0.9896187
vn 0.01587099 0.1428392 0.9896187
vn 0.01587099 0.1428392 0.9896187
vn 0.01587099 0.1110971 0.9936828
vn -0.01587105 0.1428392 0.9896187
vn 0.01587099 0.1428392 0.9896187
vn 0.01587099 0.1428392 0.9896187
vn 0.999874 -0.01587099 -0.000346655
vn 0.999874 -0.01587099 -0.000346655
vn 0.999874 -0.01587099 -0.000346655
vn 0.999874 -0.01587099 -0.000346655
vn 0.999874 0.01587105 -0.0003439156
vn 0.999874 0.01587105 -0.0003439156
vn 0.999874 0.01587105 -0.0003439156
vn 0.999874 0.01587105 -0.0003439156
vn 0.01587099 -0.1428391 -0.9896187
vn 0.01587099 -0.1428391 -0.9896187
vn 0.01587099 -0.1428391 -0.9896187
vn 0.01587099 -0.1110971 -0.9936828
vn -0.01587105 -0.1428391 -0.9896187
vn 0.01587099 -0.1428391 -0.9896187
vn 0.01587099 -0.1428391 -0.9896187
vn -0.999874 -0.01587099 -0.000346655
vn -0.999874 -0.01587099 -0.000346655
vn -0.999874 -0.01587099 -0.000346655
vn -0.999874 -0.01587099 -0.000346655
vn -0.999874 0.01587105 -0.0003439156
vn -0.999874 0.01587105 -0.0003439156
vn -0.999874 0.01587105 -0.0003439156
vn -0.999874 0.01587105 -0.0003439156
vn -0.01587105 -0.1428391 -0.9896187
vn -0.01587105 -0.1428391 -0.9896187
vn -0.01587105 -0.1428391 -0.9896187
vn -0.01587105 -0.1110971 -0.9936828
vn 0.01587099 -0.1428391 -0.9896187
vn -0.01587105 -0.1428391 -0.9896187
vn -0.01587105 -0.1428391 -0.9896187
g SM_Veh_Light_Armored_Car_Glass_01_0
f 3/3/3 2/2/2 1/1/1
f 4/4/4 3/3/3 1/1/1
f 7/7/7 6/6/6 5/5/5
f 8/8/8 7/7/7 5/5/5
f 11/11/11 10/10/10 9/9/9
f 12/12/12 11/11/11 9/9/9
f 13/13/13 12/12/12 9/9/9
f 14/14/14 13/13/13 9/9/9
f 15/15/15 14/14/14 9/9/9
f 18/18/18 17/17/17 16/16/16
f 17/17/17 19/19/19 16/16/16
f 22/22/22 21/21/21 20/20/20
f 21/21/21 23/23/23 20/20/20
f 26/26/26 25/25/25 24/24/24
f 25/25/25 27/27/27 24/24/24
f 27/27/27 28/28/28 24/24/24
f 28/28/28 29/29/29 24/24/24
f 29/29/29 30/30/30 24/24/24
f 33/33/33 32/32/32 31/31/31
f 32/32/32 34/34/34 31/31/31
f 37/37/37 36/36/36 35/35/35
f 36/36/36 38/38/38 35/35/35
f 41/41/41 40/40/40 39/39/39
f 40/40/40 42/42/42 39/39/39
f 42/42/42 43/43/43 39/39/39
f 43/43/43 44/44/44 39/39/39
f 44/44/44 45/45/45 39/39/39
f 48/48/48 47/47/47 46/46/46
f 49/49/49 48/48/48 46/46/46
f 52/52/52 51/51/51 50/50/50
f 53/53/53 52/52/52 50/50/50
f 56/56/56 55/55/55 54/54/54
f 57/57/57 56/56/56 54/54/54
f 58/58/58 57/57/57 54/54/54
f 59/59/59 58/58/58 54/54/54
f 60/60/60 59/59/59 54/54/54
