g SM_Veh_Car_Taxi_Glass
v -0.822557 1.012095 0.6716171
v -0.7597564 1.150282 0.6721427
v -0.8133789 1.031741 0.7794357
v -0.822557 1.012095 0.6716171
v -0.7412094 1.366011 0.3442627
v -0.7597564 1.150282 0.6721427
v 0.8225585 1.012095 0.6716171
v 0.8133804 1.031741 0.7794357
v 0.7597572 1.150282 0.6721427
v 0.8225585 1.012095 0.6716171
v 0.7597572 1.150282 0.6721427
v 0.7412101 1.366011 0.3442627
v 0 1.4092 -1.170946
v -0.539041 1.387264 -1.159958
v -0.5153655 1.26213 -1.356276
v 0 1.284066 -1.372513
v 0.5153655 1.26213 -1.356276
v 0.5390419 1.387264 -1.159958
v -0.6161773 1.371317 -1.153902
v -0.6674765 1.349695 -1.163087
v -0.7097503 1.215351 -1.305724
v -0.6603209 1.23082 -1.321548
v -0.539041 1.387264 -1.159958
v -0.5153655 1.26213 -1.356276
v -0.664572 1.091863 -1.487354
v -0.474263 1.116376 -1.535046
v -0.6603209 1.23082 -1.321548
v -0.7097503 1.215351 -1.305724
v -0.7159973 1.082479 -1.446796
v -0.664572 1.091863 -1.487354
v 0 1.284066 -1.372513
v -0.5153655 1.26213 -1.356276
v -0.474263 1.116376 -1.535046
v 0 1.119877 -1.556474
v 0.4742622 1.116376 -1.535047
v 0.5153655 1.26213 -1.356276
v 0.6161773 1.371317 -1.153902
v 0.7097511 1.215351 -1.305724
v 0.6674766 1.349695 -1.163087
v 0.6603218 1.23082 -1.321548
v 0.5390419 1.387264 -1.159958
v 0.5153655 1.26213 -1.356276
v 0.6645736 1.091863 -1.487354
v 0.4742622 1.116376 -1.535047
v 0.6603218 1.23082 -1.321548
v 0.6645736 1.091863 -1.487354
v 0.7159973 1.082479 -1.446796
v 0.7097511 1.215351 -1.305724
v -0.8127052 1.214044 -0.9512779
v -0.8427246 1.044433 -0.7065185
v -0.8581008 1.059766 -0.9988914
v -0.7333068 1.391722 -0.8266693
v -0.7059723 1.422392 -0.7010734
v -0.7029342 1.442518 -0.2642929
v -0.8278137 1.02599 -0.1997871
v -0.7029341 1.427852 -0.6722511
v -0.8388061 1.041982 -0.6743568
v -0.82471 1.020541 -0.008497619
v -0.7087607 1.433092 -0.1226372
v -0.7412094 1.366011 0.3442627
v -0.822557 1.012095 0.6716171
v 0 1.254097 0.7627922
v -0.5568298 1.392981 0.4439293
v 0 1.416267 0.47826
v -0.6396774 1.246365 0.714627
v 0 1.028853 1.109281
v -0.6792343 1.028853 1.015114
v -0.6396774 1.246365 0.714627
v -0.715361 1.221372 0.6848236
v -0.6762924 1.367114 0.4396232
v -0.5568298 1.392981 0.4439293
v -0.6792343 1.028853 1.015114
v -0.729628 1.026862 0.9529243
v -0.715361 1.221372 0.6848236
v -0.6396774 1.246365 0.714627
v 0 1.254097 0.7627922
v 0 1.416267 0.47826
v 0.5568298 1.392981 0.4439293
v 0.6396773 1.246365 0.714627
v 0 1.028853 1.109281
v 0.679235 1.028853 1.015113
v 0.6396773 1.246365 0.714627
v 0.5568298 1.392981 0.4439293
v 0.6762924 1.367114 0.4396232
v 0.7153617 1.221372 0.6848236
v 0.679235 1.028853 1.015113
v 0.6396773 1.246365 0.714627
v 0.7153617 1.221372 0.6848236
v 0.7296278 1.026862 0.9529243
v 0.8247108 1.020541 -0.008496856
v 0.7412101 1.366011 0.3442627
v 0.7087616 1.433092 -0.1226364
v 0.8225585 1.012095 0.6716171
v 0.702935 1.442518 -0.2642929
v 0.702935 1.427852 -0.6722511
v 0.8278137 1.02599 -0.1997871
v 0.8388076 1.041982 -0.6743568
v 0.8127052 1.214044 -0.9512779
v 0.8581008 1.059766 -0.9988914
v 0.8427246 1.044433 -0.7065185
v 0.7333068 1.391722 -0.8266693
v 0.7059715 1.422392 -0.7010734
vt 0.4596559 0.08460823
vt 0.4596559 0.08460823
vt 0.4596559 0.08460823
vt 0.4596559 0.08460823
vt 0.4596559 0.08460823
vt 0.4596559 0.08460823
vt 0.4596559 0.08460823
vt 0.4596559 0.08460823
vt 0.4596559 0.08460823
vt 0.4596559 0.08460823
vt 0.4596559 0.08460823
vt 0.4596559 0.08460823
vt 0.4596559 0.08460823
vt 0.4596559 0.08460823
vt 0.4596559 0.08460823
vt 0.4596559 0.08460823
vt 0.4596559 0.08460823
vt 0.4596559 0.08460823
vt 0.4596559 0.08460823
vt 0.4596559 0.08460823
vt 0.4596559 0.08460823
vt 0.4596559 0.08460823
vt 0.4596559 0.08460823
vt 0.4596559 0.08460823
vt 0.4596559 0.08460823
vt 0.4596559 0.08460823
vt 0.4596559 0.08460823
vt 0.4596559 0.08460823
vt 0.4596559 0.08460823
vt 0.4596559 0.08460823
vt 0.4596559 0.08460823
vt 0.4596559 0.08460823
vt 0.4596559 0.08460823
vt 0.4596559 0.08460823
vt 0.4596559 0.08460823
vt 0.4596559 0.08460823
vt 0.4596559 0.08460823
vt 0.4596559 0.08460823
vt 0.4596559 0.08460823
vt 0.4596559 0.08460823
vt 0.4596559 0.08460823
vt 0.4596559 0.08460823
vt 0.4596559 0.08460823
vt 0.4596559 0.08460823
vt 0.4596559 0.08460823
vt 0.4596559 0.08460823
vt 0.4596559 0.08460823
vt 0.4596559 0.08460823
vt 0.4596559 0.08460823
vt 0.4596559 0.08460823
vt 0.4596559 0.08460823
vt 0.4596559 0.08460823
vt 0.4596559 0.08460823
vt 0.4596559 0.08460823
vt 0.4596559 0.08460823
vt 0.4596559 0.08460823
vt 0.4596559 0.08460823
vt 0.4596559 0.08460823
vt 0.4596559 0.08460823
vt 0.4596559 0.08460823
vt 0.4596559 0.08460823
vt 0.4596559 0.08460823
vt 0.4596559 0.08460823
vt 0.4596559 0.08460823
vt 0.4596559 0.08460823
vt 0.4596559 0.08460823
vt 0.4596559 0.08460823
vt 0.4596559 0.08460823
vt 0.4596559 0.08460823
vt 0.4596559 0.08460823
vt 0.4596559 0.08460823
vt 0.4596559 0.08460823
vt 0.4596559 0.08460823
vt 0.4596559 0.08460823
vt 0.4596559 0.08460823
vt 0.4596559 0.08460823
vt 0.4596559 0.08460823
vt 0.4596559 0.08460823
vt 0.4596559 0.08460823
vt 0.4596559 0.08460823
vt 0.4596559 0.08460823
vt 0.4596559 0.08460823
vt 0.4596559 0.08460823
vt 0.4596559 0.08460823
vt 0.4596559 0.08460823
vt 0.4596559 0.08460823
vt 0.4596559 0.08460823
vt 0.4596559 0.08460823
vt 0.4596559 0.08460823
vt 0.4596559 0.08460823
vt 0.4596559 0.08460823
vt 0.4596559 0.08460823
vt 0.4596559 0.08460823
vt 0.4596559 0.08460823
vt 0.4596559 0.08460823
vt 0.4596559 0.08460823
vt 0.4596559 0.08460823
vt 0.4596559 0.08460823
vt 0.4596559 0.08460823
vt 0.4596559 0.08460823
vt 0.4596559 0.08460823
vt 0.4596559 0.08460823
vn -0.9103956 0.4137335 0.002109481
vn -0.9103956 0.4137335 0.002109481
vn -0.9103956 0.4137335 0.002109481
vn -0.8893934 0.4033785 0.2150937
vn -0.8893934 0.4033785 0.2150937
vn -0.8893934 0.4033785 0.2150937
vn 0.9103937 0.4137376 0.002108561
vn 0.9103937 0.4137376 0.002108561
vn 0.9103937 0.4137376 0.002108561
vn 0.8893909 0.4033823 0.2150963
vn 0.8893909 0.4033823 0.2150963
vn 0.8893909 0.4033823 0.2150963
vn 0 0.8451593 -0.5345145
vn -0.04890781 0.844148 -0.5338749
vn -0.04890781 0.844148 -0.5338749
vn 0 0.8451593 -0.5345145
vn 0.04890776 0.8441479 -0.5338749
vn 0.04890776 0.8441479 -0.5338749
vn -0.2924387 0.7689992 -0.5684364
vn -0.3151434 0.752281 -0.5785828
vn -0.3151434 0.752281 -0.5785828
vn -0.2870514 0.7552617 -0.5892209
vn -0.2694714 0.7850268 -0.5577795
vn -0.2728921 0.7564952 -0.5943441
vn -0.2757226 0.7263274 -0.6296234
vn -0.2757226 0.7263274 -0.6296234
vn -0.4829232 0.6636229 -0.5713053
vn -0.4829232 0.6636229 -0.5713053
vn -0.4829232 0.6636229 -0.5713053
vn -0.4829232 0.6636229 -0.5713053
vn 0 0.7577755 -0.6525154
vn -0.04426809 0.7570323 -0.6518761
vn -0.04426809 0.7570323 -0.6518761
vn 0 0.7577755 -0.6525154
vn 0.0442676 0.7570331 -0.6518754
vn 0.0442676 0.7570331 -0.6518754
vn 0.2924388 0.7689995 -0.5684358
vn 0.3151435 0.7522816 -0.5785818
vn 0.3151435 0.7522816 -0.5785818
vn 0.2870511 0.7552622 -0.5892203
vn 0.2694715 0.7850268 -0.5577794
vn 0.2728916 0.7564957 -0.5943438
vn 0.2757214 0.7263284 -0.6296226
vn 0.2757214 0.7263284 -0.6296226
vn 0.4829296 0.6636205 -0.5713029
vn 0.4829296 0.6636205 -0.5713029
vn 0.4829296 0.6636205 -0.5713029
vn 0.4829296 0.6636205 -0.5713029
vn -0.9497005 0.2996045 0.0911382
vn -0.9447142 0.3118918 0.1011854
vn -0.962549 0.26334 0.06443208
vn -0.9343709 0.335697 0.1194094
vn -0.9339696 0.336181 0.121174
vn -0.9582622 0.2857063 -0.01027131
vn -0.9510228 0.3089112 0.01137956
vn -0.9510228 0.3089112 0.01137956
vn -0.9427757 0.3317889 0.03301837
vn -0.9691604 0.2461547 -0.01166116
vn -0.9643666 0.2629486 -0.02924271
vn -0.9691604 0.2461547 -0.01166116
vn -0.973359 0.2292097 0.005927551
vn -0.06061728 0.8517184 0.5204819
vn -0.05573121 0.8760905 0.4789148
vn -0.05573121 0.8760905 0.4789148
vn -0.06061728 0.8517184 0.5204819
vn -0.06536114 0.8253482 0.5608281
vn -0.06536114 0.8253482 0.5608281
vn -0.2967774 0.8591994 0.4167728
vn -0.2967774 0.8591994 0.4167728
vn -0.2967774 0.8591994 0.4167728
vn -0.2967774 0.8591994 0.4167728
vn -0.5018261 0.7222854 0.4758933
vn -0.5018261 0.7222854 0.4758933
vn -0.5018261 0.7222854 0.4758933
vn -0.5018261 0.7222854 0.4758933
vn 0.06061744 0.8517182 0.5204821
vn 0.05573122 0.8760906 0.4789148
vn 0.05573122 0.8760906 0.4789148
vn 0.06061744 0.8517182 0.5204821
vn 0.06536146 0.8253479 0.5608286
vn 0.06536146 0.8253479 0.5608286
vn 0.2967763 0.8591998 0.4167729
vn 0.2967763 0.8591998 0.4167729
vn 0.2967763 0.8591998 0.4167729
vn 0.2967763 0.8591998 0.4167729
vn 0.5018243 0.7222858 0.4758945
vn 0.5018243 0.7222858 0.4758945
vn 0.5018243 0.7222858 0.4758945
vn 0.5018243 0.7222858 0.4758945
vn 0.9691602 0.2461552 -0.01166168
vn 0.9691602 0.2461552 -0.01166168
vn 0.9643667 0.2629485 -0.02924268
vn 0.9733589 0.2292108 0.005926479
vn 0.9582626 0.2857047 -0.01027114
vn 0.9510228 0.3089112 0.01138118
vn 0.9510228 0.3089112 0.01138118
vn 0.9427751 0.3317903 0.03302143
vn 0.9497004 0.2996046 0.09113836
vn 0.9625489 0.2633404 0.06443242
vn 0.9447139 0.3118924 0.1011873
vn 0.9343703 0.3356977 0.119412
vn 0.9339684 0.3361824 0.1211791
g SM_Veh_Car_Taxi_Glass_0
f 3/3/3 2/2/2 1/1/1
f 6/6/6 5/5/5 4/4/4
f 9/9/9 8/8/8 7/7/7
f 12/12/12 11/11/11 10/10/10
f 15/15/15 14/14/14 13/13/13
f 16/16/16 15/15/15 13/13/13
f 17/17/17 16/16/16 13/13/13
f 18/18/18 17/17/17 13/13/13
f 21/21/21 20/20/20 19/19/19
f 22/22/22 21/21/21 19/19/19
f 22/22/22 19/19/19 23/23/23
f 24/24/24 22/22/22 23/23/23
f 25/25/25 22/22/22 24/24/24
f 26/26/26 25/25/25 24/24/24
f 29/29/29 28/28/28 27/27/27
f 30/30/30 29/29/29 27/27/27
f 33/33/33 32/32/32 31/31/31
f 34/34/34 33/33/33 31/31/31
f 35/35/35 34/34/34 31/31/31
f 36/36/36 35/35/35 31/31/31
f 39/39/39 38/38/38 37/37/37
f 38/38/38 40/40/40 37/37/37
f 37/37/37 40/40/40 41/41/41
f 40/40/40 42/42/42 41/41/41
f 40/40/40 43/43/43 42/42/42
f 43/43/43 44/44/44 42/42/42
f 47/47/47 46/46/46 45/45/45
f 48/48/48 47/47/47 45/45/45
f 51/51/51 50/50/50 49/49/49
f 49/49/49 50/50/50 52/52/52
f 52/52/52 50/50/50 53/53/53
f 56/56/56 55/55/55 54/54/54
f 57/57/57 55/55/55 56/56/56
f 60/60/60 59/59/59 58/58/58
f 61/61/61 60/60/60 58/58/58
f 64/64/64 63/63/63 62/62/62
f 63/63/63 65/65/65 62/62/62
f 62/62/62 65/65/65 66/66/66
f 65/65/65 67/67/67 66/66/66
f 70/70/70 69/69/69 68/68/68
f 71/71/71 70/70/70 68/68/68
f 74/74/74 73/73/73 72/72/72
f 75/75/75 74/74/74 72/72/72
f 78/78/78 77/77/77 76/76/76
f 79/79/79 78/78/78 76/76/76
f 79/79/79 76/76/76 80/80/80
f 81/81/81 79/79/79 80/80/80
f 84/84/84 83/83/83 82/82/82
f 85/85/85 84/84/84 82/82/82
f 88/88/88 87/87/87 86/86/86
f 89/89/89 88/88/88 86/86/86
f 92/92/92 91/91/91 90/90/90
f 91/91/91 93/93/93 90/90/90
f 96/96/96 95/95/95 94/94/94
f 96/96/96 97/97/97 95/95/95
f 100/100/100 99/99/99 98/98/98
f 100/100/100 98/98/98 101/101/101
f 100/100/100 101/101/101 102/102/102
