g SM_Veh_Car_Van_Door_r_Glass
v 0.3104483 0.2275551 0.06347274
v 0.02542248 0.01812167 -0.01374359
v 0.3311155 0.01818871 -0.01538219
v 0.02543697 0.2276203 0.06414508
v -0.2691507 0.2276856 0.06514148
v -0.3306986 0.01812339 -0.01149998
v 0.3194818 -0.2274243 -0.06508617
v 0.3311155 0.01818871 -0.01538219
v 0.02542248 0.01812167 -0.01374359
v 0.02540626 -0.2275548 -0.06511383
v -0.3311155 -0.2276856 -0.06514148
v -0.3306986 0.01812339 -0.01149998
vt 0.4596559 0.08460823
vt 0.4596559 0.08460823
vt 0.4596559 0.08460823
vt 0.4596559 0.08460823
vt 0.4596559 0.08460823
vt 0.4596559 0.08460823
vt 0.4596559 0.08460823
vt 0.4596559 0.08460823
vt 0.4596559 0.08460823
vt 0.4596559 0.08460823
vt 0.4596559 0.08460823
vt 0.4596559 0.08460823
vn -0.003665326 0.350314 -0.9366252
vn -0.004150118 0.3484455 -0.9373199
vn -0.003665326 0.350314 -0.9366252
vn -0.004150118 0.3484455 -0.9373199
vn -0.004634893 0.3465755 -0.9380107
vn -0.004634893 0.3465755 -0.9380107
vn -0.00269721 0.2015728 -0.9794699
vn -0.00269721 0.2015728 -0.9794699
vn -0.002887964 0.2052616 -0.9787028
vn -0.002887964 0.2052616 -0.9787028
vn -0.003078676 0.2089474 -0.977922
vn -0.003078676 0.2089474 -0.977922
g SM_Veh_Car_Van_Door_r_Glass_0
f 3/3/3 2/2/2 1/1/1
f 2/2/2 4/4/4 1/1/1
f 5/5/5 4/4/4 2/2/2
f 6/6/6 5/5/5 2/2/2
f 9/9/9 8/8/8 7/7/7
f 10/10/10 9/9/9 7/7/7
f 10/10/10 11/11/11 9/9/9
f 11/11/11 12/12/12 9/9/9
