g SM_Veh_Car_Van_Plates
v 0.2311874 0.4603125 -2.379763
v 0.2424074 0.4755657 -2.37972
v 0.2365383 0.48084 -2.3913
v 0.2255844 0.466637 -2.39134
v 0.2311874 0.6430569 -2.37925
v 0.07519283 0.6367973 -2.390863
v 0.2255844 0.6367973 -2.390864
v 0.07706375 0.6430569 -2.37925
v -0.07519264 0.6367973 -2.390864
v -0.07706355 0.6430569 -2.379251
v -0.2255844 0.6367973 -2.390863
v -0.2311874 0.6430569 -2.37925
v -0.2424074 0.4755657 -2.37972
v -0.2311874 0.4603125 -2.379763
v -0.2255844 0.466637 -2.391339
v -0.2365383 0.48084 -2.3913
v 0.07706375 0.4603125 -2.379763
v 0.2311874 0.4603125 -2.379763
v 0.2255844 0.466637 -2.39134
v 0.07519283 0.466637 -2.391339
v -0.07706355 0.4603125 -2.379763
v -0.07519264 0.466637 -2.39134
v -0.2311874 0.4603125 -2.379763
v -0.2255844 0.466637 -2.391339
v 0.2061033 0.485017 -2.39129
v 0.2138069 0.5038775 -2.391236
v 0.07112274 0.4882118 -2.391279
v 0.06870078 0.6184174 -2.390913
v 0.2153276 0.604459 -2.390953
v 0.2061033 0.6184174 -2.390913
v -0.0687006 0.485017 -2.39129
v -0.07106609 0.6127068 -2.39093
v -0.21611 0.4938301 -2.391264
v -0.2061033 0.485017 -2.391288
v -0.2145078 0.5923536 -2.390988
v -0.2061033 0.6184174 -2.390915
v 0.2424074 0.6278034 -2.379293
v 0.2311874 0.6430569 -2.37925
v 0.2255844 0.6367973 -2.390864
v 0.2365383 0.6225943 -2.390903
v -0.2311874 0.6430569 -2.37925
v -0.2424074 0.6278034 -2.379292
v -0.2365383 0.6225943 -2.390903
v -0.2255844 0.6367973 -2.390863
v 0.2424074 0.4755657 -2.37972
v 0.2424074 0.6278034 -2.379293
v 0.2365383 0.6225943 -2.390903
v 0.2365383 0.48084 -2.3913
v -0.2424074 0.6278034 -2.379292
v -0.2424074 0.4755657 -2.37972
v -0.2365383 0.48084 -2.3913
v -0.2365383 0.6225943 -2.390903
v -0.2177481 0.3035068 2.609574
v -0.2283125 0.3178734 2.609574
v -0.2227821 0.3228104 2.620505
v -0.2124723 0.3094331 2.620505
v -0.2177481 0.4756283 2.609574
v -0.07082424 0.4697019 2.620505
v -0.2124723 0.4697019 2.620505
v -0.07258014 0.4756283 2.609574
v 0.07082405 0.4697019 2.620505
v 0.07257995 0.4756283 2.609574
v 0.2124723 0.4697019 2.620505
v 0.2177496 0.4756283 2.609574
v 0.2283125 0.3178734 2.609574
v 0.2177496 0.3035068 2.609574
v 0.2124723 0.3094331 2.620505
v 0.2227819 0.3228104 2.620505
v -0.07258014 0.3035068 2.609574
v -0.2177481 0.3035068 2.609574
v -0.2124723 0.3094331 2.620505
v -0.07082424 0.3094331 2.620505
v 0.07257995 0.3035068 2.609574
v 0.07082405 0.3094331 2.620505
v 0.2177496 0.3035068 2.609574
v 0.2124723 0.3094331 2.620505
v -0.1941233 0.3267446 2.620505
v -0.2013775 0.3445087 2.620505
v -0.06698818 0.3297536 2.620505
v -0.06470679 0.4523904 2.620505
v -0.2028078 0.4392436 2.620505
v -0.1941233 0.4523904 2.620505
v 0.06470661 0.3267446 2.620505
v 0.06693515 0.4470118 2.620505
v 0.2035477 0.3350453 2.620505
v 0.1941233 0.3267446 2.620505
v 0.2020401 0.4278418 2.620505
v 0.1941233 0.4523904 2.620505
v -0.2283125 0.4612616 2.609574
v -0.2177481 0.4756283 2.609574
v -0.2124723 0.4697019 2.620505
v -0.2227821 0.4563246 2.620505
v 0.2177496 0.4756283 2.609574
v 0.2283125 0.4612616 2.609574
v 0.2227819 0.4563246 2.620505
v 0.2124723 0.4697019 2.620505
v -0.2283125 0.3178734 2.609574
v -0.2283125 0.4612616 2.609574
v -0.2227821 0.4563246 2.620505
v -0.2227821 0.3228104 2.620505
v 0.2283125 0.4612616 2.609574
v 0.2283125 0.3178734 2.609574
v 0.2227819 0.3228104 2.620505
v 0.2227819 0.4563246 2.620505
v 0.2124723 0.4697019 2.620505
v 0.06756382 0.4609272 2.620505
v 0.07082405 0.4697019 2.620505
v -0.07082424 0.4697019 2.620505
v 0.2026851 0.4609272 2.620505
v -0.06756382 0.4609272 2.620505
v 0.2125208 0.4490146 2.620505
v 0.2227819 0.4563246 2.620505
v -0.2124723 0.4697019 2.620505
v -0.2026851 0.4609272 2.620505
v -0.2125208 0.4490146 2.620505
v -0.2227821 0.4563246 2.620505
v -0.2125208 0.3301202 2.620505
v -0.2227821 0.3228104 2.620505
v -0.2026851 0.3182078 2.620505
v -0.2124723 0.3094331 2.620505
v 0.2125208 0.3301202 2.620505
v 0.2227819 0.3228104 2.620505
v -0.06756382 0.3182078 2.620505
v -0.07082424 0.3094331 2.620505
v 0.07082405 0.3094331 2.620505
v 0.06756382 0.3182078 2.620505
v 0.2124723 0.3094331 2.620505
v 0.2026851 0.3182078 2.620505
v -0.2026851 0.4609272 2.620505
v -0.2028078 0.4392436 2.620505
v -0.2125208 0.4490146 2.620505
v -0.2125208 0.3301202 2.620505
v -0.1941233 0.4523904 2.620505
v -0.2013775 0.3445087 2.620505
v -0.06756382 0.4609272 2.620505
v -0.06470679 0.4523904 2.620505
v 0.06756382 0.4609272 2.620505
v 0.06693515 0.4470118 2.620505
v -0.2026851 0.3182078 2.620505
v -0.1941233 0.3267446 2.620505
v 0.2026851 0.4609272 2.620505
v 0.1941233 0.4523904 2.620505
v 0.2020401 0.4278418 2.620505
v 0.2125208 0.4490146 2.620505
v -0.06698818 0.3297536 2.620505
v -0.06756382 0.3182078 2.620505
v 0.06756382 0.3182078 2.620505
v 0.06470661 0.3267446 2.620505
v 0.2035477 0.3350453 2.620505
v 0.2125208 0.3301202 2.620505
v 0.2026851 0.3182078 2.620505
v 0.1941233 0.3267446 2.620505
v -0.2255844 0.6367973 -2.390863
v -0.07172909 0.6274808 -2.390888
v -0.07519264 0.6367973 -2.390864
v 0.07519283 0.6367973 -2.390863
v -0.2151939 0.6274808 -2.390888
v 0.07172909 0.6274808 -2.390888
v -0.2256443 0.6148332 -2.390925
v -0.2365383 0.6225943 -2.390903
v 0.2255844 0.6367973 -2.390864
v 0.2151939 0.6274808 -2.390888
v 0.2256443 0.6148332 -2.390925
v 0.2365383 0.6225943 -2.390903
v 0.2256443 0.4886009 -2.391278
v 0.2365383 0.48084 -2.3913
v 0.2151939 0.4759534 -2.391315
v 0.2255844 0.466637 -2.39134
v -0.2256443 0.4886009 -2.391278
v -0.2365383 0.48084 -2.3913
v 0.07172909 0.4759534 -2.391315
v 0.07519283 0.466637 -2.391339
v -0.07519264 0.466637 -2.39134
v -0.07172909 0.4759534 -2.391315
v -0.2255844 0.466637 -2.391339
v -0.2151939 0.4759534 -2.391313
v 0.2151939 0.6274808 -2.390888
v 0.2153276 0.604459 -2.390953
v 0.2256443 0.6148332 -2.390925
v 0.2256443 0.4886009 -2.391278
v 0.2061033 0.6184174 -2.390913
v 0.2138069 0.5038775 -2.391236
v 0.07172909 0.6274808 -2.390888
v 0.06870078 0.6184174 -2.390913
v -0.07172909 0.6274808 -2.390888
v -0.07106609 0.6127068 -2.39093
v 0.2151939 0.4759534 -2.391315
v 0.2061033 0.485017 -2.39129
v -0.2151939 0.6274808 -2.390888
v -0.2061033 0.6184174 -2.390915
v -0.2145078 0.5923536 -2.390988
v -0.2256443 0.6148332 -2.390925
v 0.07112274 0.4882118 -2.391279
v 0.07172909 0.4759534 -2.391315
v -0.07172909 0.4759534 -2.391315
v -0.0687006 0.485017 -2.39129
v -0.21611 0.4938301 -2.391264
v -0.2256443 0.4886009 -2.391278
v -0.2151939 0.4759534 -2.391313
v -0.2061033 0.485017 -2.391288
vt 0.4368204 0.07033148
vt 0.4368204 0.07033148
vt 0.4368204 0.07033148
vt 0.4368204 0.07033148
vt 0.4368204 0.07033148
vt 0.4368204 0.07033148
vt 0.4368204 0.07033148
vt 0.4368204 0.07033148
vt 0.4368204 0.07033148
vt 0.4368204 0.07033148
vt 0.4368204 0.07033148
vt 0.4368204 0.07033148
vt 0.4368204 0.07033148
vt 0.4368204 0.07033148
vt 0.4368204 0.07033148
vt 0.4368204 0.07033148
vt 0.4368204 0.07033148
vt 0.4368204 0.07033148
vt 0.4368204 0.07033148
vt 0.4368204 0.07033148
vt 0.4368204 0.07033148
vt 0.4368204 0.07033148
vt 0.4368204 0.07033148
vt 0.4368204 0.07033148
vt 0.004093345 0.7439851
vt 0.002121352 0.7483022
vt 0.03865601 0.7447163
vt 0.03927545 0.7745188
vt 0.001731727 0.771324
vt 0.004093248 0.7745189
vt 0.0744576 0.7439851
vt 0.07506408 0.7732118
vt 0.1122011 0.7460023
vt 0.1096397 0.7439851
vt 0.1117914 0.7685533
vt 0.1096396 0.7745188
vt 0.4368204 0.07033148
vt 0.4368204 0.07033148
vt 0.4368204 0.07033148
vt 0.4368204 0.07033148
vt 0.4368204 0.07033148
vt 0.4368204 0.07033148
vt 0.4368204 0.07033148
vt 0.4368204 0.07033148
vt 0.4368204 0.07033148
vt 0.4368204 0.07033148
vt 0.4368204 0.07033148
vt 0.4368204 0.07033148
vt 0.4368204 0.07033148
vt 0.4368204 0.07033148
vt 0.4368204 0.07033148
vt 0.4368204 0.07033148
vt 0.4368204 0.07033148
vt 0.4368204 0.07033148
vt 0.4368204 0.07033148
vt 0.4368204 0.07033148
vt 0.4368204 0.07033148
vt 0.4368204 0.07033148
vt 0.4368204 0.07033148
vt 0.4368204 0.07033148
vt 0.4368204 0.07033148
vt 0.4368204 0.07033148
vt 0.4368204 0.07033148
vt 0.4368204 0.07033148
vt 0.4368204 0.07033148
vt 0.4368204 0.07033148
vt 0.4368204 0.07033148
vt 0.4368204 0.07033148
vt 0.4368204 0.07033148
vt 0.4368204 0.07033148
vt 0.4368204 0.07033148
vt 0.4368204 0.07033148
vt 0.4368204 0.07033148
vt 0.4368204 0.07033148
vt 0.4368204 0.07033148
vt 0.4368204 0.07033148
vt 0.004093345 0.7439851
vt 0.002121352 0.7483022
vt 0.03865601 0.7447163
vt 0.03927545 0.7745188
vt 0.001731727 0.771324
vt 0.004093248 0.7745189
vt 0.0744576 0.7439851
vt 0.07506408 0.7732118
vt 0.1122011 0.7460023
vt 0.1096397 0.7439851
vt 0.1117914 0.7685533
vt 0.1096396 0.7745188
vt 0.4368204 0.07033148
vt 0.4368204 0.07033148
vt 0.4368204 0.07033148
vt 0.4368204 0.07033148
vt 0.4368204 0.07033148
vt 0.4368204 0.07033148
vt 0.4368204 0.07033148
vt 0.4368204 0.07033148
vt 0.4368204 0.07033148
vt 0.4368204 0.07033148
vt 0.4368204 0.07033148
vt 0.4368204 0.07033148
vt 0.4368204 0.07033148
vt 0.4368204 0.07033148
vt 0.4368204 0.07033148
vt 0.4368204 0.07033148
vt 0.4368204 0.07033148
vt 0.4368204 0.07033148
vt 0.4368204 0.07033148
vt 0.4368204 0.07033148
vt 0.4368204 0.07033148
vt 0.4368204 0.07033148
vt 0.4368204 0.07033148
vt 0.4368204 0.07033148
vt 0.4368204 0.07033148
vt 0.4368204 0.07033148
vt 0.4368204 0.07033148
vt 0.4368204 0.07033148
vt 0.4368204 0.07033148
vt 0.4368204 0.07033148
vt 0.4368204 0.07033148
vt 0.4368204 0.07033148
vt 0.4368204 0.07033148
vt 0.4368204 0.07033148
vt 0.4368204 0.07033148
vt 0.4368204 0.07033148
vt 0.4368204 0.07033148
vt 0.4368204 0.07033148
vt 0.4368204 0.07033148
vt 0.4368204 0.07033148
vt 0.1052613 0.01104057
vt 0.1052613 0.01104057
vt 0.1052613 0.01104057
vt 0.1052613 0.01104057
vt 0.1052613 0.01104057
vt 0.1052613 0.01104057
vt 0.1052613 0.01104057
vt 0.1052613 0.01104057
vt 0.1052613 0.01104057
vt 0.1052613 0.01104057
vt 0.1052613 0.01104057
vt 0.1052613 0.01104057
vt 0.1052613 0.01104057
vt 0.1052613 0.01104057
vt 0.1052613 0.01104057
vt 0.1052613 0.01104057
vt 0.1052613 0.01104057
vt 0.1052613 0.01104057
vt 0.1052613 0.01104057
vt 0.1052613 0.01104057
vt 0.1052613 0.01104057
vt 0.1052613 0.01104057
vt 0.1052613 0.01104057
vt 0.1052613 0.01104057
vt 0.4368204 0.07033148
vt 0.4368204 0.07033148
vt 0.4368204 0.07033148
vt 0.4368204 0.07033148
vt 0.4368204 0.07033148
vt 0.4368204 0.07033148
vt 0.4368204 0.07033148
vt 0.4368204 0.07033148
vt 0.4368204 0.07033148
vt 0.4368204 0.07033148
vt 0.4368204 0.07033148
vt 0.4368204 0.07033148
vt 0.4368204 0.07033148
vt 0.4368204 0.07033148
vt 0.4368204 0.07033148
vt 0.4368204 0.07033148
vt 0.4368204 0.07033148
vt 0.4368204 0.07033148
vt 0.4368204 0.07033148
vt 0.4368204 0.07033148
vt 0.4368204 0.07033148
vt 0.4368204 0.07033148
vt 0.4368204 0.07033148
vt 0.4368204 0.07033148
vt 0.1052613 0.01104057
vt 0.1052613 0.01104057
vt 0.1052613 0.01104057
vt 0.1052613 0.01104057
vt 0.1052613 0.01104057
vt 0.1052613 0.01104057
vt 0.1052613 0.01104057
vt 0.1052613 0.01104057
vt 0.1052613 0.01104057
vt 0.1052613 0.01104057
vt 0.1052613 0.01104057
vt 0.1052613 0.01104057
vt 0.1052613 0.01104057
vt 0.1052613 0.01104057
vt 0.1052613 0.01104057
vt 0.1052613 0.01104057
vt 0.1052613 0.01104057
vt 0.1052613 0.01104057
vt 0.1052613 0.01104057
vt 0.1052613 0.01104057
vt 0.1052613 0.01104057
vt 0.1052613 0.01104057
vt 0.1052613 0.01104057
vt 0.1052613 0.01104057
vn 0.6562291 -0.4923964 -0.5717596
vn 0.6562291 -0.4923964 -0.5717596
vn 0.6562291 -0.4923964 -0.5717596
vn 0.6562291 -0.4923964 -0.5717596
vn 0 0.8802723 -0.4744689
vn 0 0.8802714 -0.4744704
vn 0 0.8802723 -0.4744689
vn 0 0.8802714 -0.4744704
vn 0 0.8802689 -0.4744752
vn 0 0.8802689 -0.4744752
vn 0 0.8802671 -0.4744784
vn 0 0.8802671 -0.4744784
vn -0.656233 -0.4923919 -0.5717592
vn -0.656233 -0.4923919 -0.5717592
vn -0.656233 -0.4923919 -0.5717592
vn -0.656233 -0.4923919 -0.5717592
vn 0 -0.8775744 -0.4794404
vn 0 -0.8775737 -0.4794419
vn 0 -0.8775737 -0.4794419
vn 0 -0.8775744 -0.4794404
vn 0 -0.8775753 -0.4794388
vn 0 -0.8775753 -0.4794388
vn 0 -0.8775753 -0.4794389
vn 0 -0.8775753 -0.4794389
vn 0 0.002866893 -0.9999959
vn 0 0.00283363 -0.9999961
vn 0 0.002847677 -0.9999959
vn 0 0.002796689 -0.9999961
vn 0 0.002809925 -0.9999961
vn 0 0.002795103 -0.9999961
vn 0 0.002795897 -0.9999961
vn 0 0.002806489 -0.9999961
vn 0 0.002777903 -0.9999962
vn 0 0.002743482 -0.9999963
vn 0 0.002808024 -0.9999961
vn 0 0.00281688 -0.9999961
vn 0.6562694 0.4955981 -0.5689402
vn 0.6562694 0.4955981 -0.5689402
vn 0.6562694 0.4955981 -0.5689402
vn 0.6562694 0.4955981 -0.5689402
vn -0.6562657 0.4956025 -0.5689406
vn -0.6562657 0.4956025 -0.5689406
vn -0.6562657 0.4956025 -0.5689406
vn -0.6562657 0.4956025 -0.5689406
vn 0.8922066 0.001266362 -0.4516257
vn 0.8922066 0.001266362 -0.4516257
vn 0.8922066 0.001266362 -0.4516257
vn 0.8922066 0.001266362 -0.4516257
vn -0.8922126 0.001266329 -0.4516139
vn -0.8922126 0.001266329 -0.4516139
vn -0.8922126 0.001266329 -0.4516139
vn -0.8922126 0.001266329 -0.4516139
vn -0.6565678 -0.4939992 0.5699854
vn -0.6565678 -0.4939992 0.5699854
vn -0.6565678 -0.4939992 0.5699854
vn -0.6565678 -0.4939992 0.5699854
vn 0 0.8791186 0.4766032
vn 0 0.8791168 0.4766065
vn 0 0.8791186 0.4766032
vn 0 0.8791168 0.4766065
vn 0 0.8791132 0.4766131
vn 0 0.8791132 0.4766131
vn 0 0.8791115 0.4766164
vn 0 0.8791115 0.4766164
vn 0.6565617 -0.4939579 0.5700285
vn 0.6565617 -0.4939579 0.5700285
vn 0.6565617 -0.4939579 0.5700285
vn 0.6565617 -0.4939579 0.5700285
vn 0 -0.8791175 0.4766049
vn 0 -0.8791194 0.4766017
vn 0 -0.8791194 0.4766017
vn 0 -0.8791175 0.4766049
vn 0 -0.8791139 0.4766116
vn 0 -0.8791139 0.4766116
vn 0 -0.8791122 0.4766149
vn 0 -0.8791122 0.4766149
vn 0 0 1
vn 0 0 1
vn 0 0 1
vn 0 0 1
vn 0 0 1
vn 0 0 1
vn 0 0 1
vn 0 0 1
vn 0 0 1
vn 0 0 1
vn 0 0 1
vn 0 0 1
vn -0.6565679 0.4939984 0.5699862
vn -0.6565679 0.4939984 0.5699862
vn -0.6565679 0.4939984 0.5699862
vn -0.6565679 0.4939984 0.5699862
vn 0.6565617 0.493957 0.5700291
vn 0.6565617 0.493957 0.5700291
vn 0.6565617 0.493957 0.5700291
vn 0.6565617 0.493957 0.5700291
vn -0.8923029 0 0.4514373
vn -0.8923029 0 0.4514373
vn -0.8923029 0 0.4514373
vn -0.8923029 0 0.4514373
vn 0.8922934 0 0.4514559
vn 0.8922934 0 0.4514559
vn 0.8922934 0 0.4514559
vn 0.8922934 0 0.4514559
vn 0 0 1
vn 0 0 1
vn 0 0 1
vn 0 0 1
vn 0 0 1
vn 0 0 1
vn 0 0 1
vn 0 0 1
vn 0 0 1
vn 0 0 1
vn 0 0 1
vn 0 0 1
vn 0 0 1
vn 0 0 1
vn 0 0 1
vn 0 0 1
vn 0 0 1
vn 0 0 1
vn 0 0 1
vn 0 0 1
vn 0 0 1
vn 0 0 1
vn 0 0 1
vn 0 0 1
vn 0 0 1
vn 0 0 1
vn 0 0 1
vn 0 0 1
vn 0 0 1
vn 0 0 1
vn 0 0 1
vn 0 0 1
vn 0 0 1
vn 0 0 1
vn 0 0 1
vn 0 0 1
vn 0 0 1
vn 0 0 1
vn 0 0 1
vn 0 0 1
vn 0 0 1
vn 0 0 1
vn 0 0 1
vn 0 0 1
vn 0 0 1
vn 0 0 1
vn 0 0 1
vn 0 0 1
vn 0 0.002747761 -0.9999963
vn 0 0.002743305 -0.9999963
vn 0 0.002681206 -0.9999964
vn 0 0.002671935 -0.9999964
vn 0 0.002788314 -0.9999962
vn 0 0.002719264 -0.9999963
vn 0 0.002807192 -0.9999961
vn 0 0.002802019 -0.9999961
vn 0 0.002725456 -0.9999963
vn 0 0.002751917 -0.9999962
vn 0 0.002795242 -0.9999961
vn 0 0.002788629 -0.9999962
vn 0 0.002813154 -0.9999961
vn 0 0.002801626 -0.9999961
vn 0 0.002789499 -0.9999962
vn 0 0.002717518 -0.9999963
vn 0 0.002782394 -0.9999962
vn 0 0.002793426 -0.9999962
vn 0 0.002752573 -0.9999962
vn 0 0.002635666 -0.9999965
vn 0 0.002700463 -0.9999964
vn 0 0.002749312 -0.9999963
vn 0 0.00277376 -0.9999962
vn 0 0.002755884 -0.9999962
vn 0 0.002751917 -0.9999962
vn 0 0.002809925 -0.9999961
vn 0 0.002795242 -0.9999961
vn 0 0.002813154 -0.9999961
vn 0 0.002795103 -0.9999961
vn 0 0.00283363 -0.9999961
vn 0 0.002719264 -0.9999963
vn 0 0.002796689 -0.9999961
vn 0 0.002743305 -0.9999963
vn 0 0.002806489 -0.9999961
vn 0 0.002789499 -0.9999962
vn 0 0.002866893 -0.9999959
vn 0 0.002788314 -0.9999962
vn 0 0.00281688 -0.9999961
vn 0 0.002808024 -0.9999961
vn 0 0.002807192 -0.9999961
vn 0 0.002847677 -0.9999959
vn 0 0.002752573 -0.9999962
vn 0 0.002749312 -0.9999963
vn 0 0.002795897 -0.9999961
vn 0 0.002777903 -0.9999962
vn 0 0.002782394 -0.9999962
vn 0 0.002755884 -0.9999962
vn 0 0.002743482 -0.9999963
g SM_Veh_Car_Van_Plates_0
f 3/3/3 2/2/2 1/1/1
f 4/4/4 3/3/3 1/1/1
f 7/7/7 6/6/6 5/5/5
f 6/6/6 8/8/8 5/5/5
f 6/6/6 9/9/9 8/8/8
f 9/9/9 10/10/10 8/8/8
f 9/9/9 11/11/11 10/10/10
f 11/11/11 12/12/12 10/10/10
f 15/15/15 14/14/14 13/13/13
f 16/16/16 15/15/15 13/13/13
f 19/19/19 18/18/18 17/17/17
f 20/20/20 19/19/19 17/17/17
f 20/20/20 17/17/17 21/21/21
f 22/22/22 20/20/20 21/21/21
f 22/22/22 21/21/21 23/23/23
f 24/24/24 22/22/22 23/23/23
f 27/27/27 26/26/26 25/25/25
f 27/27/27 28/28/28 26/26/26
f 28/28/28 29/29/29 26/26/26
f 28/28/28 30/30/30 29/29/29
f 27/27/27 31/31/31 28/28/28
f 31/31/31 32/32/32 28/28/28
f 31/31/31 33/33/33 32/32/32
f 34/34/34 33/33/33 31/31/31
f 33/33/33 35/35/35 32/32/32
f 35/35/35 36/36/36 32/32/32
f 39/39/39 38/38/38 37/37/37
f 40/40/40 39/39/39 37/37/37
f 43/43/43 42/42/42 41/41/41
f 44/44/44 43/43/43 41/41/41
f 47/47/47 46/46/46 45/45/45
f 48/48/48 47/47/47 45/45/45
f 51/51/51 50/50/50 49/49/49
f 52/52/52 51/51/51 49/49/49
f 55/55/55 54/54/54 53/53/53
f 56/56/56 55/55/55 53/53/53
f 59/59/59 58/58/58 57/57/57
f 58/58/58 60/60/60 57/57/57
f 58/58/58 61/61/61 60/60/60
f 61/61/61 62/62/62 60/60/60
f 61/61/61 63/63/63 62/62/62
f 63/63/63 64/64/64 62/62/62
f 67/67/67 66/66/66 65/65/65
f 68/68/68 67/67/67 65/65/65
f 71/71/71 70/70/70 69/69/69
f 72/72/72 71/71/71 69/69/69
f 72/72/72 69/69/69 73/73/73
f 74/74/74 72/72/72 73/73/73
f 74/74/74 73/73/73 75/75/75
f 76/76/76 74/74/74 75/75/75
f 79/79/79 78/78/78 77/77/77
f 79/79/79 80/80/80 78/78/78
f 80/80/80 81/81/81 78/78/78
f 80/80/80 82/82/82 81/81/81
f 79/79/79 83/83/83 80/80/80
f 83/83/83 84/84/84 80/80/80
f 83/83/83 85/85/85 84/84/84
f 86/86/86 85/85/85 83/83/83
f 85/85/85 87/87/87 84/84/84
f 87/87/87 88/88/88 84/84/84
f 91/91/91 90/90/90 89/89/89
f 92/92/92 91/91/91 89/89/89
f 95/95/95 94/94/94 93/93/93
f 96/96/96 95/95/95 93/93/93
f 99/99/99 98/98/98 97/97/97
f 100/100/100 99/99/99 97/97/97
f 103/103/103 102/102/102 101/101/101
f 104/104/104 103/103/103 101/101/101
f 107/107/107 106/106/106 105/105/105
f 107/107/107 108/108/108 106/106/106
f 106/106/106 109/109/109 105/105/105
f 108/108/108 110/110/110 106/106/106
f 105/105/105 109/109/109 111/111/111
f 112/112/112 105/105/105 111/111/111
f 108/108/108 113/113/113 110/110/110
f 113/113/113 114/114/114 110/110/110
f 115/115/115 114/114/114 113/113/113
f 116/116/116 115/115/115 113/113/113
f 117/117/117 115/115/115 116/116/116
f 118/118/118 117/117/117 116/116/116
f 119/119/119 117/117/117 118/118/118
f 120/120/120 119/119/119 118/118/118
f 112/112/112 111/111/111 121/121/121
f 122/122/122 112/112/112 121/121/121
f 123/123/123 119/119/119 120/120/120
f 124/124/124 123/123/123 120/120/120
f 124/124/124 125/125/125 123/123/123
f 125/125/125 126/126/126 123/123/123
f 122/122/122 121/121/121 127/127/127
f 125/125/125 127/127/127 126/126/126
f 121/121/121 128/128/128 127/127/127
f 127/127/127 128/128/128 126/126/126
f 131/131/131 130/130/130 129/129/129
f 131/131/131 132/132/132 130/130/130
f 130/130/130 133/133/133 129/129/129
f 132/132/132 134/134/134 130/130/130
f 129/129/129 133/133/133 135/135/135
f 133/133/133 136/136/136 135/135/135
f 135/135/135 136/136/136 137/137/137
f 136/136/136 138/138/138 137/137/137
f 132/132/132 139/139/139 134/134/134
f 139/139/139 140/140/140 134/134/134
f 137/137/137 138/138/138 141/141/141
f 138/138/138 142/142/142 141/141/141
f 141/141/141 142/142/142 143/143/143
f 144/144/144 141/141/141 143/143/143
f 145/145/145 140/140/140 139/139/139
f 146/146/146 145/145/145 139/139/139
f 146/146/146 147/147/147 145/145/145
f 147/147/147 148/148/148 145/145/145
f 144/144/144 143/143/143 149/149/149
f 150/150/150 144/144/144 149/149/149
f 147/147/147 151/151/151 148/148/148
f 150/150/150 149/149/149 151/151/151
f 151/151/151 152/152/152 148/148/148
f 149/149/149 152/152/152 151/151/151
f 155/155/155 154/154/154 153/153/153
f 155/155/155 156/156/156 154/154/154
f 154/154/154 157/157/157 153/153/153
f 156/156/156 158/158/158 154/154/154
f 153/153/153 157/157/157 159/159/159
f 160/160/160 153/153/153 159/159/159
f 156/156/156 161/161/161 158/158/158
f 161/161/161 162/162/162 158/158/158
f 163/163/163 162/162/162 161/161/161
f 164/164/164 163/163/163 161/161/161
f 165/165/165 163/163/163 164/164/164
f 166/166/166 165/165/165 164/164/164
f 167/167/167 165/165/165 166/166/166
f 168/168/168 167/167/167 166/166/166
f 160/160/160 159/159/159 169/169/169
f 170/170/170 160/160/160 169/169/169
f 171/171/171 167/167/167 168/168/168
f 172/172/172 171/171/171 168/168/168
f 172/172/172 173/173/173 171/171/171
f 173/173/173 174/174/174 171/171/171
f 170/170/170 169/169/169 175/175/175
f 173/173/173 175/175/175 174/174/174
f 169/169/169 176/176/176 175/175/175
f 175/175/175 176/176/176 174/174/174
f 179/179/179 178/178/178 177/177/177
f 179/179/179 180/180/180 178/178/178
f 178/178/178 181/181/181 177/177/177
f 180/180/180 182/182/182 178/178/178
f 177/177/177 181/181/181 183/183/183
f 181/181/181 184/184/184 183/183/183
f 183/183/183 184/184/184 185/185/185
f 184/184/184 186/186/186 185/185/185
f 180/180/180 187/187/187 182/182/182
f 187/187/187 188/188/188 182/182/182
f 185/185/185 186/186/186 189/189/189
f 186/186/186 190/190/190 189/189/189
f 189/189/189 190/190/190 191/191/191
f 192/192/192 189/189/189 191/191/191
f 193/193/193 188/188/188 187/187/187
f 194/194/194 193/193/193 187/187/187
f 194/194/194 195/195/195 193/193/193
f 195/195/195 196/196/196 193/193/193
f 192/192/192 191/191/191 197/197/197
f 198/198/198 192/192/192 197/197/197
f 195/195/195 199/199/199 196/196/196
f 198/198/198 197/197/197 199/199/199
f 199/199/199 200/200/200 196/196/196
f 197/197/197 200/200/200 199/199/199
