g SM_Veh_Car_Police_Glass
v -5.677442 1.012095 0.6716167
v -5.68662 1.031741 0.7794357
v -5.740242 1.150282 0.6721427
v -5.677442 1.012095 0.6716167
v -5.740242 1.150282 0.6721427
v -5.75879 1.366011 0.3442627
v -7.322557 1.012095 0.6716171
v -7.259757 1.150282 0.6721427
v -7.313379 1.031741 0.7794357
v -7.322557 1.012095 0.6716171
v -7.24121 1.366011 0.3442627
v -7.259757 1.150282 0.6721427
v -6.5 1.254097 0.7627922
v -7.056829 1.392981 0.4439293
v -6.5 1.416267 0.47826
v -7.139676 1.246365 0.714627
v -6.5 1.028853 1.109281
v -7.179234 1.028853 1.015114
v -7.139676 1.246365 0.714627
v -7.215362 1.221372 0.6848236
v -7.176291 1.367114 0.4396232
v -7.056829 1.392981 0.4439293
v -7.179234 1.028853 1.015114
v -7.229628 1.026862 0.9529243
v -7.215362 1.221372 0.6848236
v -7.139676 1.246365 0.714627
v -6.5 1.254097 0.7627922
v -6.5 1.416267 0.47826
v -5.94317 1.392981 0.4439293
v -5.860322 1.246365 0.7146274
v -6.5 1.028853 1.109281
v -5.820765 1.028853 1.015114
v -5.860322 1.246365 0.7146274
v -5.94317 1.392981 0.4439293
v -5.823708 1.367114 0.4396232
v -5.784638 1.221372 0.6848236
v -5.820765 1.028853 1.015114
v -5.860322 1.246365 0.7146274
v -5.784638 1.221372 0.6848236
v -5.770372 1.026862 0.9529239
v -5.675289 1.020541 -0.008497237
v -5.75879 1.366011 0.3442627
v -5.791238 1.433092 -0.1226368
v -5.677442 1.012095 0.6716167
v -5.797065 1.442518 -0.2642929
v -5.797065 1.427852 -0.6722511
v -5.672187 1.02599 -0.1997871
v -5.661193 1.041982 -0.6743568
v -5.687295 1.214044 -0.9512783
v -5.641899 1.059766 -0.9988914
v -5.657275 1.044433 -0.7065189
v -5.766693 1.391722 -0.8266696
v -5.794028 1.422392 -0.7010734
v -7.32471 1.020541 -0.008496856
v -7.208761 1.433092 -0.1226372
v -7.24121 1.366011 0.3442627
v -7.322557 1.012095 0.6716171
v -7.202934 1.442518 -0.2642929
v -7.327813 1.02599 -0.1997871
v -7.202934 1.427852 -0.6722511
v -7.338807 1.041982 -0.6743568
v -7.312706 1.214044 -0.9512779
v -7.342724 1.044433 -0.7065185
v -7.358101 1.059766 -0.9988914
v -7.233307 1.391722 -0.8266701
v -7.205971 1.422392 -0.7010734
v -6.5 1.4092 -1.170946
v -7.039041 1.387264 -1.159958
v -7.015365 1.26213 -1.356276
v -6.5 1.284066 -1.372513
v -5.984634 1.26213 -1.356276
v -5.960958 1.387264 -1.159958
v -7.116177 1.371317 -1.153902
v -7.167477 1.349695 -1.163087
v -7.209751 1.215351 -1.305724
v -7.160321 1.23082 -1.321547
v -7.039041 1.387264 -1.159958
v -7.015365 1.26213 -1.356276
v -7.164573 1.091863 -1.487354
v -6.974262 1.116376 -1.535047
v -7.160321 1.23082 -1.321547
v -7.209751 1.215351 -1.305724
v -7.215997 1.082479 -1.446796
v -7.164573 1.091863 -1.487354
v -6.5 1.284066 -1.372513
v -7.015365 1.26213 -1.356276
v -6.974262 1.116376 -1.535047
v -6.5 1.119877 -1.556474
v -6.025738 1.116376 -1.535047
v -5.984634 1.26213 -1.356276
v -5.883822 1.371317 -1.153902
v -5.790248 1.215351 -1.305724
v -5.832523 1.349695 -1.163087
v -5.839678 1.23082 -1.321547
v -5.960958 1.387264 -1.159958
v -5.984634 1.26213 -1.356276
v -5.835427 1.091863 -1.487354
v -6.025738 1.116376 -1.535047
v -5.839678 1.23082 -1.321547
v -5.835427 1.091863 -1.487354
v -5.784002 1.082479 -1.446796
v -5.790248 1.215351 -1.305724
vt 0.4596559 0.08460823
vt 0.4596559 0.08460823
vt 0.4596559 0.08460823
vt 0.4596559 0.08460823
vt 0.4596559 0.08460823
vt 0.4596559 0.08460823
vt 0.4596559 0.08460823
vt 0.4596559 0.08460823
vt 0.4596559 0.08460823
vt 0.4596559 0.08460823
vt 0.4596559 0.08460823
vt 0.4596559 0.08460823
vt 0.4596559 0.08460823
vt 0.4596559 0.08460823
vt 0.4596559 0.08460823
vt 0.4596559 0.08460823
vt 0.4596559 0.08460823
vt 0.4596559 0.08460823
vt 0.4596559 0.08460823
vt 0.4596559 0.08460823
vt 0.4596559 0.08460823
vt 0.4596559 0.08460823
vt 0.4596559 0.08460823
vt 0.4596559 0.08460823
vt 0.4596559 0.08460823
vt 0.4596559 0.08460823
vt 0.4596559 0.08460823
vt 0.4596559 0.08460823
vt 0.4596559 0.08460823
vt 0.4596559 0.08460823
vt 0.4596559 0.08460823
vt 0.4596559 0.08460823
vt 0.4596559 0.08460823
vt 0.4596559 0.08460823
vt 0.4596559 0.08460823
vt 0.4596559 0.08460823
vt 0.4596559 0.08460823
vt 0.4596559 0.08460823
vt 0.4596559 0.08460823
vt 0.4596559 0.08460823
vt 0.4596559 0.08460823
vt 0.4596559 0.08460823
vt 0.4596559 0.08460823
vt 0.4596559 0.08460823
vt 0.4596559 0.08460823
vt 0.4596559 0.08460823
vt 0.4596559 0.08460823
vt 0.4596559 0.08460823
vt 0.4596559 0.08460823
vt 0.4596559 0.08460823
vt 0.4596559 0.08460823
vt 0.4596559 0.08460823
vt 0.4596559 0.08460823
vt 0.4596559 0.08460823
vt 0.4596559 0.08460823
vt 0.4596559 0.08460823
vt 0.4596559 0.08460823
vt 0.4596559 0.08460823
vt 0.4596559 0.08460823
vt 0.4596559 0.08460823
vt 0.4596559 0.08460823
vt 0.4596559 0.08460823
vt 0.4596559 0.08460823
vt 0.4596559 0.08460823
vt 0.4596559 0.08460823
vt 0.4596559 0.08460823
vt 0.4596559 0.08460823
vt 0.4596559 0.08460823
vt 0.4596559 0.08460823
vt 0.4596559 0.08460823
vt 0.4596559 0.08460823
vt 0.4596559 0.08460823
vt 0.4596559 0.08460823
vt 0.4596559 0.08460823
vt 0.4596559 0.08460823
vt 0.4596559 0.08460823
vt 0.4596559 0.08460823
vt 0.4596559 0.08460823
vt 0.4596559 0.08460823
vt 0.4596559 0.08460823
vt 0.4596559 0.08460823
vt 0.4596559 0.08460823
vt 0.4596559 0.08460823
vt 0.4596559 0.08460823
vt 0.4596559 0.08460823
vt 0.4596559 0.08460823
vt 0.4596559 0.08460823
vt 0.4596559 0.08460823
vt 0.4596559 0.08460823
vt 0.4596559 0.08460823
vt 0.4596559 0.08460823
vt 0.4596559 0.08460823
vt 0.4596559 0.08460823
vt 0.4596559 0.08460823
vt 0.4596559 0.08460823
vt 0.4596559 0.08460823
vt 0.4596559 0.08460823
vt 0.4596559 0.08460823
vt 0.4596559 0.08460823
vt 0.4596559 0.08460823
vt 0.4596559 0.08460823
vt 0.4596559 0.08460823
vn 0.9103966 0.4137314 0.002106721
vn 0.9103966 0.4137314 0.002106721
vn 0.9103966 0.4137314 0.002106721
vn 0.8893948 0.4033761 0.215092
vn 0.8893948 0.4033761 0.215092
vn 0.8893948 0.4033761 0.215092
vn -0.9103956 0.4137335 0.002109481
vn -0.9103956 0.4137335 0.002109481
vn -0.9103956 0.4137335 0.002109481
vn -0.8893934 0.4033785 0.2150937
vn -0.8893934 0.4033785 0.2150937
vn -0.8893934 0.4033785 0.2150937
vn -0.06061731 0.8517184 0.5204819
vn -0.05573125 0.8760905 0.4789148
vn -0.05573125 0.8760905 0.4789148
vn -0.06061731 0.8517184 0.5204819
vn -0.06536116 0.8253482 0.5608281
vn -0.06536116 0.8253482 0.5608281
vn -0.2967753 0.8592001 0.4167729
vn -0.2967753 0.8592001 0.4167729
vn -0.2967753 0.8592001 0.4167729
vn -0.2967753 0.8592001 0.4167729
vn -0.5018198 0.7222878 0.4758964
vn -0.5018198 0.7222878 0.4758964
vn -0.5018198 0.7222878 0.4758964
vn -0.5018198 0.7222878 0.4758964
vn 0.06061713 0.8517184 0.5204821
vn 0.05573105 0.8760907 0.4789147
vn 0.05573105 0.8760907 0.4789147
vn 0.06061713 0.8517184 0.5204821
vn 0.06536102 0.825348 0.5608284
vn 0.06536102 0.825348 0.5608284
vn 0.2967781 0.8591995 0.416772
vn 0.2967781 0.8591995 0.416772
vn 0.2967781 0.8591995 0.416772
vn 0.2967781 0.8591995 0.416772
vn 0.5018263 0.7222847 0.4758941
vn 0.5018263 0.7222847 0.4758941
vn 0.5018263 0.7222847 0.4758941
vn 0.5018263 0.7222847 0.4758941
vn 0.9691604 0.2461548 -0.01166119
vn 0.9691604 0.2461548 -0.01166119
vn 0.9643664 0.2629492 -0.02924332
vn 0.9733592 0.2292092 0.005928097
vn 0.9582626 0.2857047 -0.01027114
vn 0.9510228 0.3089112 0.01138118
vn 0.9510228 0.3089112 0.01138118
vn 0.9427751 0.3317903 0.03302143
vn 0.9497003 0.2996057 0.09113617
vn 0.9625488 0.2633413 0.06443004
vn 0.9447138 0.3118935 0.1011847
vn 0.9343703 0.3356988 0.1194093
vn 0.9339686 0.3361833 0.1211757
vn -0.9691604 0.2461547 -0.01166112
vn -0.9643667 0.2629485 -0.02924265
vn -0.9691604 0.2461547 -0.01166112
vn -0.973359 0.2292097 0.005927558
vn -0.9582622 0.2857063 -0.0102712
vn -0.9510225 0.3089119 0.01138039
vn -0.9510225 0.3089119 0.01138039
vn -0.9427751 0.3317904 0.03301991
vn -0.9497004 0.2996038 0.0911407
vn -0.9447137 0.3118918 0.1011905
vn -0.9625489 0.2633396 0.06443489
vn -0.93437 0.335697 0.1194155
vn -0.9339679 0.3361822 0.121184
vn 0 0.8451595 -0.5345141
vn -0.0489076 0.8441481 -0.5338745
vn -0.0489076 0.8441481 -0.5338745
vn 0 0.8451595 -0.5345141
vn 0.0489076 0.8441481 -0.5338745
vn 0.0489076 0.8441481 -0.5338745
vn -0.2924376 0.7689992 -0.568437
vn -0.3151411 0.752281 -0.5785841
vn -0.3151411 0.752281 -0.5785841
vn -0.2870508 0.7552616 -0.5892214
vn -0.2694715 0.7850268 -0.5577794
vn -0.2728922 0.7564952 -0.5943441
vn -0.2757227 0.7263274 -0.6296234
vn -0.2757227 0.7263274 -0.6296234
vn -0.4829252 0.663622 -0.5713048
vn -0.4829252 0.663622 -0.5713048
vn -0.4829252 0.663622 -0.5713048
vn -0.4829252 0.663622 -0.5713048
vn 0 0.7577751 -0.6525157
vn -0.04426761 0.7570323 -0.6518761
vn -0.04426761 0.7570323 -0.6518761
vn 0 0.7577751 -0.6525157
vn 0.04426763 0.7570323 -0.6518762
vn 0.04426763 0.7570323 -0.6518762
vn 0.2924387 0.7689992 -0.5684363
vn 0.3151434 0.752281 -0.5785828
vn 0.3151434 0.752281 -0.5785828
vn 0.2870516 0.7552616 -0.5892211
vn 0.2694715 0.7850268 -0.5577794
vn 0.2728922 0.756495 -0.5943443
vn 0.2757228 0.726327 -0.6296237
vn 0.2757228 0.726327 -0.6296237
vn 0.4829239 0.6636222 -0.5713057
vn 0.4829239 0.6636222 -0.5713057
vn 0.4829239 0.6636222 -0.5713057
vn 0.4829239 0.6636222 -0.5713057
g SM_Veh_Car_Police_Glass_0
f 3/3/3 2/2/2 1/1/1
f 6/6/6 5/5/5 4/4/4
f 9/9/9 8/8/8 7/7/7
f 12/12/12 11/11/11 10/10/10
f 15/15/15 14/14/14 13/13/13
f 14/14/14 16/16/16 13/13/13
f 13/13/13 16/16/16 17/17/17
f 16/16/16 18/18/18 17/17/17
f 21/21/21 20/20/20 19/19/19
f 22/22/22 21/21/21 19/19/19
f 25/25/25 24/24/24 23/23/23
f 26/26/26 25/25/25 23/23/23
f 29/29/29 28/28/28 27/27/27
f 30/30/30 29/29/29 27/27/27
f 30/30/30 27/27/27 31/31/31
f 32/32/32 30/30/30 31/31/31
f 35/35/35 34/34/34 33/33/33
f 36/36/36 35/35/35 33/33/33
f 39/39/39 38/38/38 37/37/37
f 40/40/40 39/39/39 37/37/37
f 43/43/43 42/42/42 41/41/41
f 42/42/42 44/44/44 41/41/41
f 47/47/47 46/46/46 45/45/45
f 47/47/47 48/48/48 46/46/46
f 51/51/51 50/50/50 49/49/49
f 51/51/51 49/49/49 52/52/52
f 51/51/51 52/52/52 53/53/53
f 56/56/56 55/55/55 54/54/54
f 57/57/57 56/56/56 54/54/54
f 60/60/60 59/59/59 58/58/58
f 61/61/61 59/59/59 60/60/60
f 64/64/64 63/63/63 62/62/62
f 62/62/62 63/63/63 65/65/65
f 65/65/65 63/63/63 66/66/66
f 69/69/69 68/68/68 67/67/67
f 70/70/70 69/69/69 67/67/67
f 71/71/71 70/70/70 67/67/67
f 72/72/72 71/71/71 67/67/67
f 75/75/75 74/74/74 73/73/73
f 76/76/76 75/75/75 73/73/73
f 76/76/76 73/73/73 77/77/77
f 78/78/78 76/76/76 77/77/77
f 79/79/79 76/76/76 78/78/78
f 80/80/80 79/79/79 78/78/78
f 83/83/83 82/82/82 81/81/81
f 84/84/84 83/83/83 81/81/81
f 87/87/87 86/86/86 85/85/85
f 88/88/88 87/87/87 85/85/85
f 89/89/89 88/88/88 85/85/85
f 90/90/90 89/89/89 85/85/85
f 93/93/93 92/92/92 91/91/91
f 92/92/92 94/94/94 91/91/91
f 91/91/91 94/94/94 95/95/95
f 94/94/94 96/96/96 95/95/95
f 94/94/94 97/97/97 96/96/96
f 97/97/97 98/98/98 96/96/96
f 101/101/101 100/100/100 99/99/99
f 102/102/102 101/101/101 99/99/99
