g SM_Veh_Ambulance_Door_03_Glass
v 0.1610175 0.04723528 0.0002609789
v 0.04827915 0.07698569 0.0002609789
v 0.1218722 0.1213503 0.0002609789
v 0.09107797 0.004958421 0.0002609789
v -0.07802954 0.004958421 0.0002609789
v -0.03627461 0.07698569 0.0002609789
v 0.04827915 0.1604956 0.0002609789
v -0.03627461 0.1604956 0.0002609789
v -0.1083019 0.1213503 0.0002609789
v -0.149013 0.04723528 0.0002609789
v -0.03627461 -0.06915662 0.0002609789
v -0.1500568 -0.0362746 0.0002609789
v -0.1088238 -0.1093457 0.0002609789
v 0.04827915 -0.0717663 0.0002609789
v -0.03627461 -0.1511007 0.0002609789
v 0.04827915 -0.1511007 0.0002609789
v 0.1625833 -0.0362746 0.0002609789
v 0.1208284 -0.1093457 0.0002609789
v -0.03627461 -0.06915662 0.0002609789
v -0.03627461 -0.1511007 0.0002609789
v -0.1088238 -0.1093457 0.0002609789
v -0.2205183 -0.2669707 0.0002609789
v -0.1500568 -0.0362746 0.0002609789
v 0.006002277 -0.2669707 0.0002609789
v -0.2205183 0.005480349 0.0002609789
v 0.04827915 -0.1511007 0.0002609789
v -0.07802954 0.004958421 0.0002609789
v -0.149013 0.04723528 0.0002609789
v -0.1083019 0.1213503 0.0002609789
v -0.2205183 0.2669707 0.0002609789
v 0.2205183 -0.2669707 0.0002609789
v -0.03627461 0.1604956 0.0002609789
v -0.03627461 0.07698569 0.0002609789
v 0.006002277 0.2669707 0.0002609789
v 0.04827915 0.1604956 0.0002609789
v 0.2205183 0.2669707 0.0002609789
v 0.1218722 0.1213503 0.0002609789
v 0.04827915 0.07698569 0.0002609789
v 0.2205183 0.005480349 0.0002609789
v 0.1610175 0.04723528 0.0002609789
v 0.09107797 0.004958421 0.0002609789
v 0.1625833 -0.0362746 0.0002609789
v 0.1208284 -0.1093457 0.0002609789
v 0.04827915 -0.0717663 0.0002609789
v 0.1610175 0.04723528 0.0002609789
v 0.1218722 0.1213503 0.0002609789
v 0.04827915 0.07698569 0.0002609789
v 0.09107797 0.004958421 0.0002609789
v -0.07802954 0.004958421 0.0002609789
v -0.03627461 0.07698569 0.0002609789
v 0.04827915 0.1604956 0.0002609789
v -0.03627461 0.1604956 0.0002609789
v -0.1083019 0.1213503 0.0002609789
v -0.149013 0.04723528 0.0002609789
v -0.03627461 -0.06915662 0.0002609789
v -0.1500568 -0.0362746 0.0002609789
v -0.1088238 -0.1093457 0.0002609789
v 0.04827915 -0.0717663 0.0002609789
v -0.03627461 -0.1511007 0.0002609789
v 0.04827915 -0.1511007 0.0002609789
v 0.1625833 -0.0362746 0.0002609789
v 0.1208284 -0.1093457 0.0002609789
v -0.03627461 -0.06915662 0.0002609789
v -0.1088238 -0.1093457 0.0002609789
v -0.03627461 -0.1511007 0.0002609789
v -0.2205183 -0.2669707 0.0002609789
v -0.1500568 -0.0362746 0.0002609789
v 0.006002277 -0.2669707 0.0002609789
v -0.2205183 0.005480349 0.0002609789
v 0.04827915 -0.1511007 0.0002609789
v -0.07802954 0.004958421 0.0002609789
v -0.149013 0.04723528 0.0002609789
v -0.1083019 0.1213503 0.0002609789
v -0.2205183 0.2669707 0.0002609789
v 0.2205183 -0.2669707 0.0002609789
v -0.03627461 0.1604956 0.0002609789
v -0.03627461 0.07698569 0.0002609789
v 0.006002277 0.2669707 0.0002609789
v 0.04827915 0.1604956 0.0002609789
v 0.2205183 0.2669707 0.0002609789
v 0.1218722 0.1213503 0.0002609789
v 0.04827915 0.07698569 0.0002609789
v 0.2205183 0.005480349 0.0002609789
v 0.1610175 0.04723528 0.0002609789
v 0.09107797 0.004958421 0.0002609789
v 0.1625833 -0.0362746 0.0002609789
v 0.1208284 -0.1093457 0.0002609789
v 0.04827915 -0.0717663 0.0002609789
vt 0.1778965 0.310431
vt 0.1778965 0.310431
vt 0.1778965 0.310431
vt 0.1778965 0.310431
vt 0.1778965 0.310431
vt 0.1778965 0.310431
vt 0.1778965 0.310431
vt 0.1778965 0.310431
vt 0.1778965 0.310431
vt 0.1778965 0.310431
vt 0.1778965 0.310431
vt 0.1778965 0.310431
vt 0.1778965 0.310431
vt 0.1778965 0.310431
vt 0.1778965 0.310431
vt 0.1778965 0.310431
vt 0.1778965 0.310431
vt 0.1778965 0.310431
vt 0.4522121 0.08543062
vt 0.4583765 0.08543062
vt 0.4552943 0.08080733
vt 0.466082 0.07310183
vt 0.4491299 0.07772513
vt 0.466082 0.08851282
vt 0.4475888 0.07310183
vt 0.4583765 0.09159502
vt 0.4475888 0.08388952
vt 0.4445066 0.07772513
vt 0.4383422 0.08080733
vt 0.4290956 0.07310183
vt 0.466082 0.1039238
vt 0.4352601 0.08543062
vt 0.4414244 0.08543062
vt 0.4290956 0.08851282
vt 0.4352601 0.09159502
vt 0.4290956 0.1039238
vt 0.4383422 0.09775941
vt 0.4414244 0.09159502
vt 0.4475888 0.1039238
vt 0.4445066 0.09930051
vt 0.4475888 0.09467722
vt 0.4491299 0.1008416
vt 0.4552943 0.09775941
vt 0.4522121 0.09159502
vt 0.1778965 0.310431
vt 0.1778965 0.310431
vt 0.1778965 0.310431
vt 0.1778965 0.310431
vt 0.1778965 0.310431
vt 0.1778965 0.310431
vt 0.1778965 0.310431
vt 0.1778965 0.310431
vt 0.1778965 0.310431
vt 0.1778965 0.310431
vt 0.1778965 0.310431
vt 0.1778965 0.310431
vt 0.1778965 0.310431
vt 0.1778965 0.310431
vt 0.1778965 0.310431
vt 0.1778965 0.310431
vt 0.1778965 0.310431
vt 0.1778965 0.310431
vt 0.4522121 0.08543062
vt 0.4552943 0.08080733
vt 0.4583765 0.08543062
vt 0.466082 0.07310183
vt 0.4491299 0.07772513
vt 0.466082 0.08851282
vt 0.4475888 0.07310183
vt 0.4583765 0.09159502
vt 0.4475888 0.08388952
vt 0.4445066 0.07772513
vt 0.4383422 0.08080733
vt 0.4290956 0.07310183
vt 0.466082 0.1039238
vt 0.4352601 0.08543062
vt 0.4414244 0.08543062
vt 0.4290956 0.08851282
vt 0.4352601 0.09159502
vt 0.4290956 0.1039238
vt 0.4383422 0.09775941
vt 0.4414244 0.09159502
vt 0.4475888 0.1039238
vt 0.4445066 0.09930051
vt 0.4475888 0.09467722
vt 0.4491299 0.1008416
vt 0.4552943 0.09775941
vt 0.4522121 0.09159502
vn 1.980741E-06 -9.241603E-09 1
vn -4.058111E-07 -9.241603E-09 1
vn 4.242941E-07 -9.241603E-09 1
vn -3.02048E-07 -9.241603E-09 1
vn 3.205309E-07 -9.241603E-09 1
vn 9.241603E-09 -9.241603E-09 1
vn -1.132153E-06 -9.241603E-09 1
vn 5.280572E-07 -9.241603E-09 1
vn -2.584837E-06 -9.241603E-09 1
vn -3.414942E-06 -9.241603E-09 1
vn -7.171004E-07 -9.241603E-09 1
vn 5.280572E-07 -9.241603E-09 1
vn 3.205309E-07 -9.241603E-09 1
vn -5.095742E-07 -9.241603E-09 1
vn -8.208635E-07 -9.241603E-09 1
vn -8.208635E-07 -9.241603E-09 1
vn 2.292031E-06 -9.241603E-09 1
vn 2.292031E-06 -9.241603E-09 1
vn -7.171004E-07 -9.241603E-09 1
vn -8.208635E-07 -9.241603E-09 1
vn 3.205309E-07 -9.241603E-09 1
vn 9.241603E-09 -9.241603E-09 1
vn 5.280572E-07 -9.241603E-09 1
vn 9.241603E-09 -9.241603E-09 1
vn -2.169784E-06 -9.241603E-09 1
vn -8.208635E-07 -9.241603E-09 1
vn 3.205309E-07 -9.241603E-09 1
vn -3.414942E-06 -9.241603E-09 1
vn -2.584837E-06 -9.241603E-09 1
vn -2.6886E-06 -9.241603E-09 1
vn 1.461925E-06 -9.241603E-09 1
vn 5.280572E-07 -9.241603E-09 1
vn 9.241603E-09 -9.241603E-09 1
vn 9.241603E-09 -9.241603E-09 1
vn -1.132153E-06 -9.241603E-09 1
vn 8.393466E-07 -9.241603E-09 1
vn 4.242941E-07 -9.241603E-09 1
vn -4.058111E-07 -9.241603E-09 1
vn 2.60332E-06 -9.241603E-09 1
vn 1.980741E-06 -9.241603E-09 1
vn -3.02048E-07 -9.241603E-09 1
vn 2.292031E-06 -9.241603E-09 1
vn 2.292031E-06 -9.241603E-09 1
vn -5.095742E-07 -9.241603E-09 1
vn -3.933758E-06 -9.241603E-09 -1
vn -2.896126E-06 -9.241603E-09 -1
vn -4.058111E-07 -9.241603E-09 -1
vn -3.02048E-07 -9.241603E-09 -1
vn -4.058111E-07 -9.241603E-09 -1
vn -4.058111E-07 -9.241603E-09 -1
vn 7.355834E-07 -9.241603E-09 -1
vn -1.02839E-06 -9.241603E-09 -1
vn 6.318203E-07 -9.241603E-09 -1
vn 1.980741E-06 -9.241603E-09 -1
vn 5.280572E-07 -9.241603E-09 -1
vn -7.171004E-07 -9.241603E-09 -1
vn -9.246266E-07 -9.241603E-09 -1
vn 6.318203E-07 -9.241603E-09 -1
vn 5.280572E-07 -9.241603E-09 -1
vn 8.393466E-07 -9.241603E-09 -1
vn 9.241603E-09 -9.241603E-09 -1
vn -7.171004E-07 -9.241603E-09 -1
vn 5.280572E-07 -9.241603E-09 -1
vn -9.246266E-07 -9.241603E-09 -1
vn 5.280572E-07 -9.241603E-09 -1
vn 9.241603E-09 -9.241603E-09 -1
vn -7.171004E-07 -9.241603E-09 -1
vn 9.241603E-09 -9.241603E-09 -1
vn 1.254399E-06 -9.241603E-09 -1
vn 8.393466E-07 -9.241603E-09 -1
vn -4.058111E-07 -9.241603E-09 -1
vn 1.980741E-06 -9.241603E-09 -1
vn 6.318203E-07 -9.241603E-09 -1
vn 1.046873E-06 -9.241603E-09 -1
vn 9.241603E-09 -9.241603E-09 -1
vn -1.02839E-06 -9.241603E-09 -1
vn -4.058111E-07 -9.241603E-09 -1
vn 9.241603E-09 -9.241603E-09 -1
vn 7.355834E-07 -9.241603E-09 -1
vn -2.6886E-06 -9.241603E-09 -1
vn -2.896126E-06 -9.241603E-09 -1
vn -4.058111E-07 -9.241603E-09 -1
vn -2.273548E-06 -9.241603E-09 -1
vn -3.933758E-06 -9.241603E-09 -1
vn -3.02048E-07 -9.241603E-09 -1
vn 9.241603E-09 -9.241603E-09 -1
vn -7.171004E-07 -9.241603E-09 -1
vn 6.318203E-07 -9.241603E-09 -1
g SM_Veh_Ambulance_Door_03_Glass_0
f 3/3/3 2/2/2 1/1/1
f 2/2/2 4/4/4 1/1/1
f 4/4/4 2/2/2 5/5/5
f 2/2/2 6/6/6 5/5/5
f 2/2/2 7/7/7 6/6/6
f 7/7/7 8/8/8 6/6/6
f 5/5/5 6/6/6 9/9/9
f 10/10/10 5/5/5 9/9/9
f 4/4/4 5/5/5 11/11/11
f 12/12/12 11/11/11 5/5/5
f 13/13/13 11/11/11 12/12/12
f 14/14/14 4/4/4 11/11/11
f 14/14/14 11/11/11 15/15/15
f 16/16/16 14/14/14 15/15/15
f 4/4/4 14/14/14 17/17/17
f 17/17/17 14/14/14 18/18/18
f 21/21/21 20/20/20 19/19/19
f 21/21/21 22/22/22 20/20/20
f 21/21/21 23/23/23 22/22/22
f 20/20/20 22/22/22 24/24/24
f 23/23/23 25/25/25 22/22/22
f 26/26/26 20/20/20 24/24/24
f 23/23/23 27/27/27 25/25/25
f 27/27/27 28/28/28 25/25/25
f 28/28/28 29/29/29 25/25/25
f 29/29/29 30/30/30 25/25/25
f 26/26/26 24/24/24 31/31/31
f 29/29/29 32/32/32 30/30/30
f 33/33/33 32/32/32 29/29/29
f 34/34/34 30/30/30 32/32/32
f 34/34/34 32/32/32 35/35/35
f 34/34/34 35/35/35 36/36/36
f 35/35/35 37/37/37 36/36/36
f 37/37/37 35/35/35 38/38/38
f 36/36/36 37/37/37 39/39/39
f 37/37/37 40/40/40 39/39/39
f 40/40/40 41/41/41 39/39/39
f 41/41/41 42/42/42 39/39/39
f 39/39/39 42/42/42 31/31/31
f 42/42/42 43/43/43 31/31/31
f 43/43/43 26/26/26 31/31/31
f 44/44/44 26/26/26 43/43/43
f 47/47/47 46/46/46 45/45/45
f 48/48/48 47/47/47 45/45/45
f 47/47/47 48/48/48 49/49/49
f 50/50/50 47/47/47 49/49/49
f 51/51/51 47/47/47 50/50/50
f 52/52/52 51/51/51 50/50/50
f 50/50/50 49/49/49 53/53/53
f 49/49/49 54/54/54 53/53/53
f 49/49/49 48/48/48 55/55/55
f 55/55/55 56/56/56 49/49/49
f 55/55/55 57/57/57 56/56/56
f 48/48/48 58/58/58 55/55/55
f 55/55/55 58/58/58 59/59/59
f 58/58/58 60/60/60 59/59/59
f 58/58/58 48/48/48 61/61/61
f 58/58/58 61/61/61 62/62/62
f 65/65/65 64/64/64 63/63/63
f 66/66/66 64/64/64 65/65/65
f 67/67/67 64/64/64 66/66/66
f 66/66/66 65/65/65 68/68/68
f 69/69/69 67/67/67 66/66/66
f 65/65/65 70/70/70 68/68/68
f 71/71/71 67/67/67 69/69/69
f 72/72/72 71/71/71 69/69/69
f 73/73/73 72/72/72 69/69/69
f 74/74/74 73/73/73 69/69/69
f 68/68/68 70/70/70 75/75/75
f 76/76/76 73/73/73 74/74/74
f 76/76/76 77/77/77 73/73/73
f 74/74/74 78/78/78 76/76/76
f 76/76/76 78/78/78 79/79/79
f 79/79/79 78/78/78 80/80/80
f 81/81/81 79/79/79 80/80/80
f 79/79/79 81/81/81 82/82/82
f 81/81/81 80/80/80 83/83/83
f 84/84/84 81/81/81 83/83/83
f 85/85/85 84/84/84 83/83/83
f 86/86/86 85/85/85 83/83/83
f 86/86/86 83/83/83 75/75/75
f 87/87/87 86/86/86 75/75/75
f 70/70/70 87/87/87 75/75/75
f 70/70/70 88/88/88 87/87/87
