g SM_Veh_Truck_01_Glass
v -1.132569 2.159762 2.460716
v 1.132569 2.159762 2.460716
v -1.101395 2.841693 2.295891
v 1.101395 2.841693 2.295891
v 0 2.858276 2.3415
v 0 2.16267 2.502621
v -0.5772982 2.846455 2.327554
v -0.5936384 2.159429 2.494331
v 0.5772982 2.846455 2.327554
v 0.5936384 2.159429 2.494331
v 1.187862 2.761913 2.170077
v 1.231489 2.158651 2.327351
v 1.168183 2.761913 1.462695
v 1.231489 2.158651 1.462695
v -1.187862 2.761913 2.170077
v -1.231489 2.158651 2.327351
v -1.168183 2.761913 1.462695
v -1.231489 2.158651 1.462695
vt 0.09102322 0.01069927
vt 0.09050548 0.01096833
vt 0.09097122 0.01039279
vt 0.09043705 0.01056305
vt 0.09076236 0.01045984
vt 0.09081914 0.01081696
vt 0.09088306 0.01042444
vt 0.09093867 0.01075307
vt 0.09060833 0.01051253
vt 0.09067255 0.0108929
vt 0.09034681 0.01061019
vt 0.09040982 0.01097065
vt 0.09003085 0.01056096
vt 0.09002316 0.01088753
vt 0.09093316 0.01041865
vt 0.09098651 0.01068327
vt 0.090657 0.01039308
vt 0.09066194 0.01063681
vn -0.06053005 0.236974 0.9696285
vn 0.06053006 0.236974 0.9696285
vn -0.06053006 0.236974 0.9696285
vn 0.06053007 0.236974 0.9696285
vn 0 0.2309951 0.9729549
vn 0 0.2309951 0.9729549
vn -0.03964625 0.2337957 0.9714772
vn -0.04019022 0.2338798 0.9714345
vn 0.03964626 0.2337957 0.9714772
vn 0.04019023 0.2338798 0.9714345
vn 0.9961597 0.08666278 -0.0124701
vn 0.9961597 0.08666278 -0.0124701
vn 0.9961597 0.08666278 -0.0124701
vn 0.9961597 0.08666277 -0.0124701
vn -0.9961596 0.08666289 -0.0124701
vn -0.9961596 0.08666289 -0.0124701
vn -0.9961596 0.0866629 -0.0124701
vn -0.9961596 0.08666289 -0.0124701
g SM_Veh_Truck_01_Glass_0
f 2/2/2 4/4/4 10/10/10
f 4/4/4 9/9/9 10/10/10
f 10/10/10 9/9/9 6/6/6
f 9/9/9 5/5/5 6/6/6
f 6/6/6 5/5/5 8/8/8
f 5/5/5 7/7/7 8/8/8
f 8/8/8 7/7/7 1/1/1
f 7/7/7 3/3/3 1/1/1
f 14/14/14 13/13/13 11/11/11
f 12/12/12 14/14/14 11/11/11
f 18/18/18 16/16/16 15/15/15
f 17/17/17 18/18/18 15/15/15
