g SM_Veh_Light_Armored_Car_01_Plug
v 0.3294604 1.786533 -0.192114
v 0.1556313 1.786533 -0.363797
v 0.1727996 1.760781 -0.4088638
v 0.3766733 1.760781 -0.2157204
v 0.3294604 1.786533 -0.192114
v 0.3766733 1.760781 -0.2157204
v 0.3766733 1.760781 0.1297918
v 0.3316064 1.786533 0.1126235
v 0.1727996 1.760781 0.3250813
v 0.1577773 1.786533 0.2843066
v 0.3316064 1.786533 0.1126235
v 0.3766733 1.760781 0.1297918
v 0.1556313 1.786533 -0.363797
v -0.1555443 1.786533 -0.363797
v -0.1727125 1.760781 -0.4088638
v 0.1727996 1.760781 -0.4088638
v -0.3293733 1.786533 -0.192114
v -0.3765862 1.760781 -0.2157204
v -0.1727125 1.760781 -0.4088638
v -0.1555443 1.786533 -0.363797
v -0.3293733 1.786533 -0.192114
v -0.3293733 1.786533 0.1104775
v -0.3744402 1.760781 0.1276458
v -0.3765862 1.760781 -0.2157204
v -0.1705665 1.760781 0.3250813
v -0.3744402 1.760781 0.1276458
v -0.3293733 1.786533 0.1104775
v -0.1555443 1.786533 0.2821605
v 0.1577773 1.786533 0.2843066
v 0.1727996 1.760781 0.3250813
v -0.1705665 1.760781 0.3250813
v -0.1555443 1.786533 0.2821605
v 0.3766733 1.709276 -0.2157204
v 0.1727996 1.709276 -0.4088638
v -0.1727125 1.709276 -0.4088638
v -0.3765862 1.709276 -0.2157204
v -0.3744402 1.709276 0.1276458
v 0.3766733 1.709276 0.1297918
v -0.1705665 1.709276 0.3250813
v 0.1727996 1.709276 0.3250813
v 0.3766733 1.760781 -0.2157204
v 0.3766733 1.709276 -0.2157204
v 0.3766733 1.709276 0.1297918
v 0.3766733 1.760781 0.1297918
v 0.3766733 1.760781 0.1297918
v 0.3766733 1.709276 0.1297918
v 0.1727996 1.709276 0.3250813
v 0.1727996 1.760781 0.3250813
v 0.1727996 1.760781 0.3250813
v 0.1727996 1.709276 0.3250813
v -0.1705665 1.709276 0.3250813
v -0.1705665 1.760781 0.3250813
v -0.1705665 1.760781 0.3250813
v -0.1705665 1.709276 0.3250813
v -0.3744402 1.709276 0.1276458
v -0.3744402 1.760781 0.1276458
v -0.3744402 1.760781 0.1276458
v -0.3744402 1.709276 0.1276458
v -0.3765862 1.709276 -0.2157204
v -0.3765862 1.760781 -0.2157204
v -0.3765862 1.760781 -0.2157204
v -0.3765862 1.709276 -0.2157204
v -0.1727125 1.709276 -0.4088638
v -0.1727125 1.760781 -0.4088638
v -0.1727125 1.760781 -0.4088638
v -0.1727125 1.709276 -0.4088638
v 0.1727996 1.709276 -0.4088638
v 0.1727996 1.760781 -0.4088638
v 0.1727996 1.760781 -0.4088638
v 0.1727996 1.709276 -0.4088638
v 0.3766733 1.709276 -0.2157204
v 0.3766733 1.760781 -0.2157204
v 0.3316064 1.786533 0.1126235
v -0.001029491 1.786533 -0.03974524
v 0.3294604 1.786533 -0.192114
v 0.1577773 1.786533 0.2843066
v 0.1556313 1.786533 -0.363797
v -0.1555443 1.786533 0.2821605
v -0.1555443 1.786533 -0.363797
v -0.3293733 1.786533 0.1104775
v -0.3293733 1.786533 -0.192114
vt 0.5172815 0.6867087
vt 0.5604689 0.7298959
vt 0.5704352 0.7232517
vt 0.5239258 0.6767423
vt 0.5172815 0.6867087
vt 0.5239258 0.6767423
vt 0.4375512 0.6767423
vt 0.4441954 0.6867087
vt 0.3910418 0.7265738
vt 0.4010081 0.7298959
vt 0.4441954 0.6867087
vt 0.4375512 0.6767423
vt 0.5604689 0.7298959
vt 0.5604689 0.8063042
vt 0.5704352 0.8096263
vt 0.5704352 0.7232517
vt 0.5172815 0.8494916
vt 0.5239258 0.8594579
vt 0.5704352 0.8096263
vt 0.5604689 0.8063042
vt 0.5172815 0.8494916
vt 0.4441954 0.8494916
vt 0.4408733 0.8594579
vt 0.5239258 0.8594579
vt 0.3910418 0.8096263
vt 0.4408733 0.8594579
vt 0.4441954 0.8494916
vt 0.4010081 0.8063042
vt 0.4010081 0.7298959
vt 0.3910418 0.7265738
vt 0.3910418 0.8096263
vt 0.4010081 0.8063042
vt 0.08873069 0.0123224
vt 0.08873069 0.0123224
vt 0.08873069 0.0123224
vt 0.08873069 0.0123224
vt 0.08873069 0.0123224
vt 0.08873069 0.0123224
vt 0.08873069 0.0123224
vt 0.08873069 0.0123224
vt 0.08873069 0.0123224
vt 0.08873069 0.0123224
vt 0.08873069 0.0123224
vt 0.08873069 0.0123224
vt 0.08873069 0.0123224
vt 0.08873069 0.0123224
vt 0.08873069 0.0123224
vt 0.08873069 0.0123224
vt 0.08873069 0.0123224
vt 0.08873069 0.0123224
vt 0.08873069 0.0123224
vt 0.08873069 0.0123224
vt 0.08873069 0.0123224
vt 0.08873069 0.0123224
vt 0.08873069 0.0123224
vt 0.08873069 0.0123224
vt 0.08873069 0.0123224
vt 0.08873069 0.0123224
vt 0.08873069 0.0123224
vt 0.08873069 0.0123224
vt 0.08873069 0.0123224
vt 0.08873069 0.0123224
vt 0.08873069 0.0123224
vt 0.08873069 0.0123224
vt 0.08873069 0.0123224
vt 0.08873069 0.0123224
vt 0.08873069 0.0123224
vt 0.08873069 0.0123224
vt 0.08873069 0.0123224
vt 0.08873069 0.0123224
vt 0.08873069 0.0123224
vt 0.08873069 0.0123224
vt 0.4441954 0.6867087
vt 0.4807385 0.7664391
vt 0.5172815 0.6867087
vt 0.4010081 0.7298959
vt 0.5604689 0.7298959
vt 0.4010081 0.8063042
vt 0.5604689 0.8063042
vt 0.4441954 0.8494916
vt 0.5172815 0.8494916
vn 0.3332914 0.872906 -0.3563032
vn 0.3332914 0.872906 -0.3563032
vn 0.3332914 0.872906 -0.3563032
vn 0.3332914 0.872906 -0.3563032
vn 0.4602595 0.872906 -0.1618527
vn 0.4602595 0.872906 -0.1618527
vn 0.4602595 0.872906 -0.1618527
vn 0.4602595 0.872906 -0.1618527
vn 0.3650334 0.872906 0.3237063
vn 0.3650334 0.872906 0.3237063
vn 0.3650334 0.872906 0.3237063
vn 0.3650334 0.872906 0.3237063
vn 0.01587099 0.872906 -0.4876302
vn 0.01587099 0.872906 -0.4876302
vn 0.01587099 0.872906 -0.4876302
vn 0.01587099 0.872906 -0.4876302
vn -0.3332914 0.872906 -0.3563032
vn -0.3332914 0.872906 -0.3563032
vn -0.3332914 0.872906 -0.3563032
vn -0.3332914 0.872906 -0.3563032
vn -0.4602596 0.872906 0.1618527
vn -0.4602596 0.872906 0.1618527
vn -0.4602596 0.872906 0.1618527
vn -0.4602596 0.872906 0.1618527
vn -0.3650334 0.872906 0.3237063
vn -0.3650334 0.872906 0.3237063
vn -0.3650334 0.872906 0.3237063
vn -0.3650334 0.872906 0.3237063
vn -0.01587105 0.872906 0.4876302
vn -0.01587105 0.872906 0.4876302
vn -0.01587105 0.872906 0.4876302
vn -0.01587105 0.872906 0.4876302
vn -0.01587105 -0.9998741 0
vn 0.01587099 -0.9998741 0
vn 0.01587099 -0.9998741 0
vn 0.01587099 -0.9998741 0
vn -0.01587105 -0.9998741 0
vn -0.01587105 -0.9998741 0
vn -0.01587105 -0.9998741 0
vn -0.01587105 -0.9998741 0
vn 0.9998741 -0.01587099 0
vn 0.9998741 -0.01587099 0
vn 0.9998741 -0.01587099 0
vn 0.9998741 -0.01587099 0
vn 0.6824538 -0.01587099 0.7307565
vn 0.6824538 -0.01587099 0.7307565
vn 0.6824538 -0.01587099 0.7307565
vn 0.6824538 -0.01587099 0.7307565
vn -0.01587105 -0.01587099 0.9997481
vn -0.01587105 -0.01587099 0.9997481
vn -0.01587105 -0.01587099 0.9997481
vn -0.01587105 -0.01587099 0.9997481
vn -0.6824538 -0.01587099 0.7307565
vn -0.6824538 -0.01587099 0.7307565
vn -0.6824538 -0.01587099 0.7307565
vn -0.6824538 -0.01587099 0.7307565
vn -0.9998741 -0.01587099 0
vn -0.9998741 -0.01587099 0
vn -0.9998741 -0.01587099 0
vn -0.9998741 -0.01587099 0
vn -0.6824538 -0.01587099 -0.7307565
vn -0.6824538 -0.01587099 -0.7307565
vn -0.6824538 -0.01587099 -0.7307565
vn -0.6824538 -0.01587099 -0.7307565
vn 0.01587099 -0.01587099 -0.9997481
vn 0.01587099 -0.01587099 -0.9997481
vn 0.01587099 -0.01587099 -0.9997481
vn 0.01587099 -0.01587099 -0.9997481
vn 0.6824538 -0.01587099 -0.7307565
vn 0.6824538 -0.01587099 -0.7307565
vn 0.6824538 -0.01587099 -0.7307565
vn 0.6824538 -0.01587099 -0.7307565
vn 0.01587099 0.9998741 0
vn 0.01587099 0.9998741 0
vn 0.01587099 0.9998741 0
vn 0.01587099 0.9998741 0
vn 0.01587099 0.9998741 0
vn -0.01587105 0.9998741 0
vn -0.01587105 0.9998741 0
vn -0.01587105 0.9998741 0
vn -0.01587105 0.9998741 0
g SM_Veh_Light_Armored_Car_01_Plug_0
f 3/3/3 2/2/2 1/1/1
f 4/4/4 3/3/3 1/1/1
f 7/7/7 6/6/6 5/5/5
f 8/8/8 7/7/7 5/5/5
f 11/11/11 10/10/10 9/9/9
f 12/12/12 11/11/11 9/9/9
f 15/15/15 14/14/14 13/13/13
f 16/16/16 15/15/15 13/13/13
f 19/19/19 18/18/18 17/17/17
f 20/20/20 19/19/19 17/17/17
f 23/23/23 22/22/22 21/21/21
f 24/24/24 23/23/23 21/21/21
f 27/27/27 26/26/26 25/25/25
f 28/28/28 27/27/27 25/25/25
f 31/31/31 30/30/30 29/29/29
f 32/32/32 31/31/31 29/29/29
f 35/35/35 34/34/34 33/33/33
f 33/33/33 36/36/36 35/35/35
f 33/33/33 37/37/37 36/36/36
f 33/33/33 38/38/38 37/37/37
f 38/38/38 39/39/39 37/37/37
f 38/38/38 40/40/40 39/39/39
f 43/43/43 42/42/42 41/41/41
f 44/44/44 43/43/43 41/41/41
f 47/47/47 46/46/46 45/45/45
f 48/48/48 47/47/47 45/45/45
f 51/51/51 50/50/50 49/49/49
f 52/52/52 51/51/51 49/49/49
f 55/55/55 54/54/54 53/53/53
f 56/56/56 55/55/55 53/53/53
f 59/59/59 58/58/58 57/57/57
f 60/60/60 59/59/59 57/57/57
f 63/63/63 62/62/62 61/61/61
f 64/64/64 63/63/63 61/61/61
f 67/67/67 66/66/66 65/65/65
f 68/68/68 67/67/67 65/65/65
f 71/71/71 70/70/70 69/69/69
f 72/72/72 71/71/71 69/69/69
f 75/75/75 74/74/74 73/73/73
f 73/73/73 74/74/74 76/76/76
f 77/77/77 74/74/74 75/75/75
f 76/76/76 74/74/74 78/78/78
f 79/79/79 74/74/74 77/77/77
f 78/78/78 74/74/74 80/80/80
f 81/81/81 74/74/74 79/79/79
f 80/80/80 74/74/74 81/81/81
