g SM_Wep_Revolver_01_Cylinder_Bullet_02
v 0.003179526 -0.005535081 -0.02530126
v 0.003179526 -0.005535081 -0.02745198
v -0.003170229 -0.005535081 -0.02745198
v -0.003170229 -0.005535081 -0.02530126
v -0.003170229 -0.005535081 -0.02530126
v -0.003170229 -0.005535081 -0.02745198
v -0.006345106 -4.6473E-06 -0.02745198
v -0.006345106 -4.6473E-06 -0.02530126
v -0.006345106 -4.6473E-06 -0.02530126
v -0.006345106 -4.6473E-06 -0.02745198
v -0.003170229 0.005525785 -0.02745198
v -0.003170229 0.005525785 -0.02530126
v -0.003170229 0.005525785 -0.02530126
v -0.003170229 0.005525785 -0.02745198
v 0.003179526 0.005525785 -0.02745198
v 0.003179526 0.005525785 -0.02530126
v 0.003179526 0.005525785 -0.02530126
v 0.003179526 0.005525785 -0.02745198
v 0.006354405 -4.6473E-06 -0.02745198
v 0.006354405 -4.6473E-06 -0.02530126
v 0.006354405 -4.6473E-06 -0.02530126
v 0.006354405 -4.6473E-06 -0.02745198
v 0.003179526 -0.005535081 -0.02745198
v 0.003179526 -0.005535081 -0.02530126
v -0.005320953 -4.6473E-06 -0.02345778
v -0.005320953 -4.6473E-06 -0.02519884
v -0.002658153 0.004604047 -0.02519884
v -0.002658153 0.004604047 -0.02345778
v -0.002658153 0.004604047 -0.02345778
v -0.002658153 0.004604047 -0.02519884
v 0.002667449 0.004604047 -0.02519884
v 0.002667449 0.004604047 -0.02345778
v 0.002667449 0.004604047 -0.02345778
v 0.002667449 0.004604047 -0.02519884
v 0.005227834 -4.6473E-06 -0.02519884
v 0.005227834 -4.6473E-06 -0.02345778
v 0.005227834 -4.6473E-06 -0.02345778
v 0.005227834 -4.6473E-06 -0.02519884
v 0.002667449 -0.004613342 -0.02519884
v 0.002667449 -0.004613342 -0.02345778
v 0.002667449 -0.004613342 -0.02345778
v 0.002667449 -0.004613342 -0.02519884
v -0.002658153 -0.004613342 -0.02519884
v -0.002658153 -0.004613342 -0.02345778
v -0.002658153 -0.004613342 -0.02345778
v -0.002658153 -0.004613342 -0.02519884
v -0.005320953 -4.6473E-06 -0.02519884
v -0.005320953 -4.6473E-06 -0.02345778
v -0.005935447 -4.6473E-06 0.07199339
v -0.005935447 -4.6473E-06 -0.02325295
v -0.002965398 0.005218538 -0.02325295
v -0.002965398 0.005218538 0.07199339
v -0.002965398 0.005218538 0.07199339
v -0.002965398 0.005218538 -0.02325295
v 0.002974695 0.005218538 -0.02325295
v 0.002974695 0.005218538 0.07199339
v 0.002974695 0.005218538 0.07199339
v 0.002974695 0.005218538 -0.02325295
v 0.005944742 -4.6473E-06 -0.02325295
v 0.005944742 -4.6473E-06 0.07199339
v 0.005944742 -4.6473E-06 0.07199339
v 0.005944742 -4.6473E-06 -0.02325295
v 0.002974695 -0.005125418 -0.02325295
v 0.002974695 -0.005125418 0.07199339
v 0.002974695 -0.005125418 0.07199339
v 0.002974695 -0.005125418 -0.02325295
v -0.002965398 -0.005125418 -0.02325295
v -0.002965398 -0.005125418 0.07199339
v -0.002965398 -0.005125418 0.07199339
v -0.002965398 -0.005125418 -0.02325295
v -0.005935447 -4.6473E-06 -0.02325295
v -0.005935447 -4.6473E-06 0.07199339
v -0.005935447 -4.6473E-06 -0.02325295
v -0.005320953 -4.6473E-06 -0.02345778
v -0.002658153 0.004604047 -0.02345778
v -0.002965398 0.005218538 -0.02325295
v -0.003170229 0.005525785 -0.02530126
v -0.002658153 0.004604047 -0.02519884
v -0.005320953 -4.6473E-06 -0.02519884
v -0.006345106 -4.6473E-06 -0.02530126
v -0.002965398 0.005218538 -0.02325295
v -0.002658153 0.004604047 -0.02345778
v 0.002667449 0.004604047 -0.02345778
v 0.002974695 0.005218538 -0.02325295
v 0.003179526 0.005525785 -0.02530126
v 0.002667449 0.004604047 -0.02519884
v -0.002658153 0.004604047 -0.02519884
v -0.003170229 0.005525785 -0.02530126
v 0.002974695 0.005218538 -0.02325295
v 0.002667449 0.004604047 -0.02345778
v 0.005227834 -4.6473E-06 -0.02345778
v 0.005944742 -4.6473E-06 -0.02325295
v 0.006354405 -4.6473E-06 -0.02530126
v 0.005227834 -4.6473E-06 -0.02519884
v 0.002667449 0.004604047 -0.02519884
v 0.003179526 0.005525785 -0.02530126
v 0.005944742 -4.6473E-06 -0.02325295
v 0.005227834 -4.6473E-06 -0.02345778
v 0.002667449 -0.004613342 -0.02345778
v 0.002974695 -0.005125418 -0.02325295
v 0.003179526 -0.005535081 -0.02530126
v 0.002667449 -0.004613342 -0.02519884
v 0.005227834 -4.6473E-06 -0.02519884
v 0.006354405 -4.6473E-06 -0.02530126
v 0.002974695 -0.005125418 -0.02325295
v 0.002667449 -0.004613342 -0.02345778
v -0.002658153 -0.004613342 -0.02345778
v -0.002965398 -0.005125418 -0.02325295
v -0.003170229 -0.005535081 -0.02530126
v -0.002658153 -0.004613342 -0.02519884
v 0.002667449 -0.004613342 -0.02519884
v 0.003179526 -0.005535081 -0.02530126
v -0.002965398 -0.005125418 -0.02325295
v -0.002658153 -0.004613342 -0.02345778
v -0.005320953 -4.6473E-06 -0.02345778
v -0.005935447 -4.6473E-06 -0.02325295
v -0.006345106 -4.6473E-06 -0.02530126
v -0.005320953 -4.6473E-06 -0.02519884
v -0.002658153 -0.004613342 -0.02519884
v -0.003170229 -0.005535081 -0.02530126
v -0.004604047 -4.6473E-06 0.07731899
v -0.005935447 -4.6473E-06 0.07199339
v -0.002965398 0.005218538 0.07199339
v -0.00224849 0.003989553 0.07731899
v -0.00224849 0.003989553 0.07731899
v -0.002965398 0.005218538 0.07199339
v 0.002974695 0.005218538 0.07199339
v 0.002257787 0.003989553 0.07731899
v 0.002257787 0.003989553 0.07731899
v 0.002974695 0.005218538 0.07199339
v 0.005944742 -4.6473E-06 0.07199339
v 0.004613342 -4.6473E-06 0.07731899
v 0.004613342 -4.6473E-06 0.07731899
v 0.005944742 -4.6473E-06 0.07199339
v 0.002974695 -0.005125418 0.07199339
v 0.002257787 -0.00399885 0.07731899
v 0.002257787 -0.00399885 0.07731899
v 0.002974695 -0.005125418 0.07199339
v -0.002965398 -0.005125418 0.07199339
v -0.00224849 -0.00399885 0.07731899
v -0.00224849 -0.00399885 0.07731899
v -0.002965398 -0.005125418 0.07199339
v -0.005935447 -4.6473E-06 0.07199339
v -0.004604047 -4.6473E-06 0.07731899
v 0.001540879 0.002760569 -0.02745198
v 4.6473E-06 -4.6473E-06 -0.02745198
v 0.003179526 -4.6473E-06 -0.02745198
v -0.001633998 0.002760569 -0.02745198
v 0.001540879 -0.002769865 -0.02745198
v -0.003170229 -4.6473E-06 -0.02745198
v -0.001633998 -0.002769865 -0.02745198
v 0.004613342 -4.6473E-06 0.07731899
v 4.6473E-06 -4.6473E-06 0.07731899
v 0.002257787 0.003989553 0.07731899
v 0.002257787 -0.00399885 0.07731899
v -0.00224849 0.003989553 0.07731899
v -0.00224849 -0.00399885 0.07731899
v -0.004604047 -4.6473E-06 0.07731899
v 0.003179526 0.005525785 -0.02745198
v 0.003179526 -4.6473E-06 -0.02745198
v 0.006354405 -4.6473E-06 -0.02745198
v 0.001540879 0.002760569 -0.02745198
v 0.001540879 -0.002769865 -0.02745198
v -0.003170229 0.005525785 -0.02745198
v 0.003179526 -0.005535081 -0.02745198
v -0.001633998 0.002760569 -0.02745198
v -0.001633998 -0.002769865 -0.02745198
v -0.006345106 -4.6473E-06 -0.02745198
v -0.003170229 -0.005535081 -0.02745198
v -0.003170229 -4.6473E-06 -0.02745198
vt 0.2043487 0.4463221
vt 0.2043487 0.4463221
vt 0.2043487 0.4463221
vt 0.2043487 0.4463221
vt 0.2043487 0.4463221
vt 0.2043487 0.4463221
vt 0.2043487 0.4463221
vt 0.2043487 0.4463221
vt 0.2043487 0.4463221
vt 0.2043487 0.4463221
vt 0.2043487 0.4463221
vt 0.2043487 0.4463221
vt 0.2043487 0.4463221
vt 0.2043487 0.4463221
vt 0.2043487 0.4463221
vt 0.2043487 0.4463221
vt 0.2043487 0.4463221
vt 0.2043487 0.4463221
vt 0.2043487 0.4463221
vt 0.2043487 0.4463221
vt 0.2043487 0.4463221
vt 0.2043487 0.4463221
vt 0.2043487 0.4463221
vt 0.2043487 0.4463221
vt 0.2043487 0.4463221
vt 0.2043487 0.4463221
vt 0.2043487 0.4463221
vt 0.2043487 0.4463221
vt 0.2043487 0.4463221
vt 0.2043487 0.4463221
vt 0.2043487 0.4463221
vt 0.2043487 0.4463221
vt 0.2043487 0.4463221
vt 0.2043487 0.4463221
vt 0.2043487 0.4463221
vt 0.2043487 0.4463221
vt 0.2043487 0.4463221
vt 0.2043487 0.4463221
vt 0.2043487 0.4463221
vt 0.2043487 0.4463221
vt 0.2043487 0.4463221
vt 0.2043487 0.4463221
vt 0.2043487 0.4463221
vt 0.2043487 0.4463221
vt 0.2043487 0.4463221
vt 0.2043487 0.4463221
vt 0.2043487 0.4463221
vt 0.2043487 0.4463221
vt 0.2043487 0.4463221
vt 0.2043487 0.4463221
vt 0.2043487 0.4463221
vt 0.2043487 0.4463221
vt 0.2043487 0.4463221
vt 0.2043487 0.4463221
vt 0.2043487 0.4463221
vt 0.2043487 0.4463221
vt 0.2043487 0.4463221
vt 0.2043487 0.4463221
vt 0.2043487 0.4463221
vt 0.2043487 0.4463221
vt 0.2043487 0.4463221
vt 0.2043487 0.4463221
vt 0.2043487 0.4463221
vt 0.2043487 0.4463221
vt 0.2043487 0.4463221
vt 0.2043487 0.4463221
vt 0.2043487 0.4463221
vt 0.2043487 0.4463221
vt 0.2043487 0.4463221
vt 0.2043487 0.4463221
vt 0.2043487 0.4463221
vt 0.2043487 0.4463221
vt 0.2043487 0.4463221
vt 0.2043487 0.4463221
vt 0.2043487 0.4463221
vt 0.2043487 0.4463221
vt 0.2043487 0.4463221
vt 0.2043487 0.4463221
vt 0.2043487 0.4463221
vt 0.2043487 0.4463221
vt 0.2043487 0.4463221
vt 0.2043487 0.4463221
vt 0.2043487 0.4463221
vt 0.2043487 0.4463221
vt 0.2043487 0.4463221
vt 0.2043487 0.4463221
vt 0.2043487 0.4463221
vt 0.2043487 0.4463221
vt 0.2043487 0.4463221
vt 0.2043487 0.4463221
vt 0.2043487 0.4463221
vt 0.2043487 0.4463221
vt 0.2043487 0.4463221
vt 0.2043487 0.4463221
vt 0.2043487 0.4463221
vt 0.2043487 0.4463221
vt 0.2043487 0.4463221
vt 0.2043487 0.4463221
vt 0.2043487 0.4463221
vt 0.2043487 0.4463221
vt 0.2043487 0.4463221
vt 0.2043487 0.4463221
vt 0.2043487 0.4463221
vt 0.2043487 0.4463221
vt 0.2043487 0.4463221
vt 0.2043487 0.4463221
vt 0.2043487 0.4463221
vt 0.2043487 0.4463221
vt 0.2043487 0.4463221
vt 0.2043487 0.4463221
vt 0.2043487 0.4463221
vt 0.2043487 0.4463221
vt 0.2043487 0.4463221
vt 0.2043487 0.4463221
vt 0.2043487 0.4463221
vt 0.2043487 0.4463221
vt 0.2043487 0.4463221
vt 0.2043487 0.4463221
vt 0.2043487 0.4463221
vt 0.2043487 0.4463221
vt 0.4934176 0.4284583
vt 0.4934176 0.4284583
vt 0.4934176 0.4284583
vt 0.4934176 0.4284583
vt 0.4934176 0.4284583
vt 0.4934176 0.4284583
vt 0.4934176 0.4284583
vt 0.4934176 0.4284583
vt 0.4934176 0.4284583
vt 0.4934176 0.4284583
vt 0.4934176 0.4284583
vt 0.4934176 0.4284583
vt 0.4934176 0.4284583
vt 0.4934176 0.4284583
vt 0.4934176 0.4284583
vt 0.4934176 0.4284583
vt 0.4934176 0.4284583
vt 0.4934176 0.4284583
vt 0.4934176 0.4284583
vt 0.4934176 0.4284583
vt 0.4934176 0.4284583
vt 0.4934176 0.4284583
vt 0.4934176 0.4284583
vt 0.4934176 0.4284583
vt 0.07930201 0.2270844
vt 0.07930201 0.2270844
vt 0.07930201 0.2270844
vt 0.07930201 0.2270844
vt 0.07930201 0.2270844
vt 0.07930201 0.2270844
vt 0.07930201 0.2270844
vt 0.4934176 0.4284583
vt 0.4934176 0.4284583
vt 0.4934176 0.4284583
vt 0.4934176 0.4284583
vt 0.4934176 0.4284583
vt 0.4934176 0.4284583
vt 0.4934176 0.4284583
vt 0.2043487 0.4463221
vt 0.2043487 0.4463221
vt 0.2043487 0.4463221
vt 0.2043487 0.4463221
vt 0.2043487 0.4463221
vt 0.2043487 0.4463221
vt 0.2043487 0.4463221
vt 0.2043487 0.4463221
vt 0.2043487 0.4463221
vt 0.2043487 0.4463221
vt 0.2043487 0.4463221
vt 0.2043487 0.4463221
vn -0.01587105 -0.999874 -0.000345267
vn -0.01587105 -0.999874 -0.000345267
vn -0.01587105 -0.999874 -0.000345267
vn -0.01587105 -0.999874 -0.000345267
vn -0.8711522 -0.491013 0
vn -0.8711522 -0.491013 0
vn -0.8711522 -0.491013 0
vn -0.8711522 -0.491013 0
vn -0.8711522 0.4910131 0
vn -0.8711522 0.4910131 0
vn -0.8711522 0.4910131 0
vn -0.8711522 0.4910131 0
vn -0.01587105 0.999874 -0.000345267
vn -0.01587105 0.999874 -0.000345267
vn -0.01587105 0.999874 -0.000345267
vn -0.01587105 0.999874 -0.000345267
vn 0.8711522 0.4910131 0
vn 0.8711522 0.4910131 0
vn 0.8711522 0.4910131 0
vn 0.8711522 0.4910131 0
vn 0.8711522 -0.491013 0
vn 0.8711522 -0.491013 0
vn 0.8711522 -0.491013 0
vn 0.8711522 -0.491013 0
vn -0.8711522 0.4910131 0
vn -0.8711522 0.4910131 0
vn -0.8711522 0.4910131 0
vn -0.8711522 0.4910131 0
vn -0.01587105 0.999874 -0.000345267
vn -0.01587105 0.999874 -0.000345267
vn -0.01587105 0.999874 -0.000345267
vn -0.01587105 0.999874 -0.000345267
vn 0.8711522 0.4910131 0
vn 0.8711522 0.4910131 0
vn 0.8711522 0.4910131 0
vn 0.8711522 0.4910131 0
vn 0.8711522 -0.491013 0
vn 0.8711522 -0.491013 0
vn 0.8711522 -0.491013 0
vn 0.8711522 -0.491013 0
vn -0.01587105 -0.999874 -0.000345267
vn -0.01587105 -0.999874 -0.000345267
vn -0.01587105 -0.999874 -0.000345267
vn -0.01587105 -0.999874 -0.000345267
vn -0.8711522 -0.491013 0
vn -0.8711522 -0.491013 0
vn -0.8711522 -0.491013 0
vn -0.8711522 -0.491013 0
vn -0.8711522 0.4910131 0
vn -0.8711522 0.4910131 0
vn -0.8711522 0.4910131 0
vn -0.8711522 0.4910131 0
vn -0.01587105 0.999874 -0.000345267
vn -0.01587105 0.999874 -0.000345267
vn -0.01587105 0.999874 -0.000345267
vn -0.01587105 0.999874 -0.000345267
vn 0.8711522 0.4910131 0
vn 0.8711522 0.4910131 0
vn 0.8711522 0.4910131 0
vn 0.8711522 0.4910131 0
vn 0.8711522 -0.491013 0
vn 0.8711522 -0.491013 0
vn 0.8711522 -0.491013 0
vn 0.8711522 -0.491013 0
vn -0.01587105 -0.999874 -0.000345267
vn -0.01587105 -0.999874 -0.000345267
vn -0.01587105 -0.999874 -0.000345267
vn -0.01587105 -0.999874 -0.000345267
vn -0.8711522 -0.491013 0
vn -0.8711522 -0.491013 0
vn -0.8711522 -0.491013 0
vn -0.8711522 -0.491013 0
vn -0.2063233 0.1428392 -0.9680019
vn -0.2063233 0.1428392 -0.9680019
vn -0.2063233 0.1428392 -0.9680019
vn -0.2063233 0.1428392 -0.9680019
vn -0.1428392 0.07935512 0.9865596
vn -0.1428392 0.07935512 0.9865596
vn -0.1428392 0.07935512 0.9865596
vn -0.1428392 0.07935512 0.9865596
vn -0.01587105 0.2698073 -0.9627835
vn -0.01587105 0.2698073 -0.9627835
vn -0.01587105 0.2698073 -0.9627835
vn -0.01587105 0.2698073 -0.9627835
vn -0.01587105 0.1745812 0.9845148
vn -0.01587105 0.1745812 0.9845148
vn -0.01587105 0.1745812 0.9845148
vn -0.01587105 0.1745812 0.9845148
vn 0.2063232 0.1428392 -0.9680019
vn 0.2063232 0.1428392 -0.9680019
vn 0.2063232 0.1428392 -0.9680019
vn 0.2063232 0.1428392 -0.9680019
vn 0.1428391 0.07935512 0.9865596
vn 0.1428391 0.07935512 0.9865596
vn 0.1428391 0.07935512 0.9865596
vn 0.1428391 0.07935512 0.9865596
vn 0.2063232 -0.1428391 -0.9680019
vn 0.2063232 -0.1428391 -0.9680019
vn 0.2063232 -0.1428391 -0.9680019
vn 0.2063232 -0.1428391 -0.9680019
vn 0.1428391 -0.07935506 0.9865596
vn 0.1428391 -0.07935506 0.9865596
vn 0.1428391 -0.07935506 0.9865596
vn 0.1428391 -0.07935506 0.9865596
vn -0.01587105 -0.2698073 -0.9627835
vn -0.01587105 -0.2698073 -0.9627835
vn -0.01587105 -0.2698073 -0.9627835
vn -0.01587105 -0.2698073 -0.9627835
vn -0.01587105 -0.1745812 0.9845148
vn -0.01587105 -0.1745812 0.9845148
vn -0.01587105 -0.1745812 0.9845148
vn -0.01587105 -0.1745812 0.9845148
vn -0.2063233 -0.1428391 -0.9680019
vn -0.2063233 -0.1428391 -0.9680019
vn -0.2063233 -0.1428391 -0.9680019
vn -0.2063233 -0.1428391 -0.9680019
vn -0.1428392 -0.07935506 0.9865596
vn -0.1428392 -0.07935506 0.9865596
vn -0.1428392 -0.07935506 0.9865596
vn -0.1428392 -0.07935506 0.9865596
vn -0.8411639 0.4920015 0.2244501
vn -0.8411639 0.4920015 0.2244501
vn -0.8411639 0.4920015 0.2244501
vn -0.8411639 0.4920015 0.2244501
vn -0.01587105 0.968132 0.249937
vn -0.01587105 0.968132 0.249937
vn -0.01587105 0.968132 0.249937
vn -0.01587105 0.968132 0.249937
vn 0.8411638 0.4920015 0.2244503
vn 0.8411638 0.4920015 0.2244503
vn 0.8411638 0.4920015 0.2244503
vn 0.8411638 0.4920015 0.2244503
vn 0.8411638 -0.4920015 0.2244505
vn 0.8411638 -0.4920015 0.2244505
vn 0.8411638 -0.4920015 0.2244505
vn 0.8411638 -0.4920015 0.2244505
vn -0.01587105 -0.968132 0.2499373
vn -0.01587105 -0.968132 0.2499373
vn -0.01587105 -0.968132 0.2499373
vn -0.01587105 -0.968132 0.2499373
vn -0.8411639 -0.4920015 0.2244502
vn -0.8411639 -0.4920015 0.2244502
vn -0.8411639 -0.4920015 0.2244502
vn -0.8411639 -0.4920015 0.2244502
vn -0.01587105 0.01587105 -0.9997481
vn -0.01587105 0.01587105 -0.9997481
vn -0.01587105 0.01587105 -0.9997481
vn -0.01587105 0.01587105 -0.9997481
vn -0.01587105 0.01587105 -0.9997481
vn -0.01587105 0.01587105 -0.9997481
vn -0.01587105 0.01587105 -0.9997481
vn -0.01587105 0.01587105 0.9997481
vn -0.01587105 0.01587105 0.9997481
vn -0.01587105 0.01587105 0.9997481
vn -0.01587105 0.01587105 0.9997481
vn -0.01587105 0.01587105 0.9997481
vn -0.01587105 0.01587105 0.9997481
vn -0.01587105 0.01587105 0.9997481
vn -0.01587105 0.01587105 -0.9997481
vn -0.01587105 0.01587105 -0.9997481
vn -0.01587105 0.01587105 -0.9997481
vn -0.01587105 0.01587105 -0.9997481
vn -0.01587105 0.01587105 -0.9997481
vn -0.01587105 0.01587105 -0.9997481
vn -0.01587105 0.01587105 -0.9997481
vn -0.01587105 0.01587105 -0.9997481
vn -0.01587105 0.01587105 -0.9997481
vn -0.01587105 0.01587105 -0.9997481
vn -0.01587105 0.01587105 -0.9997481
vn -0.01587105 0.01587105 -0.9997481
g SM_Wep_Revolver_01_Cylinder_Bullet_02_0
f 3/3/3 2/2/2 1/1/1
f 4/4/4 3/3/3 1/1/1
f 7/7/7 6/6/6 5/5/5
f 8/8/8 7/7/7 5/5/5
f 11/11/11 10/10/10 9/9/9
f 12/12/12 11/11/11 9/9/9
f 15/15/15 14/14/14 13/13/13
f 16/16/16 15/15/15 13/13/13
f 19/19/19 18/18/18 17/17/17
f 20/20/20 19/19/19 17/17/17
f 23/23/23 22/22/22 21/21/21
f 24/24/24 23/23/23 21/21/21
f 27/27/27 26/26/26 25/25/25
f 28/28/28 27/27/27 25/25/25
f 31/31/31 30/30/30 29/29/29
f 32/32/32 31/31/31 29/29/29
f 35/35/35 34/34/34 33/33/33
f 36/36/36 35/35/35 33/33/33
f 39/39/39 38/38/38 37/37/37
f 40/40/40 39/39/39 37/37/37
f 43/43/43 42/42/42 41/41/41
f 44/44/44 43/43/43 41/41/41
f 47/47/47 46/46/46 45/45/45
f 48/48/48 47/47/47 45/45/45
f 51/51/51 50/50/50 49/49/49
f 52/52/52 51/51/51 49/49/49
f 55/55/55 54/54/54 53/53/53
f 56/56/56 55/55/55 53/53/53
f 59/59/59 58/58/58 57/57/57
f 60/60/60 59/59/59 57/57/57
f 63/63/63 62/62/62 61/61/61
f 64/64/64 63/63/63 61/61/61
f 67/67/67 66/66/66 65/65/65
f 68/68/68 67/67/67 65/65/65
f 71/71/71 70/70/70 69/69/69
f 72/72/72 71/71/71 69/69/69
f 75/75/75 74/74/74 73/73/73
f 76/76/76 75/75/75 73/73/73
f 79/79/79 78/78/78 77/77/77
f 80/80/80 79/79/79 77/77/77
f 83/83/83 82/82/82 81/81/81
f 84/84/84 83/83/83 81/81/81
f 87/87/87 86/86/86 85/85/85
f 88/88/88 87/87/87 85/85/85
f 91/91/91 90/90/90 89/89/89
f 92/92/92 91/91/91 89/89/89
f 95/95/95 94/94/94 93/93/93
f 96/96/96 95/95/95 93/93/93
f 99/99/99 98/98/98 97/97/97
f 100/100/100 99/99/99 97/97/97
f 103/103/103 102/102/102 101/101/101
f 104/104/104 103/103/103 101/101/101
f 107/107/107 106/106/106 105/105/105
f 108/108/108 107/107/107 105/105/105
f 111/111/111 110/110/110 109/109/109
f 112/112/112 111/111/111 109/109/109
f 115/115/115 114/114/114 113/113/113
f 116/116/116 115/115/115 113/113/113
f 119/119/119 118/118/118 117/117/117
f 120/120/120 119/119/119 117/117/117
f 123/123/123 122/122/122 121/121/121
f 124/124/124 123/123/123 121/121/121
f 127/127/127 126/126/126 125/125/125
f 128/128/128 127/127/127 125/125/125
f 131/131/131 130/130/130 129/129/129
f 132/132/132 131/131/131 129/129/129
f 135/135/135 134/134/134 133/133/133
f 136/136/136 135/135/135 133/133/133
f 139/139/139 138/138/138 137/137/137
f 140/140/140 139/139/139 137/137/137
f 143/143/143 142/142/142 141/141/141
f 144/144/144 143/143/143 141/141/141
f 147/147/147 146/146/146 145/145/145
f 145/145/145 146/146/146 148/148/148
f 149/149/149 146/146/146 147/147/147
f 148/148/148 146/146/146 150/150/150
f 151/151/151 146/146/146 149/149/149
f 150/150/150 146/146/146 151/151/151
f 154/154/154 153/153/153 152/152/152
f 152/152/152 153/153/153 155/155/155
f 156/156/156 153/153/153 154/154/154
f 155/155/155 153/153/153 157/157/157
f 158/158/158 153/153/153 156/156/156
f 157/157/157 153/153/153 158/158/158
f 161/161/161 160/160/160 159/159/159
f 160/160/160 162/162/162 159/159/159
f 163/163/163 160/160/160 161/161/161
f 159/159/159 162/162/162 164/164/164
f 165/165/165 163/163/163 161/161/161
f 162/162/162 166/166/166 164/164/164
f 167/167/167 163/163/163 165/165/165
f 164/164/164 166/166/166 168/168/168
f 169/169/169 167/167/167 165/165/165
f 166/166/166 170/170/170 168/168/168
f 170/170/170 167/167/167 169/169/169
f 168/168/168 170/170/170 169/169/169
