g SM_Wep_Revolver_01_Trigger_01
v -0.003766 -0.01891675 0.007021897
v -0.003766 -0.01121113 0.01402207
v 0.00377683 -0.01121113 0.01402207
v 0.00377683 -0.01891675 0.007021897
v -0.003766 -0.003125649 0.01559576
v -0.003766 -0.003071383 0.00805293
v 0.00377683 -0.003071383 0.00805293
v 0.00377683 -0.003125649 0.01559576
v -0.003766 -0.0111026 0.002897762
v -0.003766 -0.01891675 0.001269814
v 0.00377683 -0.01891675 0.001269814
v 0.00377683 -0.0111026 0.002897762
v -0.003766 -0.03552183 0.01999122
v -0.003766 -0.03378535 0.01961137
v 0.00377683 -0.03378535 0.01961137
v 0.00377683 -0.03552183 0.01999122
v 0.00377683 -0.03161475 0.01255692
v -0.003766 -0.03161475 0.01255692
v -0.003766 -0.0258084 0.007564548
v 0.00377683 -0.0258084 0.007564548
v -0.003766 -0.03383961 0.01125456
v -0.003766 -0.03552183 0.01999122
v 0.00377683 -0.03552183 0.01999122
v 0.00377683 -0.03383961 0.01125456
v 0.00377683 -0.03383961 0.01125456
v 0.00377683 -0.03552183 0.01999122
v 0.00377683 -0.03378535 0.01961137
v 0.00377683 -0.03161475 0.01255692
v 0.00377683 -0.02711076 0.003603205
v 0.00377683 -0.0258084 0.007564548
v 0.00377683 -0.01891675 0.001269814
v 0.00377683 -0.01891675 0.007021897
v 0.00377683 -0.0111026 0.002897762
v 0.00377683 -0.01121113 0.01402207
v 0.00377683 -0.003071383 0.00805293
v 0.00377683 -0.003125649 0.01559576
v 0.00377683 -0.00301712 -0.009583179
v 0.00377683 0.01109177 -0.009583179
v 0.00377683 0.0110375 0.00805293
v 0.00377683 -0.03161475 0.01255692
v 0.00377683 -0.03378535 0.01961137
v -0.003766 -0.03378535 0.01961137
v -0.003766 -0.03161475 0.01255692
v -0.003766 -0.03161475 0.01255692
v -0.003766 -0.03378535 0.01961137
v -0.003766 -0.03552183 0.01999122
v -0.003766 -0.03383961 0.01125456
v -0.003766 -0.02711076 0.003603205
v -0.003766 -0.0258084 0.007564548
v -0.003766 -0.01891675 0.007021897
v -0.003766 -0.01891675 0.001269814
v -0.003766 -0.01121113 0.01402207
v -0.003766 -0.0111026 0.002897762
v -0.003766 -0.003125649 0.01559576
v -0.003766 -0.003071383 0.00805293
v -0.003766 -0.00301712 -0.009583179
v -0.003766 0.0110375 0.00805293
v -0.003766 0.01109177 -0.009583179
v 0.00377683 -0.03383961 0.01125456
v 0.00377683 -0.02711076 0.003603205
v -0.003766 -0.02711076 0.003603205
v -0.003766 -0.03383961 0.01125456
v -0.003766 -0.01891675 0.001269814
v -0.003766 -0.02711076 0.003603205
v 0.00377683 -0.02711076 0.003603205
v 0.00377683 -0.01891675 0.001269814
v 0.00377683 -0.01891675 0.007021897
v 0.00377683 -0.0258084 0.007564548
v -0.003766 -0.0258084 0.007564548
v -0.003766 -0.01891675 0.007021897
v -0.003766 -0.01121113 0.01402207
v -0.003766 -0.003125649 0.01559576
v 0.00377683 -0.003125649 0.01559576
v 0.00377683 -0.01121113 0.01402207
v 0.00377683 -0.0111026 0.002897762
v 0.00377683 -0.00301712 -0.009583179
v -0.003766 -0.00301712 -0.009583179
v -0.003766 -0.0111026 0.002897762
v -0.003766 0.0110375 0.00805293
v -0.003766 0.01109177 -0.009583179
v 0.00377683 0.01109177 -0.009583179
v 0.00377683 0.0110375 0.00805293
v -0.003766 -0.003071383 0.00805293
v -0.003766 0.0110375 0.00805293
v 0.00377683 0.0110375 0.00805293
v 0.00377683 -0.003071383 0.00805293
v 0.00377683 -0.00301712 -0.009583179
v 0.00377683 0.01109177 -0.009583179
v -0.003766 0.01109177 -0.009583179
v -0.003766 -0.00301712 -0.009583179
vt 0.09278397 0.254431
vt 0.09278397 0.254431
vt 0.09278397 0.254431
vt 0.09278397 0.254431
vt 0.09278397 0.254431
vt 0.09278397 0.254431
vt 0.09278397 0.254431
vt 0.09278397 0.254431
vt 0.09278397 0.254431
vt 0.09278397 0.254431
vt 0.09278397 0.254431
vt 0.09278397 0.254431
vt 0.09278397 0.254431
vt 0.09278397 0.254431
vt 0.09278397 0.254431
vt 0.09278397 0.254431
vt 0.09278397 0.254431
vt 0.09278397 0.254431
vt 0.09278397 0.254431
vt 0.09278397 0.254431
vt 0.09278397 0.254431
vt 0.09278397 0.254431
vt 0.09278397 0.254431
vt 0.09278397 0.254431
vt 0.09278397 0.254431
vt 0.09278397 0.254431
vt 0.09278397 0.254431
vt 0.09278397 0.254431
vt 0.09278397 0.254431
vt 0.09278397 0.254431
vt 0.09278397 0.254431
vt 0.09278397 0.254431
vt 0.09278397 0.254431
vt 0.09278397 0.254431
vt 0.09278397 0.254431
vt 0.09278397 0.254431
vt 0.09278397 0.254431
vt 0.09278397 0.254431
vt 0.09278397 0.254431
vt 0.09278397 0.254431
vt 0.09278397 0.254431
vt 0.09278397 0.254431
vt 0.09278397 0.254431
vt 0.09278397 0.254431
vt 0.09278397 0.254431
vt 0.09278397 0.254431
vt 0.09278397 0.254431
vt 0.09278397 0.254431
vt 0.09278397 0.254431
vt 0.09278397 0.254431
vt 0.09278397 0.254431
vt 0.09278397 0.254431
vt 0.09278397 0.254431
vt 0.09278397 0.254431
vt 0.09278397 0.254431
vt 0.09278397 0.254431
vt 0.09278397 0.254431
vt 0.09278397 0.254431
vt 0.09278397 0.254431
vt 0.09278397 0.254431
vt 0.09278397 0.254431
vt 0.09278397 0.254431
vt 0.09278397 0.254431
vt 0.09278397 0.254431
vt 0.09278397 0.254431
vt 0.09278397 0.254431
vt 0.09278397 0.254431
vt 0.09278397 0.254431
vt 0.09278397 0.254431
vt 0.09278397 0.254431
vt 0.09278397 0.254431
vt 0.09278397 0.254431
vt 0.09278397 0.254431
vt 0.09278397 0.254431
vt 0.09278397 0.254431
vt 0.09278397 0.254431
vt 0.09278397 0.254431
vt 0.09278397 0.254431
vt 0.09278397 0.254431
vt 0.09278397 0.254431
vt 0.09278397 0.254431
vt 0.09278397 0.254431
vt 0.09278397 0.254431
vt 0.09278397 0.254431
vt 0.09278397 0.254431
vt 0.09278397 0.254431
vt 0.09278397 0.254431
vt 0.09278397 0.254431
vt 0.09278397 0.254431
vt 0.09278397 0.254431
vn -0.01587105 -0.6824536 0.7307566
vn -0.01587105 -0.6824536 0.7307566
vn -0.01587105 -0.6824536 0.7307566
vn -0.01587105 -0.6824536 0.7307566
vn -0.01587105 0.999874 -0.000345267
vn -0.01587105 0.999874 -0.000345267
vn -0.01587105 0.999874 -0.000345267
vn -0.01587105 0.999874 -0.000345267
vn -0.01587105 0.2063233 -0.9783552
vn -0.01587105 0.2063233 -0.9783552
vn -0.01587105 0.2063233 -0.9783552
vn -0.01587105 0.2063233 -0.9783552
vn -0.01587105 0.2063233 0.9783552
vn -0.01587105 0.2063233 0.9783552
vn -0.01587105 0.2063233 0.9783552
vn -0.01587105 0.2063233 0.9783552
vn -0.01587105 0.6507117 0.759159
vn -0.01587105 0.6507117 0.759159
vn -0.01587105 0.6507117 0.759159
vn -0.01587105 0.6507117 0.759159
vn -0.01587105 -0.968132 -0.2499373
vn -0.01587105 -0.968132 -0.2499373
vn -0.01587105 -0.968132 -0.2499373
vn -0.01587105 -0.968132 -0.2499373
vn 0.999874 0.01587105 -0.0003439156
vn 0.999874 0.01587105 -0.0003439156
vn 0.999874 0.01587105 -0.0003439156
vn 0.999874 0.01587105 -0.0003439156
vn 0.999874 0.01587105 -0.0003439156
vn 0.999874 0.01587105 -0.0003439156
vn 0.999874 0.01587105 -0.0003439156
vn 0.999874 0.01587105 -0.0003439156
vn 0.999874 0.01587105 -0.0003439156
vn 0.999874 0.01587105 -0.0003439156
vn 0.999874 0.01587105 -0.0003439156
vn 0.999874 0.01587105 -0.0003439156
vn 0.999874 0.01587105 -0.0003439156
vn 0.999874 0.01587105 -0.0003439156
vn 0.999874 0.01587105 -0.0003439156
vn -0.01587105 0.968132 0.249937
vn -0.01587105 0.968132 0.249937
vn -0.01587105 0.968132 0.249937
vn -0.01587105 0.968132 0.249937
vn -0.999874 0.01587105 -0.0003439156
vn -0.999874 0.01587105 -0.0003439156
vn -0.999874 0.01587105 -0.0003439156
vn -0.999874 0.01587105 -0.0003439156
vn -0.999874 0.01587105 -0.0003439156
vn -0.999874 0.01587105 -0.0003439156
vn -0.999874 0.01587105 -0.0003439156
vn -0.999874 0.01587105 -0.0003439156
vn -0.999874 0.01587105 -0.0003439156
vn -0.999874 0.01587105 -0.0003439156
vn -0.999874 0.01587105 -0.0003439156
vn -0.999874 0.01587105 -0.0003439156
vn -0.999874 0.01587105 -0.0003439156
vn -0.999874 0.01587105 -0.0003439156
vn -0.999874 0.01587105 -0.0003439156
vn -0.01587105 -0.7459377 -0.6658266
vn -0.01587105 -0.7459377 -0.6658266
vn -0.01587105 -0.7459377 -0.6658266
vn -0.01587105 -0.7459377 -0.6658266
vn -0.01587105 -0.2698073 -0.9627835
vn -0.01587105 -0.2698073 -0.9627835
vn -0.01587105 -0.2698073 -0.9627835
vn -0.01587105 -0.2698073 -0.9627835
vn -0.01587105 0.07935512 0.9967201
vn -0.01587105 0.07935512 0.9967201
vn -0.01587105 0.07935512 0.9967201
vn -0.01587105 0.07935512 0.9967201
vn -0.01587105 -0.2063232 0.9783552
vn -0.01587105 -0.2063232 0.9783552
vn -0.01587105 -0.2063232 0.9783552
vn -0.01587105 -0.2063232 0.9783552
vn -0.01587105 -0.8411638 -0.5405475
vn -0.01587105 -0.8411638 -0.5405475
vn -0.01587105 -0.8411638 -0.5405475
vn -0.01587105 -0.8411638 -0.5405475
vn -0.01587105 0.999874 -0.000345267
vn -0.01587105 0.999874 -0.000345267
vn -0.01587105 0.999874 -0.000345267
vn -0.01587105 0.999874 -0.000345267
vn -0.01587105 -0.01587099 0.9997481
vn -0.01587105 -0.01587099 0.9997481
vn -0.01587105 -0.01587099 0.9997481
vn -0.01587105 -0.01587099 0.9997481
vn -0.01587105 0.01587105 -0.9997481
vn -0.01587105 0.01587105 -0.9997481
vn -0.01587105 0.01587105 -0.9997481
vn -0.01587105 0.01587105 -0.9997481
g SM_Wep_Revolver_01_Trigger_01_0
f 3/3/3 2/2/2 1/1/1
f 4/4/4 3/3/3 1/1/1
f 7/7/7 6/6/6 5/5/5
f 8/8/8 7/7/7 5/5/5
f 11/11/11 10/10/10 9/9/9
f 12/12/12 11/11/11 9/9/9
f 15/15/15 14/14/14 13/13/13
f 16/16/16 15/15/15 13/13/13
f 19/19/19 18/18/18 17/17/17
f 20/20/20 19/19/19 17/17/17
f 23/23/23 22/22/22 21/21/21
f 24/24/24 23/23/23 21/21/21
f 27/27/27 26/26/26 25/25/25
f 28/28/28 27/27/27 25/25/25
f 25/25/25 29/29/29 28/28/28
f 29/29/29 30/30/30 28/28/28
f 30/30/30 29/29/29 31/31/31
f 32/32/32 30/30/30 31/31/31
f 31/31/31 33/33/33 32/32/32
f 33/33/33 34/34/34 32/32/32
f 33/33/33 35/35/35 34/34/34
f 35/35/35 36/36/36 34/34/34
f 33/33/33 37/37/37 35/35/35
f 37/37/37 38/38/38 35/35/35
f 38/38/38 39/39/39 35/35/35
f 42/42/42 41/41/41 40/40/40
f 43/43/43 42/42/42 40/40/40
f 46/46/46 45/45/45 44/44/44
f 47/47/47 46/46/46 44/44/44
f 48/48/48 47/47/47 44/44/44
f 49/49/49 48/48/48 44/44/44
f 48/48/48 49/49/49 50/50/50
f 51/51/51 48/48/48 50/50/50
f 50/50/50 52/52/52 51/51/51
f 52/52/52 53/53/53 51/51/51
f 52/52/52 54/54/54 53/53/53
f 54/54/54 55/55/55 53/53/53
f 55/55/55 56/56/56 53/53/53
f 55/55/55 57/57/57 56/56/56
f 57/57/57 58/58/58 56/56/56
f 61/61/61 60/60/60 59/59/59
f 62/62/62 61/61/61 59/59/59
f 65/65/65 64/64/64 63/63/63
f 66/66/66 65/65/65 63/63/63
f 69/69/69 68/68/68 67/67/67
f 70/70/70 69/69/69 67/67/67
f 73/73/73 72/72/72 71/71/71
f 74/74/74 73/73/73 71/71/71
f 77/77/77 76/76/76 75/75/75
f 78/78/78 77/77/77 75/75/75
f 81/81/81 80/80/80 79/79/79
f 82/82/82 81/81/81 79/79/79
f 85/85/85 84/84/84 83/83/83
f 86/86/86 85/85/85 83/83/83
f 89/89/89 88/88/88 87/87/87
f 90/90/90 89/89/89 87/87/87
