g SM_Wep_Rifle_01_Slide_01
v -0.01745196 -0.001692966 -0.08212735
v -0.01745196 0.004089057 -0.08212735
v -0.01745196 0.004089057 -0.0006650537
v -0.01745196 -0.001692966 -0.0006650537
v 2.260506E-05 0.006658845 -0.08212735
v 0.01505587 0.004089057 -0.08212735
v 0.01505587 0.004089057 -0.0006650537
v 2.260506E-05 0.006658845 -0.0006650537
v 0.01505587 -0.001692966 -0.08212735
v 2.260506E-05 0.0007483289 -0.08212735
v 2.260506E-05 0.0007483289 -0.0006650537
v 0.01505587 -0.001692966 -0.0006650537
v 2.260506E-05 0.008457698 0.01642404
v 0.01505587 0.006016396 0.01642404
v 0.01505587 -0.002720885 0.01642404
v 2.260506E-05 -0.006318584 0.01642404
v -0.02156362 -0.01479889 0.01642404
v -0.01989326 0.006016396 0.01642404
v -0.02156362 0.003446609 0.01642404
v -0.02156362 0.0002343729 0.01642404
v -0.02451888 0.0002343729 0.01642404
v -0.02451888 -0.01479889 0.01642404
v 0.01505587 -0.001692966 -0.08212735
v 0.01505587 0.004089057 -0.08212735
v 2.260506E-05 0.006658845 -0.08212735
v 2.260506E-05 0.0007483289 -0.08212735
v -0.01745196 -0.001692966 -0.08212735
v -0.01745196 0.004089057 -0.08212735
v 2.260506E-05 -0.006318584 -2.260506E-05
v 0.01505587 -0.002720885 -2.260506E-05
v 0.01505587 -0.001692966 -0.0006650537
v 2.260506E-05 0.0007483289 -0.0006650537
v -0.01745196 -0.001692966 -0.0006650537
v -0.02156362 -0.01479889 -2.260506E-05
v -0.01989326 0.006016396 -2.260506E-05
v -0.02156362 0.0002343729 -2.260506E-05
v -0.02156362 0.003446609 -2.260506E-05
v -0.02451888 -0.01479889 -2.260506E-05
v -0.02451888 0.0002343729 -2.260506E-05
v 0.01505587 0.004089057 -0.0006650537
v 0.01505587 0.006016396 -2.260506E-05
v 2.260506E-05 0.008457698 -2.260506E-05
v 2.260506E-05 0.006658845 -0.0006650537
v -0.01745196 0.004089057 -0.0006650537
v -0.01989326 0.006016396 -2.260506E-05
v -0.02156362 -0.01479889 -2.260506E-05
v -0.01745196 -0.001692966 -0.0006650537
v 2.260506E-05 -0.006318584 0.01642404
v 0.01505587 -0.002720885 0.01642404
v 0.01505587 -0.002720885 -2.260506E-05
v 2.260506E-05 -0.006318584 -2.260506E-05
v 0.01505587 0.006016396 -2.260506E-05
v 0.01505587 0.006016396 0.01642404
v 2.260506E-05 0.008457698 0.01642404
v 2.260506E-05 0.008457698 -2.260506E-05
v -0.02156362 0.003446609 -2.260506E-05
v -0.02156362 0.003446609 0.01642404
v -0.02156362 0.0002343729 0.01642404
v -0.02156362 0.0002343729 -2.260506E-05
v -0.04931733 -0.01364248 0.007943742
v -0.04931733 -0.0009220317 0.007943742
v -0.04777546 -0.0009220317 0.009999573
v -0.04777546 -0.01364248 0.009999573
v -0.01989326 0.006016396 0.01642404
v -0.02156362 0.003446609 0.01642404
v -0.02156362 0.003446609 -2.260506E-05
v -0.01989326 0.006016396 -2.260506E-05
v -0.02156362 -0.01479889 -2.260506E-05
v -0.02451888 -0.01479889 -2.260506E-05
v -0.02451888 -0.01479889 0.01642404
v -0.02156362 -0.01479889 0.01642404
v -0.02156362 0.0002343729 0.01642404
v -0.02451888 0.0002343729 0.01642404
v -0.02451888 0.0002343729 -2.260506E-05
v -0.02156362 0.0002343729 -2.260506E-05
v -0.02451888 -0.01364248 0.002161711
v -0.03107183 -0.01364248 0.01051353
v -0.02451888 -0.01364248 0.01308332
v -0.02927298 -0.01364248 0.001390778
v -0.03711084 -0.01364248 0.007686757
v -0.03711084 -0.01364248 0.001262292
v -0.04507719 -0.01364248 0.004217543
v -0.04314984 -0.01364248 0.007301293
v -0.04777546 -0.01364248 0.009999573
v -0.04931733 -0.01364248 0.007943742
v -0.02451888 -0.01364248 0.01308332
v -0.03107183 -0.0009220317 0.01051353
v -0.02451888 -0.0009220317 0.01308332
v -0.03107183 -0.01364248 0.01051353
v -0.03711084 -0.0009220317 0.007686757
v -0.03711084 -0.01364248 0.007686757
v -0.02451888 -0.0009220317 0.01308332
v -0.02927298 -0.0009220317 0.001390778
v -0.02451888 -0.0009220317 0.002161711
v -0.03107183 -0.0009220317 0.01051353
v -0.03711084 -0.0009220317 0.001262292
v -0.03711084 -0.0009220317 0.007686757
v -0.04507719 -0.0009220317 0.004217543
v -0.04314984 -0.0009220317 0.007301293
v -0.04931733 -0.0009220317 0.007943742
v -0.04777546 -0.0009220317 0.009999573
v -0.02451888 -0.0009220317 0.002161711
v -0.02927298 -0.0009220317 0.001390778
v -0.02927298 -0.01364248 0.001390778
v -0.02451888 -0.01364248 0.002161711
v -0.02927298 -0.0009220317 0.001390778
v -0.03711084 -0.0009220317 0.001262292
v -0.03711084 -0.01364248 0.001262292
v -0.02927298 -0.01364248 0.001390778
v -0.03711084 -0.0009220317 0.001262292
v -0.04507719 -0.0009220317 0.004217543
v -0.04507719 -0.01364248 0.004217543
v -0.03711084 -0.01364248 0.001262292
v -0.03711084 -0.0009220317 0.007686757
v -0.03711084 -0.01364248 0.007686757
v -0.04314984 -0.01364248 0.007301293
v -0.04314984 -0.0009220317 0.007301293
v -0.04314984 -0.01364248 0.007301293
v -0.04777546 -0.01364248 0.009999573
v -0.04777546 -0.0009220317 0.009999573
v -0.04314984 -0.0009220317 0.007301293
v -0.04507719 -0.0009220317 0.004217543
v -0.04931733 -0.0009220317 0.007943742
v -0.04931733 -0.01364248 0.007943742
v -0.04507719 -0.01364248 0.004217543
v -0.02156362 -0.01479889 -2.260506E-05
v -0.02156362 -0.01479889 0.01642404
v 2.260506E-05 -0.006318584 0.01642404
v 2.260506E-05 -0.006318584 -2.260506E-05
v 2.260506E-05 0.0007483289 -0.08212735
v -0.01745196 -0.001692966 -0.08212735
v -0.01745196 -0.001692966 -0.0006650537
v 2.260506E-05 0.0007483289 -0.0006650537
v -0.01745196 0.004089057 -0.08212735
v 2.260506E-05 0.006658845 -0.08212735
v 2.260506E-05 0.006658845 -0.0006650537
v -0.01745196 0.004089057 -0.0006650537
v 2.260506E-05 0.008457698 -2.260506E-05
v -0.01989326 0.006016396 -2.260506E-05
v -0.01745196 0.004089057 -0.0006650537
v 2.260506E-05 0.006658845 -0.0006650537
v 2.260506E-05 0.008457698 0.01642404
v -0.01989326 0.006016396 0.01642404
v -0.01989326 0.006016396 -2.260506E-05
v 2.260506E-05 0.008457698 -2.260506E-05
v -0.02451888 0.0002343729 0.01642404
v -0.02451888 -0.0009220317 0.002161711
v -0.02451888 0.0002343729 -2.260506E-05
v -0.02451888 -0.0009220317 0.01308332
v -0.02451888 -0.01364248 0.002161711
v -0.02451888 -0.01479889 0.01642404
v -0.02451888 -0.01479889 -2.260506E-05
v -0.02451888 -0.01364248 0.01308332
vt 0.1347052 0.2316425
vt 0.1347052 0.2316425
vt 0.1347052 0.2316425
vt 0.1347052 0.2316425
vt 0.1347052 0.2316425
vt 0.1347052 0.2316425
vt 0.1347052 0.2316425
vt 0.1347052 0.2316425
vt 0.1347052 0.2316425
vt 0.1347052 0.2316425
vt 0.1347052 0.2316425
vt 0.1347052 0.2316425
vt 0.1347052 0.2316425
vt 0.1347052 0.2316425
vt 0.1347052 0.2316425
vt 0.1347052 0.2316425
vt 0.1347052 0.2316425
vt 0.1347052 0.2316425
vt 0.1347052 0.2316425
vt 0.1347052 0.2316425
vt 0.1347052 0.2316425
vt 0.1347052 0.2316425
vt 0.1347052 0.2316425
vt 0.1347052 0.2316425
vt 0.1347052 0.2316425
vt 0.1347052 0.2316425
vt 0.1347052 0.2316425
vt 0.1347052 0.2316425
vt 0.1347052 0.2316425
vt 0.1347052 0.2316425
vt 0.1347052 0.2316425
vt 0.1347052 0.2316425
vt 0.1347052 0.2316425
vt 0.1347052 0.2316425
vt 0.1347052 0.2316425
vt 0.1347052 0.2316425
vt 0.1347052 0.2316425
vt 0.1347052 0.2316425
vt 0.1347052 0.2316425
vt 0.1347052 0.2316425
vt 0.1347052 0.2316425
vt 0.1347052 0.2316425
vt 0.1347052 0.2316425
vt 0.1347052 0.2316425
vt 0.1347052 0.2316425
vt 0.1347052 0.2316425
vt 0.1347052 0.2316425
vt 0.1347052 0.2316425
vt 0.1347052 0.2316425
vt 0.1347052 0.2316425
vt 0.1347052 0.2316425
vt 0.1347052 0.2316425
vt 0.1347052 0.2316425
vt 0.1347052 0.2316425
vt 0.1347052 0.2316425
vt 0.1347052 0.2316425
vt 0.1347052 0.2316425
vt 0.1347052 0.2316425
vt 0.1347052 0.2316425
vt 0.1347052 0.2316425
vt 0.1347052 0.2316425
vt 0.1347052 0.2316425
vt 0.1347052 0.2316425
vt 0.1347052 0.2316425
vt 0.1347052 0.2316425
vt 0.1347052 0.2316425
vt 0.1347052 0.2316425
vt 0.1347052 0.2316425
vt 0.1347052 0.2316425
vt 0.1347052 0.2316425
vt 0.1347052 0.2316425
vt 0.1347052 0.2316425
vt 0.1347052 0.2316425
vt 0.1347052 0.2316425
vt 0.1347052 0.2316425
vt 0.1347052 0.2316425
vt 0.1347052 0.2316425
vt 0.1347052 0.2316425
vt 0.1347052 0.2316425
vt 0.1347052 0.2316425
vt 0.1347052 0.2316425
vt 0.1347052 0.2316425
vt 0.1347052 0.2316425
vt 0.1347052 0.2316425
vt 0.1347052 0.2316425
vt 0.1347052 0.2316425
vt 0.1347052 0.2316425
vt 0.1347052 0.2316425
vt 0.1347052 0.2316425
vt 0.1347052 0.2316425
vt 0.1347052 0.2316425
vt 0.1347052 0.2316425
vt 0.1347052 0.2316425
vt 0.1347052 0.2316425
vt 0.1347052 0.2316425
vt 0.1347052 0.2316425
vt 0.1347052 0.2316425
vt 0.1347052 0.2316425
vt 0.1347052 0.2316425
vt 0.1347052 0.2316425
vt 0.1347052 0.2316425
vt 0.1347052 0.2316425
vt 0.1347052 0.2316425
vt 0.1347052 0.2316425
vt 0.1347052 0.2316425
vt 0.1347052 0.2316425
vt 0.1347052 0.2316425
vt 0.1347052 0.2316425
vt 0.1347052 0.2316425
vt 0.1347052 0.2316425
vt 0.1347052 0.2316425
vt 0.1347052 0.2316425
vt 0.1347052 0.2316425
vt 0.1347052 0.2316425
vt 0.1347052 0.2316425
vt 0.1347052 0.2316425
vt 0.1347052 0.2316425
vt 0.1347052 0.2316425
vt 0.1347052 0.2316425
vt 0.1347052 0.2316425
vt 0.1347052 0.2316425
vt 0.1347052 0.2316425
vt 0.1347052 0.2316425
vt 0.1347052 0.2316425
vt 0.1347052 0.2316425
vt 0.1347052 0.2316425
vt 0.1347052 0.2316425
vt 0.1347052 0.2316425
vt 0.1347052 0.2316425
vt 0.1347052 0.2316425
vt 0.1347052 0.2316425
vt 0.1347052 0.2316425
vt 0.1347052 0.2316425
vt 0.1347052 0.2316425
vt 0.1347052 0.2316425
vt 0.1347052 0.2316425
vt 0.1347052 0.2316425
vt 0.1347052 0.2316425
vt 0.1347052 0.2316425
vt 0.1347052 0.2316425
vt 0.1347052 0.2316425
vt 0.1347052 0.2316425
vt 0.1347052 0.2316425
vt 0.1347052 0.2316425
vt 0.1347052 0.2316425
vt 0.1347052 0.2316425
vt 0.1347052 0.2316425
vt 0.1347052 0.2316425
vt 0.1347052 0.2316425
vt 0.1347052 0.2316425
vt 0.1347052 0.2316425
vt 0.1347052 0.2316425
vt 0.1347052 0.2316425
vn -0.999874 0.01587105 -0.0003439156
vn -0.999874 0.01587105 -0.0003439156
vn -0.999874 0.01587105 -0.0003439156
vn -0.999874 0.01587105 -0.0003439156
vn 0.172001 0.9850967 0
vn 0.172001 0.9850967 0
vn 0.172001 0.9850967 0
vn 0.172001 0.9850967 0
vn -0.172001 -0.9850967 0
vn -0.172001 -0.9850967 0
vn -0.172001 -0.9850967 0
vn -0.172001 -0.9850967 0
vn -0.01587105 -0.01587099 0.9997481
vn -0.01587105 0.01587105 0.9997481
vn -0.01587105 0.01587105 0.9997481
vn -0.01587105 -0.01587099 0.9997481
vn -0.01587105 -0.01587099 0.9997481
vn -0.01587105 -0.01587099 0.9997481
vn -0.01587105 0.01587105 0.9997481
vn -0.01587105 0.01587105 0.9997481
vn -0.01587105 0.01587105 0.9997481
vn -0.01587105 0.01587105 0.9997481
vn -0.01587105 0.01587105 -0.9997481
vn -0.01587105 0.01587105 -0.9997481
vn -0.01587105 0.01587105 -0.9997481
vn -0.01587105 0.01587105 -0.9997481
vn -0.01587105 0.01587105 -0.9997481
vn -0.01587105 0.01587105 -0.9997481
vn 0.01587099 -0.1110971 -0.9936828
vn 0.01587099 -0.1745812 -0.9845148
vn 0.01587099 -0.1745812 -0.9845148
vn 0.01587099 -0.1110971 -0.9936828
vn 0.01587099 -0.07935506 -0.9967201
vn 0.01587099 -0.01587099 -0.9997481
vn -0.01587105 0.01587105 -0.9997481
vn -0.01587105 0.01587105 -0.9997481
vn -0.01587105 0.01587105 -0.9997481
vn -0.01587105 0.01587105 -0.9997481
vn -0.01587105 0.01587105 -0.9997481
vn 0.04761302 0.3332913 -0.9416209
vn 0.04761302 0.3332913 -0.9416209
vn 0.04761302 0.3332913 -0.9416209
vn 0.04761302 0.3332913 -0.9416209
vn -0.2063233 0.01587105 -0.9783552
vn -0.2063233 0.01587105 -0.9783552
vn -0.2063233 0.01587105 -0.9783552
vn -0.2063233 0.01587105 -0.9783552
vn 0.2380652 -0.968132 -0.07775256
vn 0.2380652 -0.968132 -0.07775256
vn 0.2380652 -0.968132 -0.07775256
vn 0.2380652 -0.968132 -0.07775256
vn 0.172001 0.9850967 0
vn 0.172001 0.9850967 0
vn 0.172001 0.9850967 0
vn 0.172001 0.9850967 0
vn -0.999874 0.01587105 -0.0003439156
vn -0.999874 0.01587105 -0.0003439156
vn -0.999874 0.01587105 -0.0003439156
vn -0.999874 0.01587105 -0.0003439156
vn -0.8094218 0.01587105 0.5870132
vn -0.8094218 0.01587105 0.5870132
vn -0.8094218 0.01587105 0.5870132
vn -0.8094218 0.01587105 0.5870132
vn -0.8344646 0.5510616 0
vn -0.8344646 0.5510616 0
vn -0.8344646 0.5510616 0
vn -0.8344646 0.5510616 0
vn -0.01587105 -0.999874 -0.000345267
vn -0.01587105 -0.999874 -0.000345267
vn -0.01587105 -0.999874 -0.000345267
vn -0.01587105 -0.999874 -0.000345267
vn -0.01587105 0.999874 -0.000345267
vn -0.01587105 0.999874 -0.000345267
vn -0.01587105 0.999874 -0.000345267
vn -0.01587105 0.999874 -0.000345267
vn -0.01587105 -0.999874 -0.000345267
vn -0.01587105 -0.999874 -0.000345267
vn -0.01587105 -0.999874 -0.000345267
vn -0.01587105 -0.999874 -0.000345267
vn -0.01587105 -0.999874 -0.000345267
vn -0.01587105 -0.999874 -0.000345267
vn -0.01587105 -0.999874 -0.000345267
vn -0.01587105 -0.999874 -0.000345267
vn -0.01587105 -0.999874 -0.000345267
vn -0.01587105 -0.999874 -0.000345267
vn -0.3650334 0.01587105 0.9308591
vn -0.3967754 0.01587105 0.9177785
vn -0.3650334 0.01587105 0.9308591
vn -0.3967754 0.01587105 0.9177785
vn -0.4285175 0.01587105 0.9033941
vn -0.4285175 0.01587105 0.9033941
vn -0.01587105 0.999874 -0.000345267
vn -0.01587105 0.999874 -0.000345267
vn -0.01587105 0.999874 -0.000345267
vn -0.01587105 0.999874 -0.000345267
vn -0.01587105 0.999874 -0.000345267
vn -0.01587105 0.999874 -0.000345267
vn -0.01587105 0.999874 -0.000345267
vn -0.01587105 0.999874 -0.000345267
vn -0.01587105 0.999874 -0.000345267
vn -0.01587105 0.999874 -0.000345267
vn 0.1428391 0.01587105 -0.9896187
vn 0.1428391 0.01587105 -0.9896187
vn 0.1428391 0.01587105 -0.9896187
vn 0.1428391 0.01587105 -0.9896187
vn 0.01587099 0.01587105 -0.9997481
vn 0.01587099 0.01587105 -0.9997481
vn 0.01587099 0.01587105 -0.9997481
vn 0.01587099 0.01587105 -0.9997481
vn -0.3650334 0.01587105 -0.9308591
vn -0.3650334 0.01587105 -0.9308591
vn -0.3650334 0.01587105 -0.9308591
vn -0.3650334 0.01587105 -0.9308591
vn -0.04761302 0.01587105 0.9987398
vn -0.04761302 0.01587105 0.9987398
vn -0.04761302 0.01587105 0.9987398
vn -0.04761302 0.01587105 0.9987398
vn 0.5237435 0.01587105 0.8517281
vn 0.5237435 0.01587105 0.8517281
vn 0.5237435 0.01587105 0.8517281
vn 0.5237435 0.01587105 0.8517281
vn -0.6507117 0.01587105 -0.759159
vn -0.6507117 0.01587105 -0.759159
vn -0.6507117 0.01587105 -0.759159
vn -0.6507117 0.01587105 -0.759159
vn 0.3632082 -0.931708 0
vn 0.3632082 -0.931708 0
vn 0.3632082 -0.931708 0
vn 0.3632082 -0.931708 0
vn 0.1414213 -0.9899495 0
vn 0.1414213 -0.9899495 0
vn 0.1414213 -0.9899495 0
vn 0.1414213 -0.9899495 0
vn -0.1414214 0.9899495 0
vn -0.1414214 0.9899495 0
vn -0.1414214 0.9899495 0
vn -0.1414214 0.9899495 0
vn -0.04761302 0.3015493 -0.952261
vn -0.04761302 0.3015493 -0.952261
vn -0.04761302 0.3015493 -0.952261
vn -0.04761302 0.3015493 -0.952261
vn -0.1104315 0.9938838 0
vn -0.1104315 0.9938838 0
vn -0.1104315 0.9938838 0
vn -0.1104315 0.9938838 0
vn -0.999874 0.01587105 -0.0003439156
vn -0.999874 0.01587105 -0.0003439156
vn -0.999874 0.01587105 -0.0003439156
vn -0.999874 0.01587105 -0.0003439156
vn -0.999874 0.01587105 -0.0003439156
vn -0.999874 0.01587105 -0.0003439156
vn -0.999874 0.01587105 -0.0003439156
vn -0.999874 0.01587105 -0.0003439156
g SM_Wep_Rifle_01_Slide_01_0
f 3/3/3 2/2/2 1/1/1
f 4/4/4 3/3/3 1/1/1
f 7/7/7 6/6/6 5/5/5
f 8/8/8 7/7/7 5/5/5
f 11/11/11 10/10/10 9/9/9
f 12/12/12 11/11/11 9/9/9
f 15/15/15 14/14/14 13/13/13
f 16/16/16 15/15/15 13/13/13
f 16/16/16 13/13/13 17/17/17
f 13/13/13 18/18/18 17/17/17
f 18/18/18 19/19/19 17/17/17
f 19/19/19 20/20/20 17/17/17
f 20/20/20 21/21/21 17/17/17
f 21/21/21 22/22/22 17/17/17
f 25/25/25 24/24/24 23/23/23
f 26/26/26 25/25/25 23/23/23
f 26/26/26 27/27/27 25/25/25
f 27/27/27 28/28/28 25/25/25
f 31/31/31 30/30/30 29/29/29
f 32/32/32 31/31/31 29/29/29
f 32/32/32 29/29/29 33/33/33
f 29/29/29 34/34/34 33/33/33
f 34/34/34 36/36/36 35/35/35
f 36/36/36 37/37/37 35/35/35
f 34/34/34 38/38/38 36/36/36
f 38/38/38 39/39/39 36/36/36
f 42/42/42 41/41/41 40/40/40
f 43/43/43 42/42/42 40/40/40
f 46/46/46 45/45/45 44/44/44
f 47/47/47 46/46/46 44/44/44
f 50/50/50 49/49/49 48/48/48
f 51/51/51 50/50/50 48/48/48
f 54/54/54 53/53/53 52/52/52
f 55/55/55 54/54/54 52/52/52
f 58/58/58 57/57/57 56/56/56
f 59/59/59 58/58/58 56/56/56
f 62/62/62 61/61/61 60/60/60
f 63/63/63 62/62/62 60/60/60
f 66/66/66 65/65/65 64/64/64
f 67/67/67 66/66/66 64/64/64
f 70/70/70 69/69/69 68/68/68
f 71/71/71 70/70/70 68/68/68
f 74/74/74 73/73/73 72/72/72
f 75/75/75 74/74/74 72/72/72
f 78/78/78 77/77/77 76/76/76
f 77/77/77 79/79/79 76/76/76
f 77/77/77 80/80/80 79/79/79
f 80/80/80 81/81/81 79/79/79
f 82/82/82 81/81/81 80/80/80
f 83/83/83 82/82/82 80/80/80
f 83/83/83 84/84/84 82/82/82
f 84/84/84 85/85/85 82/82/82
f 88/88/88 87/87/87 86/86/86
f 87/87/87 89/89/89 86/86/86
f 87/87/87 90/90/90 89/89/89
f 90/90/90 91/91/91 89/89/89
f 94/94/94 93/93/93 92/92/92
f 93/93/93 95/95/95 92/92/92
f 93/93/93 96/96/96 95/95/95
f 96/96/96 97/97/97 95/95/95
f 96/96/96 98/98/98 97/97/97
f 98/98/98 99/99/99 97/97/97
f 98/98/98 100/100/100 99/99/99
f 100/100/100 101/101/101 99/99/99
f 104/104/104 103/103/103 102/102/102
f 105/105/105 104/104/104 102/102/102
f 108/108/108 107/107/107 106/106/106
f 109/109/109 108/108/108 106/106/106
f 112/112/112 111/111/111 110/110/110
f 113/113/113 112/112/112 110/110/110
f 116/116/116 115/115/115 114/114/114
f 117/117/117 116/116/116 114/114/114
f 120/120/120 119/119/119 118/118/118
f 121/121/121 120/120/120 118/118/118
f 124/124/124 123/123/123 122/122/122
f 125/125/125 124/124/124 122/122/122
f 128/128/128 127/127/127 126/126/126
f 129/129/129 128/128/128 126/126/126
f 132/132/132 131/131/131 130/130/130
f 133/133/133 132/132/132 130/130/130
f 136/136/136 135/135/135 134/134/134
f 137/137/137 136/136/136 134/134/134
f 140/140/140 139/139/139 138/138/138
f 141/141/141 140/140/140 138/138/138
f 144/144/144 143/143/143 142/142/142
f 145/145/145 144/144/144 142/142/142
f 148/148/148 147/147/147 146/146/146
f 147/147/147 149/149/149 146/146/146
f 150/150/150 147/147/147 148/148/148
f 146/146/146 149/149/149 151/151/151
f 152/152/152 150/150/150 148/148/148
f 149/149/149 153/153/153 151/151/151
f 153/153/153 150/150/150 152/152/152
f 151/151/151 153/153/153 152/152/152
