g SM_Wep_Hybrid_01_Slide_01
v 0.01989623 0.005005298 -0.002887595
v 0.02334242 0.005005298 -0.002887595
v 0.02334242 0.005005298 0.002893114
v 0.01989623 0.005005298 0.002893114
v 0.01989623 0.005005298 0.002893114
v 0.02334242 0.005005298 0.002893114
v 0.02334242 2.758577E-06 0.00578347
v 0.01989623 2.758577E-06 0.00578347
v 0.01989623 2.758577E-06 0.00578347
v 0.02334242 2.758577E-06 0.00578347
v 0.02334242 -0.004999779 0.002893114
v 0.01989623 -0.004999779 0.002893114
v 0.01989623 -0.004999779 0.002893114
v 0.02334242 -0.004999779 0.002893114
v 0.02334242 -0.004999779 -0.002887595
v 0.01989623 -0.004999779 -0.002887595
v 0.01989623 -0.004999779 -0.002887595
v 0.02334242 -0.004999779 -0.002887595
v 0.02334242 2.758577E-06 -0.005777951
v 0.01989623 2.758577E-06 -0.005777951
v 0.01989623 2.758577E-06 -0.005777951
v 0.02334242 2.758577E-06 -0.005777951
v 0.02334242 0.005005298 -0.002887595
v 0.01989623 0.005005298 -0.002887595
v 0.00205384 -0.002609678 -0.001498003
v 0.01911805 -0.002609678 -0.001498003
v 0.01911805 2.758577E-06 -0.003054347
v 0.00205384 2.758577E-06 -0.003054347
v 0.00205384 2.758577E-06 -0.003054347
v 0.01911805 2.758577E-06 -0.003054347
v 0.01911805 0.002615197 -0.001498003
v 0.00205384 0.002615197 -0.001498003
v 0.00205384 0.002615197 -0.001498003
v 0.01911805 0.002615197 -0.001498003
v 0.01911805 0.002615197 0.001503522
v 0.00205384 0.002615197 0.001503522
v 0.00205384 0.002615197 0.001503522
v 0.01911805 0.002615197 0.001503522
v 0.01911805 2.758577E-06 0.003059866
v 0.00205384 2.758577E-06 0.003059866
v 0.00205384 2.758577E-06 0.003059866
v 0.01911805 2.758577E-06 0.003059866
v 0.01911805 -0.002609678 0.001503522
v 0.00205384 -0.002609678 0.001503522
v 0.00205384 -0.002609678 0.001503522
v 0.01911805 -0.002609678 0.001503522
v 0.01911805 -0.002609678 -0.001498003
v 0.00205384 -0.002609678 -0.001498003
v 0.01911805 0.002615197 -0.001498003
v 0.01989623 0.005005298 -0.002887595
v 0.01989623 0.005005298 0.002893114
v 0.01911805 0.002615197 0.001503522
v 0.01911805 0.002615197 0.001503522
v 0.01989623 0.005005298 0.002893114
v 0.01989623 2.758577E-06 0.00578347
v 0.01911805 2.758577E-06 0.003059866
v 0.01911805 2.758577E-06 0.003059866
v 0.01989623 2.758577E-06 0.00578347
v 0.01989623 -0.004999779 0.002893114
v 0.01911805 -0.002609678 0.001503522
v 0.01911805 -0.002609678 0.001503522
v 0.01989623 -0.004999779 0.002893114
v 0.01989623 -0.004999779 -0.002887595
v 0.01911805 -0.002609678 -0.001498003
v 0.01911805 -0.002609678 -0.001498003
v 0.01989623 -0.004999779 -0.002887595
v 0.01989623 2.758577E-06 -0.005777951
v 0.01911805 2.758577E-06 -0.003054347
v 0.01911805 2.758577E-06 -0.003054347
v 0.01989623 2.758577E-06 -0.005777951
v 0.01989623 0.005005298 -0.002887595
v 0.01911805 0.002615197 -0.001498003
v -2.758577E-06 -0.004166022 -0.02945663
v 0.00205384 -0.004166022 -0.02945663
v 0.00205384 2.758577E-06 -0.02945663
v -2.758577E-06 2.758577E-06 -0.02945663
v 0.00205384 0.004115956 -0.02945663
v -2.758577E-06 0.004115956 -0.02945663
v -2.758577E-06 0.004115956 -0.02945663
v 0.00205384 0.004115956 -0.02945663
v 0.00205384 0.004115956 0.02740555
v -2.758577E-06 0.004115956 0.02740555
v -2.758577E-06 0.004115956 0.02740555
v 0.00205384 0.004115956 0.02740555
v 0.00205384 2.758577E-06 0.02740555
v -2.758577E-06 2.758577E-06 0.02740555
v 0.00205384 -0.004166022 0.02740555
v -2.758577E-06 -0.004166022 0.02740555
v -2.758577E-06 -0.004166022 0.02740555
v 0.00205384 -0.004166022 0.02740555
v 0.00205384 -0.004166022 -0.02945663
v -2.758577E-06 -0.004166022 -0.02945663
v 0.02334242 -0.004999779 -0.002887595
v 0.02334242 2.758577E-06 2.758577E-06
v 0.02334242 2.758577E-06 -0.005777951
v 0.02334242 -0.004999779 0.002893114
v 0.02334242 0.005005298 -0.002887595
v 0.02334242 2.758577E-06 0.00578347
v 0.02334242 0.005005298 0.002893114
v 0.00205384 -0.002609678 0.001503522
v 0.00205384 -0.004166022 0.02740555
v 0.00205384 2.758577E-06 0.02740555
v 0.00205384 2.758577E-06 0.003059866
v 0.00205384 -0.002609678 -0.001498003
v 0.00205384 0.004115956 0.02740555
v 0.00205384 -0.004166022 -0.02945663
v 0.00205384 0.002615197 0.001503522
v 0.00205384 2.758577E-06 -0.003054347
v 0.00205384 0.004115956 -0.02945663
v 0.00205384 2.758577E-06 -0.02945663
v 0.00205384 0.002615197 -0.001498003
vt 0.09163648 0.2530596
vt 0.09163648 0.2530596
vt 0.09163648 0.2530596
vt 0.09163648 0.2530596
vt 0.09163648 0.2530596
vt 0.09163648 0.2530596
vt 0.09163648 0.2530596
vt 0.09163648 0.2530596
vt 0.09163648 0.2530596
vt 0.09163648 0.2530596
vt 0.09163648 0.2530596
vt 0.09163648 0.2530596
vt 0.09163648 0.2530596
vt 0.09163648 0.2530596
vt 0.09163648 0.2530596
vt 0.09163648 0.2530596
vt 0.09163648 0.2530596
vt 0.09163648 0.2530596
vt 0.09163648 0.2530596
vt 0.09163648 0.2530596
vt 0.09163648 0.2530596
vt 0.09163648 0.2530596
vt 0.09163648 0.2530596
vt 0.09163648 0.2530596
vt 0.09163648 0.2530596
vt 0.09163648 0.2530596
vt 0.09163648 0.2530596
vt 0.09163648 0.2530596
vt 0.09163648 0.2530596
vt 0.09163648 0.2530596
vt 0.09163648 0.2530596
vt 0.09163648 0.2530596
vt 0.09163648 0.2530596
vt 0.09163648 0.2530596
vt 0.09163648 0.2530596
vt 0.09163648 0.2530596
vt 0.09163648 0.2530596
vt 0.09163648 0.2530596
vt 0.09163648 0.2530596
vt 0.09163648 0.2530596
vt 0.09163648 0.2530596
vt 0.09163648 0.2530596
vt 0.09163648 0.2530596
vt 0.09163648 0.2530596
vt 0.09163648 0.2530596
vt 0.09163648 0.2530596
vt 0.09163648 0.2530596
vt 0.09163648 0.2530596
vt 0.09163648 0.2530596
vt 0.09163648 0.2530596
vt 0.09163648 0.2530596
vt 0.09163648 0.2530596
vt 0.09163648 0.2530596
vt 0.09163648 0.2530596
vt 0.09163648 0.2530596
vt 0.09163648 0.2530596
vt 0.09163648 0.2530596
vt 0.09163648 0.2530596
vt 0.09163648 0.2530596
vt 0.09163648 0.2530596
vt 0.09163648 0.2530596
vt 0.09163648 0.2530596
vt 0.09163648 0.2530596
vt 0.09163648 0.2530596
vt 0.09163648 0.2530596
vt 0.09163648 0.2530596
vt 0.09163648 0.2530596
vt 0.09163648 0.2530596
vt 0.09163648 0.2530596
vt 0.09163648 0.2530596
vt 0.09163648 0.2530596
vt 0.09163648 0.2530596
vt 0.101765 0.2277383
vt 0.101765 0.2277383
vt 0.101765 0.2277383
vt 0.101765 0.2277383
vt 0.101765 0.2277383
vt 0.101765 0.2277383
vt 0.101765 0.2277383
vt 0.101765 0.2277383
vt 0.101765 0.2277383
vt 0.101765 0.2277383
vt 0.101765 0.2277383
vt 0.101765 0.2277383
vt 0.101765 0.2277383
vt 0.101765 0.2277383
vt 0.101765 0.2277383
vt 0.101765 0.2277383
vt 0.101765 0.2277383
vt 0.101765 0.2277383
vt 0.101765 0.2277383
vt 0.101765 0.2277383
vt 0.09163648 0.2530596
vt 0.09163648 0.2530596
vt 0.09163648 0.2530596
vt 0.09163648 0.2530596
vt 0.09163648 0.2530596
vt 0.09163648 0.2530596
vt 0.09163648 0.2530596
vt 0.101765 0.2277383
vt 0.101765 0.2277383
vt 0.101765 0.2277383
vt 0.101765 0.2277383
vt 0.101765 0.2277383
vt 0.101765 0.2277383
vt 0.101765 0.2277383
vt 0.101765 0.2277383
vt 0.101765 0.2277383
vt 0.101765 0.2277383
vt 0.101765 0.2277383
vt 0.101765 0.2277383
vn -0.01587105 0.999874 -0.000345267
vn -0.01587105 0.999874 -0.000345267
vn -0.01587105 0.999874 -0.000345267
vn -0.01587105 0.999874 -0.000345267
vn -0.01587105 0.4920015 0.8704497
vn -0.01587105 0.4920015 0.8704497
vn -0.01587105 0.4920015 0.8704497
vn -0.01587105 0.4920015 0.8704497
vn -0.01587105 -0.4920015 0.8704497
vn -0.01587105 -0.4920015 0.8704497
vn -0.01587105 -0.4920015 0.8704497
vn -0.01587105 -0.4920015 0.8704497
vn -0.01587105 -0.999874 -0.000345267
vn -0.01587105 -0.999874 -0.000345267
vn -0.01587105 -0.999874 -0.000345267
vn -0.01587105 -0.999874 -0.000345267
vn -0.01587105 -0.4920015 -0.8704497
vn -0.01587105 -0.4920015 -0.8704497
vn -0.01587105 -0.4920015 -0.8704497
vn -0.01587105 -0.4920015 -0.8704497
vn -0.01587105 0.4920015 -0.8704497
vn -0.01587105 0.4920015 -0.8704497
vn -0.01587105 0.4920015 -0.8704497
vn -0.01587105 0.4920015 -0.8704497
vn -0.01587105 -0.4920015 -0.8704497
vn -0.01587105 -0.4920015 -0.8704497
vn -0.01587105 -0.4920015 -0.8704497
vn -0.01587105 -0.4920015 -0.8704497
vn -0.01587105 0.4920015 -0.8704497
vn -0.01587105 0.4920015 -0.8704497
vn -0.01587105 0.4920015 -0.8704497
vn -0.01587105 0.4920015 -0.8704497
vn -0.01587105 0.999874 -0.000345267
vn -0.01587105 0.999874 -0.000345267
vn -0.01587105 0.999874 -0.000345267
vn -0.01587105 0.999874 -0.000345267
vn -0.01587105 0.4920015 0.8704497
vn -0.01587105 0.4920015 0.8704497
vn -0.01587105 0.4920015 0.8704497
vn -0.01587105 0.4920015 0.8704497
vn -0.01587105 -0.4920015 0.8704497
vn -0.01587105 -0.4920015 0.8704497
vn -0.01587105 -0.4920015 0.8704497
vn -0.01587105 -0.4920015 0.8704497
vn -0.01587105 -0.999874 -0.000345267
vn -0.01587105 -0.999874 -0.000345267
vn -0.01587105 -0.999874 -0.000345267
vn -0.01587105 -0.999874 -0.000345267
vn -0.9363899 0.3015493 -0.1795603
vn -0.9363899 0.3015493 -0.1795603
vn -0.9363899 0.3015493 -0.1795603
vn -0.9363899 0.3015493 -0.1795603
vn -0.9363899 0.1428392 0.3205789
vn -0.9363899 0.1428392 0.3205789
vn -0.9363899 0.1428392 0.3205789
vn -0.9363899 0.1428392 0.3205789
vn -0.9363899 -0.1428391 0.320579
vn -0.9363899 -0.1428391 0.320579
vn -0.9363899 -0.1428391 0.320579
vn -0.9363899 -0.1428391 0.320579
vn -0.9363899 -0.3015493 -0.1795603
vn -0.9363899 -0.3015493 -0.1795603
vn -0.9363899 -0.3015493 -0.1795603
vn -0.9363899 -0.3015493 -0.1795603
vn -0.9363899 -0.1428391 -0.320579
vn -0.9363899 -0.1428391 -0.320579
vn -0.9363899 -0.1428391 -0.320579
vn -0.9363899 -0.1428391 -0.320579
vn -0.9363899 0.1428392 -0.3205789
vn -0.9363899 0.1428392 -0.3205789
vn -0.9363899 0.1428392 -0.3205789
vn -0.9363899 0.1428392 -0.3205789
vn -0.01587105 0.01587105 -0.9997481
vn -0.01587105 0.01587105 -0.9997481
vn -0.01587105 0.01587105 -0.9997481
vn -0.01587105 0.01587105 -0.9997481
vn -0.01587105 0.01587105 -0.9997481
vn -0.01587105 0.01587105 -0.9997481
vn -0.01587105 0.999874 -0.000345267
vn -0.01587105 0.999874 -0.000345267
vn -0.01587105 0.999874 -0.000345267
vn -0.01587105 0.999874 -0.000345267
vn -0.01587105 0.01587105 0.9997481
vn -0.01587105 0.01587105 0.9997481
vn -0.01587105 0.01587105 0.9997481
vn -0.01587105 0.01587105 0.9997481
vn -0.01587105 0.01587105 0.9997481
vn -0.01587105 0.01587105 0.9997481
vn -0.01587105 -0.999874 -0.000345267
vn -0.01587105 -0.999874 -0.000345267
vn -0.01587105 -0.999874 -0.000345267
vn -0.01587105 -0.999874 -0.000345267
vn 0.999874 0.01587105 -0.0003439156
vn 0.999874 0.01587105 -0.0003439156
vn 0.999874 0.01587105 -0.0003439156
vn 0.999874 0.01587105 -0.0003439156
vn 0.999874 0.01587105 -0.0003439156
vn 0.999874 0.01587105 -0.0003439156
vn 0.999874 0.01587105 -0.0003439156
vn 0.999874 0.01587105 -0.0003439156
vn 0.999874 0.01587105 -0.0003439156
vn 0.999874 0.01587105 -0.0003439156
vn 0.999874 0.01587105 -0.0003439156
vn 0.999874 0.01587105 -0.0003439156
vn 0.999874 0.01587105 -0.0003439156
vn 0.999874 0.01587105 -0.0003439156
vn 0.999874 0.01587105 -0.0003439156
vn 0.999874 0.01587105 -0.0003439156
vn 0.999874 0.01587105 -0.0003439156
vn 0.999874 0.01587105 -0.0003439156
vn 0.999874 0.01587105 -0.0003439156
g SM_Wep_Hybrid_01_Slide_01_0
f 3/3/3 2/2/2 1/1/1
f 4/4/4 3/3/3 1/1/1
f 7/7/7 6/6/6 5/5/5
f 8/8/8 7/7/7 5/5/5
f 11/11/11 10/10/10 9/9/9
f 12/12/12 11/11/11 9/9/9
f 15/15/15 14/14/14 13/13/13
f 16/16/16 15/15/15 13/13/13
f 19/19/19 18/18/18 17/17/17
f 20/20/20 19/19/19 17/17/17
f 23/23/23 22/22/22 21/21/21
f 24/24/24 23/23/23 21/21/21
f 27/27/27 26/26/26 25/25/25
f 28/28/28 27/27/27 25/25/25
f 31/31/31 30/30/30 29/29/29
f 32/32/32 31/31/31 29/29/29
f 35/35/35 34/34/34 33/33/33
f 36/36/36 35/35/35 33/33/33
f 39/39/39 38/38/38 37/37/37
f 40/40/40 39/39/39 37/37/37
f 43/43/43 42/42/42 41/41/41
f 44/44/44 43/43/43 41/41/41
f 47/47/47 46/46/46 45/45/45
f 48/48/48 47/47/47 45/45/45
f 51/51/51 50/50/50 49/49/49
f 52/52/52 51/51/51 49/49/49
f 55/55/55 54/54/54 53/53/53
f 56/56/56 55/55/55 53/53/53
f 59/59/59 58/58/58 57/57/57
f 60/60/60 59/59/59 57/57/57
f 63/63/63 62/62/62 61/61/61
f 64/64/64 63/63/63 61/61/61
f 67/67/67 66/66/66 65/65/65
f 68/68/68 67/67/67 65/65/65
f 71/71/71 70/70/70 69/69/69
f 72/72/72 71/71/71 69/69/69
f 75/75/75 74/74/74 73/73/73
f 76/76/76 75/75/75 73/73/73
f 77/77/77 75/75/75 76/76/76
f 78/78/78 77/77/77 76/76/76
f 81/81/81 80/80/80 79/79/79
f 82/82/82 81/81/81 79/79/79
f 85/85/85 84/84/84 83/83/83
f 86/86/86 85/85/85 83/83/83
f 87/87/87 85/85/85 86/86/86
f 88/88/88 87/87/87 86/86/86
f 91/91/91 90/90/90 89/89/89
f 92/92/92 91/91/91 89/89/89
f 95/95/95 94/94/94 93/93/93
f 93/93/93 94/94/94 96/96/96
f 97/97/97 94/94/94 95/95/95
f 96/96/96 94/94/94 98/98/98
f 99/99/99 94/94/94 97/97/97
f 98/98/98 94/94/94 99/99/99
f 102/102/102 101/101/101 100/100/100
f 103/103/103 102/102/102 100/100/100
f 100/100/100 101/101/101 104/104/104
f 105/105/105 102/102/102 103/103/103
f 101/101/101 106/106/106 104/104/104
f 107/107/107 105/105/105 103/103/103
f 104/104/104 106/106/106 108/108/108
f 109/109/109 105/105/105 107/107/107
f 106/106/106 110/110/110 108/108/108
f 111/111/111 109/109/109 107/107/107
f 108/108/108 110/110/110 111/111/111
f 110/110/110 109/109/109 111/111/111
