g SM_Wep_Preset_B_Sniper_01_Slide
v 0.01110798 0.006453887 -0.05104518
v 0.001839351 -0.001281518 -0.05104518
v 0.001839351 -0.01817586 -0.05104518
v 0.01249957 0.01658509 -0.05104518
v 0.01273034 0.01817585 0.05066958
v 0.01133875 0.008044644 0.05088687
v 0.002070119 0.0003092393 0.05102262
v 0.002070119 -0.01658494 0.05102262
v 0.0258709 0.01817585 0.05066958
v 0.0258709 0.01129679 0.05088685
v 0.02587089 0.003561374 0.05102262
v 0.02587089 -0.01658494 0.05102262
v -0.003623978 -0.01448264 0.04065341
v -0.003623978 -0.01448264 0.04573523
v -0.003623978 -0.00179489 0.04065341
v -0.003623978 -0.00179489 0.04573523
v 0.002070121 -0.00179489 0.04065341
v 0.002070121 -0.00179489 0.04573525
v 0.002070121 -0.01448264 0.04065341
v 0.002070121 -0.01448264 0.04573525
v -0.01598163 -0.01448264 0.04287541
v -0.01598163 -0.01448264 0.04645228
v -0.01598163 0.003091975 0.04645228
v -0.01598163 0.003091975 0.04287541
v -0.02248514 -0.01448264 0.04663974
v -0.02105496 -0.01448264 0.04878842
v -0.02444073 -0.005979003 0.05104516
v -0.0258709 -0.005979003 0.04889651
v -0.005897366 0.003091975 0.04099797
v -0.005897366 0.003091975 0.04607981
v -0.02312603 0.003091975 0.04649171
v -0.02169587 0.003091975 0.04864039
v 0.01110798 0.006453887 -0.05104518
v 0.01133875 0.008044644 0.05088687
v 0.001839351 -0.001281518 -0.05104518
v 0.002070119 0.0003092393 0.05102262
v 0.01273034 0.01817585 0.05066958
v 0.01133875 0.008044644 0.05088687
v 0.002070119 0.0003092393 0.05102262
v 0.002070119 -0.01658494 0.05102262
v -0.003623978 -0.01448264 0.04573523
v -0.003623978 -0.00179489 0.04573523
v 0.002070121 -0.00179489 0.04573525
v 0.002070121 -0.01448264 0.04573525
v 0.002070121 -0.01448264 0.04065341
v 0.002070121 -0.00179489 0.04065341
v -0.003623978 -0.00179489 0.04065341
v -0.003623978 -0.01448264 0.04065341
v -0.01598163 -0.01448264 0.04645228
v -0.01598163 0.003091975 0.04645228
v -0.003623978 -0.00179489 0.04065341
v -0.01598163 0.003091975 0.04287541
v -0.01598163 -0.01448264 0.04287541
v -0.003623978 -0.01448264 0.04065341
v -0.02248514 -0.01448264 0.04663974
v -0.02105496 -0.01448264 0.04878842
v -0.01598163 -0.01448264 0.04645228
v -0.02105496 -0.01448264 0.04878842
v -0.01598163 0.003091975 0.04645228
v -0.02169587 0.003091975 0.04864039
v -0.003623978 -0.00179489 0.04573523
v -0.005897366 0.003091975 0.04607981
v -0.005897366 0.003091975 0.04099797
v -0.003623978 -0.00179489 0.04065341
v -0.005897366 0.003091975 0.04099797
v -0.005897366 0.003091975 0.04607981
v -0.0258709 -0.005979003 0.04889651
v -0.02248514 -0.01448264 0.04663974
v -0.02312603 0.003091975 0.04649171
v -0.0258709 -0.005979003 0.04889651
v -0.02312603 0.003091975 0.04649171
v -0.02169587 0.003091975 0.04864039
v -0.02444073 -0.005979003 0.05104516
v -0.02248514 -0.01448264 0.04663974
v -0.01598163 -0.01448264 0.04287541
v -0.01598163 0.003091975 0.04287541
v -0.02312603 0.003091975 0.04649171
v -0.02105496 -0.01448264 0.04878842
v -0.02444073 -0.005979003 0.05104516
v -0.02169587 0.003091975 0.04864039
vt 0.06740725 0.3217519
vt 0.06735292 0.3218568
vt 0.06735137 0.3219995
vt 0.06741664 0.3216583
vt 0.06663895 0.3213674
vt 0.06663364 0.3214557
vt 0.06657982 0.3215517
vt 0.06658816 0.3216882
vt 0.06671816 0.3213229
vt 0.06671929 0.3213789
vt 0.06672138 0.3214416
vt 0.06672895 0.3216023
vt 0.0666253 0.3217209
vt 0.06658947 0.3217069
vt 0.06661928 0.3216175
vt 0.0665831 0.3216038
vt 0.06665426 0.3215966
vt 0.06661814 0.321583
vt 0.06665993 0.3216995
vt 0.0666241 0.3216857
vt 0.06653315 0.3217618
vt 0.06650788 0.3217518
vt 0.06649786 0.3216074
vt 0.06652349 0.3216172
vt 0.06646556 0.3217764
vt 0.06645948 0.3217647
vt 0.06641662 0.3217018
vt 0.0664227 0.3217134
vt 0.06660044 0.3215847
vt 0.06656408 0.321571
vt 0.06645179 0.3216342
vt 0.06644571 0.3216228
vt 0.06740725 0.3217519
vt 0.06663364 0.3214557
vt 0.06735292 0.3218568
vt 0.06657982 0.3215517
vt 0.06663895 0.3213674
vt 0.06663364 0.3214557
vt 0.06657982 0.3215517
vt 0.06658816 0.3216882
vt 0.06658947 0.3217069
vt 0.0665831 0.3216038
vt 0.06661814 0.321583
vt 0.0666241 0.3216857
vt 0.06665993 0.3216995
vt 0.06665426 0.3215966
vt 0.06661928 0.3216175
vt 0.0666253 0.3217209
vt 0.06650788 0.3217518
vt 0.06649786 0.3216074
vt 0.06661928 0.3216175
vt 0.06652349 0.3216172
vt 0.06653315 0.3217618
vt 0.0666253 0.3217209
vt 0.06646556 0.3217764
vt 0.06645948 0.3217647
vt 0.06650788 0.3217518
vt 0.06645948 0.3217647
vt 0.06649786 0.3216074
vt 0.06644571 0.3216228
vt 0.0665831 0.3216038
vt 0.06656408 0.321571
vt 0.06660044 0.3215847
vt 0.06661928 0.3216175
vt 0.06660044 0.3215847
vt 0.06656408 0.321571
vt 0.0664227 0.3217134
vt 0.06646556 0.3217764
vt 0.06645179 0.3216342
vt 0.0664227 0.3217134
vt 0.06645179 0.3216342
vt 0.06644571 0.3216228
vt 0.06641662 0.3217018
vt 0.06646556 0.3217764
vt 0.06653315 0.3217618
vt 0.06652349 0.3216172
vt 0.06645179 0.3216342
vt 0.06645948 0.3217647
vt 0.06641662 0.3217018
vt 0.06644571 0.3216228
vn -0.9906977 0.1360806 0.0001193521
vn -0.6407586 0.7676703 -0.01052266
vn -0.9999975 0 0.002260921
vn -0.9906977 0.1360806 0.0001193521
vn -0.9906977 0.1360806 0.0001193521
vn -0.9906977 0.1360806 0.0001193521
vn -0.6407587 0.7676703 -0.01052266
vn -0.9999975 0 0.002260921
vn -0.003029685 0.02578565 0.9996629
vn -0.00316112 0.02289093 0.9997329
vn -0.0008761062 0.005164101 0.9999863
vn 0 0 1
vn 0 -1 0
vn 0 -1 0
vn 0 1 0
vn 0 1 0
vn 0 1 0
vn 0 1 0
vn 0 -1 0
vn 0 -1 0
vn 0 -1 0
vn 0 -1 0
vn 0.05709033 -0.002123091 0.9983668
vn 0 1 0
vn -0.7509191 -0.4316275 0.4998181
vn -0.7509191 -0.4316275 0.4998181
vn -0.7509191 -0.4316275 0.4998181
vn -0.7509191 -0.4316275 0.4998181
vn 0 1 0
vn 0 1 0
vn 0 1 0
vn 0.3867347 0.01093522 0.9221262
vn -0.6407586 0.7676703 -0.01052266
vn -0.6407587 0.7676703 -0.01052266
vn -0.9999975 0 0.002260921
vn -0.9999975 0 0.002260921
vn -0.003029685 0.02578565 0.9996629
vn -0.003232704 0.02131403 0.9997676
vn -0.0002988533 0.001761554 0.9999985
vn 0 0 1
vn 0.0418162 0 0.9991253
vn 0.0439169 -0.002004124 0.9990332
vn 0 0 1
vn 0 0 1
vn 0 0 -1
vn 0 0 -1
vn 0 0 -1
vn 0 0 -1
vn 0.05792723 0 0.9983208
vn 0 1 0
vn -0.1772676 -0.0007772066 -0.9841624
vn -0.1772077 -0.0006208742 -0.9841733
vn -0.1769698 0 -0.9842163
vn -0.1769698 0 -0.9842163
vn 0 -1 0
vn 0 -1 0
vn 0.3867347 0.01093523 0.9221262
vn 0.3867347 0.01093523 0.9221262
vn 0.3867347 0.01093523 0.9221262
vn 0 1 0
vn 0.9066907 0.421796 0
vn 0.9066908 0.421796 0
vn 0.9066908 0.421796 0
vn 0.9066908 0.4217959 0
vn -0.1830074 -0.01582761 -0.9829841
vn 0.03685801 -0.0532174 0.9979025
vn -0.6033379 -0.02871454 -0.7969685
vn -0.6033379 -0.02871454 -0.7969685
vn -0.6033379 -0.02871454 -0.7969685
vn -0.7732398 0.3704244 0.5146707
vn -0.7732399 0.3704244 0.5146707
vn -0.7732399 0.3704244 0.5146707
vn -0.7732399 0.3704244 0.5146706
vn -0.4756488 -0.01237686 -0.8795482
vn -0.4756488 -0.01237686 -0.8795482
vn -0.4756488 -0.01237686 -0.8795482
vn -0.4756488 -0.01237686 -0.8795482
vn 0.6033313 0.02871515 0.7969735
vn 0.6033312 0.02871515 0.7969736
vn 0.6033312 0.02871515 0.7969736
g SM_Wep_Preset_B_Sniper_01_Slide_0
f 69/69/69 68/68/68 67/67/67
f 80/80/80 79/79/79 78/78/78
f 6/6/6 5/5/5 4/4/4
f 1/1/1 6/6/6 4/4/4
f 7/7/7 34/34/34 33/33/33
f 2/2/2 7/7/7 33/33/33
f 8/8/8 36/36/36 35/35/35
f 3/3/3 8/8/8 35/35/35
f 10/10/10 9/9/9 37/37/37
f 38/38/38 10/10/10 37/37/37
f 11/11/11 10/10/10 38/38/38
f 39/39/39 11/11/11 38/38/38
f 12/12/12 11/11/11 39/39/39
f 40/40/40 12/12/12 39/39/39
f 27/27/27 28/28/28 25/25/25
f 26/26/26 27/27/27 25/25/25
f 18/18/18 17/17/17 15/15/15
f 16/16/16 18/18/18 15/15/15
f 20/20/20 14/14/14 19/19/19
f 14/14/14 13/13/13 19/19/19
f 14/14/14 22/22/22 13/13/13
f 22/22/22 21/21/21 13/13/13
f 22/22/22 56/56/56 21/21/21
f 56/56/56 55/55/55 21/21/21
f 44/44/44 43/43/43 41/41/41
f 43/43/43 42/42/42 41/41/41
f 42/42/42 23/23/23 41/41/41
f 23/23/23 49/49/49 41/41/41
f 42/42/42 66/66/66 23/23/23
f 47/47/47 46/46/46 45/45/45
f 48/48/48 47/47/47 45/45/45
f 29/29/29 24/24/24 30/30/30
f 24/24/24 50/50/50 30/30/30
f 24/24/24 31/31/31 50/50/50
f 31/31/31 60/60/60 50/50/50
f 54/54/54 53/53/53 51/51/51
f 53/53/53 52/52/52 51/51/51
f 52/52/52 65/65/65 51/51/51
f 32/32/32 58/58/58 57/57/57
f 59/59/59 32/32/32 57/57/57
f 63/63/63 62/62/62 61/61/61
f 64/64/64 63/63/63 61/61/61
f 72/72/72 71/71/71 70/70/70
f 73/73/73 72/72/72 70/70/70
f 76/76/76 75/75/75 74/74/74
f 77/77/77 76/76/76 74/74/74
