g SM_Wep_Rifle_Laser_Mag_01
v -0.03564473 -0.04435662 -0.04435662
v -0.03564473 6.131083E-05 -0.06276184
v -0.04865109 6.131083E-05 -0.05503165
v -0.04865109 -0.03883506 -0.03883506
v -0.03564473 6.131083E-05 -0.06276184
v -0.03564473 0.04435654 -0.04435662
v -0.04865109 0.03883497 -0.03883506
v -0.04865109 6.131083E-05 -0.05503165
v -0.03564473 0.04435654 -0.04435662
v -0.03564473 0.06276175 -6.139278E-05
v -0.04865109 0.05503157 -6.139278E-05
v -0.04865109 0.03883497 -0.03883506
v -0.03564473 0.06276175 -6.139278E-05
v -0.03564473 0.04435654 0.04435654
v -0.04865109 0.03883497 0.03883497
v -0.04865109 0.05503157 -6.139278E-05
v -0.03564473 0.04435654 0.04435654
v -0.03564473 6.131083E-05 0.06276175
v -0.04865109 6.131083E-05 0.05503157
v -0.04865109 0.03883497 0.03883497
v -0.03564473 6.131083E-05 0.06276175
v -0.03564473 -0.04435662 0.04435654
v -0.04865109 -0.03883506 0.03883497
v -0.04865109 6.131083E-05 0.05503157
v -0.03564473 -0.04435662 0.04435654
v -0.03564473 -0.06276184 -6.139278E-05
v -0.04865109 -0.05503165 -6.139278E-05
v -0.04865109 -0.03883506 0.03883497
v -0.03564473 -0.06276184 -6.139278E-05
v -0.03564473 -0.04435662 -0.04435662
v -0.04865109 -0.03883506 -0.03883506
v -0.04865109 -0.05503165 -6.139278E-05
v -0.04865109 -0.03343619 -0.03343619
v -0.04865109 6.131083E-05 -0.04730146
v -0.0419025 6.131083E-05 -0.03245458
v -0.0419025 -0.02288387 -0.02288387
v -0.04865109 6.131083E-05 -0.04730146
v -0.04865109 0.0334361 -0.03343619
v -0.0419025 0.02288378 -0.02288387
v -0.0419025 6.131083E-05 -0.03245458
v -0.04865109 0.0334361 -0.03343619
v -0.04865109 0.04730137 -6.139278E-05
v -0.0419025 0.0324545 -6.139278E-05
v -0.0419025 0.02288378 -0.02288387
v -0.04865109 0.04730137 -6.139278E-05
v -0.04865109 0.0334361 0.0334361
v -0.0419025 0.02288378 0.02288378
v -0.0419025 0.0324545 -6.139278E-05
v -0.04865109 0.0334361 0.0334361
v -0.04865109 6.131083E-05 0.04730137
v -0.0419025 6.131083E-05 0.0324545
v -0.0419025 0.02288378 0.02288378
v -0.04865109 6.131083E-05 0.04730137
v -0.04865109 -0.03343619 0.0334361
v -0.0419025 -0.02288387 0.02288378
v -0.0419025 6.131083E-05 0.0324545
v -0.04865109 -0.03343619 0.0334361
v -0.04865109 -0.04730146 -6.139278E-05
v -0.0419025 -0.03245458 -6.139278E-05
v -0.0419025 -0.02288387 0.02288378
v -0.04865109 -0.04730146 -6.139278E-05
v -0.04865109 -0.03343619 -0.03343619
v -0.0419025 -0.02288387 -0.02288387
v -0.0419025 -0.03245458 -6.139278E-05
v 0.03564482 -0.04435662 -0.04435662
v 0.04865117 -0.03883506 -0.03883506
v 0.04865117 6.131083E-05 -0.05503165
v 0.03564482 6.131083E-05 -0.06276184
v 0.03564482 6.131083E-05 -0.06276184
v 0.04865117 6.131083E-05 -0.05503165
v 0.04865117 0.03883497 -0.03883506
v 0.03564482 0.04435654 -0.04435662
v 0.03564482 0.04435654 -0.04435662
v 0.04865117 0.03883497 -0.03883506
v 0.04865117 0.05503157 -6.139278E-05
v 0.03564482 0.06276175 -6.139278E-05
v 0.03564482 0.06276175 -6.139278E-05
v 0.04865117 0.05503157 -6.139278E-05
v 0.04865117 0.03883497 0.03883497
v 0.03564482 0.04435654 0.04435654
v 0.03564482 0.04435654 0.04435654
v 0.04865117 0.03883497 0.03883497
v 0.04865117 6.131083E-05 0.05503157
v 0.03564482 6.131083E-05 0.06276175
v 0.03564482 6.131083E-05 0.06276175
v 0.04865117 6.131083E-05 0.05503157
v 0.04865117 -0.03883506 0.03883497
v 0.03564482 -0.04435662 0.04435654
v 0.03564482 -0.04435662 0.04435654
v 0.04865117 -0.03883506 0.03883497
v 0.04865117 -0.05503165 -6.139278E-05
v 0.03564482 -0.06276184 -6.139278E-05
v 0.03564482 -0.06276184 -6.139278E-05
v 0.04865117 -0.05503165 -6.139278E-05
v 0.04865117 -0.03883506 -0.03883506
v 0.03564482 -0.04435662 -0.04435662
v 0.04865117 -0.03343619 -0.03343619
v 0.04190259 -0.02288387 -0.02288387
v 0.04190259 6.131083E-05 -0.03245458
v 0.04865117 6.131083E-05 -0.04730146
v 0.04865117 6.131083E-05 -0.04730146
v 0.04190259 6.131083E-05 -0.03245458
v 0.04190259 0.02288378 -0.02288387
v 0.04865117 0.0334361 -0.03343619
v 0.04865117 0.0334361 -0.03343619
v 0.04190259 0.02288378 -0.02288387
v 0.04190259 0.0324545 -6.139278E-05
v 0.04865117 0.04730137 -6.139278E-05
v 0.04865117 0.04730137 -6.139278E-05
v 0.04190259 0.0324545 -6.139278E-05
v 0.04190259 0.02288378 0.02288378
v 0.04865117 0.0334361 0.0334361
v 0.04865117 0.0334361 0.0334361
v 0.04190259 0.02288378 0.02288378
v 0.04190259 6.131083E-05 0.0324545
v 0.04865117 6.131083E-05 0.04730137
v 0.04865117 6.131083E-05 0.04730137
v 0.04190259 6.131083E-05 0.0324545
v 0.04190259 -0.02288387 0.02288378
v 0.04865117 -0.03343619 0.0334361
v 0.04865117 -0.03343619 0.0334361
v 0.04190259 -0.02288387 0.02288378
v 0.04190259 -0.03245458 -6.139278E-05
v 0.04865117 -0.04730146 -6.139278E-05
v 0.04865117 -0.04730146 -6.139278E-05
v 0.04190259 -0.03245458 -6.139278E-05
v 0.04190259 -0.02288387 -0.02288387
v 0.04865117 -0.03343619 -0.03343619
v -0.03564473 6.131083E-05 -0.06276184
v -0.03564473 -0.04435662 -0.04435662
v 0.03564482 -0.04435662 -0.04435662
v 0.03564482 6.131083E-05 -0.06276184
v -0.03564473 0.04435654 -0.04435662
v -0.03564473 6.131083E-05 -0.06276184
v 0.03564482 6.131083E-05 -0.06276184
v 0.03564482 0.04435654 -0.04435662
v -0.03564473 0.06276175 -6.139278E-05
v -0.03564473 0.04435654 -0.04435662
v 0.03564482 0.04435654 -0.04435662
v 0.03564482 0.06276175 -6.139278E-05
v -0.03564473 0.04435654 0.04435654
v -0.03564473 0.06276175 -6.139278E-05
v 0.03564482 0.06276175 -6.139278E-05
v 0.03564482 0.04435654 0.04435654
v -0.03564473 6.131083E-05 0.06276175
v -0.03564473 0.04435654 0.04435654
v 0.03564482 0.04435654 0.04435654
v 0.03564482 6.131083E-05 0.06276175
v -0.03564473 -0.04435662 0.04435654
v -0.03564473 6.131083E-05 0.06276175
v 0.03564482 6.131083E-05 0.06276175
v 0.03564482 -0.04435662 0.04435654
v -0.03564473 -0.06276184 -6.139278E-05
v -0.03564473 -0.04435662 0.04435654
v 0.03564482 -0.04435662 0.04435654
v 0.03564482 -0.06276184 -6.139278E-05
v -0.03564473 -0.04435662 -0.04435662
v -0.03564473 -0.06276184 -6.139278E-05
v 0.03564482 -0.06276184 -6.139278E-05
v 0.03564482 -0.04435662 -0.04435662
v 0.04190259 -0.02288387 0.02288378
v 0.04190259 6.131083E-05 -6.139278E-05
v 0.04190259 -0.03245458 -6.139278E-05
v 0.04190259 6.131083E-05 0.0324545
v 0.04190259 -0.02288387 -0.02288387
v 0.04190259 0.02288378 0.02288378
v 0.04190259 6.131083E-05 -0.03245458
v 0.04190259 0.0324545 -6.139278E-05
v 0.04190259 0.02288378 -0.02288387
v -0.0419025 -0.02288387 0.02288378
v -0.0419025 -0.03245458 -6.139278E-05
v -0.0419025 6.131083E-05 -6.139278E-05
v -0.0419025 6.131083E-05 0.0324545
v -0.0419025 -0.02288387 -0.02288387
v -0.0419025 0.02288378 0.02288378
v -0.0419025 6.131083E-05 -0.03245458
v -0.0419025 0.0324545 -6.139278E-05
v -0.0419025 0.02288378 -0.02288387
v 0.04865117 -0.03883506 0.03883497
v 0.04865117 -0.04730146 -6.139278E-05
v 0.04865117 -0.05503165 -6.139278E-05
v 0.04865117 -0.03343619 0.0334361
v 0.04865117 -0.03343619 -0.03343619
v 0.04865117 6.131083E-05 0.05503157
v 0.04865117 -0.03883506 -0.03883506
v 0.04865117 6.131083E-05 0.04730137
v 0.04865117 6.131083E-05 -0.04730146
v 0.04865117 0.03883497 0.03883497
v 0.04865117 6.131083E-05 -0.05503165
v 0.04865117 0.0334361 0.0334361
v 0.04865117 0.0334361 -0.03343619
v 0.04865117 0.05503157 -6.139278E-05
v 0.04865117 0.03883497 -0.03883506
v 0.04865117 0.04730137 -6.139278E-05
v -0.04865109 -0.03883506 0.03883497
v -0.04865109 -0.05503165 -6.139278E-05
v -0.04865109 -0.04730146 -6.139278E-05
v -0.04865109 -0.03343619 0.0334361
v -0.04865109 -0.03343619 -0.03343619
v -0.04865109 6.131083E-05 0.05503157
v -0.04865109 -0.03883506 -0.03883506
v -0.04865109 6.131083E-05 0.04730137
v -0.04865109 6.131083E-05 -0.04730146
v -0.04865109 0.03883497 0.03883497
v -0.04865109 6.131083E-05 -0.05503165
v -0.04865109 0.0334361 0.0334361
v -0.04865109 0.0334361 -0.03343619
v -0.04865109 0.05503157 -6.139278E-05
v -0.04865109 0.03883497 -0.03883506
v -0.04865109 0.04730137 -6.139278E-05
vt 0.9938011 0.3244514
vt 0.9938011 0.3244514
vt 0.9938011 0.3244514
vt 0.9938011 0.3244514
vt 0.9938011 0.3244514
vt 0.9938011 0.3244514
vt 0.9938011 0.3244514
vt 0.9938011 0.3244514
vt 0.9938011 0.3244514
vt 0.9938011 0.3244514
vt 0.9938011 0.3244514
vt 0.9938011 0.3244514
vt 0.9938011 0.3244514
vt 0.9938011 0.3244514
vt 0.9938011 0.3244514
vt 0.9938011 0.3244514
vt 0.9938011 0.3244514
vt 0.9938011 0.3244514
vt 0.9938011 0.3244514
vt 0.9938011 0.3244514
vt 0.9938011 0.3244514
vt 0.9938011 0.3244514
vt 0.9938011 0.3244514
vt 0.9938011 0.3244514
vt 0.9938011 0.3244514
vt 0.9938011 0.3244514
vt 0.9938011 0.3244514
vt 0.9938011 0.3244514
vt 0.9938011 0.3244514
vt 0.9938011 0.3244514
vt 0.9938011 0.3244514
vt 0.9938011 0.3244514
vt 0.4530271 0.0294838
vt 0.4530271 0.0294838
vt 0.4530271 0.0294838
vt 0.4530271 0.0294838
vt 0.4530271 0.0294838
vt 0.4530271 0.0294838
vt 0.4530271 0.0294838
vt 0.4530271 0.0294838
vt 0.4530271 0.0294838
vt 0.4530271 0.0294838
vt 0.4530271 0.0294838
vt 0.4530271 0.0294838
vt 0.4530271 0.0294838
vt 0.4530271 0.0294838
vt 0.4530271 0.0294838
vt 0.4530271 0.0294838
vt 0.4530271 0.0294838
vt 0.4530271 0.0294838
vt 0.4530271 0.0294838
vt 0.4530271 0.0294838
vt 0.4530271 0.0294838
vt 0.4530271 0.0294838
vt 0.4530271 0.0294838
vt 0.4530271 0.0294838
vt 0.4530271 0.0294838
vt 0.4530271 0.0294838
vt 0.4530271 0.0294838
vt 0.4530271 0.0294838
vt 0.4530271 0.0294838
vt 0.4530271 0.0294838
vt 0.4530271 0.0294838
vt 0.4530271 0.0294838
vt 0.9938011 0.3244514
vt 0.9938011 0.3244514
vt 0.9938011 0.3244514
vt 0.9938011 0.3244514
vt 0.9938011 0.3244514
vt 0.9938011 0.3244514
vt 0.9938011 0.3244514
vt 0.9938011 0.3244514
vt 0.9938011 0.3244514
vt 0.9938011 0.3244514
vt 0.9938011 0.3244514
vt 0.9938011 0.3244514
vt 0.9938011 0.3244514
vt 0.9938011 0.3244514
vt 0.9938011 0.3244514
vt 0.9938011 0.3244514
vt 0.9938011 0.3244514
vt 0.9938011 0.3244514
vt 0.9938011 0.3244514
vt 0.9938011 0.3244514
vt 0.9938011 0.3244514
vt 0.9938011 0.3244514
vt 0.9938011 0.3244514
vt 0.9938011 0.3244514
vt 0.9938011 0.3244514
vt 0.9938011 0.3244514
vt 0.9938011 0.3244514
vt 0.9938011 0.3244514
vt 0.9938011 0.3244514
vt 0.9938011 0.3244514
vt 0.9938011 0.3244514
vt 0.9938011 0.3244514
vt 0.4530271 0.0294838
vt 0.4530271 0.0294838
vt 0.4530271 0.0294838
vt 0.4530271 0.0294838
vt 0.4530271 0.0294838
vt 0.4530271 0.0294838
vt 0.4530271 0.0294838
vt 0.4530271 0.0294838
vt 0.4530271 0.0294838
vt 0.4530271 0.0294838
vt 0.4530271 0.0294838
vt 0.4530271 0.0294838
vt 0.4530271 0.0294838
vt 0.4530271 0.0294838
vt 0.4530271 0.0294838
vt 0.4530271 0.0294838
vt 0.4530271 0.0294838
vt 0.4530271 0.0294838
vt 0.4530271 0.0294838
vt 0.4530271 0.0294838
vt 0.4530271 0.0294838
vt 0.4530271 0.0294838
vt 0.4530271 0.0294838
vt 0.4530271 0.0294838
vt 0.4530271 0.0294838
vt 0.4530271 0.0294838
vt 0.4530271 0.0294838
vt 0.4530271 0.0294838
vt 0.4530271 0.0294838
vt 0.4530271 0.0294838
vt 0.4530271 0.0294838
vt 0.4530271 0.0294838
vt 0.9938011 0.3244514
vt 0.9938011 0.3244514
vt 0.9938011 0.3244514
vt 0.9938011 0.3244514
vt 0.9938011 0.3244514
vt 0.9938011 0.3244514
vt 0.9938011 0.3244514
vt 0.9938011 0.3244514
vt 0.9938011 0.3244514
vt 0.9938011 0.3244514
vt 0.9938011 0.3244514
vt 0.9938011 0.3244514
vt 0.9938011 0.3244514
vt 0.9938011 0.3244514
vt 0.9938011 0.3244514
vt 0.9938011 0.3244514
vt 0.9938011 0.3244514
vt 0.9938011 0.3244514
vt 0.9938011 0.3244514
vt 0.9938011 0.3244514
vt 0.9938011 0.3244514
vt 0.9938011 0.3244514
vt 0.9938011 0.3244514
vt 0.9938011 0.3244514
vt 0.9938011 0.3244514
vt 0.9938011 0.3244514
vt 0.9938011 0.3244514
vt 0.9938011 0.3244514
vt 0.9938011 0.3244514
vt 0.9938011 0.3244514
vt 0.9938011 0.3244514
vt 0.9938011 0.3244514
vt 0.2412554 0.2488187
vt 0.2412554 0.2488187
vt 0.2412554 0.2488187
vt 0.2412554 0.2488187
vt 0.2412554 0.2488187
vt 0.2412554 0.2488187
vt 0.2412554 0.2488187
vt 0.2412554 0.2488187
vt 0.2412554 0.2488187
vt 0.2412554 0.2488187
vt 0.2412554 0.2488187
vt 0.2412554 0.2488187
vt 0.2412554 0.2488187
vt 0.2412554 0.2488187
vt 0.2412554 0.2488187
vt 0.2412554 0.2488187
vt 0.2412554 0.2488187
vt 0.2412554 0.2488187
vt 0.9938011 0.3244514
vt 0.9938011 0.3244514
vt 0.9938011 0.3244514
vt 0.9938011 0.3244514
vt 0.9938011 0.3244514
vt 0.9938011 0.3244514
vt 0.9938011 0.3244514
vt 0.9938011 0.3244514
vt 0.9938011 0.3244514
vt 0.9938011 0.3244514
vt 0.9938011 0.3244514
vt 0.9938011 0.3244514
vt 0.9938011 0.3244514
vt 0.9938011 0.3244514
vt 0.9938011 0.3244514
vt 0.9938011 0.3244514
vt 0.9938011 0.3244514
vt 0.9938011 0.3244514
vt 0.9938011 0.3244514
vt 0.9938011 0.3244514
vt 0.9938011 0.3244514
vt 0.9938011 0.3244514
vt 0.9938011 0.3244514
vt 0.9938011 0.3244514
vt 0.9938011 0.3244514
vt 0.9938011 0.3244514
vt 0.9938011 0.3244514
vt 0.9938011 0.3244514
vt 0.9938011 0.3244514
vt 0.9938011 0.3244514
vt 0.9938011 0.3244514
vt 0.9938011 0.3244514
vn -0.4920015 -0.3332914 -0.8042707
vn -0.4920015 -0.3332914 -0.8042707
vn -0.4920015 -0.3332914 -0.8042707
vn -0.4920015 -0.3332914 -0.8042707
vn -0.4920015 0.3332913 -0.8042707
vn -0.4920015 0.3332913 -0.8042707
vn -0.4920015 0.3332913 -0.8042707
vn -0.4920015 0.3332913 -0.8042707
vn -0.4920015 0.8094218 -0.3205791
vn -0.4920015 0.8094218 -0.3205791
vn -0.4920015 0.8094218 -0.3205791
vn -0.4920015 0.8094218 -0.3205791
vn -0.4920015 0.8094218 0.3205791
vn -0.4920015 0.8094218 0.3205791
vn -0.4920015 0.8094218 0.3205791
vn -0.4920015 0.8094218 0.3205791
vn -0.4920015 0.3332913 0.8042707
vn -0.4920015 0.3332913 0.8042707
vn -0.4920015 0.3332913 0.8042707
vn -0.4920015 0.3332913 0.8042707
vn -0.4920015 -0.3332914 0.8042707
vn -0.4920015 -0.3332914 0.8042707
vn -0.4920015 -0.3332914 0.8042707
vn -0.4920015 -0.3332914 0.8042707
vn -0.4920015 -0.8094218 0.3205791
vn -0.4920015 -0.8094218 0.3205791
vn -0.4920015 -0.8094218 0.3205791
vn -0.4920015 -0.8094218 0.3205791
vn -0.4920015 -0.8094218 -0.3205791
vn -0.4920015 -0.8094218 -0.3205791
vn -0.4920015 -0.8094218 -0.3205791
vn -0.4920015 -0.8094218 -0.3205791
vn -0.9046479 0.1745812 0.3887589
vn -0.9046479 0.1745812 0.3887589
vn -0.9046479 0.1745812 0.3887589
vn -0.9046479 0.1745812 0.3887589
vn -0.9046479 -0.1745812 0.3887589
vn -0.9046479 -0.1745812 0.3887589
vn -0.9046479 -0.1745812 0.3887589
vn -0.9046479 -0.1745812 0.3887589
vn -0.9046479 -0.3967754 0.1555036
vn -0.9046479 -0.3967754 0.1555036
vn -0.9046479 -0.3967754 0.1555036
vn -0.9046479 -0.3967754 0.1555036
vn -0.9046479 -0.3967754 -0.1555036
vn -0.9046479 -0.3967754 -0.1555036
vn -0.9046479 -0.3967754 -0.1555036
vn -0.9046479 -0.3967754 -0.1555036
vn -0.9046479 -0.1745812 -0.3887589
vn -0.9046479 -0.1745812 -0.3887589
vn -0.9046479 -0.1745812 -0.3887589
vn -0.9046479 -0.1745812 -0.3887589
vn -0.9046479 0.1745812 -0.3887589
vn -0.9046479 0.1745812 -0.3887589
vn -0.9046479 0.1745812 -0.3887589
vn -0.9046479 0.1745812 -0.3887589
vn -0.9046479 0.3967754 -0.1555036
vn -0.9046479 0.3967754 -0.1555036
vn -0.9046479 0.3967754 -0.1555036
vn -0.9046479 0.3967754 -0.1555036
vn -0.9046479 0.3967754 0.1555036
vn -0.9046479 0.3967754 0.1555036
vn -0.9046479 0.3967754 0.1555036
vn -0.9046479 0.3967754 0.1555036
vn 0.4920015 -0.3332914 -0.8042707
vn 0.4920015 -0.3332914 -0.8042707
vn 0.4920015 -0.3332914 -0.8042707
vn 0.4920015 -0.3332914 -0.8042707
vn 0.4920015 0.3332913 -0.8042708
vn 0.4920015 0.3332913 -0.8042708
vn 0.4920015 0.3332913 -0.8042708
vn 0.4920015 0.3332913 -0.8042708
vn 0.4920015 0.8094218 -0.3205791
vn 0.4920015 0.8094218 -0.3205791
vn 0.4920015 0.8094218 -0.3205791
vn 0.4920015 0.8094218 -0.3205791
vn 0.4920015 0.8094218 0.3205791
vn 0.4920015 0.8094218 0.3205791
vn 0.4920015 0.8094218 0.3205791
vn 0.4920015 0.8094218 0.3205791
vn 0.4920015 0.3332913 0.8042708
vn 0.4920015 0.3332913 0.8042708
vn 0.4920015 0.3332913 0.8042708
vn 0.4920015 0.3332913 0.8042708
vn 0.4920015 -0.3332914 0.8042707
vn 0.4920015 -0.3332914 0.8042707
vn 0.4920015 -0.3332914 0.8042707
vn 0.4920015 -0.3332914 0.8042707
vn 0.4920015 -0.8094218 0.3205791
vn 0.4920015 -0.8094218 0.3205791
vn 0.4920015 -0.8094218 0.3205791
vn 0.4920015 -0.8094218 0.3205791
vn 0.4920015 -0.8094218 -0.3205791
vn 0.4920015 -0.8094218 -0.3205791
vn 0.4920015 -0.8094218 -0.3205791
vn 0.4920015 -0.8094218 -0.3205791
vn 0.9046479 0.1745812 0.3887591
vn 0.9046479 0.1745812 0.3887591
vn 0.9046479 0.1745812 0.3887591
vn 0.9046479 0.1745812 0.3887591
vn 0.9046479 -0.1745812 0.3887591
vn 0.9046479 -0.1745812 0.3887591
vn 0.9046479 -0.1745812 0.3887591
vn 0.9046479 -0.1745812 0.3887591
vn 0.9046479 -0.3967754 0.155504
vn 0.9046479 -0.3967754 0.155504
vn 0.9046479 -0.3967754 0.155504
vn 0.9046479 -0.3967754 0.155504
vn 0.9046479 -0.3967754 -0.155504
vn 0.9046479 -0.3967754 -0.155504
vn 0.9046479 -0.3967754 -0.155504
vn 0.9046479 -0.3967754 -0.155504
vn 0.9046479 -0.1745812 -0.3887591
vn 0.9046479 -0.1745812 -0.3887591
vn 0.9046479 -0.1745812 -0.3887591
vn 0.9046479 -0.1745812 -0.3887591
vn 0.9046479 0.1745812 -0.3887591
vn 0.9046479 0.1745812 -0.3887591
vn 0.9046479 0.1745812 -0.3887591
vn 0.9046479 0.1745812 -0.3887591
vn 0.9046479 0.3967754 -0.155504
vn 0.9046479 0.3967754 -0.155504
vn 0.9046479 0.3967754 -0.155504
vn 0.9046479 0.3967754 -0.155504
vn 0.9046479 0.3967754 0.155504
vn 0.9046479 0.3967754 0.155504
vn 0.9046479 0.3967754 0.155504
vn 0.9046479 0.3967754 0.155504
vn -0.01587105 -0.3967754 -0.9177785
vn -0.01587105 -0.3967754 -0.9177785
vn -0.01587105 -0.3967754 -0.9177785
vn -0.01587105 -0.3967754 -0.9177785
vn -0.01587105 0.3967754 -0.9177785
vn -0.01587105 0.3967754 -0.9177785
vn -0.01587105 0.3967754 -0.9177785
vn -0.01587105 0.3967754 -0.9177785
vn -0.01587105 0.9363899 -0.3506023
vn -0.01587105 0.9363899 -0.3506023
vn -0.01587105 0.9363899 -0.3506023
vn -0.01587105 0.9363899 -0.3506023
vn -0.01587105 0.9363899 0.3506023
vn -0.01587105 0.9363899 0.3506023
vn -0.01587105 0.9363899 0.3506023
vn -0.01587105 0.9363899 0.3506023
vn -0.01587105 0.3967754 0.9177785
vn -0.01587105 0.3967754 0.9177785
vn -0.01587105 0.3967754 0.9177785
vn -0.01587105 0.3967754 0.9177785
vn -0.01587105 -0.3967754 0.9177785
vn -0.01587105 -0.3967754 0.9177785
vn -0.01587105 -0.3967754 0.9177785
vn -0.01587105 -0.3967754 0.9177785
vn -0.01587105 -0.9363899 0.3506023
vn -0.01587105 -0.9363899 0.3506023
vn -0.01587105 -0.9363899 0.3506023
vn -0.01587105 -0.9363899 0.3506023
vn -0.01587105 -0.9363899 -0.3506023
vn -0.01587105 -0.9363899 -0.3506023
vn -0.01587105 -0.9363899 -0.3506023
vn -0.01587105 -0.9363899 -0.3506023
vn 0.999874 0.01587105 -0.0003439156
vn 0.999874 0.01587105 -0.0003439156
vn 0.999874 0.01587105 -0.0003439156
vn 0.999874 0.01587105 -0.0003439156
vn 0.999874 0.01587105 -0.0003439156
vn 0.999874 0.01587105 -0.0003439156
vn 0.999874 0.01587105 -0.0003439156
vn 0.999874 0.01587105 -0.0003439156
vn 0.999874 0.01587105 -0.0003439156
vn -0.999874 0.01587105 -0.0003439156
vn -0.999874 0.01587105 -0.0003439156
vn -0.999874 0.01587105 -0.0003439156
vn -0.999874 0.01587105 -0.0003439156
vn -0.999874 0.01587105 -0.0003439156
vn -0.999874 0.01587105 -0.0003439156
vn -0.999874 0.01587105 -0.0003439156
vn -0.999874 0.01587105 -0.0003439156
vn -0.999874 0.01587105 -0.0003439156
vn 0.999874 0.01587105 -0.0003439156
vn 0.999874 0.01587105 -0.0003439156
vn 0.999874 0.01587105 -0.0003439156
vn 0.999874 0.01587105 -0.0003439156
vn 0.999874 0.01587105 -0.0003439156
vn 0.999874 0.01587105 -0.0003439156
vn 0.999874 0.01587105 -0.0003439156
vn 0.999874 0.01587105 -0.0003439156
vn 0.999874 0.01587105 -0.0003439156
vn 0.999874 0.01587105 -0.0003439156
vn 0.999874 0.01587105 -0.0003439156
vn 0.999874 0.01587105 -0.0003439156
vn 0.999874 0.01587105 -0.0003439156
vn 0.999874 0.01587105 -0.0003439156
vn 0.999874 0.01587105 -0.0003439156
vn 0.999874 0.01587105 -0.0003439156
vn -0.999874 0.01587105 -0.0003439156
vn -0.999874 0.01587105 -0.0003439156
vn -0.999874 0.01587105 -0.0003439156
vn -0.999874 0.01587105 -0.0003439156
vn -0.999874 0.01587105 -0.0003439156
vn -0.999874 0.01587105 -0.0003439156
vn -0.999874 0.01587105 -0.0003439156
vn -0.999874 0.01587105 -0.0003439156
vn -0.999874 0.01587105 -0.0003439156
vn -0.999874 0.01587105 -0.0003439156
vn -0.999874 0.01587105 -0.0003439156
vn -0.999874 0.01587105 -0.0003439156
vn -0.999874 0.01587105 -0.0003439156
vn -0.999874 0.01587105 -0.0003439156
vn -0.999874 0.01587105 -0.0003439156
vn -0.999874 0.01587105 -0.0003439156
g SM_Wep_Rifle_Laser_Mag_01_0
f 3/3/3 2/2/2 1/1/1
f 4/4/4 3/3/3 1/1/1
f 7/7/7 6/6/6 5/5/5
f 8/8/8 7/7/7 5/5/5
f 11/11/11 10/10/10 9/9/9
f 12/12/12 11/11/11 9/9/9
f 15/15/15 14/14/14 13/13/13
f 16/16/16 15/15/15 13/13/13
f 19/19/19 18/18/18 17/17/17
f 20/20/20 19/19/19 17/17/17
f 23/23/23 22/22/22 21/21/21
f 24/24/24 23/23/23 21/21/21
f 27/27/27 26/26/26 25/25/25
f 28/28/28 27/27/27 25/25/25
f 31/31/31 30/30/30 29/29/29
f 32/32/32 31/31/31 29/29/29
f 35/35/35 34/34/34 33/33/33
f 36/36/36 35/35/35 33/33/33
f 39/39/39 38/38/38 37/37/37
f 40/40/40 39/39/39 37/37/37
f 43/43/43 42/42/42 41/41/41
f 44/44/44 43/43/43 41/41/41
f 47/47/47 46/46/46 45/45/45
f 48/48/48 47/47/47 45/45/45
f 51/51/51 50/50/50 49/49/49
f 52/52/52 51/51/51 49/49/49
f 55/55/55 54/54/54 53/53/53
f 56/56/56 55/55/55 53/53/53
f 59/59/59 58/58/58 57/57/57
f 60/60/60 59/59/59 57/57/57
f 63/63/63 62/62/62 61/61/61
f 64/64/64 63/63/63 61/61/61
f 67/67/67 66/66/66 65/65/65
f 68/68/68 67/67/67 65/65/65
f 71/71/71 70/70/70 69/69/69
f 72/72/72 71/71/71 69/69/69
f 75/75/75 74/74/74 73/73/73
f 76/76/76 75/75/75 73/73/73
f 79/79/79 78/78/78 77/77/77
f 80/80/80 79/79/79 77/77/77
f 83/83/83 82/82/82 81/81/81
f 84/84/84 83/83/83 81/81/81
f 87/87/87 86/86/86 85/85/85
f 88/88/88 87/87/87 85/85/85
f 91/91/91 90/90/90 89/89/89
f 92/92/92 91/91/91 89/89/89
f 95/95/95 94/94/94 93/93/93
f 96/96/96 95/95/95 93/93/93
f 99/99/99 98/98/98 97/97/97
f 100/100/100 99/99/99 97/97/97
f 103/103/103 102/102/102 101/101/101
f 104/104/104 103/103/103 101/101/101
f 107/107/107 106/106/106 105/105/105
f 108/108/108 107/107/107 105/105/105
f 111/111/111 110/110/110 109/109/109
f 112/112/112 111/111/111 109/109/109
f 115/115/115 114/114/114 113/113/113
f 116/116/116 115/115/115 113/113/113
f 119/119/119 118/118/118 117/117/117
f 120/120/120 119/119/119 117/117/117
f 123/123/123 122/122/122 121/121/121
f 124/124/124 123/123/123 121/121/121
f 127/127/127 126/126/126 125/125/125
f 128/128/128 127/127/127 125/125/125
f 131/131/131 130/130/130 129/129/129
f 132/132/132 131/131/131 129/129/129
f 135/135/135 134/134/134 133/133/133
f 136/136/136 135/135/135 133/133/133
f 139/139/139 138/138/138 137/137/137
f 140/140/140 139/139/139 137/137/137
f 143/143/143 142/142/142 141/141/141
f 144/144/144 143/143/143 141/141/141
f 147/147/147 146/146/146 145/145/145
f 148/148/148 147/147/147 145/145/145
f 151/151/151 150/150/150 149/149/149
f 152/152/152 151/151/151 149/149/149
f 155/155/155 154/154/154 153/153/153
f 156/156/156 155/155/155 153/153/153
f 159/159/159 158/158/158 157/157/157
f 160/160/160 159/159/159 157/157/157
f 163/163/163 162/162/162 161/161/161
f 161/161/161 162/162/162 164/164/164
f 165/165/165 162/162/162 163/163/163
f 164/164/164 162/162/162 166/166/166
f 167/167/167 162/162/162 165/165/165
f 166/166/166 162/162/162 168/168/168
f 169/169/169 162/162/162 167/167/167
f 168/168/168 162/162/162 169/169/169
f 172/172/172 171/171/171 170/170/170
f 172/172/172 170/170/170 173/173/173
f 172/172/172 174/174/174 171/171/171
f 172/172/172 173/173/173 175/175/175
f 172/172/172 176/176/176 174/174/174
f 172/172/172 175/175/175 177/177/177
f 172/172/172 178/178/178 176/176/176
f 172/172/172 177/177/177 178/178/178
f 181/181/181 180/180/180 179/179/179
f 180/180/180 182/182/182 179/179/179
f 183/183/183 180/180/180 181/181/181
f 179/179/179 182/182/182 184/184/184
f 185/185/185 183/183/183 181/181/181
f 182/182/182 186/186/186 184/184/184
f 187/187/187 183/183/183 185/185/185
f 184/184/184 186/186/186 188/188/188
f 189/189/189 187/187/187 185/185/185
f 186/186/186 190/190/190 188/188/188
f 191/191/191 187/187/187 189/189/189
f 188/188/188 190/190/190 192/192/192
f 193/193/193 191/191/191 189/189/189
f 190/190/190 194/194/194 192/192/192
f 194/194/194 191/191/191 193/193/193
f 192/192/192 194/194/194 193/193/193
f 197/197/197 196/196/196 195/195/195
f 198/198/198 197/197/197 195/195/195
f 197/197/197 199/199/199 196/196/196
f 198/198/198 195/195/195 200/200/200
f 199/199/199 201/201/201 196/196/196
f 202/202/202 198/198/198 200/200/200
f 199/199/199 203/203/203 201/201/201
f 202/202/202 200/200/200 204/204/204
f 203/203/203 205/205/205 201/201/201
f 206/206/206 202/202/202 204/204/204
f 203/203/203 207/207/207 205/205/205
f 206/206/206 204/204/204 208/208/208
f 207/207/207 209/209/209 205/205/205
f 210/210/210 206/206/206 208/208/208
f 210/210/210 208/208/208 209/209/209
f 207/207/207 210/210/210 209/209/209
