g SM_Wep_Flashbang_Pin_01
v -0.001700979 -0.005539303 -0.01229371
v 0.0008311121 -0.001291447 0.001267459
v 0.005592898 -0.007750492 0.01326613
v 0.009794964 -0.02113312 0.01667342
v 0.01097586 -0.03359985 0.009493625
v 0.008443764 -0.0378479 -0.004067471
v 0.003681983 -0.03138849 -0.01606614
v -0.0005201203 -0.01800604 -0.01947351
v -0.0003184897 -0.003695068 -0.01387002
v 0.002457663 0.0009624005 0.0009982943
v 0.007678427 -0.006119384 0.01415343
v 0.01228552 -0.02079199 0.01788916
v 0.01358023 -0.03446027 0.01001746
v 0.01080408 -0.03911773 -0.004850933
v 0.005583319 -0.03203577 -0.01800607
v 0.0009761851 -0.01736334 -0.02174195
v -0.004521838 -0.004689693 -0.01279458
v -0.001738773 -2.069469E-05 0.002110736
v -6.467269E-10 0.002699709 0.001849887
v -0.00308497 -0.002475767 -0.01467233
v 0.003494984 -0.007120056 0.01529868
v 0.005801515 -0.005169801 0.01646842
v 0.008113562 -0.0218291 0.01904372
v 0.01092111 -0.02147461 0.0206198
v 0.009411501 -0.03553161 0.01115233
v 0.01235985 -0.03666339 0.01187232
v 0.006628431 -0.04020062 -0.003752987
v 0.009274878 -0.04183887 -0.004649975
v 0.001394677 -0.03310126 -0.01694093
v 0.003473367 -0.03396918 -0.01926843
v -0.00322393 -0.01839203 -0.02068605
v -0.001646267 -0.01766455 -0.02341989
v 0.005925845 -0.0001481342 0.003749835
v 0.005925845 -0.003900509 -2.529621E-06
v 0.005925845 0.003604431 -2.529621E-06
v 0.005925845 -0.0001481342 -0.003754971
v -0.01756915 0.003604431 -2.529621E-06
v -0.01756915 -0.0001481342 -0.003754971
v -0.01756915 -0.0001481342 0.003749835
v -0.01756915 -0.003900509 -2.529621E-06
v -0.001738773 -2.069469E-05 0.002110736
v -6.467269E-10 0.002699709 0.001849887
v 0.003494984 -0.007120056 0.01529868
v 0.005801515 -0.005169801 0.01646842
v 0.008113562 -0.0218291 0.01904372
v 0.01092111 -0.02147461 0.0206198
v 0.009411501 -0.03553161 0.01115233
v 0.01235985 -0.03666339 0.01187232
v 0.006628431 -0.04020062 -0.003752987
v 0.009274878 -0.04183887 -0.004649975
v 0.001394677 -0.03310126 -0.01694093
v 0.003473367 -0.03396918 -0.01926843
v -0.00322393 -0.01839203 -0.02068605
v -0.001646267 -0.01766455 -0.02341989
v -0.00308497 -0.002475767 -0.01467233
v -0.004521838 -0.004689693 -0.01279458
v 0.0008311121 -0.001291447 0.001267459
v 0.002457663 0.0009624005 0.0009982943
v 0.005592898 -0.007750492 0.01326613
v 0.007678427 -0.006119384 0.01415343
v 0.009794964 -0.02113312 0.01667342
v 0.01228552 -0.02079199 0.01788916
v 0.01097586 -0.03359985 0.009493625
v 0.01358023 -0.03446027 0.01001746
v 0.008443764 -0.0378479 -0.004067471
v 0.01080408 -0.03911773 -0.004850933
v 0.003681983 -0.03138849 -0.01606614
v 0.005583319 -0.03203577 -0.01800607
v -0.0005201203 -0.01800604 -0.01947351
v -0.001700979 -0.005539303 -0.01229371
v -0.0003184897 -0.003695068 -0.01387002
v 0.0009761851 -0.01736334 -0.02174195
v -0.001700979 -0.005539303 -0.01229371
v -0.004521838 -0.004689693 -0.01279458
v -0.001738773 -2.069469E-05 0.002110736
v 0.0008311121 -0.001291447 0.001267459
v 0.002457663 0.0009624005 0.0009982943
v -6.467269E-10 0.002699709 0.001849887
v -0.00308497 -0.002475767 -0.01467233
v -0.0003184897 -0.003695068 -0.01387002
v 0.0008311121 -0.001291447 0.001267459
v -0.001738773 -2.069469E-05 0.002110736
v 0.003494984 -0.007120056 0.01529868
v 0.005592898 -0.007750492 0.01326613
v 0.007678427 -0.006119384 0.01415343
v 0.005801515 -0.005169801 0.01646842
v -6.467269E-10 0.002699709 0.001849887
v 0.002457663 0.0009624005 0.0009982943
v 0.005592898 -0.007750492 0.01326613
v 0.003494984 -0.007120056 0.01529868
v 0.008113562 -0.0218291 0.01904372
v 0.009794964 -0.02113312 0.01667342
v 0.01228552 -0.02079199 0.01788916
v 0.01092111 -0.02147461 0.0206198
v 0.005801515 -0.005169801 0.01646842
v 0.007678427 -0.006119384 0.01415343
v 0.009794964 -0.02113312 0.01667342
v 0.008113562 -0.0218291 0.01904372
v 0.009411501 -0.03553161 0.01115233
v 0.01097586 -0.03359985 0.009493625
v 0.01358023 -0.03446027 0.01001746
v 0.01235985 -0.03666339 0.01187232
v 0.01092111 -0.02147461 0.0206198
v 0.01228552 -0.02079199 0.01788916
v 0.01097586 -0.03359985 0.009493625
v 0.009411501 -0.03553161 0.01115233
v 0.006628431 -0.04020062 -0.003752987
v 0.008443764 -0.0378479 -0.004067471
v 0.01080408 -0.03911773 -0.004850933
v 0.009274878 -0.04183887 -0.004649975
v 0.01235985 -0.03666339 0.01187232
v 0.01358023 -0.03446027 0.01001746
v 0.008443764 -0.0378479 -0.004067471
v 0.006628431 -0.04020062 -0.003752987
v 0.001394677 -0.03310126 -0.01694093
v 0.003681983 -0.03138849 -0.01606614
v 0.005583319 -0.03203577 -0.01800607
v 0.003473367 -0.03396918 -0.01926843
v 0.009274878 -0.04183887 -0.004649975
v 0.01080408 -0.03911773 -0.004850933
v 0.003681983 -0.03138849 -0.01606614
v 0.001394677 -0.03310126 -0.01694093
v -0.00322393 -0.01839203 -0.02068605
v -0.0005201203 -0.01800604 -0.01947351
v 0.0009761851 -0.01736334 -0.02174195
v -0.001646267 -0.01766455 -0.02341989
v 0.003473367 -0.03396918 -0.01926843
v 0.005583319 -0.03203577 -0.01800607
v -0.0005201203 -0.01800604 -0.01947351
v -0.00322393 -0.01839203 -0.02068605
v -0.004521838 -0.004689693 -0.01279458
v -0.001700979 -0.005539303 -0.01229371
v -0.0003184897 -0.003695068 -0.01387002
v -0.00308497 -0.002475767 -0.01467233
v -0.001646267 -0.01766455 -0.02341989
v 0.0009761851 -0.01736334 -0.02174195
v 0.005925845 0.003604431 -2.529621E-06
v 0.005925845 -0.0001481342 -0.003754971
v -0.01756915 0.003604431 -2.529621E-06
v -0.01756915 -0.0001481342 -0.003754971
v -0.01756915 -0.0001481342 0.003749835
v 0.005925845 -0.0001481342 0.003749835
v 0.005925845 -0.003900509 -2.529621E-06
v -0.01756915 -0.003900509 -2.529621E-06
v 0.005925845 -0.003900509 -2.529621E-06
v 0.005925845 -0.0001481342 -0.003754971
v -0.01756915 -0.0001481342 -0.003754971
v -0.01756915 -0.003900509 -2.529621E-06
v -0.01756915 -0.0001481342 0.003749835
v -0.01756915 0.003604431 -2.529621E-06
v 0.005925845 0.003604431 -2.529621E-06
v 0.005925845 -0.0001481342 0.003749835
vt 0.1147427 0.3038577
vt 0.1147428 0.3038577
vt 0.1147428 0.3038577
vt 0.1147428 0.3038577
vt 0.1147428 0.3038577
vt 0.1147428 0.3038577
vt 0.1147428 0.3038577
vt 0.1147428 0.3038577
vt 0.1147427 0.3038577
vt 0.1147428 0.3038577
vt 0.1147428 0.3038577
vt 0.1147428 0.3038577
vt 0.1147428 0.3038577
vt 0.1147428 0.3038577
vt 0.1147428 0.3038577
vt 0.1147428 0.3038577
vt 0.1147427 0.3038577
vt 0.1147428 0.3038577
vt 0.1147428 0.3038577
vt 0.1147427 0.3038577
vt 0.1147428 0.3038577
vt 0.1147428 0.3038577
vt 0.1147428 0.3038577
vt 0.1147428 0.3038577
vt 0.1147428 0.3038577
vt 0.1147428 0.3038577
vt 0.1147428 0.3038577
vt 0.1147428 0.3038577
vt 0.1147428 0.3038577
vt 0.1147428 0.3038577
vt 0.1147428 0.3038577
vt 0.1147428 0.3038577
vt 0.1132616 0.2793623
vt 0.1132616 0.2793623
vt 0.1132616 0.2793623
vt 0.1132616 0.2793623
vt 0.1132616 0.2793623
vt 0.1132616 0.2793623
vt 0.1132616 0.2793623
vt 0.1132616 0.2793623
vt 0.1147428 0.3038577
vt 0.1147428 0.3038577
vt 0.1147428 0.3038577
vt 0.1147428 0.3038577
vt 0.1147428 0.3038577
vt 0.1147428 0.3038577
vt 0.1147428 0.3038577
vt 0.1147428 0.3038577
vt 0.1147428 0.3038577
vt 0.1147428 0.3038577
vt 0.1147428 0.3038577
vt 0.1147428 0.3038577
vt 0.1147428 0.3038577
vt 0.1147428 0.3038577
vt 0.1147427 0.3038577
vt 0.1147427 0.3038577
vt 0.1147428 0.3038577
vt 0.1147428 0.3038577
vt 0.1147428 0.3038577
vt 0.1147428 0.3038577
vt 0.1147428 0.3038577
vt 0.1147428 0.3038577
vt 0.1147428 0.3038577
vt 0.1147428 0.3038577
vt 0.1147428 0.3038577
vt 0.1147428 0.3038577
vt 0.1147428 0.3038577
vt 0.1147428 0.3038577
vt 0.1147428 0.3038577
vt 0.1147427 0.3038577
vt 0.1147427 0.3038577
vt 0.1147428 0.3038577
vt 0.1147427 0.3038577
vt 0.1147427 0.3038577
vt 0.1147428 0.3038577
vt 0.1147428 0.3038577
vt 0.1147428 0.3038577
vt 0.1147428 0.3038577
vt 0.1147427 0.3038577
vt 0.1147427 0.3038577
vt 0.1147428 0.3038577
vt 0.1147428 0.3038577
vt 0.1147428 0.3038577
vt 0.1147428 0.3038577
vt 0.1147428 0.3038577
vt 0.1147428 0.3038577
vt 0.1147428 0.3038577
vt 0.1147428 0.3038577
vt 0.1147428 0.3038577
vt 0.1147428 0.3038577
vt 0.1147428 0.3038577
vt 0.1147428 0.3038577
vt 0.1147428 0.3038577
vt 0.1147428 0.3038577
vt 0.1147428 0.3038577
vt 0.1147428 0.3038577
vt 0.1147428 0.3038577
vt 0.1147428 0.3038577
vt 0.1147428 0.3038577
vt 0.1147428 0.3038577
vt 0.1147428 0.3038577
vt 0.1147428 0.3038577
vt 0.1147428 0.3038577
vt 0.1147428 0.3038577
vt 0.1147428 0.3038577
vt 0.1147428 0.3038577
vt 0.1147428 0.3038577
vt 0.1147428 0.3038577
vt 0.1147428 0.3038577
vt 0.1147428 0.3038577
vt 0.1147428 0.3038577
vt 0.1147428 0.3038577
vt 0.1147428 0.3038577
vt 0.1147428 0.3038577
vt 0.1147428 0.3038577
vt 0.1147428 0.3038577
vt 0.1147428 0.3038577
vt 0.1147428 0.3038577
vt 0.1147428 0.3038577
vt 0.1147428 0.3038577
vt 0.1147428 0.3038577
vt 0.1147428 0.3038577
vt 0.1147428 0.3038577
vt 0.1147428 0.3038577
vt 0.1147428 0.3038577
vt 0.1147428 0.3038577
vt 0.1147428 0.3038577
vt 0.1147428 0.3038577
vt 0.1147428 0.3038577
vt 0.1147428 0.3038577
vt 0.1147427 0.3038577
vt 0.1147427 0.3038577
vt 0.1147427 0.3038577
vt 0.1147427 0.3038577
vt 0.1147428 0.3038577
vt 0.1147428 0.3038577
vt 0.1132616 0.2793623
vt 0.1132616 0.2793623
vt 0.1132616 0.2793623
vt 0.1132616 0.2793623
vt 0.1132616 0.2793623
vt 0.1132616 0.2793624
vt 0.1132616 0.2793624
vt 0.1132616 0.2793623
vt 0.1132616 0.2793623
vt 0.1132616 0.2793623
vt 0.1132616 0.2793623
vt 0.1132616 0.2793623
vt 0.1132616 0.2793623
vt 0.1132616 0.2793623
vt 0.1132616 0.2793623
vt 0.1132616 0.2793623
vn 0.8122362 -0.5825143 0.03081067
vn 0.8122362 -0.5825143 0.03081067
vn 0.6481907 -0.5327836 -0.54405
vn 0.4465659 -0.08652224 -0.8905576
vn 0.3255289 0.4948494 -0.8057016
vn 0.3558963 0.8707841 -0.3392241
vn 0.5199473 0.8210478 0.235659
vn 0.7215554 0.3747916 0.5821418
vn 0.8122362 -0.5825143 0.03081067
vn 0.8122362 -0.5825144 0.03081067
vn 0.6481907 -0.5327836 -0.54405
vn 0.4465659 -0.08652223 -0.8905576
vn 0.3255289 0.4948494 -0.8057016
vn 0.3558963 0.870784 -0.339224
vn 0.5199474 0.8210478 0.235659
vn 0.7215553 0.3747916 0.5821418
vn -0.8430221 0.5377654 -0.01104565
vn -0.8430221 0.5377655 -0.01104565
vn -0.8430221 0.5377655 -0.01104565
vn -0.8430221 0.5377655 -0.01104565
vn -0.6867567 0.4903986 0.5365392
vn -0.6867568 0.4903986 0.5365392
vn -0.4947183 0.06530499 0.8665962
vn -0.4947183 0.06530501 0.8665962
vn -0.3794138 -0.4884753 0.7857715
vn -0.3794138 -0.4884753 0.7857716
vn -0.4083411 -0.8465726 0.341427
vn -0.4083411 -0.8465726 0.341427
vn -0.5645873 -0.7992076 -0.2061756
vn -0.5645873 -0.7992076 -0.2061756
vn -0.7566407 -0.3741123 -0.5362227
vn -0.7566407 -0.3741124 -0.5362227
vn 1 0 0
vn 1 0 0
vn 1 0 0
vn 1 0 0
vn 0 0.7070951 -0.7071185
vn 0 0.7070951 -0.7071185
vn -1 0 0
vn -1 0 0
vn -0.6867568 0.4903986 0.5365391
vn -0.6867568 0.4903986 0.5365392
vn -0.4947183 0.06530499 0.8665962
vn -0.4947183 0.06530499 0.8665962
vn -0.3794139 -0.4884753 0.7857716
vn -0.3794138 -0.4884753 0.7857715
vn -0.4083411 -0.8465726 0.3414269
vn -0.4083411 -0.8465726 0.341427
vn -0.5645873 -0.7992076 -0.2061756
vn -0.5645872 -0.7992076 -0.2061756
vn -0.7566407 -0.3741124 -0.5362227
vn -0.7566407 -0.3741123 -0.5362227
vn -0.8719712 0.1796761 -0.4553928
vn -0.8719712 0.1796761 -0.4553928
vn -0.8719712 0.1796761 -0.4553928
vn -0.8719712 0.1796761 -0.4553928
vn 0.6481907 -0.5327836 -0.54405
vn 0.6481907 -0.5327836 -0.54405
vn 0.4465659 -0.08652222 -0.8905576
vn 0.4465659 -0.08652224 -0.8905576
vn 0.3255289 0.4948495 -0.8057015
vn 0.3255289 0.4948494 -0.8057016
vn 0.3558963 0.870784 -0.339224
vn 0.3558963 0.8707841 -0.3392241
vn 0.5199473 0.8210478 0.235659
vn 0.5199473 0.8210478 0.235659
vn 0.7215553 0.3747916 0.5821418
vn 0.7215554 0.3747916 0.5821418
vn 0.8426264 -0.2065885 0.4972945
vn 0.8426264 -0.2065885 0.4972945
vn 0.8426264 -0.2065885 0.4972945
vn 0.8426264 -0.2065885 0.4972945
vn -0.3259209 -0.8831097 0.3374802
vn -0.3259209 -0.8831096 0.3374802
vn -0.3259209 -0.8831097 0.3374802
vn -0.3259209 -0.8831097 0.3374802
vn 0.4603009 0.8190325 -0.3425039
vn 0.4603009 0.8190324 -0.3425039
vn 0.4603009 0.8190325 -0.3425039
vn 0.4603009 0.8190324 -0.3425039
vn -0.4940959 -0.8321266 -0.2518621
vn -0.4940959 -0.8321266 -0.2518621
vn -0.4940959 -0.8321266 -0.2518621
vn -0.494096 -0.8321266 -0.2518621
vn 0.6081011 0.7742277 0.1754557
vn 0.6081011 0.7742277 0.1754557
vn 0.608101 0.7742277 0.1754557
vn 0.6081011 0.7742277 0.1754557
vn -0.7007745 -0.3746134 -0.6071078
vn -0.7007745 -0.3746134 -0.6071078
vn -0.7007745 -0.3746134 -0.6071078
vn -0.7007745 -0.3746134 -0.6071078
vn 0.7897539 0.3721372 0.4876503
vn 0.7897539 0.3721372 0.4876502
vn 0.7897539 0.3721372 0.4876503
vn 0.7897539 0.3721372 0.4876503
vn -0.8248922 0.2214102 -0.5201256
vn -0.8248922 0.2214102 -0.5201255
vn -0.8248922 0.2214102 -0.5201256
vn -0.8248922 0.2214102 -0.5201255
vn 0.8988334 -0.1516792 0.4112079
vn 0.8988334 -0.1516792 0.4112079
vn 0.8988334 -0.1516792 0.4112079
vn 0.8988334 -0.1516792 0.4112079
vn -0.7937326 0.606823 -0.04188297
vn -0.7937327 0.6068229 -0.04188297
vn -0.7937327 0.606823 -0.04188297
vn -0.7937327 0.6068229 -0.04188297
vn 0.8714515 -0.4903972 -0.009099591
vn 0.8714515 -0.4903972 -0.009099592
vn 0.8714516 -0.4903972 -0.009099592
vn 0.8714515 -0.4903972 -0.009099591
vn -0.6255617 0.5558242 0.547478
vn -0.6255617 0.5558241 0.547478
vn -0.6255617 0.5558241 0.547478
vn -0.6255617 0.5558241 0.547478
vn 0.72364 -0.4455887 -0.5270634
vn 0.72364 -0.4455887 -0.5270634
vn 0.72364 -0.4455887 -0.5270634
vn 0.72364 -0.4455887 -0.5270634
vn -0.418864 0.09831883 0.9027106
vn -0.418864 0.09831885 0.9027106
vn -0.418864 0.09831883 0.9027106
vn -0.418864 0.09831883 0.9027106
vn 0.541986 -0.04350844 -0.8392605
vn 0.541986 -0.04350844 -0.8392605
vn 0.541986 -0.04350845 -0.8392605
vn 0.541986 -0.04350844 -0.8392605
vn -0.2947537 -0.4977099 0.8157236
vn -0.2947537 -0.4977099 0.8157236
vn -0.2947537 -0.49771 0.8157236
vn -0.2947537 -0.4977099 0.8157236
vn 0.4329111 0.4803256 -0.7628075
vn 0.4329111 0.4803256 -0.7628074
vn 0.4329111 0.4803256 -0.7628075
vn 0.4329111 0.4803256 -0.7628075
vn 0 0.7070951 -0.7071185
vn 0 0.7070951 -0.7071185
vn -1 0 0
vn -1 0 0
vn 0 -0.7071059 0.7071077
vn 0 -0.7071059 0.7071077
vn 0 -0.7071059 0.7071077
vn 0 -0.7071059 0.7071077
vn 0 -0.7071131 -0.7071005
vn 0 -0.7071131 -0.7071005
vn 0 -0.7071131 -0.7071005
vn 0 -0.7071131 -0.7071005
vn 0 0.7070879 0.7071257
vn 0 0.7070879 0.7071256
vn 0 0.7070879 0.7071257
vn 0 0.7070879 0.7071257
g SM_Wep_Flashbang_Pin_01_0
f 19/19/19 20/20/20 17/17/17
f 18/18/18 19/19/19 17/17/17
f 22/22/22 42/42/42 41/41/41
f 21/21/21 22/22/22 41/41/41
f 24/24/24 44/44/44 43/43/43
f 23/23/23 24/24/24 43/43/43
f 26/26/26 46/46/46 45/45/45
f 25/25/25 26/26/26 45/45/45
f 28/28/28 48/48/48 47/47/47
f 27/27/27 28/28/28 47/47/47
f 30/30/30 50/50/50 49/49/49
f 29/29/29 30/30/30 49/49/49
f 32/32/32 52/52/52 51/51/51
f 31/31/31 32/32/32 51/51/51
f 55/55/55 54/54/54 53/53/53
f 56/56/56 55/55/55 53/53/53
f 10/10/10 2/2/2 1/1/1
f 9/9/9 10/10/10 1/1/1
f 11/11/11 3/3/3 57/57/57
f 58/58/58 11/11/11 57/57/57
f 12/12/12 4/4/4 59/59/59
f 60/60/60 12/12/12 59/59/59
f 13/13/13 5/5/5 61/61/61
f 62/62/62 13/13/13 61/61/61
f 14/14/14 6/6/6 63/63/63
f 64/64/64 14/14/14 63/63/63
f 15/15/15 7/7/7 65/65/65
f 66/66/66 15/15/15 65/65/65
f 16/16/16 8/8/8 67/67/67
f 68/68/68 16/16/16 67/67/67
f 71/71/71 70/70/70 69/69/69
f 72/72/72 71/71/71 69/69/69
f 75/75/75 74/74/74 73/73/73
f 76/76/76 75/75/75 73/73/73
f 79/79/79 78/78/78 77/77/77
f 80/80/80 79/79/79 77/77/77
f 83/83/83 82/82/82 81/81/81
f 84/84/84 83/83/83 81/81/81
f 87/87/87 86/86/86 85/85/85
f 88/88/88 87/87/87 85/85/85
f 91/91/91 90/90/90 89/89/89
f 92/92/92 91/91/91 89/89/89
f 95/95/95 94/94/94 93/93/93
f 96/96/96 95/95/95 93/93/93
f 99/99/99 98/98/98 97/97/97
f 100/100/100 99/99/99 97/97/97
f 103/103/103 102/102/102 101/101/101
f 104/104/104 103/103/103 101/101/101
f 107/107/107 106/106/106 105/105/105
f 108/108/108 107/107/107 105/105/105
f 111/111/111 110/110/110 109/109/109
f 112/112/112 111/111/111 109/109/109
f 115/115/115 114/114/114 113/113/113
f 116/116/116 115/115/115 113/113/113
f 119/119/119 118/118/118 117/117/117
f 120/120/120 119/119/119 117/117/117
f 123/123/123 122/122/122 121/121/121
f 124/124/124 123/123/123 121/121/121
f 127/127/127 126/126/126 125/125/125
f 128/128/128 127/127/127 125/125/125
f 131/131/131 130/130/130 129/129/129
f 132/132/132 131/131/131 129/129/129
f 135/135/135 134/134/134 133/133/133
f 136/136/136 135/135/135 133/133/133
f 36/36/36 35/35/35 33/33/33
f 34/34/34 36/36/36 33/33/33
f 38/38/38 37/37/37 137/137/137
f 138/138/138 38/38/38 137/137/137
f 40/40/40 39/39/39 139/139/139
f 140/140/140 40/40/40 139/139/139
f 143/143/143 142/142/142 141/141/141
f 144/144/144 143/143/143 141/141/141
f 147/147/147 146/146/146 145/145/145
f 148/148/148 147/147/147 145/145/145
f 151/151/151 150/150/150 149/149/149
f 152/152/152 151/151/151 149/149/149
