g SM_Wep_Flashbang_Clip_01
v 0.01485615 -0.00477087 0.009487307
v 0.01485615 -0.00477087 -0.03109454
v 0.01485615 0.005147247 0.009487307
v 0.01485615 0.005147247 -0.03322378
v -0.01485615 0.005147247 0.009487307
v -0.01485615 0.005147247 -0.03322378
v -0.01485615 -0.00477087 0.009487307
v -0.01485615 -0.00477087 -0.03109454
v -0.01485615 -0.03839956 -0.04136484
v 0.01485615 -0.03839956 -0.04136484
v -0.01485615 -0.03857527 -0.04622318
v 0.01485615 -0.03857527 -0.04622318
v -0.01485615 -0.1326363 -0.04136484
v 0.01485615 -0.1326363 -0.04136484
v -0.01485615 -0.1328121 -0.04622318
v 0.01485615 -0.1328121 -0.04622318
v 0.0007086564 -0.1445359 -0.04622317
v 0.0004679872 -0.1443602 -0.04136484
v -0.01485615 -0.00256033 0.01601053
v 0.01485615 -0.00256033 0.01601053
v 0.01485615 0.002936725 0.01601053
v -0.01485615 0.002936725 0.01601053
v 0.01485615 0.005147247 0.009487307
v 0.01485615 0.005147247 -0.03322378
v -0.01485615 0.005147247 0.009487307
v -0.01485615 0.005147247 -0.03322378
v -0.01485615 -0.00477087 0.009487307
v 0.01485615 -0.00477087 0.009487307
v 0.01485615 -0.00477087 -0.03109454
v -0.01485615 -0.00477087 -0.03109454
v 0.01485615 -0.00477087 -0.03109454
v -0.01485615 -0.00477087 -0.03109454
v -0.01485615 -0.00477087 -0.03109454
v -0.01485615 -0.03839956 -0.04136484
v -0.01485615 0.005147247 -0.03322378
v -0.01485615 0.005147247 -0.03322378
v -0.01485615 -0.03857527 -0.04622318
v 0.01485615 0.005147247 -0.03322378
v 0.01485615 -0.03857527 -0.04622318
v 0.01485615 -0.03839956 -0.04136484
v 0.01485615 -0.03839956 -0.04136484
v -0.01485615 -0.1326363 -0.04136484
v -0.01485615 -0.03839956 -0.04136484
v -0.01485615 -0.1326363 -0.04136484
v -0.01485615 -0.1328121 -0.04622318
v -0.01485615 -0.1328121 -0.04622318
v 0.0007086564 -0.1445359 -0.04622317
v 0.01485615 -0.1328121 -0.04622318
v 0.01485615 -0.1326363 -0.04136484
v 0.01485615 -0.1326363 -0.04136484
v 0.01485615 -0.1328121 -0.04622318
v 0.0007086564 -0.1445359 -0.04622317
v 0.0004679872 -0.1443602 -0.04136484
v -0.01485615 -0.00477087 0.009487307
v -0.01485615 -0.00256033 0.01601053
v 0.01485615 -0.00256033 0.01601053
v 0.01485615 -0.00477087 0.009487307
v 0.01485615 -0.00256033 0.01601053
v 0.01485615 0.002936725 0.01601053
v 0.01485615 0.005147247 0.009487307
v 0.01485615 0.002936725 0.01601053
v -0.01485615 0.002936725 0.01601053
v -0.01485615 0.005147247 0.009487307
v -0.01485615 0.005147247 0.009487307
v -0.01485615 0.002936725 0.01601053
v -0.01485615 -0.00256033 0.01601053
v -0.01485615 -0.00477087 0.009487307
v 0.0004679872 -0.1443602 -0.04136484
v -0.01485615 -0.03857527 -0.04622318
v 0.01485615 -0.03857527 -0.04622318
vt 0.1129417 0.3035238
vt 0.1129417 0.3035238
vt 0.1129417 0.3035238
vt 0.1129417 0.3035238
vt 0.1129417 0.3035238
vt 0.1129417 0.3035238
vt 0.1129417 0.3035239
vt 0.1129417 0.3035239
vt 0.1129417 0.3035238
vt 0.1129417 0.3035238
vt 0.1129417 0.3035238
vt 0.1129417 0.3035238
vt 0.1129417 0.3035238
vt 0.1129417 0.3035238
vt 0.1129417 0.3035238
vt 0.1129417 0.3035238
vt 0.1129416 0.3035238
vt 0.1129417 0.3035238
vt 0.1129417 0.3035238
vt 0.1129417 0.3035238
vt 0.1129417 0.3035238
vt 0.1129417 0.3035238
vt 0.1129417 0.3035238
vt 0.1129417 0.3035238
vt 0.1129417 0.3035238
vt 0.1129417 0.3035238
vt 0.1129417 0.3035239
vt 0.1129417 0.3035239
vt 0.1129417 0.3035239
vt 0.1129417 0.3035239
vt 0.1129417 0.3035238
vt 0.1129417 0.3035238
vt 0.1129417 0.3035238
vt 0.1129417 0.3035238
vt 0.1129417 0.3035238
vt 0.1129417 0.3035238
vt 0.1129417 0.3035238
vt 0.1129417 0.3035238
vt 0.1129417 0.3035238
vt 0.1129417 0.3035238
vt 0.1129417 0.3035238
vt 0.1129417 0.3035238
vt 0.1129417 0.3035238
vt 0.1129417 0.3035238
vt 0.1129417 0.3035238
vt 0.1129417 0.3035238
vt 0.1129416 0.3035238
vt 0.1129417 0.3035238
vt 0.1129417 0.3035238
vt 0.1129417 0.3035238
vt 0.1129417 0.3035238
vt 0.1129416 0.3035238
vt 0.1129417 0.3035238
vt 0.1129417 0.3035238
vt 0.1129417 0.3035238
vt 0.1129417 0.3035238
vt 0.1129417 0.3035238
vt 0.1129417 0.3035238
vt 0.1129417 0.3035238
vt 0.1129417 0.3035238
vt 0.1129417 0.3035238
vt 0.1129417 0.3035238
vt 0.1129417 0.3035238
vt 0.1129417 0.3035238
vt 0.1129417 0.3035238
vt 0.1129417 0.3035238
vt 0.1129417 0.3035238
vt 0.1129417 0.3035238
vt 0.1129417 0.3035238
vt 0.1129417 0.3035238
vn 1 0 0
vn 1 0 0
vn 1 0 0
vn 1 0 0
vn 0 1 0
vn 0 1 0
vn -1 0 0
vn -1 0 0
vn 0 -0.2920849 0.9563923
vn 0 -0.2920849 0.9563923
vn -1 0 0
vn 0 0.2849866 -0.9585316
vn -0.6045683 -0.7964332 0.0138307
vn -1.604848E-07 0 1
vn -0.6045683 -0.7964332 0.0138307
vn 0 0 -1
vn -0.6045684 -0.7964332 0.01383071
vn -0.6045683 -0.7964332 0.0138307
vn 0 0 1
vn 0 0 1
vn 0 0 1
vn 0 0 1
vn 0 1 0
vn 0 1 0
vn -1 0 0
vn -1 0 0
vn 0 -1 0
vn 0 -1 0
vn 0 -1 0
vn 0 -1 0
vn 0 -0.2920849 0.9563923
vn 0 -0.2920849 0.9563923
vn -1 0 0
vn -1 0 0
vn -1 0 0
vn 0 0.2849866 -0.9585316
vn 0 0.2849866 -0.9585316
vn 0 0.2849866 -0.9585316
vn 1 0 0
vn 1 0 0
vn -1.604848E-07 0 1
vn -1.604848E-07 0 1
vn -1.604848E-07 0 1
vn -1 0 0
vn -1 0 0
vn 0 0 -1
vn 0 0 -1
vn 1 0 0
vn 1 0 0
vn 0.6342583 -0.7718893 0.04362721
vn 0.6342583 -0.7718893 0.04362722
vn 0.6342582 -0.7718893 0.04362722
vn 0.6342583 -0.7718893 0.04362722
vn 0 -0.9470977 0.3209454
vn 0 -0.9470977 0.3209454
vn 0 -0.9470977 0.3209454
vn 0 -0.9470977 0.3209454
vn 1 0 0
vn 1 0 0
vn 0 0.9470986 0.3209429
vn 0 0.9470986 0.3209429
vn 0 0.9470986 0.3209429
vn 0 0.9470986 0.3209429
vn -1 0 0
vn -1 0 0
vn -1 0 0
vn -1 0 0
vn 0 0 1
vn 0 0 -1
vn 0 0 -1
g SM_Wep_Flashbang_Clip_01_0
f 6/6/6 5/5/5 23/23/23
f 24/24/24 6/6/6 23/23/23
f 8/8/8 7/7/7 25/25/25
f 26/26/26 8/8/8 25/25/25
f 29/29/29 28/28/28 27/27/27
f 30/30/30 29/29/29 27/27/27
f 13/13/13 15/15/15 17/17/17
f 18/18/18 13/13/13 17/17/17
f 21/21/21 22/22/22 19/19/19
f 20/20/20 21/21/21 19/19/19
f 9/9/9 10/10/10 31/31/31
f 32/32/32 9/9/9 31/31/31
f 35/35/35 11/11/11 33/33/33
f 11/11/11 34/34/34 33/33/33
f 11/11/11 45/45/45 34/34/34
f 45/45/45 44/44/44 34/34/34
f 12/12/12 37/37/37 36/36/36
f 38/38/38 12/12/12 36/36/36
f 43/43/43 42/42/42 41/41/41
f 42/42/42 14/14/14 41/41/41
f 42/42/42 68/68/68 14/14/14
f 16/16/16 47/47/47 46/46/46
f 16/16/16 46/46/46 69/69/69
f 70/70/70 16/16/16 69/69/69
f 49/49/49 48/48/48 39/39/39
f 40/40/40 49/49/49 39/39/39
f 40/40/40 39/39/39 4/4/4
f 2/2/2 40/40/40 4/4/4
f 2/2/2 4/4/4 1/1/1
f 4/4/4 3/3/3 1/1/1
f 3/3/3 59/59/59 1/1/1
f 59/59/59 58/58/58 1/1/1
f 52/52/52 51/51/51 50/50/50
f 53/53/53 52/52/52 50/50/50
f 56/56/56 55/55/55 54/54/54
f 57/57/57 56/56/56 54/54/54
f 62/62/62 61/61/61 60/60/60
f 63/63/63 62/62/62 60/60/60
f 66/66/66 65/65/65 64/64/64
f 67/67/67 66/66/66 64/64/64
