g SM_Wep_Syringe_Gun_Trigger_01
v -0.002910348 -0.02238542 -0.01901557
v -0.002910348 -0.01218834 0.01442036
v -0.002910348 -0.02238542 0.01901561
v -0.002910348 -0.001991255 0.01245097
v -0.002910348 0.02238547 -0.01901557
v -0.002910348 0.008205829 0.01442036
v -0.002910348 0.02238547 0.01901561
v 0.002910305 -0.02238542 -0.01901557
v 0.002910305 -0.02238542 0.01901561
v 0.002910305 -0.01218834 0.01442036
v 0.002910305 0.02238547 -0.01901557
v 0.002910305 -0.001991255 0.01245097
v 0.002910305 0.008205829 0.01442036
v 0.002910305 0.02238547 0.01901561
v -0.002910348 -0.02238542 0.01901561
v -0.002910348 -0.01218834 0.01442036
v 0.002910305 -0.01218834 0.01442036
v 0.002910305 -0.02238542 0.01901561
v -0.002910348 0.008205829 0.01442036
v -0.002910348 0.02238547 0.01901561
v 0.002910305 0.02238547 0.01901561
v 0.002910305 0.008205829 0.01442036
v -0.002910348 -0.001991255 0.01245097
v -0.002910348 0.008205829 0.01442036
v 0.002910305 0.008205829 0.01442036
v 0.002910305 -0.001991255 0.01245097
v -0.002910348 -0.01218834 0.01442036
v -0.002910348 -0.001991255 0.01245097
v 0.002910305 -0.001991255 0.01245097
v 0.002910305 -0.01218834 0.01442036
vt 0.2436157 0.2286751
vt 0.2436157 0.2286751
vt 0.2436157 0.2286751
vt 0.2436157 0.2286751
vt 0.2436157 0.2286751
vt 0.2436157 0.2286751
vt 0.2436157 0.2286751
vt 0.2436157 0.2286751
vt 0.2436157 0.2286751
vt 0.2436157 0.2286751
vt 0.2436157 0.2286751
vt 0.2436157 0.2286751
vt 0.2436157 0.2286751
vt 0.2436157 0.2286751
vt 0.2436157 0.2286751
vt 0.2436157 0.2286751
vt 0.2436157 0.2286751
vt 0.2436157 0.2286751
vt 0.2436157 0.2286751
vt 0.2436157 0.2286751
vt 0.2436157 0.2286751
vt 0.2436157 0.2286751
vt 0.2436157 0.2286751
vt 0.2436157 0.2286751
vt 0.2436157 0.2286751
vt 0.2436157 0.2286751
vt 0.2436157 0.2286751
vt 0.2436157 0.2286751
vt 0.2436157 0.2286751
vt 0.2436157 0.2286751
vn -0.999874 0.01587105 -0.0003439156
vn -0.999874 0.01587105 -0.0003439156
vn -0.999874 0.01587105 -0.0003439156
vn -0.999874 0.01587105 -0.0003439156
vn -0.999874 0.01587105 -0.0003439156
vn -0.999874 0.01587105 -0.0003439156
vn -0.999874 0.01587105 -0.0003439156
vn 0.999874 0.01587105 -0.0003439156
vn 0.999874 0.01587105 -0.0003439156
vn 0.999874 0.01587105 -0.0003439156
vn 0.999874 0.01587105 -0.0003439156
vn 0.999874 0.01587105 -0.0003439156
vn 0.999874 0.01587105 -0.0003439156
vn 0.999874 0.01587105 -0.0003439156
vn -0.01587105 0.3967754 0.9177785
vn -0.01587105 0.3967754 0.9177785
vn -0.01587105 0.3967754 0.9177785
vn -0.01587105 0.3967754 0.9177785
vn -0.01587105 -0.3015493 0.9533185
vn -0.01587105 -0.3015493 0.9533185
vn -0.01587105 -0.3015493 0.9533185
vn -0.01587105 -0.3015493 0.9533185
vn -0.01587105 -0.1745812 0.9845148
vn -0.01587105 -0.1745812 0.9845148
vn -0.01587105 -0.1745812 0.9845148
vn -0.01587105 -0.1745812 0.9845148
vn -0.01587105 0.1745812 0.9845148
vn -0.01587105 0.1745812 0.9845148
vn -0.01587105 0.1745812 0.9845148
vn -0.01587105 0.1745812 0.9845148
g SM_Wep_Syringe_Gun_Trigger_01_0
f 3/3/3 2/2/2 1/1/1
f 2/2/2 4/4/4 1/1/1
f 4/4/4 5/5/5 1/1/1
f 4/4/4 6/6/6 5/5/5
f 6/6/6 7/7/7 5/5/5
f 10/10/10 9/9/9 8/8/8
f 10/10/10 8/8/8 11/11/11
f 12/12/12 10/10/10 11/11/11
f 13/13/13 12/12/12 11/11/11
f 14/14/14 13/13/13 11/11/11
f 17/17/17 16/16/16 15/15/15
f 18/18/18 17/17/17 15/15/15
f 21/21/21 20/20/20 19/19/19
f 22/22/22 21/21/21 19/19/19
f 25/25/25 24/24/24 23/23/23
f 26/26/26 25/25/25 23/23/23
f 29/29/29 28/28/28 27/27/27
f 30/30/30 29/29/29 27/27/27
