g SM_Wep_American_HeavyMachineGun_01_Trigger
v -0.01111381 -0.8064808 -1.034455
v -0.01111381 -0.794249 -1.029017
v -0.01111285 -0.79748 -1.025699
v -0.01111381 -0.8032536 -1.037773
v -0.01038424 -0.804625 -1.039107
v -0.01038424 -0.8078522 -1.035789
v 0.01111253 -0.8032536 -1.037773
v 0.01111157 -0.79748 -1.025699
v 0.01111253 -0.794249 -1.029017
v 0.01111253 -0.8064808 -1.034454
v 0.01038297 -0.8078522 -1.035789
v 0.01038249 -0.804625 -1.039106
v 0.001836138 -0.8032536 -1.037773
v -0.001837893 -0.8032536 -1.037773
v -0.001837416 -0.8064808 -1.034456
v 0.001836138 -0.8064808 -1.034455
v 0.01111157 -0.79748 -1.025699
v 0.004849749 -0.7943978 -1.022705
v 0.004849749 -0.7911705 -1.026023
v 0.01111253 -0.794249 -1.029017
v -0.01111381 -0.794249 -1.029017
v -0.004851026 -0.7911705 -1.026023
v -0.004851026 -0.7943978 -1.022704
v -0.01111285 -0.79748 -1.025699
v 0.01111253 -0.794249 -1.029017
v 0.004849749 -0.7911705 -1.026023
v -6.391174E-07 -0.7911705 -1.026023
v -6.391174E-07 -0.794249 -1.029017
v -0.01111381 -0.794249 -1.029017
v -0.004851026 -0.7911705 -1.026023
v -0.01111381 -0.8032536 -1.037773
v 0.001836138 -0.8032536 -1.037773
v 0.01111253 -0.8032536 -1.037773
v 0.01038249 -0.804625 -1.039106
v 0.004196959 -0.8043465 -1.038836
v -0.001837893 -0.8032536 -1.037773
v -0.004198713 -0.8043465 -1.038836
v -0.01038424 -0.804625 -1.039107
v 0.01038297 -0.8078522 -1.035789
v 0.01038249 -0.804625 -1.039106
v 0.004196959 -0.8043465 -1.038836
v 0.004197435 -0.8075737 -1.035518
v 0.005135851 -0.8012699 -1.029387
v 0.005135851 -0.8013863 -1.029499
v 0.005135851 -0.7959847 -1.024245
v 0.005135851 -0.79711 -1.025339
v 0.01111157 -0.79748 -1.025699
v 0.004849749 -0.7943978 -1.022705
v -6.391174E-07 -0.7943978 -1.022704
v -6.391174E-07 -0.7911705 -1.026023
v 0.004849749 -0.7911705 -1.026023
v 0.004849749 -0.7943978 -1.022705
v -6.391174E-07 -0.7943978 -1.022704
v -0.004851026 -0.7943978 -1.022704
v -0.004851026 -0.7911705 -1.026023
v -0.004198713 -0.8043465 -1.038836
v -0.01038424 -0.804625 -1.039107
v -0.01038424 -0.8078522 -1.035789
v -0.004198713 -0.8075737 -1.035518
v 0.01111253 -0.8064808 -1.034454
v 0.01038297 -0.8078522 -1.035789
v 0.004197435 -0.8075737 -1.035518
v 0.001836138 -0.8064808 -1.034455
v 0.005135851 -0.8012699 -1.029387
v 0.005135851 -0.79711 -1.025339
v 0.01111157 -0.79748 -1.025699
v 0.005135851 -0.8013863 -1.029499
v -0.001837416 -0.8064808 -1.034456
v -0.005138082 -0.8013863 -1.029499
v -0.01111381 -0.8064808 -1.034455
v -0.01038424 -0.8078522 -1.035789
v -0.004198713 -0.8075737 -1.035518
v -0.01111285 -0.79748 -1.025699
v -0.005137129 -0.7959847 -1.024245
v -6.391174E-07 -0.7943978 -1.022704
v -0.004851026 -0.7943978 -1.022704
v 0.005135851 -0.7959847 -1.024245
v 0.001836138 -0.8064808 -1.034455
v 0.004197435 -0.8075737 -1.035518
v 0.004196959 -0.8043465 -1.038836
v 0.001836138 -0.8032536 -1.037773
v -0.001837893 -0.8032536 -1.037773
v -0.004198713 -0.8043465 -1.038836
v -0.004198713 -0.8075737 -1.035518
v -0.001837416 -0.8064808 -1.034456
v -0.005138082 -0.8013863 -1.029499
v -0.003586455 -0.8141999 -1.008037
v 0.003585176 -0.8141999 -1.008037
v 0.005135851 -0.8013863 -1.029499
v 0.005135851 -0.8013863 -1.029499
v 0.003585176 -0.8067707 -1.009294
v 0.005135851 -0.7959847 -1.024245
v 0.003585176 -0.8141999 -1.008037
v 0.003585176 -0.7918915 -0.9989687
v 0.003585176 -0.7993245 -0.9977113
v 0.003585176 -0.790297 -0.984681
v 0.003585176 -0.7977261 -0.9834241
v 0.005135851 -0.7959847 -1.024245
v 0.003585176 -0.8067707 -1.009294
v -0.003586455 -0.8067707 -1.009294
v -0.005137129 -0.7959847 -1.024245
v -0.005137129 -0.7959847 -1.024245
v -0.003586455 -0.8141999 -1.008037
v -0.005138082 -0.8013863 -1.029499
v -0.003586455 -0.8067707 -1.009294
v -0.003586455 -0.7993245 -0.9977118
v -0.003586455 -0.7918915 -0.998969
v -0.003586455 -0.7977261 -0.9834241
v -0.003586455 -0.790297 -0.984681
v -0.003586455 -0.8141999 -1.008037
v -0.003586455 -0.7993245 -0.9977118
v 0.003585176 -0.7993245 -0.9977113
v 0.003585176 -0.8141999 -1.008037
v 0.003585176 -0.8067707 -1.009294
v 0.003585176 -0.7918915 -0.9989687
v -0.003586455 -0.7918915 -0.998969
v -0.003586455 -0.8067707 -1.009294
v -0.003586455 -0.7993245 -0.9977118
v -0.003586455 -0.7977261 -0.9834241
v 0.003585176 -0.7977261 -0.9834241
v 0.003585176 -0.7993245 -0.9977113
v 0.003585176 -0.7918915 -0.9989687
v 0.003585176 -0.790297 -0.984681
v -0.003586455 -0.790297 -0.984681
v -0.003586455 -0.7918915 -0.998969
vt 0.09268329 0.2721646
vt 0.09268329 0.2721646
vt 0.09268329 0.2721646
vt 0.09268329 0.2721646
vt 0.09268329 0.2721646
vt 0.09268329 0.2721646
vt 0.09268329 0.2721646
vt 0.09268329 0.2721646
vt 0.09268329 0.2721646
vt 0.09268329 0.2721646
vt 0.09268329 0.2721646
vt 0.09268329 0.2721646
vt 0.09268329 0.2721646
vt 0.09268329 0.2721646
vt 0.09268329 0.2721646
vt 0.09268329 0.2721646
vt 0.09268329 0.2721646
vt 0.09268329 0.2721646
vt 0.09268329 0.2721646
vt 0.09268329 0.2721646
vt 0.09268329 0.2721646
vt 0.09268329 0.2721646
vt 0.09268329 0.2721646
vt 0.09268329 0.2721646
vt 0.09268329 0.2721646
vt 0.09268329 0.2721646
vt 0.09268329 0.2721646
vt 0.09268329 0.2721646
vt 0.09268329 0.2721646
vt 0.09268329 0.2721646
vt 0.09268329 0.2721646
vt 0.09268329 0.2721646
vt 0.09268329 0.2721646
vt 0.09268329 0.2721646
vt 0.09268329 0.2721646
vt 0.09268329 0.2721646
vt 0.09268329 0.2721646
vt 0.09268329 0.2721646
vt 0.09268329 0.2721646
vt 0.09268329 0.2721646
vt 0.09268329 0.2721646
vt 0.09268329 0.2721646
vt 0.09268329 0.2721646
vt 0.09268329 0.2721646
vt 0.09268329 0.2721646
vt 0.09268329 0.2721646
vt 0.09268329 0.2721646
vt 0.09268329 0.2721646
vt 0.09268329 0.2721646
vt 0.09268329 0.2721646
vt 0.09268329 0.2721646
vt 0.09268329 0.2721646
vt 0.09268329 0.2721646
vt 0.09268329 0.2721646
vt 0.09268329 0.2721646
vt 0.09268329 0.2721646
vt 0.09268329 0.2721646
vt 0.09268329 0.2721646
vt 0.09268329 0.2721646
vt 0.09268329 0.2721646
vt 0.09268329 0.2721646
vt 0.09268329 0.2721646
vt 0.09268329 0.2721646
vt 0.09268329 0.2721646
vt 0.09268329 0.2721646
vt 0.09268329 0.2721646
vt 0.09268329 0.2721646
vt 0.09268329 0.2721646
vt 0.09268329 0.2721646
vt 0.09268329 0.2721646
vt 0.09268329 0.2721646
vt 0.09268329 0.2721646
vt 0.09268329 0.2721646
vt 0.09268329 0.2721646
vt 0.09268329 0.2721646
vt 0.09268329 0.2721646
vt 0.09268329 0.2721646
vt 0.09268329 0.2721646
vt 0.09268329 0.2721646
vt 0.09268329 0.2721646
vt 0.09268329 0.2721646
vt 0.09268329 0.2721646
vt 0.09268329 0.2721646
vt 0.09268329 0.2721646
vt 0.09268329 0.2721646
vt 0.09268329 0.2721646
vt 0.09268329 0.2721646
vt 0.09268329 0.2721646
vt 0.09268329 0.2721646
vt 0.09268329 0.2721646
vt 0.09268329 0.2721646
vt 0.09268329 0.2721646
vt 0.09268329 0.2721646
vt 0.09268329 0.2721646
vt 0.09268329 0.2721646
vt 0.09268329 0.2721646
vt 0.09268329 0.2721646
vt 0.09268329 0.2721646
vt 0.09268329 0.2721646
vt 0.09268329 0.2721646
vt 0.09268329 0.2721646
vt 0.09268329 0.2721646
vt 0.09268329 0.2721646
vt 0.09268329 0.2721646
vt 0.09268329 0.2721646
vt 0.09268329 0.2721646
vt 0.09268329 0.2721646
vt 0.09268329 0.2721646
vt 0.09268329 0.2721646
vt 0.09268329 0.2721646
vt 0.09268329 0.2721646
vt 0.09268329 0.2721646
vt 0.09268329 0.2721646
vt 0.09268329 0.2721646
vt 0.09268329 0.2721646
vt 0.09268329 0.2721646
vt 0.09268329 0.2721646
vt 0.09268329 0.2721646
vt 0.09268329 0.2721646
vt 0.09268329 0.2721646
vt 0.09268329 0.2721646
vt 0.09268329 0.2721646
vt 0.09268329 0.2721646
vt 0.09268329 0.2721646
vt 0.09268329 0.2721646
vn -1 0 0
vn -1 0 0
vn -1 0 0
vn -1 0 0
vn -1 0 0
vn -1 0 0
vn 1 0 0
vn 1 0 0
vn 1 0 0
vn 1 0 0
vn 1 0 0
vn 1 0 0
vn 0 -0.7168512 -0.6972263
vn 0 -0.7168512 -0.6972263
vn 0 -0.7168512 -0.6972263
vn 0 -0.7168512 -0.6972263
vn 0.5656599 0.5909224 0.5751866
vn 0.5656599 0.5909224 0.5751866
vn 0.5656599 0.5909224 0.5751866
vn 0.5656599 0.5909224 0.5751866
vn -0.5656823 0.5909217 0.5751653
vn -0.5656823 0.5909217 0.5751653
vn -0.5656823 0.5909217 0.5751653
vn -0.5656823 0.5909217 0.5751653
vn 0 0.6971781 -0.716898
vn 0 0.6971986 -0.7168781
vn 0 0.6972086 -0.7168685
vn 0 0.6971791 -0.7168971
vn 0 0.697192 -0.7168845
vn 0 0.6972184 -0.7168587
vn 0 0.6972015 -0.7168753
vn 0 0.6971698 -0.7169061
vn 0 0.6971771 -0.716899
vn 0 0.6971966 -0.71688
vn 0 0.6971966 -0.71688
vn 0 0.6971861 -0.7168902
vn 0 0.6972374 -0.7168403
vn 0 0.6972374 -0.7168403
vn 0 -0.7168556 -0.6972216
vn 0 -0.7168556 -0.6972216
vn 0 -0.7168556 -0.6972216
vn 0 -0.7168556 -0.6972216
vn 0 1 0
vn 0 1 0
vn 0 1 0
vn 0 1 0
vn 0 1 0
vn 0 1 0
vn 0 1 0
vn 0 0.7168825 0.6971941
vn 0 0.7168761 0.6972005
vn 0 0.7168761 0.6972005
vn 0 0.7168825 0.6971941
vn 0 0.7168887 0.6971876
vn 0 0.7168887 0.6971876
vn 0 -0.7168762 -0.6972005
vn 0 -0.7168762 -0.6972005
vn 0 -0.7168762 -0.6972005
vn 0 -0.7168762 -0.6972005
vn 0 -0.6972913 0.7167879
vn 0 -0.6973408 0.7167397
vn 0 -0.6973408 0.7167397
vn 0 -0.6972806 0.7167984
vn 0 -0.6972666 0.7168119
vn 0 -0.6973142 0.7167656
vn 0 -0.6973142 0.7167656
vn 0 -0.6972504 0.7168276
vn 0 -0.6972359 0.7168417
vn 0 -0.6972992 0.7167802
vn 0 -0.6972413 0.7168365
vn 0 -0.6971083 0.7169659
vn 0 -0.6971083 0.7169659
vn 0 -0.6969295 0.7171396
vn 0 -0.69682 0.717246
vn 0 -0.696581 0.7174782
vn 0 -0.6965609 0.7174977
vn 0 -0.696601 0.7174587
vn -0.5425246 -0.6022241 -0.5856562
vn -0.5425246 -0.6022241 -0.5856562
vn -0.5425246 -0.6022241 -0.5856562
vn -0.5425246 -0.6022241 -0.5856562
vn 0.5424203 -0.6021913 -0.5857865
vn 0.5424203 -0.6021913 -0.5857865
vn 0.5424203 -0.6021913 -0.5857865
vn 0.5424203 -0.6021913 -0.5857865
vn 0 -0.8586173 -0.512617
vn 0 -0.8586173 -0.512617
vn 0 -0.8586173 -0.512617
vn 0 -0.8586173 -0.512617
vn 0.9974986 0 0.0706863
vn 0.9993744 0 0.03536527
vn 0.9974986 0 0.0706863
vn 0.9993744 0 0.03536527
vn 1 0 0
vn 1 0 0
vn 1 0 0
vn 1 0 0
vn 0 0.8109828 0.5850701
vn 0 0.8109828 0.5850701
vn 0 0.8109828 0.5850701
vn 0 0.8109828 0.5850701
vn -0.9974941 0 0.07074919
vn -0.9993734 0 0.03539678
vn -0.9974941 0 0.07074919
vn -0.9993734 0 0.03539678
vn -1 0 0
vn -1 0 0
vn -1 0 0
vn -1 0 0
vn 0 -0.5702201 0.8214919
vn 0 -0.5702201 0.8214919
vn 0 -0.5702201 0.8214919
vn 0 -0.5702201 0.8214919
vn 0 0.5701214 -0.8215604
vn 0 0.5701214 -0.8215604
vn 0 0.5701214 -0.8215604
vn 0 0.5701214 -0.8215604
vn 0 -0.9938006 0.1111778
vn 0 -0.9938006 0.1111778
vn 0 -0.9938006 0.1111778
vn 0 -0.9938006 0.1111778
vn 0 0.9938301 -0.110913
vn 0 0.9938301 -0.110913
vn 0 0.9938301 -0.110913
vn 0 0.9938301 -0.110913
g SM_Wep_American_HeavyMachineGun_01_Trigger_0
f 3/3/3 2/2/2 1/1/1
f 2/2/2 4/4/4 1/1/1
f 4/4/4 5/5/5 1/1/1
f 5/5/5 6/6/6 1/1/1
f 9/9/9 8/8/8 7/7/7
f 8/8/8 10/10/10 7/7/7
f 10/10/10 11/11/11 7/7/7
f 11/11/11 12/12/12 7/7/7
f 15/15/15 14/14/14 13/13/13
f 16/16/16 15/15/15 13/13/13
f 19/19/19 18/18/18 17/17/17
f 20/20/20 19/19/19 17/17/17
f 23/23/23 22/22/22 21/21/21
f 24/24/24 23/23/23 21/21/21
f 27/27/27 26/26/26 25/25/25
f 28/28/28 27/27/27 25/25/25
f 28/28/28 29/29/29 27/27/27
f 29/29/29 30/30/30 27/27/27
f 29/29/29 28/28/28 31/31/31
f 28/28/28 25/25/25 32/32/32
f 25/25/25 33/33/33 32/32/32
f 33/33/33 34/34/34 32/32/32
f 34/34/34 35/35/35 32/32/32
f 32/32/32 36/36/36 28/28/28
f 28/28/28 36/36/36 31/31/31
f 36/36/36 37/37/37 31/31/31
f 37/37/37 38/38/38 31/31/31
f 41/41/41 40/40/40 39/39/39
f 42/42/42 41/41/41 39/39/39
f 45/45/45 44/44/44 43/43/43
f 46/46/46 45/45/45 43/43/43
f 47/47/47 45/45/45 46/46/46
f 45/45/45 47/47/47 48/48/48
f 48/48/48 49/49/49 45/45/45
f 52/52/52 51/51/51 50/50/50
f 53/53/53 52/52/52 50/50/50
f 53/53/53 50/50/50 54/54/54
f 50/50/50 55/55/55 54/54/54
f 58/58/58 57/57/57 56/56/56
f 59/59/59 58/58/58 56/56/56
f 62/62/62 61/61/61 60/60/60
f 63/63/63 62/62/62 60/60/60
f 60/60/60 64/64/64 63/63/63
f 65/65/65 64/64/64 60/60/60
f 66/66/66 65/65/65 60/60/60
f 64/64/64 67/67/67 63/63/63
f 63/63/63 67/67/67 68/68/68
f 67/67/67 69/69/69 68/68/68
f 68/68/68 69/69/69 70/70/70
f 70/70/70 71/71/71 68/68/68
f 71/71/71 72/72/72 68/68/68
f 70/70/70 69/69/69 73/73/73
f 69/69/69 74/74/74 73/73/73
f 74/74/74 75/75/75 73/73/73
f 75/75/75 76/76/76 73/73/73
f 74/74/74 77/77/77 75/75/75
f 80/80/80 79/79/79 78/78/78
f 81/81/81 80/80/80 78/78/78
f 84/84/84 83/83/83 82/82/82
f 85/85/85 84/84/84 82/82/82
f 88/88/88 87/87/87 86/86/86
f 89/89/89 88/88/88 86/86/86
f 92/92/92 91/91/91 90/90/90
f 91/91/91 93/93/93 90/90/90
f 91/91/91 94/94/94 93/93/93
f 94/94/94 95/95/95 93/93/93
f 94/94/94 96/96/96 95/95/95
f 96/96/96 97/97/97 95/95/95
f 100/100/100 99/99/99 98/98/98
f 101/101/101 100/100/100 98/98/98
f 104/104/104 103/103/103 102/102/102
f 103/103/103 105/105/105 102/102/102
f 103/103/103 106/106/106 105/105/105
f 106/106/106 107/107/107 105/105/105
f 106/106/106 108/108/108 107/107/107
f 108/108/108 109/109/109 107/107/107
f 112/112/112 111/111/111 110/110/110
f 113/113/113 112/112/112 110/110/110
f 116/116/116 115/115/115 114/114/114
f 117/117/117 116/116/116 114/114/114
f 120/120/120 119/119/119 118/118/118
f 121/121/121 120/120/120 118/118/118
f 124/124/124 123/123/123 122/122/122
f 125/125/125 124/124/124 122/122/122
