g SM_Wep_Rifle_02_Slide_01
v 0.001939312 0.01243442 -0.03890033
v 0.001939312 0.01243442 0.03890033
v -0.01159785 0.001787212 0.03890033
v -0.01159785 0.001787212 -0.03890033
v -0.01159785 0.001787212 -0.03890033
v -0.01159785 0.001787212 0.03890033
v -0.01235837 -0.01243442 0.03890033
v -0.01235837 -0.01243442 -0.03890033
v -0.01159785 0.001787212 -0.03890033
v 0.01235837 -0.01076128 -0.03890033
v 0.001939312 0.01243442 -0.03890033
v -0.01235837 -0.01243442 -0.03890033
v 0.001939312 0.01243442 0.03890033
v 0.01235837 -0.01076128 0.03890033
v -0.01159785 0.001787212 0.03890033
v -0.01235837 -0.01243442 0.03890033
vt 0.1335035 0.2303787
vt 0.1335035 0.2303787
vt 0.1335035 0.2303787
vt 0.1335035 0.2303787
vt 0.1335035 0.2303787
vt 0.1335035 0.2303787
vt 0.1335035 0.2303787
vt 0.1335035 0.2303787
vt 0.1335035 0.2303787
vt 0.1335035 0.2303787
vt 0.1335035 0.2303787
vt 0.1335035 0.2303787
vt 0.1335035 0.2303787
vt 0.1335035 0.2303787
vt 0.1335035 0.2303787
vt 0.1335035 0.2303787
vn -0.6150318 0.7885023 0
vn -0.6150318 0.7885023 0
vn -0.6150318 0.7885023 0
vn -0.6150318 0.7885023 0
vn -0.9979905 0.06336448 0
vn -0.9979905 0.06336448 0
vn -0.9979905 0.06336448 0
vn -0.9979905 0.06336448 0
vn 0 0 -1
vn 0 0 -1
vn 0 0 -1
vn 0 0 -1
vn 0 0 1
vn 0 0 1
vn 0 0 1
vn 0 0 1
g SM_Wep_Rifle_02_Slide_01_0
f 3/3/3 2/2/2 1/1/1
f 4/4/4 3/3/3 1/1/1
f 7/7/7 6/6/6 5/5/5
f 8/8/8 7/7/7 5/5/5
f 11/11/11 10/10/10 9/9/9
f 9/9/9 10/10/10 12/12/12
f 15/15/15 14/14/14 13/13/13
f 16/16/16 14/14/14 15/15/15
