g SM_Wep_Rifle_Laser_Trigger_01
v -0.007379156 -0.001924705 -0.01181464
v 0.007419113 -0.001924705 -0.01181464
v 0.007419113 -0.001924705 0.01932034
v -0.007379156 -0.001924705 0.01932034
v -0.005840722 -0.05144763 0.014412
v 0.00588068 -0.05144763 0.014412
v 0.00588068 -0.05562338 0.01323986
v -0.005840722 -0.05562338 0.01323986
v -0.007379156 -0.03452485 0.004668582
v -0.007379156 -0.02133828 0.007452417
v 0.007419113 -0.02133828 0.007452417
v 0.007419113 -0.03452485 0.004668582
v 0.007419113 -0.0378215 -0.003463138
v 0.007419113 -0.02133828 -0.008811031
v -0.007379156 -0.02133828 -0.008811031
v -0.007379156 -0.0378215 -0.003463138
v -0.007379156 -0.02133828 -0.008811031
v -0.007379156 -0.001924705 -0.01181464
v -0.007379156 -0.001924705 0.01932034
v -0.007379156 -0.02133828 0.007452417
v -0.007379156 -0.0378215 -0.003463138
v -0.007379156 -0.03452485 0.004668582
v -0.006426793 -0.04397523 0.006280277
v -0.006426793 -0.05071504 0.003423184
v -0.005840722 -0.05144763 0.014412
v -0.005840722 -0.05562338 0.01323986
v -0.007379156 -0.02133828 0.007452417
v -0.007379156 -0.001924705 0.01932034
v 0.007419113 -0.001924705 0.01932034
v 0.007419113 -0.02133828 0.007452417
v 0.007419113 -0.02133828 0.007452417
v 0.007419113 -0.001924705 0.01932034
v 0.007419113 -0.001924705 -0.01181464
v 0.007419113 -0.02133828 -0.008811031
v 0.007419113 -0.03452485 0.004668582
v 0.007419113 -0.0378215 -0.003463138
v 0.00646675 -0.04397523 0.006280277
v 0.00646675 -0.05071504 0.003423184
v 0.00588068 -0.05144763 0.014412
v 0.00588068 -0.05562338 0.01323986
v 0.007419113 -0.02133828 -0.008811031
v 0.007419113 -0.001924705 -0.01181464
v -0.007379156 -0.001924705 -0.01181464
v -0.007379156 -0.02133828 -0.008811031
v 0.007419113 -0.03452485 0.004668582
v 0.00646675 -0.04397523 0.006280277
v -0.006426793 -0.04397523 0.006280277
v -0.007379156 -0.03452485 0.004668582
v -0.007379156 -0.0378215 -0.003463138
v -0.006426793 -0.05071504 0.003423184
v 0.00646675 -0.05071504 0.003423184
v 0.007419113 -0.0378215 -0.003463138
v 0.00646675 -0.05071504 0.003423184
v -0.006426793 -0.05071504 0.003423184
v -0.005840722 -0.05562338 0.01323986
v 0.00588068 -0.05562338 0.01323986
v -0.006426793 -0.04397523 0.006280277
v 0.00646675 -0.04397523 0.006280277
v 0.00588068 -0.05144763 0.014412
v -0.005840722 -0.05144763 0.014412
vt 0.2458627 0.2309711
vt 0.2458627 0.2309711
vt 0.2458627 0.2309711
vt 0.2458627 0.2309711
vt 0.2458627 0.2309711
vt 0.2458627 0.2309711
vt 0.2458627 0.2309711
vt 0.2458627 0.2309711
vt 0.2458627 0.2309711
vt 0.2458627 0.2309711
vt 0.2458627 0.2309711
vt 0.2458627 0.2309711
vt 0.2458627 0.2309711
vt 0.2458627 0.2309711
vt 0.2458627 0.2309711
vt 0.2458627 0.2309711
vt 0.2458627 0.2309711
vt 0.2458627 0.2309711
vt 0.2458627 0.2309711
vt 0.2458627 0.2309711
vt 0.2458627 0.2309711
vt 0.2458627 0.2309711
vt 0.2458627 0.2309711
vt 0.2458627 0.2309711
vt 0.2458627 0.2309711
vt 0.2458627 0.2309711
vt 0.2458627 0.2309711
vt 0.2458627 0.2309711
vt 0.2458627 0.2309711
vt 0.2458627 0.2309711
vt 0.2458627 0.2309711
vt 0.2458627 0.2309711
vt 0.2458627 0.2309711
vt 0.2458627 0.2309711
vt 0.2458627 0.2309711
vt 0.2458627 0.2309711
vt 0.2458627 0.2309711
vt 0.2458627 0.2309711
vt 0.2458627 0.2309711
vt 0.2458627 0.2309711
vt 0.2458627 0.2309711
vt 0.2458627 0.2309711
vt 0.2458627 0.2309711
vt 0.2458627 0.2309711
vt 0.2458627 0.2309711
vt 0.2458627 0.2309711
vt 0.2458627 0.2309711
vt 0.2458627 0.2309711
vt 0.2458627 0.2309711
vt 0.2458627 0.2309711
vt 0.2458627 0.2309711
vt 0.2458627 0.2309711
vt 0.2458627 0.2309711
vt 0.2458627 0.2309711
vt 0.2458627 0.2309711
vt 0.2458627 0.2309711
vt 0.2458627 0.2309711
vt 0.2458627 0.2309711
vt 0.2458627 0.2309711
vt 0.2458627 0.2309711
vn -0.01587105 0.999874 -0.000345267
vn -0.01587105 0.999874 -0.000345267
vn -0.01587105 0.999874 -0.000345267
vn -0.01587105 0.999874 -0.000345267
vn 0.01587099 -0.2698073 0.9627835
vn 0.01587099 -0.2698073 0.9627835
vn 0.01587099 -0.2698073 0.9627835
vn 0.01587099 -0.2698073 0.9627835
vn -0.01587105 -0.2063232 0.9783552
vn -0.01587105 -0.2063232 0.9783552
vn -0.01587105 -0.2063232 0.9783552
vn -0.01587105 -0.2063232 0.9783552
vn -0.01587105 -0.3015493 -0.9533185
vn -0.01587105 -0.3015493 -0.9533185
vn -0.01587105 -0.3015493 -0.9533185
vn -0.01587105 -0.3015493 -0.9533185
vn -0.999874 0.01587105 -0.0003439156
vn -0.999874 0.01587105 -0.0003439156
vn -0.999874 0.01587105 -0.0003439156
vn -0.999874 0.01587105 -0.0003439156
vn -0.999874 -0.01587099 -0.000346655
vn -0.999874 -0.01587099 -0.000346655
vn -0.9988682 -0.04756513 0
vn -0.9988682 -0.04756513 0
vn -0.999874 -0.01587099 -0.000346655
vn -0.999874 -0.01587099 -0.000346655
vn -0.01587105 -0.5237435 0.8517281
vn -0.01587105 -0.5237435 0.8517281
vn -0.01587105 -0.5237435 0.8517281
vn -0.01587105 -0.5237435 0.8517281
vn 0.999874 0.01587105 -0.0003439156
vn 0.999874 0.01587105 -0.0003439156
vn 0.999874 0.01587105 -0.0003439156
vn 0.999874 0.01587105 -0.0003439156
vn 0.999874 -0.01587099 -0.000346655
vn 0.999874 -0.01587099 -0.000346655
vn 0.9988682 -0.04756513 0
vn 0.9988682 -0.04756513 0
vn 0.999874 -0.01587099 -0.000346655
vn 0.999874 -0.01587099 -0.000346655
vn 0.01587099 -0.1428391 -0.9896187
vn 0.01587099 -0.1428391 -0.9896187
vn 0.01587099 -0.1428391 -0.9896187
vn 0.01587099 -0.1428391 -0.9896187
vn -0.01587105 0.1745812 0.9845148
vn -0.01587105 0.1745812 0.9845148
vn -0.01587105 0.1745812 0.9845148
vn -0.01587105 0.1745812 0.9845148
vn -0.01587105 -0.4602594 -0.8876426
vn -0.01587105 -0.4602594 -0.8876426
vn -0.01587105 -0.4602594 -0.8876426
vn -0.01587105 -0.4602594 -0.8876426
vn -0.01587105 -0.9046479 -0.4258642
vn -0.01587105 -0.9046479 -0.4258642
vn -0.01587105 -0.9046479 -0.4258642
vn -0.01587105 -0.9046479 -0.4258642
vn -0.01587105 0.7459378 0.6658264
vn -0.01587105 0.7459378 0.6658264
vn -0.01587105 0.7459378 0.6658264
vn -0.01587105 0.7459378 0.6658264
g SM_Wep_Rifle_Laser_Trigger_01_0
f 3/3/3 2/2/2 1/1/1
f 4/4/4 3/3/3 1/1/1
f 7/7/7 6/6/6 5/5/5
f 8/8/8 7/7/7 5/5/5
f 11/11/11 10/10/10 9/9/9
f 12/12/12 11/11/11 9/9/9
f 15/15/15 14/14/14 13/13/13
f 16/16/16 15/15/15 13/13/13
f 19/19/19 18/18/18 17/17/17
f 20/20/20 19/19/19 17/17/17
f 20/20/20 17/17/17 21/21/21
f 22/22/22 20/20/20 21/21/21
f 22/22/22 21/21/21 23/23/23
f 21/21/21 24/24/24 23/23/23
f 23/23/23 24/24/24 25/25/25
f 24/24/24 26/26/26 25/25/25
f 29/29/29 28/28/28 27/27/27
f 30/30/30 29/29/29 27/27/27
f 33/33/33 32/32/32 31/31/31
f 34/34/34 33/33/33 31/31/31
f 34/34/34 31/31/31 35/35/35
f 36/36/36 34/34/34 35/35/35
f 35/35/35 37/37/37 36/36/36
f 37/37/37 38/38/38 36/36/36
f 37/37/37 39/39/39 38/38/38
f 39/39/39 40/40/40 38/38/38
f 43/43/43 42/42/42 41/41/41
f 44/44/44 43/43/43 41/41/41
f 47/47/47 46/46/46 45/45/45
f 48/48/48 47/47/47 45/45/45
f 51/51/51 50/50/50 49/49/49
f 52/52/52 51/51/51 49/49/49
f 55/55/55 54/54/54 53/53/53
f 56/56/56 55/55/55 53/53/53
f 59/59/59 58/58/58 57/57/57
f 60/60/60 59/59/59 57/57/57
