g Sphere
v -7.212002E-09 0.1950903 0.01922962
v -0.03806027 0.1913417 0.01922962
v -2.304045E-07 -2.980232E-08 1.487136E-05
v 4.121677E-08 0.3826833 0.07613543
v -0.0746578 0.3753301 0.07613543
v 2.631561E-08 0.55557 0.1685453
v -0.07465789 0.1802398 0.01922962
v -2.304045E-07 -2.980232E-08 1.487136E-05
v -0.1083864 0.5448949 0.1685453
v -2.583845E-08 0.7071064 0.2929081
v -0.1464466 0.3535532 0.07613543
v -0.1379497 0.6935195 0.2929081
v -8.544309E-08 0.8314691 0.4444447
v -0.1083865 0.1622116 0.01922962
v -2.304045E-07 -2.980232E-08 1.487136E-05
v -0.2126075 0.5132797 0.1685453
v -0.1622117 0.8154926 0.4444447
v 6.356851E-08 0.9238792 0.6173315
v -0.2126075 0.3181894 0.07613537
v -0.270598 0.6532811 0.2929081
v -0.1802399 0.906127 0.6173315
v -8.544309E-08 0.9807847 0.8049247
v -0.1379498 0.1379496 0.01922962
v -2.304045E-07 -2.980232E-08 1.487136E-05
v -0.3086582 0.4619395 0.1685453
v -0.3181896 0.7681771 0.4444447
v -0.1913417 0.9619392 0.8049247
v -1.003443E-07 0.9999998 1.000015
v -0.1950904 0.980785 1.000015
v -0.270598 0.2705978 0.07613537
v -0.3928474 0.5879374 0.2929081
v -0.3535533 0.853553 0.6173315
v -0.3753302 0.9061268 0.8049247
v -0.3826835 0.9238791 1.000015
v -0.4619396 0.691341 0.4444447
v -0.3928474 0.3928472 0.1685453
v -0.1622118 0.1083862 0.01922962
v -2.304045E-07 -2.980232E-08 1.487136E-05
v -0.5448949 0.8154925 0.8049246
v -0.5555702 0.8314692 1.000015
v -0.5132798 0.7681773 0.6173314
v -0.4999999 0.4999996 0.2929081
v -0.3181896 0.2126072 0.07613537
v -0.6935197 0.6935192 0.8049246
v -0.7071068 0.7071063 1.000015
v -0.5879375 0.5879371 0.4444447
v -0.6532813 0.6532811 0.6173314
v -0.4619397 0.308658 0.1685453
v -0.1802401 0.07465762 0.01922962
v -2.304045E-07 -2.980232E-08 1.487136E-05
v -0.3535533 0.1464463 0.07613537
v -0.5132799 0.2126072 0.1685453
v -0.5879377 0.3928471 0.2929081
v -0.6532813 0.2705976 0.2929081
v -0.6913414 0.4619392 0.4444447
v -0.7681773 0.3181891 0.4444447
v -0.7681776 0.5132796 0.6173315
v -0.8535532 0.3535531 0.6173315
v -0.8154928 0.5448944 0.8049246
v -0.906127 0.3753296 0.8049246
v -0.8314695 0.5555697 1.000015
v -0.9238794 0.3826829 1.000015
vt 0.12793 1.003906
vt 0.1279299 0.8372403
vt 0.003906608 0.9205731
vt 0.2519535 1.003906
vt 0.2519535 0.8372402
vt 0.375977 1.003906
vt 0.1279299 0.6705735
vt 0.003906488 0.753907
vt 0.3759769 0.83724
vt 0.5000001 1.003906
vt 0.2519535 0.6705735
vt 0.5000001 0.8372396
vt 0.6240235 1.003906
vt 0.1279299 0.5039073
vt 0.003906488 0.5872406
vt 0.3759769 0.6705735
vt 0.6240235 0.8372396
vt 0.7480469 1.003906
vt 0.2519535 0.5039069
vt 0.5000001 0.6705732
vt 0.7480469 0.83724
vt 0.8720704 1.003906
vt 0.1279299 0.3372408
vt 0.003906488 0.4205743
vt 0.3759768 0.5039067
vt 0.6240235 0.6705729
vt 0.8720704 0.8372395
vt 0.9960939 1.003906
vt 0.9960937 0.8372395
vt 0.2519532 0.3372402
vt 0.5000001 0.5039067
vt 0.7480469 0.6705732
vt 0.8720703 0.6705729
vt 0.9960937 0.6705729
vt 0.6240235 0.5039065
vt 0.3759768 0.3372402
vt 0.1279299 0.1705743
vt 0.003906488 0.2539082
vt 0.8720703 0.5039065
vt 0.9960937 0.5039065
vt 0.7480469 0.5039067
vt 0.5000001 0.33724
vt 0.2519532 0.1705735
vt 0.8720703 0.3372397
vt 0.9960937 0.3372397
vt 0.6240235 0.3372397
vt 0.7480469 0.33724
vt 0.3759768 0.1705733
vt 0.1279298 0.003907651
vt 0.003906369 0.08724198
vt 0.2519532 0.003906786
vt 0.3759766 0.003906786
vt 0.5000001 0.1705733
vt 0.5000001 0.003906667
vt 0.6240235 0.1705731
vt 0.6240234 0.003906548
vt 0.7480469 0.1705733
vt 0.7480469 0.003906667
vt 0.8720703 0.1705731
vt 0.8720702 0.003906429
vt 0.9960937 0.170573
vt 0.9960936 0.003906429
vn -0.01977622 0.2009056 -0.979411
vn -0.0391865 0.1970922 -0.9796015
vn -0.05169956 0.07739674 -0.9956591
vn -0.03814906 0.3875944 -0.9210404
vn -0.0756573 0.3804229 -0.9217128
vn -0.05502529 0.5589203 -0.8273937
vn -0.07690812 0.1856477 -0.979602
vn -0.05169956 0.07739674 -0.9956591
vn -0.1091972 0.5490075 -0.8286536
vn -0.06976711 0.7084139 -0.7023406
vn -0.1484151 0.3583571 -0.921712
vn -0.1385268 0.6965101 -0.7040483
vn -0.08179165 0.8305514 -0.5509033
vn -0.1116387 0.1670918 -0.9796005
vn -0.05169956 0.07739674 -0.9956591
vn -0.214214 0.5171472 -0.8286563
vn -0.1625746 0.8173287 -0.5527597
vn -0.09070399 0.9209569 -0.3789608
vn -0.2154969 0.3224976 -0.9217138
vn -0.2717489 0.6560855 -0.7040627
vn -0.1803984 0.906997 -0.3805426
vn -0.09616659 0.9764678 -0.1930351
vn -0.1420967 0.1420967 -0.9796005
vn -0.05169956 0.07739674 -0.9956591
vn -0.3109904 0.4654174 -0.8286566
vn -0.3188951 0.7699078 -0.5527638
vn -0.1913839 0.9621686 -0.1939169
vn -0.09753945 0.9904404 -0.09753945
vn -0.1941332 0.9760681 -0.09799745
vn -0.2742754 0.2742754 -0.9217082
vn -0.3945282 0.5904647 -0.7040589
vn -0.3538681 0.8543801 -0.3805417
vn -0.3754112 0.906346 -0.1939162
vn -0.3808519 0.9194282 -0.09799787
vn -0.4629725 0.6929023 -0.5527593
vn -0.3958047 0.3958047 -0.8286599
vn -0.1670918 0.1116387 -0.9796005
vn -0.05169956 0.07739674 -0.9956591
vn -0.5450153 0.8156919 -0.1939202
vn -0.5528891 0.827472 -0.09799773
vn -0.5137554 0.7689242 -0.3805404
vn -0.5021433 0.5021433 -0.7040627
vn -0.3224976 0.2154969 -0.9217138
vn -0.6936837 0.6936837 -0.1939226
vn -0.7037034 0.7037034 -0.09799599
vn -0.5892607 0.5892607 -0.5527599
vn -0.6539058 0.6539058 -0.3805448
vn -0.4654174 0.3109904 -0.8286566
vn -0.1780468 0.0951577 -0.9794102
vn -0.05169956 0.07739674 -0.9956591
vn -0.3434937 0.183573 -0.9210392
vn -0.4952927 0.2647522 -0.8274004
vn -0.5904647 0.3945282 -0.7040589
vn -0.6277841 0.3355609 -0.7023431
vn -0.6929023 0.4629725 -0.5527593
vn -0.736034 0.3933938 -0.5509039
vn -0.7689242 0.5137554 -0.3805404
vn -0.8161417 0.43624 -0.3789557
vn -0.8156919 0.5450153 -0.1939202
vn -0.8653409 0.4625182 -0.1930338
vn -0.827472 0.5528891 -0.09799773
vn -0.877723 0.4691362 -0.09753834
g Sphere_0
f 3/3/3 2/2/2 1/1/1
f 1/1/1 2/2/2 4/4/4
f 2/2/2 5/5/5 4/4/4
f 4/4/4 5/5/5 6/6/6
f 2/2/2 7/7/7 5/5/5
f 8/8/8 7/7/7 2/2/2
f 5/5/5 9/9/9 6/6/6
f 6/6/6 9/9/9 10/10/10
f 7/7/7 11/11/11 5/5/5
f 5/5/5 11/11/11 9/9/9
f 9/9/9 12/12/12 10/10/10
f 10/10/10 12/12/12 13/13/13
f 7/7/7 14/14/14 11/11/11
f 15/15/15 14/14/14 7/7/7
f 11/11/11 16/16/16 9/9/9
f 9/9/9 16/16/16 12/12/12
f 12/12/12 17/17/17 13/13/13
f 13/13/13 17/17/17 18/18/18
f 14/14/14 19/19/19 11/11/11
f 11/11/11 19/19/19 16/16/16
f 16/16/16 20/20/20 12/12/12
f 12/12/12 20/20/20 17/17/17
f 17/17/17 21/21/21 18/18/18
f 18/18/18 21/21/21 22/22/22
f 14/14/14 23/23/23 19/19/19
f 24/24/24 23/23/23 14/14/14
f 19/19/19 25/25/25 16/16/16
f 16/16/16 25/25/25 20/20/20
f 20/20/20 26/26/26 17/17/17
f 17/17/17 26/26/26 21/21/21
f 21/21/21 27/27/27 22/22/22
f 22/22/22 27/27/27 28/28/28
f 27/27/27 29/29/29 28/28/28
f 23/23/23 30/30/30 19/19/19
f 19/19/19 30/30/30 25/25/25
f 25/25/25 31/31/31 20/20/20
f 20/20/20 31/31/31 26/26/26
f 26/26/26 32/32/32 21/21/21
f 21/21/21 32/32/32 27/27/27
f 27/27/27 33/33/33 29/29/29
f 32/32/32 33/33/33 27/27/27
f 33/33/33 34/34/34 29/29/29
f 26/26/26 35/35/35 32/32/32
f 31/31/31 35/35/35 26/26/26
f 25/25/25 36/36/36 31/31/31
f 30/30/30 36/36/36 25/25/25
f 23/23/23 37/37/37 30/30/30
f 38/38/38 37/37/37 23/23/23
f 33/33/33 39/39/39 34/34/34
f 39/39/39 40/40/40 34/34/34
f 32/32/32 41/41/41 33/33/33
f 35/35/35 41/41/41 32/32/32
f 41/41/41 39/39/39 33/33/33
f 31/31/31 42/42/42 35/35/35
f 36/36/36 42/42/42 31/31/31
f 30/30/30 43/43/43 36/36/36
f 37/37/37 43/43/43 30/30/30
f 39/39/39 44/44/44 40/40/40
f 44/44/44 45/45/45 40/40/40
f 35/35/35 46/46/46 41/41/41
f 42/42/42 46/46/46 35/35/35
f 41/41/41 47/47/47 39/39/39
f 47/47/47 44/44/44 39/39/39
f 46/46/46 47/47/47 41/41/41
f 36/36/36 48/48/48 42/42/42
f 43/43/43 48/48/48 36/36/36
f 37/37/37 49/49/49 43/43/43
f 50/50/50 49/49/49 37/37/37
f 49/49/49 51/51/51 43/43/43
f 43/43/43 51/51/51 48/48/48
f 51/51/51 52/52/52 48/48/48
f 48/48/48 53/53/53 42/42/42
f 48/48/48 52/52/52 53/53/53
f 42/42/42 53/53/53 46/46/46
f 52/52/52 54/54/54 53/53/53
f 53/53/53 55/55/55 46/46/46
f 53/53/53 54/54/54 55/55/55
f 46/46/46 55/55/55 47/47/47
f 54/54/54 56/56/56 55/55/55
f 55/55/55 57/57/57 47/47/47
f 55/55/55 56/56/56 57/57/57
f 47/47/47 57/57/57 44/44/44
f 56/56/56 58/58/58 57/57/57
f 57/57/57 59/59/59 44/44/44
f 57/57/57 58/58/58 59/59/59
f 44/44/44 59/59/59 45/45/45
f 58/58/58 60/60/60 59/59/59
f 59/59/59 61/61/61 45/45/45
f 59/59/59 60/60/60 61/61/61
f 60/60/60 62/62/62 61/61/61
