g Sphere
v -0.1464465 0.3535529 0.08441286
v -0.07465772 0.3753298 0.08441286
v -0.1083862 0.5448945 0.1768228
v -0.2126073 0.5132794 0.1768228
v 0 0.5555702 0.1768228
v -0.2126074 0.3181892 0.08441286
v -0.3086581 0.4619393 0.1768228
v 7.846966E-08 0.3826829 0.08441286
v 0.1083864 0.5448951 0.1768228
v -0.2705979 0.2705976 0.08441286
v -0.3928472 0.3928471 0.1768228
v 0.07465787 0.3753301 0.08441286
v 0.2126076 0.5132799 0.1768228
v -0.3181894 0.2126072 0.08441286
v -0.4619395 0.3086579 0.1768228
v 0.1464467 0.3535532 0.08441286
v 0.3086584 0.4619396 0.1768228
v -0.3535532 0.1464463 0.08441286
v -0.5132797 0.2126072 0.1768228
v 0.2126076 0.3181895 0.08441286
v 0.3928477 0.3928473 0.1768228
v -0.3753301 0.07465754 0.08441286
v -0.5448949 0.1083861 0.1768228
v 0.2705982 0.2705979 0.08441286
v 0.4619399 0.3086581 0.1768228
v -0.3826832 -2.521301E-07 0.08441286
v -0.5555701 -2.595807E-07 0.1768228
v 0.3181898 0.2126073 0.08441286
v 0.5132802 0.2126073 0.1768228
v -0.3753301 -0.07465806 0.08441286
v -0.544895 -0.1083866 0.1768228
v 0.3535535 0.1464464 0.08441286
v 0.5448953 0.1083861 0.1768228
v -0.3535533 -0.1464468 0.08441286
v -0.5132799 -0.2126077 0.1768228
v 0.3753304 0.07465756 0.08441286
v 0.5555704 -3.415371E-07 0.1768228
v -0.3181896 -0.2126077 0.08441286
v -0.4619397 -0.3086585 0.1768228
v 0.3826835 -3.042842E-07 0.08441286
v 0.5448952 -0.1083867 0.1768228
v -0.270598 -0.2705983 0.08441286
v -0.3928474 -0.3928477 0.1768228
v 0.3753304 -0.07465816 0.08441286
v 0.51328 -0.2126079 0.1768228
v -0.2126075 -0.3181899 0.08441286
v -0.3086582 -0.46194 0.1768228
v 0.3535535 -0.146447 0.08441286
v 0.4619398 -0.3086587 0.1768228
v -0.1464466 -0.3535536 0.08441286
v -0.2126075 -0.5132802 0.1768228
v 0.3181897 -0.2126079 0.08441286
v 0.3928475 -0.3928478 0.1768228
v -0.07465782 -0.3753305 0.08441286
v -0.1083864 -0.5448954 0.1768228
v 0.2705981 -0.2705984 0.08441286
v 0.3086583 -0.4619401 0.1768228
v 3.963855E-09 -0.3826837 0.08441286
v -1.093731E-08 -0.5555705 0.1768228
v 0.2126075 -0.31819 0.08441286
v 0.2126075 -0.5132803 0.1768228
v 0.07465784 -0.3753306 0.08441286
v 0.1083864 -0.5448954 0.1768228
v 0.1464466 -0.3535537 0.08441286
v -0.03806023 -0.191342 0.02750717
v 3.963855E-09 -0.1950906 0.02750717
v 0 -3.258414E-07 0
v -0.07465782 -0.1802402 0.02750717
v 0.03806024 -0.191342 0.02750717
v -0.1083863 -0.162212 0.02750717
v 0.07465785 -0.1802403 0.02750717
v -0.1379496 -0.13795 0.02750717
v 0.1083864 -0.162212 0.02750717
v -0.1622116 -0.1083867 0.02750717
v 0.1379497 -0.13795 0.02750717
v -0.1802399 -0.07465812 0.02750717
v 0.1622117 -0.1083867 0.02750717
v -0.1913416 -0.03806053 0.02750717
v 0.18024 -0.07465816 0.02750717
v -0.1950902 -3.154601E-07 0.02750717
v 0.1913418 -0.03806055 0.02750717
v -0.1913416 0.0380599 0.02750717
v 0.1950904 -3.080095E-07 0.02750717
v -0.1802399 0.07465748 0.02750717
v 0.1913418 0.03805993 0.02750717
v -0.1622116 0.108386 0.02750717
v 0.18024 0.07465755 0.02750717
v -0.1379496 0.1379493 0.02750717
v 0.1622117 0.1083861 0.02750717
v -0.1083863 0.1622113 0.02750717
v 0.1379497 0.1379494 0.02750717
v -0.07465779 0.1802396 0.02750717
v 0.1083864 0.1622114 0.02750717
v -0.0380602 0.1913413 0.02750717
v 0.07465786 0.1802397 0.02750717
v 1.513973E-08 0.1950899 0.02750717
v 0.03806025 0.1913415 0.02750717
vt 0.814545 0.5960183
vt 0.7898026 0.655578
vt 0.9429116 0.7376441
vt 0.9806285 0.6465454
vt 0.8880681 0.8196999
vt 0.8271809 0.5327863
vt 0.9998313 0.5499177
vt 0.7538921 0.7091551
vt 0.8180325 0.8892401
vt 0.8272371 0.4683223
vt 0.9998313 0.4514655
vt 0.7081916 0.7546565
vt 0.7358447 0.9437006
vt 0.8147243 0.4051013
vt 0.980663 0.3549489
vt 0.6544863 0.7903469
vt 0.6446873 0.9810484
vt 0.7901314 0.3455452
vt 0.9430824 0.264046
vt 0.5948562 0.8148607
vt 0.5480644 0.9999001
vt 0.7544086 0.2919282
vt 0.8885382 0.1822165
vt 0.5316053 0.8272699
vt 0.4496719 0.9995713
vt 0.7089267 0.2463041
vt 0.8191187 0.1125755
vt 0.467164 0.8271096
vt 0.3532632 0.9801006
vt 0.6554261 0.2104139
vt 0.7374718 0.05777547
vt 0.4040017 0.8143955
vt 0.2625105 0.9422474
vt 0.595954 0.1856315
vt 0.6467082 0.01990888
vt 0.344535 0.7896214
vt 0.1808688 0.8874635
vt 0.5327864 0.1729137
vt 0.5502849 0.0004301754
vt 0.2910376 0.7537386
vt 0.1114477 0.8178391
vt 0.4683381 0.1727525
vt 0.451876 9.997657E-05
vt 0.2455551 0.7081207
vt 0.05689586 0.7360242
vt 0.4050809 0.1851642
vt 0.3552374 0.01895697
vt 0.2098288 0.6545109
vt 0.01930205 0.6451316
vt 0.3454461 0.2096844
vt 0.2640675 0.05631577
vt 0.1852302 0.5949576
vt 0.0001171851 0.5486199
vt 0.2917356 0.2453825
vt 0.1818716 0.1107914
vt 0.1727087 0.5317382
vt 9.997657E-05 0.4501665
vt 0.246034 0.2908918
vt 0.1118341 0.1803485
vt 0.1727557 0.467274
vt 0.01928776 0.3535316
vt 0.2101228 0.3444766
vt 0.05699442 0.2624204
vt 0.1853836 0.4040407
vt 0.3970734 0.3744119
vt 0.3745484 0.3968885
vt 0.4999575 0.500087
vt 0.4235545 0.3567643
vt 0.356845 0.4233317
vt 0.4529721 0.3446223
vt 0.3446442 0.452724
vt 0.484195 0.3384514
vt 0.3384147 0.4839336
vt 0.5160229 0.3384868
vt 0.338395 0.5157595
vt 0.5472333 0.3447258
vt 0.3445845 0.5469778
vt 0.576609 0.3569634
vt 0.356744 0.5763887
vt 0.603066 0.3746647
vt 0.3744054 0.6028629
vt 0.6255642 0.3971812
vt 0.3968899 0.6253842
vt 0.6432049 0.4236673
vt 0.4233341 0.6430884
vt 0.6553835 0.4530759
vt 0.4527227 0.6552956
vt 0.6615534 0.4842937
vt 0.4839278 0.6615365
vt 0.6615152 0.5161164
vt 0.515751 0.6615704
vt 0.6552667 0.5473202
vt 0.5469699 0.6553941
vt 0.6430815 0.5767229
vt 0.5763884 0.643284
vt 0.6253935 0.6031746
vt 0.6028591 0.6256269
vn -0.1484151 0.3583571 -0.921712
vn -0.0756573 0.3804229 -0.9217128
vn -0.09195523 0.4623398 -0.8819218
vn -0.1804005 0.4355127 -0.8819209
vn 0 0.4714023 -0.8819184
vn -0.2154969 0.3224976 -0.9217138
vn -0.2618871 0.3919608 -0.8819194
vn 0 0.38787 -0.9217141
vn 0.09195523 0.4623398 -0.8819218
vn -0.2742754 0.2742754 -0.9217082
vn -0.3333324 0.3333324 -0.8819178
vn 0.0756573 0.3804229 -0.9217128
vn 0.1804005 0.4355127 -0.8819209
vn -0.3224976 0.2154969 -0.9217138
vn -0.3919608 0.2618871 -0.8819194
vn 0.1484151 0.3583571 -0.921712
vn 0.2618871 0.3919608 -0.8819194
vn -0.3583571 0.1484151 -0.921712
vn -0.4355127 0.1804005 -0.8819209
vn 0.2154969 0.3224976 -0.9217138
vn 0.3333324 0.3333324 -0.8819178
vn -0.3804229 0.0756573 -0.9217128
vn -0.4623398 0.09195523 -0.8819218
vn 0.2742754 0.2742754 -0.9217082
vn 0.3919608 0.2618871 -0.8819194
vn -0.38787 0 -0.9217141
vn -0.4714023 0 -0.8819184
vn 0.3224976 0.2154969 -0.9217138
vn 0.4355127 0.1804005 -0.8819209
vn -0.3804229 -0.0756573 -0.9217128
vn -0.4623398 -0.09195523 -0.8819218
vn 0.3583571 0.1484151 -0.921712
vn 0.4623398 0.09195523 -0.8819218
vn -0.3583571 -0.1484151 -0.921712
vn -0.4355127 -0.1804005 -0.8819209
vn 0.3804229 0.0756573 -0.9217128
vn 0.4714023 0 -0.8819184
vn -0.3224976 -0.2154969 -0.9217138
vn -0.3919608 -0.2618871 -0.8819194
vn 0.38787 0 -0.9217141
vn 0.4623398 -0.09195523 -0.8819218
vn -0.2742754 -0.2742754 -0.9217082
vn -0.3333324 -0.3333324 -0.8819178
vn 0.3804229 -0.0756573 -0.9217128
vn 0.4355127 -0.1804005 -0.8819209
vn -0.2154969 -0.3224976 -0.9217138
vn -0.2618871 -0.3919608 -0.8819194
vn 0.3583571 -0.1484151 -0.921712
vn 0.3919608 -0.2618871 -0.8819194
vn -0.1484151 -0.3583571 -0.921712
vn -0.1804005 -0.4355127 -0.8819209
vn 0.3224976 -0.2154969 -0.9217138
vn 0.3333324 -0.3333324 -0.8819178
vn -0.0756573 -0.3804229 -0.9217128
vn -0.09195523 -0.4623398 -0.8819218
vn 0.2742754 -0.2742754 -0.9217082
vn 0.2618871 -0.3919608 -0.8819194
vn 0 -0.38787 -0.9217141
vn 0 -0.4714023 -0.8819184
vn 0.2154969 -0.3224976 -0.9217138
vn 0.1804005 -0.4355127 -0.8819209
vn 0.0756573 -0.3804229 -0.9217128
vn 0.09195523 -0.4623398 -0.8819218
vn 0.1484151 -0.3583571 -0.921712
vn -0.04294069 -0.2159547 -0.9754587
vn 0 -0.2201672 -0.9754622
vn 0 0 -1
vn -0.08423372 -0.2034122 -0.975463
vn 0.04294069 -0.2159547 -0.9754587
vn -0.122322 -0.1830557 -0.9754629
vn 0.08423372 -0.2034122 -0.975463
vn -0.1556797 -0.1556797 -0.9754627
vn 0.122322 -0.1830557 -0.9754629
vn -0.1830557 -0.122322 -0.9754629
vn 0.1556797 -0.1556797 -0.9754627
vn -0.2034122 -0.08423372 -0.975463
vn 0.1830557 -0.122322 -0.9754629
vn -0.2159547 -0.04294069 -0.9754587
vn 0.2034122 -0.08423372 -0.975463
vn -0.2201672 0 -0.9754622
vn 0.2159547 -0.04294069 -0.9754587
vn -0.2159547 0.04294069 -0.9754587
vn 0.2201672 0 -0.9754622
vn -0.2034122 0.08423372 -0.975463
vn 0.2159547 0.04294069 -0.9754587
vn -0.1830557 0.122322 -0.9754629
vn 0.2034122 0.08423372 -0.975463
vn -0.1556797 0.1556797 -0.9754627
vn 0.1830557 0.122322 -0.9754629
vn -0.122322 0.1830557 -0.9754629
vn 0.1556797 0.1556797 -0.9754627
vn -0.08423372 0.2034122 -0.975463
vn 0.122322 0.1830557 -0.9754629
vn -0.04294069 0.2159547 -0.9754587
vn 0.08423372 0.2034122 -0.975463
vn 0 0.2201672 -0.9754622
vn 0.04294069 0.2159547 -0.9754587
g Sphere_0
f 3/3/3 2/2/2 1/1/1
f 4/4/4 3/3/3 1/1/1
f 3/3/3 5/5/5 2/2/2
f 4/4/4 1/1/1 6/6/6
f 7/7/7 4/4/4 6/6/6
f 5/5/5 8/8/8 2/2/2
f 5/5/5 9/9/9 8/8/8
f 7/7/7 6/6/6 10/10/10
f 11/11/11 7/7/7 10/10/10
f 9/9/9 12/12/12 8/8/8
f 9/9/9 13/13/13 12/12/12
f 11/11/11 10/10/10 14/14/14
f 15/15/15 11/11/11 14/14/14
f 13/13/13 16/16/16 12/12/12
f 13/13/13 17/17/17 16/16/16
f 15/15/15 14/14/14 18/18/18
f 19/19/19 15/15/15 18/18/18
f 17/17/17 20/20/20 16/16/16
f 17/17/17 21/21/21 20/20/20
f 19/19/19 18/18/18 22/22/22
f 23/23/23 19/19/19 22/22/22
f 21/21/21 24/24/24 20/20/20
f 21/21/21 25/25/25 24/24/24
f 23/23/23 22/22/22 26/26/26
f 27/27/27 23/23/23 26/26/26
f 25/25/25 28/28/28 24/24/24
f 25/25/25 29/29/29 28/28/28
f 27/27/27 26/26/26 30/30/30
f 31/31/31 27/27/27 30/30/30
f 29/29/29 32/32/32 28/28/28
f 29/29/29 33/33/33 32/32/32
f 31/31/31 30/30/30 34/34/34
f 35/35/35 31/31/31 34/34/34
f 33/33/33 36/36/36 32/32/32
f 33/33/33 37/37/37 36/36/36
f 35/35/35 34/34/34 38/38/38
f 39/39/39 35/35/35 38/38/38
f 37/37/37 40/40/40 36/36/36
f 37/37/37 41/41/41 40/40/40
f 39/39/39 38/38/38 42/42/42
f 43/43/43 39/39/39 42/42/42
f 41/41/41 44/44/44 40/40/40
f 41/41/41 45/45/45 44/44/44
f 43/43/43 42/42/42 46/46/46
f 47/47/47 43/43/43 46/46/46
f 45/45/45 48/48/48 44/44/44
f 45/45/45 49/49/49 48/48/48
f 47/47/47 46/46/46 50/50/50
f 51/51/51 47/47/47 50/50/50
f 49/49/49 52/52/52 48/48/48
f 49/49/49 53/53/53 52/52/52
f 51/51/51 50/50/50 54/54/54
f 55/55/55 51/51/51 54/54/54
f 53/53/53 56/56/56 52/52/52
f 53/53/53 57/57/57 56/56/56
f 55/55/55 54/54/54 58/58/58
f 59/59/59 55/55/55 58/58/58
f 57/57/57 60/60/60 56/56/56
f 57/57/57 61/61/61 60/60/60
f 59/59/59 58/58/58 62/62/62
f 63/63/63 59/59/59 62/62/62
f 61/61/61 63/63/63 64/64/64
f 61/61/61 64/64/64 60/60/60
f 63/63/63 62/62/62 64/64/64
f 54/54/54 50/50/50 65/65/65
f 58/58/58 54/54/54 66/66/66
f 54/54/54 65/65/65 66/66/66
f 66/66/66 65/65/65 67/67/67
f 50/50/50 68/68/68 65/65/65
f 65/65/65 68/68/68 67/67/67
f 50/50/50 46/46/46 68/68/68
f 58/58/58 66/66/66 69/69/69
f 62/62/62 58/58/58 69/69/69
f 69/69/69 66/66/66 67/67/67
f 46/46/46 70/70/70 68/68/68
f 68/68/68 70/70/70 67/67/67
f 46/46/46 42/42/42 70/70/70
f 62/62/62 69/69/69 71/71/71
f 64/64/64 62/62/62 71/71/71
f 71/71/71 69/69/69 67/67/67
f 42/42/42 72/72/72 70/70/70
f 70/70/70 72/72/72 67/67/67
f 42/42/42 38/38/38 72/72/72
f 64/64/64 71/71/71 73/73/73
f 73/73/73 71/71/71 67/67/67
f 72/72/72 74/74/74 67/67/67
f 38/38/38 74/74/74 72/72/72
f 75/75/75 73/73/73 67/67/67
f 60/60/60 64/64/64 73/73/73
f 60/60/60 73/73/73 75/75/75
f 38/38/38 34/34/34 74/74/74
f 56/56/56 60/60/60 75/75/75
f 34/34/34 76/76/76 74/74/74
f 74/74/74 76/76/76 67/67/67
f 34/34/34 30/30/30 76/76/76
f 56/56/56 75/75/75 77/77/77
f 77/77/77 75/75/75 67/67/67
f 52/52/52 56/56/56 77/77/77
f 30/30/30 78/78/78 76/76/76
f 76/76/76 78/78/78 67/67/67
f 30/30/30 26/26/26 78/78/78
f 52/52/52 77/77/77 79/79/79
f 79/79/79 77/77/77 67/67/67
f 48/48/48 52/52/52 79/79/79
f 26/26/26 80/80/80 78/78/78
f 78/78/78 80/80/80 67/67/67
f 26/26/26 22/22/22 80/80/80
f 48/48/48 79/79/79 81/81/81
f 81/81/81 79/79/79 67/67/67
f 80/80/80 82/82/82 67/67/67
f 22/22/22 82/82/82 80/80/80
f 83/83/83 81/81/81 67/67/67
f 44/44/44 48/48/48 81/81/81
f 44/44/44 81/81/81 83/83/83
f 22/22/22 18/18/18 82/82/82
f 40/40/40 44/44/44 83/83/83
f 18/18/18 84/84/84 82/82/82
f 82/82/82 84/84/84 67/67/67
f 18/18/18 14/14/14 84/84/84
f 40/40/40 83/83/83 85/85/85
f 85/85/85 83/83/83 67/67/67
f 36/36/36 40/40/40 85/85/85
f 14/14/14 86/86/86 84/84/84
f 84/84/84 86/86/86 67/67/67
f 14/14/14 10/10/10 86/86/86
f 36/36/36 85/85/85 87/87/87
f 87/87/87 85/85/85 67/67/67
f 32/32/32 36/36/36 87/87/87
f 10/10/10 88/88/88 86/86/86
f 86/86/86 88/88/88 67/67/67
f 10/10/10 6/6/6 88/88/88
f 32/32/32 87/87/87 89/89/89
f 89/89/89 87/87/87 67/67/67
f 88/88/88 90/90/90 67/67/67
f 6/6/6 90/90/90 88/88/88
f 91/91/91 89/89/89 67/67/67
f 28/28/28 32/32/32 89/89/89
f 28/28/28 89/89/89 91/91/91
f 6/6/6 1/1/1 90/90/90
f 24/24/24 28/28/28 91/91/91
f 1/1/1 92/92/92 90/90/90
f 90/90/90 92/92/92 67/67/67
f 1/1/1 2/2/2 92/92/92
f 24/24/24 91/91/91 93/93/93
f 93/93/93 91/91/91 67/67/67
f 20/20/20 24/24/24 93/93/93
f 2/2/2 94/94/94 92/92/92
f 92/92/92 94/94/94 67/67/67
f 2/2/2 8/8/8 94/94/94
f 20/20/20 93/93/93 95/95/95
f 95/95/95 93/93/93 67/67/67
f 16/16/16 20/20/20 95/95/95
f 8/8/8 96/96/96 94/94/94
f 94/94/94 96/96/96 67/67/67
f 8/8/8 12/12/12 96/96/96
f 16/16/16 95/95/95 97/97/97
f 97/97/97 95/95/95 67/67/67
f 96/96/96 97/97/97 67/67/67
f 12/12/12 97/97/97 96/96/96
f 12/12/12 16/16/16 97/97/97
