g Trigger
v 0.001415115 -0.03348216 -0.009431876
v -0.001397785 -0.02945034 -0.005025001
v -0.001397785 -0.03348216 -0.009431876
v 0.001415115 -0.02945034 -0.005025001
v -0.001397785 -0.02945034 -0.005025001
v 0.001415115 -0.03348216 -0.009431876
v -0.001585312 0.01447777 -0.009244351
v 0.001602642 -0.008494243 -0.009244351
v 0.001602642 0.01447777 -0.009244351
v -0.001585312 -0.008494243 -0.009244351
v -0.001585312 0.01447777 0.007304873
v -0.001585312 -0.008494243 -0.009244351
v -0.001585312 0.01447777 -0.009244351
v -0.001585312 -0.008494243 0.007304873
v -0.001585312 -0.01224478 -0.00179017
v -0.001585312 -0.01224478 0.005335845
v -0.001585312 -0.01477638 -0.0005243644
v -0.001585312 -0.01477638 0.005242079
v -0.001585312 -0.0190895 -0.0001024269
v -0.001585312 -0.0190895 0.005101435
v -0.001585312 -0.02335573 -0.0008525364
v -0.001585312 -0.02335573 0.003929395
v -0.001397785 -0.02945034 -0.005025001
v -0.001397785 -0.02945034 -0.0008525364
v -0.001397785 -0.03348216 -0.009431876
v -0.001397785 -0.03348216 -0.006150162
v 0.001602642 0.01447777 0.007304873
v -0.001585312 -0.008494243 0.007304873
v -0.001585312 0.01447777 0.007304873
v 0.001602642 -0.008494243 0.007304873
v 0.001602642 0.01447777 -0.009244351
v 0.001602642 -0.008494243 0.007304873
v 0.001602642 0.01447777 0.007304873
v 0.001602642 -0.008494243 -0.009244351
v 0.001602642 -0.01224478 0.005335845
v 0.001602642 -0.01224478 -0.00179017
v 0.001602642 -0.01477638 0.005242079
v 0.001602642 -0.01477638 -0.0005243644
v 0.001602642 -0.0190895 0.005101435
v 0.001602642 -0.0190895 -0.0001024269
v 0.001602642 -0.02335573 0.003929395
v 0.001602642 -0.02335573 -0.0008525364
v 0.001415115 -0.02945034 -0.0008525364
v 0.001415115 -0.02945034 -0.005025001
v 0.001415115 -0.03348216 -0.006150162
v 0.001415115 -0.03348216 -0.009431876
v -0.001397785 -0.03348216 -0.009431876
v 0.001415115 -0.03348216 -0.006150162
v 0.001415115 -0.03348216 -0.009431876
v -0.001397785 -0.03348216 -0.006150162
v -0.001585312 -0.01224478 0.005335845
v 0.001602642 -0.008494243 0.007304873
v 0.001602642 -0.01224478 0.005335845
v -0.001585312 -0.008494243 0.007304873
v 0.001602642 -0.01224478 -0.00179017
v -0.001585312 -0.008494243 -0.009244351
v -0.001585312 -0.01224478 -0.00179017
v 0.001602642 -0.008494243 -0.009244351
v 0.001602642 -0.01477638 -0.0005243644
v -0.001585312 -0.01224478 -0.00179017
v -0.001585312 -0.01477638 -0.0005243644
v 0.001602642 -0.01224478 -0.00179017
v -0.001585312 -0.0190895 0.005101435
v 0.001602642 -0.01477638 0.005242079
v 0.001602642 -0.0190895 0.005101435
v -0.001585312 -0.01477638 0.005242079
v 0.001602642 -0.01224478 0.005335845
v -0.001585312 -0.01224478 0.005335845
v 0.001602642 -0.0190895 -0.0001024269
v -0.001585312 -0.01477638 -0.0005243644
v -0.001585312 -0.0190895 -0.0001024269
v 0.001602642 -0.01477638 -0.0005243644
v -0.001585312 -0.02335573 0.003929395
v 0.001602642 -0.0190895 0.005101435
v 0.001602642 -0.02335573 0.003929395
v -0.001585312 -0.0190895 0.005101435
v 0.001602642 -0.02335573 -0.0008525364
v -0.001585312 -0.0190895 -0.0001024269
v -0.001585312 -0.02335573 -0.0008525364
v 0.001602642 -0.0190895 -0.0001024269
v -0.001397785 -0.02945034 -0.0008525364
v 0.001602642 -0.02335573 0.003929395
v 0.001415115 -0.02945034 -0.0008525364
v -0.001585312 -0.02335573 0.003929395
v 0.001415115 -0.02945034 -0.005025001
v -0.001585312 -0.02335573 -0.0008525364
v -0.001397785 -0.02945034 -0.005025001
v 0.001602642 -0.02335573 -0.0008525364
v -0.001397785 -0.03348216 -0.006150162
v 0.001415115 -0.02945034 -0.0008525364
v 0.001415115 -0.03348216 -0.006150162
v -0.001397785 -0.02945034 -0.0008525364
vt 0.8551455 0.8786392
vt 0.8547183 0.878212
vt 0.8547183 0.8786392
vt 0.8572813 0.9123846
vt 0.8577085 0.9123846
vt 0.8572813 0.9115303
vt 0.8841922 0.9247722
vt 0.883765 0.9222093
vt 0.883765 0.9247722
vt 0.8841922 0.9222093
vt 0.8999971 0.9636436
vt 0.8978612 0.9606534
vt 0.8978612 0.9636436
vt 0.8999971 0.9606534
vt 0.8987156 0.9602263
vt 0.8995699 0.9602263
vt 0.8987156 0.9602263
vt 0.8995699 0.9602263
vt 0.8987156 0.959372
vt 0.8995699 0.959372
vt 0.8987156 0.9589448
vt 0.8995699 0.9589448
vt 0.8982884 0.9580905
vt 0.8987156 0.9580905
vt 0.8978612 0.9576634
vt 0.8982884 0.9576634
vt 0.8901724 0.9358783
vt 0.8897452 0.9328882
vt 0.8897452 0.9358783
vt 0.8901724 0.9328882
vt 0.8679602 0.8829107
vt 0.8658244 0.8803478
vt 0.8658244 0.8829107
vt 0.8679602 0.8803478
vt 0.8658244 0.8799207
vt 0.8666787 0.8799207
vt 0.8658244 0.8794935
vt 0.8666787 0.8794935
vt 0.8658244 0.8790663
vt 0.8666787 0.8790663
vt 0.8662516 0.878212
vt 0.8666787 0.878212
vt 0.8666787 0.8777848
vt 0.8671059 0.8777848
vt 0.8675331 0.8769305
vt 0.8679602 0.8769305
vt 0.9140933 0.9615078
vt 0.9140933 0.9619349
vt 0.9140933 0.9615078
vt 0.9140933 0.9619349
vt 0.8897452 0.932461
vt 0.8901724 0.9328882
vt 0.8901724 0.932461
vt 0.8897452 0.9328882
vt 0.8572813 0.9145204
vt 0.8577085 0.9149476
vt 0.8577085 0.9145204
vt 0.8572813 0.9149476
vt 0.8572813 0.9140933
vt 0.8577085 0.9145204
vt 0.8577085 0.9140933
vt 0.8572813 0.9145204
vt 0.8897452 0.9316067
vt 0.8901724 0.9320339
vt 0.8901724 0.9316067
vt 0.8897452 0.9320339
vt 0.8901724 0.932461
vt 0.8897452 0.932461
vt 0.8572813 0.9136661
vt 0.8577085 0.9140933
vt 0.8577085 0.9136661
vt 0.8572813 0.9140933
vt 0.8897452 0.9311796
vt 0.8901724 0.9316067
vt 0.8901724 0.9311796
vt 0.8897452 0.9316067
vt 0.8572813 0.9128118
vt 0.8577085 0.9136661
vt 0.8577085 0.9128118
vt 0.8572813 0.9136661
vt 0.8897452 0.9303253
vt 0.8901724 0.9311796
vt 0.8901724 0.9303253
vt 0.8897452 0.9311796
vt 0.8572813 0.9123846
vt 0.8577085 0.9128118
vt 0.8577085 0.9123846
vt 0.8572813 0.9128118
vt 0.9140933 0.9619349
vt 0.9140933 0.9627892
vt 0.9140933 0.9619349
vt 0.9140933 0.9627892
vn -0.01587105 0.7459378 -0.6658264
vn -0.01587105 0.7459378 -0.6658264
vn -0.01587105 0.7459378 -0.6658264
vn -0.01587105 0.7459378 -0.6658264
vn -0.01587105 0.7459378 -0.6658264
vn -0.01587105 0.7459378 -0.6658264
vn -0.01587105 0.01587105 -0.9997481
vn -0.01587105 0.01587105 -0.9997481
vn -0.01587105 0.01587105 -0.9997481
vn -0.01587105 0.01587105 -0.9997481
vn -0.999874 0.01587105 -0.0003439156
vn -0.999874 0.01587105 -0.0003439156
vn -0.999874 0.01587105 -0.0003439156
vn -0.999874 0.01587105 -0.0003439156
vn -0.999874 0.01587105 -0.0003439156
vn -0.999874 0.01587105 -0.0003439156
vn -0.999874 0.01587105 -0.0003439156
vn -0.999874 0.01587105 -0.0003439156
vn -0.999874 0.01587105 -0.0003439156
vn -0.999874 0.01587105 -0.0003439156
vn -0.999874 0.01587105 -0.0003439156
vn -0.999874 0.01587105 -0.0003439156
vn -0.999874 -0.01587099 -0.000346655
vn -0.999874 -0.01587099 -0.000346655
vn -0.999874 0.01587105 -0.0003439156
vn -0.999874 0.01587105 -0.0003439156
vn -0.01587105 0.01587105 0.9997481
vn -0.01587105 0.01587105 0.9997481
vn -0.01587105 0.01587105 0.9997481
vn -0.01587105 0.01587105 0.9997481
vn 0.999874 0.01587105 -0.0003439156
vn 0.999874 0.01587105 -0.0003439156
vn 0.999874 0.01587105 -0.0003439156
vn 0.999874 0.01587105 -0.0003439156
vn 0.999874 0.01587105 -0.0003439156
vn 0.999874 0.01587105 -0.0003439156
vn 0.999874 0.01587105 -0.0003439156
vn 0.999874 0.01587105 -0.0003439156
vn 0.999874 0.01587105 -0.0003439156
vn 0.999874 0.01587105 -0.0003439156
vn 0.999874 0.01587105 -0.0003439156
vn 0.999874 0.01587105 -0.0003439156
vn 0.999874 -0.01587099 -0.000346655
vn 0.999874 -0.01587099 -0.000346655
vn 0.999874 0.01587105 -0.0003439156
vn 0.999874 0.01587105 -0.0003439156
vn -0.01587105 -0.999874 -0.000345267
vn -0.01587105 -0.999874 -0.000345267
vn -0.01587105 -0.999874 -0.000345267
vn -0.01587105 -0.999874 -0.000345267
vn -0.01587105 -0.4602594 0.8876426
vn -0.01587105 -0.4602594 0.8876426
vn -0.01587105 -0.4602594 0.8876426
vn -0.01587105 -0.4602594 0.8876426
vn -0.01587105 -0.9046479 -0.4258642
vn -0.01587105 -0.9046479 -0.4258642
vn -0.01587105 -0.9046479 -0.4258642
vn -0.01587105 -0.9046479 -0.4258642
vn -0.01587105 -0.4602594 -0.8876426
vn -0.01587105 -0.4602594 -0.8876426
vn -0.01587105 -0.4602594 -0.8876426
vn -0.01587105 -0.4602594 -0.8876426
vn -0.01587105 -0.04761302 0.9987398
vn -0.01587105 -0.01587099 0.9997481
vn -0.01587105 -0.04761302 0.9987398
vn -0.01587105 -0.01587099 0.9997481
vn -0.01587105 -0.01587099 0.9997481
vn -0.01587105 -0.01587099 0.9997481
vn -0.01587105 -0.07935506 -0.9967201
vn -0.01587105 -0.07935506 -0.9967201
vn -0.01587105 -0.07935506 -0.9967201
vn -0.01587105 -0.07935506 -0.9967201
vn -0.01587105 -0.2698073 0.9627835
vn -0.01587105 -0.2698073 0.9627835
vn -0.01587105 -0.2698073 0.9627835
vn -0.01587105 -0.2698073 0.9627835
vn -0.01587105 0.1745812 -0.9845148
vn -0.01587105 0.1745812 -0.9845148
vn -0.01587105 0.1745812 -0.9845148
vn -0.01587105 0.1745812 -0.9845148
vn -0.01587105 -0.6189696 0.7852545
vn -0.01587105 -0.6189696 0.7852545
vn -0.01587105 -0.6189696 0.7852545
vn -0.01587105 -0.6189696 0.7852545
vn -0.01587105 0.5554856 -0.8313747
vn -0.01587105 0.5554856 -0.8313747
vn -0.01587105 0.5554856 -0.8313747
vn -0.01587105 0.5554856 -0.8313747
vn -0.01587105 -0.8094218 0.5870132
vn -0.01587105 -0.8094218 0.5870132
vn -0.01587105 -0.8094218 0.5870132
vn -0.01587105 -0.8094218 0.5870132
g Trigger_0
f 3/3/3 2/2/2 1/1/1
f 6/6/6 5/5/5 4/4/4
f 9/9/9 8/8/8 7/7/7
f 7/7/7 8/8/8 10/10/10
f 13/13/13 12/12/12 11/11/11
f 11/11/11 12/12/12 14/14/14
f 15/15/15 14/14/14 12/12/12
f 16/16/16 14/14/14 15/15/15
f 17/17/17 16/16/16 15/15/15
f 18/18/18 16/16/16 17/17/17
f 19/19/19 18/18/18 17/17/17
f 20/20/20 18/18/18 19/19/19
f 21/21/21 20/20/20 19/19/19
f 22/22/22 20/20/20 21/21/21
f 23/23/23 22/22/22 21/21/21
f 24/24/24 22/22/22 23/23/23
f 25/25/25 24/24/24 23/23/23
f 26/26/26 24/24/24 25/25/25
f 29/29/29 28/28/28 27/27/27
f 27/27/27 28/28/28 30/30/30
f 33/33/33 32/32/32 31/31/31
f 31/31/31 32/32/32 34/34/34
f 35/35/35 34/34/34 32/32/32
f 36/36/36 34/34/34 35/35/35
f 37/37/37 36/36/36 35/35/35
f 38/38/38 36/36/36 37/37/37
f 39/39/39 38/38/38 37/37/37
f 40/40/40 38/38/38 39/39/39
f 41/41/41 40/40/40 39/39/39
f 42/42/42 40/40/40 41/41/41
f 43/43/43 42/42/42 41/41/41
f 44/44/44 42/42/42 43/43/43
f 45/45/45 44/44/44 43/43/43
f 46/46/46 44/44/44 45/45/45
f 49/49/49 48/48/48 47/47/47
f 47/47/47 48/48/48 50/50/50
f 53/53/53 52/52/52 51/51/51
f 51/51/51 52/52/52 54/54/54
f 57/57/57 56/56/56 55/55/55
f 55/55/55 56/56/56 58/58/58
f 61/61/61 60/60/60 59/59/59
f 59/59/59 60/60/60 62/62/62
f 65/65/65 64/64/64 63/63/63
f 63/63/63 64/64/64 66/66/66
f 64/64/64 67/67/67 66/66/66
f 66/66/66 67/67/67 68/68/68
f 71/71/71 70/70/70 69/69/69
f 69/69/69 70/70/70 72/72/72
f 75/75/75 74/74/74 73/73/73
f 73/73/73 74/74/74 76/76/76
f 79/79/79 78/78/78 77/77/77
f 77/77/77 78/78/78 80/80/80
f 83/83/83 82/82/82 81/81/81
f 81/81/81 82/82/82 84/84/84
f 87/87/87 86/86/86 85/85/85
f 85/85/85 86/86/86 88/88/88
f 91/91/91 90/90/90 89/89/89
f 89/89/89 90/90/90 92/92/92
