g Web_11
v 0.05229767 0.1302392 -0.007206545
v 0.00852539 0.2552338 -0.07254159
v 0.07481903 0.2329778 -0.0718132
v 0.005444336 0.1416458 -0.009174185
v 0.02982666 0.02772926 0.02489655
v -0.0472348 0.1544709 -0.01377078
v -0.07022491 0.2816715 -0.07264765
v 0.002502136 0.03316633 0.02413525
v 0.009554138 -0.06475044 0.0378507
v -0.02634796 0.03890709 0.0222361
v -0.0001449585 -0.06443062 0.0378507
v 0.01979919 -0.1355005 0.03024172
v -0.007716064 -0.06418087 0.0378507
v -0.002269287 -0.1427563 0.02878202
v 0.0286673 -0.2065031 -0.00168067
v -0.02728149 -0.1509801 0.02631596
v -0.004180298 -0.2229742 -0.006558551
v -0.04604126 -0.243965 -0.01476667
vt 0.276874 0.686705
vt 0.197866 0.912315
vt 0.317523 0.872144
vt 0.192305 0.707293
vt 0.236314 0.501679
vt 0.097222 0.730442
vt 0.055726 0.960034
vt 0.186995 0.511492
vt 0.199724 0.334757
vt 0.134922 0.521854
vt 0.182217 0.335334
vt 0.218215 0.207056
vt 0.168551 0.335785
vt 0.178383 0.193959
vt 0.234222 0.09651798
vt 0.133236 0.179116
vt 0.174933 0.06678802
vt 0.099376 0.02890098
vn 0.05851519 0.4325933 0.8996883
vn 0.1150405 0.476589 0.8715668
vn 0.1820859 0.5192352 0.8350087
vn 0.06416556 0.4311851 0.899979
vn 0.02303882 0.2497882 0.9680264
vn 0.003237099 0.4104452 0.9118795
vn 0.1597684 0.3971194 0.9037533
vn -0.03953598 0.2175513 0.9752479
vn 0.01084036 0.04096243 0.9991019
vn -0.02914517 0.265438 0.9636873
vn -0.02338666 0.03937646 0.9989507
vn 0.01315791 -0.3005216 0.9536843
vn 0.03345706 0.03520597 0.9988199
vn 0.06959744 -0.2618553 0.9625944
vn 0.06739775 -0.4022066 0.9130648
vn -0.02636283 -0.3548134 0.9345654
vn 0.04237381 -0.4060764 0.9128562
vn 0.02601851 -0.4141212 0.9098498
g Web_11_0
f 3/3/3 2/2/2 1/1/1
f 2/2/2 4/4/4 1/1/1
f 1/1/1 4/4/4 5/5/5
f 6/6/6 4/4/4 2/2/2
f 7/7/7 6/6/6 2/2/2
f 4/4/4 8/8/8 5/5/5
f 8/8/8 4/4/4 6/6/6
f 5/5/5 8/8/8 9/9/9
f 10/10/10 8/8/8 6/6/6
f 8/8/8 11/11/11 9/9/9
f 11/11/11 8/8/8 10/10/10
f 9/9/9 11/11/11 12/12/12
f 13/13/13 11/11/11 10/10/10
f 11/11/11 14/14/14 12/12/12
f 14/14/14 11/11/11 13/13/13
f 12/12/12 14/14/14 15/15/15
f 16/16/16 14/14/14 13/13/13
f 14/14/14 17/17/17 15/15/15
f 17/17/17 14/14/14 16/16/16
f 18/18/18 17/17/17 16/16/16
