g WebSphere
v 0.0003871314 0.001191469 0.01035944
v 0.001252784 -1.117587E-10 0.01035944
v 0.0003871317 -0.001191469 0.01035944
v -0.001013524 -0.0007363684 0.01035944
v -0.001013524 0.000736368 0.01035944
v 0.0003871317 -0.001191469 -0.01035944
v 0.001252784 -1.117587E-10 -0.01035944
v 0.0003871314 0.001191469 -0.01035944
v -0.001013524 -0.0007363684 -0.01035944
v -0.001013524 0.000736368 -0.01035944
v -0.002938926 -0.004045086 -0.008660254
v 0.0003871317 -0.001191469 -0.01035944
v -0.001013524 -0.0007363684 -0.01035944
v -0.004755283 -0.001545086 -0.008660254
v -0.005090369 -0.007006292 -0.005
v -0.008236391 -0.002676166 -0.005
v -0.005877852 -0.008090172 0
v -0.009510566 -0.003090171 0
v -0.008236391 -0.002676166 0.005
v -0.005090369 -0.007006292 0.005
v -0.004755283 -0.001545086 0.008660254
v 5.960464E-10 -0.01 0
v 2.980232E-10 -0.008660253 -0.005
v 2.980232E-10 -0.005 -0.008660254
v -0.002938926 -0.004045086 0.008660254
v -0.001013524 -0.0007363684 0.01035944
v 0.0003871317 -0.001191469 0.01035944
v 2.980232E-10 -0.008660253 0.005
v 0.002938927 -0.004045085 -0.008660254
v 0.001252784 -1.117587E-10 -0.01035944
v 0.005090369 -0.007006292 -0.005
v 0.005877853 -0.00809017 0
v 2.980232E-10 -0.005 0.008660254
v 0.005090369 -0.007006292 0.005
v 0.002938927 -0.004045085 0.008660254
v 0.001252784 -1.117587E-10 0.01035944
v 0.009510566 -0.00309017 0
v 0.008236391 -0.002676165 -0.005
v 0.008236391 -0.002676165 0.005
v 0.004755283 -0.001545085 0.008660254
v 0.009510566 0.00309017 0
v 0.004755283 -0.001545085 -0.008660254
v 0.004755283 0.001545085 0.008660254
v 0.0003871314 0.001191469 0.01035944
v 0.008236391 0.002676166 0.005
v 0.008236391 0.002676166 -0.005
v 0.004755283 0.001545085 -0.008660254
v 0.0003871314 0.001191469 -0.01035944
v 0.005877852 0.00809017 0
v 0.005090369 0.007006292 0.005
v 0.002938926 0.004045085 0.008660254
v 0.005090369 0.007006292 -0.005
v 0.002938926 0.004045085 -0.008660254
v -4.470348E-10 0.005 0.008660254
v -0.001013524 0.000736368 0.01035944
v -8.940697E-10 0.01 0
v -2.980232E-10 0.008660253 0.005
v -4.470348E-10 0.005 -0.008660254
v -0.001013524 0.000736368 -0.01035944
v -2.980232E-10 0.008660253 -0.005
v -0.005877854 0.00809017 0
v -0.005090369 0.007006292 0.005
v -0.002938927 0.004045085 0.008660254
v -0.005090369 0.007006292 -0.005
v -0.002938927 0.004045085 -0.008660254
v -0.004755284 0.001545085 0.008660254
v -0.001013524 -0.0007363684 0.01035944
v -0.004755283 -0.001545086 0.008660254
v -0.008236391 -0.002676166 0.005
v -0.008236391 0.002676165 0.005
v -0.009510566 -0.003090171 0
v -0.009510567 0.003090169 0
v -0.008236391 0.002676165 -0.005
v -0.008236391 -0.002676166 -0.005
v -0.004755284 0.001545085 -0.008660254
v -0.004755283 -0.001545086 -0.008660254
v -0.001013524 -0.0007363684 -0.01035944
vt 0.6758568 -1.298856E-09
vt 0.6470076 0.009373672
vt 0.6470076 0.03970751
vt 0.6758568 0.04908118
vt 0.6936866 0.02454059
vt 0.6470076 0.05845484
vt 0.6470076 0.08878868
vt 0.6758568 0.09816235
vt 0.6758568 0.04908117
vt 0.6936865 0.07362176
vt 0.08914698 0.6798274
vt 0.04776245 0.5259295
vt 0.00897787 0.5648575
vt 6.460714E-08 0.7253817
vt 0.1794908 0.7642487
vt 0.07896625 0.8974354
vt 0.2838236 0.7962237
vt 0.2604575 1
vt 0.4610754 0.9419338
vt 0.3927802 0.7882116
vt 0.578136 0.7911987
vt 0.2958882 0.6888777
vt 0.2219407 0.672938
vt 0.1398855 0.6248572
vt 0.4996875 0.7254995
vt 0.6076324 0.6266755
vt 0.572301 0.5860316
vt 0.3714874 0.6895422
vt 0.1691919 0.5728049
vt 0.07255246 0.4785886
vt 0.244567 0.6020886
vt 0.3045591 0.6119496
vt 0.4619792 0.6602997
vt 0.3649271 0.6155234
vt 0.4446686 0.6035058
vt 0.5596837 0.534548
vt 0.3119978 0.5480535
vt 0.2584664 0.5408626
vt 0.3647016 0.5529761
vt 0.4391269 0.5515649
vt 0.3171639 0.4901656
vt 0.1860458 0.5232039
vt 0.4379394 0.5034461
vt 0.5656374 0.4824459
vt 0.3689654 0.4967898
vt 0.2661174 0.484789
vt 0.1976341 0.4764977
vt 0.07941344 0.4268832
vt 0.3239164 0.4317246
vt 0.3769236 0.4409473
vt 0.4481587 0.455429
vt 0.2705001 0.4290271
vt 0.1980477 0.427905
vt 0.4661331 0.4081294
vt 0.5931315 0.4375628
vt 0.3310014 0.3681882
vt 0.3903614 0.3812245
vt 0.1905466 0.37843
vt 0.05198355 0.3815288
vt 0.2703161 0.3679809
vt 0.3395772 0.2911628
vt 0.4125507 0.3121331
vt 0.4976774 0.3577248
vt 0.2636938 0.2955267
vt 0.170001 0.3221807
vt 0.5473959 0.3059584
vt 0.6470076 0.4285645
vt 0.6406788 0.2635424
vt 0.5623555 0.07829187
vt 0.4568475 0.2206431
vt 0.374054 3.230042E-08
vt 0.3521161 0.1819786
vt 0.2407864 0.1954611
vt 0.1707737 0.03011492
vt 0.1318751 0.2591296
vt 0.04843236 0.1937392
vt 3.407269E-08 0.3539419
vn 0.07815368 0.2405327 0.9674896
vn 0.2529109 0 0.9674896
vn 0.07815383 -0.2405327 0.9674895
vn -0.2046094 -0.1486574 0.9674896
vn -0.2046094 0.1486574 0.9674895
vn 0.07815376 -0.2405327 -0.9674896
vn 0.2529109 0 -0.9674896
vn 0.07815364 0.2405327 -0.9674896
vn -0.2046094 -0.1486574 -0.9674895
vn -0.2046095 0.1486574 -0.9674895
vn -0.3448224 -0.4788944 -0.8073151
vn 0.07815376 -0.2405327 -0.9674896
vn -0.2046094 -0.1486574 -0.9674895
vn -0.5620116 -0.1799591 -0.8073151
vn -0.5159395 -0.7101299 -0.4790844
vn -0.8348078 -0.2712455 -0.4790844
vn -0.5877852 -0.8090171 0
vn -0.9510565 -0.3090171 0
vn -0.8348078 -0.2712455 0.4790844
vn -0.5159395 -0.7101299 0.4790844
vn -0.5620116 -0.1799591 0.8073151
vn 0 -1 0
vn 0 -0.8777688 -0.4790844
vn -0.002519777 -0.5901151 -0.8073151
vn -0.3448224 -0.4788944 0.8073151
vn -0.2046094 -0.1486574 0.9674896
vn 0.07815383 -0.2405327 0.9674895
vn 0 -0.8777688 0.4790844
vn 0.3488998 -0.4759319 -0.8073151
vn 0.2529109 0 -0.9674896
vn 0.5159397 -0.7101299 -0.4790844
vn 0.5877852 -0.809017 0
vn -0.002519774 -0.5901151 0.8073151
vn 0.5159396 -0.7101299 0.4790844
vn 0.3488998 -0.475932 0.8073151
vn 0.2529109 0 0.9674896
vn 0.9510565 -0.309017 0
vn 0.8348078 -0.2712454 -0.4790843
vn 0.8348078 -0.2712454 0.4790843
vn 0.5604542 -0.1847522 0.8073151
vn 0.9510565 0.309017 0
vn 0.5604542 -0.1847522 -0.8073151
vn 0.5604541 0.1847522 0.8073151
vn 0.07815368 0.2405327 0.9674896
vn 0.8348078 0.2712455 0.4790843
vn 0.8348078 0.2712455 -0.4790843
vn 0.5604541 0.1847522 -0.8073151
vn 0.07815364 0.2405327 -0.9674896
vn 0.5877852 0.8090171 0
vn 0.5159395 0.71013 0.4790843
vn 0.3488996 0.4759319 0.8073151
vn 0.5159395 0.71013 -0.4790843
vn 0.3488996 0.4759319 -0.8073151
vn -0.00251994 0.5901151 0.8073151
vn -0.2046094 0.1486574 0.9674895
vn 0 1 0
vn 0 0.8777689 0.4790844
vn -0.002519952 0.5901151 -0.8073151
vn -0.2046095 0.1486574 -0.9674895
vn 0 0.8777689 -0.4790844
vn -0.5877852 0.809017 0
vn -0.5159395 0.7101299 0.4790844
vn -0.3448224 0.4788944 0.8073151
vn -0.5159395 0.7101299 -0.4790844
vn -0.3448224 0.4788944 -0.8073151
vn -0.5620116 0.179959 0.8073152
vn -0.2046094 -0.1486574 0.9674896
vn -0.5620116 -0.1799591 0.8073151
vn -0.8348078 -0.2712455 0.4790844
vn -0.8348078 0.2712455 0.4790843
vn -0.9510565 -0.3090171 0
vn -0.9510565 0.3090169 0
vn -0.8348078 0.2712455 -0.4790843
vn -0.8348078 -0.2712455 -0.4790844
vn -0.5620116 0.179959 -0.8073152
vn -0.5620116 -0.1799591 -0.8073151
vn -0.2046094 -0.1486574 -0.9674895
g WebSphere_0
f 3/3/3 2/2/2 1/1/1
f 1/1/1 4/4/4 3/3/3
f 1/1/1 5/5/5 4/4/4
f 8/8/8 7/7/7 6/6/6
f 6/6/6 9/9/9 8/8/8
f 9/9/9 10/10/10 8/8/8
f 13/13/13 12/12/12 11/11/11
f 13/13/13 11/11/11 14/14/14
f 14/14/14 11/11/11 15/15/15
f 16/16/16 14/14/14 15/15/15
f 16/16/16 15/15/15 17/17/17
f 18/18/18 16/16/16 17/17/17
f 19/19/19 18/18/18 17/17/17
f 20/20/20 19/19/19 17/17/17
f 21/21/21 19/19/19 20/20/20
f 17/17/17 15/15/15 22/22/22
f 20/20/20 17/17/17 22/22/22
f 15/15/15 11/11/11 23/23/23
f 15/15/15 23/23/23 22/22/22
f 12/12/12 24/24/24 11/11/11
f 11/11/11 24/24/24 23/23/23
f 25/25/25 21/21/21 20/20/20
f 25/25/25 26/26/26 21/21/21
f 27/27/27 26/26/26 25/25/25
f 28/28/28 20/20/20 22/22/22
f 25/25/25 20/20/20 28/28/28
f 12/12/12 29/29/29 24/24/24
f 12/12/12 30/30/30 29/29/29
f 23/23/23 24/24/24 31/31/31
f 24/24/24 29/29/29 31/31/31
f 22/22/22 23/23/23 32/32/32
f 28/28/28 22/22/22 32/32/32
f 23/23/23 31/31/31 32/32/32
f 33/33/33 27/27/27 25/25/25
f 33/33/33 25/25/25 28/28/28
f 34/34/34 28/28/28 32/32/32
f 33/33/33 28/28/28 34/34/34
f 35/35/35 27/27/27 33/33/33
f 35/35/35 33/33/33 34/34/34
f 36/36/36 27/27/27 35/35/35
f 32/32/32 31/31/31 37/37/37
f 34/34/34 32/32/32 37/37/37
f 31/31/31 29/29/29 38/38/38
f 31/31/31 38/38/38 37/37/37
f 35/35/35 34/34/34 39/39/39
f 39/39/39 34/34/34 37/37/37
f 40/40/40 36/36/36 35/35/35
f 40/40/40 35/35/35 39/39/39
f 39/39/39 37/37/37 41/41/41
f 37/37/37 38/38/38 41/41/41
f 29/29/29 42/42/42 38/38/38
f 30/30/30 42/42/42 29/29/29
f 43/43/43 36/36/36 40/40/40
f 44/44/44 36/36/36 43/43/43
f 40/40/40 39/39/39 45/45/45
f 45/45/45 39/39/39 41/41/41
f 43/43/43 40/40/40 45/45/45
f 38/38/38 42/42/42 46/46/46
f 38/38/38 46/46/46 41/41/41
f 30/30/30 47/47/47 42/42/42
f 42/42/42 47/47/47 46/46/46
f 30/30/30 48/48/48 47/47/47
f 45/45/45 41/41/41 49/49/49
f 41/41/41 46/46/46 49/49/49
f 43/43/43 45/45/45 50/50/50
f 50/50/50 45/45/45 49/49/49
f 51/51/51 44/44/44 43/43/43
f 51/51/51 43/43/43 50/50/50
f 46/46/46 47/47/47 52/52/52
f 46/46/46 52/52/52 49/49/49
f 48/48/48 53/53/53 47/47/47
f 47/47/47 53/53/53 52/52/52
f 54/54/54 44/44/44 51/51/51
f 55/55/55 44/44/44 54/54/54
f 50/50/50 49/49/49 56/56/56
f 49/49/49 52/52/52 56/56/56
f 51/51/51 50/50/50 57/57/57
f 54/54/54 51/51/51 57/57/57
f 57/57/57 50/50/50 56/56/56
f 48/48/48 58/58/58 53/53/53
f 48/48/48 59/59/59 58/58/58
f 52/52/52 53/53/53 60/60/60
f 52/52/52 60/60/60 56/56/56
f 53/53/53 58/58/58 60/60/60
f 57/57/57 56/56/56 61/61/61
f 56/56/56 60/60/60 61/61/61
f 54/54/54 57/57/57 62/62/62
f 62/62/62 57/57/57 61/61/61
f 63/63/63 55/55/55 54/54/54
f 63/63/63 54/54/54 62/62/62
f 60/60/60 58/58/58 64/64/64
f 60/60/60 64/64/64 61/61/61
f 59/59/59 65/65/65 58/58/58
f 58/58/58 65/65/65 64/64/64
f 66/66/66 55/55/55 63/63/63
f 67/67/67 55/55/55 66/66/66
f 68/68/68 67/67/67 66/66/66
f 68/68/68 66/66/66 69/69/69
f 66/66/66 63/63/63 70/70/70
f 66/66/66 70/70/70 69/69/69
f 63/63/63 62/62/62 70/70/70
f 69/69/69 70/70/70 71/71/71
f 62/62/62 61/61/61 72/72/72
f 70/70/70 62/62/62 72/72/72
f 61/61/61 64/64/64 72/72/72
f 70/70/70 72/72/72 71/71/71
f 64/64/64 73/73/73 72/72/72
f 72/72/72 73/73/73 71/71/71
f 64/64/64 65/65/65 73/73/73
f 73/73/73 74/74/74 71/71/71
f 65/65/65 75/75/75 73/73/73
f 73/73/73 75/75/75 74/74/74
f 59/59/59 75/75/75 65/65/65
f 75/75/75 76/76/76 74/74/74
f 59/59/59 77/77/77 75/75/75
f 77/77/77 76/76/76 75/75/75
